<svg width="62" height="63" viewBox="0 0 62 63" fill="none" xmlns="http://www.w3.org/2000/svg">
<circle cx="31" cy="31.4968" r="31" fill="#6349A0"/>
<g clip-path="url(#clip0)">
<path d="M42.2535 27.3943L38.3786 30.3389V28.0786C38.3786 27.604 37.9939 27.2193 37.5192 27.2193H22.4924C22.0178 27.2193 21.6331 27.604 21.6331 28.0786V40.4771C21.6331 40.9516 22.0178 41.3363 22.4924 41.3363H37.5192C37.9939 41.3363 38.3786 40.9516 38.3786 40.4771V38.2167L42.2535 41.1613C42.8141 41.5873 43.6329 41.1901 43.6329 40.4771V28.0786C43.6329 27.3695 42.8187 26.9648 42.2535 27.3943ZM36.6599 39.6178H23.3518V28.938H36.6599V39.6178ZM41.9141 38.7446L38.3786 36.0581V32.4977L41.9141 29.811V38.7446ZM25.4128 22.7414C27.2025 20.5777 29.8342 19.3367 32.6329 19.3367C35.4316 19.3367 38.0632 20.5777 39.8531 22.7414C40.1556 23.1072 40.1044 23.649 39.7387 23.9514C39.3739 24.2531 38.832 24.2037 38.5287 23.837C37.0666 22.0692 34.9176 21.0554 32.6329 21.0554C30.3483 21.0554 28.1994 22.0692 26.7373 23.837C26.4348 24.2027 25.893 24.2541 25.5273 23.9514C25.1615 23.649 25.1103 23.1072 25.4128 22.7414ZM35.7406 24.1257C36.1444 24.3749 36.2696 24.9045 36.0204 25.3083C35.7715 25.7113 35.2422 25.8379 34.8376 25.588C34.1757 25.1792 33.4134 24.9632 32.6329 24.9632C31.8526 24.9632 31.0902 25.1792 30.4282 25.588C30.0244 25.8374 29.495 25.7122 29.2456 25.3083C28.9962 24.9045 29.1214 24.3749 29.5252 24.1257C30.4588 23.5491 31.5333 23.2445 32.6329 23.2445C33.7326 23.2445 34.8072 23.5491 35.7406 24.1257Z" fill="white"/>
</g>
<defs>
<clipPath id="clip0">
<rect width="22" height="22" fill="white" transform="translate(21.6331 19.3367)"/>
</clipPath>
</defs>
</svg>