<svg width="62" height="63" viewBox="0 0 62 63" fill="none" xmlns="http://www.w3.org/2000/svg">
<circle cx="31" cy="31.8621" r="31" fill="#6349A0"/>
<g clip-path="url(#clip0)">
<path d="M22.8812 37.3992H25.2543V38.9812H26.8363V27.907H25.2543V29.489H23.6722V28.698C23.6722 23.8711 27.5756 19.9441 32.3734 19.9441C37.1712 19.9441 41.0746 23.8711 41.0746 28.698V29.489H39.4926V27.907H37.9105V38.9812H39.4926V37.3992H41.0746V39.825C41.0746 41.1334 40.01 42.198 38.7015 42.198H34.6104C34.2839 41.2773 33.4046 40.616 32.3734 40.616C31.0649 40.616 30.0004 41.6805 30.0004 42.989C30.0004 44.2975 31.0649 45.3621 32.3734 45.3621C33.4046 45.3621 34.2839 44.7007 34.6104 43.78H38.7015C40.8824 43.78 42.6566 42.0058 42.6566 39.825V37.2631C43.5773 36.9366 44.2386 36.0573 44.2386 35.0261V31.8621C44.2386 30.8308 43.5773 29.9516 42.6566 29.6251V28.698C42.6566 22.9987 38.0436 18.3621 32.3734 18.3621C26.7033 18.3621 22.0902 22.9987 22.0902 28.698V29.6251C21.1695 29.9517 20.5082 30.8309 20.5082 31.8621V35.0262C20.5082 36.3346 21.5727 37.3992 22.8812 37.3992ZM32.3734 43.78C31.9372 43.78 31.5824 43.4252 31.5824 42.989C31.5824 42.5528 31.9372 42.198 32.3734 42.198C32.8096 42.198 33.1644 42.5528 33.1644 42.989C33.1644 43.4252 32.8096 43.78 32.3734 43.78ZM42.6566 31.8621V35.0261C42.6566 35.4623 42.3018 35.8171 41.8656 35.8171H39.4926V31.071H41.8656C42.3018 31.071 42.6566 31.4259 42.6566 31.8621ZM22.0902 31.8621C22.0902 31.4259 22.4451 31.071 22.8812 31.071H25.2543V35.8171H22.8812C22.4451 35.8171 22.0902 35.4623 22.0902 35.0261V31.8621Z" fill="white"/>
</g>
<defs>
<clipPath id="clip0">
<rect width="27" height="27" fill="white" transform="translate(18.8734 18.3621)"/>
</clipPath>
</defs>
</svg>
