<svg width="62" height="63" viewBox="0 0 62 63" fill="none" xmlns="http://www.w3.org/2000/svg">
<circle cx="31" cy="31.6262" r="31" fill="#6349A0"/>
<g clip-path="url(#clip0)">
<path d="M40.1046 25.6314C39.7937 25.425 39.4053 25.4062 39.0785 25.5818L34.2767 28.1606V26.5951C34.2767 25.9694 33.8045 25.4623 33.222 25.4623H24.7845C24.202 25.4623 23.7299 25.9694 23.7299 26.5951V35.6575C23.7299 36.2832 24.202 36.7903 24.7845 36.7903H33.222C33.8045 36.7903 34.2767 36.2832 34.2767 35.6575V34.0921L39.0785 36.6708C39.4065 36.8469 39.7947 36.8269 40.1046 36.6212C40.4155 36.4148 40.6048 36.0502 40.6048 35.6576V26.5951C40.6048 26.2024 40.4155 25.8378 40.1046 25.6314ZM32.1673 34.5247H25.8392V27.7278H32.1673V34.5247ZM38.4954 33.8246L34.2767 31.559V30.6936L38.4954 28.428V33.8246Z" fill="white"/>
<path d="M41.6513 20.9395C39.0617 18.158 35.6935 16.6262 32.1672 16.6262C28.641 16.6262 25.2728 18.1581 22.6832 20.9395C20.2848 23.5156 18.9058 26.6879 18.6954 30.1137C18.4982 33.3228 19.3667 36.4453 21.0521 39.1032L18.7786 43.9868C18.5756 44.4229 18.6552 44.9496 18.9762 45.2944C19.2966 45.6386 19.7869 45.725 20.1936 45.5066L24.7405 43.0647C25.9211 43.9284 27.1859 44.5841 28.5089 45.0175C30.0155 45.511 31.5635 45.7056 33.11 45.5961C36.2993 45.3701 39.2529 43.8889 41.6513 41.3128C44.241 38.5314 45.6672 34.9137 45.6672 31.1262C45.6672 27.3387 44.241 23.721 41.6513 20.9395ZM40.1597 39.7108C36.0406 44.1352 30.1363 44.5887 25.4679 40.8394C25.1508 40.5847 24.7241 40.5405 24.3647 40.7335L22.0804 41.9603L23.2226 39.5067C23.401 39.1235 23.3628 38.6649 23.1239 38.3218C19.6331 33.3075 20.0554 26.9659 24.1747 22.5416C28.7311 17.6477 35.6032 17.6476 40.1597 22.5416H40.1598C42.3511 24.8952 43.5579 27.9439 43.5579 31.1262C43.5579 34.3085 42.3511 37.3572 40.1597 39.7108Z" fill="white"/>
</g>
<defs>
<clipPath id="clip0">
<rect width="27" height="29" fill="white" transform="translate(18.6674 16.6262)"/>
</clipPath>
</defs>
</svg>
