<svg width="62" height="63" viewBox="0 0 62 63" fill="none" xmlns="http://www.w3.org/2000/svg">
<circle cx="31" cy="31.5917" r="31" fill="#6349A0"/>
<g clip-path="url(#clip0)">
<path d="M39.2031 31.5428H36.7422V25.5389C36.7422 22.2596 34.1662 19.5917 31 19.5917C27.8338 19.5917 25.2578 22.2596 25.2578 25.5389V31.5428H22.7969C22.3438 31.5428 21.9766 31.9232 21.9766 32.3925V34.0917C21.9766 38.9585 25.5872 42.9677 30.1797 43.3984V46.8925H26.0781C25.6251 46.8925 25.2578 47.2729 25.2578 47.7421C25.2578 48.2113 25.6251 48.5917 26.0781 48.5917H35.9219C36.3749 48.5917 36.7422 48.2113 36.7422 47.7421C36.7422 47.2729 36.3749 46.8925 35.9219 46.8925H31.8203V43.3984C36.4128 42.9677 40.0234 38.9585 40.0234 34.0917V32.3925C40.0234 31.9232 39.6562 31.5428 39.2031 31.5428ZM26.8984 25.5389C26.8984 23.1966 28.7384 21.2909 31 21.2909C33.2616 21.2909 35.1016 23.1966 35.1016 25.5389V34.0917C35.1016 36.434 33.2616 38.3397 31 38.3397C28.7384 38.3397 26.8984 36.434 26.8984 34.0917V25.5389ZM38.3828 34.0917C38.3828 38.3079 35.0709 41.7382 31 41.7382C26.9291 41.7382 23.6172 38.3079 23.6172 34.0917V33.2421H25.2578V34.0917C25.2578 37.371 27.8338 40.0389 31 40.0389C34.1662 40.0389 36.7422 37.371 36.7422 34.0917V33.2421H38.3828V34.0917Z" fill="white"/>
<path d="M22.7969 28.1444C23.2499 28.1444 23.6172 27.764 23.6172 27.2948V23.0468C23.6172 22.5775 23.2499 22.1971 22.7969 22.1971C22.3438 22.1971 21.9766 22.5775 21.9766 23.0468V27.2948C21.9766 27.764 22.3438 28.1444 22.7969 28.1444Z" fill="white"/>
<path d="M19.5156 19.5917C19.0626 19.5917 18.6953 19.9721 18.6953 20.4413V29.8436C18.6953 30.3128 19.0626 30.6932 19.5156 30.6932C19.9687 30.6932 20.3359 30.3128 20.3359 29.8436V20.4413C20.3359 19.9721 19.9687 19.5917 19.5156 19.5917Z" fill="white"/>
<path d="M39.2031 22.1971C38.7501 22.1971 38.3828 22.5775 38.3828 23.0468V27.2948C38.3828 27.764 38.7501 28.1444 39.2031 28.1444C39.6562 28.1444 40.0234 27.764 40.0234 27.2948V23.0468C40.0234 22.5775 39.6562 22.1971 39.2031 22.1971Z" fill="white"/>
<path d="M42.4844 19.5917C42.0313 19.5917 41.6641 19.9721 41.6641 20.4413V29.8436C41.6641 30.3128 42.0313 30.6932 42.4844 30.6932C42.9374 30.6932 43.3047 30.3128 43.3047 29.8436V20.4413C43.3047 19.9721 42.9374 19.5917 42.4844 19.5917Z" fill="white"/>
</g>
<defs>
<clipPath id="clip0">
<rect width="28" height="29" fill="white" transform="translate(17 19.5917)"/>
</clipPath>
</defs>
</svg>
