<svg width="62" height="63" viewBox="0 0 62 63" fill="none" xmlns="http://www.w3.org/2000/svg">
<circle cx="31" cy="31.2719" r="31" fill="#6349A0"/>
<g clip-path="url(#clip0)">
<path d="M17 36.8769C17 37.5196 17.7282 37.8935 18.2504 37.5208L22.5994 34.4184C22.9642 34.1582 23.3939 34.0206 23.842 34.0206H33.4071C35.0908 34.0206 36.4605 32.6509 36.4605 30.9672V20.9302C36.4605 20.4934 36.1063 20.1392 35.6695 20.1392H20.0534C18.3698 20.1392 17 21.5089 17 23.1926V36.8769ZM18.582 23.1926C18.582 22.3813 19.2421 21.7213 20.0534 21.7213H34.8784V30.9672C34.8784 31.7786 34.2184 32.4386 33.407 32.4386H23.842C23.0626 32.4386 22.3152 32.6779 21.6807 33.1305L18.582 35.341V23.1926Z" fill="white"/>
<path d="M44 29.3282C44 27.6443 42.6303 26.2744 40.9467 26.2744H38.8336C38.3968 26.2744 38.0426 26.6285 38.0426 27.0654C38.0426 27.5022 38.3968 27.8564 38.8336 27.8564H40.9467C41.758 27.8564 42.418 28.5167 42.418 29.3282V41.4763L39.3193 39.2659C38.6849 38.8133 37.9376 38.5741 37.1582 38.5741H27.5927C26.7814 38.5741 26.1215 37.9138 26.1215 37.1023V36.3936C26.1215 35.9568 25.7673 35.6026 25.3304 35.6026C24.8936 35.6026 24.5394 35.9568 24.5394 36.3936V37.1023C24.5394 38.7862 25.9092 40.1561 27.5927 40.1561H37.1582C37.6063 40.1561 38.0359 40.2936 38.4007 40.5538L42.7497 43.6562C43.2693 44.027 44 43.657 44 43.0122V29.3282H44Z" fill="white"/>
<path d="M22.688 26.0303H31.8271C32.2639 26.0303 32.6181 25.6762 32.6181 25.2393C32.6181 24.8025 32.2639 24.4483 31.8271 24.4483H22.688C22.2511 24.4483 21.897 24.8025 21.897 25.2393C21.897 25.6762 22.2511 26.0303 22.688 26.0303Z" fill="white"/>
<path d="M22.688 29.7217H31.8271C32.2639 29.7217 32.6181 29.3676 32.6181 28.9307C32.6181 28.4939 32.2639 28.1397 31.8271 28.1397H22.688C22.2511 28.1397 21.897 28.4939 21.897 28.9307C21.897 29.3676 22.2511 29.7217 22.688 29.7217Z" fill="white"/>
</g>
<defs>
<clipPath id="clip0">
<rect width="27" height="27" fill="white" transform="translate(17 18.4714)"/>
</clipPath>
</defs>
</svg>
