<svg width="62" height="63" viewBox="0 0 62 63" fill="none" xmlns="http://www.w3.org/2000/svg">
<circle cx="31" cy="31.6943" r="31" fill="#6349A0"/>
<g clip-path="url(#clip0)">
<path d="M34.2658 29.1943C35.6445 29.1943 36.7658 28.0731 36.7658 26.6943C36.7658 25.3155 35.6445 24.1943 34.2658 24.1943C32.887 24.1943 31.7657 25.3155 31.7657 26.6944C31.7657 26.8737 31.7865 27.048 31.8226 27.2168L28.6408 28.8082C28.1822 28.2833 27.5161 27.9443 26.7658 27.9443C25.387 27.9443 24.2657 29.0655 24.2657 30.4444C24.2657 31.8232 25.3869 32.9444 26.7658 32.9444C27.5159 32.9444 28.182 32.6056 28.6405 32.0809L31.8226 33.6719C31.7865 33.8407 31.7657 34.015 31.7657 34.1944C31.7657 35.5732 32.8869 36.6944 34.2658 36.6944C35.6446 36.6944 36.7658 35.5732 36.7658 34.1944C36.7658 32.8156 35.6445 31.6943 34.2658 31.6943C33.5154 31.6943 32.8492 32.0332 32.3906 32.5582L29.2088 30.9672C29.2449 30.7983 29.2658 30.6239 29.2658 30.4444C29.2658 30.265 29.245 30.0907 29.209 29.9219L32.3907 28.3305C32.8493 28.8554 33.5154 29.1943 34.2658 29.1943ZM34.2658 25.4443C34.9548 25.4443 35.5158 26.0052 35.5158 26.6943C35.5158 27.3834 34.9548 27.9443 34.2658 27.9443C33.5767 27.9443 33.0158 27.3834 33.0158 26.6943C33.0158 26.0052 33.5767 25.4443 34.2658 25.4443ZM26.7658 31.6943C26.0767 31.6943 25.5158 31.1334 25.5158 30.4444C25.5158 29.7553 26.0767 29.1944 26.7658 29.1944C27.4548 29.1944 28.0157 29.7553 28.0157 30.4444C28.0157 31.1334 27.4548 31.6943 26.7658 31.6943ZM34.2658 32.9443C34.9548 32.9443 35.5158 33.5052 35.5158 34.1943C35.5158 34.8834 34.9548 35.4443 34.2658 35.4443C33.5767 35.4443 33.0158 34.8834 33.0158 34.1943C33.0158 33.5052 33.5767 32.9443 34.2658 32.9443Z" fill="white"/>
<path d="M38.0158 16.6943H23.0158C21.637 16.6943 20.5157 17.8155 20.5157 19.1944V44.1944C20.5157 45.5731 21.637 46.6943 23.0158 46.6943H38.0158C39.3945 46.6943 40.5158 45.5731 40.5158 44.1943V19.1944C40.5158 17.8155 39.3945 16.6943 38.0158 16.6943ZM39.2657 44.1943C39.2657 44.8834 38.7048 45.4443 38.0158 45.4443H23.0158C22.3267 45.4443 21.7658 44.8834 21.7658 44.1943V41.6943H39.2658V44.1943H39.2657ZM39.2657 40.4443H21.7658V19.1944C21.7658 18.5053 22.3267 17.9444 23.0158 17.9444H38.0158C38.7048 17.9444 39.2657 18.5053 39.2657 19.1944V40.4443Z" fill="white"/>
<path d="M29.8908 20.4443H31.1408C31.4862 20.4443 31.7658 20.1648 31.7658 19.8193C31.7658 19.4738 31.4862 19.1943 31.1408 19.1943H29.8908C29.5453 19.1943 29.2657 19.4738 29.2657 19.8193C29.2658 20.1648 29.5454 20.4443 29.8908 20.4443Z" fill="white"/>
<path d="M28.6408 44.1943H32.3908C32.7362 44.1943 33.0158 43.9148 33.0158 43.5693C33.0158 43.2238 32.7362 42.9443 32.3908 42.9443H28.6408C28.2953 42.9443 28.0157 43.2239 28.0157 43.5694C28.0157 43.9148 28.2953 44.1943 28.6408 44.1943Z" fill="white"/>
<path d="M37.3908 20.4443C37.736 20.4443 38.0158 20.1645 38.0158 19.8193C38.0158 19.4741 37.736 19.1943 37.3908 19.1943C37.0456 19.1943 36.7657 19.4741 36.7657 19.8193C36.7657 20.1645 37.0456 20.4443 37.3908 20.4443Z" fill="white"/>
</g>
<defs>
<clipPath id="clip0">
<rect width="30" height="30" fill="white" transform="translate(15.5157 16.6943)"/>
</clipPath>
</defs>
</svg>
