<svg width="62" height="63" viewBox="0 0 62 63" fill="none" xmlns="http://www.w3.org/2000/svg">
<circle cx="31" cy="31.1719" r="31" fill="#6349A0"/>
<path d="M33.414 32.8477C32.5023 32.5057 31.4976 32.5057 30.586 32.8477C30.4645 32.8961 30.3669 32.9902 30.3139 33.1097C30.261 33.2292 30.257 33.3648 30.3028 33.4872C30.3485 33.6097 30.4404 33.7094 30.5588 33.7649C30.6772 33.8204 30.8126 33.8273 30.936 33.7842C31.6208 33.5262 32.3761 33.5262 33.061 33.7842C33.1844 33.8273 33.3198 33.8204 33.4382 33.7649C33.5565 33.7094 33.6485 33.6097 33.6942 33.4872C33.74 33.3648 33.736 33.2292 33.683 33.1097C33.6301 32.9902 33.5324 32.8961 33.411 32.8477H33.414Z" fill="white"/>
<path d="M34.6115 31.2392C33.8046 30.8208 32.9089 30.6025 32 30.6025C31.0911 30.6025 30.1954 30.8208 29.3885 31.2392C29.2745 31.3023 29.1897 31.4073 29.152 31.532C29.1143 31.6567 29.1268 31.7911 29.1867 31.9068C29.2466 32.0224 29.3493 32.1101 29.4729 32.1512C29.5965 32.1923 29.7313 32.1835 29.8485 32.1267C30.5135 31.7827 31.2513 31.6032 32 31.6032C32.7487 31.6032 33.4865 31.7827 34.1515 32.1267C34.2687 32.1835 34.4035 32.1923 34.5271 32.1512C34.6507 32.1101 34.7534 32.0224 34.8133 31.9068C34.8732 31.7911 34.8857 31.6567 34.848 31.532C34.8103 31.4073 34.7255 31.3023 34.6115 31.2392Z" fill="white"/>
<path d="M28.7594 30.5128C29.7356 29.9178 30.8567 29.603 31.9999 29.603C33.1431 29.603 34.2643 29.9178 35.2404 30.5128C35.3539 30.5816 35.49 30.6025 35.6189 30.571C35.7478 30.5394 35.8589 30.458 35.9277 30.3445C35.9965 30.2311 36.0174 30.0949 35.9859 29.966C35.9543 29.8372 35.8729 29.7261 35.7594 29.6573C34.6268 28.9673 33.3262 28.6024 31.9999 28.6024C30.6737 28.6024 29.3731 28.9673 28.2404 29.6573C28.127 29.7261 28.0455 29.8372 28.014 29.966C27.9824 30.0949 28.0034 30.2311 28.0722 30.3445C28.141 30.458 28.2521 30.5394 28.381 30.571C28.5099 30.6025 28.646 30.5816 28.7594 30.5128Z" fill="white"/>
<path d="M20 34.2127C20.3566 34.2121 20.7102 34.1474 21.044 34.0217L24.132 39.3717C23.7502 39.6743 23.4478 40.0653 23.251 40.5109C23.0542 40.9566 22.9688 41.4435 23.0024 41.9295C23.0359 42.4155 23.1873 42.886 23.4435 43.3004C23.6996 43.7148 24.0529 44.0606 24.4726 44.3078C24.8924 44.5551 25.366 44.6964 25.8527 44.7196C26.3393 44.7427 26.8242 44.647 27.2656 44.4407C27.7069 44.2344 28.0914 43.9238 28.3857 43.5356C28.6801 43.1474 28.8755 42.6934 28.955 42.2127H35.045C35.125 42.6931 35.3207 43.1468 35.6153 43.5347C35.9099 43.9225 36.2945 44.2328 36.7358 44.4387C37.1771 44.6446 37.662 44.74 38.1485 44.7166C38.6349 44.6932 39.1084 44.5517 39.5279 44.3044C39.9474 44.057 40.3004 43.7113 40.5564 43.2969C40.8124 42.8826 40.9637 42.4122 40.9972 41.9263C41.0307 41.4405 40.9453 40.9537 40.7486 40.5082C40.5519 40.0627 40.2496 39.6718 39.868 39.3692L42.956 34.0217C43.4099 34.1919 43.8982 34.2496 44.3793 34.1898C44.8603 34.13 45.3197 33.9546 45.7181 33.6785C46.1166 33.4024 46.4421 33.0338 46.667 32.6044C46.8919 32.175 47.0093 31.6975 47.0093 31.2127C47.0093 30.728 46.8919 30.2505 46.667 29.821C46.4421 29.3916 46.1166 29.0231 45.7181 28.747C45.3197 28.4708 44.8603 28.2954 44.3793 28.2356C43.8982 28.1758 43.4099 28.2335 42.956 28.4037L39.868 23.0537C40.2498 22.7511 40.5522 22.3601 40.749 21.9145C40.9458 21.4688 41.0312 20.982 40.9976 20.496C40.9641 20.0099 40.8127 19.5394 40.5565 19.125C40.3004 18.7106 39.9471 18.3649 39.5274 18.1176C39.1076 17.8703 38.634 17.729 38.1473 17.7059C37.6607 17.6827 37.1758 17.7784 36.7344 17.9847C36.2931 18.191 35.9086 18.5017 35.6143 18.8899C35.3199 19.278 35.1245 19.7321 35.045 20.2127H28.955C28.875 19.7323 28.6793 19.2786 28.3847 18.8908C28.0901 18.5029 27.7055 18.1927 27.2642 17.9867C26.8229 17.7808 26.338 17.6854 25.8515 17.7088C25.3651 17.7322 24.8916 17.8737 24.4721 18.1211C24.0526 18.3684 23.6996 18.7142 23.4436 19.1285C23.1876 19.5428 23.0363 20.0132 23.0028 20.4991C22.9693 20.985 23.0547 21.4717 23.2514 21.9172C23.4481 22.3627 23.7504 22.7537 24.132 23.0562L21.044 28.4062C20.6321 28.2507 20.1911 28.1877 19.7521 28.2217C19.3132 28.2558 18.8871 28.386 18.5042 28.6032C18.1212 28.8204 17.7907 29.1192 17.5362 29.4785C17.2817 29.8377 17.1094 30.2486 17.0315 30.6819C16.9536 31.1152 16.972 31.5603 17.0854 31.9857C17.1989 32.4111 17.4045 32.8063 17.6879 33.1433C17.9712 33.4803 18.3252 33.7508 18.7248 33.9356C19.1244 34.1204 19.5597 34.215 20 34.2127ZM21.9115 33.5232C22.4649 33.0641 22.8351 32.4217 22.955 31.7127H26.0235C26.0935 32.5939 26.3592 33.4484 26.8013 34.2139C27.2434 34.9795 27.8507 35.6367 28.579 36.1377L26.993 38.8852C26.351 38.6552 25.649 38.6552 25.007 38.8852L21.9115 33.5232ZM27 31.2127C27.0003 30.0483 27.407 28.9206 28.1499 28.024C28.8929 27.1274 29.9254 26.5182 31.0694 26.3015C32.2135 26.0848 33.3973 26.2742 34.4166 26.8369C35.436 27.3997 36.2269 28.3006 36.6531 29.3842C37.0792 30.4678 37.1139 31.6661 36.751 32.7725C36.3881 33.8789 35.6504 34.8239 34.6652 35.4446C33.6801 36.0653 32.5092 36.3226 31.3545 36.1723C30.1999 36.022 29.1339 35.4734 28.3405 34.6212C27.4765 33.6969 26.9971 32.478 27 31.2127ZM26 43.7127C25.6044 43.7127 25.2178 43.5954 24.8889 43.3757C24.56 43.1559 24.3036 42.8435 24.1522 42.4781C24.0009 42.1126 23.9613 41.7105 24.0384 41.3225C24.1156 40.9346 24.3061 40.5782 24.5858 40.2985C24.8655 40.0188 25.2219 39.8283 25.6098 39.7511C25.9978 39.674 26.3999 39.7136 26.7654 39.865C27.1308 40.0163 27.4432 40.2727 27.6629 40.6016C27.8827 40.9305 28 41.3172 28 41.7127C28 42.2432 27.7893 42.7519 27.4142 43.1269C27.0391 43.502 26.5304 43.7127 26 43.7127ZM35.045 41.2127H28.955C28.8316 40.4855 28.4446 39.8292 27.868 39.3692L29.448 36.6332C30.2447 37.0147 31.1167 37.2127 32 37.2127C32.8833 37.2127 33.7553 37.0147 34.552 36.6332L36.132 39.3692C35.5554 39.8292 35.1684 40.4855 35.045 41.2127ZM40 41.7127C40 42.1083 39.8827 42.495 39.6629 42.8239C39.4432 43.1528 39.1308 43.4091 38.7654 43.5605C38.3999 43.7119 37.9978 43.7515 37.6098 43.6743C37.2219 43.5971 36.8655 43.4066 36.5858 43.1269C36.3061 42.8472 36.1156 42.4909 36.0384 42.1029C35.9613 41.7149 36.0009 41.3128 36.1522 40.9473C36.3036 40.5819 36.56 40.2695 36.8889 40.0498C37.2178 39.83 37.6044 39.7127 38 39.7127C38.5304 39.7127 39.0391 39.9234 39.4142 40.2985C39.7893 40.6736 40 41.1823 40 41.7127ZM38.993 38.8852C38.351 38.6552 37.649 38.6552 37.007 38.8852L35.421 36.1377C36.1493 35.6367 36.7566 34.9795 37.1987 34.2139C37.6408 33.4484 37.9065 32.5939 37.9765 31.7127H41.045C41.1649 32.4217 41.5351 33.0641 42.0885 33.5232L38.993 38.8852ZM44 29.2127C44.3956 29.2127 44.7822 29.33 45.1111 29.5498C45.44 29.7695 45.6964 30.0819 45.8478 30.4474C45.9991 30.8128 46.0387 31.2149 45.9616 31.6029C45.8844 31.9909 45.6939 32.3472 45.4142 32.6269C45.1345 32.9066 44.7781 33.0971 44.3902 33.1743C44.0022 33.2515 43.6001 33.2119 43.2346 33.0605C42.8692 32.9091 42.5568 32.6528 42.3371 32.3239C42.1173 31.995 42 31.6083 42 31.2127C42 30.6823 42.2107 30.1736 42.5858 29.7985C42.9609 29.4234 43.4696 29.2127 44 29.2127ZM42.0885 28.9022C41.5351 29.3613 41.1649 30.0038 41.045 30.7127H37.9765C37.9065 29.8315 37.6408 28.977 37.1987 28.2115C36.7566 27.446 36.1493 26.7888 35.421 26.2877L37.007 23.5402C37.649 23.7702 38.351 23.7702 38.993 23.5402L42.0885 28.9022ZM38 18.7127C38.3956 18.7127 38.7822 18.83 39.1111 19.0498C39.44 19.2695 39.6964 19.5819 39.8478 19.9474C39.9991 20.3128 40.0387 20.7149 39.9616 21.1029C39.8844 21.4909 39.6939 21.8472 39.4142 22.1269C39.1345 22.4066 38.7781 22.5971 38.3902 22.6743C38.0022 22.7515 37.6001 22.7119 37.2346 22.5605C36.8692 22.4091 36.5568 22.1528 36.3371 21.8239C36.1173 21.495 36 21.1083 36 20.7127C36 20.1823 36.2107 19.6736 36.5858 19.2985C36.9609 18.9234 37.4696 18.7127 38 18.7127ZM28.955 21.2127H35.045C35.1684 21.94 35.5554 22.5962 36.132 23.0562L34.55 25.7922C33.7533 25.4107 32.8813 25.2127 31.998 25.2127C31.1147 25.2127 30.2427 25.4107 29.446 25.7922L27.866 23.0562C28.4434 22.5966 28.8311 21.9402 28.955 21.2127ZM24 20.7127C24 20.3172 24.1173 19.9305 24.3371 19.6016C24.5568 19.2727 24.8692 19.0163 25.2346 18.865C25.6001 18.7136 26.0022 18.674 26.3902 18.7511C26.7781 18.8283 27.1345 19.0188 27.4142 19.2985C27.6939 19.5782 27.8844 19.9346 27.9616 20.3225C28.0387 20.7105 27.9991 21.1126 27.8478 21.4781C27.6964 21.8435 27.44 22.1559 27.1111 22.3757C26.7822 22.5954 26.3956 22.7127 26 22.7127C25.4696 22.7127 24.9609 22.502 24.5858 22.1269C24.2107 21.7519 24 21.2432 24 20.7127ZM25.007 23.5402C25.649 23.7702 26.351 23.7702 26.993 23.5402L28.579 26.2877C27.8507 26.7888 27.2434 27.446 26.8013 28.2115C26.3592 28.977 26.0935 29.8315 26.0235 30.7127H22.955C22.8351 30.0038 22.4649 29.3613 21.9115 28.9022L25.007 23.5402ZM20 29.2127C20.3956 29.2127 20.7822 29.33 21.1111 29.5498C21.44 29.7695 21.6964 30.0819 21.8478 30.4474C21.9991 30.8128 22.0387 31.2149 21.9616 31.6029C21.8844 31.9909 21.6939 32.3472 21.4142 32.6269C21.1345 32.9066 20.7781 33.0971 20.3902 33.1743C20.0022 33.2515 19.6001 33.2119 19.2346 33.0605C18.8692 32.9091 18.5568 32.6528 18.3371 32.3239C18.1173 31.995 18 31.6083 18 31.2127C18 30.6823 18.2107 30.1736 18.5858 29.7985C18.9609 29.4234 19.4696 29.2127 20 29.2127Z" fill="white"/>
</svg>
