<svg width="62" height="63" viewBox="0 0 62 63" fill="none" xmlns="http://www.w3.org/2000/svg">
<circle cx="31" cy="31.2029" r="31" fill="#6349A0"/>
<g clip-path="url(#clip0)">
<path d="M42.0967 21.1242H19.9717C19.4539 21.1242 19.0342 21.5439 19.0342 22.0617V37.0617C19.0342 37.5795 19.4539 37.9992 19.9717 37.9992H27.4796L26.3765 42.2644C26.2469 42.7657 26.5482 43.2772 27.0494 43.4068C27.5529 43.5371 28.0627 43.233 28.1918 42.7339L29.4163 37.9992H32.652L33.8765 42.7339C34.0056 43.2328 34.5153 43.5371 35.0189 43.4068C35.5202 43.2772 35.8215 42.7657 35.6918 42.2644L34.5888 37.9992H42.0967C42.6145 37.9992 43.0342 37.5795 43.0342 37.0617V22.0617C43.0342 21.5439 42.6145 21.1242 42.0967 21.1242ZM41.1592 36.1242H20.9092V22.9992H41.1592V36.1242Z" fill="white"/>
</g>
<defs>
<clipPath id="clip0">
<rect width="24" height="24" fill="white" transform="translate(19.0342 20.2805)"/>
</clipPath>
</defs>
</svg>
