<svg width="452" height="570" viewBox="0 0 452 570" fill="none" xmlns="http://www.w3.org/2000/svg">
<g clip-path="url(#clip0)">
<path d="M275.639 77.5286H114.668C98.506 77.5286 85.4041 90.6372 85.4041 106.807V500.72C85.4041 516.891 98.506 529.999 114.668 529.999H275.639C291.801 529.999 304.903 516.891 304.903 500.72V106.807C304.903 90.6372 291.801 77.5286 275.639 77.5286Z" fill="#B6B3D9"/>
<path d="M153.589 86.8972H109.153C107.342 86.8955 105.548 87.2509 103.874 87.9433C102.199 88.6357 100.678 89.6515 99.3966 90.9324C98.115 92.2134 97.0983 93.7346 96.4047 95.4089C95.711 97.0833 95.354 98.878 95.354 100.69V506.557C95.354 510.219 96.8079 513.731 99.3958 516.32C101.984 518.909 105.494 520.364 109.153 520.364H282.433C286.092 520.364 289.602 518.909 292.19 516.32C294.778 513.731 296.232 510.219 296.232 506.557V100.69C296.232 98.878 295.875 97.0833 295.181 95.4089C294.488 93.7346 293.471 92.2134 292.19 90.9324C290.908 89.6515 289.387 88.6357 287.712 87.9433C286.038 87.2509 284.244 86.8955 282.433 86.8972H153.589Z" fill="#F9F9FC"/>
<path d="M274.84 463.139H116.226C112.71 463.139 109.859 465.991 109.859 469.509V473.107C109.859 476.625 112.71 479.477 116.226 479.477H274.84C278.357 479.477 281.207 476.625 281.207 473.107V469.509C281.207 465.991 278.357 463.139 274.84 463.139Z" fill="#E3E4F2"/>
<path d="M218.59 492.871H114.295C111.845 492.871 109.859 494.858 109.859 497.309V497.535C109.859 499.986 111.845 501.973 114.295 501.973H218.59C221.04 501.973 223.026 499.986 223.026 497.535V497.309C223.026 494.858 221.04 492.871 218.59 492.871Z" fill="#E3E4F2"/>
<path d="M276.638 492.871H234.654C232.204 492.871 230.219 494.858 230.219 497.309V497.535C230.219 499.986 232.204 501.973 234.654 501.973H276.638C279.088 501.973 281.074 499.986 281.074 497.535V497.309C281.074 494.858 279.088 492.871 276.638 492.871Z" fill="#E3E4F2"/>
<path d="M187.754 158.555H145.504C145.685 159.568 145.599 160.61 145.256 161.58C144.913 162.55 144.323 163.413 143.546 164.086C142.38 165.256 140.992 166.18 139.464 166.805C137.936 167.43 136.299 167.742 134.648 167.724H77.5453C75.8946 167.742 74.257 167.43 72.7289 166.805C71.2008 166.18 69.8131 165.256 68.6475 164.086C67.8698 163.413 67.2803 162.55 66.937 161.58C66.5937 160.61 66.5084 159.568 66.6895 158.555H24.4386C22.8492 158.554 21.2751 158.865 19.8062 159.473C18.3373 160.08 17.0024 160.971 15.8779 162.095C14.7534 163.219 13.8614 164.553 13.2527 166.022C12.6441 167.491 12.3308 169.066 12.3308 170.656V551.109C12.3343 554.319 13.6115 557.397 15.8818 559.666C18.1521 561.935 21.2298 563.21 24.4386 563.21H187.754C190.963 563.21 194.041 561.935 196.311 559.666C198.582 557.397 199.859 554.319 199.862 551.109V170.656C199.862 169.066 199.549 167.491 198.94 166.022C198.332 164.553 197.44 163.219 196.315 162.095C195.191 160.971 193.856 160.08 192.387 159.473C190.918 158.865 189.344 158.554 187.754 158.555Z" fill="#F9F9FC"/>
<path d="M187.754 158.555H145.504C145.685 159.568 145.599 160.61 145.256 161.58C144.913 162.55 144.323 163.413 143.546 164.086C142.38 165.256 140.992 166.18 139.464 166.805C137.936 167.43 136.299 167.742 134.648 167.724H77.5453C75.8946 167.742 74.257 167.43 72.7289 166.805C71.2008 166.18 69.8131 165.256 68.6475 164.086C67.8698 163.413 67.2803 162.55 66.937 161.58C66.5937 160.61 66.5084 159.568 66.6895 158.555H24.4386C22.8492 158.554 21.2751 158.865 19.8062 159.473C18.3373 160.08 17.0024 160.971 15.8779 162.095C14.7534 163.219 13.8614 164.553 13.2527 166.022C12.6441 167.491 12.3308 169.066 12.3308 170.656V551.109C12.3343 554.319 13.6115 557.397 15.8818 559.666C18.1521 561.935 21.2298 563.21 24.4386 563.21H187.754C190.963 563.21 194.041 561.935 196.311 559.666C198.582 557.397 199.859 554.319 199.862 551.109V170.656C199.862 169.066 199.549 167.491 198.94 166.022C198.332 164.553 197.44 163.219 196.315 162.095C195.191 160.971 193.856 160.08 192.387 159.473C190.918 158.865 189.344 158.554 187.754 158.555Z" stroke="#604D9B" stroke-width="2" stroke-miterlimit="10"/>
<path d="M161.394 56.8854V98.918C161.398 102.568 162.849 106.068 165.428 108.649C168.008 111.23 171.506 112.681 175.154 112.685H325.736C329.386 112.685 332.887 111.235 335.47 108.653C338.052 106.072 339.505 102.57 339.509 98.918V63.4022L358.263 43.7319L175.154 43.1588C171.511 43.1588 168.018 44.6037 165.438 47.1768C162.859 49.7499 161.405 53.2412 161.394 56.8854Z" fill="#5E4D9A"/>
<path d="M316.172 69.7724H273.548C273.215 69.7724 272.936 69.3726 272.936 68.8928C272.936 68.4131 273.215 68.0266 273.548 68.0266H316.172C316.518 68.0266 316.798 68.4131 316.798 68.8928C316.798 69.3726 316.518 69.7724 316.172 69.7724Z" fill="white"/>
<path d="M316.172 79.0611H273.548C273.215 79.0611 272.936 78.6613 272.936 78.1816C272.936 77.7018 273.215 77.3153 273.548 77.3153H316.172C316.518 77.3153 316.798 77.7018 316.798 78.1816C316.798 78.6613 316.518 79.0611 316.172 79.0611Z" fill="white"/>
<path d="M316.172 89.4161H273.548C273.215 89.4161 272.936 89.0163 272.936 88.5365C272.936 88.0568 273.215 87.6703 273.548 87.6703H316.172C316.518 87.6703 316.798 88.0568 316.798 88.5365C316.798 89.0163 316.518 89.4161 316.172 89.4161Z" fill="white"/>
<path d="M214.9 104.609C237.257 104.609 255.38 86.8997 255.38 65.0547C255.38 43.2097 237.257 25.5009 214.9 25.5009C192.544 25.5009 174.421 43.2097 174.421 65.0547C174.421 86.8997 192.544 104.609 214.9 104.609Z" fill="white"/>
<path d="M228.793 63.109H200.701C198.759 63.109 197.185 64.6842 197.185 66.6273V66.8005C197.185 68.7436 198.759 70.3188 200.701 70.3188H228.793C230.735 70.3188 232.31 68.7436 232.31 66.8005V66.6273C232.31 64.6842 230.735 63.109 228.793 63.109Z" fill="#1E2E34"/>
<path d="M215.966 4.60449H213.515V17.0117H215.966V4.60449Z" fill="#1E2E34"/>
<path d="M185.894 48.5968C186.814 44.7229 184.421 40.836 180.549 39.9153C176.677 38.9945 172.792 41.3885 171.872 45.2625C170.952 49.1364 173.345 53.0233 177.216 53.944C181.088 54.8648 184.973 52.4708 185.894 48.5968Z" fill="#FFA03E"/>
<path d="M258.71 46.6963C259.586 42.7941 257.134 38.9206 253.234 38.0446C249.334 37.1686 245.462 39.6218 244.586 43.524C243.711 47.4262 246.163 51.2997 250.063 52.1758C253.963 53.0518 257.835 50.5985 258.71 46.6963Z" fill="#FFA03E"/>
<path d="M216.166 14.3197C216.166 14.3197 245.47 13.9732 250.118 39.374C254.767 64.7748 229.965 65.2413 222.839 65.7211C219.616 65.9476 212.689 65.9609 206.589 65.8676C193.082 65.6278 183.532 63.0157 180.282 50.4752C179.903 48.9988 179.658 47.4912 179.549 45.9708C178.71 32.2309 188.034 13.6533 216.166 14.3197Z" fill="#FFA03E"/>
<path d="M193.522 54.4599L236.146 54.2866C238.281 54.262 240.32 53.3934 241.817 51.8704C243.314 50.3474 244.149 48.2936 244.138 46.1573C244.117 44.0223 243.252 41.9826 241.731 40.4842C240.211 38.9858 238.16 38.1506 236.026 38.1612L193.402 38.3478C191.273 38.3583 189.234 39.2102 187.73 40.7179C186.225 42.2255 185.377 44.2668 185.37 46.3972C185.372 47.4634 185.585 48.5187 185.996 49.5022C186.408 50.4858 187.009 51.378 187.767 52.1276C188.525 52.8772 189.424 53.4692 190.412 53.8695C191.399 54.2698 192.456 54.4704 193.522 54.4599Z" fill="#1E2E34"/>
<path d="M217.613 7.22324C219.194 5.6411 219.194 3.07593 217.613 1.49379C216.032 -0.0883582 213.468 -0.0883636 211.886 1.49378C210.305 3.07593 210.305 5.6411 211.886 7.22325C213.468 8.8054 216.032 8.80539 217.613 7.22324Z" fill="#FFA03E"/>
<path d="M229.326 46.957C229.246 47.3776 229.043 47.7649 228.743 48.0698C228.442 48.3747 228.058 48.5834 227.639 48.6692C227.22 48.7551 226.785 48.7144 226.389 48.5522C225.993 48.39 225.654 48.1137 225.415 47.7583C225.176 47.403 225.049 46.9847 225.048 46.5566C225.048 46.1284 225.175 45.7099 225.412 45.354C225.65 44.9981 225.989 44.7211 226.384 44.558C226.78 44.3949 227.215 44.3532 227.634 44.4382C227.911 44.4925 228.174 44.6006 228.408 44.7566C228.643 44.9125 228.845 45.1131 229.002 45.347C229.159 45.5809 229.268 45.8435 229.324 46.1197C229.38 46.396 229.38 46.6805 229.326 46.957Z" fill="white"/>
<path d="M203.645 46.957C203.565 47.3776 203.362 47.7649 203.062 48.0698C202.762 48.3747 202.377 48.5834 201.958 48.6692C201.539 48.7551 201.104 48.7144 200.708 48.5522C200.312 48.39 199.973 48.1137 199.734 47.7583C199.496 47.403 199.368 46.9847 199.367 46.5566C199.367 46.1284 199.494 45.7099 199.732 45.354C199.969 44.9981 200.308 44.7211 200.703 44.558C201.099 44.3949 201.534 44.3532 201.954 44.4382C202.23 44.4925 202.493 44.6006 202.728 44.7566C202.962 44.9125 203.164 45.1131 203.321 45.347C203.478 45.5809 203.587 45.8435 203.643 46.1197C203.699 46.396 203.699 46.6805 203.645 46.957Z" fill="white"/>
<path d="M214.594 164.419C242.806 164.419 265.676 144.521 265.676 119.974C265.676 95.4282 242.806 75.5295 214.594 75.5295C186.382 75.5295 163.512 95.4282 163.512 119.974C163.512 144.521 186.382 164.419 214.594 164.419Z" fill="#FFA03E"/>
<path d="M247.561 136.393H445.882C447.295 136.393 448.65 136.955 449.649 137.954C450.648 138.954 451.21 140.31 451.21 141.724V206.319C451.21 207.732 450.648 209.088 449.649 210.088C448.65 211.088 447.295 211.649 445.882 211.649H283.938L270.831 225.896C270.831 225.896 269.499 217.899 268.287 211.649H247.561C246.148 211.649 244.793 211.088 243.794 210.088C242.794 209.088 242.233 207.732 242.233 206.319V141.777C242.226 141.072 242.359 140.374 242.623 139.721C242.888 139.068 243.279 138.474 243.775 137.973C244.27 137.472 244.86 137.075 245.51 136.804C246.16 136.533 246.857 136.393 247.561 136.393Z" fill="#C5C2E1"/>
<path d="M351.15 159.062L260.575 158.968C260.463 158.967 260.352 158.943 260.249 158.898C260.147 158.854 260.054 158.79 259.976 158.709C259.898 158.629 259.836 158.534 259.795 158.43C259.754 158.325 259.734 158.214 259.735 158.102C259.732 157.875 259.818 157.655 259.975 157.49C260.132 157.326 260.347 157.23 260.575 157.223L351.15 157.316C351.262 157.318 351.373 157.341 351.475 157.386C351.578 157.43 351.671 157.495 351.749 157.575C351.827 157.656 351.888 157.751 351.93 157.855C351.971 157.959 351.991 158.07 351.989 158.182C351.993 158.41 351.907 158.629 351.75 158.794C351.593 158.959 351.378 159.055 351.15 159.062Z" fill="white"/>
<path d="M351.137 168.884L260.561 168.804C260.348 168.777 260.153 168.674 260.011 168.513C259.869 168.352 259.79 168.145 259.79 167.931C259.79 167.716 259.869 167.509 260.011 167.348C260.153 167.188 260.348 167.084 260.561 167.058L351.137 167.138C351.364 167.145 351.58 167.241 351.737 167.406C351.894 167.57 351.98 167.79 351.976 168.017C351.976 168.243 351.889 168.459 351.732 168.621C351.575 168.782 351.362 168.877 351.137 168.884Z" fill="white"/>
<path d="M351.137 178.852L260.561 178.772C260.348 178.746 260.153 178.642 260.011 178.482C259.869 178.321 259.79 178.114 259.79 177.899C259.79 177.685 259.869 177.477 260.011 177.317C260.153 177.156 260.348 177.053 260.561 177.026L351.137 177.106C351.364 177.113 351.58 177.209 351.737 177.374C351.894 177.538 351.98 177.758 351.976 177.986C351.978 178.098 351.957 178.209 351.916 178.313C351.875 178.417 351.814 178.512 351.736 178.593C351.658 178.673 351.565 178.738 351.462 178.782C351.359 178.826 351.249 178.85 351.137 178.852Z" fill="white"/>
<path d="M318.463 189.18H260.548C260.335 189.154 260.139 189.051 259.997 188.89C259.855 188.729 259.777 188.522 259.777 188.307C259.777 188.093 259.855 187.886 259.997 187.725C260.139 187.564 260.335 187.461 260.548 187.434H318.463C318.676 187.461 318.872 187.564 319.014 187.725C319.156 187.886 319.234 188.093 319.234 188.307C319.234 188.522 319.156 188.729 319.014 188.89C318.872 189.051 318.676 189.154 318.463 189.18Z" fill="white"/>
<path d="M417.63 108.607C417.523 107.007 418.962 104.782 420.294 103.516C421.052 102.833 421.594 101.942 421.852 100.955C422.11 99.9671 422.073 98.9255 421.746 97.9586C421.213 95.9729 419.948 96.1195 419.455 94.96C419.216 94.052 419.117 93.1127 419.162 92.1747C419.061 91.3851 418.798 90.6249 418.389 89.9419C417.981 89.2588 417.435 88.6678 416.787 88.2059C416.139 87.7441 415.402 87.4214 414.624 87.2581C413.845 87.0948 413.041 87.0945 412.262 87.2572C411.834 85.7085 410.949 84.3248 409.723 83.2866C408.497 82.2485 406.987 81.6039 405.39 81.437C403.792 81.2702 402.182 81.5887 400.768 82.3511C399.354 83.1136 398.203 84.2845 397.464 85.7113C396.558 85.2383 395.549 84.9977 394.528 85.0112C393.506 85.0247 392.504 85.2919 391.612 85.7887C390.719 86.2855 389.964 86.9963 389.413 87.8574C388.863 88.7186 388.535 89.7029 388.459 90.7221C387.545 90.1388 386.45 89.9065 385.378 90.0682C384.305 90.2299 383.327 90.7746 382.625 91.6017C381.962 92.4642 381.567 93.5035 381.492 94.5892C381.416 95.6749 381.662 96.7589 382.199 97.7054C382.758 98.6384 383.52 99.4332 384.429 100.031C385.338 100.628 386.369 101.013 387.447 101.157C389.609 101.432 391.803 101.036 393.734 100.024C395.652 99.0041 397.397 97.6861 398.902 96.1195" fill="#1E2E34"/>
<path d="M403.378 208.917C424.241 208.917 441.153 192.396 441.153 172.015C441.153 151.635 424.241 135.114 403.378 135.114C382.515 135.114 365.602 151.635 365.602 172.015C365.602 192.396 382.515 208.917 403.378 208.917Z" fill="#E1E1E1"/>
<path d="M365.443 172.042L369.625 161.381L384.61 170.789L371.29 191.393C371.29 191.393 365.829 184.276 365.443 172.042Z" fill="#EB996E"/>
<path d="M406.814 148.827C404.232 148.841 401.744 147.861 399.864 146.089C397.985 144.318 396.858 141.891 396.718 139.312C396.491 134.874 396.305 130.596 396.305 130.596C396.305 130.596 388.06 129.996 387.301 121.933C386.541 113.871 386.435 95.2799 386.435 95.2799C390.907 92.9365 395.919 91.818 400.962 92.0381C406.006 92.2581 410.901 93.8087 415.153 96.5326L415.938 97.039L416.884 138.752C416.888 140.076 416.63 141.388 416.125 142.612C415.62 143.835 414.878 144.948 413.943 145.884C413.007 146.82 411.895 147.562 410.672 148.067C409.449 148.572 408.138 148.83 406.814 148.827Z" fill="#FFBE9D"/>
<path d="M396.292 130.476C400.048 130.244 403.652 128.909 406.654 126.638C406.654 126.638 404.616 132.648 396.438 132.568L396.292 130.476Z" fill="#EB996E"/>
<path d="M416.138 108.82C416.131 108.505 416.246 108.199 416.46 107.968C416.674 107.737 416.969 107.598 417.284 107.581C418.802 107.501 421.28 108.06 421.613 112.218C422.066 118.149 416.285 116.776 416.285 116.603C416.285 116.429 416.165 111.139 416.138 108.82Z" fill="#FFBE9D"/>
<path d="M417.523 114.244C417.523 114.244 417.63 114.244 417.817 114.377C418.069 114.475 418.35 114.475 418.602 114.377C418.967 114.105 419.253 113.74 419.431 113.321C419.609 112.902 419.672 112.443 419.615 111.992C419.593 111.479 419.457 110.978 419.215 110.526C419.143 110.346 419.029 110.186 418.884 110.058C418.738 109.931 418.564 109.84 418.376 109.793C418.253 109.771 418.127 109.793 418.018 109.853C417.908 109.914 417.823 110.01 417.777 110.126C417.71 110.299 417.777 110.419 417.777 110.432C417.777 110.446 417.643 110.339 417.67 110.086C417.692 109.935 417.768 109.798 417.883 109.699C417.959 109.631 418.047 109.578 418.143 109.543C418.239 109.509 418.341 109.494 418.443 109.499C418.692 109.527 418.929 109.619 419.133 109.767C419.336 109.914 419.497 110.111 419.601 110.339C419.9 110.831 420.069 111.39 420.094 111.965C420.163 112.491 420.073 113.026 419.835 113.501C419.598 113.976 419.224 114.369 418.762 114.63C418.607 114.689 418.44 114.713 418.274 114.699C418.108 114.685 417.947 114.634 417.803 114.55C417.55 114.364 417.51 114.257 417.523 114.244Z" fill="#EB996E"/>
<path d="M385.289 97.7853C387.112 98.4742 389.063 98.7584 391.006 98.618C392.95 98.4776 394.84 97.9161 396.545 96.9724C400.727 94.8934 405.589 93.8672 406.668 94.7068C407.747 95.5464 408 99.8509 412.102 101.117C412.102 101.117 411.823 109.326 415.086 109.033C418.349 108.74 416.311 96.0128 416.311 96.0128L408.319 92.1081L399.582 90.4556L391.35 91.615L384.983 93.3608L385.289 97.7853Z" fill="#1E2E34"/>
<path d="M440.101 145.309C431.536 136.513 416.471 137.472 416.471 137.472L403.99 146.415L396.918 138.165C391.899 138.844 387.029 140.353 382.505 142.63L382.026 142.776V142.87C376.551 145.842 368.799 152.985 361.407 159.915L370.251 168.111L380.041 176.8C380.024 176.856 380.024 176.917 380.041 176.973C380.148 177.506 378.709 189.46 377.191 198.536C381.449 202.742 386.669 205.846 392.397 207.578C398.126 209.311 404.19 209.619 410.064 208.477C414.06 207.784 416.005 206.798 419.708 205.812C422.388 205.117 424.785 203.604 426.566 201.483C428.347 199.363 429.423 196.739 429.645 193.978C430.324 186.368 430.83 176.946 430.83 176.946" fill="#5E4D9A"/>
<path d="M389.085 139.685C388.878 140.116 388.7 140.562 388.553 141.017C388.233 141.937 387.793 143.269 387.221 144.922C386.195 148.227 384.876 152.825 383.638 157.956C382.399 163.086 381.48 167.777 380.88 171.189C380.587 172.895 380.374 174.281 380.241 175.187C380.142 175.679 380.089 176.178 380.081 176.68C380.226 176.199 380.337 175.71 380.414 175.214L381.2 171.216C381.866 167.817 382.852 163.153 384.09 158.022C385.329 152.891 386.581 148.294 387.54 144.975C387.993 143.363 388.38 142.043 388.659 140.977C388.831 140.557 388.973 140.125 389.085 139.685Z" fill="#3D3468"/>
<path d="M381.053 171.176C381.133 171.069 377.39 167.897 372.715 164.086C368.04 160.275 364.164 157.249 364.084 157.343C364.004 157.436 367.747 160.621 372.422 164.433C377.097 168.244 380.974 171.269 381.053 171.176Z" fill="#3D3468"/>
<path opacity="0.2" d="M428.805 157.396L436.464 182.597L433.614 184.089L430.803 177C430.803 177 427.913 161.98 428.805 157.396Z" fill="black"/>
<g opacity="0.2">
<path opacity="0.2" d="M389.911 139.685C385.795 141.87 396.132 147.108 400.807 146.961L397.41 138.005C394.869 138.359 392.361 138.92 389.911 139.685Z" fill="black"/>
</g>
<path d="M417.71 138.032V131.369C417.71 131.369 404.683 134.727 404.204 142.523C404.204 142.523 402.552 133.901 395.839 133.488L394.893 145.615L402.698 152.425H410.624L416.884 147.001L417.71 138.579" fill="#5E4D9A"/>
<path d="M401.273 179.932C401.31 179.453 401.31 178.971 401.273 178.492C401.273 177.573 401.273 176.24 401.273 174.588C401.273 171.296 401.366 166.738 401.779 161.727C402.192 156.716 402.845 152.199 403.391 148.96C403.671 147.388 403.911 146.095 404.084 145.109C404.186 144.643 404.258 144.171 404.297 143.696C404.129 144.128 404 144.574 403.911 145.029C403.684 145.935 403.404 147.241 403.085 148.854C402.266 153.083 401.679 157.354 401.326 161.647C400.959 165.937 400.834 170.244 400.954 174.548C400.954 176.2 401.06 177.546 401.127 178.466C401.142 178.957 401.191 179.447 401.273 179.932Z" fill="#3D3468"/>
<path d="M404.803 140.271C405.056 140.204 405.322 140.204 405.576 140.271C406.082 140.431 406.521 141.057 406.908 141.937C407.978 144.249 408.808 146.665 409.385 149.147L409.465 149.453L409.718 149.293C410.504 148.827 411.303 148.307 412.102 147.761C413.573 146.777 414.984 145.704 416.325 144.549C416.942 144.041 417.434 143.398 417.763 142.67C418.029 142.031 418.178 141.349 418.203 140.658C418.233 139.677 418.139 138.696 417.923 137.739C417.869 137.382 417.77 137.033 417.63 136.699C417.641 137.057 417.681 137.414 417.75 137.766C417.894 138.713 417.939 139.674 417.883 140.631C417.837 141.278 417.684 141.913 417.43 142.51C417.118 143.178 416.663 143.769 416.098 144.242C414.86 145.269 413.434 146.335 411.889 147.388C411.09 147.93 410.304 148.436 409.532 148.907L409.865 149.053C409.265 146.545 408.371 144.116 407.201 141.817C407.017 141.413 406.784 141.032 406.508 140.684C406.29 140.424 406.004 140.231 405.682 140.124C405.069 140.031 404.79 140.258 404.803 140.271Z" fill="#3D3468"/>
<path d="M395.825 133.474C395.736 133.814 395.691 134.163 395.692 134.514L395.492 137.366C395.399 138.552 395.253 140.031 395 141.55C394.793 142.387 394.743 143.255 394.853 144.109C395.167 145.005 395.766 145.773 396.558 146.295C397.582 146.927 398.541 147.659 399.422 148.48L399.781 148.867V148.347C399.943 146.064 400.602 143.844 401.713 141.844C402.539 140.364 403.218 139.591 403.165 139.551C402.97 139.702 402.796 139.877 402.645 140.071C402.208 140.583 401.816 141.131 401.473 141.71C400.247 143.732 399.517 146.016 399.342 148.374L399.728 148.24C398.834 147.393 397.857 146.639 396.811 145.988C396.1 145.526 395.554 144.849 395.253 144.056C395.158 143.255 395.203 142.443 395.386 141.657C395.612 140.071 395.732 138.645 395.785 137.432C395.839 136.22 395.852 135.247 395.852 134.58C395.877 134.212 395.868 133.841 395.825 133.474Z" fill="#3D3468"/>
<path d="M353.894 135.154C354.427 135.78 373.608 161.434 373.608 161.434L370.944 162.967L351.257 137.646L353.894 135.154Z" fill="#1E2E34"/>
<path d="M430.963 155.437C430.963 155.437 410.784 184.503 409.558 185.076C407.161 186.208 379.562 162.327 376.924 160.048C376.565 159.568 375.806 158.542 374.34 156.503C374.34 156.503 372.169 146.535 369.838 147.294C367.507 148.054 371.17 152.358 369.598 156.157C368.027 159.955 361.154 150.906 360.874 150.093L359.089 147.761C359.089 147.761 357.211 153.091 357.344 155.29C357.744 162.407 364.47 170.869 364.47 170.869C364.47 170.869 394.693 208.318 415.379 209.517C421.346 209.85 431.936 192.925 439.022 180.198C441.097 176.494 441.739 172.157 440.828 168.01C439.917 163.863 437.516 160.195 434.08 157.702L430.963 155.437Z" fill="#FFBE9D"/>
<path d="M360.741 156.556C360.741 156.556 360.155 155.37 359.409 153.891C359.019 152.976 358.575 152.086 358.077 151.226C358.311 152.183 358.669 153.106 359.142 153.971C359.544 154.907 360.082 155.779 360.741 156.556Z" fill="#EB996E"/>
<path d="M434.373 141.257C434.373 141.257 456.031 148.96 439.928 185.409L414.926 170.336L418.483 161.807L434.373 141.257Z" fill="#5E4D9A"/>
<path d="M436.038 141.884C435.144 141.804 434.243 141.881 433.374 142.11C432.374 142.367 431.418 142.771 430.537 143.31C429.372 144.023 428.31 144.893 427.38 145.895C425.018 148.538 423.036 151.499 421.493 154.691C419.655 158.236 417.95 162.274 416.165 166.511L414.633 170.216L414.553 170.403L414.74 170.51C421.972 174.508 428.273 178.146 432.722 180.918C434.946 182.25 436.718 183.423 437.943 184.209L439.342 185.116L439.848 185.409C439.71 185.273 439.558 185.152 439.395 185.049C439.089 184.822 438.636 184.489 438.063 184.076C436.877 183.25 435.119 182.077 432.908 180.651C428.499 177.826 422.252 174.068 414.979 170.11L415.086 170.39C415.566 169.203 416.085 167.951 416.618 166.685C418.376 162.447 420.068 158.422 421.866 154.891C423.368 151.718 425.3 148.767 427.607 146.122C428.504 145.1 429.534 144.203 430.67 143.456C431.522 142.915 432.446 142.498 433.414 142.217C434.279 142.036 435.156 141.924 436.038 141.884Z" fill="#3D3468"/>
<path d="M389.432 87.8568C389.385 87.9776 389.349 88.1025 389.325 88.23C389.279 88.6061 389.279 88.9866 389.325 89.3627C389.365 90.2442 389.606 91.1048 390.03 91.8783C390.454 92.6519 391.05 93.3178 391.772 93.8249C392.494 94.332 393.322 94.6668 394.193 94.8035C395.064 94.9402 395.955 94.8752 396.798 94.6135C398.03 94.299 399.097 93.5271 399.781 92.4545C400.153 91.8682 400.313 91.1721 400.234 90.4822C400.195 90.1237 400.079 89.7777 399.896 89.4674C399.712 89.1571 399.464 88.8897 399.169 88.6831C398.856 88.4895 398.5 88.3761 398.133 88.3529C397.766 88.3296 397.399 88.3973 397.064 88.5498C396.418 88.8232 395.906 89.3403 395.639 89.9891C395.42 90.5925 395.358 91.2415 395.459 91.8753C395.559 92.5092 395.818 93.1074 396.212 93.614C396.864 94.4628 397.796 95.0531 398.842 95.2799C399.888 95.5068 400.981 95.3557 401.926 94.8534C402.612 94.4982 403.336 94.2211 404.084 94.0271C404.644 93.9085 405.228 93.974 405.749 94.2137C406.19 94.4465 406.609 94.7186 407.001 95.0266C406.925 94.9135 406.836 94.8105 406.734 94.7201C406.631 94.6007 406.515 94.4934 406.388 94.4003C406.218 94.2606 406.029 94.1441 405.829 94.0538C405.279 93.7701 404.652 93.6763 404.044 93.7872C403.268 93.9487 402.516 94.2084 401.806 94.5602C401.4 94.7459 400.976 94.8889 400.541 94.9866C400.078 95.0662 399.605 95.0662 399.142 94.9866C398.108 94.8018 397.182 94.2359 396.545 93.4007C396.202 92.9486 395.977 92.4181 395.891 91.8573C395.805 91.2965 395.86 90.7231 396.052 90.189C396.155 89.9184 396.314 89.6724 396.518 89.4672C396.722 89.262 396.967 89.102 397.237 88.9977C397.507 88.8934 397.796 88.8471 398.085 88.8618C398.375 88.8764 398.657 88.9518 398.916 89.0829C399.156 89.257 399.358 89.4798 399.507 89.737C399.656 89.9941 399.75 90.2798 399.781 90.5755C399.853 91.1614 399.722 91.7543 399.408 92.2547C398.789 93.2163 397.843 93.9215 396.744 94.2403C395.794 94.5238 394.785 94.5497 393.821 94.3156C392.856 94.0815 391.972 93.5956 391.257 92.9077C390.296 91.9476 389.694 90.6868 389.552 89.3361C389.483 88.8457 389.443 88.3518 389.432 87.8568Z" fill="#3E5963"/>
<path d="M388.007 90.802C387.698 91.2763 387.549 91.8364 387.58 92.4012C387.506 93.781 387.97 95.1357 388.874 96.1799C389.779 97.2241 391.053 97.8761 392.429 97.9985C392.986 98.0955 393.559 98.0308 394.08 97.8119C394.08 97.7319 393.441 97.8119 392.469 97.6786C391.197 97.4815 390.037 96.8358 389.199 95.8583C388.362 94.8807 387.901 93.6357 387.9 92.3479C387.833 91.415 388.073 90.8153 388.007 90.802Z" fill="#3E5963"/>
<path d="M302.812 326.593C318.827 326.593 331.81 313.603 331.81 297.58C331.81 281.557 318.827 268.568 302.812 268.568C286.797 268.568 273.815 281.557 273.815 297.58C273.815 313.603 286.797 326.593 302.812 326.593Z" fill="white" stroke="#5E4D9A" stroke-width="2" stroke-miterlimit="10"/>
<path d="M320.421 260.305C321.447 260.732 322.459 261.212 323.431 261.731" stroke="#F89E41" stroke-width="2" stroke-linecap="round" stroke-linejoin="round"/>
<path d="M334.007 269.887C340.115 276.545 343.731 285.113 344.24 294.135C344.75 303.158 342.123 312.079 336.805 319.383" stroke="#F89E41" stroke-width="2" stroke-linecap="round" stroke-linejoin="round" stroke-dasharray="5.03 10.07"/>
<path d="M332.409 324.434C331.61 325.207 330.784 325.94 329.918 326.646" stroke="#F89E41" stroke-width="2" stroke-linecap="round" stroke-linejoin="round"/>
<path d="M319.036 288.078L309.246 297.86L319.089 307.642C319.275 307.26 319.375 306.841 319.382 306.416V289.291C319.375 288.87 319.275 288.456 319.089 288.078H319.036Z" fill="#5E4D9A"/>
<path d="M305.116 299.246L317.69 286.732C317.311 286.538 316.891 286.437 316.465 286.439H289.719C289.293 286.437 288.872 286.538 288.493 286.732L301.081 299.246C301.614 299.77 302.331 300.064 303.079 300.064C303.826 300.064 304.543 299.77 305.076 299.246H305.116Z" fill="#5E4D9A"/>
<path d="M287.161 288.078C286.969 288.454 286.869 288.869 286.868 289.291V306.416C286.866 306.842 286.967 307.263 287.161 307.642L296.991 297.86L287.161 288.078Z" fill="#5E4D9A"/>
<path d="M306.462 300.592C305.574 301.468 304.378 301.959 303.132 301.959C301.885 301.959 300.689 301.468 299.802 300.592L298.403 299.259L288.493 308.935C288.876 309.116 289.295 309.212 289.719 309.215H316.465C316.889 309.212 317.307 309.116 317.69 308.935L307.914 299.206L306.582 300.539L306.462 300.592Z" fill="#5E4D9A"/>
<path d="M302.812 492.671C318.827 492.671 331.81 479.682 331.81 463.659C331.81 447.636 318.827 434.646 302.812 434.646C286.797 434.646 273.815 447.636 273.815 463.659C273.815 479.682 286.797 492.671 302.812 492.671Z" fill="white" stroke="#5E4D9A" stroke-width="2" stroke-miterlimit="10"/>
<path d="M330.824 436.072C331.623 436.872 332.369 437.685 333.075 438.524" stroke="#F89E41" stroke-width="2" stroke-linecap="round" stroke-linejoin="round"/>
<path d="M339.589 449.452C341.731 454.927 342.612 460.814 342.167 466.677C341.722 472.539 339.963 478.226 337.019 483.315C334.076 488.403 330.024 492.763 325.165 496.069C320.306 499.376 314.764 501.544 308.953 502.413" stroke="#F89E41" stroke-width="2" stroke-linecap="round" stroke-linejoin="round" stroke-dasharray="4.79 9.58"/>
<path d="M302.586 502.826C301.48 502.826 300.361 502.746 299.256 502.639" stroke="#F89E41" stroke-width="2" stroke-linecap="round" stroke-linejoin="round"/>
<path d="M310.471 466.004C309.944 466.004 309.429 465.848 308.991 465.555C308.553 465.262 308.212 464.846 308.01 464.359C307.808 463.872 307.756 463.336 307.858 462.819C307.961 462.302 308.215 461.827 308.587 461.454C308.96 461.081 309.435 460.827 309.951 460.725C310.468 460.622 311.004 460.674 311.491 460.876C311.977 461.078 312.393 461.42 312.686 461.858C312.979 462.296 313.135 462.812 313.135 463.339C313.135 464.046 312.854 464.724 312.355 465.223C311.855 465.723 311.178 466.004 310.471 466.004ZM303.278 466.004C302.751 466.004 302.236 465.848 301.798 465.555C301.36 465.262 301.019 464.846 300.817 464.359C300.616 463.872 300.563 463.336 300.666 462.819C300.768 462.302 301.022 461.827 301.395 461.454C301.767 461.081 302.242 460.827 302.759 460.725C303.275 460.622 303.811 460.674 304.298 460.876C304.785 461.078 305.201 461.42 305.493 461.858C305.786 462.296 305.942 462.812 305.942 463.339C305.942 464.046 305.662 464.724 305.162 465.223C304.662 465.723 303.985 466.004 303.278 466.004ZM296.072 466.004C295.545 466.004 295.03 465.848 294.592 465.555C294.154 465.262 293.813 464.846 293.611 464.359C293.409 463.872 293.357 463.336 293.459 462.819C293.562 462.302 293.816 461.827 294.189 461.454C294.561 461.081 295.036 460.827 295.553 460.725C296.069 460.622 296.605 460.674 297.092 460.876C297.579 461.078 297.995 461.42 298.287 461.858C298.58 462.296 298.736 462.812 298.736 463.339C298.736 464.046 298.456 464.724 297.956 465.223C297.456 465.723 296.779 466.004 296.072 466.004ZM303.158 449.812C294.727 449.812 287.867 455.862 287.867 463.312C287.893 466.52 289.147 469.596 291.37 471.908C291.594 472.82 291.578 473.774 291.323 474.678C291.069 475.582 290.585 476.404 289.918 477.065C289.797 477.193 289.715 477.353 289.682 477.526C289.65 477.699 289.669 477.878 289.737 478.041C289.805 478.203 289.919 478.343 290.064 478.442C290.21 478.541 290.382 478.595 290.558 478.598C293.121 478.598 295.584 477.604 297.431 475.826C299.269 476.48 301.207 476.809 303.158 476.799C311.577 476.799 318.556 470.748 318.556 463.312C318.556 455.876 311.577 449.812 303.158 449.812Z" fill="#5E4D9A"/>
<path d="M302.266 408.432C318.281 408.432 331.264 395.443 331.264 379.42C331.264 363.397 318.281 350.408 302.266 350.408C286.251 350.408 273.269 363.397 273.269 379.42C273.269 395.443 286.251 408.432 302.266 408.432Z" fill="white" stroke="#5E4D9A" stroke-width="2" stroke-miterlimit="10"/>
<path d="M340.881 371.331C341.12 372.423 341.294 373.516 341.44 374.622" stroke="#F89E41" stroke-width="2" stroke-linecap="round" stroke-linejoin="round"/>
<path d="M340.335 389.895C338.972 394.859 336.635 399.503 333.461 403.555" stroke="#F89E41" stroke-width="2" stroke-linecap="round" stroke-linejoin="round" stroke-dasharray="5.78 11.56"/>
<path d="M328.16 409.139C327.308 409.872 326.442 410.565 325.496 411.204" stroke="#F89E41" stroke-width="2" stroke-linecap="round" stroke-linejoin="round"/>
<path d="M296.565 377.314C297.311 380.486 301.4 384.418 304.411 385.164C305.091 385.317 305.804 385.217 306.416 384.884C307.029 384.551 307.499 384.006 307.741 383.351C307.895 382.893 308.164 382.483 308.523 382.16C308.882 381.836 309.318 381.611 309.789 381.505C310.26 381.399 310.75 381.416 311.213 381.556C311.675 381.695 312.094 381.95 312.429 382.299L316.652 386.523C317.167 387.08 317.453 387.81 317.453 388.569C317.453 389.327 317.167 390.058 316.652 390.614L313.788 393.48C310.764 396.505 302.759 393.187 295.646 386.07C288.533 378.954 285.376 370.957 288.254 367.932L291.117 365.067C291.672 364.553 292.399 364.267 293.155 364.267C293.911 364.267 294.639 364.553 295.193 365.067L299.429 369.292C299.777 369.627 300.033 370.046 300.172 370.509C300.311 370.971 300.328 371.462 300.222 371.933C300.117 372.405 299.891 372.841 299.568 373.2C299.245 373.559 298.834 373.829 298.377 373.983C297.704 374.198 297.141 374.665 296.803 375.285C296.466 375.906 296.381 376.633 296.565 377.314Z" fill="#5E4D9A"/>
<path d="M32.6304 133.661V130.329" stroke="#5E4D9A" stroke-miterlimit="10"/>
<path d="M32.6304 122.76V100.597" stroke="#5E4D9A" stroke-miterlimit="10" stroke-dasharray="4.06 5.68"/>
<path d="M32.6304 96.8124V93.4807H35.9604" stroke="#5E4D9A" stroke-miterlimit="10"/>
<path d="M45.3376 93.4807H56.7395" stroke="#5E4D9A" stroke-miterlimit="10" stroke-dasharray="5.03 7.04"/>
<path d="M61.4281 93.4807H64.7581" stroke="#5E4D9A" stroke-miterlimit="10"/>
<path d="M420.307 237.063V459.927H367.827" stroke="#5E4D9A" stroke-miterlimit="10" stroke-dasharray="5 7"/>
<path d="M420.227 315.811C414.513 321.595 405.376 326.339 395.599 328.352C395.599 328.965 395.599 332.35 395.506 348.102C395.412 369.078 416.565 379.327 419.855 380.899C423.038 379.567 444.456 369.292 444.563 348.315C444.643 332.59 444.656 329.178 444.656 328.565C434.906 326.459 425.902 321.648 420.227 315.811Z" fill="#CBC6E2"/>
<path d="M420.174 319.596C413.802 324.828 406.3 328.506 398.263 330.338L398.183 348.115C398.183 356.245 401.566 363.601 408.359 369.985C411.8 373.191 415.685 375.884 419.894 377.981L420.227 377.821V319.596H420.174Z" fill="#5E4D9A"/>
<path d="M420.228 319.596V377.728C424.328 375.697 428.125 373.105 431.51 370.025C438.356 363.708 441.859 356.378 441.886 348.249L441.979 330.471C433.985 328.58 426.539 324.857 420.228 319.596Z" fill="#5E4D9A"/>
<path d="M410.304 345.263V359.03C410.304 360.563 430.137 360.563 430.137 359.03V345.263H410.304ZM421.226 352.566V356.471C421.198 356.718 421.08 356.946 420.894 357.111C420.709 357.277 420.469 357.368 420.221 357.368C419.972 357.368 419.733 357.277 419.547 357.111C419.362 356.946 419.244 356.718 419.215 356.471V352.566C418.796 352.395 418.436 352.104 418.181 351.729C417.925 351.355 417.784 350.914 417.777 350.461C417.777 349.811 418.035 349.187 418.494 348.727C418.954 348.267 419.577 348.009 420.227 348.009C420.877 348.009 421.501 348.267 421.96 348.727C422.42 349.187 422.678 349.811 422.678 350.461C422.669 350.916 422.527 351.358 422.269 351.732C422.011 352.106 421.648 352.397 421.226 352.566Z" fill="white"/>
<path d="M428.406 344.277H426.461V343.344C426.387 341.756 425.705 340.257 424.555 339.159C423.405 338.061 421.877 337.448 420.287 337.448C418.698 337.448 417.17 338.061 416.02 339.159C414.87 340.257 414.187 341.756 414.114 343.344V344.277H412.102V343.344C412.247 341.271 413.172 339.33 414.691 337.913C416.211 336.496 418.21 335.708 420.287 335.708C422.364 335.708 424.364 336.496 425.883 337.913C427.402 339.33 428.328 341.271 428.473 343.344L428.406 344.277Z" fill="white"/>
<mask id="mask0" style="mask-type:alpha" maskUnits="userSpaceOnUse" x="13" y="176" width="187" height="385">
<rect x="13.2231" y="176.68" width="185.787" height="384.311" fill="#C4C4C4"/>
</mask>
<g mask="url(#mask0)">
<path d="M95.5137 344.77L94.9943 387.243C94.901 394.466 96.2463 405.101 107.662 404.714C117.545 403.648 120.169 394.279 120.249 387.536C120.249 384.338 120.249 381.672 120.342 381.352C120.342 381.352 131.171 380.46 132.077 369.771C132.517 364.601 132.57 353.886 132.49 344.184C132.446 339.164 130.516 334.344 127.083 330.682C123.651 327.02 118.966 324.785 113.962 324.42L112.923 324.341C101.747 324.181 95.3672 333.576 95.5137 344.77Z" fill="#CF8B6F"/>
<path d="M120.342 381.352C115.426 380.959 110.723 379.175 106.782 376.208C106.782 376.208 109.62 384.204 120.355 384.084L120.342 381.352Z" fill="#7B4B45"/>
<path d="M95.8068 352.753C95.6336 352.66 88.614 350.088 88.321 357.378C88.0279 364.667 95.4338 363.495 95.4605 363.295C95.4871 363.095 95.8068 352.753 95.8068 352.753Z" fill="#CF8B6F"/>
<path d="M93.3426 360.416C93.3426 360.416 93.2094 360.509 92.9829 360.589C92.8309 360.652 92.668 360.685 92.5034 360.685C92.3389 360.685 92.1759 360.652 92.0239 360.589C91.5678 360.267 91.2046 359.829 90.9708 359.322C90.737 358.814 90.6408 358.254 90.6919 357.697C90.7049 357.064 90.8549 356.441 91.1315 355.872C91.2087 355.646 91.3402 355.443 91.5144 355.28C91.6886 355.118 91.9002 355 92.1305 354.939C92.2769 354.905 92.4307 354.924 92.5646 354.992C92.6986 355.06 92.8043 355.173 92.8631 355.312C92.9563 355.525 92.8631 355.672 92.943 355.685C93.0229 355.698 93.1028 355.565 93.0629 355.259C93.0266 355.078 92.9332 354.915 92.7965 354.792C92.6987 354.712 92.5859 354.651 92.4648 354.615C92.3436 354.578 92.2164 354.566 92.0905 354.579C91.7953 354.631 91.5183 354.758 91.2853 354.947C91.0524 355.136 90.8711 355.38 90.7585 355.658C90.4189 356.28 90.2361 356.976 90.2257 357.684C90.1636 358.334 90.2949 358.989 90.6029 359.565C90.9109 360.141 91.3821 360.613 91.9573 360.922C92.1508 360.99 92.3572 361.012 92.5605 360.986C92.7638 360.961 92.9585 360.889 93.1295 360.776C93.3159 360.603 93.3559 360.429 93.3426 360.416Z" fill="#7B4B45"/>
<path d="M146.742 334.589C146.607 334.162 146.317 333.801 145.93 333.576C145.094 333.203 144.177 333.051 143.266 333.136C140.428 333.065 137.664 332.217 135.274 330.684C134.153 329.073 132.901 327.558 131.531 326.153C128.294 322.808 125.63 320.542 122.873 319.423C118.61 317.873 114.005 317.513 109.553 318.383C105.837 319.356 102.493 322.381 101.974 326.193C100.862 325.396 99.5585 324.909 98.1968 324.78C96.835 324.651 95.4634 324.886 94.2218 325.46C91.398 326.473 89.7863 329.458 88.8938 332.35C88.0014 335.242 87.695 338.32 86.2298 340.906C85.9102 341.452 85.5239 342.092 85.8036 342.665C85.9323 342.872 86.1216 343.034 86.3456 343.129C86.5696 343.224 86.8175 343.248 87.0557 343.198C87.5353 343.096 87.9888 342.897 88.3877 342.611C88.068 343.358 87.7483 344.117 87.442 344.877C88.4701 345.048 89.524 344.975 90.5189 344.664C91.0355 347.239 91.7072 349.78 92.5302 352.273C93.5823 352.152 94.6426 352.417 95.5138 353.02C96.5128 353.913 96.9524 355.592 98.6041 354.952C99.4432 354.619 100.202 352.86 100.482 352.007C102.345 346.319 102.963 340.297 102.294 334.349C103.467 333.095 104.868 332.078 106.423 331.35L106.303 331.47C109.287 330.431 112.67 329.405 115.507 330.817C117.705 331.897 118.997 334.189 120.635 336.001C122.115 337.676 123.922 339.029 125.945 339.978C127.968 340.927 130.164 341.451 132.397 341.519C132.557 344.531 132.503 348.795 132.663 351.807L135.194 346.983C135.394 346.637 135.577 346.281 135.74 345.917V345.81C135.995 345.227 136.279 344.658 136.593 344.104C136.942 344.388 137.381 344.537 137.831 344.524C138.281 344.511 138.711 344.337 139.043 344.034C139.375 343.73 139.588 343.318 139.642 342.871C139.695 342.424 139.587 341.972 139.336 341.599C139.083 341.248 138.778 340.938 138.431 340.679C138.798 341.039 139.254 341.295 139.752 341.424C140.249 341.552 140.772 341.548 141.268 341.412C141.758 341.265 142.185 340.958 142.482 340.54C142.779 340.123 142.928 339.618 142.906 339.107C142.868 338.761 142.74 338.431 142.534 338.15C142.328 337.869 142.052 337.648 141.734 337.507C143.06 337.621 144.388 337.328 145.544 336.668C146.196 336.241 146.942 335.588 146.742 334.589Z" fill="#1E2E34"/>
<path d="M105.237 327.419C104.854 327.716 104.498 328.046 104.172 328.405C103.323 329.423 102.754 330.645 102.52 331.95C102.348 332.828 102.259 333.721 102.254 334.615C102.254 335.602 102.32 336.654 102.4 337.774C102.495 338.94 102.521 340.11 102.48 341.279C102.445 341.901 102.365 342.52 102.24 343.131C102.139 343.785 101.868 344.401 101.454 344.917C101.271 345.127 101.035 345.285 100.77 345.374C100.506 345.463 100.223 345.48 99.9493 345.423C99.4342 345.323 98.9662 345.056 98.6173 344.664C98.0475 343.881 97.6938 342.962 97.5917 341.998H97.8181C97.481 342.803 97.0326 343.557 96.4861 344.237C95.9656 344.869 95.221 345.275 94.4082 345.37C94.0295 345.41 93.6471 345.346 93.3026 345.184C93.0002 345.019 92.7492 344.773 92.5776 344.475C92.4059 344.176 92.3203 343.835 92.3303 343.491C92.3374 343.182 92.4611 342.887 92.6766 342.665L92.7832 342.758C92.1497 343.49 91.369 344.081 90.4921 344.491C90.2577 344.593 90.0175 344.682 89.7729 344.757L89.5198 344.824L89.7595 344.717C89.9194 344.65 90.1591 344.557 90.4522 344.411C91.3011 343.987 92.0538 343.392 92.6633 342.665L92.7832 342.758C92.6005 342.981 92.4952 343.258 92.4832 343.547C92.4712 343.835 92.5531 344.119 92.7166 344.357C92.8674 344.637 93.0997 344.865 93.3826 345.01C93.6958 345.15 94.0403 345.205 94.3816 345.17C95.142 345.078 95.8358 344.69 96.3129 344.091C96.8336 343.427 97.2553 342.69 97.565 341.905L97.7249 341.559V341.932C97.8121 342.892 98.1522 343.812 98.7105 344.597C99.0273 344.953 99.4541 345.192 99.9226 345.277C100.162 345.336 100.414 345.328 100.649 345.253C100.884 345.177 101.094 345.038 101.255 344.85C101.631 344.361 101.874 343.783 101.961 343.171C102.079 342.573 102.159 341.967 102.2 341.359C102.268 340.2 102.268 339.039 102.2 337.88C102.134 336.761 102.054 335.708 102.067 334.709C102.081 333.781 102.184 332.858 102.374 331.95C102.619 330.611 103.222 329.363 104.118 328.338C104.439 327.973 104.817 327.663 105.237 327.419Z" fill="#3E5963"/>
<path d="M138.311 337.827L138.231 337.907L137.964 338.094C137.821 338.202 137.669 338.3 137.512 338.387C137.302 338.516 137.084 338.632 136.859 338.733C135.422 339.378 133.848 339.657 132.277 339.546C129.943 339.402 127.702 338.577 125.83 337.174C123.569 335.439 121.684 333.263 120.289 330.777C119.503 329.445 118.877 328.112 118.171 326.926C117.538 325.732 116.735 324.637 115.787 323.674C114.934 322.8 113.876 322.154 112.71 321.795C111.685 321.507 110.596 321.544 109.593 321.902C108.765 322.182 108.007 322.637 107.369 323.234C106.883 323.691 106.474 324.221 106.156 324.807C105.902 325.312 105.718 325.851 105.61 326.406C105.61 326.406 105.61 326.406 105.61 326.299V325.966C105.698 325.553 105.832 325.15 106.01 324.767C106.32 324.164 106.725 323.615 107.209 323.141C107.86 322.514 108.636 322.033 109.486 321.728C109.98 321.555 110.496 321.452 111.018 321.422C111.588 321.389 112.159 321.447 112.71 321.595C113.912 321.959 115.005 322.613 115.893 323.501C116.86 324.48 117.681 325.593 118.331 326.806C119.037 328.045 119.663 329.365 120.449 330.644C121.829 333.101 123.686 335.258 125.91 336.988C127.746 338.374 129.943 339.202 132.237 339.373C133.784 339.5 135.338 339.249 136.766 338.64C137.296 338.4 137.812 338.129 138.311 337.827Z" fill="#3E5963"/>
<path d="M139.283 333.123C139.283 333.123 139.163 333.243 138.897 333.389C138.538 333.618 138.159 333.814 137.765 333.976C137.182 334.219 136.58 334.415 135.966 334.562C135.214 334.737 134.447 334.84 133.675 334.869C132.9 334.893 132.123 334.839 131.358 334.709C130.732 334.605 130.117 334.444 129.52 334.229C129.119 334.1 128.731 333.935 128.361 333.736L127.948 333.496C127.948 333.496 128.561 333.749 129.573 334.069C130.17 334.252 130.78 334.39 131.398 334.482C132.147 334.59 132.905 334.634 133.662 334.615C134.419 334.59 135.173 334.496 135.913 334.336C136.523 334.21 137.12 334.032 137.698 333.802C138.75 333.429 139.257 333.083 139.283 333.123Z" fill="#3E5963"/>
<path d="M95.2074 383.725L82.4069 389.055C74.4441 392.323 67.6102 397.85 62.7467 404.954C61.6012 406.647 57.9648 419.707 57.6984 420.773C56.6461 425.064 54.9146 432.447 54.9146 432.447H156.639C156.639 432.447 153.629 403.368 146.383 397.798C141.681 394.146 120.142 384.204 120.142 384.204C119.369 385.862 118.135 387.261 116.588 388.235C115.041 389.208 113.246 389.715 111.418 389.695C105.452 389.84 99.655 387.705 95.2074 383.725Z" fill="#C5C2E1"/>
<path d="M82.8065 238.503C82.1684 238.182 81.6028 237.734 81.1446 237.186C80.6864 236.639 80.3453 236.003 80.1425 235.318C81.2477 235.063 82.2382 234.451 82.9606 233.577C83.683 232.702 84.0971 231.614 84.1385 230.48C84.0265 229.023 83.6849 227.592 83.1262 226.242C82.8557 225.564 82.7223 224.84 82.7338 224.11C82.7452 223.38 82.9012 222.66 83.1928 221.991C84.4049 219.859 87.0556 219.219 88.5208 217.313C89.5759 215.868 90.2701 214.191 90.5454 212.422C91.0898 210.355 92.3189 208.533 94.0318 207.255C95.7447 205.977 97.8402 205.318 99.9759 205.386C101.867 205.506 103.719 206.212 105.597 205.999C108.168 205.706 110.259 203.76 112.763 203.053C113.985 202.718 115.271 202.684 116.509 202.953C117.748 203.222 118.903 203.787 119.876 204.599C121.208 205.759 122.194 207.385 123.659 208.451C125.361 209.429 127.184 210.182 129.08 210.69C130.918 211.383 132.783 212.662 133.076 214.594C133.369 216.527 131.944 218.926 132.783 220.871C133.183 221.764 134.714 223.324 135.034 224.256C136.486 228.548 133.209 231.413 133.702 233.119C136.579 242.048 133.076 245.912 130.119 246.246L93.4625 245.459C92.1488 246.005 90.7375 246.276 89.3154 246.255C87.8933 246.235 86.4903 245.923 85.1928 245.34C83.8954 244.758 82.7308 243.915 81.7706 242.865C80.8105 241.816 80.0751 240.58 79.6097 239.236C80.723 239.296 81.8308 239.042 82.8065 238.503Z" fill="#E1E1E1"/>
<path d="M92.2637 239.116C92.0639 239.036 84.5514 236.69 84.658 244.446C84.7645 252.203 92.4901 250.457 92.5034 250.244C92.5167 250.03 92.2637 239.116 92.2637 239.116Z" fill="#FFBE9D"/>
<path d="M90.1059 247.312C90.1059 247.312 89.9727 247.405 89.7463 247.512C89.4259 247.641 89.0677 247.641 88.7473 247.512C88.244 247.204 87.8319 246.768 87.5533 246.248C87.2747 245.728 87.1397 245.143 87.1622 244.553C87.1329 243.891 87.2512 243.231 87.5085 242.621C87.5762 242.377 87.7026 242.153 87.8768 241.97C88.051 241.786 88.2676 241.648 88.5075 241.568C88.6618 241.527 88.8256 241.54 88.9712 241.605C89.1169 241.671 89.2354 241.785 89.3067 241.928C89.4133 242.141 89.3067 242.301 89.4 242.314C89.4932 242.328 89.5731 242.181 89.5065 241.861C89.4569 241.67 89.3443 241.501 89.1868 241.381C89.0813 241.302 88.961 241.244 88.8328 241.212C88.7047 241.18 88.5714 241.174 88.4409 241.195C88.1361 241.271 87.855 241.422 87.6226 241.634C87.3902 241.845 87.2137 242.111 87.1089 242.408C86.7922 243.081 86.6458 243.823 86.6827 244.566C86.652 245.253 86.8254 245.934 87.181 246.522C87.5366 247.11 88.0585 247.58 88.6807 247.872C88.8904 247.927 89.1095 247.936 89.3231 247.899C89.5368 247.862 89.7401 247.78 89.9194 247.658C90.0926 247.498 90.1326 247.325 90.1059 247.312Z" fill="#EB996E"/>
<path d="M131.344 254.868C131.504 249.431 130.918 238.183 130.279 228.001C129.951 222.726 127.648 217.769 123.828 214.118C120.009 210.467 114.954 208.391 109.673 208.304H108.581C96.8324 208.784 90.6786 219.032 91.4912 230.773L92.5035 269.528L112.617 282.001L119.703 276.457V267.742C119.703 267.742 130.998 266.156 131.344 254.868Z" fill="#FFBE9D"/>
<path d="M119.703 267.702C114.486 267.713 109.385 266.168 105.051 263.264C105.051 263.264 108.301 271.58 119.57 270.754L119.703 267.702Z" fill="#EB996E"/>
<path d="M118.398 206.838C114.148 204.999 109.766 205.732 105.171 206.239C101.636 206.554 98.239 207.765 95.3007 209.757C93.0187 211.413 91.1415 213.564 89.8104 216.05C88.4792 218.536 87.7286 221.292 87.6151 224.11C87.3175 229.623 87.8793 235.148 89.2801 240.488C88.8216 241.85 88.7433 243.31 89.0537 244.713C89.2418 245.402 89.6898 245.992 90.3034 246.357C90.9171 246.722 91.6485 246.835 92.3437 246.672C93.9021 246.059 94.0353 243.94 93.9554 242.274C93.7334 236.636 93.9114 230.989 94.4882 225.376C94.8878 221.178 97.4585 216.047 100.815 214.248C108.341 210.063 113.909 214.248 116.439 215.261C120.595 211.942 125.044 214.088 127.415 217.193C126.669 212.622 122.633 208.691 118.398 206.838Z" fill="#E1E1E1"/>
<path d="M85.031 220.232C85.031 220.498 85.5105 220.818 86.5095 220.978C87.9176 221.121 89.3399 220.957 90.6787 220.498C92.5952 219.863 94.415 218.966 96.0866 217.833C97.938 216.634 99.7895 215.248 101.748 214.128C103.452 213.074 105.384 212.443 107.382 212.289C109.025 212.224 110.663 212.505 112.19 213.115C114.854 214.168 116.28 215.661 116.772 215.314C116.879 215.234 116.919 215.061 116.866 214.781C116.793 214.4 116.653 214.034 116.453 213.702C115.722 212.469 114.714 211.424 113.509 210.65C111.695 209.441 109.586 208.75 107.409 208.651C106.096 208.593 104.783 208.746 103.519 209.104C102.218 209.473 100.97 210.006 99.8028 210.69C97.7525 211.931 95.8019 213.33 93.9687 214.874C92.5871 216.009 91.1222 217.038 89.5864 217.953C88.5557 218.547 87.4775 219.056 86.363 219.472C85.5505 219.739 85.0443 219.952 85.031 220.232Z" fill="#F5F5F5"/>
<path d="M84.7379 227.028C85.238 227.246 85.7774 227.36 86.323 227.361C88.9708 227.557 91.589 226.7 93.609 224.976C94.0443 224.647 94.4147 224.241 94.7012 223.777C94.2402 224.082 93.7955 224.411 93.3692 224.763C92.3511 225.521 91.2178 226.11 90.0126 226.509C88.8022 226.891 87.539 227.08 86.2697 227.068C85.7602 227.027 85.2489 227.014 84.7379 227.028Z" fill="white"/>
<path d="M81.075 235.371C81.2901 235.356 81.5014 235.306 81.701 235.224C82.2671 235.052 82.823 234.847 83.366 234.611C86.9834 233.124 90.2235 230.847 92.8498 227.948C93.2456 227.524 93.6191 227.079 93.9687 226.615C94.2084 226.282 94.3416 226.082 94.315 226.069C94.2883 226.056 93.6756 226.735 92.6367 227.801C91.2929 229.185 89.8261 230.442 88.2544 231.56C86.6735 232.62 85.002 233.539 83.2594 234.305C82.5122 234.62 81.7829 234.976 81.075 235.371Z" fill="white"/>
<path d="M110.086 205.159C110.674 205.468 111.279 205.743 111.897 205.985C113.339 206.622 114.628 207.558 115.68 208.731C116.691 209.92 117.261 211.421 117.292 212.982C117.257 213.636 117.15 214.284 116.972 214.914C116.972 214.914 117.105 214.768 117.252 214.448C117.437 213.98 117.545 213.485 117.572 212.982C117.631 211.318 117.066 209.692 115.987 208.424C114.897 207.198 113.526 206.255 111.991 205.679C111.385 205.412 110.743 205.237 110.086 205.159Z" fill="white"/>
<path d="M114.588 202.52C114.588 202.52 115.227 202.974 116.08 203.853C117.196 205.003 117.971 206.441 118.319 208.005C118.667 209.57 118.574 211.2 118.051 212.715C117.665 213.888 117.212 214.528 117.279 214.568C117.418 214.447 117.535 214.302 117.625 214.141C117.9 213.722 118.132 213.275 118.317 212.809C118.932 211.254 119.067 209.55 118.704 207.918C118.34 206.286 117.496 204.8 116.28 203.653C115.913 203.306 115.511 202.997 115.081 202.734C114.774 202.574 114.601 202.494 114.588 202.52Z" fill="white"/>
<path d="M89.2534 242.301C90.2382 242.246 91.1911 241.932 92.0165 241.392C92.8418 240.851 93.5105 240.103 93.9554 239.222C93.2705 239.875 92.5501 240.489 91.7975 241.062C90.973 241.521 90.1237 241.935 89.2534 242.301Z" fill="white"/>
<path d="M88.7472 243.873C89.827 244.004 90.9195 243.769 91.8507 243.207C92.8508 242.749 93.6607 241.958 94.1418 240.968C93.3762 241.659 92.5467 242.275 91.6643 242.807C90.7214 243.239 89.746 243.595 88.7472 243.873Z" fill="white"/>
<path d="M128.361 219.032C128.758 219.008 129.14 218.874 129.466 218.646C130.295 218.17 130.981 217.479 131.451 216.647C131.925 215.837 132.182 214.919 132.197 213.981C132.237 213.587 132.163 213.189 131.984 212.835C131.984 212.835 131.984 213.288 131.984 213.968C131.904 214.86 131.631 215.724 131.185 216.5C130.73 217.273 130.117 217.94 129.386 218.459C128.747 218.806 128.347 218.966 128.361 219.032Z" fill="white"/>
<path d="M127.122 216.607C127.933 215.95 128.588 215.122 129.04 214.181C129.613 213.312 129.994 212.331 130.159 211.303C130.052 211.303 129.533 212.529 128.694 213.968C127.855 215.407 127.042 216.54 127.122 216.607Z" fill="white"/>
<path d="M24.6384 303.444L24.4652 299.606C24.4584 299.341 24.4043 299.079 24.3054 298.833L22.2941 294.022C22.2941 294.022 30.4592 284.693 30.8987 283.561C31.3383 282.428 31.0586 281.188 29.0339 282.041C27.0093 282.894 20.4293 288.945 20.4293 288.945L17.8985 284.453C17.8985 284.453 23.8125 278.137 24.3986 277.47C24.9847 276.804 24.6517 273.246 22.4539 274.432C19.7286 276.329 17.1383 278.413 14.7017 280.669L13.1832 279.149L17.5388 272.459C17.5388 272.459 19.0573 270.101 17.2058 269.421C15.3544 268.741 14.5418 270.101 13.2099 271.62C11.9696 273.149 10.822 274.751 9.77331 276.417L8.44131 276.324L6.43 275.831L6.58984 273.486C6.58984 273.486 9.25383 269.581 9.74667 268.715C10.2395 267.848 11.2651 266.316 9.74667 265.636C8.22819 264.956 7.24252 264.836 6.43 266.209C5.96663 266.884 5.40549 267.486 4.76501 267.995C3.96871 267.259 3.07172 266.639 2.10102 266.156C0.902225 265.769 -0.562969 267.155 0.875585 271.007C1.10202 271.646 2.47398 278.723 2.47398 278.723L2.8203 282.441L4.43201 285.76L11.6914 298.447V303.444" fill="#FFBE9D"/>
<path d="M11.7313 288.052C11.9403 287.42 12.105 286.774 12.2241 286.119L12.7969 284.04C12.9034 283.654 13.0233 283.227 13.1166 282.788C13.1228 282.717 13.1228 282.645 13.1166 282.574C13.124 282.521 13.124 282.468 13.1166 282.414C13.088 282.359 13.0438 282.313 12.9894 282.282C12.9349 282.251 12.8726 282.237 12.8102 282.241C12.7215 282.242 12.6361 282.275 12.5704 282.335V282.401V282.494V282.601C12.5704 282.601 12.5704 282.601 12.5704 282.814C12.5855 282.873 12.6138 282.927 12.653 282.974C12.6922 283.02 12.7414 283.056 12.7969 283.081C12.8425 283.103 12.8926 283.115 12.9434 283.115C12.9942 283.115 13.0443 283.103 13.0899 283.081L13.1698 283.001V282.934L13.2498 282.801C13.3527 282.615 13.4684 282.437 13.5961 282.268C14.6637 281.1 15.8168 280.013 17.0459 279.016C17.9783 278.217 18.5378 277.683 18.4712 277.604C17.8415 277.848 17.2564 278.195 16.7396 278.63C15.3733 279.527 14.1326 280.603 13.05 281.828C12.8884 282.023 12.7457 282.233 12.6237 282.454L12.5438 282.614L12.7303 282.734C12.8102 282.734 12.8102 282.841 12.8635 282.814C13.303 282.814 13.1299 282.814 13.1698 282.814L12.9834 282.721C12.9168 282.721 12.8635 282.628 12.8502 282.654C12.8368 282.681 12.7569 282.654 12.6104 282.654H12.5172V282.774L12.2374 284C12.0643 284.8 11.9044 285.52 11.8112 286.146C11.6206 286.764 11.5931 287.42 11.7313 288.052Z" fill="#EB996E"/>
<path d="M19.5635 297.194C20.8492 296.246 21.9891 295.114 22.9467 293.836C24.0822 292.713 25.039 291.423 25.7839 290.011C24.4982 290.959 23.3583 292.09 22.4006 293.369C21.2685 294.494 20.312 295.784 19.5635 297.194Z" fill="#EB996E"/>
<path d="M16.5798 292.943C17.8434 292.182 18.9842 291.234 19.9631 290.131C21.0931 289.183 22.0723 288.069 22.8668 286.826C21.5854 287.566 20.4373 288.517 19.4703 289.638C18.3321 290.573 17.3556 291.69 16.5798 292.943Z" fill="#EB996E"/>
<path d="M24.8781 299.926C24.8401 299.046 24.6081 298.186 24.1988 297.407C23.8259 296.701 23.4396 296.141 23.1599 295.648C22.5738 294.688 22.5205 293.982 22.414 293.982C22.3074 293.982 22.2008 294.768 22.707 295.874C23.4849 297.112 23.9848 298.503 24.1722 299.952C24.3217 301.183 24.0135 302.426 23.3064 303.444H24.0789C24.8781 302.565 24.9447 301.805 24.8781 299.926Z" fill="#EB996E"/>
<path d="M17.2991 290.171C17.4989 290.171 17.2325 288.838 17.419 287.279C17.6055 285.72 18.0983 284.52 17.9252 284.414C17.752 284.307 16.8862 285.466 16.713 287.199C16.5399 288.931 17.126 290.277 17.2991 290.171Z" fill="#EB996E"/>
<path d="M11.8912 285.2C12.1862 284.212 12.4176 283.206 12.5839 282.188C12.9615 281.226 13.2817 280.243 13.5429 279.243C13.3964 279.123 12.3841 280.242 11.9046 282.001C11.4964 283.027 11.4917 284.17 11.8912 285.2Z" fill="#EB996E"/>
<path d="M41.3682 303.444C41.3682 303.444 53.2496 285.48 55.6471 284.187C58.0447 282.894 82.367 274.352 82.367 274.352L92.7299 267.209L91.0782 281.948L94.3815 303.444" fill="#6945A5"/>
<path d="M119.703 269.221L109.913 279.109L92.4768 268.128L87.4818 277.95L91.5311 303.444L129.08 303.231L129.253 286.199L119.703 269.221Z" fill="#F5F5F5"/>
<path d="M118.517 303.444C117.558 299.886 113.509 290.117 113.509 290.117L115.947 286.279C115.773 280.949 111.085 280.442 108.661 280.775C106.236 281.108 105.677 286.279 105.677 286.279L108.82 290.81L105.024 303.351L118.517 303.444Z" fill="#FF7E66"/>
<path d="M163.592 303.444L159.33 291.21C159.003 290.06 158.405 289.005 157.587 288.133C156.769 287.261 155.754 286.598 154.628 286.199L130.385 277.497L119.503 268.781L125.351 282.281V303.604L163.592 303.444Z" fill="#6945A5"/>
<path d="M63.3061 303.231C63.0881 302.439 62.9235 301.633 62.8133 300.819C62.452 298.883 61.9353 296.98 61.2682 295.128C60.6022 293.286 59.7823 291.502 58.8173 289.798C58.3762 289.095 57.9802 288.365 57.6318 287.612C58.2217 288.194 58.7242 288.858 59.1237 289.584C60.1982 291.262 61.0912 293.049 61.7877 294.915C62.4595 296.794 62.9371 298.736 63.2129 300.712C63.3505 301.544 63.3818 302.391 63.3061 303.231Z" fill="#4D367F"/>
<path d="M150.139 302.271C150.191 301.521 150.325 300.78 150.539 300.059C150.947 298.292 151.45 296.548 152.044 294.835C152.626 293.113 153.366 291.449 154.255 289.864C154.59 289.179 155.041 288.557 155.587 288.025C155.587 288.025 155.187 288.798 154.588 290.024C153.795 291.634 153.11 293.294 152.537 294.995C151.138 299.006 150.299 302.338 150.139 302.271Z" fill="#4D367F"/>
<path d="M135.327 303.018C135.428 302.498 135.566 301.985 135.74 301.485C136.086 300.432 136.526 299.073 137.072 297.487V297.66L135.287 295.461L134.288 294.235L133.755 293.609L133.476 293.302L133.249 293.076L133.036 292.863L133.156 292.703C134.181 291.61 135.45 290.774 136.859 290.264C137.328 290.072 137.809 289.907 138.297 289.771L138.151 290.131C136.06 286.546 133.902 283.534 132.49 281.268C131.784 280.149 131.238 279.229 130.878 278.603C130.67 278.282 130.5 277.938 130.372 277.577C130.62 277.869 130.843 278.181 131.038 278.51L132.77 281.175C134.248 283.387 136.459 286.359 138.577 289.957L138.737 290.224L138.431 290.317C137.978 290.451 137.512 290.61 137.099 290.797C135.765 291.279 134.561 292.063 133.582 293.089L133.489 292.716C133.634 292.812 133.764 292.928 133.875 293.063L134.168 293.382C134.341 293.609 134.515 293.809 134.701 294.022L135.687 295.262L137.418 297.514V297.594V297.687C136.832 299.3 136.339 300.646 135.953 301.685C135.78 302.145 135.571 302.591 135.327 303.018Z" fill="#4D367F"/>
<path d="M79.1969 303.444C79.0586 303.083 78.943 302.714 78.8506 302.338C78.6241 301.525 78.3311 300.499 77.9715 299.273C77.5209 297.724 77.1694 296.149 76.9192 294.555C76.8205 294.072 76.8205 293.573 76.9192 293.089C77.0545 292.598 77.2562 292.127 77.5186 291.69C77.7953 291.2 78.1782 290.778 78.6391 290.455C79.1001 290.132 79.6275 289.917 80.1826 289.824V290.277L77.7583 290.011L75.9735 289.798C75.9419 289.794 75.9113 289.785 75.8835 289.769C75.8556 289.754 75.8311 289.734 75.8112 289.709C75.7914 289.684 75.7767 289.656 75.768 289.625C75.7592 289.594 75.7566 289.563 75.7603 289.531C75.7532 289.509 75.7532 289.486 75.7603 289.464C77.5452 285.466 79.1569 281.815 80.3291 279.243L81.741 276.204C81.8974 275.831 82.0892 275.474 82.3137 275.138C82.213 275.531 82.0793 275.914 81.9142 276.284C81.5812 277.097 81.1416 278.123 80.5822 279.376C79.4766 281.975 77.9182 285.6 76.1466 289.664L75.9468 289.318L77.7317 289.518L80.1559 289.798C80.1875 289.801 80.2181 289.81 80.2459 289.826C80.2738 289.841 80.2983 289.861 80.3181 289.886C80.338 289.911 80.3527 289.94 80.3614 289.97C80.3701 290.001 80.3727 290.033 80.369 290.064C80.3611 290.118 80.336 290.167 80.2977 290.206C80.2593 290.244 80.2096 290.269 80.1559 290.277C79.6811 290.367 79.2314 290.559 78.8381 290.839C78.4448 291.12 78.1172 291.483 77.8782 291.903C77.6271 292.317 77.4386 292.766 77.3188 293.236C77.2146 293.674 77.2146 294.13 77.3188 294.569C77.5342 296.145 77.8456 297.707 78.2512 299.246C78.679 300.618 78.9952 302.022 79.1969 303.444Z" fill="#4D367F"/>
<path d="M199.01 303.151H13.2231V303.777H199.01V303.151Z" fill="#E1E1E1"/>
<path d="M199.01 431.754H13.2231V432.381H199.01V431.754Z" fill="#E1E1E1"/>
<path d="M31.5514 445.707C31.5514 446.348 31.3615 446.974 31.0059 447.507C30.6502 448.039 30.1447 448.454 29.5533 448.699C28.9618 448.944 28.311 449.009 27.6832 448.884C27.0553 448.759 26.4786 448.45 26.0259 447.997C25.5732 447.544 25.265 446.967 25.1401 446.339C25.0152 445.711 25.0793 445.06 25.3243 444.468C25.5692 443.876 25.9841 443.371 26.5164 443.015C27.0487 442.659 27.6745 442.469 28.3146 442.469C28.7402 442.467 29.1619 442.55 29.5554 442.712C29.9489 442.874 30.3064 443.113 30.6073 443.414C30.9082 443.715 31.1465 444.072 31.3086 444.466C31.4706 444.86 31.5531 445.282 31.5514 445.707Z" fill="#45B549"/>
<path d="M67.2355 446.014H37.4122C37.3232 446.027 37.2325 446.021 37.1462 445.996C37.0598 445.971 36.9799 445.927 36.9119 445.868C36.8439 445.809 36.7893 445.737 36.7519 445.655C36.7144 445.573 36.6951 445.484 36.6951 445.394C36.6951 445.304 36.7144 445.215 36.7519 445.134C36.7893 445.052 36.8439 444.979 36.9119 444.92C36.9799 444.861 37.0598 444.818 37.1462 444.793C37.2325 444.768 37.3232 444.761 37.4122 444.775H67.2355C67.3842 444.796 67.52 444.871 67.6182 444.985C67.7165 445.099 67.7705 445.244 67.7705 445.394C67.7705 445.545 67.7165 445.69 67.6182 445.804C67.52 445.917 67.3842 445.992 67.2355 446.014Z" fill="#BBBBBB"/>
<path d="M31.5514 318.677C31.5514 319.317 31.3615 319.943 31.0059 320.476C30.6502 321.008 30.1447 321.423 29.5533 321.669C28.9618 321.914 28.311 321.978 27.6832 321.853C27.0553 321.728 26.4786 321.419 26.0259 320.967C25.5732 320.514 25.265 319.937 25.1401 319.308C25.0152 318.68 25.0793 318.029 25.3243 317.437C25.5692 316.846 25.9841 316.34 26.5164 315.984C27.0487 315.628 27.6745 315.438 28.3146 315.438C28.7402 315.436 29.1619 315.519 29.5554 315.681C29.9489 315.843 30.3064 316.082 30.6073 316.383C30.9082 316.684 31.1465 317.042 31.3086 317.435C31.4706 317.829 31.5531 318.251 31.5514 318.677Z" fill="#45B549"/>
<path d="M67.2355 318.983H37.4122C37.3232 318.996 37.2325 318.99 37.1462 318.965C37.0598 318.94 36.9799 318.896 36.9119 318.837C36.8439 318.779 36.7893 318.706 36.7519 318.624C36.7144 318.542 36.6951 318.453 36.6951 318.363C36.6951 318.273 36.7144 318.185 36.7519 318.103C36.7893 318.021 36.8439 317.948 36.9119 317.889C36.9799 317.831 37.0598 317.787 37.1462 317.762C37.2325 317.737 37.3232 317.731 37.4122 317.744H67.2355C67.3842 317.766 67.52 317.84 67.6182 317.954C67.7165 318.068 67.7705 318.213 67.7705 318.363C67.7705 318.514 67.7165 318.659 67.6182 318.773C67.52 318.887 67.3842 318.961 67.2355 318.983Z" fill="#BBBBBB"/>
<path d="M31.5514 180.145C31.5514 180.785 31.3615 181.411 31.0059 181.944C30.6502 182.476 30.1447 182.892 29.5533 183.137C28.9618 183.382 28.311 183.446 27.6832 183.321C27.0553 183.196 26.4786 182.888 26.0259 182.435C25.5732 181.982 25.265 181.405 25.1401 180.777C25.0152 180.148 25.0793 179.497 25.3243 178.906C25.5692 178.314 25.9841 177.808 26.5164 177.452C27.0487 177.096 27.6745 176.906 28.3146 176.906C29.1731 176.906 29.9963 177.248 30.6034 177.855C31.2104 178.462 31.5514 179.286 31.5514 180.145Z" fill="#45B549"/>
<path d="M67.2355 180.451H37.4122C37.2461 180.451 37.0869 180.385 36.9695 180.268C36.8521 180.15 36.7861 179.991 36.7861 179.825C36.7861 179.743 36.8024 179.663 36.834 179.587C36.8656 179.512 36.912 179.444 36.9703 179.387C37.0286 179.33 37.0977 179.285 37.1736 179.255C37.2495 179.225 37.3306 179.21 37.4122 179.212H67.2355C67.398 179.212 67.5539 179.277 67.6688 179.391C67.7837 179.506 67.8482 179.662 67.8482 179.825C67.8483 179.989 67.7842 180.146 67.6696 180.263C67.5551 180.38 67.3992 180.448 67.2355 180.451Z" fill="#BBBBBB"/>
<path d="M146.076 511.275C146.076 511.435 141.001 511.782 134.728 512.061C128.454 512.341 123.366 512.435 123.352 512.275C123.339 512.115 128.427 511.768 134.701 511.488C140.975 511.209 146.063 511.129 146.076 511.275Z" fill="white"/>
<path d="M90.6253 470.815C91.611 465.364 92.9297 459.754 96.2863 455.343C99.6429 450.932 105.61 448.026 110.845 449.812L117.319 453.557C115.982 468.647 112.916 483.533 108.181 497.922C107.822 499.37 107.134 500.715 106.17 501.853C104.065 503.972 100.629 515.673 97.6583 515.326C94.0752 514.913 88.6407 519.951 87.1089 516.659C86.3629 515.087 87.6949 495.51 87.8015 493.777C88.2962 486.075 89.2391 478.408 90.6253 470.815Z" fill="#1E2E34"/>
<path d="M127.055 461.113L107.076 454.45C100.615 453.29 95.7137 460.993 94.8212 467.497C93.8355 474.733 92.9165 483.595 93.3827 489.073C94.3151 500.094 102.56 502.093 102.56 502.093C101.902 504.804 101.682 507.602 101.907 510.382C102.427 517.899 107.235 519.831 111.231 520.111C117.478 520.764 124.005 518.778 124.725 512.541L130.172 465.218C130.252 464.269 129.977 463.325 129.401 462.567C128.826 461.809 127.99 461.291 127.055 461.113Z" fill="#FFBE9D"/>
<path d="M102.587 502.173C107.907 502.669 113.263 501.706 118.078 499.388C118.078 499.388 113.216 506.704 102.387 504.838L102.587 502.173Z" fill="#EB996E"/>
<path d="M105.091 457.182C105.945 458.545 106.985 459.783 108.181 460.86L113.669 466.284C114.924 467.591 116.259 468.819 117.665 469.962C118.975 470.923 120.336 471.812 121.741 472.627C123.193 473.507 123.925 475.773 125.377 476.625C125.71 476.825 126.709 476.705 127.109 476.959C127.109 479.397 127.002 487.167 126.975 490.285C126.975 495.163 125.191 508.143 125.191 508.143H129.426C132.676 507.65 137.258 514.74 138.99 511.941C140.921 508.863 138.577 495.63 138.484 493.151C138.191 485.781 136.739 478.265 136.326 471.934C136.285 469.364 135.867 466.814 135.087 464.365C133.631 461.018 131.303 458.123 128.347 455.982C125.165 453.265 121.408 451.305 117.358 450.252C115.338 449.741 113.234 449.642 111.175 449.963C109.115 450.283 107.141 451.016 105.371 452.118C104.798 452.426 104.365 452.94 104.158 453.557C103.572 455.076 104.305 455.769 105.091 457.182ZM127.268 477.065C127.428 477.358 127.268 478.118 127.268 477.065V477.065Z" fill="#1E2E34"/>
<path d="M126.549 479.997C126.607 479.462 126.798 478.951 127.107 478.51C127.415 478.069 127.83 477.714 128.313 477.477C128.796 477.24 129.331 477.13 129.868 477.155C130.405 477.181 130.927 477.343 131.384 477.625C132.45 478.331 133.196 479.677 132.93 482.129C132.184 488.673 125.777 486.594 125.777 486.394C125.777 486.194 126.216 482.703 126.549 479.997Z" fill="#FFBE9D"/>
<path d="M128.094 484.142C128.094 484.142 128.201 484.235 128.387 484.342C128.645 484.492 128.951 484.536 129.24 484.462C129.693 484.241 130.078 483.904 130.357 483.485C130.636 483.065 130.797 482.579 130.825 482.076C130.905 481.518 130.859 480.949 130.692 480.41C130.653 480.199 130.564 480 130.431 479.831C130.299 479.661 130.128 479.526 129.933 479.437C129.805 479.389 129.665 479.387 129.536 479.431C129.408 479.474 129.298 479.562 129.227 479.677C129.12 479.851 129.147 479.984 129.107 479.984C129.067 479.984 128.973 479.864 129.107 479.597C129.161 479.444 129.264 479.313 129.4 479.224C129.496 479.163 129.603 479.122 129.715 479.104C129.827 479.086 129.942 479.09 130.052 479.118C130.317 479.202 130.555 479.353 130.744 479.556C130.933 479.759 131.066 480.007 131.131 480.277C131.344 480.875 131.408 481.515 131.318 482.143C131.289 482.732 131.087 483.3 130.736 483.775C130.385 484.249 129.902 484.609 129.346 484.808C129.164 484.839 128.978 484.828 128.8 484.778C128.623 484.727 128.459 484.637 128.321 484.515C128.094 484.302 128.094 484.155 128.094 484.142Z" fill="#EB996E"/>
<path d="M130.079 487.154C130.078 487.423 129.995 487.685 129.842 487.906C129.689 488.127 129.472 488.297 129.221 488.392C128.97 488.488 128.696 488.506 128.434 488.442C128.173 488.379 127.937 488.238 127.757 488.039C127.577 487.839 127.462 487.589 127.427 487.322C127.391 487.056 127.437 486.784 127.559 486.545C127.68 486.305 127.872 486.107 128.108 485.978C128.343 485.849 128.613 485.794 128.88 485.821C129.21 485.854 129.515 486.009 129.737 486.255C129.959 486.502 130.081 486.822 130.079 487.154Z" fill="#E1E1E1"/>
<path d="M120.702 461.153C124.814 464.1 128.308 467.827 130.985 472.121L127.442 478.118C121.434 477.558 120.782 476.945 116.493 472.641C112.204 468.336 103.852 459.767 103.386 453.757C109.06 455.356 115.893 457.728 120.702 461.153Z" fill="#1E2E34"/>
<path d="M130.199 507.917C130.279 507.7 130.377 507.491 130.492 507.29C130.705 506.891 130.998 506.291 131.371 505.518C132.402 503.336 133.262 501.077 133.942 498.761C134.943 495.326 135.525 491.782 135.673 488.207C135.792 486.104 135.68 483.995 135.34 481.916C135.001 479.699 133.993 477.639 132.45 476.013C130.774 474.506 128.867 473.277 126.802 472.374C124.873 471.464 123.016 470.409 121.248 469.216C118.274 467.17 115.587 464.736 113.256 461.979C111.674 460.135 110.244 458.165 108.98 456.089C108.527 455.356 108.208 454.756 107.995 454.37C107.878 454.173 107.776 453.968 107.688 453.757C107.837 453.932 107.971 454.119 108.088 454.317C108.314 454.703 108.674 455.263 109.153 455.982C110.469 458.008 111.934 459.932 113.536 461.74C115.878 464.442 118.565 466.826 121.528 468.829C123.281 469.998 125.12 471.031 127.029 471.921C129.15 472.842 131.107 474.103 132.823 475.653C134.447 477.346 135.503 479.502 135.847 481.823C136.194 483.936 136.301 486.082 136.166 488.22C135.993 491.837 135.371 495.418 134.315 498.881C133.597 501.206 132.675 503.463 131.558 505.625C131.158 506.384 130.838 506.957 130.599 507.344C130.478 507.543 130.344 507.735 130.199 507.917Z" fill="#3E5963"/>
<path d="M134.861 473.707C134.524 472.047 133.808 470.487 132.77 469.149C131.629 467.716 130.24 466.502 128.667 465.564C126.721 464.422 124.706 463.403 122.633 462.512C118.852 460.824 115.346 458.578 112.23 455.849C111.292 455.012 110.403 454.122 109.566 453.184C109.241 452.856 108.947 452.499 108.687 452.118C109.056 452.393 109.395 452.706 109.699 453.05C110.339 453.663 111.258 454.543 112.47 455.556C115.616 458.194 119.107 460.391 122.846 462.086C124.941 462.982 126.971 464.024 128.92 465.204C130.529 466.186 131.935 467.466 133.063 468.976C133.827 469.99 134.384 471.145 134.701 472.374C134.777 472.708 134.831 473.046 134.861 473.387C134.875 473.493 134.875 473.601 134.861 473.707Z" fill="#3E5963"/>
<path d="M88.7739 514.753C88.7565 514.518 88.7565 514.282 88.7739 514.047V512.021C88.7739 510.262 88.9603 507.717 89.1335 504.572C89.4931 498.295 90.0393 489.619 91.2114 480.077C91.6663 475.574 92.495 471.116 93.6889 466.75C94.6231 463.309 96.2253 460.084 98.4042 457.262C99.7404 455.529 101.459 454.129 103.426 453.17C103.925 452.937 104.447 452.758 104.984 452.637C105.167 452.585 105.354 452.554 105.544 452.544C105.544 452.544 104.784 452.757 103.492 453.41C101.64 454.464 100.036 455.905 98.7905 457.635C96.7022 460.428 95.1652 463.594 94.2617 466.964C93.112 471.281 92.3103 475.684 91.8641 480.13C90.6919 489.632 90.0925 498.308 89.6397 504.572C89.4132 507.637 89.2401 510.156 89.1069 511.995C89.0403 512.821 88.987 513.487 88.9337 514.02C88.9152 514.271 88.8614 514.518 88.7739 514.753Z" fill="#3E5963"/>
<path d="M72.5902 534.717C72.5902 534.717 73.7624 525.282 78.3178 520.564C82.8732 515.846 101.894 509.902 101.894 509.902C101.894 509.902 102.68 516.646 107.222 518.258C112.057 519.991 117.518 519.338 121.061 515.233C123.216 512.585 124.73 509.475 125.484 506.144C125.484 506.144 148.208 508.237 151.91 514.474C155.613 520.711 160.422 544.872 160.422 544.872L139.11 549.39L140.442 568.98L88.2278 569.273L86.6161 551.948L71.3381 554.147L72.5902 534.717Z" fill="#6945A5"/>
<path d="M134.954 550.789C134.895 550.477 134.873 550.16 134.888 549.843C134.888 549.243 134.888 548.364 134.888 547.284C134.888 545.138 134.888 542.153 134.994 538.862C135.101 535.57 135.141 532.598 135.234 530.439C135.234 529.36 135.327 528.48 135.367 527.88C135.367 527.566 135.403 527.253 135.474 526.947C135.55 527.252 135.577 527.567 135.554 527.88C135.554 528.48 135.554 529.36 135.554 530.439C135.554 532.598 135.554 535.57 135.447 538.862C135.34 542.153 135.3 545.138 135.207 547.297C135.207 548.377 135.114 549.243 135.074 549.856C135.083 550.171 135.043 550.486 134.954 550.789Z" fill="#4D367F"/>
<path d="M81.4746 533.651C81.5945 533.651 82.9265 537.835 84.4316 543.073C85.9368 548.31 87.0956 552.602 86.9225 552.642C86.7493 552.681 85.4706 548.457 83.9654 543.206C82.9756 540.065 82.1443 536.876 81.4746 533.651Z" fill="#4D367F"/>
<path d="M149.553 513.008C149.553 513.088 148.54 513.287 146.995 513.874C142.931 515.429 139.541 518.363 137.418 522.163C136.619 523.616 136.299 524.615 136.206 524.575C136.223 524.333 136.277 524.095 136.366 523.869C136.566 523.229 136.816 522.605 137.112 522.003C139.114 517.996 142.619 514.945 146.862 513.514C147.497 513.305 148.147 513.145 148.807 513.034C149.286 512.994 149.553 512.968 149.553 513.008Z" fill="#4D367F"/>
<path d="M77.9714 522.47C78.7937 524.37 79.3064 526.39 79.4899 528.453C78.6676 526.553 78.155 524.533 77.9714 522.47Z" fill="#4D367F"/>
<path d="M86.7093 551.975L79.4499 552.908L72.5901 535.21L61.4946 539.701C61.4946 539.701 67.6218 560.424 70.0061 568.807H92.5301L86.7093 551.975Z" fill="#FFBE9D"/>
<path d="M87.4819 565.795C86.1322 564.357 84.8859 562.825 83.7523 561.211C82.8431 559.877 82.0329 558.478 81.3281 557.026C80.7287 555.787 80.3291 554.747 79.9961 554.028C79.8737 553.641 79.7177 553.267 79.5299 552.908C79.5738 553.313 79.6677 553.712 79.8096 554.094C80.1327 555.143 80.5197 556.171 80.9685 557.173C81.6351 558.661 82.4237 560.092 83.3261 561.451C84.4452 563.104 85.6969 564.664 87.069 566.115C87.9888 566.997 88.7943 567.991 89.4666 569.073H90.0393C89.3269 567.878 88.4677 566.777 87.4819 565.795Z" fill="#EB996E"/>
<path d="M72.5902 535.21C72.5902 535.21 72.5902 527.454 71.9508 525.268L66.8227 513.208C66.8227 513.208 65.3308 512.448 65.0511 514.74C64.9139 516.394 65.2029 518.055 65.8903 519.564L66.0634 522.763L63.8523 520.964L59.5899 512.968C59.5899 512.968 56.6462 507.157 55.887 508.077C55.1277 508.996 55.3808 510.875 56.6462 513.407L59.51 519.111C59.51 519.111 59.9496 520.111 58.4444 518.645C56.9393 517.179 53.6492 510.076 52.9832 509.196C52.3172 508.317 51.3715 505.705 49.9063 506.291C48.4411 506.877 50.3059 509.996 50.3059 509.996L55.0079 520.537C55.0079 520.537 52.3439 516.539 51.7978 515.873C51.2516 515.207 50.1727 512.914 49.2803 511.755C48.3879 510.596 47.4155 510.129 46.7628 510.422C46.4498 510.54 46.1925 510.771 46.042 511.07C45.8914 511.369 45.8587 511.713 45.9503 512.035L50.9719 520.751C50.9719 520.751 53.5027 524.615 53.5027 524.908C53.5027 525.202 51.3049 523.576 51.3049 523.576L49.2137 520.91C49.2137 520.91 46.936 516.912 45.7372 517.112C44.5384 517.312 44.7648 518.218 44.7648 518.218L48.9873 525.535L55.1144 533.424L61.6812 539.941L65.464 538.728L72.5902 535.21Z" fill="#FFBE9D"/>
<path d="M60.5223 533.891C60.7158 533.089 60.845 532.274 60.9085 531.452C61.1034 529.526 62.0051 527.74 63.4393 526.441C64.1535 525.839 65.0501 525.496 65.9834 525.468H66.3031V525.122C66.2099 523.629 66.3031 522.19 66.2099 521.244C66.1166 520.297 66.0767 519.698 65.9968 519.711C65.8988 520.216 65.8497 520.729 65.8502 521.244C65.7373 522.573 65.6973 523.908 65.7304 525.242L66.0101 524.908C64.9371 524.901 63.8972 525.279 63.0797 525.975C62.1747 526.697 61.4876 527.657 61.095 528.747C60.776 529.603 60.5787 530.5 60.5089 531.412C60.3719 532.233 60.3764 533.071 60.5223 533.891Z" fill="#EB996E"/>
<path d="M137.019 549.87L135.207 568.807H153.229C153.962 566.048 156.652 545.698 156.652 545.698L137.019 549.87Z" fill="#FFBE9D"/>
</g>
</g>
<defs>
<clipPath id="clip0">
<rect width="451" height="569" fill="white" transform="translate(0.276245 0.313232)"/>
</clipPath>
</defs>
</svg>
