<svg width="495" height="526" viewBox="0 0 495 526" fill="none" xmlns="http://www.w3.org/2000/svg">
<g clip-path="url(#clip0)">
<path d="M234.16 439.132L70.29 438.532C67.6746 438.522 65.0868 437.998 62.6745 436.987C60.2622 435.977 58.0731 434.5 56.2321 432.642C54.3911 430.785 52.9344 428.582 51.9457 426.161C50.957 423.74 50.4557 421.147 50.4702 418.532L51.7602 67.9816C51.7694 65.3663 52.2941 62.7784 53.3046 60.3661C54.3152 57.9538 55.7916 55.7646 57.6494 53.9236C59.5071 52.0826 61.7095 50.626 64.1308 49.6373C66.5521 48.6486 69.1448 48.1471 71.7602 48.1616L235.63 48.7617C238.245 48.7708 240.833 49.2957 243.246 50.3063C245.658 51.3168 247.847 52.7932 249.688 54.6509C251.529 56.5086 252.986 58.7111 253.974 61.1324C254.963 63.5538 255.465 66.1463 255.45 68.7617L254.16 419.322C254.151 421.937 253.626 424.524 252.615 426.936C251.605 429.347 250.128 431.536 248.27 433.376C246.412 435.216 244.21 436.672 241.789 437.66C239.367 438.647 236.775 439.147 234.16 439.132Z" fill="white" stroke="#6349A0" stroke-miterlimit="10"/>
<path d="M231.92 56.8516L191.08 56.7017V60.2117C191.072 62.2282 190.264 64.1592 188.833 65.5805C187.403 67.0017 185.467 67.797 183.45 67.7916L123.79 67.5717C122.79 67.5677 121.802 67.367 120.88 66.9809C119.958 66.5948 119.121 66.031 118.417 65.3215C117.714 64.6121 117.156 63.771 116.778 62.8462C116.399 61.9214 116.206 60.931 116.21 59.9317V56.4317L75.3599 56.2817C73.2693 56.2685 71.1968 56.6677 69.2608 57.4565C67.3247 58.2453 65.5631 59.4081 64.0769 60.8785C62.5908 62.3488 61.4093 64.0978 60.5999 66.0253C59.7905 67.9529 59.369 70.0211 59.3599 72.1116L58.1599 413.692C58.1454 415.783 58.5437 417.856 59.332 419.792C60.1204 421.729 61.2831 423.491 62.7537 424.978C64.2243 426.464 65.974 427.646 67.9021 428.454C69.8302 429.263 71.8991 429.684 73.99 429.692L230.56 430.262C232.651 430.277 234.725 429.88 236.662 429.092C238.599 428.304 240.362 427.142 241.849 425.671C243.335 424.2 244.517 422.45 245.325 420.521C246.134 418.592 246.553 416.523 246.56 414.432L247.81 72.8516C247.824 70.7557 247.424 68.6776 246.632 66.737C245.84 64.7964 244.672 63.0318 243.195 61.5446C241.718 60.0574 239.961 58.8771 238.026 58.0717C236.091 57.2662 234.016 56.8516 231.92 56.8516Z" fill="#F6F5FF" stroke="#6349A0" stroke-miterlimit="10"/>
<path d="M139.818 59.869L139.817 59.9888C139.815 60.6516 140.35 61.191 141.013 61.1934L169.603 61.2982C170.265 61.3006 170.805 60.7652 170.807 60.1024L170.807 59.9826C170.81 59.3198 170.275 58.7806 169.612 58.7782L141.022 58.6734C140.359 58.671 139.82 59.2062 139.818 59.869Z" fill="#6349A0"/>
<mask id="mask0" style="mask-type:alpha" maskUnits="userSpaceOnUse" x="58" y="55" width="191" height="375">
<path d="M232.03 56.8498L191.473 56.7003V60.1987C191.465 62.2087 190.663 64.1333 189.242 65.5499C187.821 66.9664 185.899 67.7591 183.896 67.7538L124.649 67.5345C123.657 67.5306 122.675 67.3305 121.759 66.9457C120.844 66.5609 120.013 65.9989 119.314 65.2918C118.615 64.5847 118.062 63.7464 117.686 62.8246C117.309 61.9028 117.118 60.9157 117.122 59.9196V56.4312L76.5549 56.2817C74.4788 56.2686 72.4207 56.6664 70.498 57.4526C68.5754 58.2388 66.826 59.3979 65.3501 60.8634C63.8743 62.3289 62.701 64.0721 61.8972 65.9933C61.0934 67.9145 60.6749 69.9759 60.6658 72.0596L59.4741 412.516C59.4597 414.6 59.8553 416.666 60.6381 418.596C61.421 420.527 62.5756 422.283 64.0361 423.764C65.4965 425.246 67.234 426.424 69.1488 427.23C71.0636 428.036 73.1181 428.455 75.1945 428.463L230.679 429.031C232.756 429.047 234.816 428.651 236.739 427.866C238.663 427.08 240.414 425.921 241.89 424.455C243.366 422.989 244.54 421.245 245.343 419.323C246.146 417.4 246.562 415.338 246.568 413.253L247.81 72.7971C247.824 70.7081 247.427 68.6368 246.64 66.7026C245.854 64.7684 244.694 63.0096 243.227 61.5272C241.76 60.0449 240.016 58.8685 238.094 58.0658C236.173 57.263 234.112 56.8497 232.03 56.8498Z" fill="#F6F5FF" stroke="#6349A0" stroke-miterlimit="10"/>
</mask>
<g mask="url(#mask0)">
<path d="M229.09 403.532L174.09 408.952C174.09 408.952 171.72 363.872 171.8 342.372C171.89 316.282 174.23 282.692 177.37 283.372C186.21 285.432 198.1 290.372 205.15 300.122C229.57 333.962 229.09 403.532 229.09 403.532Z" fill="#CECEF2"/>
<path d="M202.31 337.872C203.43 345.872 223.82 562.132 223.82 562.132C123.54 610.132 68.4402 570.202 68.4402 570.202C68.4402 570.202 72.2401 418.382 68.3801 397.702C65.8301 384.022 62.9103 293.152 71.7803 290.632C83.1603 287.412 96.2102 283.992 110.42 282.562C122.56 281.342 169.68 280.782 178.1 283.642C178.1 283.692 197.58 304.412 202.31 337.872Z" fill="#CECEF2"/>
<path d="M0.00012207 382.122L47.5201 414.272C47.5201 414.272 74.5201 374.412 88.9601 360.272C107.07 342.522 82.6301 287.852 70.9601 290.902C44.9501 297.692 0.00012207 382.122 0.00012207 382.122Z" fill="#CECEF2"/>
<path d="M123.88 238.212L116.36 283.212C116.36 283.212 143.13 340.612 159.25 335.842C172.79 331.842 164.64 282.602 164.64 282.602C164.64 282.602 157.36 256.142 159.64 242.922C161.92 229.702 123.88 238.212 123.88 238.212Z" fill="#EEEDF9"/>
<path d="M159.62 242.922C161.87 229.712 123.88 238.212 123.88 238.212L123.26 242.082C124.217 244.488 125.603 246.7 127.35 248.612C135.8 257.392 149.04 262.692 160.49 263.132C159.37 255.992 158.69 248.342 159.62 242.922Z" fill="#EBEAF9"/>
<path d="M117.88 172.102C116.81 171.722 109.1 225.272 123.33 240.102C137.56 254.932 165.33 259.822 175.4 248.242C186.49 235.442 186.13 177.852 163.98 162.612C141.83 147.372 117.88 172.102 117.88 172.102Z" fill="#EEEDF9"/>
<path d="M123.16 151.482C115.36 152.332 104.76 156.482 93.7601 173.762C80.2301 195.072 90.08 218.762 105.7 230.442C121.32 242.122 120.99 255.442 120.99 255.442L123.55 248.622C125.426 243.396 126.109 237.816 125.55 232.292C125.269 228.899 124.424 225.577 123.05 222.462C119.31 214.692 131.19 209.582 134.53 203.142C137.11 198.142 137.27 186.822 141.33 178.622L146.17 172.372C146.17 172.372 157.31 164.122 168.17 166.492C179.03 168.862 165.91 117.922 123.16 151.482Z" fill="#B7B7ED"/>
<path d="M133.82 212.632C133.91 219.172 130.82 224.512 126.82 224.562C122.82 224.612 119.62 219.352 119.53 212.822C119.44 206.292 122.53 200.942 126.53 200.892C130.53 200.842 133.73 206.102 133.82 212.632Z" fill="#EBEAF9"/>
<path d="M158.07 227.052L177.59 223.242C177.59 223.242 178.59 230.742 170.05 232.672C159.65 235.012 158.07 227.052 158.07 227.052Z" fill="white"/>
<path d="M179.12 171.602H213.55C220.912 171.602 226.88 165.634 226.88 158.272V108.942C226.88 101.58 220.912 95.6117 213.55 95.6117H179.12C171.758 95.6117 165.79 101.58 165.79 108.942V158.272C165.79 165.634 171.758 171.602 179.12 171.602Z" fill="#F6F5FF" stroke="#6349A0" stroke-miterlimit="10"/>
<path d="M178.6 129.952C178.638 124.252 180.091 118.651 182.83 113.652C185.31 109.262 190.83 107.052 195.78 107.372C211.39 108.372 212 129.132 221.4 137.742C224.27 140.372 227.53 142.582 230.23 145.392C240.23 155.772 234.23 173.392 223.92 181.192C216.77 186.632 205.92 189.272 197.92 184.112C193.798 181.267 190.578 177.3 188.64 172.682C185.72 166.252 184.04 158.942 182.11 152.172C180.04 144.962 178.42 137.482 178.6 129.952Z" fill="#B7B7ED"/>
<path d="M201.63 148.202C201.63 148.202 215.71 149.692 219.45 153.632L210.3 203.232C210.3 203.232 192.93 205.822 181.84 202.012C181.84 202.012 175.61 162.242 181.23 152.502C183.1 149.252 191.63 149.122 191.63 149.122L201.63 148.202Z" fill="#CECEF2"/>
<path d="M135.04 127.592C135.56 126.492 140.19 129.742 141.21 129.122C142.23 128.502 137.07 123.292 137.59 122.382C138.59 120.702 143.59 127.742 144.11 127.002C144.63 126.262 139.76 118.732 141.49 118.322C143.22 117.912 145.7 126.642 146.59 126.082C147.48 125.522 143.59 118.162 145.23 116.662C146.12 115.862 150.34 130.082 151.87 130.662C153.4 131.242 155.13 125.042 156.57 125.292C158.01 125.542 151.84 136.692 152.16 137.592C152.48 138.492 158.11 156.712 161.45 162.222C163.45 161.222 165.45 160.302 167.27 159.362C168.02 163.592 169.74 167.282 170.73 171.442C164.26 174.282 156.84 177.102 154.97 176.442C149.25 174.332 146.43 146.572 145.51 141.392C144.59 136.212 142.14 135.192 140.75 132.472C139.36 129.752 134.52 128.692 135.04 127.592Z" fill="#EEEDF9"/>
<path d="M184.16 150.692L192.48 160.692C192.48 160.692 180.56 168.692 169.83 173.432C168.83 169.282 166.42 162.772 165.67 158.532C171.677 155.565 177.851 152.947 184.16 150.692Z" fill="#CECEF2"/>
<path d="M260.44 126.572C259.93 125.472 255.29 128.722 254.27 128.102C253.25 127.482 258.42 122.272 257.89 121.352C256.89 119.672 251.89 126.722 251.37 125.972C250.85 125.222 255.72 117.712 253.99 117.292C252.26 116.872 249.78 125.622 248.89 125.062C248 124.502 251.89 117.142 250.26 115.642C249.36 114.842 245.14 129.062 243.61 129.642C242.08 130.222 240.35 124.022 238.91 124.272C237.47 124.522 243.64 135.692 243.34 136.562C243.04 137.432 237.39 155.682 234.06 161.192C232.06 160.192 230.06 159.262 228.23 158.322C227.48 162.562 225.48 166.562 224.49 170.722C230.96 173.562 238.66 176.072 240.54 175.382C246.25 173.272 249.08 145.512 249.99 140.332C250.9 135.152 253.36 134.132 254.75 131.402C256.14 128.672 260.96 127.692 260.44 126.572Z" fill="#EEEDF9"/>
<path d="M210.67 149.792L209.16 172.342C209.16 172.342 214.96 167.642 225.69 172.342C226.69 168.192 229.1 161.672 229.85 157.442C223.649 154.434 217.239 151.877 210.67 149.792Z" fill="#CECEF2"/>
<path d="M200.93 133.552C200.93 133.552 200.93 133.862 201.03 134.402C201.33 136.982 202.59 145.572 203.67 147.982C204.98 150.892 197.78 159.422 191.51 157.912C189.64 157.462 193.65 149.772 193.51 148.912C193.3 147.282 193.01 145.072 192.71 142.792C192.55 141.512 192.38 140.212 192.22 138.982L191.4 132.672L200.93 133.552Z" fill="#EEEDF9"/>
<path d="M201.29 136.462C201.23 135.922 201.2 135.602 201.2 135.602L191.7 134.732C191.7 134.732 192.07 137.572 192.52 141.052C192.68 142.272 192.84 143.562 193.01 144.842C194.734 144.641 196.362 143.947 197.7 142.842C199.379 141.57 200.696 139.88 201.52 137.942C201.45 137.362 201.34 136.862 201.29 136.462Z" fill="#EEEDF9"/>
<path d="M195.79 111.762C197.258 111.748 198.708 112.087 200.017 112.752C201.326 113.417 202.455 114.388 203.31 115.582C206.03 119.582 208.45 131.732 200.62 137.712C192.79 143.692 185.96 135.872 185.39 128.042C184.82 120.212 185.03 110.772 195.79 111.762Z" fill="#EEEDF9"/>
<path d="M183.21 127.782C183.98 129.552 185.4 130.602 186.38 130.122C187.36 129.642 187.53 127.812 186.76 126.042C185.99 124.272 184.57 123.222 183.59 123.702C182.61 124.182 182.44 126.002 183.21 127.782Z" fill="#EEEDF9"/>
<path d="M195.35 110.462C195.35 110.462 200.94 122.192 205.45 123.022C209.96 123.852 210.16 129.892 210.16 129.892C210.16 129.892 209.46 115.892 205.16 112.962C202.226 111.136 198.8 110.263 195.35 110.462Z" fill="#B7B7ED"/>
<path d="M204.07 125.782C203.57 127.782 204.19 129.662 205.46 130.012C206.73 130.362 208.16 129.012 208.67 127.012C209.18 125.012 208.55 123.142 207.28 122.792C206.01 122.442 204.58 123.802 204.07 125.782Z" fill="#EEEDF9"/>
<path d="M191.04 132.282L198.36 131.732C198.337 132.563 197.993 133.353 197.4 133.937C196.807 134.52 196.012 134.852 195.18 134.862C191.26 135.262 191.04 132.282 191.04 132.282Z" fill="white"/>
<path d="M179.95 171.602H212.72C220.54 171.602 226.88 165.262 226.88 157.442V109.772C226.88 101.951 220.54 95.6117 212.72 95.6117H179.95C172.13 95.6117 165.79 101.951 165.79 109.772V157.442C165.79 165.262 172.13 171.602 179.95 171.602Z" stroke="#6349A0" stroke-miterlimit="10"/>
</g>
<path d="M428.45 467.692L244.11 467.022C238.175 466.998 232.493 464.619 228.312 460.407C224.13 456.196 221.791 450.496 221.81 444.562L223.26 50.2017C223.271 47.2631 223.86 44.3555 224.994 41.6448C226.129 38.9341 227.787 36.4735 229.872 34.4035C231.958 32.3335 234.431 30.6948 237.15 29.5809C239.87 28.467 242.782 27.8998 245.72 27.9116L430.07 28.5817C436.004 28.6055 441.685 30.9849 445.865 35.1967C450.045 39.4084 452.381 45.1078 452.36 51.0416L450.91 445.402C450.9 448.34 450.31 451.248 449.176 453.958C448.041 456.669 446.384 459.13 444.298 461.2C442.212 463.27 439.739 464.908 437.02 466.022C434.301 467.136 431.389 467.703 428.45 467.692Z" fill="white" stroke="#6349A0" stroke-miterlimit="10"/>
<path d="M425.92 37.5917L379.92 37.4317V41.3717C379.916 42.4953 379.691 43.6071 379.257 44.6436C378.823 45.6801 378.189 46.6209 377.391 47.4122C376.593 48.2035 375.647 48.8298 374.607 49.2552C373.567 49.6806 372.453 49.8969 371.33 49.8917L304.22 49.6517C303.096 49.6478 301.984 49.4224 300.947 48.9886C299.91 48.5548 298.968 47.921 298.176 47.1233C297.384 46.3256 296.757 45.3798 296.33 44.3397C295.904 43.2997 295.686 42.1858 295.69 41.0617V37.1217L249.74 36.9517C247.392 36.9425 245.066 37.3959 242.894 38.2861C240.722 39.1763 238.746 40.4857 237.08 42.1397C235.414 43.7936 234.09 45.7596 233.184 47.9254C232.278 50.0911 231.808 52.4141 231.8 54.7617L230.39 439.022C230.381 441.369 230.834 443.696 231.724 445.868C232.615 448.04 233.924 450.016 235.578 451.682C237.232 453.348 239.198 454.672 241.364 455.578C243.529 456.483 245.852 456.954 248.2 456.962L424.33 457.612C426.682 457.626 429.013 457.177 431.191 456.289C433.369 455.402 435.351 454.093 437.023 452.439C438.695 450.785 440.024 448.817 440.935 446.649C441.845 444.48 442.319 442.154 442.33 439.802L443.73 55.5317C443.739 53.1841 443.286 50.8577 442.396 48.6854C441.505 46.5132 440.196 44.5376 438.542 42.8716C436.888 41.2056 434.922 39.8818 432.756 38.9758C430.591 38.0699 428.268 37.5996 425.92 37.5917Z" fill="#F6F5FF" stroke="#6349A0" stroke-miterlimit="10"/>
<path d="M322.314 40.984L322.313 41.1139C322.311 41.8595 322.913 42.4662 323.658 42.4689L355.818 42.5868C356.564 42.5895 357.17 41.9872 357.173 41.2417L357.174 41.1118C357.176 40.3662 356.574 39.7595 355.829 39.7568L323.669 39.6389C322.923 39.6361 322.317 40.2384 322.314 40.984Z" fill="#6349A0"/>
<path d="M401.48 143.012H313.48C311.382 143.012 309.37 142.178 307.887 140.695C306.403 139.211 305.57 137.199 305.57 135.102V98.1517L295.87 89.5317H401.48C403.579 89.5343 405.591 90.3699 407.074 91.8549C408.557 93.3399 409.39 95.3529 409.39 97.4517V135.102C409.39 137.199 408.557 139.211 407.073 140.695C405.59 142.178 403.578 143.012 401.48 143.012Z" fill="#CECEF2"/>
<path d="M399.34 151.612C399.301 151.612 399.262 151.605 399.225 151.589C399.189 151.574 399.157 151.551 399.13 151.522L397.31 149.622C397.258 149.566 397.229 149.493 397.229 149.417C397.229 149.341 397.258 149.267 397.31 149.212C397.367 149.162 397.44 149.134 397.515 149.134C397.59 149.134 397.663 149.162 397.72 149.212L399.33 150.902L402.86 147.312C402.914 147.257 402.988 147.227 403.065 147.227C403.142 147.227 403.216 147.257 403.27 147.312C403.297 147.338 403.318 147.369 403.332 147.403C403.347 147.438 403.354 147.474 403.354 147.512C403.354 147.549 403.347 147.586 403.332 147.62C403.318 147.654 403.297 147.686 403.27 147.712L399.53 151.522C399.48 151.574 399.412 151.606 399.34 151.612Z" fill="#EC665A"/>
<path d="M401.93 151.552H401.59C401.552 151.552 401.515 151.544 401.48 151.529C401.446 151.515 401.414 151.493 401.388 151.466C401.362 151.439 401.342 151.407 401.328 151.372C401.315 151.337 401.308 151.299 401.31 151.262C401.315 151.187 401.347 151.117 401.401 151.066C401.454 151.014 401.525 150.984 401.6 150.982H401.81L405.46 147.272C405.514 147.217 405.588 147.187 405.665 147.187C405.742 147.187 405.815 147.217 405.87 147.272C405.896 147.298 405.918 147.329 405.932 147.363C405.946 147.398 405.954 147.434 405.954 147.472C405.954 147.509 405.946 147.546 405.932 147.58C405.918 147.615 405.896 147.646 405.87 147.672L402.14 151.482C402.08 151.529 402.006 151.554 401.93 151.552Z" fill="#EC665A"/>
<path d="M319.65 103.932H388.73" stroke="white" stroke-width="2" stroke-linecap="round" stroke-linejoin="round"/>
<path d="M319.65 115.792H388.73" stroke="white" stroke-width="2" stroke-linecap="round" stroke-linejoin="round"/>
<path d="M319.65 128.202H355.32" stroke="white" stroke-width="2" stroke-linecap="round" stroke-linejoin="round"/>
<path d="M270.48 121.052C278.947 121.052 285.81 114.188 285.81 105.722C285.81 97.2551 278.947 90.3917 270.48 90.3917C262.014 90.3917 255.15 97.2551 255.15 105.722C255.15 114.188 262.014 121.052 270.48 121.052Z" fill="#CECEF2"/>
<path d="M373.43 150.202H391.26" stroke="#CECEF2" stroke-width="2" stroke-linecap="round" stroke-linejoin="round"/>
<path d="M445.22 221.362C457.608 221.362 467.65 211.342 467.65 198.982C467.65 186.622 457.608 176.602 445.22 176.602C432.832 176.602 422.79 186.622 422.79 198.982C422.79 211.342 432.832 221.362 445.22 221.362Z" fill="#6349A0"/>
<path d="M446.14 184.422H445.1V189.662H446.14V184.422Z" fill="#FFA03E"/>
<path d="M430.32 205.372C431.999 205.372 433.36 204.011 433.36 202.332C433.36 200.653 431.999 199.292 430.32 199.292C428.641 199.292 427.28 200.653 427.28 202.332C427.28 204.011 428.641 205.372 430.32 205.372Z" fill="white"/>
<path d="M461.06 205.172C462.739 205.172 464.1 203.811 464.1 202.132C464.1 200.453 462.739 199.092 461.06 199.092C459.381 199.092 458.02 200.453 458.02 202.132C458.02 203.811 459.381 205.172 461.06 205.172Z" fill="white"/>
<path d="M446.06 188.562C446.06 188.562 458.44 188.422 460.4 199.142C462.36 209.862 451.89 210.062 448.88 210.262C447.52 210.362 444.6 210.372 442.02 210.322C436.31 210.222 432.28 209.122 430.91 203.822C430.746 203.203 430.642 202.57 430.6 201.932C430.24 196.122 434.16 188.282 446.06 188.562Z" fill="white"/>
<path d="M437.08 204.902L455.08 205.182C455.985 205.195 456.859 204.849 457.509 204.219C458.16 203.589 458.534 202.727 458.55 201.822C458.563 200.916 458.217 200.043 457.587 199.392C456.957 198.742 456.095 198.367 455.19 198.352L437.19 198.072C436.741 198.064 436.295 198.144 435.878 198.309C435.46 198.474 435.08 198.719 434.757 199.031C434.435 199.344 434.177 199.716 433.999 200.128C433.821 200.54 433.726 200.983 433.72 201.432C433.706 202.337 434.053 203.211 434.683 203.861C435.312 204.512 436.174 204.886 437.08 204.902Z" fill="#FFA03E"/>
<path d="M447.32 184.322C447.32 184.66 447.22 184.99 447.032 185.272C446.844 185.553 446.577 185.772 446.264 185.902C445.952 186.031 445.608 186.065 445.276 185.999C444.945 185.933 444.64 185.77 444.401 185.531C444.162 185.292 443.999 184.987 443.933 184.655C443.867 184.324 443.901 183.98 444.03 183.667C444.159 183.355 444.379 183.088 444.66 182.9C444.941 182.712 445.272 182.612 445.61 182.612C446.063 182.612 446.498 182.792 446.819 183.113C447.14 183.433 447.32 183.868 447.32 184.322Z" fill="white"/>
<path d="M273.67 244.522H384.41C387.054 244.522 389.59 243.475 391.464 241.611C393.337 239.746 394.397 237.215 394.41 234.572V188.062L406.62 177.232H273.67C271.018 177.232 268.474 178.285 266.599 180.161C264.724 182.036 263.67 184.579 263.67 187.232V234.622C263.696 237.257 264.762 239.774 266.634 241.628C268.507 243.482 271.035 244.522 273.67 244.522Z" fill="#FFA03E"/>
<path d="M374.65 193.232H279.14" stroke="white" stroke-width="2" stroke-linecap="round" stroke-linejoin="round"/>
<path d="M374.65 205.892H279.14" stroke="white" stroke-width="2" stroke-linecap="round" stroke-linejoin="round"/>
<path d="M315.52 228.422H279.14" stroke="white" stroke-width="2" stroke-linecap="round" stroke-linejoin="round"/>
<path d="M272.25 300.692H360.25C362.348 300.692 364.36 299.858 365.843 298.375C367.327 296.891 368.16 294.88 368.16 292.782V267.622L377.86 259.012H272.25C270.152 259.012 268.14 259.845 266.657 261.329C265.173 262.812 264.34 264.824 264.34 266.922V292.782C264.34 294.88 265.173 296.891 266.657 298.375C268.14 299.858 270.152 300.692 272.25 300.692Z" fill="#FFA03E"/>
<path d="M350.14 273.462H281.07" stroke="white" stroke-width="2" stroke-linecap="round" stroke-linejoin="round"/>
<path d="M316.35 285.882H280.69" stroke="white" stroke-width="2" stroke-linecap="round" stroke-linejoin="round"/>
<path d="M399.79 381.212H311.79C309.692 381.212 307.68 380.378 306.197 378.895C304.713 377.412 303.88 375.4 303.88 373.302V336.302L294.16 327.692H399.77C401.87 327.694 403.883 328.53 405.367 330.014C406.852 331.499 407.687 333.512 407.69 335.612V373.262C407.694 374.303 407.493 375.334 407.098 376.297C406.703 377.26 406.122 378.136 405.388 378.874C404.654 379.613 403.782 380.199 402.822 380.6C401.861 381.001 400.831 381.209 399.79 381.212Z" fill="#CECEF2"/>
<path d="M397.65 389.812C397.611 389.812 397.572 389.805 397.536 389.789C397.499 389.774 397.467 389.751 397.44 389.722L395.62 387.822C395.594 387.794 395.573 387.762 395.56 387.726C395.546 387.691 395.539 387.653 395.54 387.615C395.542 387.538 395.574 387.465 395.63 387.412C395.686 387.359 395.76 387.33 395.837 387.332C395.914 387.334 395.987 387.366 396.04 387.422L397.65 389.112L401.18 385.522C401.204 385.487 401.236 385.459 401.272 385.438C401.308 385.417 401.349 385.404 401.391 385.4C401.432 385.396 401.474 385.402 401.514 385.416C401.553 385.43 401.589 385.452 401.619 385.481C401.649 385.511 401.673 385.546 401.688 385.585C401.703 385.625 401.709 385.667 401.706 385.708C401.703 385.75 401.692 385.791 401.672 385.828C401.652 385.865 401.624 385.897 401.59 385.922L397.85 389.722C397.825 389.75 397.794 389.772 397.76 389.788C397.725 389.803 397.688 389.811 397.65 389.812Z" fill="#EC665A"/>
<path d="M400.24 389.752H399.9C399.862 389.752 399.825 389.744 399.79 389.729C399.756 389.715 399.724 389.693 399.698 389.666C399.672 389.639 399.652 389.607 399.638 389.572C399.625 389.537 399.618 389.499 399.62 389.462C399.625 389.387 399.657 389.317 399.711 389.266C399.764 389.214 399.835 389.184 399.91 389.182H400.12L403.77 385.472C403.826 385.42 403.899 385.391 403.975 385.391C404.051 385.391 404.124 385.42 404.18 385.472C404.234 385.526 404.265 385.6 404.265 385.677C404.265 385.754 404.234 385.827 404.18 385.882L400.45 389.682C400.392 389.732 400.316 389.757 400.24 389.752Z" fill="#EC665A"/>
<path d="M317.96 342.132H387.04" stroke="white" stroke-width="2" stroke-linecap="round" stroke-linejoin="round"/>
<path d="M317.96 353.992H387.04" stroke="white" stroke-width="2" stroke-linecap="round" stroke-linejoin="round"/>
<path d="M317.96 366.402H353.63" stroke="white" stroke-width="2" stroke-linecap="round" stroke-linejoin="round"/>
<path d="M268.79 359.252C277.256 359.252 284.12 352.388 284.12 343.922C284.12 335.455 277.256 328.592 268.79 328.592C260.323 328.592 253.46 335.455 253.46 343.922C253.46 352.388 260.323 359.252 268.79 359.252Z" fill="#CECEF2"/>
<path d="M371.74 388.402H389.57" stroke="#CECEF2" stroke-width="2" stroke-linecap="round" stroke-linejoin="round"/>
<path d="M419.05 427.752H255.93C252.313 427.752 249.38 430.684 249.38 434.302C249.38 437.919 252.313 440.852 255.93 440.852H419.05C422.667 440.852 425.6 437.919 425.6 434.302C425.6 430.684 422.667 427.752 419.05 427.752Z" fill="white" stroke="#6349A0" stroke-miterlimit="10"/>
<path d="M51.84 318.192C75.3121 318.192 94.34 299.164 94.34 275.692C94.34 252.22 75.3121 233.192 51.84 233.192C28.3679 233.192 9.33997 252.22 9.33997 275.692C9.33997 299.164 28.3679 318.192 51.84 318.192Z" fill="#F6F5FF"/>
<mask id="mask1" style="mask-type:alpha" maskUnits="userSpaceOnUse" x="9" y="233" width="86" height="86">
<path d="M51.84 318.192C75.3121 318.192 94.34 299.164 94.34 275.692C94.34 252.22 75.3121 233.192 51.84 233.192C28.3679 233.192 9.33997 252.22 9.33997 275.692C9.33997 299.164 28.3679 318.192 51.84 318.192Z" fill="#F6F5FF"/>
</mask>
<g mask="url(#mask1)">
<path d="M70.75 260.012L70.5398 259.622V259.512C70.1598 258.512 69.7498 257.632 69.2898 256.702C66.2898 250.552 58.7499 247.062 51.8999 247.052C49.8309 247.037 47.7704 247.316 45.7801 247.882C42.9701 249.142 36.1199 253.502 34.3399 266.492C33.7291 270.978 34.5961 275.542 36.8099 279.492C34.9699 280.652 32.5499 282.992 30.8099 287.732C27.5899 296.442 11.4599 298.382 9.80986 309.992C8.15986 321.602 24.97 342.562 42.7 328.992C56.2 318.682 54.01 298.992 52.19 290.232C56.7508 290.835 61.3795 289.831 65.2801 287.392C67.5391 286.144 69.4739 284.384 70.9292 282.253C72.3846 280.122 73.3199 277.68 73.66 275.122C73.5605 269.956 72.5764 264.845 70.75 260.012Z" fill="black"/>
<path d="M54.99 290.352C43.99 290.352 36.1699 280.412 35.8399 279.982C35.6897 279.776 35.6237 279.521 35.6553 279.268C35.6869 279.015 35.8138 278.784 36.01 278.622C36.217 278.473 36.4728 278.408 36.7256 278.442C36.9784 278.475 37.2089 278.604 37.3699 278.802C37.4399 278.892 44.96 288.422 54.99 288.422C55.2019 288.479 55.3889 288.605 55.5223 288.779C55.6556 288.954 55.7278 289.167 55.7278 289.387C55.7278 289.606 55.6556 289.82 55.5223 289.994C55.3889 290.168 55.2019 290.294 54.99 290.352Z" fill="#EC665A"/>
<path d="M74.16 313.972C68.23 295.972 61.59 296.732 61.59 296.732L66.7201 334.592C70.3901 333.592 75.1599 331.362 78.8199 330.322C77.5487 324.795 75.9934 319.338 74.16 313.972Z" fill="#4C3C99"/>
<path d="M46.3801 293.502C46.3801 293.502 35.4501 292.802 31.1201 297.502C26.7901 302.202 40.7202 339.622 41.5102 345.642C42.3002 351.662 37.5102 367.642 37.5102 367.642C37.5102 367.642 63.2102 372.822 70.5102 367.952C70.5102 367.952 71.3002 324.692 70.5102 320.392C69.7202 316.092 63.17 298.622 61.59 296.902C60.01 295.182 46.3801 293.502 46.3801 293.502Z" fill="#5E4C9A"/>
<path d="M50.0301 278.852L49.87 279.722C49.38 282.362 47.5001 291.102 46.2301 293.512C44.7001 296.412 51.4801 305.682 58.0101 304.512C59.9501 304.182 56.3699 296.002 56.5399 295.142C56.8699 293.482 57.3201 291.222 57.7701 288.902C58.0301 287.592 58.2899 286.262 58.5399 285.022L59.8099 278.582L50.0301 278.852Z" fill="#F5BD9B"/>
<path d="M49.87 279.692L50.0302 278.822L59.8099 278.582L58.5399 285.022C58.2899 286.262 58.0402 287.582 57.7802 288.882C56.0288 288.567 54.4063 287.751 53.11 286.532C51.4888 285.115 50.268 283.298 49.5699 281.262L49.87 279.692Z" fill="#E47B60"/>
<path d="M56.6099 256.572C55.1935 256.461 53.7711 256.695 52.4649 257.254C51.1587 257.813 50.0075 258.68 49.1099 259.782C46.2199 263.532 43.1101 275.112 50.2801 281.412C57.4501 287.712 64.5499 280.582 65.6099 273.022C66.6699 265.462 67.0699 256.302 56.6099 256.572Z" fill="#F5BD9B"/>
<path d="M67.7301 272.912C66.8701 274.582 65.4301 275.502 64.5201 274.972C63.6101 274.442 63.52 272.662 64.41 270.972C65.3 269.282 66.7 268.382 67.62 268.912C68.54 269.442 68.5901 271.242 67.7301 272.912Z" fill="#F5BD9B"/>
<path d="M47.71 269.622C48.07 271.622 47.3499 273.372 46.0999 273.622C44.8499 273.872 43.56 272.502 43.2 270.542C42.84 268.582 43.5599 266.792 44.8099 266.542C46.0599 266.292 47.36 267.692 47.71 269.622Z" fill="#F5BD9B"/>
<path d="M44.1601 335.182C44.1601 335.182 49.16 313.042 47.81 306.082C46.46 299.122 37.7 293.082 32.07 295.882C26.44 298.682 29.4001 331.552 29.4001 331.552L44.1601 335.182Z" fill="#4C3C99"/>
<path d="M59.85 276.042L51.9401 275.462C51.9659 276.359 52.3388 277.212 52.9803 277.841C53.6219 278.469 54.482 278.824 55.38 278.832C59.6 279.262 59.85 276.042 59.85 276.042Z" fill="#EFFAFD"/>
</g>
<path d="M51.84 318.192C75.3121 318.192 94.34 299.164 94.34 275.692C94.34 252.22 75.3121 233.192 51.84 233.192C28.3679 233.192 9.33997 252.22 9.33997 275.692C9.33997 299.164 28.3679 318.192 51.84 318.192Z" stroke="#6349A0" stroke-width="1.5" stroke-miterlimit="10"/>
<path d="M447.18 86.0917C470.652 86.0917 489.68 67.0638 489.68 43.5917C489.68 20.1196 470.652 1.09167 447.18 1.09167C423.708 1.09167 404.68 20.1196 404.68 43.5917C404.68 67.0638 423.708 86.0917 447.18 86.0917Z" fill="#F6F5FF"/>
<mask id="mask2" style="mask-type:alpha" maskUnits="userSpaceOnUse" x="404" y="1" width="86" height="86">
<path d="M447.18 86.0917C470.652 86.0917 489.68 67.0638 489.68 43.5917C489.68 20.1196 470.652 1.09167 447.18 1.09167C423.708 1.09167 404.68 20.1196 404.68 43.5917C404.68 67.0638 423.708 86.0917 447.18 86.0917Z" fill="#C4C4C4"/>
</mask>
<g mask="url(#mask2)">
<path d="M414.81 104.522L433.89 106.462C433.89 106.462 434.76 90.8217 434.76 83.3617C434.76 74.3617 433.99 62.6517 432.9 62.9017C429.83 63.6117 425.7 65.3017 423.24 68.6817C414.73 80.3817 414.81 104.522 414.81 104.522Z" fill="#F7A09C"/>
<path d="M470.16 109.092C470.183 106.947 470.339 104.806 470.63 102.682C471.53 97.9416 472.63 66.4217 469.58 65.5317C465.2 64.1876 460.709 63.2372 456.16 62.6916C451.95 62.2516 435.6 62.0016 432.68 62.9816C428.143 68.3222 425.207 74.8356 424.21 81.7717C424.06 82.8417 422.86 94.8317 421.44 109.092H470.16Z" fill="#EC665A"/>
<path d="M494.33 97.3617L477.8 108.462C477.8 108.462 468.48 94.6016 463.48 89.6616C457.22 83.4816 465.77 64.5516 469.8 65.6616C478.83 68.0116 494.33 97.3617 494.33 97.3617Z" fill="#F7A09C"/>
<path d="M441.16 14.4416C441.16 14.4416 446.82 8.44161 451.38 15.7316C452.389 15.1785 453.57 15.0298 454.685 15.3158C455.799 15.6018 456.763 16.3011 457.38 17.2717C457.38 17.2717 463.72 15.3617 465.26 24.8417C465.26 24.8417 468.52 24.2316 468.95 28.1016C469.222 30.3728 468.676 32.6667 467.41 34.5716C467.41 34.5716 469.24 35.9416 468.41 39.5116C468.262 40.3399 467.881 41.1086 467.31 41.727C466.74 42.3454 466.004 42.7877 465.19 43.0016C465.19 43.0016 464.52 48.1117 462.3 49.6517C460.721 50.5714 458.852 50.8574 457.07 50.4516C457.07 50.4516 456.27 53.2217 453.68 52.9717C451.09 52.7217 447.9 50.2616 445.01 51.3716C442.12 52.4816 434.6 51.3116 434.6 51.3116C434.6 51.3116 426.17 47.5516 428.7 38.9416C428.7 38.9416 424.26 34.9416 428.14 30.1416C428.14 30.1416 425.31 22.6316 430.91 18.2016C436.51 13.7716 441.16 14.4416 441.16 14.4416Z" fill="#1A1A1A"/>
<path d="M442.16 54.9717L441.16 62.5817C441.16 62.5817 438.87 73.5817 441.82 75.6517C444.77 77.7217 454.38 62.2717 454.38 62.2717L453.38 43.0016L442.16 54.9717Z" fill="#F5BD9B"/>
<path d="M453.62 49.2416C451.18 55.8116 445.37 59.8516 441.25 61.4216L442.12 54.9717L453.3 42.9717L453.62 49.2416Z" fill="#E47B60"/>
<path d="M469.02 29.9017C469.02 32.8317 467.35 35.2117 465.29 35.2117C463.23 35.2117 461.56 32.8317 461.56 29.9017C461.56 26.9717 463.23 24.5917 465.29 24.5917C467.35 24.5917 469.02 26.9717 469.02 29.9017Z" fill="#1A1A1A"/>
<path d="M453.3 21.5316C455.808 21.5316 457.84 20.1661 457.84 18.4816C457.84 16.7972 455.808 15.4316 453.3 15.4316C450.793 15.4316 448.76 16.7972 448.76 18.4816C448.76 20.1661 450.793 21.5316 453.3 21.5316Z" fill="#1A1A1A"/>
<path d="M446.47 22.7517C445.064 22.2779 443.571 22.1176 442.096 22.2821C440.621 22.4465 439.201 22.9317 437.933 23.7035C436.666 24.4753 435.583 25.5152 434.76 26.75C433.937 27.9849 433.394 29.3848 433.17 30.8516C432.685 34.0837 432.411 37.3439 432.35 40.6116C432.18 49.4916 436.78 58.1317 440.82 58.1317C444.86 58.1317 456 52.3817 456.4 39.7717C456.65 31.9917 452.76 24.9217 446.47 22.7517Z" fill="#F5BD9B"/>
<path d="M453.43 40.7717C453.43 42.7717 454.73 44.3217 456.33 44.3217C457.93 44.3217 459.23 42.7317 459.23 40.7717C459.23 38.8117 457.93 37.2217 456.33 37.2217C454.73 37.2217 453.43 38.8117 453.43 40.7717Z" fill="#F5BD9B"/>
<path d="M429 18.3317C424.83 21.6317 423.37 26.6517 425.74 29.5317C428.11 32.4117 433.4 32.0817 437.56 28.7817C441.72 25.4817 443.19 20.4717 440.82 17.5817C438.45 14.6917 433.16 15.0317 429 18.3317Z" fill="#1A1A1A"/>
<path d="M439.89 21.0416C439.89 22.4716 441.62 23.6417 443.76 23.6417C445.9 23.6417 447.63 22.4716 447.63 21.0416C447.63 19.6116 445.89 18.4417 443.76 18.4417C441.63 18.4417 439.89 19.6016 439.89 21.0416Z" fill="#1A1A1A"/>
<path d="M428.38 32.0817C428.388 32.7326 428.588 33.3666 428.956 33.904C429.323 34.4414 429.841 34.8582 430.445 35.1018C431.049 35.3455 431.711 35.4051 432.348 35.2733C432.986 35.1415 433.57 34.8241 434.027 34.361C434.485 33.898 434.795 33.3099 434.919 32.6709C435.044 32.0319 434.976 31.3704 434.725 30.7697C434.474 30.169 434.051 29.656 433.509 29.2952C432.968 28.9343 432.331 28.7417 431.68 28.7416C431.244 28.7443 430.813 28.8327 430.411 29.002C430.009 29.1713 429.645 29.4181 429.338 29.7282C429.032 30.0384 428.79 30.4058 428.625 30.8096C428.461 31.2134 428.378 31.6457 428.38 32.0817Z" fill="#1A1A1A"/>
<path d="M436.59 48.3917L444.48 48.7017C444.367 49.5947 443.91 50.4083 443.206 50.9688C442.501 51.5292 441.606 51.7923 440.71 51.7017C436.47 51.6117 436.59 48.3917 436.59 48.3917Z" fill="#EFFAFD"/>
</g>
<path d="M447.18 86.0917C470.652 86.0917 489.68 67.0638 489.68 43.5917C489.68 20.1196 470.652 1.09167 447.18 1.09167C423.708 1.09167 404.68 20.1196 404.68 43.5917C404.68 67.0638 423.708 86.0917 447.18 86.0917Z" stroke="#6349A0" stroke-width="1.5" stroke-miterlimit="10"/>
<path d="M150.19 410.652C157.552 410.652 163.52 404.684 163.52 397.322C163.52 389.96 157.552 383.992 150.19 383.992C142.828 383.992 136.86 389.96 136.86 397.322C136.86 404.684 142.828 410.652 150.19 410.652Z" fill="#766BC9"/>
<path d="M156.84 399.382C156.875 399.348 156.903 399.308 156.922 399.263C156.94 399.218 156.95 399.17 156.95 399.122V398.322C156.885 397.697 156.669 397.097 156.321 396.574C155.972 396.052 155.502 395.622 154.95 395.322C153.51 394.433 151.852 393.963 150.16 393.963C148.468 393.963 146.81 394.433 145.37 395.322C144.818 395.622 144.348 396.052 143.999 396.574C143.651 397.097 143.435 397.697 143.37 398.322V399.122C143.373 399.219 143.412 399.312 143.481 399.381C143.55 399.449 143.643 399.489 143.74 399.492H146.02C146.117 399.489 146.21 399.449 146.279 399.381C146.348 399.312 146.387 399.219 146.39 399.122V398.322C146.4 397.918 146.512 397.523 146.714 397.173C146.917 396.824 147.204 396.531 147.55 396.322C148.321 395.832 149.216 395.571 150.13 395.571C151.044 395.571 151.939 395.832 152.71 396.322C153.056 396.531 153.343 396.824 153.546 397.173C153.748 397.523 153.86 397.918 153.87 398.322V399.122C153.873 399.219 153.912 399.312 153.981 399.381C154.05 399.449 154.143 399.489 154.24 399.492H156.52C156.569 399.492 156.617 399.482 156.661 399.463C156.706 399.444 156.746 399.417 156.78 399.382H156.84ZM143.84 395.382C144.146 395.07 144.48 394.789 144.84 394.542C146.434 393.54 148.278 393.009 150.16 393.009C152.042 393.009 153.886 393.54 155.48 394.542C156.166 394.977 156.755 395.549 157.21 396.222C157.639 396.854 157.872 397.598 157.88 398.362V399.162C157.877 399.515 157.737 399.852 157.488 400.103C157.24 400.353 156.903 400.497 156.55 400.502H154.27C153.916 400.499 153.576 400.357 153.325 400.106C153.075 399.856 152.933 399.516 152.93 399.162V398.362C152.913 398.118 152.837 397.882 152.708 397.675C152.579 397.468 152.401 397.295 152.19 397.172C151.579 396.799 150.876 396.602 150.16 396.602C149.444 396.602 148.742 396.799 148.13 397.172C147.919 397.295 147.741 397.468 147.612 397.675C147.483 397.882 147.407 398.118 147.39 398.362V399.162C147.387 399.516 147.245 399.856 146.995 400.106C146.744 400.357 146.405 400.499 146.05 400.502H143.77C143.416 400.499 143.076 400.357 142.825 400.106C142.575 399.856 142.433 399.516 142.43 399.162V398.362C142.441 397.597 142.678 396.853 143.11 396.222C143.311 395.919 143.542 395.637 143.8 395.382H143.84Z" fill="white"/>
<path d="M413.12 302.732C425.508 302.732 435.55 292.712 435.55 280.352C435.55 267.992 425.508 257.972 413.12 257.972C400.732 257.972 390.69 267.992 390.69 280.352C390.69 292.712 400.732 302.732 413.12 302.732Z" fill="#6349A0"/>
<path d="M414.04 265.792H413V271.032H414.04V265.792Z" fill="#FFA03E"/>
<path d="M398.22 286.742C399.899 286.742 401.26 285.381 401.26 283.702C401.26 282.023 399.899 280.662 398.22 280.662C396.541 280.662 395.18 282.023 395.18 283.702C395.18 285.381 396.541 286.742 398.22 286.742Z" fill="white"/>
<path d="M428.96 286.542C430.639 286.542 432 285.181 432 283.502C432 281.823 430.639 280.462 428.96 280.462C427.281 280.462 425.92 281.823 425.92 283.502C425.92 285.181 427.281 286.542 428.96 286.542Z" fill="white"/>
<path d="M413.97 269.942C413.97 269.942 426.35 269.792 428.31 280.512C430.27 291.232 419.8 291.432 416.79 291.642C415.42 291.732 412.5 291.742 409.92 291.642C404.21 291.542 400.18 290.442 398.81 285.142C398.646 284.523 398.542 283.89 398.5 283.252C398.16 277.492 402.07 269.692 413.97 269.942Z" fill="white"/>
<path d="M404.99 286.272L422.99 286.552C423.895 286.565 424.769 286.219 425.419 285.589C426.07 284.959 426.444 284.097 426.46 283.192C426.473 282.286 426.127 281.413 425.497 280.762C424.867 280.112 424.005 279.738 423.1 279.722L405.1 279.442C404.652 279.434 404.206 279.515 403.79 279.679C403.373 279.844 402.993 280.09 402.671 280.402C402.35 280.714 402.093 281.087 401.916 281.499C401.739 281.911 401.645 282.353 401.64 282.802C401.632 283.25 401.712 283.695 401.877 284.111C402.041 284.528 402.285 284.908 402.596 285.231C402.907 285.553 403.279 285.811 403.69 285.989C404.1 286.168 404.542 286.264 404.99 286.272Z" fill="#FFA03E"/>
<path d="M415.22 265.692C415.22 266.03 415.12 266.361 414.932 266.642C414.744 266.923 414.477 267.142 414.164 267.272C413.852 267.401 413.508 267.435 413.176 267.369C412.845 267.303 412.54 267.14 412.301 266.901C412.062 266.662 411.899 266.357 411.833 266.025C411.767 265.694 411.801 265.35 411.93 265.037C412.06 264.725 412.279 264.458 412.56 264.27C412.841 264.082 413.172 263.982 413.51 263.982C413.964 263.982 414.398 264.162 414.719 264.483C415.04 264.803 415.22 265.238 415.22 265.692Z" fill="white"/>
</g>

</svg>
