<svg width="529" height="442" viewBox="0 0 529 442" fill="none" xmlns="http://www.w3.org/2000/svg">
<g clip-path="url(#clip0)">
<path d="M242.226 417.813L75.1763 417.203C72.5136 417.194 69.8787 416.66 67.4223 415.632C64.9659 414.604 62.736 413.103 60.8601 411.213C58.9843 409.323 57.4991 407.082 56.4895 404.618C55.48 402.154 54.9658 399.515 54.9764 396.853L56.3163 39.4928C56.3375 34.1159 58.4932 28.9675 62.3092 25.1796C66.1253 21.3916 71.2894 19.2742 76.6663 19.2928L243.726 19.9028C249.103 19.924 254.251 22.0796 258.039 25.8956C261.827 29.7117 263.945 34.8759 263.926 40.2528L262.606 397.613C262.597 400.278 262.062 402.915 261.033 405.374C260.003 407.832 258.499 410.063 256.606 411.94C254.713 413.816 252.468 415.3 250.001 416.308C247.533 417.316 244.892 417.827 242.226 417.813Z" fill="white" stroke="#6349A0" stroke-miterlimit="10"/>
<path d="M239.936 28.1127L198.316 28.0128V31.5828C198.306 33.64 197.48 35.6091 196.019 37.0582C194.559 38.5073 192.584 39.3181 190.526 39.3127L129.716 39.0928C127.659 39.0822 125.69 38.2561 124.241 36.7958C122.792 35.3354 121.981 33.36 121.986 31.3027V27.7327L80.3463 27.5828C78.2189 27.5749 76.1107 27.9861 74.1422 28.7929C72.1737 29.5998 70.3834 30.7864 68.8735 32.2852C67.3636 33.7839 66.1638 35.5654 65.3424 37.5278C64.521 39.4903 64.0942 41.5954 64.0863 43.7228L62.8163 391.933C62.8084 394.06 63.2196 396.168 64.0265 398.137C64.8333 400.105 66.0199 401.896 67.5187 403.405C69.0174 404.915 70.7989 406.115 72.7613 406.937C74.7238 407.758 76.8289 408.185 78.9563 408.193L238.566 408.773C240.693 408.781 242.801 408.369 244.769 407.562C246.737 406.755 248.526 405.569 250.036 404.07C251.545 402.571 252.744 400.789 253.564 398.827C254.384 396.865 254.81 394.76 254.816 392.633L256.096 44.4227C256.111 42.2894 255.704 40.1743 254.899 38.1987C254.094 36.2232 252.906 34.4261 251.405 32.9106C249.903 31.3952 248.117 30.1912 246.149 29.3679C244.181 28.5445 242.07 28.118 239.936 28.1127Z" fill="#F6F5FF" stroke="#6349A0" stroke-miterlimit="10"/>
<path d="M146.042 31.241L146.042 31.251C146.039 31.9579 146.61 32.5331 147.317 32.5357L176.347 32.6421C177.054 32.6447 177.629 32.0737 177.631 31.3668L177.632 31.3568C177.634 30.6499 177.063 30.0746 176.356 30.0721L147.326 29.9657C146.62 29.9631 146.044 30.5341 146.042 31.241Z" fill="#6349A0"/>
<path d="M205.706 213.213H111.576C107.429 213.213 104.066 216.575 104.066 220.723V323.993C104.066 328.14 107.429 331.503 111.576 331.503H205.706C209.854 331.503 213.216 328.14 213.216 323.993V220.723C213.216 216.575 209.854 213.213 205.706 213.213Z" fill="white"/>
<path d="M205.706 332.763H111.566C109.243 332.76 107.015 331.837 105.371 330.195C103.728 328.553 102.802 326.326 102.796 324.003V220.723C102.802 218.398 103.727 216.171 105.371 214.527C107.014 212.884 109.242 211.958 111.566 211.953H205.706C208.03 211.958 210.256 212.884 211.898 214.528C213.54 216.172 214.464 218.399 214.466 220.723V324.013C214.461 326.334 213.536 328.558 211.894 330.198C210.252 331.838 208.027 332.76 205.706 332.763ZM111.566 213.213C109.575 213.215 107.667 214.008 106.259 215.415C104.851 216.823 104.059 218.732 104.056 220.723V324.013C104.059 326.003 104.851 327.91 106.259 329.317C107.668 330.723 109.576 331.513 111.566 331.513H205.706C207.695 331.513 209.603 330.723 211.01 329.316C212.416 327.91 213.206 326.002 213.206 324.013V220.723C213.206 218.733 212.416 216.824 211.01 215.416C209.604 214.008 207.696 213.215 205.706 213.213H111.566Z" fill="#CACAEF"/>
<path d="M201.266 229.703H116.016V231.083H201.266V229.703Z" fill="#DFDFFB"/>
<path d="M201.266 250.683H116.016V252.063H201.266V250.683Z" fill="#DFDFFB"/>
<path d="M201.266 271.673H116.016V273.053H201.266V271.673Z" fill="#DFDFFB"/>
<path d="M201.266 292.653H116.016V294.033H201.266V292.653Z" fill="#DFDFFB"/>
<path d="M201.266 313.633H116.016V315.013H201.266V313.633Z" fill="#DFDFFB"/>
<path d="M123.276 257.903H116.016V315.013H123.276V257.903Z" fill="#DFDFFB"/>
<path d="M139.056 279.123H131.796V315.013H139.056V279.123Z" fill="#DFDFFB"/>
<path d="M154.846 265.943H147.586V315.023H154.846V265.943Z" fill="#DFDFFB"/>
<path d="M170.626 257.083H163.366V315.023H170.626V257.083Z" fill="#DFDFFB"/>
<path d="M186.416 246.383H179.156V315.013H186.416V246.383Z" fill="#DFDFFB"/>
<path d="M202.196 234.993H194.936V315.013H202.196V234.993Z" fill="#DFDFFB"/>
<path d="M105.226 121.053C112.897 121.053 119.116 114.834 119.116 107.163C119.116 99.4915 112.897 93.2728 105.226 93.2728C97.5549 93.2728 91.3362 99.4915 91.3362 107.163C91.3362 114.834 97.5549 121.053 105.226 121.053Z" fill="#DFDFFB"/>
<path d="M205.966 376.053H88.1162C83.9299 376.053 80.5363 379.446 80.5363 383.633C80.5363 387.819 83.9299 391.213 88.1162 391.213H205.966C210.153 391.213 213.546 387.819 213.546 383.633C213.546 379.446 210.153 376.053 205.966 376.053Z" fill="white" stroke="#8C7DBC" stroke-miterlimit="10"/>
<path d="M229.196 390.773C233.14 390.773 236.336 387.576 236.336 383.633C236.336 379.689 233.14 376.493 229.196 376.493C225.253 376.493 222.056 379.689 222.056 383.633C222.056 387.576 225.253 390.773 229.196 390.773Z" fill="white" stroke="#8C7DBC" stroke-miterlimit="10"/>
<path d="M134.286 98.3828H231.746" stroke="#DFDFFB" stroke-width="3" stroke-linecap="round" stroke-linejoin="round"/>
<path d="M134.286 108.073H231.746" stroke="#DFDFFB" stroke-width="3" stroke-linecap="round" stroke-linejoin="round"/>
<path d="M134.286 117.773H168.476" stroke="#DFDFFB" stroke-width="3" stroke-linecap="round" stroke-linejoin="round"/>
<path d="M105.226 164.603C112.897 164.603 119.116 158.384 119.116 150.713C119.116 143.042 112.897 136.823 105.226 136.823C97.5549 136.823 91.3362 143.042 91.3362 150.713C91.3362 158.384 97.5549 164.603 105.226 164.603Z" fill="#DFDFFB"/>
<path d="M134.286 141.923H231.746" stroke="#DFDFFB" stroke-width="3" stroke-linecap="round" stroke-linejoin="round"/>
<path d="M134.286 151.623H231.746" stroke="#DFDFFB" stroke-width="3" stroke-linecap="round" stroke-linejoin="round"/>
<path d="M134.286 161.313H168.476" stroke="#DFDFFB" stroke-width="3" stroke-linecap="round" stroke-linejoin="round"/>
<path d="M433.596 440.873L249.246 440.203C246.308 440.192 243.4 439.603 240.69 438.468C237.979 437.334 235.518 435.676 233.448 433.591C231.378 431.505 229.74 429.032 228.626 426.313C227.512 423.593 226.945 420.681 226.956 417.743L228.406 23.3828C228.43 17.4507 230.808 11.7708 235.018 7.59113C239.227 3.41151 244.924 1.07418 250.856 1.09278L435.206 1.77277C438.144 1.78195 441.052 2.37005 443.763 3.50348C446.473 4.63692 448.934 6.29342 451.004 8.37836C453.074 10.4633 454.713 12.9358 455.827 15.6545C456.941 18.3732 457.508 21.2847 457.496 24.2228L456.046 418.583C456.037 421.521 455.449 424.428 454.316 427.139C453.182 429.85 451.526 432.31 449.441 434.38C447.356 436.45 444.883 438.089 442.165 439.203C439.446 440.317 436.534 440.885 433.596 440.873Z" fill="white" stroke="#6349A0" stroke-miterlimit="10"/>
<path d="M431.066 10.8328L385.066 10.6628V14.6028C385.062 15.7269 384.837 16.8392 384.403 17.8762C383.969 18.9133 383.336 19.8547 382.538 20.6468C381.74 21.4389 380.794 22.0662 379.754 22.4927C378.714 22.9192 377.6 23.1367 376.476 23.1328L309.366 22.8828C308.242 22.8788 307.13 22.6536 306.093 22.2197C305.056 21.7859 304.114 21.152 303.322 20.3544C302.53 19.5567 301.903 18.6109 301.476 17.5708C301.05 16.5308 300.832 15.4169 300.836 14.2928V10.3528L254.836 10.1828C250.108 10.1907 245.575 12.0711 242.23 15.4126C238.885 18.7541 237 23.2846 236.986 28.0128L235.576 412.273C235.562 414.625 236.011 416.956 236.899 419.134C237.786 421.312 239.095 423.294 240.749 424.966C242.403 426.638 244.371 427.967 246.539 428.878C248.708 429.788 251.034 430.262 253.386 430.273L429.526 430.913C434.267 430.929 438.819 429.062 442.183 425.722C445.548 422.382 447.448 417.843 447.466 413.103L448.876 28.8428C448.893 26.4897 448.446 24.1564 447.559 21.9766C446.673 19.7969 445.365 17.8135 443.71 16.1403C442.056 14.4672 440.087 13.1371 437.917 12.2263C435.747 11.3155 433.419 10.8419 431.066 10.8328Z" fill="#F6F5FF" stroke="#6349A0" stroke-miterlimit="10"/>
<path d="M327.453 14.2141L327.453 14.3441C327.45 15.0897 328.052 15.6963 328.798 15.699L360.957 15.8169C361.703 15.8196 362.31 15.2175 362.312 14.4719L362.313 14.3419C362.316 13.5963 361.713 12.9897 360.968 12.987L328.808 12.8691C328.062 12.8664 327.456 13.4685 327.453 14.2141Z" fill="#6349A0"/>
<path d="M32.7063 368.253C32.7765 368.18 32.8159 368.084 32.8163 367.983V367.193C32.754 366.567 32.539 365.967 32.1903 365.443C31.8416 364.92 31.3698 364.491 30.8163 364.193C29.379 363.298 27.7196 362.823 26.0263 362.823C24.333 362.823 22.6736 363.298 21.2363 364.193C20.6829 364.491 20.211 364.92 19.8623 365.443C19.5136 365.967 19.2987 366.567 19.2363 367.193V367.983C19.2363 368.084 19.2763 368.18 19.3475 368.251C19.4188 368.323 19.5156 368.363 19.6163 368.363H21.8862C21.9348 368.363 21.9828 368.353 22.0275 368.334C22.0722 368.315 22.1126 368.288 22.1463 368.253C22.2164 368.18 22.2559 368.084 22.2562 367.983V367.193C22.27 366.79 22.3832 366.396 22.5856 366.047C22.7879 365.698 23.0732 365.405 23.4163 365.193C24.19 364.71 25.0841 364.453 25.9964 364.453C26.9086 364.453 27.8026 364.71 28.5763 365.193C28.9212 365.403 29.2079 365.696 29.4105 366.045C29.6131 366.395 29.7252 366.789 29.7363 367.193V367.983C29.7367 368.084 29.7761 368.18 29.8463 368.253C29.88 368.288 29.9204 368.315 29.9651 368.334C30.0098 368.353 30.0578 368.363 30.1063 368.363H32.3862C32.4348 368.363 32.4828 368.353 32.5275 368.334C32.5722 368.315 32.6126 368.288 32.6463 368.253H32.7063ZM19.7063 364.253C20.012 363.941 20.3468 363.66 20.7063 363.413C22.3029 362.419 24.1458 361.893 26.0263 361.893C27.9067 361.893 29.7497 362.419 31.3463 363.413C32.0317 363.853 32.6203 364.428 33.0763 365.103C33.5111 365.732 33.7479 366.478 33.7562 367.243V368.033C33.7642 368.218 33.7328 368.403 33.6638 368.576C33.5949 368.748 33.4901 368.904 33.3563 369.033C33.1071 369.282 32.7689 369.423 32.4163 369.423H30.1362C29.7817 369.42 29.4424 369.278 29.1917 369.027C28.9409 368.777 28.7989 368.437 28.7963 368.083V367.293C28.7808 367.049 28.7052 366.812 28.5761 366.605C28.4469 366.397 28.2683 366.225 28.0563 366.103C27.4472 365.723 26.7439 365.522 26.0263 365.522C25.3087 365.522 24.6055 365.723 23.9964 366.103C23.7843 366.225 23.6057 366.397 23.4766 366.605C23.3474 366.812 23.2717 367.049 23.2562 367.293V368.083C23.2637 368.267 23.2329 368.451 23.1658 368.624C23.0987 368.796 22.9968 368.952 22.8663 369.083C22.6128 369.332 22.2717 369.472 21.9163 369.473H19.6463C19.4606 369.472 19.277 369.433 19.1073 369.358C18.9376 369.282 18.7853 369.173 18.6603 369.035C18.5352 368.898 18.4401 368.736 18.3809 368.56C18.3217 368.384 18.2997 368.198 18.3163 368.013V367.223C18.3211 366.459 18.5545 365.713 18.9863 365.083C19.1841 364.775 19.4155 364.49 19.6763 364.233L19.7063 364.253Z" fill="white"/>
<path d="M393.276 215.093H289.406C284.828 215.093 281.116 218.804 281.116 223.383V337.343C281.116 341.921 284.828 345.633 289.406 345.633H393.276C397.855 345.633 401.566 341.921 401.566 337.343V223.383C401.566 218.804 397.855 215.093 393.276 215.093Z" fill="white"/>
<path d="M393.316 347.013H289.406C286.84 347.01 284.379 345.989 282.564 344.175C280.75 342.36 279.729 339.899 279.726 337.333V223.333C279.729 220.766 280.75 218.306 282.564 216.491C284.379 214.676 286.84 213.655 289.406 213.653H393.316C395.881 213.658 398.339 214.68 400.152 216.494C401.964 218.309 402.984 220.768 402.986 223.333V337.333C402.984 339.897 401.964 342.357 400.152 344.171C398.339 345.986 395.881 347.007 393.316 347.013ZM289.436 215.083C287.238 215.085 285.131 215.96 283.577 217.514C282.023 219.068 281.149 221.175 281.146 223.373V337.373C281.149 339.571 282.023 341.678 283.577 343.232C285.131 344.786 287.238 345.66 289.436 345.663H393.316C395.513 345.66 397.619 344.786 399.172 343.231C400.724 341.677 401.596 339.57 401.596 337.373V223.373C401.596 221.176 400.724 219.069 399.172 217.514C397.619 215.96 395.513 215.085 393.316 215.083H289.436Z" fill="#B7B7ED"/>
<path d="M388.376 233.293H294.306V234.813H388.376V233.293Z" fill="#DFDFFB"/>
<path d="M388.376 256.443H294.306V257.963H388.376V256.443Z" fill="#DFDFFB"/>
<path d="M388.376 279.603H294.306V281.123H388.376V279.603Z" fill="#DFDFFB"/>
<path d="M388.376 302.753H294.306V304.273H388.376V302.753Z" fill="#DFDFFB"/>
<path d="M388.376 325.913H294.306V327.433H388.376V325.913Z" fill="#DFDFFB"/>
<path d="M302.316 264.413H294.306V327.443H302.316V264.413Z" fill="#EC665A"/>
<path d="M319.736 287.833H311.726V327.443H319.736V287.833Z" fill="#F9C941"/>
<path d="M337.156 273.273H329.146V327.433H337.156V273.273Z" fill="#EC665A"/>
<path d="M354.576 263.503H346.566V327.443H354.576V263.503Z" fill="#FFA03E"/>
<path d="M371.996 251.693H363.986V327.433H371.996V251.693Z" fill="#EC665A"/>
<path d="M389.416 239.133H381.406V327.443H389.416V239.133Z" fill="#FFA03E"/>
<path d="M261.886 64.1528L267.526 59.0727L266.626 76.3727L249.316 75.4728L255.036 70.3227C244.566 60.3227 231.176 56.6828 222.036 61.1028C222.855 59.7715 223.866 58.5685 225.036 57.5328C233.876 49.5328 249.826 52.6328 261.906 64.1528H261.886Z" fill="#FFA03E"/>
<path d="M217.416 355.203L211.766 360.283L212.676 342.983L229.976 343.893L224.256 349.033C234.736 359.033 248.126 362.673 257.256 358.253C256.432 359.583 255.422 360.789 254.256 361.833C245.406 369.833 229.456 366.723 217.386 355.203H217.416Z" fill="#FFA03E"/>
<path d="M282.396 113.393C290.863 113.393 297.726 106.529 297.726 98.0628C297.726 89.5962 290.863 82.7328 282.396 82.7328C273.93 82.7328 267.066 89.5962 267.066 98.0628C267.066 106.529 273.93 113.393 282.396 113.393Z" fill="#6349A0"/>
<path d="M393.566 394.783H263.526C258.904 394.783 255.156 398.528 255.156 403.148C255.156 407.768 258.904 411.513 263.526 411.513H393.566C398.189 411.513 401.936 407.768 401.936 403.148C401.936 398.528 398.189 394.783 393.566 394.783Z" fill="white" stroke="#6349A0" stroke-miterlimit="10"/>
<path d="M419.206 411.033C423.558 411.033 427.086 407.505 427.086 403.153C427.086 398.801 423.558 395.273 419.206 395.273C414.854 395.273 411.326 398.801 411.326 403.153C411.326 407.505 414.854 411.033 419.206 411.033Z" fill="white" stroke="#6349A0" stroke-miterlimit="10"/>
<path d="M314.466 88.3728H422.026" stroke="#B7B7ED" stroke-width="3" stroke-linecap="round" stroke-linejoin="round"/>
<path d="M314.466 99.0728H422.026" stroke="#B7B7ED" stroke-width="3" stroke-linecap="round" stroke-linejoin="round"/>
<path d="M314.466 109.773H352.196" stroke="#B7B7ED" stroke-width="3" stroke-linecap="round" stroke-linejoin="round"/>
<path d="M282.396 161.453C290.863 161.453 297.726 154.589 297.726 146.123C297.726 137.656 290.863 130.793 282.396 130.793C273.93 130.793 267.066 137.656 267.066 146.123C267.066 154.589 273.93 161.453 282.396 161.453Z" fill="#6349A0"/>
<path d="M314.466 136.423H422.026" stroke="#B7B7ED" stroke-width="3" stroke-linecap="round" stroke-linejoin="round"/>
<path d="M314.466 147.123H422.026" stroke="#B7B7ED" stroke-width="3" stroke-linecap="round" stroke-linejoin="round"/>
<path d="M314.466 157.823H352.196" stroke="#B7B7ED" stroke-width="3" stroke-linecap="round" stroke-linejoin="round"/>
<path d="M461.496 254.873C484.968 254.873 503.996 235.845 503.996 212.373C503.996 188.901 484.968 169.873 461.496 169.873C438.024 169.873 418.996 188.901 418.996 212.373C418.996 235.845 438.024 254.873 461.496 254.873Z" fill="#F6F5FF"/>
<mask id="mask0" style="mask-type:alpha" maskUnits="userSpaceOnUse" x="418" y="169" width="86" height="86">
<path d="M461.496 254.873C484.968 254.873 503.996 235.845 503.996 212.373C503.996 188.901 484.968 169.873 461.496 169.873C438.024 169.873 418.996 188.901 418.996 212.373C418.996 235.845 438.024 254.873 461.496 254.873Z" fill="#F6F5FF"/>
</mask>
<g mask="url(#mask0)">
<path d="M482.366 209.483C482.33 203.447 480.79 197.515 477.886 192.223C475.256 187.573 469.366 185.223 464.166 185.573C447.636 186.653 446.996 208.573 437.036 217.743C434.036 220.533 430.536 222.863 427.686 225.843C417.136 236.843 423.456 255.473 434.366 263.763C441.936 269.523 453.366 272.313 461.916 266.853C466.281 263.836 469.692 259.634 471.746 254.743C474.836 247.933 476.616 240.193 478.656 233.023C480.836 225.383 482.566 217.473 482.366 209.483Z" fill="black"/>
<path d="M457.976 228.823C457.976 228.823 443.056 230.403 439.106 234.573L448.786 287.113C448.786 287.113 467.186 289.853 478.936 285.813C478.936 285.813 485.536 243.693 479.586 233.373C477.586 229.933 468.586 229.793 468.586 229.793L457.976 228.823Z" fill="#F9C941"/>
<path d="M528.506 207.013C527.956 205.853 523.056 209.303 521.966 208.643C520.876 207.983 526.366 202.463 525.806 201.493C524.806 199.713 519.426 207.183 518.906 206.393C518.386 205.603 523.506 197.633 521.676 197.193C519.846 196.753 517.216 206.013 516.276 205.413C515.336 204.813 519.496 197.033 517.716 195.413C516.716 194.563 512.296 209.633 510.716 210.253C509.136 210.873 507.266 204.253 505.716 204.563C504.166 204.873 510.716 216.663 510.396 217.563C510.076 218.463 504.096 237.813 500.566 243.653C498.446 242.653 496.376 241.653 494.396 240.653C493.606 245.143 491.776 249.053 490.736 253.453C497.586 256.453 505.446 259.453 507.436 258.723C513.486 256.493 516.436 227.083 517.436 221.593C518.436 216.103 521.006 215.023 522.436 212.143C523.866 209.263 529.056 208.153 528.506 207.013Z" fill="#F5BD9B"/>
<path d="M476.516 231.423L467.716 241.983C467.716 241.983 480.336 250.493 491.716 255.483C492.716 251.083 495.326 244.183 496.126 239.703C489.756 236.565 483.208 233.801 476.516 231.423Z" fill="#F9C941"/>
<path d="M395.676 205.903C396.226 204.743 401.126 208.183 402.216 207.533C403.306 206.883 397.826 201.353 398.386 200.383C399.386 198.603 404.756 206.063 405.286 205.273C405.816 204.483 400.676 196.523 402.506 196.083C404.336 195.643 406.966 204.903 407.906 204.303C408.846 203.703 404.696 195.923 406.466 194.303C407.416 193.453 411.886 208.513 413.466 209.143C415.046 209.773 416.916 203.143 418.466 203.453C420.016 203.763 413.466 215.543 413.776 216.453C414.086 217.363 420.076 236.703 423.606 242.533C425.736 241.533 427.806 240.533 429.776 239.533C430.566 244.013 432.696 248.263 433.776 252.663C426.926 255.663 418.776 258.333 416.776 257.593C410.716 255.363 407.776 225.953 406.776 220.473C405.776 214.993 403.216 213.903 401.776 211.023C400.336 208.143 395.126 207.073 395.676 205.903Z" fill="#F5BD9B"/>
<path d="M448.396 230.503L449.996 254.393C449.996 254.393 443.846 249.393 432.486 254.393C431.486 249.993 428.876 243.093 428.086 238.613C434.652 235.423 441.44 232.713 448.396 230.503Z" fill="#F9C941"/>
<path d="M458.716 213.293C458.716 213.293 458.716 213.633 458.616 214.203C458.286 216.943 456.956 226.033 455.806 228.583C454.426 231.673 462.046 240.713 468.696 239.103C470.696 238.623 466.416 230.483 466.536 229.583C466.766 227.863 467.076 225.513 467.386 223.103C467.566 221.743 467.736 220.363 467.906 219.103C468.386 215.423 468.776 212.413 468.776 212.413L458.716 213.293Z" fill="#F5BD9B"/>
<path d="M458.316 216.383L458.426 215.473L468.476 214.553C468.476 214.553 468.096 217.553 467.616 221.243C467.446 222.533 467.266 223.903 467.096 225.243C465.262 225.053 463.524 224.33 462.096 223.163C460.339 221.805 458.962 220.017 458.096 217.973C458.166 217.343 458.316 216.803 458.316 216.383Z" fill="#E47B60"/>
<path d="M464.156 190.223C462.599 190.197 461.059 190.547 459.667 191.243C458.274 191.94 457.07 192.962 456.156 194.223C453.276 198.513 450.706 211.333 459.006 217.663C467.306 223.993 474.536 215.723 475.136 207.423C475.736 199.123 475.556 189.163 464.156 190.223Z" fill="#F5BD9B"/>
<path d="M477.486 207.183C476.676 209.063 475.166 210.183 474.126 209.663C473.086 209.143 472.906 207.223 473.716 205.343C474.526 203.463 476.036 202.343 477.076 202.863C478.116 203.383 478.316 205.313 477.486 207.183Z" fill="#F5BD9B"/>
<path d="M464.626 188.843C464.626 188.843 458.696 201.273 453.926 202.143C449.156 203.013 448.926 209.423 448.926 209.423C448.926 209.423 449.676 194.643 454.246 191.493C458.816 188.343 464.626 188.843 464.626 188.843Z" fill="black"/>
<path d="M455.386 205.073C455.916 207.173 455.266 209.173 453.916 209.543C452.566 209.913 451.056 208.543 450.516 206.413C449.976 204.283 450.646 202.303 451.986 201.933C453.326 201.563 454.856 203.013 455.386 205.073Z" fill="#F5BD9B"/>
<path d="M469.196 211.953L461.446 211.373C461.47 212.252 461.832 213.088 462.459 213.705C463.086 214.322 463.927 214.673 464.806 214.683C468.956 215.113 469.196 211.953 469.196 211.953Z" fill="#EFFAFD"/>
</g>
<path d="M461.496 254.873C484.968 254.873 503.996 235.845 503.996 212.373C503.996 188.901 484.968 169.873 461.496 169.873C438.024 169.873 418.996 188.901 418.996 212.373C418.996 235.845 438.024 254.873 461.496 254.873Z" stroke="#6349A0" stroke-width="1.5" stroke-miterlimit="10"/>
<path d="M43.5262 354.983C66.9983 354.983 86.0262 335.955 86.0262 312.483C86.0262 289.011 66.9983 269.983 43.5262 269.983C20.0541 269.983 1.02625 289.011 1.02625 312.483C1.02625 335.955 20.0541 354.983 43.5262 354.983Z" fill="#F6F5FF"/>
<mask id="mask1" style="mask-type:alpha" maskUnits="userSpaceOnUse" x="1" y="269" width="86" height="86">
<path d="M43.5262 354.983C66.9983 354.983 86.0262 335.955 86.0262 312.483C86.0262 289.011 66.9983 269.983 43.5262 269.983C20.0541 269.983 1.02625 289.011 1.02625 312.483C1.02625 335.955 20.0541 354.983 43.5262 354.983Z" fill="#F6F5FF"/>
</mask>
<g mask="url(#mask1)">
<path d="M11.1563 373.403L30.2364 375.353C30.2364 375.353 31.1164 359.713 31.1164 352.253C31.1164 343.253 30.3464 331.543 29.2464 331.793C26.1764 332.503 22.0463 334.193 19.5863 337.573C11.0763 349.263 11.1563 373.403 11.1563 373.403Z" fill="#F7A09C"/>
<path d="M66.4563 378.013C66.4834 375.869 66.6403 373.728 66.9263 371.603C67.8263 366.863 68.9263 335.333 65.9263 334.453C61.5519 333.111 57.0679 332.158 52.5262 331.603C48.3162 331.173 31.9763 330.913 29.0463 331.903C24.5162 337.243 21.584 343.752 20.5863 350.683C20.4263 351.763 19.2263 363.753 17.8163 378.013H66.4563Z" fill="#EC665A"/>
<path d="M90.6763 366.253L74.1462 377.353C74.1462 377.353 64.8363 363.493 59.8363 358.553C53.5663 352.373 62.1162 333.433 66.1462 334.553C75.1762 336.903 90.6763 366.253 90.6763 366.253Z" fill="#F7A09C"/>
<path d="M37.5062 283.333C37.5062 283.333 43.1663 277.333 47.7263 284.623C48.735 284.07 49.9163 283.921 51.0306 284.207C52.1449 284.493 53.1087 285.192 53.7263 286.163C53.7263 286.163 60.0663 284.253 61.6063 293.733C61.6063 293.733 64.8663 293.113 65.2963 296.993C65.5685 299.264 65.0224 301.558 63.7562 303.463C63.7562 303.463 65.5862 304.833 64.7562 308.393C64.6109 309.222 64.2314 309.992 63.6626 310.612C63.0938 311.232 62.3595 311.676 61.5463 311.893C61.5463 311.893 60.8662 317.003 58.6462 318.533C57.0673 319.453 55.198 319.738 53.4163 319.333C53.4163 319.333 52.6163 322.103 50.0363 321.863C47.4563 321.623 44.2463 319.153 41.3563 320.263C38.4663 321.373 30.9563 320.203 30.9563 320.203C30.9563 320.203 22.5163 316.443 25.0463 307.833C25.0463 307.833 20.6163 303.833 24.4863 299.023C24.4863 299.023 21.6562 291.513 27.2562 287.083C32.8562 282.653 37.5062 283.333 37.5062 283.333Z" fill="#1A1A1A"/>
<path d="M38.4663 323.863L37.4663 331.473C37.4663 331.473 35.1763 342.473 38.1263 344.533C41.0763 346.593 50.6863 331.153 50.6863 331.153L49.6863 311.883L38.4663 323.863Z" fill="#F5BD9B"/>
<path d="M49.9763 318.133C47.5363 324.703 41.7263 328.743 37.5963 330.313L38.4663 323.863L49.6462 311.863L49.9763 318.133Z" fill="#E47B60"/>
<path d="M65.3663 298.793C65.3663 301.723 63.6962 304.103 61.6362 304.103C59.5762 304.103 57.9163 301.723 57.9163 298.793C57.9163 295.863 59.5762 293.473 61.6362 293.473C63.6962 293.473 65.3663 295.853 65.3663 298.793Z" fill="#1A1A1A"/>
<path d="M49.6463 290.423C52.1537 290.423 54.1863 289.057 54.1863 287.373C54.1863 285.688 52.1537 284.323 49.6463 284.323C47.1389 284.323 45.1063 285.688 45.1063 287.373C45.1063 289.057 47.1389 290.423 49.6463 290.423Z" fill="#1A1A1A"/>
<path d="M42.8163 291.643C41.4101 291.169 39.9172 291.009 38.4424 291.173C36.9677 291.338 35.5468 291.823 34.2795 292.595C33.0121 293.366 31.929 294.406 31.1061 295.641C30.2833 296.876 29.7406 298.276 29.5163 299.743C29.0356 302.975 28.7618 306.235 28.6963 309.503C28.5363 318.383 33.1263 327.023 37.1663 327.023C41.2063 327.023 52.3464 321.273 52.7464 308.663C52.9964 300.883 49.1063 293.813 42.8163 291.643Z" fill="#F5BD9B"/>
<path d="M49.7762 309.663C49.7762 311.663 51.0763 313.213 52.6763 313.213C54.2763 313.213 55.5763 311.623 55.5763 309.663C55.5763 307.703 54.2763 306.113 52.6763 306.113C51.0763 306.113 49.7762 307.703 49.7762 309.663Z" fill="#F5BD9B"/>
<path d="M25.3162 287.223C21.1462 290.523 19.6862 295.543 22.0562 298.423C24.4262 301.303 29.7163 300.973 33.8763 297.673C38.0363 294.373 39.5062 289.363 37.1462 286.473C34.7862 283.583 29.5162 283.923 25.3162 287.223Z" fill="#1A1A1A"/>
<path d="M36.2363 289.933C36.2363 291.363 37.9663 292.523 40.1063 292.523C42.2463 292.523 43.9763 291.363 43.9763 289.933C43.9763 288.503 42.2463 287.333 40.1063 287.333C37.9663 287.333 36.2363 288.493 36.2363 289.933Z" fill="#1A1A1A"/>
<path d="M24.7264 301.013C24.7323 301.667 24.9316 302.304 25.2994 302.844C25.6671 303.385 26.1868 303.805 26.7927 304.05C27.3986 304.296 28.0636 304.357 28.7039 304.225C29.3443 304.093 29.9313 303.774 30.3908 303.309C30.8503 302.844 31.1618 302.253 31.2859 301.611C31.4101 300.97 31.3415 300.305 31.0886 299.702C30.8356 299.099 30.4098 298.585 29.8648 298.224C29.3198 297.863 28.6801 297.671 28.0263 297.673C27.5903 297.675 27.1592 297.764 26.7574 297.933C26.3556 298.102 25.9911 298.349 25.6846 298.659C25.3782 298.969 25.1358 299.337 24.9714 299.741C24.807 300.145 24.7237 300.577 24.7264 301.013Z" fill="#1A1A1A"/>
<path d="M32.9463 317.273L40.8363 317.593C40.7235 318.488 40.2646 319.303 39.5581 319.864C38.8515 320.424 37.9534 320.686 37.0563 320.593C32.8263 320.493 32.9463 317.273 32.9463 317.273Z" fill="#EFFAFD"/>
</g>
<path d="M43.5262 354.983C66.9983 354.983 86.0262 335.955 86.0262 312.483C86.0262 289.011 66.9983 269.983 43.5262 269.983C20.0541 269.983 1.02625 289.011 1.02625 312.483C1.02625 335.955 20.0541 354.983 43.5262 354.983Z" stroke="#6349A0" stroke-width="1.5" stroke-miterlimit="10"/>
</g>
<defs>
<clipPath id="clip0">
<rect width="528.28" height="440.78" fill="white" transform="translate(0.276245 0.592773)"/>
</clipPath>
</defs>
</svg>
