<svg width="701" height="691" viewBox="0 0 701 691" fill="none" xmlns="http://www.w3.org/2000/svg">
<path d="M43.7086 514.148C-48.4124 346.31 12.793 135.462 180.413 43.2211C348.032 -49.0202 558.619 12.2432 650.726 180.104C703.234 275.77 705.927 385.413 667.464 479.097C665.041 485 662.748 490.64 660.478 496.098L566.85 384.546C576.508 333.747 573.4 279.727 549.34 235.887C487.989 124.109 347.748 83.2933 236.131 144.732C124.513 206.17 83.7358 346.587 145.094 458.35C183.92 529.094 249.267 570.449 323.761 576.359L396.807 663.361L414.47 686.316C262.199 709.627 115.503 644.953 43.7086 514.148Z" fill="#4E228C" fill-opacity="0.05"/>
<path d="M539.537 685.791L301.433 403.849L397.564 323.435L701 685.893L539.537 685.791Z" fill="#4E228C" fill-opacity="0.05"/>
</svg>