<svg width="423" height="375" viewBox="0 0 423 375" fill="none" xmlns="http://www.w3.org/2000/svg">
<path d="M355.794 349.609L217.003 349.101C214.788 349.093 212.596 348.648 210.553 347.792C208.51 346.936 206.656 345.685 205.097 344.112C203.537 342.538 202.304 340.672 201.466 338.62C200.629 336.569 200.204 334.373 200.217 332.157L201.318 35.1986C201.325 32.9829 201.77 30.7904 202.626 28.7467C203.482 26.7031 204.732 24.8484 206.306 23.2887C207.879 21.729 209.744 20.495 211.795 19.6574C213.846 18.8198 216.042 18.3949 218.257 18.4072L357.047 18.9155C359.262 18.9244 361.453 19.3698 363.496 20.2264C365.538 21.0829 367.392 22.3337 368.951 23.9073C370.51 25.4809 371.744 27.3465 372.582 29.3973C373.42 31.4481 373.845 33.644 373.834 35.8594L372.741 332.843C372.73 335.058 372.283 337.248 371.425 339.289C370.567 341.331 369.315 343.183 367.741 344.74C366.167 346.297 364.302 347.528 362.252 348.364C360.202 349.199 358.007 349.623 355.794 349.609V349.609Z" fill="white" stroke="#6349A0" stroke-miterlimit="10"/>
<path d="M353.888 25.7439L319.29 25.6168V28.582C319.287 29.4287 319.117 30.2664 318.79 31.0473C318.463 31.8282 317.985 32.5371 317.384 33.1334C316.783 33.7297 316.071 34.2018 315.288 34.5227C314.504 34.8436 313.666 35.0071 312.819 35.0037L262.298 34.8174C261.452 34.8152 260.614 34.6462 259.833 34.3201C259.052 33.9941 258.343 33.5173 257.746 32.917C257.149 32.3168 256.676 31.6048 256.354 30.8218C256.032 30.0387 255.868 29.1999 255.87 28.3533V25.3796L221.272 25.2525C219.504 25.2459 217.752 25.5877 216.116 26.2586C214.48 26.9295 212.992 27.9163 211.738 29.1625C210.483 30.4087 209.486 31.89 208.804 33.5217C208.122 35.1534 207.769 36.9035 207.763 38.6721L206.704 328.057C206.698 329.824 207.039 331.576 207.709 333.212C208.379 334.848 209.365 336.336 210.61 337.591C211.855 338.845 213.335 339.843 214.965 340.525C216.595 341.208 218.344 341.563 220.112 341.569L352.719 342.052C356.288 342.064 359.715 340.657 362.248 338.143C364.781 335.628 366.213 332.211 366.228 328.641L367.321 39.2397C367.325 37.4712 366.981 35.7191 366.309 34.0835C365.636 32.448 364.647 30.9611 363.4 29.7078C362.153 28.4545 360.67 27.4593 359.038 26.7792C357.406 26.099 355.656 25.7473 353.888 25.7439V25.7439Z" fill="#F6F5FF" stroke="#6349A0" stroke-miterlimit="10"/>
<path d="M275.878 28.2859L275.878 28.3876C275.876 28.949 276.329 29.4059 276.89 29.4079L301.105 29.4967C301.666 29.4988 302.123 29.0453 302.125 28.4838L302.125 28.3821C302.127 27.8207 301.674 27.3638 301.112 27.3618L276.898 27.273C276.337 27.271 275.88 27.7244 275.878 28.2859Z" fill="#6349A0"/>
<mask id="mask0" style="mask-type:alpha" maskUnits="userSpaceOnUse" x="206" y="24" width="161" height="318">
<path d="M352.491 25.7421L318.221 25.6155V28.5697C318.218 29.4133 318.05 30.2479 317.726 31.026C317.402 31.804 316.929 32.5103 316.334 33.1044C315.739 33.6985 315.033 34.1688 314.257 34.4886C313.481 34.8083 312.65 34.9712 311.812 34.9679L261.771 34.7822C260.932 34.78 260.103 34.6116 259.329 34.2867C258.555 33.9619 257.853 33.4869 257.261 32.8888C256.67 32.2908 256.202 31.5814 255.883 30.8013C255.564 30.0211 255.401 29.1854 255.403 28.3419V25.3792L221.134 25.2525C219.382 25.2459 217.647 25.5865 216.027 26.2549C214.406 26.9233 212.933 27.9064 211.69 29.1481C210.447 30.3897 209.46 31.8655 208.785 33.4912C208.109 35.1169 207.758 36.8607 207.753 38.6227L206.704 326.943C206.698 328.704 207.036 330.449 207.7 332.079C208.364 333.709 209.34 335.191 210.573 336.441C211.806 337.692 213.272 338.685 214.887 339.365C216.502 340.045 218.234 340.399 219.984 340.406L351.333 340.887C354.868 340.898 358.263 339.497 360.772 336.992C363.281 334.486 364.699 331.081 364.714 327.525L365.796 39.1882C365.801 37.4262 365.46 35.6805 364.794 34.051C364.127 32.4215 363.148 30.9401 361.913 29.6914C360.677 28.4427 359.209 27.4512 357.592 26.7736C355.976 26.0959 354.242 25.7454 352.491 25.7421V25.7421Z" fill="#F6F5FF" stroke="#6349A0" stroke-miterlimit="10"/>
</mask>
<g mask="url(#mask0)">
<path d="M221.839 319.737L268.422 324.498C268.422 324.498 270.565 286.307 270.565 268.092C270.565 245.989 268.676 217.523 266.008 218.108C258.521 219.802 248.442 223.97 242.437 232.222C221.645 260.798 221.839 319.737 221.839 319.737Z" fill="#CECEF2"/>
<path d="M244.716 264.195C243.742 270.973 225.837 454.119 225.837 454.119C310.634 495.081 357.42 461.413 357.42 461.413C357.42 461.413 354.642 332.775 357.97 315.272C360.173 303.683 362.917 226.707 355.43 224.555C345.8 221.785 334.755 218.853 322.72 217.599C312.447 216.532 272.538 215.905 265.398 218.311C265.381 218.311 248.823 235.856 244.716 264.195Z" fill="#CECEF2"/>
<path d="M415.936 302.276L375.596 329.387C375.596 329.387 352.855 295.499 340.65 283.494C325.405 268.397 346.223 222.157 356.073 224.775C378.103 230.612 415.936 302.276 415.936 302.276Z" fill="#CECEF2"/>
<path d="M311.422 179.984L317.664 218.108C317.664 218.108 294.796 266.652 281.177 262.56C269.726 259.129 276.773 217.438 276.773 217.438C276.773 217.438 283.015 195.047 281.143 183.847C279.271 172.647 311.422 179.984 311.422 179.984Z" fill="#EEEDF9"/>
<path d="M281.152 183.881C279.28 172.673 311.43 179.984 311.43 179.984L311.947 183.271C311.127 185.304 309.948 187.172 308.466 188.786C301.284 196.199 290.053 200.647 280.347 200.986C281.321 194.946 281.922 188.473 281.152 183.881Z" fill="#EBEAF9"/>
<path d="M316.707 124.001C317.613 123.688 323.991 169.072 311.888 181.56C299.785 194.047 276.222 198.139 267.77 188.337C258.453 177.459 258.885 128.67 277.696 115.826C296.507 102.983 316.707 124.001 316.707 124.001Z" fill="#EEEDF9"/>
<path d="M312.269 106.515C318.875 107.261 327.844 110.751 337.11 125.476C348.501 143.572 340.091 163.599 326.828 173.452C313.565 183.305 313.802 194.556 313.802 194.556L311.65 188.778C310.066 184.347 309.487 179.618 309.957 174.935C310.21 172.062 310.937 169.251 312.108 166.615C315.292 160.041 305.256 155.678 302.436 150.214C300.267 145.978 300.166 136.379 296.744 129.424L292.67 124.112C292.67 124.112 283.261 117.088 274.037 119.071C264.814 121.053 276.188 77.9565 312.269 106.515Z" fill="#B7B7ED"/>
<path d="M303.088 158.287C302.995 163.828 305.629 168.361 308.949 168.454C312.269 168.547 315.064 164.057 315.157 158.525C315.25 152.992 312.616 148.451 309.296 148.358C305.976 148.265 303.189 152.764 303.088 158.287Z" fill="#EBEAF9"/>
<path d="M282.507 170.436L265.983 167.166C265.983 167.166 265.136 173.52 272.343 175.172C281.152 177.171 282.507 170.436 282.507 170.436Z" fill="white"/>
</g>
<path d="M217.003 373.763L60.8755 373.187C58.3864 373.178 55.9233 372.678 53.627 371.717C51.3307 370.756 49.2461 369.352 47.4923 367.585C45.7384 365.818 44.3497 363.723 43.4053 361.42C42.461 359.116 41.9796 356.649 41.9885 354.159L43.2165 20.0677C43.2367 15.0399 45.2517 10.2257 48.8186 6.68316C52.3856 3.14062 57.2127 1.15955 62.2391 1.17531L218.375 1.7514C220.864 1.76028 223.327 2.25959 225.623 3.22075C227.918 4.18191 230.002 5.58607 231.756 7.35309C233.509 9.12012 234.897 11.2154 235.84 13.5191C236.784 15.8228 237.264 18.2899 237.254 20.7794L236.043 354.87C236.034 357.362 235.534 359.827 234.572 362.125C233.611 364.423 232.205 366.509 230.437 368.263C228.669 370.018 226.572 371.407 224.267 372.35C221.962 373.294 219.494 373.774 217.003 373.763V373.763Z" fill="white" stroke="#6349A0" stroke-miterlimit="10"/>
<path d="M214.869 9.42699L175.951 9.28298V12.6209C175.948 13.5733 175.757 14.5156 175.39 15.3942C175.022 16.2728 174.486 17.0704 173.81 17.7414C173.134 18.4125 172.333 18.9438 171.452 19.3052C170.571 19.6666 169.628 19.8508 168.676 19.8475L111.837 19.6357C110.884 19.6334 109.942 19.4434 109.063 19.0762C108.184 18.7091 107.386 18.1721 106.715 17.4961C106.044 16.8201 105.513 16.0184 105.152 15.1368C104.791 14.2551 104.608 13.311 104.612 12.3583V9.02035L65.6947 8.87629C63.7039 8.86849 61.7311 9.25343 59.8892 10.0091C58.0472 10.7647 56.3723 11.8762 54.9603 13.28C53.5482 14.6838 52.4268 16.3523 51.66 18.1901C50.8933 20.0279 50.4963 21.9989 50.4919 23.9903L49.2977 349.541C49.2842 353.557 50.8656 357.414 53.6942 360.265C56.5228 363.115 60.3671 364.724 64.382 364.74L213.565 365.282C215.556 365.29 217.529 364.905 219.371 364.149C221.213 363.392 222.888 362.28 224.299 360.875C225.711 359.47 226.831 357.801 227.596 355.962C228.362 354.123 228.757 352.152 228.759 350.16L229.953 24.6172C229.964 20.6026 228.382 16.7478 225.554 13.8996C222.725 11.0513 218.882 9.44269 214.869 9.42699V9.42699Z" fill="#F6F5FF" stroke="#6349A0" stroke-miterlimit="10"/>
<path d="M127.105 12.2931L127.105 12.4032C127.102 13.0348 127.612 13.5488 128.244 13.5511L155.482 13.6509C156.113 13.6533 156.627 13.1431 156.629 12.5114L156.63 12.4013C156.632 11.7696 156.122 11.2557 155.49 11.2534L128.253 11.1535C127.621 11.1512 127.107 11.6614 127.105 12.2931Z" fill="#6349A0"/>
<path d="M286.835 321.77C293.07 321.77 298.125 316.714 298.125 310.477C298.125 304.24 293.07 299.184 286.835 299.184C280.599 299.184 275.545 304.24 275.545 310.477C275.545 316.714 280.599 321.77 286.835 321.77Z" fill="#766BC9"/>
<path d="M292.467 312.231C292.526 312.17 292.56 312.088 292.56 312.002V311.333C292.508 310.803 292.326 310.294 292.031 309.85C291.735 309.407 291.335 309.043 290.866 308.791C289.652 308.029 288.247 307.624 286.814 307.624C285.38 307.624 283.975 308.029 282.761 308.791C282.292 309.044 281.892 309.408 281.597 309.851C281.302 310.294 281.12 310.803 281.067 311.333V312.002C281.066 312.044 281.073 312.086 281.088 312.125C281.104 312.164 281.126 312.199 281.156 312.229C281.185 312.259 281.22 312.283 281.258 312.3C281.297 312.316 281.338 312.324 281.38 312.324H283.311C283.352 312.324 283.393 312.316 283.431 312.3C283.469 312.284 283.503 312.261 283.532 312.231C283.591 312.17 283.624 312.088 283.625 312.002V311.333C283.636 310.991 283.731 310.658 283.903 310.362C284.074 310.066 284.316 309.818 284.607 309.639C285.261 309.229 286.017 309.012 286.788 309.012C287.56 309.012 288.315 309.229 288.969 309.639C289.26 309.818 289.502 310.066 289.674 310.362C289.845 310.658 289.941 310.991 289.951 311.333V312.002C289.951 312.088 289.985 312.17 290.046 312.23C290.106 312.29 290.188 312.324 290.273 312.324H292.196C292.281 312.324 292.363 312.29 292.425 312.231H292.467ZM281.457 308.842C281.713 308.573 281.997 308.332 282.303 308.122C283.657 307.281 285.22 306.835 286.814 306.835C288.407 306.835 289.97 307.281 291.324 308.122C291.897 308.479 292.395 308.945 292.789 309.495C293.151 310.031 293.348 310.661 293.356 311.308V311.977C293.357 312.126 293.329 312.274 293.272 312.413C293.216 312.551 293.132 312.676 293.026 312.782C292.921 312.888 292.795 312.971 292.657 313.028C292.519 313.085 292.371 313.113 292.221 313.112H290.299C290.149 313.113 290.001 313.085 289.863 313.028C289.725 312.971 289.599 312.888 289.494 312.782C289.388 312.676 289.305 312.551 289.248 312.413C289.191 312.274 289.163 312.126 289.164 311.977V311.308C289.145 311.11 289.079 310.92 288.974 310.752C288.868 310.585 288.724 310.444 288.554 310.342C288.044 310.029 287.458 309.864 286.86 309.864C286.262 309.864 285.676 310.029 285.166 310.342C284.986 310.445 284.834 310.591 284.723 310.767C284.612 310.942 284.546 311.143 284.531 311.35V312.019C284.539 312.176 284.514 312.332 284.457 312.478C284.4 312.625 284.313 312.757 284.201 312.866C283.99 313.078 283.703 313.197 283.405 313.197H281.473C281.172 313.197 280.884 313.077 280.671 312.864C280.458 312.651 280.339 312.363 280.339 312.062V311.392C280.347 310.745 280.544 310.115 280.906 309.579C281.079 309.323 281.278 309.084 281.499 308.868L281.457 308.842Z" fill="white"/>
<path d="M74.4777 51.8968H6.79747C3.78509 51.8968 1.34308 54.3395 1.34308 57.3527V83.0905C1.34308 86.1037 3.78509 88.5464 6.79747 88.5464H74.4777C77.49 88.5464 79.9321 86.1037 79.9321 83.0905V57.3527C79.9321 54.3395 77.49 51.8968 74.4777 51.8968Z" fill="white" stroke="#6349A0" stroke-miterlimit="10"/>
<path d="M71.183 60.9194H10.0837V61.648H71.183V60.9194Z" fill="#DFDFFB"/>
<path d="M71.183 69.8573H10.0837V70.5859H71.183V69.8573Z" fill="#DFDFFB"/>
<path d="M71.183 78.7952H10.0837V79.5238H71.183V78.7952Z" fill="#DFDFFB"/>
<path d="M11.1085 79.5916L10.5325 79.1426L14.8859 73.6443L22.3814 76.2028L28.8352 69.1965L35.3991 74.483L43.1064 65.8586L50.0938 73.9238L56.3359 57.7594L62.8151 67.9427L70.3445 57.0816L70.9458 57.4968L62.7896 69.2643L56.4968 59.3691L50.3394 75.3217L43.0979 66.9684L35.4838 75.4912L28.9115 70.1962L22.6016 77.05L15.14 74.5084L11.1085 79.5916Z" fill="#4F57C7"/>
<mask id="mask1" style="mask-type:alpha" maskUnits="userSpaceOnUse" x="48" y="8" width="183" height="358">
<path d="M214.869 9.42697L175.951 9.28296V12.6209C175.948 13.5733 175.757 14.5156 175.39 15.3942C175.022 16.2728 174.486 17.0704 173.81 17.7414C173.134 18.4125 172.333 18.9438 171.452 19.3052C170.571 19.6665 169.628 19.8508 168.676 19.8474L111.837 19.6356C110.884 19.6334 109.942 19.4433 109.063 19.0762C108.184 18.7091 107.386 18.1721 106.715 17.4961C106.044 16.8201 105.513 16.0184 105.152 15.1367C104.791 14.2551 104.608 13.3109 104.612 12.3583V9.02034L65.6947 8.87628C63.7039 8.86847 61.7311 9.25342 59.8892 10.0091C58.0472 10.7647 56.3723 11.8762 54.9603 13.28C53.5482 14.6838 52.4268 16.3523 51.66 18.1901C50.8933 20.0279 50.4963 21.9989 50.4919 23.9902L49.2977 349.541C49.2842 353.557 50.8656 357.414 53.6942 360.264C56.5228 363.115 60.3671 364.724 64.382 364.74L213.565 365.282C215.556 365.29 217.529 364.905 219.371 364.149C221.213 363.392 222.888 362.28 224.299 360.875C225.711 359.47 226.831 357.801 227.596 355.962C228.362 354.123 228.757 352.152 228.759 350.16L229.953 24.6172C229.964 20.6026 228.382 16.7478 225.554 13.8996C222.725 11.0513 218.882 9.44267 214.869 9.42697V9.42697Z" fill="#F6F5FF" stroke="#6349A0" stroke-miterlimit="10"/>
</mask>
<g mask="url(#mask1)">
<path d="M210.033 136.413C209.609 135.566 209.364 135.134 209.364 135.134V134.786C208.144 131.753 206.823 128.737 205.324 125.747C195.558 105.939 171.446 94.7055 149.365 94.6801C142.702 94.6309 136.066 95.5323 129.657 97.3572C120.637 101.415 98.5735 115.453 92.8396 157.271C90.854 171.756 93.6525 186.493 100.809 199.241C94.8808 202.968 87.0719 210.534 81.4227 225.792C71.0475 253.817 19.1461 260.052 13.9627 297.422C8.77934 334.792 62.7388 402.279 119.832 358.683C163.289 325.49 156.251 262.221 150.373 233.899C163.925 235.763 178.492 233.205 192.484 224.75C210.27 213.99 217.528 199.461 219.459 185.245C219.152 168.546 215.963 152.026 210.033 136.413V136.413Z" fill="black"/>
<path d="M159.3 234.094C123.931 234.094 98.7345 202.062 97.6758 200.706C97.1707 200.052 96.9459 199.225 97.0507 198.405C97.1555 197.585 97.5814 196.841 98.2348 196.335C98.5573 196.085 98.926 195.9 99.3197 195.792C99.7135 195.684 100.125 195.655 100.53 195.706C100.935 195.758 101.326 195.888 101.68 196.09C102.035 196.293 102.346 196.563 102.597 196.885V196.885C102.842 197.199 127.023 227.867 159.343 227.867C159.751 227.866 160.157 227.946 160.535 228.102C160.913 228.257 161.256 228.486 161.546 228.775C161.835 229.064 162.065 229.407 162.222 229.785C162.379 230.163 162.459 230.568 162.459 230.977C162.459 231.39 162.377 231.798 162.218 232.18C162.059 232.561 161.825 232.906 161.532 233.196C161.238 233.486 160.889 233.715 160.506 233.869C160.123 234.023 159.713 234.1 159.3 234.094V234.094Z" fill="#EC665A"/>
<path d="M220.984 310.138C201.877 252.165 180.516 254.63 180.516 254.63L197.032 376.516C208.839 373.288 224.194 366.104 235.992 362.775C232.079 344.45 225.693 324.414 220.984 310.138Z" fill="#4C3C99"/>
<path d="M131.613 244.261C131.613 244.261 96.4138 242.007 82.4898 257.231C68.5659 272.455 113.378 392.833 115.911 412.2C118.443 431.567 103.003 483.068 103.003 483.068C103.003 483.068 185.7 499.715 209.33 484.017C209.33 484.017 211.871 344.746 209.33 330.903C206.789 317.06 185.7 260.823 180.635 255.274C175.57 249.725 131.613 244.261 131.613 244.261Z" fill="#5E4C9A"/>
<path d="M143.335 197.063C143.335 197.063 143.157 198.105 142.827 199.876C141.26 208.348 135.204 236.509 131.13 244.244C126.193 253.563 148.019 283.418 169.032 279.826C175.282 278.741 163.747 252.419 164.297 249.632C165.364 244.294 166.796 237.009 168.269 229.545C169.116 225.309 169.963 221.073 170.734 217.049C172.987 205.646 174.816 196.318 174.816 196.318L143.335 197.063Z" fill="#F5BD9B"/>
<path d="M142.827 199.876C143.157 198.106 143.335 197.064 143.335 197.064L174.816 196.276C174.816 196.276 172.987 205.595 170.734 217.006C169.946 220.997 169.116 225.25 168.286 229.435C163.425 228.715 158.352 226.351 153.253 221.878C148.051 217.315 144.128 211.475 141.87 204.934C142.259 202.909 142.581 201.189 142.827 199.876Z" fill="#E47B60"/>
<path d="M164.526 125.323C164.526 125.323 149.687 123.629 140.388 135.667C131.088 147.706 121.06 185.025 144.165 205.298C167.27 225.572 190.095 202.621 193.483 178.29C196.871 153.958 198.184 124.45 164.526 125.323Z" fill="#F5BD9B"/>
<path d="M200.318 177.925C197.557 183.305 192.933 186.279 189.977 184.576C187.021 182.873 186.869 177.137 189.63 171.758C192.391 166.378 197.015 163.413 199.962 165.116C202.91 166.819 203.079 172.554 200.318 177.925Z" fill="#F5BD9B"/>
<path d="M135.899 167.352C137.051 173.655 134.73 179.433 130.715 180.255C126.701 181.077 122.508 176.646 121.399 170.351C120.289 164.057 122.568 158.279 126.582 157.449C130.597 156.618 134.747 161.058 135.899 167.352Z" fill="#F5BD9B"/>
<path d="M124.49 378.397C124.49 378.397 140.65 307.122 136.221 284.731C131.791 262.34 103.689 242.939 85.5812 251.868C67.4733 260.798 76.9931 366.739 76.9931 366.739L124.49 378.397Z" fill="#4C3C99"/>
<path d="M330.902 262.899C329.149 259.188 313.514 270.176 310.05 268.084C306.586 265.991 324.05 248.378 322.271 245.303C318.985 239.635 301.944 263.416 300.25 260.9C298.557 258.383 314.928 232.993 309.084 231.595C303.24 230.197 294.923 259.722 291.942 257.816C288.961 255.91 302.198 231.087 296.541 226.029C293.526 223.318 279.28 271.337 274.113 273.336C268.947 275.336 263.103 254.359 258.258 255.189C253.414 256.02 274.207 293.745 273.19 296.702C272.174 299.659 253.109 361.241 241.853 379.846C235.077 376.609 228.488 373.356 222.204 370.179C219.663 384.471 212.887 398.001 209.584 412.022C231.418 421.621 257.386 430.093 263.721 427.754C283.032 420.646 292.518 326.938 295.652 309.418C298.785 291.898 307.009 288.484 311.744 279.292C316.478 270.1 332.672 266.644 330.902 262.899Z" fill="#EBA694"/>
<path d="M174.943 188.007L149.535 186.152C149.535 186.152 149.416 195.86 160.545 196.996C174.164 198.394 174.943 188.007 174.943 188.007Z" fill="#EFFAFD"/>
</g>
<mask id="mask2" style="mask-type:alpha" maskUnits="userSpaceOnUse" x="146" y="42" width="61" height="76">
<path d="M195.453 42.7805H158.186C152.105 42.7805 147.176 47.7287 147.176 53.8326V105.752C147.176 111.856 152.105 116.804 158.186 116.804H195.453C201.534 116.804 206.463 111.856 206.463 105.752V53.8326C206.463 47.7287 201.534 42.7805 195.453 42.7805Z" fill="#F6F5FF" stroke="#6349A0" stroke-miterlimit="10"/>
</mask>
<g mask="url(#mask2)">
<path d="M195.922 42.1964H157.708C151.473 42.1964 146.418 47.2525 146.418 53.4895V106.541C146.418 112.778 151.473 117.834 157.708 117.834H195.922C202.158 117.834 207.212 112.778 207.212 106.541V53.4895C207.212 47.2525 202.158 42.1964 195.922 42.1964Z" fill="#F6F5FF" stroke="#6349A0" stroke-miterlimit="10"/>
<path d="M148.976 132.431L165.991 134.125C165.991 134.125 166.77 120.172 166.77 113.522C166.77 105.448 166.084 95.0444 165.076 95.2731C162.341 95.9 158.656 97.408 156.463 100.424C148.908 110.853 148.976 132.431 148.976 132.431Z" fill="#FFA03E"/>
<path d="M157.335 112.098C156.979 114.555 150.441 181.484 150.441 181.484C181.414 196.445 198.506 184.144 198.506 184.144C198.506 184.144 197.498 137.15 198.709 130.771C199.556 126.535 200.513 98.4247 197.777 97.6368C193.878 96.4343 189.878 95.5837 185.827 95.0952C182.075 94.7055 167.49 94.4768 164.882 95.3578C160.843 100.118 158.228 105.92 157.335 112.098V112.098Z" fill="#FFA03E"/>
<path d="M219.883 126.009L205.146 135.905C205.146 135.905 196.837 123.544 192.382 119.139C186.792 113.623 194.415 96.7388 198.014 97.6876C206.069 99.831 219.883 126.009 219.883 126.009Z" fill="#FFA03E"/>
<path d="M181.711 81.3368L183.989 95.2731C183.989 95.2731 175.646 113.005 170.658 111.514C166.474 110.26 169.049 95.0274 169.049 95.0274C169.049 95.0274 171.327 86.852 170.649 82.7601C169.972 78.6681 181.711 81.3368 181.711 81.3368Z" fill="#F5BD9B"/>
<path d="M170.649 82.7601C169.963 78.6596 181.711 81.3368 181.711 81.3368L181.897 82.5313C181.598 83.2742 181.167 83.9572 180.626 84.5476C177.864 87.2428 174.208 88.8287 170.353 89.0039C170.757 86.9484 170.857 84.8446 170.649 82.7601V82.7601Z" fill="#E47B60"/>
<path d="M183.633 60.8855C183.963 60.7669 186.293 77.3465 181.871 81.9129C177.45 86.4793 168.845 87.9619 165.779 84.3698C162.392 80.3964 162.536 62.5799 169.404 57.8865C176.273 53.193 183.633 60.8855 183.633 60.8855Z" fill="#F5BD9B"/>
<path d="M182.016 54.4892C184.429 54.7688 187.707 56.048 191.086 61.4193C195.253 68.0358 192.179 75.3556 187.334 78.9477C182.49 82.5398 182.575 86.6826 182.575 86.6826L181.787 84.5731C181.205 82.946 180.999 81.208 181.185 79.4899C181.274 78.4398 181.537 77.4118 181.965 76.4485C183.133 74.0509 179.466 72.4582 178.433 70.4588C177.645 68.9169 177.586 65.3756 176.358 62.8341L174.867 60.894C174.867 60.894 171.429 58.3524 168.092 59.0556C164.755 59.7588 168.828 44.0603 182.016 54.4892Z" fill="#1A1A1A"/>
<path d="M178.662 73.407C178.662 75.4318 179.585 77.0838 180.804 77.1093C182.024 77.1347 183.032 75.508 183.066 73.4832C183.1 71.4585 182.143 69.798 180.931 69.781C179.72 69.7641 178.695 71.3822 178.662 73.407Z" fill="#F5BD9B"/>
<path d="M171.141 77.8463L165.102 76.6433C165.037 77.3386 165.244 78.0318 165.68 78.5771C166.116 79.1223 166.747 79.4769 167.439 79.5661C170.641 80.3116 171.141 77.8463 171.141 77.8463Z" fill="#EFFAFD"/>
</g>
<path d="M195.923 42.1964H157.708C151.473 42.1964 146.418 47.2525 146.418 53.4895V106.541C146.418 112.778 151.473 117.834 157.708 117.834H195.923C202.158 117.834 207.212 112.778 207.212 106.541V53.4895C207.212 47.2525 202.158 42.1964 195.923 42.1964Z" stroke="#6349A0" stroke-miterlimit="10"/>
<path d="M138.694 345.932C146.833 345.932 153.431 339.333 153.431 331.191C153.431 323.05 146.833 316.45 138.694 316.45C130.555 316.45 123.957 323.05 123.957 331.191C123.957 339.333 130.555 345.932 138.694 345.932Z" fill="#EC665A"/>
<path d="M146.045 333.47C146.083 333.432 146.113 333.387 146.133 333.338C146.154 333.288 146.164 333.236 146.164 333.182V332.335C146.104 331.639 145.874 330.968 145.493 330.383C145.111 329.798 144.591 329.316 143.979 328.98C142.395 327.98 140.558 327.457 138.685 327.472C136.813 327.458 134.976 327.981 133.392 328.98C132.783 329.315 132.266 329.795 131.887 330.377C131.507 330.959 131.276 331.626 131.215 332.318V333.165C131.215 333.275 131.259 333.381 131.337 333.459C131.415 333.537 131.52 333.58 131.63 333.58H134.171C134.225 333.581 134.279 333.57 134.329 333.548C134.378 333.526 134.423 333.494 134.459 333.453C134.497 333.415 134.527 333.37 134.547 333.321C134.567 333.272 134.578 333.219 134.578 333.165V332.318C134.595 331.874 134.721 331.442 134.946 331.059C135.171 330.676 135.486 330.355 135.865 330.124C136.706 329.561 137.698 329.266 138.711 329.277C139.726 329.264 140.721 329.56 141.565 330.124C141.942 330.357 142.255 330.679 142.478 331.061C142.701 331.444 142.827 331.875 142.844 332.318V333.165C142.843 333.219 142.854 333.273 142.876 333.323C142.898 333.373 142.93 333.417 142.971 333.453C143.007 333.494 143.051 333.526 143.101 333.548C143.151 333.57 143.205 333.581 143.259 333.58H145.8C145.855 333.58 145.91 333.569 145.961 333.547C146.012 333.525 146.058 333.493 146.096 333.453L146.045 333.47ZM131.647 329.005C131.997 328.655 132.384 328.343 132.799 328.074C134.554 326.954 136.595 326.366 138.677 326.379C140.776 326.357 142.836 326.945 144.606 328.074C145.362 328.56 146.013 329.194 146.52 329.937C146.995 330.635 147.254 331.457 147.265 332.301V333.148C147.266 333.343 147.228 333.536 147.154 333.717C147.08 333.897 146.971 334.061 146.833 334.199C146.695 334.337 146.531 334.446 146.351 334.52C146.171 334.594 145.978 334.632 145.783 334.631H143.242C143.047 334.632 142.854 334.594 142.674 334.52C142.493 334.446 142.329 334.337 142.192 334.199C142.054 334.061 141.945 333.897 141.87 333.717C141.796 333.536 141.759 333.343 141.76 333.148V332.301C141.739 332.029 141.651 331.766 141.503 331.537C141.355 331.307 141.152 331.119 140.913 330.988C140.246 330.554 139.464 330.332 138.668 330.352C137.876 330.331 137.095 330.553 136.432 330.988C136.196 331.123 135.996 331.312 135.849 331.541C135.701 331.769 135.611 332.03 135.585 332.301V333.148C135.586 333.343 135.549 333.536 135.475 333.717C135.401 333.897 135.291 334.061 135.153 334.199C135.017 334.336 134.855 334.445 134.676 334.519C134.497 334.593 134.305 334.631 134.112 334.631H131.571C131.204 334.61 130.858 334.454 130.6 334.193C130.342 333.931 130.19 333.583 130.173 333.216V332.369C130.181 331.524 130.44 330.701 130.919 330.005C131.138 329.668 131.394 329.355 131.681 329.073L131.647 329.005Z" fill="white"/>
<path d="M320.916 244.447C337.669 244.447 337.669 263.594 354.413 263.594C371.157 263.594 371.166 244.447 387.91 244.447C404.655 244.447 404.663 263.594 421.416 263.594" stroke="#FFA03E" stroke-width="3" stroke-linecap="round" stroke-linejoin="round"/>
<path d="M320.916 263.594C337.669 263.594 337.669 244.447 354.413 244.447C371.157 244.447 371.166 263.594 387.91 263.594C404.655 263.594 404.663 244.447 421.416 244.447" stroke="#EC665A" stroke-width="3" stroke-linecap="round" stroke-linejoin="round"/>
<mask id="mask3" style="mask-type:alpha" maskUnits="userSpaceOnUse" x="7" y="164" width="62" height="76">
<path d="M55.8361 164.142H19.5018C12.7473 164.142 7.27173 169.619 7.27173 176.375V227.545C7.27173 234.302 12.7473 239.779 19.5018 239.779H55.8361C62.5906 239.779 68.0662 234.302 68.0662 227.545V176.375C68.0662 169.619 62.5906 164.142 55.8361 164.142Z" fill="#C4C4C4"/>
</mask>
<g mask="url(#mask3)">
<path d="M56.7762 164.142H18.5616C12.3264 164.142 7.27173 169.198 7.27173 175.435V228.486C7.27173 234.723 12.3264 239.779 18.5616 239.779H56.7762C63.0115 239.779 68.0662 234.723 68.0662 228.486V175.435C68.0662 169.198 63.0115 164.142 56.7762 164.142Z" fill="#F6F5FF" stroke="#6349A0" stroke-miterlimit="10"/>
<path d="M11.2609 251.284L27.4208 252.978C27.4208 252.978 28.1661 239.728 28.1661 233.408C28.1661 225.741 27.5139 215.863 26.5823 216.075C23.9906 216.668 20.4842 218.108 18.4007 220.971C11.1931 230.833 11.2609 251.284 11.2609 251.284Z" fill="#F7A09C"/>
<path d="M58.0975 255.156C58.1248 253.342 58.2577 251.532 58.4956 249.733C59.2578 245.718 60.1895 219.006 57.6063 218.26C53.9024 217.12 50.1043 216.312 46.2571 215.846C42.6998 215.473 28.8521 215.261 26.3706 216.091C22.5347 220.619 20.0515 226.136 19.2053 232.01C19.0698 232.917 18.0535 243.083 16.8593 255.156H58.0975Z" fill="#EC665A"/>
<path d="M78.6108 245.226L64.6106 254.622C64.6106 254.622 56.7254 242.88 52.4907 238.703C47.1803 233.467 54.4217 217.422 57.835 218.37C65.483 220.361 78.6108 245.226 78.6108 245.226Z" fill="#F7A09C"/>
<path d="M33.6205 174.977C33.6205 174.977 38.4227 169.894 42.2764 176.07C43.1307 175.601 44.1313 175.475 45.075 175.718C46.0188 175.96 46.835 176.552 47.3581 177.375C47.3581 177.375 52.7278 175.757 54.0321 183.788C54.0321 183.788 56.7932 183.263 57.1574 186.55C57.3889 188.471 56.9263 190.412 55.8531 192.023C55.8531 192.023 57.4115 193.192 56.7 196.208C56.5774 196.909 56.256 197.561 55.7741 198.085C55.2921 198.609 54.6699 198.984 53.9813 199.165C53.9813 199.165 53.4054 203.494 51.5251 204.798C50.1878 205.578 48.6046 205.82 47.0956 205.476C47.0956 205.476 46.418 207.823 44.2328 207.619C42.0477 207.416 39.329 205.324 36.8813 206.264C34.4336 207.204 28.0729 206.205 28.0729 206.205C28.0729 206.205 20.9331 203.028 23.0674 195.725C23.0674 195.725 19.3154 192.336 22.5931 188.27C22.5931 188.27 20.1963 181.907 24.9392 178.154C29.6822 174.401 33.6205 174.977 33.6205 174.977Z" fill="#1A1A1A"/>
<path d="M34.3912 209.314L33.5442 215.753C33.5442 215.753 31.6047 225.072 34.1032 226.825C36.6018 228.579 44.7495 215.49 44.7495 215.49L43.9025 199.165L34.3912 209.314Z" fill="#F5BD9B"/>
<path d="M44.1397 204.443C42.0731 210.009 37.1523 213.431 33.6544 214.761L34.3912 209.297L43.8602 199.131L44.1397 204.443Z" fill="#E47B60"/>
<path d="M57.1743 188.075C57.1743 190.557 55.7599 192.573 54.0152 192.573C52.2704 192.573 50.8645 190.557 50.8645 188.075C50.8645 185.593 52.2789 183.568 54.0152 183.568C55.7514 183.568 57.1743 185.584 57.1743 188.075Z" fill="#1A1A1A"/>
<path d="M43.8602 180.975C45.9838 180.975 47.7054 179.818 47.7054 178.391C47.7054 176.964 45.9838 175.807 43.8602 175.807C41.7366 175.807 40.015 176.964 40.015 178.391C40.015 179.818 41.7366 180.975 43.8602 180.975Z" fill="#1A1A1A"/>
<path d="M38.0755 182.017C36.8845 181.614 35.6197 181.477 34.3701 181.616C33.1205 181.755 31.9165 182.166 30.8427 182.82C29.7689 183.474 28.8515 184.355 28.1549 185.402C27.4584 186.449 26.9996 187.636 26.811 188.88C26.4085 191.616 26.1765 194.375 26.1165 197.14C25.981 204.663 29.877 211.991 33.2902 211.991C36.7034 211.991 46.147 207.12 46.4857 196.437C46.6975 189.837 43.4028 183.847 38.0755 182.017Z" fill="#F5BD9B"/>
<path d="M43.9703 197.284C43.9703 198.978 45.0713 200.283 46.4264 200.283C47.7816 200.283 48.8826 198.944 48.8826 197.284C48.8826 195.623 47.7816 194.276 46.4264 194.276C45.0713 194.276 43.9703 195.623 43.9703 197.284Z" fill="#F5BD9B"/>
<path d="M23.2792 178.273C19.7474 181.068 18.5108 185.313 20.5181 187.761C22.5254 190.21 27.0058 189.922 30.5291 187.126C34.0525 184.33 35.2975 180.077 33.2987 177.637C31.2998 175.197 26.8449 175.477 23.2792 178.273Z" fill="#1A1A1A"/>
<path d="M32.5025 180.56C32.5025 181.78 33.9677 182.763 35.7802 182.763C37.5927 182.763 39.0579 181.78 39.0579 180.56C39.0579 179.34 37.5927 178.366 35.7802 178.366C33.9677 178.366 32.5025 179.349 32.5025 180.56Z" fill="#1A1A1A"/>
<path d="M22.7541 189.913C22.7518 190.282 22.8224 190.649 22.9616 190.991C23.1009 191.333 23.3061 191.644 23.5657 191.907C23.8252 192.17 24.1339 192.379 24.4743 192.522C24.8146 192.666 25.1798 192.741 25.549 192.743C25.919 192.742 26.2851 192.668 26.6264 192.525C26.9677 192.382 27.2774 192.173 27.5379 191.91C27.7983 191.647 28.0043 191.335 28.1441 190.993C28.2839 190.65 28.3547 190.283 28.3525 189.913C28.3547 189.166 28.0609 188.449 27.5354 187.919C27.0099 187.388 26.2956 187.088 25.549 187.084C25.1798 187.086 24.8146 187.161 24.4743 187.304C24.1339 187.448 23.8252 187.657 23.5657 187.919C23.3061 188.182 23.1009 188.493 22.9616 188.836C22.8224 189.178 22.7518 189.544 22.7541 189.913V189.913Z" fill="#1A1A1A"/>
<path d="M29.7161 203.731L36.3985 203.993C36.3009 204.751 35.9118 205.44 35.3139 205.915C34.716 206.389 33.9565 206.612 33.197 206.535C29.6144 206.459 29.7161 203.731 29.7161 203.731Z" fill="#EFFAFD"/>
</g>
<path d="M55.8361 164.142H19.5018C12.7473 164.142 7.27173 169.619 7.27173 176.375V227.545C7.27173 234.302 12.7473 239.779 19.5018 239.779H55.8361C62.5906 239.779 68.0662 234.302 68.0662 227.545V176.375C68.0662 169.619 62.5906 164.142 55.8361 164.142Z" stroke="#6349A0" stroke-miterlimit="10"/>
<path d="M345.808 185.008H384.023C390.258 185.008 395.313 179.952 395.313 173.715V120.664C395.313 114.427 390.258 109.37 384.023 109.37H345.808C339.573 109.37 334.518 114.427 334.518 120.664V173.715C334.518 179.952 339.573 185.008 345.808 185.008Z" fill="#F6F5FF" stroke="#6349A0" stroke-miterlimit="10"/>
<mask id="mask4" style="mask-type:alpha" maskUnits="userSpaceOnUse" x="334" y="109" width="62" height="76">
<path d="M346.336 183.944H383.669C389.761 183.944 394.699 179.01 394.699 172.924V121.153C394.699 115.066 389.761 110.132 383.669 110.132H346.336C340.244 110.132 335.306 115.066 335.306 121.153V172.924C335.306 179.01 340.244 183.944 346.336 183.944Z" fill="#F6F5FF" stroke="#6349A0" stroke-miterlimit="10"/>
</mask>
<g mask="url(#mask4)">
<path d="M347.265 143.538C347.307 137.862 348.763 132.286 351.5 127.314C353.964 122.951 359.495 120.748 364.382 121.07C379.915 122.078 380.516 142.733 389.875 151.298C392.738 153.924 395.982 156.119 398.658 158.923C408.568 169.259 402.63 186.762 392.382 194.564C385.268 199.969 374.486 202.596 366.499 197.462C362.332 194.785 359.317 190.591 357.267 186.084C354.354 179.687 352.694 172.41 350.771 165.666C348.688 158.482 347.079 151.069 347.265 143.538Z" fill="black"/>
<path d="M370.175 161.71C370.175 161.71 384.192 163.193 387.91 167.115L378.806 216.49C378.806 216.49 361.519 219.031 350.483 215.27C350.483 215.27 344.284 175.689 349.874 165.988C351.737 162.761 360.232 162.6 360.232 162.6L370.175 161.71Z" fill="#F9C941"/>
<path d="M303.909 141.191C304.426 140.098 309.033 143.343 310.058 142.724C311.083 142.106 305.925 136.913 306.45 136.006C307.424 134.312 312.447 141.344 312.938 140.606C313.429 139.869 308.61 132.38 310.329 131.965C312.049 131.55 314.522 140.251 315.411 139.691C316.3 139.132 312.387 131.813 314.056 130.313C314.945 129.517 319.138 143.673 320.671 144.266C322.204 144.859 323.914 138.675 325.346 138.912C326.777 139.149 320.645 150.281 320.942 151.154C321.238 152.027 326.87 170.182 330.182 175.663C332.172 174.715 334.12 173.749 335.975 172.817C336.72 177.053 338.44 180.704 339.414 184.838C332.977 187.668 325.6 190.481 323.728 189.795C318.037 187.693 315.259 160.058 314.318 154.899C313.378 149.739 310.973 148.731 309.584 146.02C308.195 143.309 303.393 142.292 303.909 141.191Z" fill="#F5BD9B"/>
<path d="M352.753 164.158L361.028 174.079C361.028 174.079 349.171 182.077 338.49 186.787C337.516 182.653 335.103 176.172 334.357 171.953C340.334 169.003 346.476 166.4 352.753 164.158V164.158Z" fill="#F9C941"/>
<path d="M428.708 140.174C428.191 139.082 423.584 142.318 422.559 141.708C421.534 141.098 426.684 135.896 426.159 134.99C425.193 133.295 420.171 140.327 419.68 139.59C419.188 138.853 424.008 131.355 422.288 130.948C420.569 130.542 418.096 139.234 417.206 138.675C416.317 138.116 420.23 130.796 418.562 129.296C417.672 128.5 413.48 142.657 411.947 143.25C410.414 143.843 408.703 137.65 407.272 137.895C405.84 138.141 411.972 149.265 411.676 150.137C411.379 151.01 405.747 169.165 402.436 174.647C400.445 173.698 398.497 172.732 396.642 171.8C395.897 176.036 393.898 180.001 392.924 184.135C399.361 186.965 407.018 189.464 408.889 188.769C414.581 186.677 417.359 159.041 418.299 153.882C419.239 148.723 421.645 147.714 423.034 145.003C424.423 142.292 429.225 141.267 428.708 140.174Z" fill="#F5BD9B"/>
<path d="M379.178 163.294L377.688 185.745C377.688 185.745 383.455 181.06 394.127 185.745C395.109 181.602 397.515 175.121 398.269 170.911C392.098 167.913 385.718 165.367 379.178 163.294V163.294Z" fill="#F9C941"/>
<path d="M369.481 147.121C369.481 147.121 369.481 147.435 369.582 147.969C369.879 150.51 371.141 159.084 372.208 161.481C373.512 164.379 366.347 172.876 360.105 171.368C358.25 170.919 362.239 163.269 362.129 162.422L361.333 156.33C361.172 155.051 361.003 153.789 360.842 152.535C360.393 149.078 359.995 146.249 359.995 146.249L369.481 147.121Z" fill="#F5BD9B"/>
<path d="M369.862 150.019L369.769 149.172L360.316 148.324C360.316 148.324 360.681 151.154 361.163 154.611C361.316 155.822 361.485 157.152 361.655 158.381C363.368 158.192 364.989 157.509 366.321 156.415C367.988 155.146 369.298 153.468 370.124 151.544C369.997 150.925 369.862 150.417 369.862 150.019Z" fill="#E47B60"/>
<path d="M364.373 125.442C365.832 125.427 367.272 125.764 368.573 126.425C369.873 127.086 370.995 128.05 371.844 129.237C374.562 133.261 376.925 145.334 369.167 151.264C361.409 157.195 354.583 149.443 354.015 141.64C353.448 133.837 353.659 124.45 364.373 125.442Z" fill="#F5BD9B"/>
<path d="M351.847 141.386C352.609 143.148 354.024 144.19 354.998 143.716C355.972 143.241 356.149 141.42 355.387 139.649C354.625 137.878 353.202 136.845 352.228 137.319C351.254 137.794 351.076 139.615 351.847 141.386Z" fill="#F5BD9B"/>
<path d="M363.933 124.137C363.933 124.137 369.498 135.82 373.986 136.667C378.475 137.514 378.662 143.512 378.662 143.512C378.662 143.512 377.967 129.618 373.665 126.662C369.362 123.705 363.933 124.137 363.933 124.137Z" fill="black"/>
<path d="M372.606 139.395C372.106 141.369 372.724 143.25 373.986 143.631C375.248 144.012 376.68 142.665 377.179 140.683C377.679 138.7 377.061 136.828 375.799 136.447C374.537 136.065 373.106 137.421 372.606 139.395Z" fill="#F5BD9B"/>
<path d="M359.639 145.859L366.923 145.317C366.901 146.143 366.559 146.929 365.97 147.509C365.381 148.089 364.59 148.418 363.764 148.426C359.859 148.833 359.639 145.859 359.639 145.859Z" fill="#EFFAFD"/>
</g>
</svg>
