<svg width="62" height="63" viewBox="0 0 62 63" fill="none" xmlns="http://www.w3.org/2000/svg">
<circle cx="31" cy="31.1953" r="31" fill="#6945A5"/>
<path d="M38.2218 34.1667C38.3452 33.1217 38.4377 32.0767 38.4377 31C38.4377 29.9233 38.3452 28.8783 38.2218 27.8333H43.4327C43.6793 28.8467 43.8335 29.9075 43.8335 31C43.8335 32.0925 43.6793 33.1533 43.4327 34.1667H38.2218ZM35.4931 42.97C36.4181 41.2125 37.1272 39.3125 37.6206 37.3333H42.1685C40.6749 39.9748 38.3053 41.9757 35.4931 42.97ZM35.1077 34.1667H27.8927C27.7385 33.1217 27.646 32.0767 27.646 31C27.646 29.9233 27.7385 28.8625 27.8927 27.8333H35.1077C35.2464 28.8625 35.3543 29.9233 35.3543 31C35.3543 32.0767 35.2464 33.1217 35.1077 34.1667ZM31.5002 43.6033C30.2206 41.7033 29.1877 39.5975 28.5556 37.3333H34.4447C33.8127 39.5975 32.7797 41.7033 31.5002 43.6033ZM25.3335 24.6667H20.8318C22.3101 22.0181 24.678 20.014 27.4918 19.03C26.5668 20.7875 25.8731 22.6875 25.3335 24.6667ZM20.8318 37.3333H25.3335C25.8731 39.3125 26.5668 41.2125 27.4918 42.97C24.6839 41.9751 22.3193 39.9739 20.8318 37.3333ZM19.5677 34.1667C19.321 33.1533 19.1668 32.0925 19.1668 31C19.1668 29.9075 19.321 28.8467 19.5677 27.8333H24.7785C24.6552 28.8783 24.5627 29.9233 24.5627 31C24.5627 32.0767 24.6552 33.1217 24.7785 34.1667H19.5677ZM31.5002 18.3808C32.7797 20.2808 33.8127 22.4025 34.4447 24.6667H28.5556C29.1877 22.4025 30.2206 20.2808 31.5002 18.3808ZM42.1685 24.6667H37.6206C37.1381 22.7056 36.4236 20.8127 35.4931 19.03C38.3297 20.0275 40.6885 22.0383 42.1685 24.6667ZM31.5002 15.1667C22.9747 15.1667 16.0835 22.2917 16.0835 31C16.0835 35.1992 17.7077 39.2265 20.5989 42.1958C22.0305 43.6661 23.73 44.8324 25.6005 45.6281C27.4709 46.4238 29.4756 46.8333 31.5002 46.8333C35.5889 46.8333 39.5102 45.1652 42.4014 42.1958C45.2926 39.2265 46.9168 35.1992 46.9168 31C46.9168 28.9207 46.5181 26.8618 45.7433 24.9408C44.9685 23.0198 43.833 21.2744 42.4014 19.8041C40.9698 18.3339 39.2703 17.1676 37.3999 16.3719C35.5294 15.5762 33.5247 15.1667 31.5002 15.1667Z" fill="white"/>
</svg>
