<svg width="63" height="63" viewBox="0 0 63 63" fill="none" xmlns="http://www.w3.org/2000/svg">
<circle cx="31.8091" cy="31.6204" r="31" fill="#6945A5"/>
<path d="M20.1309 27.6204H21.8809C22.0184 27.6204 22.1309 27.5079 22.1309 27.3704V21.8704H27.6309C27.7684 21.8704 27.8809 21.7579 27.8809 21.6204V19.8704C27.8809 19.7329 27.7684 19.6204 27.6309 19.6204H22.0059C20.8309 19.6204 19.8809 20.5704 19.8809 21.7454V27.3704C19.8809 27.5079 19.9934 27.6204 20.1309 27.6204ZM36.1309 21.8704H41.6309V27.3704C41.6309 27.5079 41.7434 27.6204 41.8809 27.6204H43.6309C43.7684 27.6204 43.8809 27.5079 43.8809 27.3704V21.7454C43.8809 20.5704 42.9309 19.6204 41.7559 19.6204H36.1309C35.9934 19.6204 35.8809 19.7329 35.8809 19.8704V21.6204C35.8809 21.7579 35.9934 21.8704 36.1309 21.8704ZM27.6309 41.3704H22.1309V35.8704C22.1309 35.7329 22.0184 35.6204 21.8809 35.6204H20.1309C19.9934 35.6204 19.8809 35.7329 19.8809 35.8704V41.4954C19.8809 42.6704 20.8309 43.6204 22.0059 43.6204H27.6309C27.7684 43.6204 27.8809 43.5079 27.8809 43.3704V41.6204C27.8809 41.4829 27.7684 41.3704 27.6309 41.3704ZM43.6309 35.6204H41.8809C41.7434 35.6204 41.6309 35.7329 41.6309 35.8704V41.3704H36.1309C35.9934 41.3704 35.8809 41.4829 35.8809 41.6204V43.3704C35.8809 43.5079 35.9934 43.6204 36.1309 43.6204H41.7559C42.9309 43.6204 43.8809 42.6704 43.8809 41.4954V35.8704C43.8809 35.7329 43.7684 35.6204 43.6309 35.6204ZM44.1309 30.4954H19.6309C19.4934 30.4954 19.3809 30.6079 19.3809 30.7454V32.4954C19.3809 32.6329 19.4934 32.7454 19.6309 32.7454H44.1309C44.2684 32.7454 44.3809 32.6329 44.3809 32.4954V30.7454C44.3809 30.6079 44.2684 30.4954 44.1309 30.4954Z" fill="white"/>
</svg>
