<svg width="380" height="320" viewBox="0 0 380 320" fill="none" xmlns="http://www.w3.org/2000/svg">
<g clip-path="url(#clip0)">
<path d="M62.7537 298.968L181.227 298.525C183.118 298.519 184.989 298.138 186.733 297.404C188.477 296.67 190.059 295.599 191.39 294.25C192.721 292.901 193.774 291.302 194.489 289.544C195.204 287.787 195.566 285.904 195.556 284.006L194.623 29.5113C194.617 27.6126 194.237 25.7338 193.507 23.9826C192.776 22.2313 191.709 20.6419 190.366 19.3054C189.023 17.9688 187.43 16.9114 185.68 16.1936C183.929 15.4758 182.055 15.1118 180.164 15.1223L61.6909 15.5579C59.8007 15.5655 57.9305 15.9473 56.1873 16.6813C54.4441 17.4154 52.8623 18.4874 51.5321 19.8359C50.2019 21.1845 49.1495 22.7832 48.4351 24.5406C47.7208 26.298 47.3584 28.1795 47.3689 30.0776L48.2943 284.579C48.3019 286.478 48.6821 288.356 49.413 290.107C50.1439 291.858 51.2112 293.447 52.5541 294.783C53.897 296.119 55.489 297.177 57.2391 297.895C58.9892 298.613 60.8631 298.978 62.7537 298.968Z" fill="white" stroke="#6945A5" stroke-miterlimit="10"/>
<path d="M64.395 21.4165L93.9211 21.3076V23.8486C93.9288 25.3132 94.5145 26.7151 95.5499 27.7467C96.5854 28.7783 97.986 29.3554 99.4445 29.3515L142.577 29.1918C143.3 29.1899 144.015 29.0448 144.682 28.7649C145.349 28.4849 145.954 28.0756 146.463 27.5604C146.972 27.0451 147.375 26.4341 147.648 25.7623C147.922 25.0905 148.061 24.3711 148.057 23.6453V21.1043L177.59 20.9954C180.637 20.9858 183.562 22.1907 185.724 24.3455C187.886 26.5003 189.108 29.4289 189.122 32.4878L190.025 280.47C190.036 281.988 189.748 283.493 189.178 284.899C188.608 286.305 187.768 287.584 186.704 288.663C185.641 289.742 184.376 290.6 182.982 291.188C181.588 291.775 180.092 292.08 178.581 292.086L65.3783 292.507C62.3328 292.516 59.408 291.311 57.247 289.156C55.086 287.001 53.8655 284.073 53.854 281.014L52.9431 33.025C52.9336 31.507 53.2225 30.0021 53.7933 28.5965C54.3641 27.1909 55.2057 25.9122 56.2695 24.8338C57.3334 23.7553 58.5988 22.8984 59.9931 22.312C61.3875 21.7256 62.8833 21.4212 64.395 21.4165Z" fill="#F6F5FF" stroke="#6945A5" stroke-miterlimit="10"/>
<path d="M130.092 22.7304L109.423 22.8065C108.944 22.8083 108.557 23.1997 108.558 23.6809L108.559 23.768C108.56 24.2491 108.95 24.6377 109.429 24.636L130.099 24.5599C130.578 24.5581 130.965 24.1667 130.963 23.6855L130.963 23.5984C130.961 23.1173 130.571 22.7287 130.092 22.7304Z" fill="#6945A5"/>
<path d="M181.219 319.637L314.492 319.151C318.782 319.133 322.89 317.406 325.913 314.349C328.937 311.291 330.627 307.154 330.614 302.845L329.565 16.5598C329.548 12.2519 327.828 8.12724 324.783 5.09269C321.738 2.05813 317.618 0.362112 313.328 0.377546L180.055 0.871233C175.765 0.886611 171.657 2.61217 168.634 5.6685C165.611 8.72484 163.92 12.8617 163.933 17.1696L164.981 303.469C165.001 307.775 166.722 311.897 169.767 314.929C172.812 317.961 176.931 319.654 181.219 319.637Z" fill="white" stroke="#6945A5" stroke-miterlimit="10"/>
<path d="M183.049 7.43402L216.269 7.31062V10.171C216.278 11.818 216.937 13.3941 218.101 14.5547C219.265 15.7152 220.839 16.3656 222.479 16.3637L271.005 16.1822C271.817 16.1793 272.621 16.0157 273.37 15.7006C274.12 15.3856 274.8 14.9253 275.372 14.3462C275.944 13.767 276.397 13.0802 276.705 12.3252C277.012 11.5702 277.168 10.7617 277.165 9.94595V7.08556L310.385 6.96214C312.082 6.95545 313.764 7.28464 315.335 7.9309C316.905 8.57716 318.334 9.5278 319.538 10.7285C320.743 11.9293 321.699 13.3566 322.354 14.9289C323.009 16.5012 323.349 18.1876 323.355 19.8919L324.375 298.859C324.381 300.564 324.053 302.253 323.41 303.83C322.766 305.407 321.82 306.841 320.624 308.05C319.428 309.26 318.007 310.221 316.441 310.879C314.875 311.536 313.196 311.878 311.499 311.883L184.162 312.355C182.465 312.362 180.783 312.033 179.212 311.387C177.642 310.74 176.214 309.79 175.009 308.589C173.805 307.388 172.848 305.961 172.193 304.389C171.538 302.816 171.197 301.13 171.192 299.426L170.172 20.4582C170.166 18.7539 170.493 17.065 171.137 15.488C171.781 13.9109 172.727 12.4767 173.923 11.2672C175.119 10.0577 176.54 9.09661 178.106 8.4389C179.672 7.78119 181.351 7.43973 183.049 7.43402Z" fill="#F6F5FF" stroke="#6945A5" stroke-miterlimit="10"/>
<path d="M256.972 8.91267L233.722 8.99824C233.183 9.00022 232.748 9.44063 232.75 9.98191L232.75 10.0763C232.752 10.6176 233.191 11.0547 233.73 11.0528L256.98 10.9672C257.519 10.9652 257.954 10.5248 257.952 9.98353L257.952 9.88915C257.95 9.34787 257.511 8.91068 256.972 8.91267Z" fill="#6945A5"/>
<path d="M369.604 266.909C369.656 266.959 369.726 266.988 369.799 266.989H371.44C371.513 266.988 371.583 266.96 371.635 266.909C371.661 266.884 371.681 266.855 371.694 266.822C371.708 266.79 371.715 266.755 371.715 266.72V266.146C371.723 265.853 371.804 265.567 371.95 265.313C372.097 265.06 372.304 264.847 372.554 264.694C373.112 264.343 373.756 264.157 374.415 264.157C375.073 264.157 375.719 264.343 376.277 264.694C376.526 264.847 376.733 265.06 376.88 265.313C377.026 265.567 377.107 265.853 377.115 266.146V266.72C377.115 266.755 377.122 266.79 377.136 266.822C377.15 266.855 377.17 266.884 377.195 266.909C377.247 266.96 377.317 266.988 377.39 266.989H379.031C379.067 266.99 379.102 266.983 379.135 266.97C379.168 266.957 379.198 266.937 379.223 266.912C379.248 266.887 379.267 266.857 379.28 266.824C379.293 266.791 379.3 266.755 379.299 266.72V266.146C379.253 265.692 379.098 265.256 378.846 264.876C378.594 264.497 378.253 264.185 377.853 263.968C376.813 263.323 375.615 262.981 374.393 262.981C373.171 262.981 371.973 263.323 370.934 263.968C370.534 264.185 370.193 264.497 369.94 264.876C369.688 265.256 369.533 265.692 369.488 266.146V266.72C369.486 266.755 369.492 266.789 369.505 266.822C369.517 266.854 369.536 266.884 369.56 266.909H369.604ZM379.002 264.005C379.191 264.193 379.36 264.4 379.508 264.622C379.817 265.081 379.986 265.621 379.993 266.175V266.749C379.993 267.007 379.891 267.254 379.709 267.437C379.527 267.619 379.281 267.722 379.024 267.722H377.383C377.249 267.727 377.116 267.705 376.992 267.656C376.868 267.607 376.754 267.533 376.66 267.439C376.48 267.255 376.378 267.007 376.378 266.749V266.175C376.364 265.997 376.308 265.825 376.213 265.673C376.119 265.521 375.989 265.395 375.835 265.304C375.395 265.033 374.888 264.89 374.372 264.89C373.855 264.89 373.348 265.033 372.908 265.304C372.754 265.395 372.625 265.521 372.53 265.673C372.436 265.825 372.379 265.997 372.365 266.175V266.749C372.365 267.007 372.263 267.255 372.083 267.439C371.993 267.529 371.886 267.6 371.768 267.649C371.65 267.698 371.524 267.722 371.397 267.722H369.756C369.622 267.727 369.489 267.705 369.364 267.656C369.24 267.607 369.127 267.533 369.033 267.439C368.852 267.255 368.751 267.007 368.75 266.749V266.175C368.757 265.621 368.926 265.081 369.235 264.622C369.568 264.135 369.993 263.718 370.486 263.395C371.639 262.667 372.973 262.28 374.336 262.28C375.698 262.28 377.032 262.667 378.185 263.395C378.445 263.574 378.687 263.778 378.908 264.005H379.002Z" fill="white"/>
<path d="M121.611 275.09C126.933 275.09 131.248 270.758 131.248 265.413C131.248 260.068 126.933 255.736 121.611 255.736C116.288 255.736 111.974 260.068 111.974 265.413C111.974 270.758 116.288 275.09 121.611 275.09Z" fill="#766BC9"/>
<path d="M116.81 266.909C116.834 266.934 116.863 266.954 116.896 266.968C116.928 266.982 116.963 266.989 116.998 266.989H118.617C118.688 266.987 118.755 266.958 118.804 266.908C118.854 266.858 118.883 266.791 118.885 266.72V266.146C118.893 265.853 118.974 265.567 119.12 265.313C119.267 265.06 119.474 264.847 119.724 264.694C120.282 264.343 120.927 264.157 121.585 264.157C122.244 264.157 122.889 264.343 123.447 264.694C123.696 264.847 123.904 265.06 124.05 265.313C124.197 265.567 124.278 265.853 124.286 266.146V266.72C124.285 266.755 124.292 266.79 124.306 266.822C124.32 266.855 124.34 266.884 124.365 266.909C124.417 266.96 124.487 266.988 124.56 266.989H126.201C126.237 266.99 126.273 266.983 126.306 266.97C126.339 266.957 126.37 266.938 126.395 266.912C126.421 266.887 126.441 266.858 126.455 266.824C126.469 266.791 126.476 266.756 126.476 266.72V266.146C126.43 265.693 126.274 265.257 126.022 264.877C125.77 264.498 125.43 264.186 125.03 263.968C123.991 263.323 122.793 262.981 121.571 262.981C120.349 262.981 119.151 263.323 118.111 263.968C117.712 264.186 117.372 264.499 117.12 264.878C116.868 265.257 116.712 265.693 116.665 266.146V266.72C116.665 266.755 116.672 266.79 116.686 266.822C116.7 266.855 116.72 266.884 116.745 266.909H116.81ZM126.209 264.005C126.393 264.195 126.56 264.402 126.707 264.622C127.02 265.08 127.188 265.621 127.192 266.175V266.749C127.192 267.007 127.09 267.254 126.908 267.437C126.726 267.619 126.48 267.722 126.223 267.722H124.582C124.448 267.727 124.315 267.705 124.191 267.656C124.067 267.607 123.954 267.533 123.859 267.439C123.679 267.255 123.578 267.007 123.577 266.749V266.175C123.563 265.997 123.507 265.825 123.412 265.673C123.318 265.521 123.188 265.395 123.035 265.304C122.594 265.033 122.087 264.89 121.571 264.89C121.054 264.89 120.547 265.033 120.107 265.304C119.953 265.395 119.824 265.521 119.729 265.673C119.635 265.825 119.578 265.997 119.565 266.175V266.749C119.566 266.877 119.542 267.004 119.494 267.123C119.445 267.241 119.373 267.349 119.282 267.439C119.102 267.62 118.858 267.722 118.603 267.722H116.955C116.827 267.723 116.701 267.698 116.583 267.65C116.465 267.601 116.358 267.53 116.267 267.439C116.177 267.348 116.106 267.241 116.058 267.122C116.009 267.004 115.985 266.877 115.986 266.749V266.175C115.992 265.62 116.163 265.079 116.477 264.622C116.805 264.133 117.228 263.715 117.721 263.395C118.874 262.667 120.208 262.28 121.571 262.28C122.933 262.28 124.267 262.667 125.42 263.395C125.68 263.574 125.922 263.779 126.143 264.005H126.209Z" fill="white"/>
<path d="M373.529 80.6134L346.895 64.257L342.073 95.242C348.168 96.1932 354.408 95.3117 360.006 92.7085C365.603 90.1053 370.309 85.8969 373.529 80.6134Z" fill="#CECEF2"/>
<path d="M373.558 80.5771L373.724 80.3085C376.486 75.6628 378.004 70.3786 378.131 64.9695C378.258 59.5605 376.989 54.2105 374.447 49.4396C365.049 54.3981 370.637 51.3852 346.931 64.2569C373.58 80.6424 369.43 78.116 373.558 80.5771Z" fill="#F9C941"/>
<path d="M317.608 53.4253L346.895 64.257L374.368 49.338C361.535 25.4748 326.927 28.3425 317.608 53.4253Z" fill="#766BC9"/>
<path d="M342.073 95.2421L346.895 64.257L317.608 53.4253C310.645 72.1702 323.001 92.222 342.073 95.2421Z" fill="#EC665A"/>
<path d="M315.692 58.5508C316.211 58.5478 316.722 58.6804 317.174 58.9355C317.425 57.5196 317.78 56.1243 318.237 54.7611L334.142 60.6489C334.125 59.9289 334.384 59.2298 334.865 58.696L333.267 58.1079L318.996 52.83C320.137 50.0263 321.687 47.4085 323.594 45.062C322.926 44.8112 322.364 44.3369 322.003 43.7189C319.946 46.2534 318.277 49.082 317.051 52.1113L316.697 53.0768L316.328 54.0569C315.828 55.5479 315.439 57.0743 315.164 58.6234C315.337 58.5829 315.514 58.5586 315.692 58.5508Z" fill="white"/>
<path d="M375.749 49.7735L375.257 48.8588L375.221 48.808L374.823 48.082C371.816 42.7529 367.35 38.4016 361.955 35.5442C356.26 32.6173 349.836 31.4288 343.477 32.1254C337.117 32.8221 331.1 35.3734 326.168 39.4645C326.772 39.8402 327.235 40.4072 327.483 41.0762C332.413 36.9477 338.522 34.4994 344.928 34.085C350.521 33.6596 356.119 34.8313 361.076 37.4648C366.033 40.0983 370.147 44.0861 372.944 48.9677L364.832 53.3672L356.879 57.6795L347.163 62.9575L346.91 63.0954L346.093 62.5945L346.049 62.8776L340.338 60.765C340.329 61.4816 340.056 62.1694 339.572 62.6961L345.724 64.9757L341.198 94.0659C334.374 92.7146 328.218 89.0514 323.761 83.6889C319.304 78.3263 316.815 71.5896 316.711 64.6054C316.39 64.7288 316.05 64.7928 315.706 64.7942C315.343 64.7943 314.983 64.7279 314.644 64.5982C314.706 70.1838 316.219 75.6565 319.032 80.4755C321.351 84.5011 324.504 87.9789 328.279 90.6733C332.053 93.3676 336.361 95.2154 340.909 96.0914L341.936 96.2512L342.955 96.4181C348.941 97.1561 355.012 96.1959 360.483 93.6464C365.953 91.0968 370.603 87.0598 373.905 81.9928L374.108 81.6589L374.44 81.1144L374.585 80.8675L374.917 80.3303C377.538 75.6951 378.985 70.4843 379.13 65.1561C379.275 59.8279 378.114 54.5455 375.749 49.7735ZM343.259 94.3563L347.676 65.9558L359.171 73.0196L368.121 78.5153L372.091 80.9546C369.011 85.6696 364.678 89.4242 359.582 91.7928C354.486 94.1615 348.831 95.0495 343.259 94.3563ZM373.197 79.1106L372.994 78.9945C371.91 78.3483 371.433 78.0652 369.264 76.7367L348.97 64.2788L365.815 55.1313C368.295 53.7882 369.307 53.2583 371.816 51.937L373.985 50.8117C376.152 55.2447 377.213 60.1406 377.076 65.077C376.938 70.0135 375.607 74.8424 373.197 79.1469V79.1106Z" fill="#E8F2FC"/>
<path d="M276.84 97.0643H220.303V63.9739H262.821L276.84 78.0507V97.0643Z" fill="#F9C941"/>
<path d="M261.78 63.9739V81.6371H276.84V78.2395L262.727 64.0683L261.78 63.9739Z" fill="#E5B12E"/>
<path d="M262.821 63.9739V78.2395H276.84L262.821 63.9739Z" fill="#F9C941"/>
<path d="M251.875 76.3882H226.68C226.415 76.3882 226.162 76.2827 225.974 76.0948C225.787 75.9069 225.682 75.6521 225.682 75.3864C225.682 75.1207 225.787 74.8659 225.974 74.678C226.162 74.4901 226.415 74.3845 226.68 74.3845H251.875C252.14 74.3845 252.394 74.4901 252.581 74.678C252.768 74.8659 252.873 75.1207 252.873 75.3864C252.873 75.6521 252.768 75.9069 252.581 76.0948C252.394 76.2827 252.14 76.3882 251.875 76.3882Z" fill="white"/>
<path d="M251.875 81.521H226.68C226.415 81.521 226.162 81.4154 225.974 81.2275C225.787 81.0396 225.682 80.7848 225.682 80.5191C225.682 80.2534 225.787 79.9985 225.974 79.8107C226.162 79.6228 226.415 79.5172 226.68 79.5172H251.875C252.006 79.5172 252.136 79.5431 252.257 79.5935C252.378 79.6438 252.488 79.7176 252.581 79.8107C252.674 79.9037 252.747 80.0141 252.797 80.1357C252.847 80.2572 252.873 80.3875 252.873 80.5191C252.873 80.6506 252.847 80.7809 252.797 80.9025C252.747 81.024 252.674 81.1345 252.581 81.2275C252.488 81.3205 252.378 81.3943 252.257 81.4447C252.136 81.495 252.006 81.521 251.875 81.521Z" fill="white"/>
<path d="M251.875 86.9223H226.68C226.415 86.9223 226.162 86.8167 225.974 86.6289C225.787 86.441 225.682 86.1862 225.682 85.9204C225.682 85.6547 225.787 85.3999 225.974 85.212C226.162 85.0241 226.415 84.9186 226.68 84.9186H251.875C252.14 84.9186 252.394 85.0241 252.581 85.212C252.768 85.3999 252.873 85.6547 252.873 85.9204C252.873 86.1862 252.768 86.441 252.581 86.6289C252.394 86.8167 252.14 86.9223 251.875 86.9223Z" fill="white"/>
<path d="M302.975 143.36L248.369 137.553L251.984 103.184L295.275 107.765L305.397 120.318L302.975 143.36Z" fill="#FFA03E"/>
<path d="M294.459 110.256L253.813 105.95L250.77 134.954L301.298 140.297L303.076 123.316L293.193 122.271L294.459 110.256Z" fill="white"/>
<path d="M288.949 120.789L262.619 118.002C262.367 117.931 262.149 117.772 262.002 117.555C261.856 117.338 261.791 117.076 261.818 116.815C261.846 116.554 261.965 116.311 262.154 116.13C262.342 115.948 262.589 115.84 262.85 115.824L289.181 118.612C289.341 118.602 289.502 118.627 289.652 118.686C289.802 118.745 289.937 118.836 290.048 118.953C290.16 119.069 290.244 119.209 290.296 119.362C290.348 119.515 290.366 119.677 290.349 119.838C290.332 119.999 290.28 120.154 290.197 120.292C290.114 120.431 290.002 120.549 289.869 120.64C289.736 120.73 289.584 120.791 289.426 120.817C289.267 120.842 289.104 120.833 288.949 120.789Z" fill="#FFA03E"/>
<path d="M288.335 126.612L262.011 123.824C261.856 123.827 261.701 123.796 261.558 123.734C261.415 123.672 261.287 123.581 261.182 123.465C261.077 123.35 260.997 123.214 260.949 123.065C260.9 122.916 260.884 122.759 260.9 122.604C260.917 122.448 260.966 122.298 261.045 122.163C261.123 122.028 261.229 121.912 261.356 121.821C261.483 121.731 261.628 121.668 261.781 121.638C261.933 121.608 262.091 121.611 262.243 121.646L288.566 124.434C288.722 124.431 288.876 124.462 289.019 124.524C289.162 124.586 289.29 124.677 289.395 124.793C289.501 124.908 289.58 125.045 289.628 125.193C289.677 125.342 289.694 125.499 289.677 125.654C289.661 125.81 289.611 125.96 289.533 126.095C289.454 126.23 289.348 126.346 289.221 126.437C289.094 126.528 288.949 126.59 288.796 126.62C288.644 126.65 288.486 126.647 288.335 126.612Z" fill="#FFA03E"/>
<path d="M287.698 132.717L261.368 129.93C261.107 129.868 260.877 129.714 260.721 129.494C260.566 129.275 260.496 129.006 260.525 128.738C260.553 128.47 260.678 128.222 260.876 128.041C261.074 127.859 261.331 127.756 261.599 127.752L287.929 130.532C288.09 130.522 288.251 130.548 288.401 130.607C288.551 130.665 288.686 130.756 288.797 130.873C288.908 130.99 288.993 131.13 289.045 131.283C289.097 131.436 289.115 131.598 289.098 131.759C289.081 131.919 289.029 132.074 288.946 132.213C288.863 132.351 288.751 132.47 288.618 132.561C288.485 132.651 288.333 132.712 288.174 132.737C288.016 132.763 287.853 132.754 287.698 132.71V132.717Z" fill="#FFA03E"/>
<path d="M40.3488 218.101H132.686C135.258 218.101 137.342 216.007 137.342 213.425V175.18C137.342 172.598 135.258 170.505 132.686 170.505H40.3488C37.7774 170.505 35.6929 172.598 35.6929 175.18V213.425C35.6929 216.007 37.7774 218.101 40.3488 218.101Z" fill="white" stroke="#6945A5" stroke-miterlimit="10"/>
<path d="M126.042 182.222H47.0073V183.173H126.042V182.222Z" fill="#DFDFFB"/>
<path d="M126.042 193.831H47.0073V194.782H126.042V193.831Z" fill="#DFDFFB"/>
<path d="M126.042 205.439H47.0073V206.39H126.042V205.439Z" fill="#DFDFFB"/>
<path d="M124.712 206.47L125.457 205.882L119.825 198.753L110.123 202.078L101.78 192.974L93.292 199.842L83.3222 188.64L74.2851 199.116L66.2096 178.128L57.8303 191.348L48.0919 177.242L47.3184 177.787L57.8665 193.054L66.0071 180.219L73.967 200.924L83.3367 190.078L93.1835 201.142L101.686 194.274L109.848 203.174L119.5 199.864L124.712 206.47Z" fill="#4F57C7"/>
<path d="M304.348 223.698H195.556C193.82 223.698 192.156 223.006 190.929 221.774C189.702 220.541 189.013 218.87 189.013 217.128V166.527C189.013 164.784 189.702 163.113 190.929 161.881C192.156 160.649 193.82 159.956 195.556 159.956H297.798C299.535 159.956 301.201 160.649 302.43 161.883C303.658 163.116 304.348 164.789 304.348 166.534V223.698Z" fill="#766BC9"/>
<path d="M213.536 190.441H289.144C289.528 190.441 289.896 190.288 290.167 190.015C290.438 189.743 290.59 189.374 290.59 188.989C290.59 188.604 290.438 188.234 290.167 187.962C289.896 187.69 289.528 187.537 289.144 187.537H213.536C213.153 187.537 212.785 187.69 212.514 187.962C212.243 188.234 212.09 188.604 212.09 188.989C212.09 189.374 212.243 189.743 212.514 190.015C212.785 190.288 213.153 190.441 213.536 190.441Z" fill="white"/>
<path d="M260.052 201.12H289.571C289.954 201.12 290.322 200.967 290.593 200.695C290.864 200.422 291.017 200.053 291.017 199.668C291.017 199.283 290.864 198.913 290.593 198.641C290.322 198.369 289.954 198.216 289.571 198.216H260.052C259.668 198.216 259.301 198.369 259.03 198.641C258.758 198.913 258.606 199.283 258.606 199.668C258.606 200.053 258.758 200.422 259.03 200.695C259.301 200.967 259.668 201.12 260.052 201.12Z" fill="white"/>
<path d="M213.536 201.12H252.244C252.628 201.12 252.995 200.967 253.266 200.695C253.538 200.422 253.69 200.053 253.69 199.668C253.69 199.283 253.538 198.913 253.266 198.641C252.995 198.369 252.628 198.216 252.244 198.216H213.536C213.153 198.216 212.785 198.369 212.514 198.641C212.243 198.913 212.09 199.283 212.09 199.668C212.09 200.053 212.243 200.422 212.514 200.695C212.785 200.967 213.153 201.12 213.536 201.12Z" fill="white"/>
<path d="M260.052 211.639H289.571C289.954 211.639 290.322 211.486 290.593 211.214C290.864 210.942 291.017 210.573 291.017 210.187C291.017 209.802 290.864 209.433 290.593 209.161C290.322 208.888 289.954 208.735 289.571 208.735H260.052C259.668 208.735 259.301 208.888 259.03 209.161C258.758 209.433 258.606 209.802 258.606 210.187C258.606 210.573 258.758 210.942 259.03 211.214C259.301 211.486 259.668 211.639 260.052 211.639Z" fill="white"/>
<path d="M213.536 211.639H252.244C252.628 211.639 252.995 211.486 253.266 211.214C253.538 210.942 253.69 210.573 253.69 210.187C253.69 209.802 253.538 209.433 253.266 209.161C252.995 208.888 252.628 208.735 252.244 208.735H213.536C213.153 208.735 212.785 208.888 212.514 209.161C212.243 209.433 212.09 209.802 212.09 210.187C212.09 210.573 212.243 210.942 212.514 211.214C212.785 211.486 213.153 211.639 213.536 211.639Z" fill="white"/>
<path d="M232.218 177.3H288.87C289.68 177.3 290.337 176.64 290.337 175.827C290.337 175.013 289.68 174.353 288.87 174.353H232.218C231.407 174.353 230.75 175.013 230.75 175.827C230.75 176.64 231.407 177.3 232.218 177.3Z" fill="white"/>
<path d="M199.041 100.97H231.661C236.984 100.97 241.298 96.6374 241.298 91.2927V45.8315C241.298 40.4868 236.984 36.1541 231.661 36.1541H199.041C193.718 36.1541 189.404 40.4868 189.404 45.8315V91.2927C189.404 96.6374 193.718 100.97 199.041 100.97Z" fill="white" stroke="#6945A5" stroke-miterlimit="10"/>
<mask id="mask0" style="mask-type:alpha" maskUnits="userSpaceOnUse" x="188" y="35" width="54" height="67">
<path d="M199.041 100.97H231.662C236.984 100.97 241.299 96.6374 241.299 91.2927V45.8315C241.299 40.4868 236.984 36.1541 231.662 36.1541H199.041C193.719 36.1541 189.404 40.4868 189.404 45.8315V91.2927C189.404 96.6374 193.719 100.97 199.041 100.97Z" fill="white" stroke="#6945A5" stroke-miterlimit="10"/>
</mask>
<g mask="url(#mask0)">
<path d="M241.465 119.65L225.249 121.254C225.249 121.254 224.526 107.903 224.577 101.536C224.577 93.8118 225.3 83.8731 226.218 84.1126C228.821 84.7225 232.327 86.1817 234.409 89.0711C241.61 99.0172 241.465 119.65 241.465 119.65Z" fill="#CECEF2"/>
<path d="M233.57 100.179C233.903 102.531 239.911 166.57 239.911 166.57C210.349 180.785 194.103 168.966 194.103 168.966C194.103 168.966 195.224 124.013 194.103 117.893C193.38 113.842 192.491 86.9367 195.108 86.1962C198.827 85.0568 202.641 84.2549 206.502 83.8005C210.081 83.4447 223.969 83.2705 226.457 84.1199C230.283 88.6954 232.749 94.2609 233.57 100.179Z" fill="#CECEF2"/>
<path d="M173.918 113.283L187.929 122.8C187.929 122.8 195.882 110.996 200.155 106.829C205.49 101.573 198.289 85.3904 194.855 86.2906C187.177 88.2798 173.918 113.283 173.918 113.283Z" fill="#CECEF2"/>
<path d="M210.435 70.6747L208.266 83.9965C208.266 83.9965 216.161 100.992 220.911 99.5762C224.902 98.3928 222.501 83.815 222.501 83.815C222.501 83.815 220.333 75.9816 221.019 72.0686C221.706 68.1555 210.435 70.6747 210.435 70.6747Z" fill="#EEEDF9"/>
<path d="M220.983 72.0686C221.648 68.1555 210.45 70.6747 210.45 70.6747L210.262 71.8145C210.545 72.5282 210.954 73.1848 211.469 73.7528C214.104 76.3452 217.595 77.8748 221.28 78.0507C220.888 76.0822 220.788 74.0664 220.983 72.0686Z" fill="#EBEAF9"/>
<path d="M208.678 51.1021C208.36 50.986 206.09 66.8415 210.283 71.2192C214.477 75.5969 222.682 77.0271 225.639 73.6295C228.907 69.8398 228.799 52.7937 222.27 48.2781C215.742 43.7624 208.678 51.1021 208.678 51.1021Z" fill="#EEEDF9"/>
<path d="M210.24 44.9893C207.948 45.2434 204.818 46.4412 201.564 51.5885C197.581 57.8973 200.487 64.9176 205.085 68.3733C209.683 71.829 209.596 75.7565 209.596 75.7565L210.355 73.7456C210.908 72.1979 211.11 70.5464 210.948 68.9105C210.867 67.9093 210.623 66.9283 210.225 66.0065C209.119 63.7052 212.626 62.1879 213.609 60.2858C214.368 58.8338 214.419 55.4507 215.612 53.0259L217.058 51.1747C217.058 51.1747 220.34 48.7281 223.564 49.4323C226.789 50.1365 222.841 35.0578 210.24 44.9893Z" fill="#B7B7ED"/>
<path d="M213.378 63.0953C213.378 65.0337 212.489 66.6163 211.325 66.6309C210.161 66.6454 209.199 65.0918 209.156 63.1534C209.112 61.215 210.045 59.6396 211.209 59.6251C212.373 59.6106 213.327 61.1642 213.378 63.0953Z" fill="#EBEAF9"/>
<path d="M220.557 67.3786L226.34 66.2461C226.402 66.909 226.205 67.57 225.791 68.09C225.377 68.61 224.778 68.9484 224.121 69.0339C220.991 69.7236 220.557 67.3786 220.557 67.3786Z" fill="white"/>
</g>
<path d="M199.041 100.97H231.661C236.984 100.97 241.298 96.6374 241.298 91.2927V45.8315C241.298 40.4868 236.984 36.1541 231.661 36.1541H199.041C193.718 36.1541 189.404 40.4868 189.404 45.8315V91.2927C189.404 96.6374 193.718 100.97 199.041 100.97Z" stroke="#6945A5" stroke-miterlimit="10"/>
<path d="M247.892 296.442C254.839 296.442 260.471 290.786 260.471 283.81C260.471 276.833 254.839 271.177 247.892 271.177C240.944 271.177 235.312 276.833 235.312 283.81C235.312 290.786 240.944 296.442 247.892 296.442Z" fill="#EC665A"/>
<path d="M241.616 285.763C241.684 285.828 241.775 285.865 241.869 285.864H244.038C244.084 285.864 244.129 285.855 244.171 285.838C244.213 285.82 244.252 285.795 244.284 285.763C244.348 285.694 244.384 285.603 244.385 285.508V284.782C244.399 284.401 244.506 284.029 244.698 283.7C244.89 283.37 245.16 283.094 245.484 282.895C246.213 282.435 247.056 282.19 247.917 282.19C248.778 282.19 249.621 282.435 250.35 282.895C250.673 283.094 250.942 283.371 251.133 283.7C251.323 284.03 251.429 284.402 251.442 284.782V285.508C251.442 285.556 251.452 285.603 251.47 285.647C251.489 285.69 251.516 285.73 251.55 285.763C251.582 285.795 251.62 285.82 251.663 285.838C251.705 285.855 251.75 285.864 251.796 285.864H253.965C254.059 285.864 254.149 285.827 254.215 285.76C254.282 285.693 254.319 285.603 254.319 285.508V284.782C254.267 284.187 254.07 283.614 253.744 283.114C253.419 282.614 252.976 282.202 252.454 281.915C251.097 281.07 249.532 280.622 247.935 280.622C246.338 280.622 244.774 281.07 243.417 281.915C242.896 282.203 242.454 282.615 242.13 283.115C241.806 283.615 241.609 284.188 241.558 284.782V285.508C241.559 285.603 241.595 285.694 241.66 285.763H241.616ZM253.907 281.929C254.15 282.173 254.368 282.44 254.557 282.728C254.964 283.328 255.186 284.035 255.194 284.761V285.487C255.194 285.824 255.06 286.147 254.823 286.385C254.586 286.623 254.264 286.757 253.929 286.757H251.76C251.594 286.758 251.431 286.726 251.278 286.662C251.125 286.598 250.987 286.505 250.87 286.387C250.752 286.269 250.657 286.129 250.593 285.974C250.528 285.82 250.495 285.654 250.494 285.487V284.761C250.478 284.526 250.403 284.3 250.276 284.102C250.15 283.904 249.977 283.741 249.772 283.628C249.198 283.269 248.535 283.079 247.859 283.079C247.183 283.079 246.521 283.269 245.947 283.628C245.744 283.744 245.573 283.908 245.447 284.105C245.321 284.302 245.245 284.527 245.224 284.761V285.487C245.225 285.653 245.193 285.818 245.13 285.972C245.067 286.126 244.975 286.267 244.858 286.385C244.741 286.503 244.602 286.596 244.449 286.66C244.296 286.724 244.132 286.757 243.966 286.757H241.797C241.631 286.758 241.465 286.726 241.312 286.662C241.158 286.599 241.018 286.505 240.9 286.387C240.783 286.269 240.69 286.129 240.626 285.974C240.563 285.819 240.531 285.654 240.532 285.487V284.761C240.537 284.034 240.758 283.326 241.168 282.728C241.6 282.091 242.156 281.548 242.802 281.131C244.308 280.186 246.047 279.686 247.823 279.686C249.598 279.686 251.338 280.186 252.844 281.131C253.196 281.366 253.525 281.633 253.827 281.929H253.907Z" fill="white"/>
<path d="M308.043 256.578H340.663C345.986 256.578 350.3 252.245 350.3 246.9V201.439C350.3 196.095 345.986 191.762 340.663 191.762H308.043C302.72 191.762 298.405 196.095 298.405 201.439V246.9C298.405 252.245 302.72 256.578 308.043 256.578Z" fill="#F6F5FF" stroke="#6945A5" stroke-miterlimit="10"/>
<mask id="mask1" style="mask-type:alpha" maskUnits="userSpaceOnUse" x="298" y="191" width="53" height="65">
<path d="M308.834 255.366H340.844C346.067 255.366 350.301 251.114 350.301 245.869V201.258C350.301 196.014 346.067 191.762 340.844 191.762H308.834C303.611 191.762 299.377 196.014 299.377 201.258V245.869C299.377 251.114 303.611 255.366 308.834 255.366Z" fill="#F6F5FF" stroke="#6945A5" stroke-miterlimit="10"/>
</mask>
<g mask="url(#mask1)">
<path d="M346.959 265.033L333.423 266.458C333.423 266.458 332.806 255.316 332.806 250.001C332.806 243.59 333.352 235.247 334.125 235.425C336.303 235.931 339.233 237.135 340.978 239.543C347.016 247.807 346.959 265.033 346.959 265.033Z" fill="#F7A09C"/>
<path d="M307.727 268.296C307.708 266.768 307.596 265.243 307.393 263.729C306.755 260.352 305.974 237.89 308.138 237.263C311.241 236.304 314.422 235.625 317.645 235.233C320.632 234.927 332.231 234.741 334.303 235.44C337.516 239.247 339.599 243.886 340.312 248.826C340.418 249.595 341.269 258.137 342.277 268.296H307.727Z" fill="#EC665A"/>
<path d="M290.544 259.918L302.271 267.826C302.271 267.826 308.876 257.944 312.423 254.432C316.871 250.03 310.806 236.537 307.946 237.299C301.54 239.03 290.544 259.918 290.544 259.918Z" fill="#F7A09C"/>
<path d="M328.265 200.867C328.265 200.867 324.25 196.592 321.015 201.786C320.299 201.392 319.461 201.286 318.67 201.489C317.88 201.693 317.196 202.191 316.758 202.883C316.758 202.883 312.26 201.522 311.168 208.276C311.168 208.276 308.855 207.834 308.55 210.598C308.356 212.214 308.743 213.846 309.642 215.2C309.642 215.2 308.344 216.183 308.933 218.719C309.038 219.31 309.309 219.858 309.714 220.3C310.118 220.742 310.64 221.058 311.218 221.213C311.218 221.213 311.693 224.853 313.268 225.943C314.388 226.599 315.714 226.802 316.978 226.513C316.978 226.513 317.546 228.487 319.383 228.316C321.221 228.145 323.484 226.385 325.534 227.176C327.584 227.966 332.948 227.147 332.948 227.147C332.948 227.147 338.928 224.469 337.133 218.328C337.133 218.328 340.283 215.478 337.531 212.058C337.531 212.058 339.538 206.708 335.566 203.552C331.593 200.396 328.265 200.867 328.265 200.867Z" fill="#1A1A1A"/>
<path d="M327.584 229.74L328.294 235.162C328.294 235.162 329.918 242.998 327.825 244.466C325.733 245.933 318.915 234.934 318.915 234.934L319.624 221.206L327.584 229.74Z" fill="#F5BD9B"/>
<path d="M319.418 225.658C321.15 230.339 325.278 233.217 328.201 234.335L327.584 229.74L319.652 221.192L319.418 225.658Z" fill="#E47B60"/>
<path d="M308.5 211.88C308.5 213.968 309.685 215.663 311.146 215.663C312.608 215.663 313.793 213.968 313.793 211.88C313.793 209.793 312.608 208.09 311.146 208.09C309.685 208.09 308.5 209.786 308.5 211.88Z" fill="#1A1A1A"/>
<path d="M319.653 205.917C321.431 205.917 322.873 204.945 322.873 203.745C322.873 202.545 321.431 201.572 319.653 201.572C317.874 201.572 316.432 202.545 316.432 203.745C316.432 204.945 317.874 205.917 319.653 205.917Z" fill="#1A1A1A"/>
<path d="M324.498 206.787C325.496 206.449 326.555 206.335 327.601 206.452C328.647 206.569 329.655 206.915 330.555 207.465C331.454 208.015 332.222 208.755 332.806 209.635C333.39 210.515 333.775 211.512 333.934 212.557C334.278 214.857 334.472 217.178 334.515 219.503C334.629 225.836 331.373 231.992 328.507 231.992C325.64 231.992 317.737 227.895 317.453 218.912C317.276 213.369 320.036 208.325 324.498 206.787Z" fill="#F5BD9B"/>
<path d="M319.56 219.624C319.56 221.049 318.638 222.153 317.503 222.153C316.368 222.153 315.445 221.021 315.445 219.624C315.445 218.228 316.368 217.095 317.503 217.095C318.638 217.095 319.56 218.228 319.56 219.624Z" fill="#F5BD9B"/>
<path d="M336.892 203.638C339.851 205.989 340.886 209.558 339.205 211.617C337.524 213.676 333.771 213.433 330.819 211.082C327.868 208.732 326.825 205.155 328.507 203.103C330.188 201.052 333.941 201.287 336.892 203.638Z" fill="#1A1A1A"/>
<path d="M329.166 205.568C329.166 206.587 327.939 207.414 326.421 207.414C324.902 207.414 323.675 206.587 323.675 205.568C323.675 204.55 324.909 203.716 326.421 203.716C327.932 203.716 329.166 204.543 329.166 205.568Z" fill="#1A1A1A"/>
<path d="M337.332 213.426C337.326 213.89 337.184 214.342 336.923 214.725C336.663 215.107 336.295 215.404 335.867 215.578C335.439 215.751 334.969 215.794 334.517 215.7C334.064 215.606 333.65 215.38 333.325 215.05C333.001 214.72 332.78 214.301 332.692 213.846C332.604 213.391 332.653 212.92 332.831 212.492C333.009 212.064 333.308 211.698 333.693 211.441C334.077 211.184 334.529 211.047 334.99 211.047C335.3 211.049 335.606 211.112 335.891 211.232C336.176 211.353 336.434 211.529 336.652 211.75C336.869 211.971 337.041 212.232 337.158 212.52C337.275 212.808 337.334 213.116 337.332 213.426Z" fill="#1A1A1A"/>
<path d="M331.529 225.046L325.931 225.274C326.011 225.91 326.336 226.489 326.836 226.889C327.335 227.288 327.97 227.475 328.606 227.411C331.592 227.34 331.529 225.046 331.529 225.046Z" fill="#EFFAFD"/>
</g>
<path d="M69.0364 50.1075H38.3681C32.5066 50.1075 27.7549 54.8791 27.7549 60.765V104.266C27.7549 110.152 32.5066 114.924 38.3681 114.924H69.0364C74.8979 114.924 79.6496 110.152 79.6496 104.266V60.765C79.6496 54.8791 74.8979 50.1075 69.0364 50.1075Z" stroke="#6945A5" stroke-miterlimit="10"/>
<path d="M69.0364 50.1075H38.3681C32.5066 50.1075 27.7549 54.8791 27.7549 60.765V104.266C27.7549 110.152 32.5066 114.924 38.3681 114.924H69.0364C74.8979 114.924 79.6496 110.152 79.6496 104.266V60.765C79.6496 54.8791 74.8979 50.1075 69.0364 50.1075Z" fill="white" stroke="#6945A5" stroke-miterlimit="10"/>
<mask id="mask2" style="mask-type:alpha" maskUnits="userSpaceOnUse" x="27" y="49" width="54" height="67">
<path d="M70.0125 50.1075H37.3921C32.0696 50.1075 27.7549 54.4403 27.7549 59.7849V105.246C27.7549 110.591 32.0696 114.924 37.3921 114.924H70.0125C75.3349 114.924 79.6496 110.591 79.6496 105.246V59.7849C79.6496 54.4403 75.3349 50.1075 70.0125 50.1075Z" fill="#F6F5FF" stroke="#6945A5" stroke-miterlimit="10"/>
</mask>
<g mask="url(#mask2)">
<path d="M69.5571 78.3121C69.5218 73.4482 68.2794 68.6699 65.9423 64.4095C63.8385 60.6634 59.1175 58.7759 54.9387 59.0517C41.6867 59.9229 41.2024 77.6152 33.1847 84.9622C30.741 87.2055 27.972 89.0858 25.6802 91.496C17.2214 100.353 22.2968 115.359 31.0447 122.038C37.1177 126.677 46.3209 128.928 53.1385 124.528C56.6955 122.234 59.2694 118.641 61.019 114.771C63.4988 109.29 64.923 103.061 66.5641 97.2822C68.3354 91.1113 69.7162 84.7371 69.5571 78.3121Z" fill="black"/>
<path d="M50.0009 93.8845C50.0009 93.8845 38.0357 95.155 34.8618 98.5163L42.6337 140.827C42.6337 140.827 57.3897 143.005 66.8027 139.781C66.8027 139.781 72.1021 105.863 67.3305 97.5507C65.74 94.7775 58.4886 94.6468 58.4886 94.6468L50.0009 93.8845Z" fill="#F9C941"/>
<path d="M106.566 76.3012C106.125 75.3647 102.228 78.1379 101.317 77.6079C100.406 77.078 104.838 72.6349 104.39 71.8509C103.565 70.3989 99.2781 76.4318 98.8588 75.793C98.4395 75.1541 102.553 68.7437 101.086 68.3879C99.618 68.0322 97.5069 75.4881 96.7478 75.0089C95.9887 74.5298 99.3216 68.2573 97.9046 66.9795C97.1383 66.2971 93.5668 78.4283 92.2582 78.9292C90.9496 79.4302 89.4892 74.1377 88.2674 74.3483C87.0456 74.5588 92.2798 84.091 92.0268 84.8315C91.7738 85.572 86.9661 101.137 84.1393 105.842C82.4331 105.021 80.7774 104.201 79.1941 103.395C78.5579 107.025 77.0902 110.161 76.2588 113.704C81.7534 116.129 88.0504 118.532 89.641 117.944C94.4993 116.151 96.8707 92.4616 97.6805 88.0476C98.4902 83.6336 100.536 82.7552 101.722 80.432C102.907 78.1089 107.007 77.2377 106.566 76.3012Z" fill="#F5BD9B"/>
<path d="M64.8648 95.9827L57.8086 104.477C57.8086 104.477 67.9302 111.33 77.0396 115.366C77.8783 111.824 79.9314 106.27 80.5749 102.662C75.4724 100.13 70.2268 97.8994 64.8648 95.9827Z" fill="#F9C941"/>
<path d="M0.0508796 75.43C0.491891 74.4862 4.42485 77.2667 5.29965 76.7368C6.17444 76.2068 1.75709 71.7347 2.21979 71.0087C3.0512 69.5567 7.33112 75.5897 7.75767 74.9508C8.18422 74.3119 4.06342 67.9015 5.53105 67.5458C6.99867 67.19 9.14589 74.6459 9.86886 74.1668C10.5918 73.6876 7.28779 67.4151 8.71204 66.1374C9.47116 65.4549 13.0499 77.5861 14.3585 78.0871C15.6671 78.588 17.1202 73.2956 18.3493 73.5061C19.5783 73.7166 14.3368 83.2488 14.5899 83.9893C14.8429 84.7299 19.6506 100.295 22.4774 104.999C24.1764 104.179 25.8393 103.359 27.4226 102.553C28.0588 106.183 29.7577 109.58 30.5963 113.123C25.1018 115.548 18.5661 117.69 16.9683 117.102C12.1099 115.301 9.7387 91.6194 8.9362 87.2055C8.13371 82.7915 6.04426 81.913 4.89474 79.5899C3.74522 77.2667 -0.404591 76.3665 0.0508796 75.43Z" fill="#F5BD9B"/>
<path d="M42.3231 95.2421L43.5955 114.473C43.5955 114.473 38.6722 110.459 29.5555 114.473C28.7241 110.931 26.6636 105.377 26.0273 101.769C31.2946 99.1996 36.7409 97.0183 42.3231 95.2421Z" fill="#F9C941"/>
<path d="M50.5936 81.383C50.5936 81.383 50.5937 81.6517 50.507 82.109C50.2539 84.287 49.1766 91.6412 48.2585 93.7248C47.1523 96.2077 53.2615 103.482 58.597 102.19C60.1803 101.805 56.7679 95.2494 56.8691 94.5234C57.0499 93.1368 57.2957 91.2419 57.5415 89.3036C57.6861 88.2073 57.8307 87.1256 57.9608 86.0584C58.344 83.0891 58.6838 80.6643 58.6838 80.6643L50.5936 81.383Z" fill="#F5BD9B"/>
<path d="M50.2828 83.8659L50.3624 83.1399L58.4306 82.4139C58.4306 82.4139 58.1198 84.8387 57.7077 87.8008C57.5703 88.8389 57.4329 89.9424 57.2883 91.0314C55.8265 90.8724 54.4424 90.2897 53.3047 89.3544C51.8779 88.2688 50.7588 86.8271 50.0586 85.1727C50.1526 84.6355 50.2394 84.2071 50.2828 83.8659Z" fill="#E47B60"/>
<path d="M54.953 62.7979C53.7063 62.7855 52.4751 63.0754 51.3637 63.6429C50.2524 64.2103 49.2938 65.0386 48.5693 66.0575C46.2558 69.506 44.2314 79.8513 50.8538 84.9332C57.4762 90.0151 63.3105 83.365 63.7949 76.686C64.2793 70.0069 64.0985 61.9485 54.953 62.7979Z" fill="#F5BD9B"/>
<path d="M65.6461 76.4608C64.9954 77.9709 63.7881 78.8711 62.9494 78.4573C62.1108 78.0435 61.9734 76.4899 62.6241 74.9798C63.2748 73.4698 64.4821 72.5696 65.3208 72.9834C66.1594 73.3972 66.2968 74.9508 65.6461 76.4608Z" fill="#F5BD9B"/>
<path d="M55.3363 61.6871C55.3363 61.6871 50.5793 71.6985 46.7476 72.4027C42.9158 73.1069 42.7495 78.2686 42.7495 78.2686C42.7495 78.2686 43.3495 66.3552 47.0222 63.8215C50.6949 61.2878 55.3363 61.6871 55.3363 61.6871Z" fill="black"/>
<path d="M47.9187 74.7548C48.3525 76.4463 47.8248 78.0653 46.7476 78.3847C45.6703 78.7041 44.4485 77.5498 44.0219 75.8583C43.5954 74.1667 44.1158 72.555 45.1931 72.2283C46.2703 71.9016 47.4921 73.0632 47.9187 74.7548Z" fill="#F5BD9B"/>
<path d="M58.9945 80.3013L52.7769 79.8367C52.7955 80.5449 53.0871 81.2183 53.59 81.7152C54.0929 82.2121 54.768 82.4938 55.4735 82.501C58.7992 82.8422 58.9945 80.3013 58.9945 80.3013Z" fill="#EFFAFD"/>
</g>
<path d="M69.0364 50.1075H38.3681C32.5066 50.1075 27.7549 54.8791 27.7549 60.765V104.266C27.7549 110.152 32.5066 114.924 38.3681 114.924H69.0364C74.8979 114.924 79.6496 110.152 79.6496 104.266V60.765C79.6496 54.8791 74.8979 50.1075 69.0364 50.1075Z" stroke="#6945A5" stroke-miterlimit="10"/>
<path d="M149.133 100.886L113.854 94.0388L105.632 136.756L140.91 143.604L149.133 100.886Z" fill="#CECEF2"/>
<path d="M141.753 119.12L123.049 115.49C122.81 115.444 122.598 115.304 122.461 115.101C122.324 114.898 122.273 114.649 122.319 114.408C122.365 114.167 122.504 113.955 122.707 113.817C122.909 113.68 123.157 113.629 123.396 113.675L142.1 117.305C142.339 117.351 142.551 117.491 142.688 117.694C142.825 117.897 142.876 118.146 142.83 118.386C142.784 118.627 142.644 118.84 142.442 118.977C142.24 119.115 141.992 119.166 141.753 119.12Z" fill="white"/>
<path d="M140.841 123.817L122.138 120.187C121.899 120.141 121.687 120.001 121.55 119.798C121.413 119.595 121.362 119.346 121.408 119.105C121.454 118.865 121.593 118.652 121.795 118.515C121.997 118.377 122.246 118.326 122.485 118.372L141.188 122.002C141.428 122.048 141.64 122.188 141.777 122.391C141.914 122.594 141.965 122.843 141.919 123.084C141.873 123.324 141.733 123.537 141.531 123.674C141.329 123.812 141.081 123.863 140.841 123.817Z" fill="white"/>
<path d="M139.916 128.645L121.206 125.015C120.974 124.958 120.773 124.814 120.645 124.613C120.516 124.412 120.47 124.168 120.516 123.934C120.561 123.699 120.695 123.491 120.89 123.353C121.084 123.215 121.324 123.157 121.56 123.192L140.263 126.822C140.492 126.881 140.69 127.024 140.817 127.224C140.943 127.424 140.989 127.665 140.945 127.898C140.9 128.13 140.769 128.337 140.578 128.476C140.387 128.615 140.15 128.675 139.916 128.645Z" fill="white"/>
<path d="M129.086 99.5399C129.029 99.8405 128.885 100.117 128.671 100.335C128.458 100.553 128.184 100.703 127.886 100.765C127.587 100.827 127.277 100.799 126.995 100.684C126.713 100.569 126.471 100.372 126.3 100.119C126.128 99.8659 126.036 99.5675 126.034 99.2615C126.032 98.9556 126.12 98.6559 126.288 98.4003C126.455 98.1448 126.694 97.9449 126.975 97.826C127.256 97.707 127.565 97.6744 127.865 97.7322C128.265 97.8096 128.619 98.0434 128.848 98.3823C129.077 98.7212 129.163 99.1375 129.086 99.5399Z" fill="#B7B7ED"/>
<path d="M198.564 221.549C198.565 222.856 198.181 224.134 197.459 225.221C196.737 226.309 195.709 227.157 194.507 227.658C193.305 228.159 191.982 228.291 190.706 228.037C189.429 227.783 188.256 227.154 187.335 226.23C186.414 225.307 185.787 224.13 185.533 222.848C185.278 221.566 185.408 220.237 185.906 219.03C186.404 217.822 187.247 216.79 188.329 216.064C189.411 215.338 190.683 214.95 191.985 214.95C193.728 214.95 195.401 215.645 196.634 216.882C197.868 218.12 198.562 219.798 198.564 221.549Z" fill="#5ABC3F"/>
<path d="M191.334 223.807C191.289 223.808 191.245 223.799 191.205 223.78C191.165 223.761 191.13 223.733 191.102 223.698L189.317 221.665C189.282 221.635 189.254 221.597 189.235 221.555C189.216 221.512 189.206 221.466 189.206 221.42C189.206 221.374 189.216 221.328 189.235 221.286C189.254 221.243 189.282 221.205 189.317 221.175C189.351 221.144 189.392 221.121 189.436 221.108C189.48 221.094 189.527 221.09 189.573 221.096C189.618 221.102 189.663 221.117 189.702 221.142C189.741 221.166 189.775 221.198 189.801 221.237L191.363 223.016L194.934 219.509C194.964 219.479 194.999 219.456 195.038 219.44C195.077 219.425 195.119 219.417 195.161 219.417C195.203 219.417 195.244 219.426 195.283 219.442C195.321 219.459 195.356 219.483 195.386 219.513C195.415 219.543 195.438 219.578 195.454 219.617C195.47 219.656 195.478 219.698 195.478 219.74C195.477 219.782 195.469 219.824 195.452 219.863C195.436 219.902 195.412 219.937 195.382 219.966L191.565 223.72C191.534 223.749 191.498 223.772 191.458 223.787C191.418 223.802 191.376 223.809 191.334 223.807Z" fill="white"/>
</g>
<defs>
<clipPath id="clip0">
<rect width="380" height="320" fill="white"/>
</clipPath>
</defs>
</svg>
