<svg width="62" height="63" viewBox="0 0 62 63" fill="none" xmlns="http://www.w3.org/2000/svg">
<circle cx="31" cy="31.3274" r="31" fill="#6945A5"/>
<path d="M23.4062 25.5625C23.0996 25.5625 22.8055 25.6843 22.5887 25.9012C22.3718 26.118 22.25 26.4121 22.25 26.7188C22.25 27.0254 22.3718 27.3195 22.5887 27.5363C22.8055 27.7532 23.0996 27.875 23.4062 27.875H30.3438C30.6504 27.875 30.9445 27.7532 31.1613 27.5363C31.3782 27.3195 31.5 27.0254 31.5 26.7188C31.5 26.4121 31.3782 26.118 31.1613 25.9012C30.9445 25.6843 30.6504 25.5625 30.3438 25.5625H23.4062Z" fill="white"/>
<path d="M22.25 31.3438C22.25 31.0371 22.3718 30.743 22.5887 30.5262C22.8055 30.3093 23.0996 30.1875 23.4062 30.1875H37.2812C37.5879 30.1875 37.882 30.3093 38.0988 30.5262C38.3157 30.743 38.4375 31.0371 38.4375 31.3438C38.4375 31.6504 38.3157 31.9445 38.0988 32.1613C37.882 32.3782 37.5879 32.5 37.2812 32.5H23.4062C23.0996 32.5 22.8055 32.3782 22.5887 32.1613C22.3718 31.9445 22.25 31.6504 22.25 31.3438Z" fill="white"/>
<path d="M23.4062 34.8125C23.0996 34.8125 22.8055 34.9343 22.5887 35.1512C22.3718 35.368 22.25 35.6621 22.25 35.9688C22.25 36.2754 22.3718 36.5695 22.5887 36.7863C22.8055 37.0032 23.0996 37.125 23.4062 37.125H32.6562C32.9629 37.125 33.257 37.0032 33.4738 36.7863C33.6907 36.5695 33.8125 36.2754 33.8125 35.9688C33.8125 35.6621 33.6907 35.368 33.4738 35.1512C33.257 34.9343 32.9629 34.8125 32.6562 34.8125H23.4062Z" fill="white"/>
<path d="M19.9375 20.9375C18.7109 20.9375 17.5345 21.4248 16.6671 22.2921C15.7998 23.1595 15.3125 24.3359 15.3125 25.5625V39.4375C15.3125 40.6641 15.7998 41.8405 16.6671 42.7079C17.5345 43.5752 18.7109 44.0625 19.9375 44.0625H43.0625C44.2891 44.0625 45.4655 43.5752 46.3329 42.7079C47.2002 41.8405 47.6875 40.6641 47.6875 39.4375V25.5625C47.6875 24.3359 47.2002 23.1595 46.3329 22.2921C45.4655 21.4248 44.2891 20.9375 43.0625 20.9375H19.9375ZM17.625 25.5625C17.625 24.9492 17.8686 24.361 18.3023 23.9273C18.736 23.4936 19.3242 23.25 19.9375 23.25H43.0625C43.6758 23.25 44.264 23.4936 44.6977 23.9273C45.1314 24.361 45.375 24.9492 45.375 25.5625V39.4375C45.375 40.0508 45.1314 40.639 44.6977 41.0727C44.264 41.5064 43.6758 41.75 43.0625 41.75H19.9375C19.3242 41.75 18.736 41.5064 18.3023 41.0727C17.8686 40.639 17.625 40.0508 17.625 39.4375V25.5625Z" fill="white"/>
</svg>
