<svg width="335" height="316" viewBox="0 0 335 316" fill="none" xmlns="http://www.w3.org/2000/svg">
<g clip-path="url(#clip0)">
<path d="M158.475 296.054L47.7545 295.649C45.9874 295.643 44.2389 295.289 42.609 294.607C40.9791 293.925 39.5 292.929 38.2561 291.676C37.0123 290.423 36.028 288.936 35.36 287.303C34.692 285.669 34.3532 283.92 34.363 282.155L35.2346 45.637C35.2408 43.8724 35.5954 42.1264 36.2781 40.4988C36.9609 38.8712 37.9585 37.3941 39.2137 36.152C40.4689 34.9099 41.957 33.9271 43.593 33.26C45.229 32.5929 46.9808 32.2546 48.7479 32.2644L159.469 32.6692C161.236 32.6754 162.984 33.0295 164.614 33.7114C166.244 34.3932 167.723 35.3893 168.967 36.6427C170.211 37.8961 171.195 39.3822 171.863 41.0159C172.531 42.6495 172.87 44.3987 172.86 46.1633L171.989 282.688C171.982 284.453 171.628 286.198 170.945 287.826C170.262 289.453 169.264 290.929 168.009 292.171C166.754 293.413 165.266 294.395 163.63 295.061C161.994 295.727 160.242 296.065 158.475 296.054Z" fill="white" stroke="#6945A5" stroke-miterlimit="10"/>
<path d="M156.961 38.1277L129.367 38.0265V40.3947C129.362 41.7553 128.816 43.0581 127.849 44.0171C126.883 44.976 125.575 45.5126 124.212 45.509L83.902 45.3606C83.2267 45.3579 82.5587 45.2225 81.9359 44.962C81.313 44.7015 80.7477 44.321 80.2721 43.8424C79.7965 43.3637 79.42 42.7962 79.1641 42.1723C78.9082 41.5483 78.7779 40.8801 78.7806 40.2058V37.8443L51.1797 37.7431C49.7672 37.7342 48.3669 38.0036 47.0588 38.5358C45.7506 39.068 44.5604 39.8526 43.5562 40.8446C42.5521 41.8367 41.7538 43.0167 41.2069 44.3172C40.6601 45.6178 40.3753 47.0132 40.3691 48.4237L39.5584 278.89C39.5486 280.301 39.8177 281.699 40.3503 283.006C40.8829 284.313 41.6686 285.502 42.6622 286.505C43.6558 287.507 44.838 288.305 46.1408 288.85C47.4436 289.396 48.8414 289.68 50.2541 289.685L156.042 290.07C157.455 290.08 158.857 289.812 160.166 289.281C161.474 288.749 162.665 287.965 163.67 286.972C164.674 285.98 165.473 284.799 166.019 283.498C166.565 282.196 166.849 280.8 166.853 279.389L167.698 48.923C167.707 47.5088 167.437 46.1067 166.902 44.7974C166.367 43.4881 165.577 42.2974 164.579 41.294C163.581 40.2906 162.395 39.4943 161.087 38.9508C159.78 38.4074 158.378 38.1276 156.961 38.1277Z" fill="#F6F5FF" stroke="#6945A5" stroke-miterlimit="10"/>
<path d="M94.7318 40.1634L94.7315 40.2443C94.7298 40.6915 95.0915 41.0554 95.5393 41.057L114.856 41.1277C115.304 41.1294 115.668 40.7681 115.67 40.3209L115.67 40.2401C115.672 39.7929 115.31 39.4291 114.863 39.4275L95.5456 39.3568C95.0978 39.3551 94.7334 39.7163 94.7318 40.1634Z" fill="#6945A5"/>
<mask id="mask0" style="mask-type:alpha" maskUnits="userSpaceOnUse" x="39" y="37" width="130" height="253">
<path d="M157.036 38.1264L129.633 38.0256V40.386C129.628 41.7421 129.086 43.0407 128.126 43.9964C127.166 44.9522 125.867 45.487 124.514 45.4834L84.4829 45.3355C83.8123 45.3328 83.1489 45.1978 82.5304 44.9382C81.9119 44.6786 81.3504 44.2994 80.8782 43.8223C80.4059 43.3452 80.032 42.7796 79.7778 42.1577C79.5237 41.5358 79.3943 40.8697 79.397 40.1977V37.844L51.9874 37.7431C50.5847 37.7343 49.194 38.0027 47.895 38.5332C46.5959 39.0636 45.4139 39.8456 44.4167 40.8344C43.4196 41.8232 42.6268 42.9994 42.0837 44.2956C41.5406 45.5918 41.2578 46.9827 41.2517 48.3886L40.4465 278.096C40.4368 279.502 40.7041 280.897 41.233 282.199C41.762 283.501 42.5421 284.686 43.5289 285.686C44.5156 286.686 45.6896 287.48 46.9834 288.024C48.2771 288.568 49.6652 288.851 51.0682 288.856L156.123 289.239C157.527 289.25 158.918 288.983 160.218 288.453C161.518 287.923 162.7 287.141 163.698 286.152C164.696 285.163 165.488 283.986 166.031 282.689C166.573 281.392 166.855 280 166.859 278.594L167.698 48.8862C167.708 47.4767 167.439 46.0792 166.908 44.7742C166.376 43.4692 165.592 42.2825 164.601 41.2823C163.61 40.2822 162.432 39.4885 161.133 38.9469C159.835 38.4052 158.442 38.1264 157.036 38.1264Z" fill="#F6F5FF" stroke="#6945A5" stroke-miterlimit="10"/>
</mask>
<g mask="url(#mask0)">
<path d="M155.049 272.035L117.888 275.692C117.888 275.692 116.287 245.276 116.341 230.77C116.402 213.167 117.983 190.503 120.104 190.962C126.077 192.352 134.111 195.685 138.874 202.264C155.374 225.096 155.049 272.035 155.049 272.035Z" fill="#CECEF2"/>
<path d="M136.955 227.734C137.712 233.131 151.489 379.043 151.489 379.043C83.7334 411.429 46.5045 384.488 46.5045 384.488C46.5045 384.488 49.072 282.054 46.4639 268.101C44.741 258.871 42.7681 197.561 48.7613 195.86C56.4503 193.688 65.2676 191.38 74.8688 190.416C83.0713 189.592 114.908 189.215 120.598 191.144C120.598 191.178 133.759 205.158 136.955 227.734Z" fill="#CECEF2"/>
<path d="M0.262207 257.59L32.3697 279.281C32.3697 279.281 50.6125 252.387 60.3691 242.847C72.6053 230.871 56.0921 193.985 48.2072 196.043C30.6332 200.624 0.262207 257.59 0.262207 257.59Z" fill="#CECEF2"/>
<path d="M83.9633 160.492L78.8823 190.854C78.8823 190.854 96.9699 229.582 107.862 226.364C117.01 223.665 111.503 190.443 111.503 190.443C111.503 190.443 106.584 172.59 108.125 163.67C109.665 154.751 83.9633 160.492 83.9633 160.492Z" fill="#EEEDF9"/>
<path d="M108.111 163.67C109.632 154.757 83.9633 160.492 83.9633 160.492L83.5444 163.104C84.1912 164.727 85.1274 166.22 86.3078 167.509C92.0171 173.433 100.963 177.009 108.699 177.306C107.943 172.489 107.483 167.327 108.111 163.67Z" fill="#EBEAF9"/>
<path d="M79.9092 115.888C79.1863 115.631 73.9769 151.762 83.5916 161.768C93.2062 171.774 111.969 175.073 118.773 167.26C126.266 158.624 126.023 119.767 111.057 109.485C96.0914 99.2021 79.9092 115.888 79.9092 115.888Z" fill="#EEEDF9"/>
<path d="M83.4768 101.975C78.2067 102.549 71.0447 105.349 63.6124 117.008C54.4707 131.386 61.126 147.369 71.6798 155.25C82.2336 163.131 82.0107 172.118 82.0107 172.118L83.7403 167.516C85.0076 163.99 85.4694 160.225 85.0916 156.498C84.9018 154.209 84.3309 151.967 83.4024 149.866C80.8755 144.623 88.9025 141.176 91.1592 136.83C92.9024 133.457 93.0104 125.819 95.7536 120.287L99.0238 116.07C99.0238 116.07 106.551 110.503 113.888 112.102C121.226 113.702 112.361 79.332 83.4768 101.975Z" fill="#B7B7ED"/>
<path d="M90.6793 143.233C90.7401 147.646 88.6523 151.249 85.9497 151.283C83.247 151.316 81.0851 147.767 81.0242 143.362C80.9634 138.956 83.0512 135.346 85.7539 135.312C88.4565 135.279 90.6185 138.828 90.6793 143.233Z" fill="#EBEAF9"/>
<path d="M107.064 152.963L120.253 150.392C120.253 150.392 120.929 155.452 115.158 156.755C108.131 158.333 107.064 152.963 107.064 152.963Z" fill="white"/>
<path d="M121.287 115.55H144.55C149.524 115.55 153.556 111.523 153.556 106.556V73.2731C153.556 68.3059 149.524 64.2793 144.55 64.2793H121.287C116.312 64.2793 112.28 68.3059 112.28 73.2731V106.556C112.28 111.523 116.312 115.55 121.287 115.55Z" fill="#F6F5FF" stroke="#6945A5" stroke-miterlimit="10"/>
<path d="M120.935 87.4488C120.961 83.603 121.943 79.8239 123.793 76.4511C125.469 73.4891 129.198 71.998 132.543 72.2139C143.09 72.8886 143.502 86.8955 149.853 92.7047C151.793 94.4792 153.995 95.9703 155.82 97.8662C162.576 104.87 158.522 116.758 151.556 122.021C146.725 125.691 139.394 127.472 133.989 123.991C131.204 122.071 129.028 119.395 127.719 116.279C125.746 111.941 124.611 107.008 123.307 102.441C121.908 97.5761 120.813 92.5293 120.935 87.4488Z" fill="#B7B7ED"/>
<path d="M136.495 99.7621C136.495 99.7621 146.009 100.767 148.536 103.426L142.353 136.891C142.353 136.891 130.617 138.639 123.124 136.068C123.124 136.068 118.915 109.235 122.712 102.663C123.976 100.471 129.739 100.383 129.739 100.383L136.495 99.7621Z" fill="#CECEF2"/>
<path d="M91.5033 85.8564C91.8547 85.1142 94.9831 87.307 95.6723 86.8886C96.3615 86.4703 92.875 82.9551 93.2263 82.3411C93.902 81.2076 97.2803 85.9575 97.6316 85.4583C97.983 84.959 94.6926 79.8784 95.8615 79.6018C97.0304 79.3252 98.7059 85.2154 99.3073 84.8375C99.9086 84.4597 97.2804 79.4938 98.3885 78.4818C98.9898 77.942 101.841 87.5363 102.875 87.9277C103.909 88.319 105.077 84.1358 106.05 84.3045C107.023 84.4732 102.855 91.9962 103.071 92.6034C103.287 93.2107 107.091 105.504 109.348 109.221C110.699 108.547 112.05 107.926 113.28 107.292C113.787 110.146 114.949 112.635 115.618 115.442C111.246 117.358 106.233 119.261 104.969 118.816C101.105 117.392 99.1993 98.6623 98.5777 95.1673C97.9561 91.6723 96.3007 90.9841 95.3615 89.1489C94.4223 87.3137 91.152 86.5985 91.5033 85.8564Z" fill="#EEEDF9"/>
<path d="M124.692 101.442L130.313 108.189C130.313 108.189 122.259 113.587 115.009 116.785C114.334 113.985 112.705 109.593 112.199 106.732C116.258 104.73 120.429 102.964 124.692 101.442Z" fill="#CECEF2"/>
<path d="M176.231 85.1682C175.887 84.426 172.752 86.6188 172.063 86.2005C171.373 85.7822 174.867 82.2669 174.508 81.6462C173.833 80.5127 170.454 85.2694 170.103 84.7634C169.752 84.2574 173.042 79.1903 171.873 78.9069C170.705 78.6235 169.029 84.5272 168.427 84.1494C167.826 83.7716 170.455 78.8057 169.353 77.7937C168.745 77.2539 165.894 86.8482 164.86 87.2396C163.826 87.6309 162.657 83.4477 161.684 83.6164C160.711 83.7851 164.88 91.3215 164.678 91.9085C164.475 92.4955 160.657 104.809 158.407 108.527C157.056 107.852 155.705 107.224 154.468 106.59C153.962 109.451 152.61 112.15 151.941 114.957C156.313 116.873 161.515 118.566 162.786 118.101C166.644 116.677 168.556 97.9472 169.171 94.4522C169.786 90.9572 171.448 90.269 172.387 88.427C173.326 86.5851 176.583 85.9239 176.231 85.1682Z" fill="#EEEDF9"/>
<path d="M142.604 100.835L141.583 116.049C141.583 116.049 145.502 112.878 152.752 116.049C153.428 113.249 155.056 108.85 155.563 105.996C151.373 103.967 147.042 102.242 142.604 100.835Z" fill="#CECEF2"/>
<path d="M136.023 89.8777C136.023 89.8777 136.023 90.0869 136.091 90.4512C136.293 92.1919 137.144 97.9876 137.874 99.6137C138.759 101.577 133.895 107.332 129.658 106.313C128.395 106.01 131.104 100.821 131.01 100.241C130.868 99.1414 130.672 97.6503 130.469 96.112C130.361 95.2483 130.246 94.3712 130.138 93.5413L129.584 89.2839L136.023 89.8777Z" fill="#EEEDF9"/>
<path d="M136.266 91.841C136.226 91.4766 136.205 91.2607 136.205 91.2607L129.787 90.6737C129.787 90.6737 130.037 92.5899 130.341 94.9379C130.449 95.761 130.557 96.6314 130.672 97.495C131.836 97.3596 132.937 96.891 133.841 96.1456C134.975 95.2874 135.865 94.1476 136.422 92.8395C136.374 92.4482 136.3 92.1109 136.266 91.841Z" fill="#EEEDF9"/>
<path d="M132.55 75.1758C133.541 75.1663 134.521 75.3955 135.406 75.8442C136.29 76.2928 137.053 76.9476 137.63 77.7532C139.468 80.452 141.103 88.6497 135.813 92.6844C130.523 96.7192 125.908 91.4429 125.523 86.16C125.138 80.877 125.279 74.5078 132.55 75.1758Z" fill="#EEEDF9"/>
<path d="M124.05 85.9846C124.57 87.1788 125.53 87.8872 126.192 87.5634C126.854 87.2395 126.969 86.0048 126.449 84.8106C125.928 83.6163 124.969 82.9079 124.307 83.2318C123.645 83.5556 123.53 84.7836 124.05 85.9846Z" fill="#EEEDF9"/>
<path d="M132.252 74.2987C132.252 74.2987 136.029 82.213 139.077 82.773C142.124 83.333 142.259 87.4082 142.259 87.4082C142.259 87.4082 141.786 77.9623 138.881 75.9855C136.898 74.754 134.583 74.1648 132.252 74.2987Z" fill="#B7B7ED"/>
<path d="M138.144 84.6352C137.806 85.9846 138.225 87.253 139.084 87.4892C139.942 87.7253 140.908 86.8145 141.252 85.465C141.597 84.1156 141.171 82.8539 140.313 82.6178C139.455 82.3816 138.489 83.2993 138.144 84.6352Z" fill="#EEEDF9"/>
<path d="M129.34 89.0208L134.286 88.6497C134.271 89.2106 134.038 89.7438 133.638 90.1375C133.237 90.5311 132.7 90.7547 132.138 90.7615C129.489 91.0314 129.34 89.0208 129.34 89.0208Z" fill="white"/>
<path d="M121.848 115.55H143.989C149.273 115.55 153.557 111.273 153.557 105.996V73.8331C153.557 68.5566 149.273 64.2793 143.989 64.2793H121.848C116.564 64.2793 112.28 68.5566 112.28 73.8331V105.996C112.28 111.273 116.564 115.55 121.848 115.55Z" stroke="#6945A5" stroke-miterlimit="10"/>
</g>
<path d="M289.75 315.324L165.198 314.872C161.188 314.856 157.349 313.251 154.524 310.409C151.698 307.568 150.118 303.722 150.131 299.718L151.111 33.6408C151.118 31.6582 151.516 29.6963 152.282 27.8674C153.049 26.0385 154.169 24.3783 155.578 22.9817C156.988 21.5851 158.659 20.4794 160.496 19.7279C162.333 18.9763 164.301 18.5936 166.286 18.6016L290.844 19.0536C294.854 19.0697 298.692 20.6751 301.517 23.5168C304.341 26.3585 305.919 30.2039 305.905 34.2075L304.925 300.285C304.918 302.267 304.52 304.229 303.753 306.058C302.987 307.887 301.867 309.547 300.458 310.944C299.048 312.34 297.377 313.446 295.54 314.198C293.703 314.949 291.735 315.332 289.75 315.324Z" fill="white" stroke="#6945A5" stroke-miterlimit="10"/>
<path d="M288.04 25.1328L256.96 25.0249V27.6832C256.957 28.4413 256.805 29.1915 256.511 29.8908C256.218 30.5902 255.79 31.2249 255.251 31.7588C254.712 32.2927 254.073 32.7152 253.37 33.0023C252.667 33.2893 251.915 33.4353 251.156 33.4317L205.812 33.2698C205.052 33.2671 204.301 33.1151 203.6 32.8224C202.9 32.5297 202.263 32.1021 201.728 31.5639C201.193 31.0257 200.769 30.3875 200.481 29.6858C200.193 28.9841 200.046 28.2325 200.049 27.4741V24.8157L169.002 24.701C167.416 24.6948 165.844 25.0007 164.376 25.6014C162.909 26.202 161.574 27.0855 160.448 28.2014C159.322 29.3173 158.428 30.6438 157.816 32.105C157.204 33.5663 156.886 35.1336 156.88 36.7175L155.928 295.98C155.922 297.564 156.228 299.134 156.829 300.599C157.431 302.065 158.316 303.398 159.433 304.522C160.551 305.646 161.879 306.539 163.342 307.15C164.806 307.762 166.375 308.079 167.961 308.084L286.966 308.523C288.555 308.533 290.13 308.229 291.602 307.631C293.073 307.032 294.412 306.149 295.542 305.033C296.672 303.917 297.57 302.589 298.185 301.126C298.8 299.663 299.121 298.093 299.128 296.506L300.074 37.2371C300.08 35.6532 299.773 34.0835 299.172 32.6179C298.571 31.1522 297.686 29.8193 296.568 28.6952C295.451 27.5712 294.122 26.678 292.659 26.0667C291.196 25.4555 289.626 25.1381 288.04 25.1328Z" fill="#F6F5FF" stroke="#6945A5" stroke-miterlimit="10"/>
<path d="M218.037 27.4216L218.037 27.5093C218.035 28.0123 218.442 28.4217 218.946 28.4235L240.675 28.503C241.179 28.5049 241.589 28.0985 241.59 27.5955L241.591 27.5078C241.593 27.0048 241.186 26.5954 240.682 26.5936L218.953 26.514C218.449 26.5122 218.039 26.9186 218.037 27.4216Z" fill="#6945A5"/>
<path d="M271.527 96.2603H212.069C210.651 96.2603 209.292 95.698 208.29 94.6971C207.287 93.6963 206.724 92.3388 206.724 90.9233V65.993L200.17 60.177H271.527C272.945 60.1788 274.305 60.7426 275.307 61.7445C276.309 62.7464 276.872 64.1046 276.872 65.5207V90.9233C276.872 92.3388 276.309 93.6963 275.306 94.6971C274.304 95.698 272.945 96.2603 271.527 96.2603Z" fill="#CECEF2"/>
<path d="M270.081 102.063C270.054 102.063 270.028 102.058 270.004 102.048C269.979 102.037 269.957 102.022 269.939 102.002L268.709 100.72C268.674 100.683 268.655 100.633 268.655 100.582C268.655 100.53 268.674 100.481 268.709 100.443C268.748 100.41 268.797 100.391 268.848 100.391C268.899 100.391 268.948 100.41 268.987 100.443L270.074 101.584L272.459 99.1615C272.496 99.1249 272.546 99.1042 272.598 99.1042C272.65 99.1042 272.7 99.1249 272.736 99.1615C272.754 99.1791 272.769 99.2001 272.778 99.2233C272.788 99.2465 272.793 99.2713 272.793 99.2965C272.793 99.3216 272.788 99.3465 272.778 99.3697C272.769 99.3928 272.754 99.4138 272.736 99.4314L270.209 102.002C270.175 102.037 270.13 102.059 270.081 102.063Z" fill="#EC665A"/>
<path d="M271.831 102.022H271.601C271.576 102.022 271.551 102.017 271.528 102.007C271.504 101.998 271.483 101.983 271.465 101.965C271.448 101.946 271.434 101.925 271.425 101.901C271.416 101.877 271.411 101.852 271.412 101.827C271.416 101.777 271.438 101.729 271.474 101.695C271.51 101.66 271.558 101.639 271.608 101.638H271.75L274.216 99.1347C274.253 99.098 274.303 99.0774 274.355 99.0774C274.407 99.0774 274.457 99.098 274.493 99.1347C274.511 99.1523 274.526 99.1732 274.535 99.1964C274.545 99.2196 274.55 99.2445 274.55 99.2696C274.55 99.2948 274.545 99.3196 274.535 99.3428C274.526 99.366 274.511 99.3869 274.493 99.4045L271.973 101.975C271.933 102.007 271.883 102.024 271.831 102.022Z" fill="#EC665A"/>
<path d="M216.238 69.8928H262.913" stroke="white" stroke-width="2" stroke-linecap="round" stroke-linejoin="round"/>
<path d="M216.238 77.8949H262.913" stroke="white" stroke-width="2" stroke-linecap="round" stroke-linejoin="round"/>
<path d="M216.238 86.2679H240.339" stroke="white" stroke-width="2" stroke-linecap="round" stroke-linejoin="round"/>
<path d="M183.015 81.4437C188.736 81.4437 193.373 76.8129 193.373 71.1004C193.373 65.388 188.736 60.7572 183.015 60.7572C177.295 60.7572 172.657 65.388 172.657 71.1004C172.657 76.8129 177.295 81.4437 183.015 81.4437Z" fill="#CECEF2"/>
<path d="M252.575 101.111H264.622" stroke="#CECEF2" stroke-width="2" stroke-linecap="round" stroke-linejoin="round"/>
<path d="M301.08 149.124C309.45 149.124 316.235 142.363 316.235 134.024C316.235 125.684 309.45 118.924 301.08 118.924C292.71 118.924 285.925 125.684 285.925 134.024C285.925 142.363 292.71 149.124 301.08 149.124Z" fill="#6945A5"/>
<path d="M301.702 124.2H301V127.735H301.702V124.2Z" fill="#FFA03E"/>
<path d="M291.013 138.335C292.147 138.335 293.067 137.417 293.067 136.284C293.067 135.151 292.147 134.233 291.013 134.233C289.879 134.233 288.959 135.151 288.959 136.284C288.959 137.417 289.879 138.335 291.013 138.335Z" fill="white"/>
<path d="M311.783 138.2C312.917 138.2 313.837 137.282 313.837 136.149C313.837 135.016 312.917 134.098 311.783 134.098C310.649 134.098 309.729 135.016 309.729 136.149C309.729 137.282 310.649 138.2 311.783 138.2Z" fill="white"/>
<path d="M301.648 126.993C301.648 126.993 310.013 126.899 311.337 134.132C312.661 141.364 305.587 141.499 303.553 141.634C302.634 141.702 300.662 141.709 298.918 141.675C295.06 141.607 292.337 140.865 291.412 137.289C291.301 136.872 291.231 136.445 291.202 136.014C290.959 132.094 293.608 126.804 301.648 126.993Z" fill="white"/>
<path d="M295.58 138.018L307.742 138.207C308.354 138.216 308.944 137.982 309.384 137.557C309.824 137.132 310.076 136.551 310.087 135.94C310.096 135.329 309.862 134.739 309.436 134.301C309.011 133.862 308.428 133.609 307.817 133.599L295.655 133.41C295.352 133.404 295.05 133.459 294.768 133.57C294.486 133.681 294.229 133.847 294.011 134.057C293.794 134.268 293.619 134.519 293.499 134.797C293.379 135.075 293.315 135.374 293.31 135.677C293.301 136.288 293.535 136.877 293.961 137.316C294.386 137.755 294.969 138.007 295.58 138.018Z" fill="#FFA03E"/>
<path d="M302.499 124.132C302.499 124.361 302.431 124.584 302.305 124.773C302.178 124.963 301.997 125.111 301.786 125.198C301.575 125.286 301.343 125.308 301.118 125.264C300.894 125.219 300.689 125.11 300.527 124.948C300.365 124.787 300.255 124.581 300.211 124.357C300.166 124.134 300.189 123.902 300.276 123.691C300.364 123.48 300.512 123.3 300.702 123.173C300.892 123.046 301.115 122.979 301.344 122.979C301.65 122.979 301.944 123.1 302.161 123.317C302.378 123.533 302.499 123.826 302.499 124.132Z" fill="white"/>
<path d="M185.171 164.75H259.993C261.78 164.75 263.493 164.044 264.759 162.786C266.025 161.528 266.741 159.82 266.75 158.036V126.656L275 119.349H185.171C183.379 119.349 181.66 120.06 180.393 121.325C179.126 122.59 178.414 124.306 178.414 126.096V158.07C178.432 159.848 179.152 161.547 180.417 162.797C181.682 164.048 183.39 164.75 185.171 164.75Z" fill="#FFA03E"/>
<path d="M253.399 130.144H188.867" stroke="white" stroke-width="2" stroke-linecap="round" stroke-linejoin="round"/>
<path d="M253.399 138.686H188.867" stroke="white" stroke-width="2" stroke-linecap="round" stroke-linejoin="round"/>
<path d="M213.447 153.887H188.867" stroke="white" stroke-width="2" stroke-linecap="round" stroke-linejoin="round"/>
<path d="M184.211 202.648H243.67C245.087 202.648 246.446 202.086 247.449 201.085C248.451 200.084 249.014 198.727 249.014 197.311V180.336L255.568 174.526H184.211C182.794 174.526 181.434 175.089 180.432 176.089C179.43 177.09 178.867 178.448 178.867 179.863V197.311C178.867 198.727 179.43 200.084 180.432 201.085C181.434 202.086 182.794 202.648 184.211 202.648Z" fill="#FFA03E"/>
<path d="M236.838 184.276H190.17" stroke="white" stroke-width="2" stroke-linecap="round" stroke-linejoin="round"/>
<path d="M214.008 192.656H189.914" stroke="white" stroke-width="2" stroke-linecap="round" stroke-linejoin="round"/>
<path d="M270.385 256.975H210.926C209.509 256.975 208.15 256.413 207.147 255.412C206.145 254.411 205.582 253.054 205.582 251.638V226.674L199.015 220.865H270.371C271.79 220.867 273.15 221.43 274.153 222.432C275.156 223.434 275.721 224.792 275.723 226.209V251.611C275.725 252.314 275.589 253.01 275.322 253.66C275.055 254.309 274.663 254.9 274.167 255.398C273.671 255.897 273.082 256.292 272.433 256.563C271.784 256.833 271.088 256.974 270.385 256.975Z" fill="#CECEF2"/>
<path d="M268.939 262.778C268.913 262.778 268.886 262.773 268.862 262.763C268.837 262.752 268.815 262.737 268.797 262.717L267.568 261.435C267.55 261.417 267.536 261.395 267.527 261.371C267.517 261.347 267.513 261.321 267.514 261.295C267.515 261.244 267.537 261.194 267.574 261.159C267.612 261.123 267.662 261.103 267.714 261.105C267.766 261.106 267.816 261.128 267.851 261.165L268.939 262.306L271.324 259.883C271.341 259.86 271.362 259.841 271.386 259.827C271.411 259.813 271.438 259.804 271.467 259.801C271.495 259.799 271.523 259.802 271.55 259.812C271.577 259.821 271.601 259.836 271.621 259.856C271.641 259.876 271.657 259.9 271.667 259.926C271.677 259.953 271.682 259.981 271.68 260.009C271.678 260.038 271.67 260.065 271.656 260.09C271.643 260.115 271.624 260.136 271.601 260.153L269.074 262.717C269.057 262.736 269.037 262.751 269.013 262.762C268.99 262.772 268.965 262.778 268.939 262.778Z" fill="#EC665A"/>
<path d="M270.689 262.737H270.459C270.434 262.737 270.409 262.732 270.385 262.722C270.362 262.712 270.341 262.698 270.323 262.68C270.305 262.661 270.292 262.64 270.283 262.616C270.273 262.592 270.269 262.567 270.27 262.542C270.273 262.492 270.295 262.444 270.332 262.409C270.368 262.374 270.416 262.354 270.466 262.353H270.608L273.074 259.85C273.112 259.815 273.161 259.795 273.213 259.795C273.264 259.795 273.314 259.815 273.351 259.85C273.388 259.886 273.409 259.936 273.409 259.988C273.409 260.04 273.388 260.089 273.351 260.126L270.831 262.69C270.792 262.724 270.741 262.741 270.689 262.737Z" fill="#EC665A"/>
<path d="M215.096 230.608H261.77" stroke="white" stroke-width="2" stroke-linecap="round" stroke-linejoin="round"/>
<path d="M215.096 238.61H261.77" stroke="white" stroke-width="2" stroke-linecap="round" stroke-linejoin="round"/>
<path d="M215.096 246.983H239.197" stroke="white" stroke-width="2" stroke-linecap="round" stroke-linejoin="round"/>
<path d="M181.874 242.159C187.594 242.159 192.231 237.528 192.231 231.816C192.231 226.103 187.594 221.472 181.874 221.472C176.153 221.472 171.516 226.103 171.516 231.816C171.516 237.528 176.153 242.159 181.874 242.159Z" fill="#CECEF2"/>
<path d="M251.433 261.826H263.48" stroke="#CECEF2" stroke-width="2" stroke-linecap="round" stroke-linejoin="round"/>
<path d="M283.398 288.376H173.184C170.74 288.376 168.759 290.355 168.759 292.795C168.759 295.236 170.74 297.215 173.184 297.215H283.398C285.843 297.215 287.824 295.236 287.824 292.795C287.824 290.355 285.843 288.376 283.398 288.376Z" fill="white" stroke="#6945A5" stroke-miterlimit="10"/>
<path d="M35.2884 214.455C51.1476 214.455 64.004 201.617 64.004 185.78C64.004 169.944 51.1476 157.105 35.2884 157.105C19.4292 157.105 6.57275 169.944 6.57275 185.78C6.57275 201.617 19.4292 214.455 35.2884 214.455Z" fill="#F6F5FF"/>
<mask id="mask1" style="mask-type:alpha" maskUnits="userSpaceOnUse" x="6" y="157" width="59" height="58">
<path d="M35.2884 214.455C51.1476 214.455 64.004 201.617 64.004 185.78C64.004 169.944 51.1476 157.105 35.2884 157.105C19.4292 157.105 6.57275 169.944 6.57275 185.78C6.57275 201.617 19.4292 214.455 35.2884 214.455Z" fill="#F6F5FF"/>
</mask>
<g mask="url(#mask1)">
<path d="M48.0652 175.201L47.9232 174.938V174.863C47.6665 174.189 47.3894 173.595 47.0786 172.968C45.0517 168.818 39.9572 166.463 35.329 166.457C33.931 166.447 32.5388 166.635 31.194 167.017C29.2954 167.867 24.667 170.809 23.4643 179.573C23.0516 182.6 23.6374 185.679 25.1332 188.344C23.8899 189.127 22.2548 190.706 21.0792 193.904C18.9036 199.78 8.00512 201.089 6.89028 208.923C5.77544 216.756 17.1334 230.898 29.1129 221.742C38.2343 214.786 36.7546 201.501 35.5249 195.591C38.6065 195.998 41.7339 195.32 44.3694 193.674C45.8957 192.833 47.203 191.645 48.1863 190.207C49.1697 188.77 49.8016 187.122 50.0314 185.396C49.9642 181.91 49.2992 178.462 48.0652 175.201Z" fill="black"/>
<path d="M37.4166 195.671C29.9843 195.671 24.7006 188.965 24.4776 188.675C24.3761 188.536 24.3315 188.364 24.3529 188.193C24.3742 188.023 24.46 187.867 24.5926 187.757C24.7324 187.657 24.9052 187.613 25.076 187.636C25.2469 187.658 25.4026 187.745 25.5114 187.879C25.5587 187.939 30.6397 194.369 37.4166 194.369C37.5597 194.408 37.6861 194.493 37.7762 194.611C37.8663 194.728 37.9151 194.872 37.9151 195.02C37.9151 195.168 37.8663 195.313 37.7762 195.43C37.6861 195.548 37.5597 195.633 37.4166 195.671Z" fill="#EC665A"/>
<path d="M50.3691 211.608C46.3624 199.463 41.876 199.976 41.876 199.976L45.3422 225.521C47.8219 224.846 51.0447 223.341 53.5176 222.639C52.6587 218.911 51.6078 215.229 50.3691 211.608Z" fill="#4C3C99"/>
<path d="M31.5992 197.797C31.5992 197.797 24.2142 197.325 21.2886 200.496C18.363 203.667 27.7751 228.914 28.3088 232.976C28.8426 237.038 25.6062 247.819 25.6062 247.819C25.6062 247.819 42.9707 251.314 47.903 248.029C47.903 248.029 48.4368 218.841 47.903 215.94C47.3693 213.038 42.9436 201.251 41.876 200.091C40.8085 198.93 31.5992 197.797 31.5992 197.797Z" fill="#5E4C9A"/>
<path d="M34.0658 187.912L33.9575 188.499C33.6265 190.281 32.3563 196.177 31.4982 197.804C30.4644 199.76 35.0454 206.015 39.4575 205.225C40.7683 205.003 38.3493 199.484 38.4642 198.903C38.6871 197.783 38.9913 196.258 39.2954 194.693C39.471 193.809 39.6466 192.912 39.8155 192.075L40.6736 187.73L34.0658 187.912Z" fill="#F5BD9B"/>
<path d="M33.9576 188.479L34.0658 187.892L40.6737 187.73L39.8156 192.075C39.6466 192.912 39.4779 193.803 39.3022 194.68C38.1189 194.467 37.0226 193.917 36.1468 193.094C35.0514 192.139 34.2266 190.912 33.7549 189.538L33.9576 188.479Z" fill="#E47B60"/>
<path d="M38.5111 172.88C37.5541 172.805 36.593 172.963 35.7105 173.34C34.8279 173.717 34.0501 174.303 33.4437 175.046C31.491 177.576 29.3898 185.389 34.2343 189.64C39.0788 193.89 43.8759 189.08 44.5921 183.979C45.3083 178.878 45.5785 172.698 38.5111 172.88Z" fill="#F5BD9B"/>
<path d="M46.0249 183.905C45.4438 185.031 44.4709 185.652 43.856 185.295C43.2412 184.937 43.1803 183.736 43.7816 182.596C44.383 181.456 45.3289 180.848 45.9505 181.206C46.5721 181.563 46.6059 182.778 46.0249 183.905Z" fill="#F5BD9B"/>
<path d="M32.4981 181.685C32.7413 183.034 32.2548 184.215 31.4102 184.384C30.5656 184.552 29.6941 183.628 29.4508 182.305C29.2076 180.983 29.694 179.775 30.5386 179.607C31.3831 179.438 32.2616 180.383 32.4981 181.685Z" fill="#F5BD9B"/>
<path d="M30.0993 225.919C30.0993 225.919 33.4775 210.981 32.5654 206.285C31.6532 201.589 25.7345 197.513 21.9305 199.403C18.1265 201.292 20.1265 223.469 20.1265 223.469L30.0993 225.919Z" fill="#4C3C99"/>
<path d="M40.7004 186.016L35.356 185.625C35.3734 186.231 35.6254 186.806 36.0588 187.23C36.4923 187.654 37.0734 187.894 37.6802 187.899C40.5315 188.189 40.7004 186.016 40.7004 186.016Z" fill="#EFFAFD"/>
</g>
<path d="M35.2884 214.455C51.1476 214.455 64.004 201.617 64.004 185.78C64.004 169.944 51.1476 157.105 35.2884 157.105C19.4292 157.105 6.57275 169.944 6.57275 185.78C6.57275 201.617 19.4292 214.455 35.2884 214.455Z" stroke="#6945A5" stroke-width="1.5" stroke-miterlimit="10"/>
<path d="M302.405 57.856C318.264 57.856 331.12 45.0178 331.12 29.181C331.12 13.3442 318.264 0.505981 302.405 0.505981C286.545 0.505981 273.689 13.3442 273.689 29.181C273.689 45.0178 286.545 57.856 302.405 57.856Z" fill="#F6F5FF"/>
<mask id="mask2" style="mask-type:alpha" maskUnits="userSpaceOnUse" x="273" y="0" width="59" height="58">
<path d="M302.405 57.856C318.264 57.856 331.121 45.0178 331.121 29.181C331.121 13.3442 318.264 0.505981 302.405 0.505981C286.546 0.505981 273.689 13.3442 273.689 29.181C273.689 45.0178 286.546 57.856 302.405 57.856Z" fill="#C4C4C4"/>
</mask>
<g mask="url(#mask2)">
<path d="M280.534 70.2908L293.425 71.5998C293.425 71.5998 294.013 61.0473 294.013 56.014C294.013 49.9417 293.493 42.0409 292.757 42.2096C290.682 42.6886 287.892 43.8288 286.23 46.1093C280.48 54.0034 280.534 70.2908 280.534 70.2908Z" fill="#F7A09C"/>
<path d="M317.932 73.3742C317.947 71.9274 318.053 70.4829 318.249 69.0493C318.858 65.8512 319.601 44.5845 317.54 43.984C314.581 43.0772 311.546 42.4359 308.473 42.0678C305.628 41.7709 294.581 41.6022 292.608 42.2635C289.543 45.8668 287.559 50.2614 286.885 54.9412C286.784 55.6631 285.973 63.7529 285.014 73.3742H317.932Z" fill="#EC665A"/>
<path d="M334.262 65.46L323.094 72.9492C323.094 72.9492 316.797 63.5978 313.418 60.2647C309.189 56.095 314.965 43.3228 317.688 44.0718C323.79 45.6573 334.262 65.46 334.262 65.46Z" fill="#F7A09C"/>
<path d="M298.337 9.51329C298.337 9.51329 302.162 5.46503 305.243 10.3836C305.924 10.0104 306.722 9.91015 307.475 10.1031C308.228 10.2961 308.879 10.7679 309.297 11.4227C309.297 11.4227 313.58 10.134 314.621 16.5302C314.621 16.5302 316.824 16.1186 317.114 18.7298C317.298 20.2621 316.929 21.8098 316.074 23.0951C316.074 23.0951 317.31 24.0195 316.749 26.4282C316.649 26.987 316.391 27.5057 316.006 27.9229C315.62 28.3401 315.123 28.6385 314.574 28.7829C314.574 28.7829 314.121 32.2307 312.621 33.2697C311.554 33.8903 310.291 34.0832 309.087 33.8095C309.087 33.8095 308.547 35.6784 306.797 35.5097C305.047 35.3411 302.891 33.6813 300.939 34.4302C298.986 35.1791 293.905 34.3897 293.905 34.3897C293.905 34.3897 288.209 31.8528 289.919 26.0436C289.919 26.0436 286.919 23.3448 289.54 20.1062C289.54 20.1062 287.628 15.0391 291.412 12.0502C295.196 9.06124 298.337 9.51329 298.337 9.51329Z" fill="#1A1A1A"/>
<path d="M299.013 36.8592L298.338 41.9937C298.338 41.9937 296.79 49.4155 298.783 50.8121C300.777 52.2088 307.27 41.7846 307.27 41.7846L306.594 28.783L299.013 36.8592Z" fill="#F5BD9B"/>
<path d="M306.756 32.9931C305.108 37.4259 301.182 40.1517 298.398 41.211L298.986 36.8592L306.54 28.7627L306.756 32.9931Z" fill="#E47B60"/>
<path d="M317.162 19.9443C317.162 21.9212 316.033 23.527 314.641 23.527C313.249 23.527 312.121 21.9212 312.121 19.9443C312.121 17.9674 313.249 16.3616 314.641 16.3616C316.033 16.3616 317.162 17.9674 317.162 19.9443Z" fill="#1A1A1A"/>
<path d="M306.54 14.297C308.234 14.297 309.608 13.3756 309.608 12.2391C309.608 11.1026 308.234 10.1813 306.54 10.1813C304.846 10.1813 303.473 11.1026 303.473 12.2391C303.473 13.3756 304.846 14.297 306.54 14.297Z" fill="#1A1A1A"/>
<path d="M301.925 15.1201C300.975 14.8004 299.966 14.6923 298.97 14.8032C297.974 14.9142 297.014 15.2415 296.157 15.7623C295.301 16.2831 294.569 16.9846 294.013 17.8178C293.457 18.651 293.091 19.5955 292.939 20.5852C292.611 22.7659 292.426 24.9656 292.385 27.1703C292.27 33.1617 295.378 38.9912 298.108 38.9912C300.837 38.9912 308.364 35.1117 308.635 26.6036C308.804 21.3544 306.175 16.5842 301.925 15.1201Z" fill="#F5BD9B"/>
<path d="M306.628 27.2784C306.628 28.6278 307.506 29.6736 308.587 29.6736C309.668 29.6736 310.547 28.6008 310.547 27.2784C310.547 25.956 309.668 24.8832 308.587 24.8832C307.506 24.8832 306.628 25.956 306.628 27.2784Z" fill="#F5BD9B"/>
<path d="M290.121 12.1378C287.304 14.3644 286.317 17.7514 287.919 19.6945C289.52 21.6377 293.094 21.415 295.905 19.1885C298.716 16.962 299.709 13.5817 298.108 11.6318C296.506 9.68189 292.932 9.91129 290.121 12.1378Z" fill="#1A1A1A"/>
<path d="M297.479 13.9663C297.479 14.9311 298.648 15.7205 300.094 15.7205C301.54 15.7205 302.709 14.9311 302.709 13.9663C302.709 13.0014 301.534 12.212 300.094 12.212C298.655 12.212 297.479 12.9947 297.479 13.9663Z" fill="#1A1A1A"/>
<path d="M289.703 21.4152C289.708 21.8543 289.843 22.2821 290.091 22.6447C290.34 23.0073 290.69 23.2885 291.098 23.4529C291.506 23.6173 291.953 23.6575 292.384 23.5686C292.814 23.4797 293.209 23.2655 293.518 22.9531C293.827 22.6406 294.037 22.2439 294.121 21.8127C294.205 21.3816 294.159 20.9353 293.99 20.53C293.82 20.1247 293.534 19.7786 293.168 19.5351C292.802 19.2916 292.372 19.1617 291.932 19.1616C291.638 19.1634 291.346 19.2231 291.075 19.3373C290.803 19.4515 290.557 19.618 290.35 19.8273C290.143 20.0365 289.979 20.2845 289.868 20.5569C289.757 20.8294 289.701 21.121 289.703 21.4152Z" fill="#1A1A1A"/>
<path d="M295.25 32.4196L300.581 32.6287C300.505 33.2312 300.195 33.7802 299.72 34.1583C299.244 34.5365 298.639 34.714 298.034 34.6528C295.169 34.5921 295.25 32.4196 295.25 32.4196Z" fill="#EFFAFD"/>
</g>
<path d="M302.405 57.856C318.264 57.856 331.121 45.0178 331.121 29.181C331.121 13.3442 318.264 0.505981 302.405 0.505981C286.546 0.505981 273.689 13.3442 273.689 29.181C273.689 45.0178 286.546 57.856 302.405 57.856Z" stroke="#6945A5" stroke-width="1.5" stroke-miterlimit="10"/>
<path d="M101.74 276.839C106.714 276.839 110.747 272.812 110.747 267.845C110.747 262.878 106.714 258.851 101.74 258.851C96.7658 258.851 92.7334 262.878 92.7334 267.845C92.7334 272.812 96.7658 276.839 101.74 276.839Z" fill="#766BC9"/>
<path d="M106.233 269.235C106.256 269.212 106.275 269.185 106.288 269.155C106.301 269.125 106.307 269.092 106.307 269.059V268.52C106.263 268.098 106.117 267.693 105.882 267.341C105.647 266.988 105.329 266.698 104.956 266.496C103.983 265.896 102.863 265.579 101.719 265.579C100.576 265.579 99.4557 265.896 98.483 266.496C98.1101 266.698 97.7924 266.988 97.5569 267.341C97.3215 267.693 97.1755 268.098 97.1317 268.52V269.059C97.1334 269.125 97.1604 269.188 97.2069 269.234C97.2534 269.28 97.316 269.307 97.3817 269.309H98.9223C98.988 269.307 99.0506 269.28 99.0971 269.234C99.1436 269.188 99.1705 269.125 99.1722 269.059V268.52C99.1791 268.247 99.2544 267.981 99.3914 267.745C99.5284 267.509 99.7224 267.312 99.9559 267.17C100.477 266.84 101.082 266.664 101.699 266.664C102.317 266.664 102.921 266.84 103.442 267.17C103.676 267.312 103.87 267.509 104.007 267.745C104.144 267.981 104.219 268.247 104.226 268.52V269.059C104.228 269.125 104.255 269.188 104.301 269.234C104.348 269.28 104.41 269.307 104.476 269.309H106.017C106.049 269.309 106.082 269.303 106.112 269.29C106.142 269.277 106.17 269.258 106.192 269.235H106.233ZM97.4492 266.536C97.6557 266.326 97.882 266.136 98.1249 265.969C99.2017 265.294 100.448 264.935 101.719 264.935C102.991 264.935 104.237 265.294 105.314 265.969C105.777 266.263 106.175 266.649 106.483 267.103C106.773 267.529 106.93 268.031 106.936 268.547V269.086C106.934 269.324 106.839 269.552 106.671 269.721C106.503 269.89 106.275 269.987 106.037 269.991H104.496C104.257 269.989 104.028 269.893 103.858 269.724C103.689 269.555 103.593 269.326 103.591 269.086V268.547C103.579 268.382 103.528 268.223 103.441 268.083C103.354 267.943 103.234 267.827 103.091 267.744C102.678 267.492 102.203 267.359 101.719 267.359C101.236 267.359 100.761 267.492 100.348 267.744C100.205 267.827 100.085 267.943 99.9981 268.083C99.911 268.223 99.8594 268.382 99.8478 268.547V269.086C99.8461 269.326 99.7502 269.555 99.5808 269.724C99.4114 269.893 99.182 269.989 98.9424 269.991H97.402C97.1625 269.989 96.9331 269.893 96.7636 269.724C96.5942 269.555 96.4984 269.326 96.4966 269.086V268.547C96.5043 268.031 96.664 267.528 96.956 267.103C97.0915 266.898 97.2477 266.708 97.4222 266.536H97.4492Z" fill="white"/>
<path d="M279.392 204.024C287.762 204.024 294.547 197.264 294.547 188.925C294.547 180.585 287.762 173.825 279.392 173.825C271.022 173.825 264.237 180.585 264.237 188.925C264.237 197.264 271.022 204.024 279.392 204.024Z" fill="#6945A5"/>
<path d="M280.013 179.101H279.311V182.636H280.013V179.101Z" fill="#FFA03E"/>
<path d="M269.325 193.236C270.459 193.236 271.379 192.318 271.379 191.185C271.379 190.052 270.459 189.134 269.325 189.134C268.19 189.134 267.271 190.052 267.271 191.185C267.271 192.318 268.19 193.236 269.325 193.236Z" fill="white"/>
<path d="M290.094 193.101C291.228 193.101 292.148 192.183 292.148 191.05C292.148 189.917 291.228 188.999 290.094 188.999C288.96 188.999 288.04 189.917 288.04 191.05C288.04 192.183 288.96 193.101 290.094 193.101Z" fill="white"/>
<path d="M279.966 181.901C279.966 181.901 288.331 181.8 289.655 189.032C290.979 196.265 283.905 196.4 281.871 196.542C280.946 196.603 278.973 196.609 277.23 196.542C273.372 196.474 270.649 195.732 269.723 192.156C269.612 191.739 269.542 191.312 269.514 190.881C269.284 186.995 271.926 181.732 279.966 181.901Z" fill="white"/>
<path d="M273.899 192.919L286.061 193.108C286.672 193.117 287.263 192.883 287.702 192.458C288.142 192.033 288.394 191.452 288.405 190.841C288.414 190.23 288.18 189.64 287.755 189.201C287.329 188.763 286.746 188.51 286.135 188.499L273.973 188.311C273.67 188.305 273.369 188.36 273.088 188.471C272.806 188.582 272.549 188.748 272.332 188.958C272.115 189.169 271.941 189.421 271.822 189.699C271.702 189.976 271.639 190.275 271.635 190.578C271.63 190.88 271.684 191.18 271.795 191.461C271.906 191.742 272.071 191.999 272.281 192.216C272.491 192.434 272.742 192.608 273.02 192.728C273.297 192.849 273.596 192.913 273.899 192.919Z" fill="#FFA03E"/>
<path d="M280.811 179.033C280.811 179.262 280.743 179.485 280.616 179.674C280.489 179.864 280.309 180.012 280.098 180.099C279.886 180.187 279.654 180.209 279.43 180.165C279.206 180.12 279 180.01 278.838 179.849C278.677 179.688 278.567 179.482 278.522 179.258C278.478 179.035 278.501 178.803 278.588 178.592C278.675 178.381 278.823 178.201 279.013 178.074C279.203 177.947 279.427 177.88 279.655 177.88C279.962 177.88 280.256 178.001 280.472 178.218C280.689 178.434 280.811 178.727 280.811 179.033Z" fill="white"/>
</g>
<defs>
<clipPath id="clip0">
<rect width="334" height="395" fill="white" transform="translate(0.262207)"/>
</clipPath>
</defs>
</svg>
