<svg width="62" height="63" viewBox="0 0 62 63" fill="none" xmlns="http://www.w3.org/2000/svg">
<circle cx="31" cy="31.3931" r="31" fill="#6945A5"/>
<path d="M39.89 34C40.3209 34 40.7476 34.0873 41.1457 34.2569C41.5438 34.4265 41.9055 34.6751 42.2102 34.9885C42.5149 35.3019 42.7566 35.674 42.9215 36.0834C43.0864 36.4929 43.1712 36.9318 43.1712 37.375V38.7325C43.1714 39.5433 43.0012 40.3446 42.6722 41.0815C42.3432 41.8183 41.8632 42.4733 41.2652 43.0015C38.9814 45.0175 35.7148 46 31.5002 46C27.2856 46 24.0218 45.016 21.7425 43C21.1452 42.4721 20.6659 41.8178 20.3372 41.0818C20.0084 40.3458 19.8381 39.5455 19.8379 38.7355V37.3735C19.8383 36.4787 20.1842 35.6206 20.7995 34.988C21.4148 34.3554 22.2492 34 23.1191 34H39.89ZM39.89 36.25H23.1191C22.8291 36.25 22.5509 36.3685 22.3457 36.5795C22.1406 36.7905 22.0254 37.0766 22.0254 37.375V38.737C22.0254 39.7195 22.4425 40.654 23.1687 41.296C25.0033 42.9175 27.7668 43.753 31.5002 43.753C35.2335 43.753 38.0014 42.9175 39.8404 41.293C40.1989 40.9763 40.4866 40.5837 40.684 40.142C40.8813 39.7004 40.9835 39.2201 40.9837 38.734V37.375C40.9837 37.0766 40.8685 36.7905 40.6634 36.5795C40.4583 36.3685 40.1801 36.25 39.89 36.25ZM31.3514 16.012L31.5002 16C31.7645 16 32.0198 16.0985 32.219 16.2772C32.4182 16.4558 32.5478 16.7027 32.5837 16.972L32.5939 17.125V18.25H37.6981C38.5683 18.25 39.4029 18.6056 40.0183 19.2385C40.6336 19.8715 40.9793 20.7299 40.9793 21.625V28.3825C40.9793 29.2776 40.6336 30.1361 40.0183 30.769C39.4029 31.4019 38.5683 31.7575 37.6981 31.7575H25.3023C24.432 31.7575 23.5974 31.4019 22.9821 30.769C22.3667 30.1361 22.021 29.2776 22.021 28.3825V21.625C22.021 20.7299 22.3667 19.8715 22.9821 19.2385C23.5974 18.6056 24.432 18.25 25.3023 18.25H30.4064V17.1265C30.4064 16.8546 30.5022 16.592 30.6759 16.3871C30.8496 16.1822 31.0896 16.049 31.3514 16.012L31.5002 16L31.3514 16.0105V16.012ZM37.6981 20.5H25.3023C25.0122 20.5 24.734 20.6185 24.5289 20.8295C24.3237 21.0405 24.2085 21.3266 24.2085 21.625V28.3825C24.2085 29.0035 24.6985 29.5075 25.3023 29.5075H37.6981C37.9882 29.5075 38.2664 29.389 38.4715 29.178C38.6766 28.967 38.7918 28.6809 38.7918 28.3825V21.625C38.7918 21.3266 38.6766 21.0405 38.4715 20.8295C38.2664 20.6185 37.9882 20.5 37.6981 20.5ZM28.2189 22.75C28.7024 22.75 29.1661 22.9475 29.5079 23.2992C29.8498 23.6508 30.0418 24.1277 30.0418 24.625C30.0418 25.1223 29.8498 25.5992 29.5079 25.9508C29.1661 26.3025 28.7024 26.5 28.2189 26.5C27.7355 26.5 27.2718 26.3025 26.9299 25.9508C26.5881 25.5992 26.396 25.1223 26.396 24.625C26.396 24.1277 26.5881 23.6508 26.9299 23.2992C27.2718 22.9475 27.7355 22.75 28.2189 22.75ZM34.7698 22.75C35.0134 22.7429 35.2559 22.7861 35.483 22.8771C35.7101 22.9681 35.9172 23.1051 36.092 23.2798C36.2667 23.4545 36.4056 23.6636 36.5005 23.8945C36.5954 24.1254 36.6442 24.3736 36.6442 24.6242C36.6442 24.8749 36.5954 25.1231 36.5005 25.354C36.4056 25.5849 36.2667 25.794 36.092 25.9687C35.9172 26.1434 35.7101 26.2804 35.483 26.3714C35.2559 26.4624 35.0134 26.5056 34.7698 26.4985C34.2954 26.4847 33.845 26.2812 33.5142 25.9312C33.1835 25.5812 32.9984 25.1123 32.9984 24.6242C32.9984 24.1362 33.1835 23.6673 33.5142 23.3173C33.845 22.9673 34.2954 22.7638 34.7698 22.75Z" fill="white"/>
</svg>
