<svg width="63" height="63" viewBox="0 0 63 63" fill="none" xmlns="http://www.w3.org/2000/svg">
<circle cx="31.8091" cy="31.7983" r="31" fill="#6945A5"/>
<path d="M19.5864 37.2002C19.8356 37.2002 20.0764 37.2905 20.2642 37.4543C20.452 37.618 20.5742 37.8443 20.6081 38.0912L20.6177 38.2314V43.0467L20.6273 43.2227C20.6676 43.6157 20.842 43.9829 21.1212 44.2623C21.4005 44.5418 21.7674 44.7166 22.1604 44.7572L22.3364 44.7654H27.1489L27.2892 44.7751C27.536 44.809 27.7622 44.9312 27.9259 45.119C28.0897 45.3068 28.1799 45.5475 28.1799 45.7967C28.1799 46.0459 28.0897 46.2866 27.9259 46.4744C27.7622 46.6622 27.536 46.7844 27.2892 46.8183L27.1489 46.8279H22.3364L22.1068 46.8211C21.1868 46.7653 20.3188 46.3754 19.6661 45.7247C19.0133 45.0739 18.6207 44.2072 18.5621 43.2873L18.5552 43.0467V38.2314L18.5648 38.0912C18.5987 37.8443 18.7208 37.618 18.9086 37.4543C19.0965 37.2905 19.3372 37.2002 19.5864 37.2002ZM45.0239 37.2002C45.2731 37.2002 45.5139 37.2905 45.7017 37.4543C45.8895 37.618 46.0117 37.8443 46.0456 38.0912L46.0552 38.2314V43.0467C46.0552 44.0096 45.6879 44.9362 45.0282 45.6376C44.3685 46.339 43.466 46.7622 42.5049 46.8211L42.2739 46.8279H37.4614C37.2001 46.8279 36.9486 46.7286 36.7577 46.5502C36.5668 46.3719 36.4507 46.1277 36.4329 45.867C36.4151 45.6063 36.4969 45.3486 36.6618 45.1459C36.8267 44.9432 37.0623 44.8107 37.3212 44.7751L37.4614 44.7654H42.2739C42.6994 44.7656 43.1099 44.608 43.4259 44.323C43.7418 44.038 43.9409 43.646 43.9844 43.2227L43.9927 43.0467V38.2314C43.9927 37.9579 44.1013 37.6956 44.2947 37.5022C44.4881 37.3088 44.7504 37.2002 45.0239 37.2002ZM32.6599 37.8877C32.9212 37.8878 33.1727 37.987 33.3636 38.1654C33.5546 38.3438 33.6707 38.588 33.6885 38.8487C33.7063 39.1093 33.6245 39.367 33.4596 39.5697C33.2947 39.7724 33.059 39.905 32.8002 39.9406L32.6599 39.9502H26.4656C26.2043 39.9501 25.9528 39.8509 25.7618 39.6725C25.5709 39.4941 25.4548 39.2499 25.437 38.9892C25.4192 38.7286 25.501 38.4708 25.6659 38.2682C25.8308 38.0655 26.0665 37.9329 26.3253 37.8973L26.4656 37.8877H32.6599ZM38.1531 32.0439C38.4143 32.044 38.6658 32.1433 38.8568 32.3217C39.0477 32.5 39.1638 32.7442 39.1816 33.0049C39.1994 33.2656 39.1176 33.5233 38.9527 33.726C38.7878 33.9287 38.5521 34.0612 38.2933 34.0968L38.1531 34.1064H26.4656C26.2043 34.1064 25.9528 34.0071 25.7618 33.8287C25.5709 33.6504 25.4548 33.4062 25.437 33.1455C25.4192 32.8848 25.501 32.6271 25.6659 32.4244C25.8308 32.2217 26.0665 32.0892 26.3253 32.0536L26.4656 32.0439H38.1531ZM27.1489 19.3252C27.4102 19.3253 27.6617 19.4245 27.8526 19.6029C28.0436 19.7813 28.1597 20.0255 28.1775 20.2862C28.1953 20.5468 28.1135 20.8045 27.9486 21.0072C27.7837 21.2099 27.548 21.3425 27.2892 21.3781L27.1489 21.3877H22.3364C21.9112 21.3878 21.501 21.5456 21.1854 21.8306C20.8697 22.1155 20.6708 22.5074 20.6273 22.9304L20.6177 23.1064V27.9217C20.6176 28.183 20.5183 28.4345 20.34 28.6254C20.1616 28.8163 19.9174 28.9324 19.6567 28.9502C19.396 28.968 19.1383 28.8862 18.9356 28.7214C18.733 28.5565 18.6004 28.3208 18.5648 28.0619L18.5552 27.9217V23.1064C18.5551 22.1433 18.9226 21.2165 19.5827 20.5151C20.2427 19.8137 21.1455 19.3906 22.1068 19.3321L22.3364 19.3252H27.1489ZM42.2739 19.3252L42.5049 19.3321C43.4247 19.3882 44.2923 19.7782 44.9448 20.4289C45.5973 21.0796 45.9897 21.9462 46.0483 22.8658L46.0552 23.1064V27.9217L46.0456 28.0619C46.0116 28.3088 45.8894 28.535 45.7016 28.6987C45.5138 28.8624 45.2731 28.9526 45.0239 28.9526C44.7748 28.9526 44.534 28.8624 44.3462 28.6987C44.1584 28.535 44.0363 28.3088 44.0023 28.0619L43.9927 27.9217V23.1064L43.9844 22.9304C43.9441 22.5372 43.7695 22.1699 43.49 21.8904C43.2105 21.6109 42.8432 21.4363 42.4499 21.3959L42.2739 21.3877H37.4614L37.3212 21.3781C37.0743 21.3441 36.8482 21.2219 36.6844 21.0341C36.5207 20.8463 36.4305 20.6056 36.4305 20.3564C36.4305 20.1073 36.5207 19.8666 36.6844 19.6788C36.8482 19.491 37.0743 19.3688 37.3212 19.3348L37.4614 19.3252H42.2739ZM38.1531 26.2002C38.4143 26.2003 38.6658 26.2995 38.8568 26.4779C39.0477 26.6563 39.1638 26.9005 39.1816 27.1612C39.1994 27.4218 39.1176 27.6795 38.9527 27.8822C38.7878 28.0849 38.5521 28.2175 38.2933 28.2531L38.1531 28.2627H26.4656C26.2043 28.2626 25.9528 28.1634 25.7618 27.985C25.5709 27.8066 25.4548 27.5624 25.437 27.3017C25.4192 27.0411 25.501 26.7833 25.6659 26.5807C25.8308 26.378 26.0665 26.2454 26.3253 26.2098L26.4656 26.2002H38.1531Z" fill="white"/>
</svg>
