<svg width="63" height="63" viewBox="0 0 63 63" fill="none" xmlns="http://www.w3.org/2000/svg">
<circle cx="31.8091" cy="31.5251" r="31" fill="#6945A5"/>
<path d="M32.0002 14.3333C22.8102 14.3333 15.3335 21.81 15.3335 31C15.3335 40.19 22.8102 47.6667 32.0002 47.6667C41.1902 47.6667 48.6668 40.19 48.6668 31C48.6668 21.81 41.1902 14.3333 32.0002 14.3333ZM32.0002 17.6667C37.3552 17.6667 41.9702 20.8467 44.0902 25.4133C43.5753 25.1697 43.077 24.8924 42.5985 24.5833C41.9168 24.1533 41.1435 23.665 40.1652 23.2967C39.0502 22.8717 37.8318 22.6667 36.4418 22.6667C35.0518 22.6667 33.8335 22.8717 32.7185 23.295C31.7402 23.6667 30.9668 24.155 30.2652 24.5967C29.6352 24.9917 29.0935 25.335 28.4268 25.5867C27.6835 25.8683 26.8768 26 25.8835 26C24.8918 26 24.0852 25.8683 23.3435 25.5867C22.6768 25.335 22.1302 24.99 21.5002 24.59C21.2318 24.4217 20.9335 24.2433 20.6335 24.0683C22.9785 20.2367 27.1885 17.6667 32.0002 17.6667ZM32.0002 44.3333C24.6485 44.3333 18.6668 38.3517 18.6668 31C18.6668 29.65 18.8718 28.35 19.2468 27.1217C19.4035 27.2183 19.5552 27.305 19.7185 27.41C20.4035 27.8433 21.1785 28.3333 22.1618 28.7033C23.2768 29.1283 24.4935 29.3333 25.8835 29.3333C27.2718 29.3333 28.4902 29.1283 29.6085 28.705C30.5868 28.3333 31.3602 27.845 32.0618 27.4033C32.6918 27.0083 33.2335 26.665 33.9002 26.4117C34.6418 26.1317 35.4485 26 36.4418 26C37.4352 26 38.2418 26.1317 38.9835 26.4133C39.6485 26.6633 40.1918 27.0067 40.8402 27.4167C41.5218 27.8467 42.2952 28.335 43.2735 28.705C43.8785 28.935 44.5202 29.0867 45.1952 29.19C45.2768 29.785 45.3335 30.385 45.3335 31C45.3335 38.3517 39.3518 44.3333 32.0002 44.3333Z" fill="white"/>
<path d="M26.1665 36C27.5472 36 28.6665 34.8807 28.6665 33.5C28.6665 32.1193 27.5472 31 26.1665 31C24.7858 31 23.6665 32.1193 23.6665 33.5C23.6665 34.8807 24.7858 36 26.1665 36Z" fill="white"/>
<path d="M37.8335 36C39.2142 36 40.3335 34.8807 40.3335 33.5C40.3335 32.1193 39.2142 31 37.8335 31C36.4528 31 35.3335 32.1193 35.3335 33.5C35.3335 34.8807 36.4528 36 37.8335 36Z" fill="white"/>
</svg>
