<svg width="63" height="63" viewBox="0 0 63 63" fill="none" xmlns="http://www.w3.org/2000/svg">
<circle cx="31.8091" cy="31.9961" r="31" fill="#6945A5"/>
<path d="M41.809 44.7729H39.809V41.7729H35.809C34.4834 41.7716 33.2124 41.2444 32.275 40.307C31.3376 39.3696 30.8104 38.0986 30.809 36.7729V35.4929L28.493 34.7219C28.351 34.6746 28.2215 34.5959 28.1139 34.4917C28.0064 34.3876 27.9236 34.2606 27.8716 34.1202C27.8197 33.9798 27.8 33.8295 27.8139 33.6804C27.8278 33.5314 27.875 33.3873 27.952 33.2589L30.809 28.4959V25.7729C30.8117 23.3868 31.7607 21.0992 33.448 19.4119C35.1352 17.7247 37.4229 16.7756 39.809 16.7729H44.809V18.7729H39.809C37.9532 18.7751 36.1739 19.5132 34.8616 20.8255C33.5493 22.1378 32.8111 23.9171 32.809 25.7729V28.7729C32.8088 28.9541 32.7594 29.1317 32.666 29.2869L30.309 33.2189L32.126 33.8239C32.3251 33.8905 32.4981 34.0179 32.6207 34.1882C32.7433 34.3585 32.8092 34.5631 32.809 34.7729V36.7729C32.8098 37.5684 33.1262 38.331 33.6886 38.8934C34.251 39.4558 35.0136 39.7722 35.809 39.7729H40.809C41.0742 39.7729 41.3286 39.8783 41.5161 40.0658C41.7037 40.2534 41.809 40.5077 41.809 40.7729V44.7729Z" fill="white"/>
<path d="M34.8091 26.7729H38.8091V28.7729H34.8091V26.7729Z" fill="white"/>
<path d="M25.1409 39.99C24.407 39.3334 23.8198 38.5293 23.4179 37.6304C23.0159 36.7314 22.8081 35.7577 22.8081 34.773C22.8081 33.7882 23.0159 32.8145 23.4179 31.9156C23.8198 31.0166 24.407 30.2125 25.1409 29.556L26.4749 31.046C25.9506 31.515 25.5312 32.0893 25.2441 32.7314C24.957 33.3736 24.8085 34.0691 24.8085 34.7725C24.8085 35.4759 24.957 36.1714 25.2441 36.8135C25.5312 37.4557 25.9506 38.03 26.4749 38.499L25.1409 39.99Z" fill="white"/>
<path d="M22.2092 43.573C20.8434 42.5481 19.7349 41.2194 18.9715 39.692C18.208 38.1646 17.8105 36.4805 17.8105 34.773C17.8105 33.0654 18.208 31.3813 18.9715 29.8539C19.7349 28.3265 20.8434 26.9978 22.2092 25.973L23.4092 27.573C22.2913 28.4113 21.3839 29.4984 20.7589 30.7482C20.1339 31.998 19.8085 33.3761 19.8085 34.7735C19.8085 36.1708 20.1339 37.549 20.7589 38.7988C21.3839 40.0486 22.2913 41.1357 23.4092 41.974L22.2092 43.573Z" fill="white"/>
</svg>
