<svg width="62" height="63" viewBox="0 0 62 63" fill="none" xmlns="http://www.w3.org/2000/svg">
<circle cx="31" cy="31.6204" r="31" fill="#6945A5"/>
<path d="M22.25 26.1829C22.5567 26.1829 22.8508 26.3047 23.0676 26.5215C23.2844 26.7384 23.4062 27.0325 23.4062 27.3391V38.9016C23.4062 39.2083 23.2844 39.5024 23.0676 39.7192C22.8508 39.936 22.5567 40.0579 22.25 40.0579C21.9433 40.0579 21.6492 39.936 21.4324 39.7192C21.2156 39.5024 21.0938 39.2083 21.0938 38.9016V27.3391C21.0938 27.0325 21.2156 26.7384 21.4324 26.5215C21.6492 26.3047 21.9433 26.1829 22.25 26.1829Z" fill="white"/>
<path d="M19.9375 19.2454C18.7109 19.2454 17.5345 19.7326 16.6671 20.6C15.7998 21.4673 15.3125 22.6437 15.3125 23.8704V42.3704C15.3125 43.597 15.7998 44.7734 16.6671 45.6407C17.5345 46.5081 18.7109 46.9954 19.9375 46.9954H24.5625C25.7891 46.9954 26.9655 46.5081 27.8329 45.6407C28.7002 44.7734 29.1875 43.597 29.1875 42.3704V23.8704C29.1875 22.6437 28.7002 21.4673 27.8329 20.6C26.9655 19.7326 25.7891 19.2454 24.5625 19.2454H19.9375ZM17.625 23.8704C17.625 23.257 17.8686 22.6689 18.3023 22.2352C18.736 21.8015 19.3242 21.5579 19.9375 21.5579H24.5625C25.1758 21.5579 25.764 21.8015 26.1977 22.2352C26.6314 22.6689 26.875 23.257 26.875 23.8704V42.3704C26.875 42.9837 26.6314 43.5719 26.1977 44.0055C25.764 44.4392 25.1758 44.6829 24.5625 44.6829H19.9375C19.3242 44.6829 18.736 44.4392 18.3023 44.0055C17.8686 43.5719 17.625 42.9837 17.625 42.3704V23.8704Z" fill="white"/>
<path d="M39.5938 26.1829C39.2871 26.1829 38.993 26.3047 38.7762 26.5215C38.5593 26.7384 38.4375 27.0325 38.4375 27.3391C38.4375 27.6458 38.5593 27.9399 38.7762 28.1567C38.993 28.3735 39.2871 28.4954 39.5938 28.4954H40.75V31.9641H39.5938C39.2871 31.9641 38.993 32.0859 38.7762 32.3028C38.5593 32.5196 38.4375 32.8137 38.4375 33.1204V38.9016C38.4375 39.2083 38.5593 39.5024 38.7762 39.7192C38.993 39.936 39.2871 40.0579 39.5938 40.0579H41.9062C42.2129 40.0579 42.507 39.936 42.7238 39.7192C42.9407 39.5024 43.0625 39.2083 43.0625 38.9016C43.0625 38.595 42.9407 38.3009 42.7238 38.084C42.507 37.8672 42.2129 37.7454 41.9062 37.7454H40.75V34.2766H41.9062C42.2129 34.2766 42.507 34.1548 42.7238 33.938C42.9407 33.7211 43.0625 33.427 43.0625 33.1204V27.3391C43.0625 27.0325 42.9407 26.7384 42.7238 26.5215C42.507 26.3047 42.2129 26.1829 41.9062 26.1829H39.5938Z" fill="white"/>
<path d="M38.4375 19.2454C37.2109 19.2454 36.0345 19.7326 35.1671 20.6C34.2998 21.4673 33.8125 22.6437 33.8125 23.8704V42.3704C33.8125 43.597 34.2998 44.7734 35.1671 45.6407C36.0345 46.5081 37.2109 46.9954 38.4375 46.9954H43.0625C44.2891 46.9954 45.4655 46.5081 46.3329 45.6407C47.2002 44.7734 47.6875 43.597 47.6875 42.3704V23.8704C47.6875 22.6437 47.2002 21.4673 46.3329 20.6C45.4655 19.7326 44.2891 19.2454 43.0625 19.2454H38.4375ZM36.125 23.8704C36.125 23.257 36.3686 22.6689 36.8023 22.2352C37.236 21.8015 37.8242 21.5579 38.4375 21.5579H43.0625C43.6758 21.5579 44.264 21.8015 44.6977 22.2352C45.1314 22.6689 45.375 23.257 45.375 23.8704V42.3704C45.375 42.9837 45.1314 43.5719 44.6977 44.0055C44.264 44.4392 43.6758 44.6829 43.0625 44.6829H38.4375C37.8242 44.6829 37.236 44.4392 36.8023 44.0055C36.3686 43.5719 36.125 42.9837 36.125 42.3704V23.8704Z" fill="white"/>
</svg>
