<svg width="61" height="61" viewBox="0 0 61 61" fill="none" xmlns="http://www.w3.org/2000/svg">
<g clip-path="url(#clip0)">
<path d="M29.8556 0.864793C25.8761 0.919467 21.9465 1.75065 18.2916 3.3108C14.6367 4.87094 11.3282 7.12945 8.55529 9.95714C5.78237 12.7848 3.59946 16.1262 2.1314 19.7902C0.663335 23.4542 -0.0610697 27.3689 -0.00038592 31.3105C0.122741 39.2604 3.42609 46.8369 9.1843 52.3765C14.9425 57.9161 22.6849 60.9658 30.7114 60.8561L61.0261 60.4279L60.5673 30.4366C60.5121 26.4972 59.6738 22.6072 58.1003 18.9889C56.5268 15.3705 54.249 12.0946 51.3969 9.34843C48.5449 6.60224 45.1745 4.43955 41.4784 2.9839C37.7822 1.52825 33.8327 0.808164 29.8556 0.864793ZM12.9866 41.2639C11.2853 38.2961 10.3711 34.9498 10.3293 31.5373C10.2874 28.1247 11.1194 24.7574 12.7475 21.7497C14.3756 18.7419 16.7467 16.1919 19.6393 14.3377C22.532 12.4835 25.8519 11.3857 29.289 11.1466C32.7261 10.9076 36.1683 11.5352 39.2941 12.9709C42.42 14.4065 45.1275 16.6034 47.1639 19.3563C49.2004 22.1092 50.4992 25.3284 50.9392 28.7132C51.3792 32.098 50.9461 35.5381 49.6801 38.7122C49.539 39.0617 49.4066 39.385 49.2831 39.7084L43.6719 33.2942C44.2931 30.3653 43.8788 27.3139 42.4985 24.6516C41.6179 23.1155 40.4405 21.7663 39.0336 20.681C37.6266 19.5956 36.0175 18.7954 34.2983 18.3259C30.8262 17.3779 27.116 17.8348 23.9841 19.5962C20.8521 21.3576 18.5548 24.2792 17.5977 27.7183C16.6405 31.1574 17.1018 34.8322 18.8801 37.9344C19.9281 39.8499 21.4485 41.4714 23.2997 42.648C25.1509 43.8245 27.2727 44.5178 29.4674 44.6632L33.8787 49.6618L34.9374 50.99C26.0089 52.4669 17.3185 48.7879 12.9866 41.2639ZM42.3132 50.8764L28.0646 34.6312L33.6758 29.8686L51.824 50.7279L42.3132 50.8764Z" fill="#6349A0"/>
<path d="M12.987 41.2644C11.2857 38.2966 10.3714 34.9503 10.3296 31.5378C10.2878 28.1252 11.1198 24.7579 12.7479 21.7501C14.376 18.7424 16.747 16.1924 19.6397 14.3382C22.5324 12.484 25.8522 11.3861 29.2893 11.1471C32.7264 10.9081 36.1686 11.5357 39.2945 12.9714C42.4203 14.407 45.1279 16.6039 47.1643 19.3568C49.2007 22.1097 50.4996 25.3289 50.9396 28.7137C51.3796 32.0985 50.9464 35.5386 49.6805 38.7127C49.5393 39.0622 49.407 39.3855 49.2835 39.7089L43.6722 33.2947C44.2935 30.3658 43.8792 27.3144 42.4988 24.6521C41.6183 23.116 40.4409 21.7668 39.0339 20.6815C37.6269 19.5961 36.0179 18.7959 34.2987 18.3264C30.8266 17.3784 27.1164 17.8353 23.9844 19.5967C20.8525 21.3581 18.5552 24.2797 17.598 27.7188C16.6408 31.1579 17.1022 34.8327 18.8805 37.9349C19.9285 39.8504 21.4489 41.4719 23.3001 42.6485C25.1513 43.825 27.2731 44.5183 29.4677 44.6637L33.8791 49.6623L34.9378 50.9905C26.0092 52.4674 17.3189 48.7884 12.987 41.2644Z" fill="white"/>
<path d="M42.3224 50.8595L28.0737 34.6404L33.6673 29.8778L51.8244 50.7284L42.3224 50.8595Z" fill="white"/>
</g>
<defs>
<clipPath id="clip0">
<rect width="61" height="60" fill="white" transform="translate(0 0.865234)"/>
</clipPath>
</defs>
</svg>
