<svg width="229" height="159" viewBox="0 0 229 159" fill="none" xmlns="http://www.w3.org/2000/svg">
<g clip-path="url(#clip0)">
<path d="M6.48197 60.3645H222.752C224.308 60.3674 225.799 60.9886 226.9 62.092C228 63.1955 228.619 64.6913 228.622 66.2518V136.845C228.622 138.407 228.004 139.904 226.903 141.008C225.802 142.112 224.309 142.733 222.752 142.733H46.0789L31.7767 158.316C31.7767 158.316 30.2792 149.61 29.0204 142.733H6.48197C4.92498 142.733 3.43174 142.112 2.33078 141.008C1.22982 139.904 0.611328 138.407 0.611328 136.845V66.2518C0.614197 64.6913 1.23362 63.1955 2.33396 62.092C3.43429 60.9886 4.92586 60.3674 6.48197 60.3645Z" fill="#C5C2E1"/>
<path d="M119.446 85.1434L20.6433 85.0455C20.409 85.0204 20.1922 84.9092 20.0347 84.7334C19.8772 84.5576 19.79 84.3296 19.79 84.0933C19.79 83.857 19.8772 83.629 20.0347 83.4532C20.1922 83.2774 20.409 83.1663 20.6433 83.1411L119.446 83.2282C119.699 83.2282 119.942 83.3291 120.121 83.5087C120.3 83.6883 120.401 83.9318 120.401 84.1858C120.401 84.4398 120.3 84.6834 120.121 84.863C119.942 85.0426 119.699 85.1434 119.446 85.1434Z" fill="white"/>
<path d="M119.435 95.8843L20.6321 95.7972C20.3789 95.7972 20.136 95.6963 19.9569 95.5168C19.7778 95.3372 19.6772 95.0936 19.6772 94.8396C19.6772 94.5856 19.7778 94.342 19.9569 94.1625C20.136 93.9829 20.3789 93.882 20.6321 93.882L119.435 93.9799C119.669 94.0051 119.886 94.1162 120.043 94.292C120.201 94.4678 120.288 94.6958 120.288 94.9321C120.288 95.1684 120.201 95.3964 120.043 95.5722C119.886 95.748 119.669 95.8592 119.435 95.8843Z" fill="white"/>
<path d="M119.424 106.777L20.6755 106.69C20.4412 106.665 20.2244 106.554 20.0669 106.378C19.9094 106.203 19.8223 105.975 19.8223 105.738C19.8223 105.502 19.9094 105.274 20.0669 105.098C20.2244 104.922 20.4412 104.811 20.6755 104.786L119.424 104.873C119.658 104.898 119.875 105.009 120.032 105.185C120.19 105.361 120.277 105.589 120.277 105.825C120.277 106.062 120.19 106.29 120.032 106.465C119.875 106.641 119.658 106.752 119.424 106.777Z" fill="white"/>
<path d="M83.7984 118.062L20.6321 118.008C20.3978 117.983 20.181 117.872 20.0235 117.696C19.8659 117.52 19.7788 117.292 19.7788 117.056C19.7788 116.82 19.8659 116.592 20.0235 116.416C20.181 116.24 20.3978 116.129 20.6321 116.104L83.7876 116.158C84.0219 116.183 84.2387 116.294 84.3962 116.47C84.5537 116.646 84.6409 116.874 84.6409 117.11C84.6409 117.347 84.5537 117.575 84.3962 117.75C84.2387 117.926 84.0219 118.037 83.7876 118.062H83.7984Z" fill="white"/>
<path d="M191.944 30.0029C191.814 28.24 193.377 25.8242 194.82 24.4312C195.649 23.6863 196.241 22.7135 196.522 21.6339C196.804 20.5542 196.763 19.4153 196.404 18.3589C195.829 16.1824 194.451 16.3566 193.919 15.0942C193.65 14.1024 193.544 13.0732 193.605 12.0472C193.49 11.1845 193.199 10.3547 192.751 9.60946C192.303 8.8642 191.706 8.21941 190.999 7.71518C190.292 7.21096 189.488 6.85807 188.639 6.67849C187.79 6.49891 186.913 6.49647 186.063 6.67132C185.582 4.99024 184.611 3.49173 183.274 2.36823C181.938 1.24473 180.297 0.547557 178.562 0.366242C176.828 0.184926 175.079 0.527755 173.54 1.35069C172.001 2.17362 170.743 3.43909 169.927 4.98456C168.944 4.48065 167.852 4.22708 166.748 4.24621C165.644 4.26535 164.562 4.55659 163.597 5.09427C162.632 5.63194 161.814 6.39952 161.214 7.3293C160.615 8.25908 160.253 9.32247 160.16 10.4257C159.161 9.78885 157.965 9.53609 156.795 9.71411C155.624 9.89212 154.557 10.4889 153.791 11.3942C153.068 12.3371 152.638 13.4727 152.555 14.6591C152.472 15.8456 152.739 17.0303 153.324 18.0651C153.935 19.0834 154.766 19.9513 155.755 20.6048C156.745 21.2583 157.869 21.6808 159.043 21.8412C161.406 22.1385 163.804 21.7017 165.912 20.5898C168.004 19.4782 169.905 18.0381 171.544 16.3239" fill="#1E2E34"/>
<path d="M176.383 139.653C199.133 139.653 217.575 121.592 217.575 99.3122C217.575 77.0327 199.133 58.9716 176.383 58.9716C153.633 58.9716 135.191 77.0327 135.191 99.3122C135.191 121.592 153.633 139.653 176.383 139.653Z" fill="#E1E1E1"/>
<path d="M135.028 99.3993L139.586 87.6682L155.95 97.9085L141.387 120.424C141.387 120.424 135.441 112.708 135.028 99.3993Z" fill="#EB996E"/>
<path d="M180.138 73.9565C177.323 73.9745 174.61 72.9049 172.561 70.9697C170.512 69.0345 169.285 66.3824 169.134 63.5639C168.885 58.7104 168.689 54.031 168.689 54.031C168.689 54.031 159.694 53.378 158.869 44.5634C158.044 35.7487 157.925 15.3771 157.925 15.3771C162.794 12.8049 168.256 11.5717 173.755 11.803C179.254 12.0343 184.594 13.7217 189.231 16.6938L190.089 17.2488L191.174 62.8565C191.188 64.3155 190.913 65.7627 190.364 67.1138C189.815 68.4649 189.003 69.6929 187.976 70.7261C186.948 71.7593 185.726 72.577 184.381 73.1316C183.035 73.6862 181.593 73.9666 180.138 73.9565Z" fill="#FFBE9D"/>
<path d="M168.657 53.9113C172.758 53.6581 176.693 52.1927 179.964 49.6998C179.964 49.6998 177.794 56.2292 168.831 56.2292L168.657 53.9113Z" fill="#EB996E"/>
<path d="M190.306 30.2315C190.3 29.8855 190.427 29.5507 190.662 29.2971C190.897 29.0435 191.22 28.8908 191.565 28.8712C193.214 28.795 195.905 29.3935 196.285 33.9423C196.773 40.4717 190.458 38.9264 190.436 38.7414C190.414 38.5564 190.338 32.7562 190.306 30.2315Z" fill="#FFBE9D"/>
<path d="M191.825 36.1623C191.825 36.1623 191.944 36.2385 192.14 36.3038C192.275 36.3622 192.421 36.3923 192.568 36.3923C192.716 36.3923 192.862 36.3622 192.997 36.3038C193.39 36.004 193.697 35.6058 193.887 35.1492C194.078 34.6926 194.145 34.1938 194.082 33.7029C194.06 33.1437 193.911 32.5968 193.648 32.1032C193.569 31.905 193.445 31.7285 193.284 31.5884C193.124 31.4483 192.932 31.3487 192.726 31.2979C192.592 31.2731 192.455 31.2953 192.336 31.3608C192.217 31.4262 192.125 31.5309 192.075 31.657C191.999 31.8529 192.075 31.9726 192.02 31.9835C191.966 31.9944 191.868 31.8856 191.901 31.6135C191.931 31.4516 192.01 31.3031 192.129 31.1891C192.301 31.0442 192.523 30.9703 192.747 30.9823C193.017 31.0144 193.275 31.1153 193.495 31.2753C193.716 31.4353 193.891 31.6491 194.006 31.8965C194.33 32.4369 194.513 33.0508 194.538 33.6812C194.612 34.256 194.515 34.84 194.258 35.3592C194.001 35.8784 193.596 36.3094 193.095 36.5976C192.92 36.6713 192.73 36.7019 192.541 36.6867C192.353 36.6716 192.17 36.6112 192.009 36.5106C191.847 36.282 191.76 36.1732 191.825 36.1623Z" fill="#EB996E"/>
<path d="M156.677 18.163C156.677 18.163 162.005 20.753 168.95 17.2816C173.497 15.0072 178.814 13.8863 179.975 14.8113C181.136 15.7363 181.397 20.4265 185.911 21.8086C185.911 21.8086 185.596 30.7865 189.166 30.5144C192.737 30.2424 190.501 16.2913 190.501 16.2913L181.82 12.0145L172.227 10.1646L163.242 11.4378L156.297 13.3422L156.677 18.163Z" fill="#1E2E34"/>
<path d="M216.436 70.1151C207.104 60.4951 190.685 61.5399 190.685 61.5399L177.067 71.3339L169.351 62.3234C163.878 63.0681 158.565 64.7154 153.628 67.1986L153.107 67.3619V67.4707C147.138 70.7354 138.674 78.5271 130.623 86.0903L140.259 95.0682L150.936 104.558C150.915 104.621 150.915 104.69 150.936 104.753C151.045 105.33 149.45 118.389 147.822 128.324C152.462 132.918 158.146 136.309 164.386 138.205C170.625 140.101 177.231 140.445 183.632 139.207C187.973 138.434 190.143 137.368 194.147 136.312C197.064 135.537 199.671 133.879 201.613 131.563C203.555 129.248 204.737 126.387 204.998 123.373C205.726 115.048 206.279 104.753 206.279 104.753" fill="#5E4D9A"/>
<path d="M160.811 63.9774C160.58 64.4779 160.384 64.9943 160.225 65.5227C159.878 66.513 159.401 67.9712 158.836 69.7777C157.751 73.3906 156.286 78.4182 154.93 84.0226C153.573 89.627 152.564 94.7634 151.924 98.4961C151.598 100.357 151.36 101.87 151.219 102.914C151.12 103.453 151.062 103.999 151.045 104.547C151.209 104.024 151.333 103.489 151.414 102.947C151.631 101.859 151.924 100.346 152.271 98.594C152.998 94.894 154.062 89.7902 155.418 84.1858C156.774 78.5815 158.142 73.5538 159.173 69.9192C159.683 68.1671 160.095 66.7198 160.41 65.5662C160.588 65.0489 160.722 64.5174 160.811 63.9774Z" fill="#3D3468"/>
<path d="M152.044 98.3873C152.13 98.2785 148.061 94.807 142.961 90.6391C137.861 86.4712 133.639 83.163 133.553 83.2718C133.466 83.3806 137.535 86.8521 142.646 91.02C147.757 95.1879 151.957 98.4852 152.044 98.3873Z" fill="#3D3468"/>
<path opacity="0.2" d="M204.12 83.3262L212.464 110.88L209.361 112.458L206.301 104.666C206.301 104.666 203.154 88.332 204.12 83.3262Z" fill="black"/>
<g opacity="0.2">
<path opacity="0.2" d="M161.712 63.9993C157.22 66.3825 168.494 72.1066 173.594 71.9542L169.894 62.1602C169.894 62.1602 163.231 63.2049 161.712 63.9993Z" fill="black"/>
</g>
<path d="M192.02 62.1602V54.869C192.02 54.869 177.816 58.5363 177.295 67.0572C177.295 67.0572 175.493 57.6331 168.169 57.187L167.138 70.4416L175.656 77.8742H184.337L191.174 71.9542L192.064 62.7478" fill="#5E4D9A"/>
<path d="M174.104 107.953C174.142 107.431 174.142 106.907 174.104 106.386C174.104 105.374 174.104 103.916 174.104 102.12C174.104 98.5179 174.202 93.5338 174.658 88.06C175.113 82.5862 175.819 77.6565 176.426 74.098C176.73 72.3895 176.98 70.9748 177.164 69.8975C177.285 69.3896 177.365 68.8728 177.403 68.3522C177.218 68.8393 177.077 69.3418 176.98 69.8539C176.73 70.8333 176.426 72.2698 176.079 74.0436C175.188 78.663 174.546 83.3275 174.158 88.0165C173.765 92.7211 173.631 97.444 173.757 102.163C173.757 103.97 173.876 105.428 173.952 106.44C173.955 106.948 174.006 107.455 174.104 107.953Z" fill="#3D3468"/>
<path d="M177.946 64.5759C178.229 64.52 178.523 64.5465 178.792 64.6521C179.335 64.8262 179.823 65.5009 180.225 66.4694C181.383 69.0033 182.288 71.6461 182.927 74.3591L183.003 74.6856L183.285 74.5115C184.131 73.9891 185.01 73.4232 185.878 72.8356C187.48 71.7558 189.02 70.5859 190.49 69.3315C191.16 68.7741 191.695 68.0707 192.053 67.2747C192.337 66.5822 192.503 65.8463 192.541 65.0983C192.567 64.0265 192.461 62.9556 192.226 61.9098C192.164 61.536 192.058 61.1708 191.912 60.8215C191.916 61.2125 191.956 61.6022 192.031 61.9859C192.189 63.0226 192.24 64.0729 192.183 65.12C192.132 65.8287 191.963 66.5239 191.684 67.1768C191.335 67.9113 190.823 68.5554 190.186 69.0594C188.841 70.1476 187.289 71.3556 185.607 72.5091C184.739 73.0967 183.871 73.6517 183.035 74.1632L183.393 74.3156C182.743 71.5777 181.774 68.926 180.507 66.415C180.305 65.9775 180.054 65.5649 179.758 65.1853C179.521 64.8942 179.204 64.6787 178.847 64.565C178.25 64.3583 177.924 64.5759 177.946 64.5759Z" fill="#3D3468"/>
<path d="M168.169 57.1869C168.087 57.5441 168.044 57.9088 168.038 58.2751L167.81 61.3875C167.702 62.6933 167.539 64.2495 167.279 65.958C167.047 66.8712 166.988 67.8198 167.105 68.7547C167.452 69.7345 168.107 70.5746 168.972 71.1488C170.085 71.8436 171.132 72.6415 172.097 73.5321L172.477 73.9565V73.3906C172.645 70.8962 173.36 68.4698 174.571 66.2845C175.472 64.663 176.22 63.8251 176.166 63.7816C176.112 63.738 175.938 63.9557 175.602 64.3365C175.127 64.9015 174.695 65.5017 174.31 66.1321C172.985 68.3252 172.193 70.8007 171.999 73.358L172.411 73.2165C171.437 72.2916 170.372 71.4676 169.232 70.7571C168.458 70.2441 167.863 69.5025 167.528 68.635C167.433 67.7621 167.485 66.8793 167.68 66.0233C167.93 64.293 168.049 62.7586 168.114 61.4092C168.179 60.0598 168.19 59.026 168.19 58.286C168.221 57.9199 168.214 57.5515 168.169 57.1869Z" fill="#3D3468"/>
<path d="M122.43 59.0151C123.016 59.6898 143.926 87.7444 143.926 87.7444L140.986 89.4203L119.521 61.7248L122.43 59.0151Z" fill="#1E2E34"/>
<path d="M206.474 81.1932C206.474 81.1932 184.467 112.959 183.133 113.546C180.528 114.776 150.416 88.6911 147.551 86.1882C147.149 85.6658 146.335 84.545 144.729 82.3141C144.729 82.3141 142.353 71.4318 139.824 72.2589C137.296 73.0859 141.213 77.7979 139.564 81.9332C137.915 86.0685 130.351 76.1982 130.047 75.3168L128.094 72.7594C128.094 72.7594 126.054 78.5706 126.184 80.9973C126.629 88.7782 133.965 98.0281 133.965 98.0281C133.965 98.0281 166.921 138.956 189.492 140.23C196.002 140.589 207.538 122.1 215.264 108.225C217.509 104.17 218.197 99.4307 217.198 94.9019C216.198 90.3731 213.58 86.3678 209.838 83.6417L206.474 81.1932Z" fill="#FFBE9D"/>
<path d="M129.907 82.4121C129.487 81.4303 129.016 80.4714 128.496 79.5392C128.074 78.5548 127.595 77.5956 127.063 76.6663C127.319 77.7136 127.709 78.7232 128.225 79.6698C128.66 80.6557 129.225 81.5781 129.907 82.4121Z" fill="#EB996E"/>
<path d="M210.207 65.6642C210.207 65.6642 233.831 74.0871 216.262 113.916L188.982 97.4405L192.867 88.1252L210.207 65.6642Z" fill="#5E4D9A"/>
<path d="M212.008 66.3715C211.054 66.289 210.093 66.3699 209.165 66.6109C208.073 66.8983 207.028 67.3418 206.062 67.9277C204.794 68.7126 203.637 69.6642 202.622 70.7571C200.047 73.6476 197.888 76.8857 196.209 80.377C194.212 84.2402 192.346 88.6584 190.436 93.2943C189.861 94.6764 189.351 96.0475 188.765 97.3425L188.678 97.5493L188.873 97.6581C196.762 102.011 203.631 106.005 208.482 109.03C210.912 110.543 212.822 111.783 214.179 112.643L215.709 113.622C215.873 113.754 216.056 113.861 216.251 113.938C216.099 113.795 215.935 113.664 215.763 113.546C215.427 113.307 214.927 112.937 214.276 112.458C212.974 111.544 211.021 110.282 208.655 108.715C203.848 105.613 196.99 101.521 189.123 97.1902L189.231 97.5057C189.774 96.2108 190.316 94.8396 190.913 93.4467C192.823 88.8108 194.668 84.4143 196.632 80.5511C198.28 77.0855 200.39 73.8604 202.904 70.9638C203.883 69.8755 205.004 68.9239 206.235 68.1345C207.163 67.5381 208.172 67.0799 209.23 66.7742C210.145 66.5675 211.073 66.4328 212.008 66.3715Z" fill="#3D3468"/>
<path d="M161.191 7.31335C161.136 7.45004 161.096 7.59236 161.072 7.73776C161.004 8.14393 160.982 8.55642 161.007 8.96747C161.051 9.93168 161.316 10.8728 161.78 11.7187C162.243 12.5645 162.894 13.2927 163.682 13.8474C164.469 14.402 165.373 14.7685 166.324 14.9186C167.275 15.0687 168.247 14.9985 169.167 14.7133C170.505 14.3488 171.663 13.5047 172.422 12.341C172.83 11.6934 173.002 10.9247 172.911 10.1645C172.863 9.77253 172.734 9.39491 172.532 9.05576C172.33 8.71661 172.06 8.42339 171.739 8.19483C171.401 7.98316 171.015 7.85938 170.617 7.83468C170.219 7.80998 169.822 7.88513 169.46 8.05335C169.109 8.19779 168.79 8.41069 168.522 8.67969C168.254 8.9487 168.041 9.26846 167.897 9.6204C167.658 10.2811 167.589 10.9917 167.697 11.6862C167.806 12.3806 168.087 13.0364 168.516 13.5924C169.23 14.5198 170.247 15.1648 171.388 15.4137C172.53 15.6625 173.722 15.4993 174.755 14.9527C175.502 14.559 176.292 14.2558 177.11 14.0495C177.719 13.918 178.353 13.9828 178.922 14.2345C179.398 14.499 179.851 14.801 180.279 15.1377C180.279 15.1377 180.203 15.0071 180.008 14.8004C179.889 14.6716 179.758 14.555 179.617 14.4521C179.43 14.2982 179.226 14.1667 179.009 14.0604C178.411 13.754 177.728 13.6545 177.067 13.7774C176.217 13.9558 175.393 14.241 174.614 14.6263C174.176 14.8255 173.717 14.9787 173.247 15.0833C172.741 15.1756 172.223 15.1756 171.717 15.0833C170.588 14.8819 169.576 14.26 168.885 13.3421C168.512 12.849 168.267 12.2705 168.172 11.6588C168.077 11.0472 168.136 10.4214 168.342 9.83805C168.454 9.54136 168.627 9.27177 168.85 9.04708C169.073 8.82239 169.341 8.64771 169.636 8.53457C169.932 8.42144 170.248 8.37243 170.563 8.39077C170.879 8.40912 171.187 8.4944 171.467 8.641C171.732 8.82603 171.953 9.06537 172.118 9.34308C172.283 9.62079 172.386 9.9305 172.422 10.2516C172.497 10.8952 172.348 11.545 171.999 12.0907C171.315 13.1592 170.259 13.9348 169.037 14.2671C168.005 14.5853 166.907 14.622 165.856 14.3733C164.805 14.1247 163.839 13.5997 163.058 12.8524C162.011 11.806 161.356 10.4303 161.202 8.95658C161.161 8.40974 161.157 7.8607 161.191 7.31335Z" fill="#3E5963"/>
<path d="M159.628 10.5345C159.306 11.079 159.158 11.7096 159.205 12.341C159.126 13.848 159.632 15.327 160.618 16.4675C161.603 17.6079 162.991 18.321 164.49 18.4569C165.094 18.5638 165.716 18.492 166.28 18.2501C166.28 18.163 165.597 18.2501 164.533 18.1086C163.156 17.8947 161.9 17.1975 160.988 16.1413C160.076 15.085 159.567 13.7383 159.553 12.341C159.487 11.2528 159.704 10.5563 159.628 10.5345Z" fill="#3E5963"/>
</g>
<defs>
<clipPath id="clip0">
<rect width="228" height="158" fill="white" transform="translate(0.611328 0.31604)"/>
</clipPath>
</defs>
</svg>
