<svg width="67" height="68" viewBox="0 0 67 68" fill="none" xmlns="http://www.w3.org/2000/svg">
<g clip-path="url(#clip0)">
<path d="M33.5 67.2984C52.0015 67.2984 67 52.3033 67 33.8059C67 15.3085 52.0015 0.313354 33.5 0.313354C14.9985 0.313354 0 15.3085 0 33.8059C0 52.3033 14.9985 67.2984 33.5 67.2984Z" fill="#6349A0"/>
<path d="M34.8589 12.0312H33.3057V19.8731H34.8589V12.0312Z" fill="#FFA03E"/>
<path d="M11.2464 43.3837C13.754 43.3837 15.7868 41.3469 15.7868 38.8343C15.7868 36.3217 13.754 34.2848 11.2464 34.2848C8.73884 34.2848 6.70605 36.3217 6.70605 38.8343C6.70605 41.3469 8.73884 43.3837 11.2464 43.3837Z" fill="white"/>
<path d="M57.1575 43.0694C59.6651 43.0694 61.6979 41.0325 61.6979 38.5199C61.6979 36.0073 59.6651 33.9705 57.1575 33.9705C54.65 33.9705 52.6172 36.0073 52.6172 38.5199C52.6172 41.0325 54.65 43.0694 57.1575 43.0694Z" fill="white"/>
<path d="M34.7546 18.227C34.7546 18.227 53.2446 18.0025 56.172 34.0603C59.0993 50.1182 43.462 50.4025 38.9664 50.7018C36.9352 50.8365 32.5741 50.8515 28.7208 50.7916C20.1927 50.642 14.1738 48.9808 12.1276 41.0641C11.8824 40.1335 11.7273 39.1812 11.6646 38.2207C11.112 29.5408 16.9816 17.808 34.7546 18.227Z" fill="white"/>
<path d="M21.3424 42.6654L48.226 43.0845C48.8948 43.0944 49.559 42.9722 50.1807 42.7248C50.8024 42.4774 51.3694 42.1098 51.8493 41.6429C52.3291 41.1759 52.7125 40.6188 52.9775 40.0034C53.2425 39.388 53.3839 38.7263 53.3937 38.0561V38.0561C53.4035 37.3859 53.2815 36.7203 53.0347 36.0974C52.7878 35.4745 52.4209 34.9064 51.9549 34.4255C51.4889 33.9447 50.9329 33.5605 50.3187 33.295C49.7045 33.0295 49.0441 32.8878 48.3753 32.8781L21.4917 32.4591C20.8216 32.4472 20.1558 32.5679 19.5324 32.8144C18.909 33.0608 18.3402 33.4282 17.8587 33.8953C17.3773 34.3624 16.9926 34.9202 16.7267 35.5366C16.4607 36.153 16.3189 36.816 16.3091 37.4874V37.4874C16.2993 38.1588 16.4217 38.8256 16.6695 39.4495C16.9173 40.0734 17.2855 40.6422 17.7531 41.1232C18.2207 41.6043 18.7785 41.9881 19.3944 42.2527C20.0103 42.5174 20.6722 42.6576 21.3424 42.6654V42.6654Z" fill="#FFA03E"/>
<path d="M36.6361 11.8666C36.6391 12.3734 36.4918 12.8696 36.213 13.2924C35.9342 13.7152 35.5364 14.0456 35.07 14.2416C34.6036 14.4376 34.0896 14.4904 33.5932 14.3933C33.0968 14.2963 32.6403 14.0537 32.2816 13.6964C31.9229 13.3391 31.6783 12.8832 31.5785 12.3864C31.4787 11.8896 31.5284 11.3743 31.7213 10.9058C31.9141 10.4373 32.2414 10.0367 32.6617 9.75485C33.0821 9.47299 33.5764 9.32252 34.0822 9.32251C34.7569 9.3225 35.4043 9.59007 35.8828 10.0668C36.3613 10.5434 36.6322 11.1905 36.6361 11.8666V11.8666Z" fill="white"/>
</g>
<defs>
<clipPath id="clip0">
<rect width="67" height="67" fill="white" transform="translate(0 0.313354)"/>
</clipPath>
</defs>
</svg>
