<svg width="236" height="197" viewBox="0 0 236 197" fill="none" xmlns="http://www.w3.org/2000/svg">
<g clip-path="url(#clip0)">
<path d="M0.720742 68.5226V118.715C0.720742 120.874 1.14557 123.013 1.97098 125.008C2.79638 127.003 4.00619 128.816 5.53133 130.343C7.05647 131.87 8.86707 133.082 10.8598 133.908C12.8525 134.735 14.9882 135.16 17.1451 135.16H196.91C201.267 135.16 205.446 133.428 208.528 130.344C211.61 127.26 213.343 123.077 213.347 118.715V76.2993L235.721 52.7313L17.2045 52.0535C15.0402 52.0441 12.8954 52.4634 10.8936 53.2873C8.89175 54.1111 7.07244 55.3233 5.54037 56.854C4.00831 58.3847 2.79374 60.2037 1.96659 62.2063C1.13944 64.2089 0.716023 66.3555 0.720742 68.5226Z" fill="#5E4D9A"/>
<path d="M185.497 83.9096H134.586C134.17 83.9096 133.837 83.434 133.837 82.8632C133.837 82.2924 134.17 81.8168 134.586 81.8168L185.497 81.8881C185.901 81.8881 186.234 82.3519 186.234 82.9226C186.234 83.4934 185.901 83.9096 185.497 83.9096Z" fill="white"/>
<path d="M185.497 95.004L134.586 94.9326C134.17 94.9326 133.837 94.4689 133.837 93.8862C133.837 93.3035 134.17 92.8517 134.586 92.8517L185.497 92.9111C185.901 92.9111 186.234 93.3868 186.234 93.9576C186.234 94.5283 185.901 95.004 185.497 95.004Z" fill="white"/>
<path d="M185.497 107.43H134.586C134.17 107.43 133.837 106.954 133.837 106.384C133.837 105.813 134.17 105.337 134.586 105.337L185.497 105.409C185.901 105.409 186.234 105.872 186.234 106.443C186.234 107.014 185.901 107.43 185.497 107.43Z" fill="white"/>
<path d="M64.6246 125.516C91.3061 125.516 112.936 104.37 112.936 78.2852C112.936 52.2001 91.3061 31.054 64.6246 31.054C37.9431 31.054 16.3135 52.2001 16.3135 78.2852C16.3135 104.37 37.9431 125.516 64.6246 125.516Z" fill="white"/>
<path d="M82.1893 75.9545H46.7042C44.9268 75.9545 43.4858 77.3972 43.4858 79.1769V81.3411C43.4858 83.1208 44.9268 84.5636 46.7042 84.5636H82.1893C83.9668 84.5636 85.4077 83.1208 85.4077 81.3411V79.1769C85.4077 77.3972 83.9668 75.9545 82.1893 75.9545Z" fill="#1E2E34"/>
<path d="M65.9192 6.08276H62.9858V20.9109H65.9192V6.08276Z" fill="#1E2E34"/>
<path d="M30.0046 58.6187C31.1026 53.9929 28.2476 49.3516 23.6277 48.2521C19.0078 47.1527 14.3724 50.0113 13.2744 54.6372C12.1763 59.263 15.0313 63.9042 19.6512 65.0037C24.2712 66.1032 28.9065 63.2445 30.0046 58.6187Z" fill="#FFA03E"/>
<path d="M116.889 57.9716C117.939 53.3347 115.037 48.7231 110.406 47.6714C105.775 46.6196 101.169 49.5259 100.119 54.1628C99.0683 58.7997 101.971 63.4112 106.602 64.463C111.233 65.5148 115.839 62.6085 116.889 57.9716Z" fill="#FFA03E"/>
<path d="M66.1449 17.6885C66.1449 17.6885 101.131 17.2723 106.665 47.6063C112.2 77.9403 82.6167 78.523 74.1136 79.0819C70.2539 79.3435 62.0002 79.3673 54.7202 79.2365C38.5928 78.963 27.2038 75.8356 23.3204 60.8529C22.8635 59.0966 22.5733 57.301 22.4535 55.4901C21.4321 39.0804 32.5242 16.8799 66.1449 17.6885Z" fill="#FFA03E"/>
<path d="M39.175 65.6332L90.0038 65.4072C91.2702 65.4026 92.5233 65.1482 93.6914 64.6586C94.8596 64.169 95.92 63.4539 96.8122 62.554C97.7043 61.6541 98.4107 60.587 98.891 59.4138C99.3713 58.2405 99.6161 56.984 99.6114 55.716C99.6068 54.4471 99.3523 53.1914 98.8626 52.021C98.373 50.8505 97.6576 49.7882 96.7576 48.8948C95.8576 48.0013 94.7905 47.2943 93.6174 46.8141C92.4442 46.3339 91.1881 46.0899 89.9207 46.0962L39.1038 46.3102C37.8364 46.3149 36.5824 46.5697 35.4134 47.06C34.2445 47.5503 33.1835 48.2665 32.2912 49.1677C31.3989 50.0688 30.6928 51.1373 30.2132 52.3119C29.7336 53.4866 29.49 54.7443 29.4962 56.0133C29.5088 58.5731 30.5348 61.0235 32.3493 62.8269C34.1637 64.6303 36.6185 65.6395 39.175 65.6332Z" fill="#1E2E34"/>
<path d="M67.8595 9.19475C69.7425 7.30939 69.7425 4.25263 67.8595 2.36727C65.9766 0.48191 62.9237 0.481906 61.0407 2.36726C59.1578 4.25262 59.1578 7.30939 61.0407 9.19475C62.9237 11.0801 65.9766 11.0801 67.8595 9.19475Z" fill="#FFA03E"/>
<path d="M81.8332 56.6673C81.7343 57.1654 81.4902 57.623 81.1317 57.9823C80.7731 58.3415 80.3162 58.5863 79.8188 58.6856C79.3214 58.7849 78.8057 58.7344 78.337 58.5403C77.8682 58.3462 77.4675 58.0174 77.1854 57.5953C76.9033 57.1733 76.7524 56.6769 76.752 56.1691C76.7515 55.6612 76.9014 55.1646 77.1828 54.742C77.4641 54.3194 77.8643 53.9899 78.3327 53.795C78.801 53.6 79.3166 53.5485 79.8142 53.647C80.1457 53.7109 80.4612 53.84 80.7425 54.0269C81.0238 54.2137 81.2653 54.4545 81.4531 54.7354C81.6408 55.0162 81.7711 55.3316 81.8363 55.6632C81.9016 55.9948 81.9005 56.3361 81.8332 56.6673Z" fill="white"/>
<path d="M51.2052 56.6672C51.1069 57.1651 50.8634 57.6226 50.5057 57.982C50.1479 58.3415 49.6918 58.5867 49.1949 58.6869C48.6981 58.787 48.1827 58.7376 47.7139 58.5447C47.2451 58.3519 46.8439 58.0243 46.5608 57.6033C46.2778 57.1824 46.1256 56.6869 46.1236 56.1794C46.1215 55.6719 46.2696 55.1752 46.5492 54.752C46.8288 54.3287 47.2274 53.9979 47.6946 53.8012C48.1618 53.6045 48.6767 53.5508 49.1744 53.6469C49.5062 53.711 49.8221 53.84 50.1039 54.0267C50.3857 54.2133 50.6279 54.4539 50.8166 54.7345C51.0053 55.0152 51.1368 55.3304 51.2035 55.6621C51.2702 55.9937 51.2707 56.3353 51.2052 56.6672Z" fill="white"/>
<path d="M64.2568 196.958C97.9234 196.958 125.216 173.192 125.216 143.876C125.216 114.56 97.9234 90.7946 64.2568 90.7946C30.5901 90.7946 3.29785 114.56 3.29785 143.876C3.29785 173.192 30.5901 196.958 64.2568 196.958Z" fill="#FFA03E"/>
</g>
<defs>
<clipPath id="clip0">
<rect width="235" height="196" fill="white" transform="translate(0.720703 0.957764)"/>
</clipPath>
</defs>
</svg>
