<svg width="213" height="270" viewBox="0 0 213 270" fill="none" xmlns="http://www.w3.org/2000/svg">
<g clip-path="url(#clip0)">
<path d="M130.049 37.0906H54.025C46.3919 37.0906 40.2041 43.2878 40.2041 50.9325V237.158C40.2041 244.803 46.3919 251 54.025 251H130.049C137.682 251 143.87 244.803 143.87 237.158V50.9325C143.87 43.2878 137.682 37.0906 130.049 37.0906Z" fill="#B6B3D9"/>
<path d="M72.4067 41.5198H51.4206C50.565 41.519 49.7177 41.687 48.927 42.0143C48.1363 42.3417 47.4178 42.8219 46.8126 43.4275C46.2073 44.0331 45.7271 44.7522 45.3995 45.5438C45.0719 46.3353 44.9033 47.1838 44.9033 48.0406V239.918C44.9033 241.649 45.59 243.309 46.8122 244.533C48.0344 245.757 49.6921 246.445 51.4206 246.445H133.258C134.986 246.445 136.644 245.757 137.866 244.533C139.088 243.309 139.775 241.649 139.775 239.918V48.0406C139.775 47.1838 139.606 46.3353 139.279 45.5438C138.951 44.7522 138.471 44.0331 137.866 43.4275C137.26 42.8219 136.542 42.3417 135.751 42.0143C134.96 41.687 134.113 41.519 133.258 41.5198H72.4067Z" fill="#F9F9FC"/>
<path d="M129.672 219.392H54.7609C53.1002 219.392 51.7539 220.74 51.7539 222.403V224.104C51.7539 225.767 53.1002 227.116 54.7609 227.116H129.672C131.332 227.116 132.679 225.767 132.679 224.104V222.403C132.679 220.74 131.332 219.392 129.672 219.392Z" fill="#E3E4F2"/>
<path d="M103.106 233.448H53.8487C52.6918 233.448 51.7539 234.387 51.7539 235.546V235.653C51.7539 236.812 52.6918 237.751 53.8487 237.751H103.106C104.263 237.751 105.2 236.812 105.2 235.653V235.546C105.2 234.387 104.263 233.448 103.106 233.448Z" fill="#E3E4F2"/>
<path d="M130.521 233.448H110.692C109.536 233.448 108.598 234.387 108.598 235.546V235.653C108.598 236.812 109.536 237.751 110.692 237.751H130.521C131.678 237.751 132.616 236.812 132.616 235.653V235.546C132.616 234.387 131.678 233.448 130.521 233.448Z" fill="#E3E4F2"/>
<path d="M88.5431 75.397H68.5887C68.6742 75.8757 68.634 76.3685 68.4718 76.8269C68.3097 77.2853 68.0313 77.6936 67.664 78.0116C67.1135 78.5645 66.4581 79.0016 65.7364 79.297C65.0147 79.5924 64.2413 79.7401 63.4617 79.7316H36.4931C35.7135 79.7401 34.9401 79.5924 34.2184 79.297C33.4967 79.0016 32.8413 78.5645 32.2908 78.0116C31.9235 77.6936 31.6451 77.2853 31.483 76.8269C31.3209 76.3685 31.2806 75.8757 31.3661 75.397H11.4117C10.661 75.3961 9.9176 75.5435 9.22386 75.8306C8.53011 76.1177 7.89968 76.539 7.3686 77.0703C6.83752 77.6016 6.41621 78.2325 6.12876 78.927C5.84131 79.6215 5.69336 80.3659 5.69336 81.1177V260.98C5.69503 262.498 6.29823 263.953 7.37044 265.026C8.44266 266.098 9.89618 266.701 11.4117 266.701H88.5431C90.0586 266.701 91.5122 266.098 92.5844 265.026C93.6566 263.953 94.2598 262.498 94.2615 260.98V81.1177C94.2615 80.3659 94.1135 79.6215 93.826 78.927C93.5386 78.2325 93.1173 77.6016 92.5862 77.0703C92.0551 76.539 91.4247 76.1177 90.731 75.8306C90.0372 75.5435 89.2938 75.3961 88.5431 75.397Z" fill="#F9F9FC"/>
<path d="M88.5431 75.397H68.5887C68.6742 75.8757 68.634 76.3685 68.4718 76.8269C68.3097 77.2853 68.0313 77.6936 67.664 78.0116C67.1135 78.5645 66.4581 79.0016 65.7364 79.297C65.0147 79.5924 64.2413 79.7401 63.4617 79.7316H36.4931C35.7135 79.7401 34.9401 79.5924 34.2184 79.297C33.4967 79.0016 32.8413 78.5645 32.2908 78.0116C31.9235 77.6936 31.6451 77.2853 31.483 76.8269C31.3209 76.3685 31.2806 75.8757 31.3661 75.397H11.4117C10.661 75.3961 9.9176 75.5435 9.22386 75.8306C8.53011 76.1177 7.89968 76.539 7.3686 77.0703C6.83752 77.6016 6.41621 78.2325 6.12876 78.927C5.84131 79.6215 5.69336 80.3659 5.69336 81.1177V260.98C5.69503 262.498 6.29823 263.953 7.37044 265.026C8.44266 266.098 9.89619 266.701 11.4117 266.701H88.5431C90.0586 266.701 91.5122 266.098 92.5844 265.026C93.6566 263.953 94.2598 262.498 94.2615 260.98V81.1177C94.2615 80.3659 94.1135 79.6215 93.8261 78.927C93.5386 78.2325 93.1173 77.6016 92.5862 77.0703C92.0551 76.539 91.4247 76.1177 90.731 75.8306C90.0372 75.5435 89.2938 75.3961 88.5431 75.397Z" stroke="#604D9B" stroke-width="2" stroke-miterlimit="10"/>
<path d="M76.0938 27.3314V47.2027C76.0954 48.9283 76.7806 50.5828 77.9989 51.8029C79.2173 53.0231 80.8692 53.7093 82.5921 53.711H153.71C155.434 53.711 157.087 53.0255 158.307 51.8052C159.527 50.5848 160.213 48.9294 160.214 47.2027V30.4123L169.072 21.113L82.5921 20.842C80.8719 20.842 79.2219 21.5251 78.0037 22.7416C76.7856 23.958 76.0987 25.6086 76.0938 27.3314Z" fill="#5E4D9A"/>
<path d="M149.192 33.424H129.062C128.905 33.424 128.772 33.235 128.772 33.0082C128.772 32.7813 128.905 32.5986 129.062 32.5986H149.192C149.356 32.5986 149.488 32.7813 149.488 33.0082C149.488 33.235 149.356 33.424 149.192 33.424Z" fill="white"/>
<path d="M149.192 37.8153H129.062C128.905 37.8153 128.772 37.6263 128.772 37.3995C128.772 37.1727 128.905 36.99 129.062 36.99H149.192C149.356 36.99 149.488 37.1727 149.488 37.3995C149.488 37.6263 149.356 37.8153 149.192 37.8153Z" fill="white"/>
<path d="M149.192 42.7106H129.062C128.905 42.7106 128.772 42.5216 128.772 42.2948C128.772 42.068 128.905 41.8853 129.062 41.8853H149.192C149.356 41.8853 149.488 42.068 149.488 42.2948C149.488 42.5216 149.356 42.7106 149.192 42.7106Z" fill="white"/>
<path d="M101.364 49.8931C111.922 49.8931 120.482 41.521 120.482 31.1936C120.482 20.8662 111.922 12.4941 101.364 12.4941C90.8054 12.4941 82.2461 20.8662 82.2461 31.1936C82.2461 41.521 90.8054 49.8931 101.364 49.8931Z" fill="white"/>
<path d="M107.925 30.2737H94.6578C93.7406 30.2737 92.9971 31.0184 92.9971 31.937V32.0189C92.9971 32.9375 93.7406 33.6822 94.6578 33.6822H107.925C108.842 33.6822 109.586 32.9375 109.586 32.0189V31.937C109.586 31.0184 108.842 30.2737 107.925 30.2737Z" fill="#1E2E34"/>
<path d="M101.866 2.61523H100.709V8.48086H101.866V2.61523Z" fill="#1E2E34"/>
<path d="M87.664 23.4131C88.0986 21.5816 86.9686 19.7441 85.1399 19.3088C83.3113 18.8735 81.4765 20.0053 81.0419 21.8367C80.6072 23.6682 81.7373 25.5057 83.566 25.941C85.3946 26.3763 87.2294 25.2445 87.664 23.4131Z" fill="#FFA03E"/>
<path d="M122.054 22.5144C122.468 20.6696 121.309 18.8383 119.467 18.4242C117.625 18.0101 115.797 19.1698 115.383 21.0147C114.97 22.8595 116.128 24.6907 117.97 25.1048C119.812 25.519 121.64 24.3592 122.054 22.5144Z" fill="#FFA03E"/>
<path d="M101.961 7.20819C101.961 7.20819 115.801 7.04438 117.996 19.0529C120.192 31.0613 108.478 31.2818 105.113 31.5087C103.591 31.6158 100.319 31.6221 97.4381 31.578C91.0593 31.4646 86.5488 30.2297 85.0138 24.3011C84.8349 23.603 84.7191 22.8903 84.6678 22.1715C84.2715 15.6759 88.675 6.89317 101.961 7.20819Z" fill="#FFA03E"/>
<path d="M91.267 26.1849L111.398 26.103C112.406 26.0913 113.369 25.6807 114.076 24.9607C114.783 24.2406 115.177 23.2697 115.172 22.2598C115.162 21.2504 114.753 20.2861 114.035 19.5777C113.318 18.8693 112.349 18.4745 111.341 18.4795L91.2103 18.5677C90.2047 18.5727 89.2418 18.9755 88.5313 19.6882C87.8208 20.401 87.4203 21.366 87.417 22.3732C87.4178 22.8772 87.5183 23.3761 87.7126 23.8411C87.9069 24.3061 88.1912 24.7279 88.5491 25.0823C88.907 25.4366 89.3315 25.7165 89.7979 25.9058C90.2644 26.095 90.7637 26.1899 91.267 26.1849Z" fill="#1E2E34"/>
<path d="M102.645 3.8531C103.392 3.10513 103.392 1.89243 102.645 1.14445C101.898 0.396477 100.687 0.396474 99.9402 1.14445C99.1933 1.89242 99.1933 3.10513 99.9402 3.85311C100.687 4.60108 101.898 4.60108 102.645 3.8531Z" fill="#FFA03E"/>
<path d="M108.177 22.6376C108.139 22.8364 108.043 23.0196 107.901 23.1637C107.759 23.3078 107.578 23.4065 107.38 23.4471C107.182 23.4877 106.976 23.4684 106.789 23.3917C106.602 23.3151 106.442 23.1844 106.329 23.0164C106.217 22.8484 106.156 22.6507 106.156 22.4483C106.156 22.2459 106.216 22.048 106.328 21.8798C106.441 21.7115 106.6 21.5805 106.787 21.5034C106.974 21.4264 107.18 21.4066 107.378 21.4468C107.508 21.4725 107.632 21.5236 107.743 21.5973C107.854 21.671 107.949 21.7659 108.023 21.8765C108.098 21.987 108.149 22.1112 108.176 22.2418C108.202 22.3724 108.202 22.5069 108.177 22.6376Z" fill="white"/>
<path d="M96.0477 22.6376C96.01 22.8364 95.9141 23.0196 95.7722 23.1637C95.6304 23.3078 95.4489 23.4065 95.2509 23.4471C95.0529 23.4877 94.8474 23.4684 94.6604 23.3917C94.4733 23.3151 94.3133 23.1844 94.2006 23.0164C94.0879 22.8484 94.0276 22.6507 94.0273 22.4483C94.0271 22.2459 94.087 22.048 94.1993 21.8798C94.3117 21.7115 94.4714 21.5805 94.6583 21.5034C94.8452 21.4264 95.0507 21.4066 95.2487 21.4468C95.3793 21.4725 95.5035 21.5236 95.6143 21.5973C95.7251 21.671 95.8203 21.7659 95.8945 21.8765C95.9687 21.987 96.0204 22.1112 96.0467 22.2418C96.073 22.3724 96.0733 22.5069 96.0477 22.6376Z" fill="white"/>
<path d="M101.219 78.1689C114.543 78.1689 125.344 68.7616 125.344 57.1572C125.344 45.5528 114.543 36.1455 101.219 36.1455C87.895 36.1455 77.0938 45.5528 77.0938 57.1572C77.0938 68.7616 87.895 78.1689 101.219 78.1689Z" fill="#FFA03E"/>
<path d="M116.789 64.9194H210.453C211.12 64.9194 211.76 65.185 212.232 65.6576C212.704 66.1302 212.969 66.7712 212.969 67.4396V97.9774C212.969 98.6458 212.704 99.2868 212.232 99.7594C211.76 100.232 211.12 100.498 210.453 100.498H133.969L127.779 107.233C127.779 107.233 127.15 103.452 126.577 100.498H116.789C116.122 100.498 115.481 100.232 115.01 99.7594C114.538 99.2868 114.273 98.6458 114.273 97.9774V67.4648C114.269 67.1317 114.332 66.8013 114.457 66.4926C114.582 66.1839 114.767 65.9031 115.001 65.6665C115.235 65.4298 115.513 65.2419 115.82 65.1137C116.127 64.9854 116.456 64.9194 116.789 64.9194Z" fill="#C5C2E1"/>
<path d="M165.712 75.6363L122.934 75.5922C122.882 75.5914 122.829 75.5801 122.781 75.5591C122.732 75.5381 122.688 75.5077 122.652 75.4696C122.615 75.4316 122.586 75.3867 122.566 75.3375C122.547 75.2882 122.537 75.2356 122.538 75.1827C122.536 75.0751 122.577 74.9712 122.651 74.8934C122.725 74.8156 122.827 74.7701 122.934 74.7668L165.712 74.8109C165.765 74.8118 165.817 74.823 165.865 74.844C165.914 74.8651 165.958 74.8955 165.995 74.9335C166.032 74.9715 166.06 75.0164 166.08 75.0657C166.099 75.1149 166.109 75.1675 166.108 75.2205C166.11 75.328 166.069 75.4319 165.995 75.5097C165.921 75.5875 165.819 75.633 165.712 75.6363Z" fill="white"/>
<path d="M165.706 80.2796L122.929 80.2418C122.828 80.2294 122.736 80.1805 122.669 80.1045C122.601 80.0285 122.564 79.9306 122.564 79.8292C122.564 79.7277 122.601 79.6298 122.669 79.5538C122.736 79.4778 122.828 79.429 122.929 79.4165L165.706 79.4543C165.813 79.4576 165.915 79.5031 165.989 79.5809C166.063 79.6587 166.104 79.7626 166.102 79.8701C166.102 79.9766 166.061 80.0789 165.987 80.1553C165.913 80.2318 165.812 80.2764 165.706 80.2796Z" fill="white"/>
<path d="M165.706 84.9923L122.929 84.9545C122.828 84.942 122.736 84.8932 122.669 84.8172C122.601 84.7412 122.564 84.6433 122.564 84.5418C122.564 84.4404 122.601 84.3424 122.669 84.2664C122.736 84.1904 122.828 84.1416 122.929 84.1292L165.706 84.167C165.813 84.1702 165.915 84.2157 165.989 84.2935C166.063 84.3713 166.104 84.4752 166.102 84.5828C166.103 84.6357 166.094 84.6883 166.074 84.7376C166.055 84.7868 166.026 84.8317 165.989 84.8697C165.952 84.9078 165.908 84.9382 165.86 84.9592C165.811 84.9802 165.759 84.9915 165.706 84.9923Z" fill="white"/>
<path d="M150.274 89.8752H122.922C122.821 89.8627 122.729 89.8139 122.662 89.7379C122.595 89.6619 122.558 89.5639 122.558 89.4625C122.558 89.361 122.595 89.2631 122.662 89.1871C122.729 89.1111 122.821 89.0623 122.922 89.0498H150.274C150.375 89.0623 150.467 89.1111 150.534 89.1871C150.601 89.2631 150.638 89.361 150.638 89.4625C150.638 89.5639 150.601 89.6619 150.534 89.7379C150.467 89.8139 150.375 89.8627 150.274 89.8752Z" fill="white"/>
<path d="M197.109 51.7831C197.059 51.0271 197.738 49.9749 198.367 49.3764C198.725 49.0534 198.981 48.6325 199.103 48.1656C199.225 47.6987 199.207 47.2062 199.053 46.7491C198.801 45.8104 198.204 45.8797 197.971 45.3315C197.858 44.9022 197.811 44.4582 197.833 44.0148C197.785 43.6415 197.661 43.282 197.468 42.9591C197.275 42.6362 197.017 42.3568 196.711 42.1385C196.405 41.9201 196.057 41.7676 195.689 41.6904C195.322 41.6132 194.942 41.613 194.574 41.6899C194.372 40.9578 193.954 40.3036 193.375 39.8128C192.796 39.322 192.083 39.0173 191.328 38.9384C190.574 38.8595 189.813 39.0101 189.145 39.3706C188.478 39.731 187.934 40.2846 187.585 40.9591C187.157 40.7355 186.681 40.6217 186.198 40.6281C185.716 40.6345 185.243 40.7608 184.821 40.9957C184.399 41.2305 184.043 41.5666 183.783 41.9737C183.523 42.3808 183.368 42.8462 183.332 43.328C182.9 43.0523 182.383 42.9424 181.877 43.0189C181.37 43.0953 180.908 43.3529 180.577 43.7439C180.264 44.1516 180.077 44.6429 180.042 45.1562C180.006 45.6695 180.122 46.182 180.376 46.6294C180.64 47.0705 181 47.4463 181.429 47.7288C181.858 48.0113 182.345 48.1933 182.854 48.2612C183.875 48.391 184.912 48.2041 185.823 47.7257C186.729 47.2434 187.553 46.6203 188.264 45.8797" fill="#1E2E34"/>
<path d="M190.378 99.2058C200.231 99.2058 208.218 91.3951 208.218 81.7601C208.218 72.1251 200.231 64.3145 190.378 64.3145C180.525 64.3145 172.537 72.1251 172.537 81.7601C172.537 91.3951 180.525 99.2058 190.378 99.2058Z" fill="#E1E1E1"/>
<path d="M172.462 81.7729L174.437 76.7327L181.514 81.1807L175.224 90.9211C175.224 90.9211 172.644 87.5567 172.462 81.7729Z" fill="#EB996E"/>
<path d="M192.001 70.7976C190.781 70.8042 189.606 70.3408 188.718 69.5034C187.831 68.666 187.299 67.5186 187.232 66.2991C187.126 64.2011 187.037 62.1787 187.037 62.1787C187.037 62.1787 183.143 61.8951 182.785 58.0834C182.426 54.2717 182.376 45.4827 182.376 45.4827C184.488 44.3748 186.855 43.8461 189.237 43.9501C191.619 44.0541 193.931 44.7872 195.939 46.0749L196.31 46.3143L196.757 66.0345C196.758 66.6604 196.636 67.2806 196.398 67.8592C196.16 68.4378 195.809 68.9636 195.367 69.4062C194.926 69.8488 194.401 70.1996 193.823 70.4384C193.245 70.6772 192.626 70.7992 192.001 70.7976Z" fill="#FFBE9D"/>
<path d="M187.031 62.1221C188.805 62.0123 190.508 61.3812 191.925 60.3076C191.925 60.3076 190.963 63.1491 187.1 63.1113L187.031 62.1221Z" fill="#EB996E"/>
<path d="M196.404 51.8839C196.401 51.7349 196.455 51.5905 196.556 51.4812C196.657 51.3718 196.797 51.3061 196.945 51.2979C197.663 51.2601 198.833 51.5247 198.99 53.4905C199.204 56.2941 196.474 55.6452 196.474 55.5633C196.474 55.4814 196.417 52.9801 196.404 51.8839Z" fill="#FFBE9D"/>
<path d="M197.059 54.4483C197.059 54.4483 197.109 54.4483 197.197 54.5113C197.317 54.5574 197.449 54.5574 197.568 54.5113C197.74 54.3825 197.875 54.2102 197.959 54.0121C198.043 53.8139 198.073 53.597 198.046 53.3835C198.036 53.1412 197.972 52.9043 197.858 52.6905C197.824 52.6054 197.77 52.5297 197.701 52.4695C197.632 52.4092 197.55 52.3662 197.461 52.3439C197.403 52.3339 197.343 52.344 197.292 52.3726C197.24 52.4013 197.2 52.4468 197.178 52.5014C197.147 52.5833 197.178 52.64 197.178 52.6463C197.178 52.6526 197.115 52.6022 197.128 52.4825C197.138 52.4114 197.174 52.3465 197.229 52.2998C197.264 52.2674 197.306 52.2423 197.351 52.2261C197.397 52.2099 197.445 52.2028 197.493 52.2053C197.61 52.2185 197.723 52.262 197.819 52.3316C197.915 52.4011 197.991 52.4944 198.04 52.6022C198.181 52.8348 198.261 53.0992 198.273 53.3709C198.305 53.6198 198.263 53.8727 198.151 54.0972C198.038 54.3217 197.862 54.5076 197.644 54.631C197.57 54.6588 197.491 54.6699 197.413 54.6633C197.335 54.6568 197.259 54.6328 197.191 54.5932C197.071 54.505 197.052 54.4546 197.059 54.4483Z" fill="#EB996E"/>
<path d="M181.835 46.6673C182.696 46.993 183.617 47.1274 184.535 47.061C185.453 46.9946 186.346 46.7292 187.151 46.283C189.126 45.3002 191.422 44.815 191.932 45.212C192.441 45.6089 192.561 47.6439 194.498 48.2424C194.498 48.2424 194.366 52.1234 195.908 51.9848C197.449 51.8462 196.486 45.8294 196.486 45.8294L192.712 43.9834L188.585 43.2021L184.697 43.7503L181.69 44.5756L181.835 46.6673Z" fill="#1E2E34"/>
<path d="M207.722 69.1342C203.677 64.976 196.562 65.4296 196.562 65.4296L190.667 69.6571L187.327 65.7572C184.957 66.0782 182.657 66.7915 180.52 67.8678L180.294 67.9371V67.9812C177.708 69.3862 174.047 72.7632 170.556 76.0394L174.733 79.9141L179.356 84.0219C179.348 84.0486 179.348 84.0772 179.356 84.1038C179.407 84.3559 178.727 90.0073 178.01 94.2978C180.022 96.2864 182.487 97.7537 185.192 98.5727C187.898 99.3917 190.762 99.5377 193.536 98.9979C195.423 98.6703 196.342 98.204 198.09 97.7378C199.356 97.4094 200.488 96.6941 201.329 95.6914C202.171 94.6887 202.679 93.4485 202.783 92.1431C203.104 88.5456 203.343 84.0912 203.343 84.0912" fill="#5E4D9A"/>
<path d="M183.629 66.4756C183.531 66.6798 183.447 66.8902 183.377 67.1056C183.226 67.5403 183.018 68.1704 182.748 68.9516C182.263 70.5141 181.641 72.6877 181.056 75.1134C180.471 77.539 180.037 79.7567 179.753 81.3696C179.615 82.1761 179.514 82.8313 179.451 83.2597C179.405 83.4921 179.38 83.7283 179.376 83.9654C179.444 83.7383 179.497 83.5067 179.533 83.2723L179.904 81.3822C180.219 79.7756 180.684 77.5705 181.27 75.1449C181.855 72.7192 182.446 70.5456 182.899 68.9768C183.113 68.2145 183.295 67.5907 183.427 67.0867C183.508 66.8879 183.576 66.6837 183.629 66.4756Z" fill="#3D3468"/>
<path d="M179.835 81.3633C179.873 81.3129 178.105 79.8134 175.897 78.0115C173.689 76.2096 171.859 74.7794 171.821 74.8235C171.783 74.8676 173.551 76.3734 175.759 78.1753C177.967 79.9772 179.798 81.4074 179.835 81.3633Z" fill="#3D3468"/>
<path opacity="0.2" d="M202.387 74.8486L206.005 86.7626L204.658 87.4683L203.331 84.1165C203.331 84.1165 201.966 77.016 202.387 74.8486Z" fill="black"/>
<g opacity="0.2">
<path opacity="0.2" d="M184.018 66.4755C182.074 67.5087 186.956 69.9848 189.164 69.9155L187.56 65.6816C186.359 65.8485 185.175 66.114 184.018 66.4755Z" fill="black"/>
</g>
<path d="M197.147 65.6944V62.5442C197.147 62.5442 190.995 64.1319 190.768 67.8176C190.768 67.8176 189.988 63.7413 186.818 63.5459L186.371 69.2793L190.058 72.4987H193.801L196.757 69.9345L197.147 65.9527" fill="#5E4D9A"/>
<path d="M189.385 85.5025C189.402 85.276 189.402 85.0485 189.385 84.8221C189.385 84.3873 189.385 83.7573 189.385 82.9761C189.385 81.4199 189.429 79.2651 189.624 76.8962C189.819 74.5273 190.127 72.3915 190.385 70.8605C190.517 70.117 190.63 69.5059 190.712 69.0397C190.761 68.8196 190.794 68.5965 190.813 68.3718C190.733 68.5761 190.672 68.7869 190.63 69.0019C190.523 69.4303 190.391 70.0477 190.24 70.8101C189.854 72.8095 189.576 74.8286 189.41 76.8584C189.236 78.8864 189.177 80.9226 189.234 82.9572C189.234 83.7384 189.284 84.3748 189.315 84.8095C189.322 85.0418 189.346 85.2734 189.385 85.5025Z" fill="#3D3468"/>
<path d="M191.051 66.7527C191.171 66.7212 191.296 66.7212 191.416 66.7527C191.655 66.8283 191.863 67.1244 192.045 67.5402C192.551 68.6332 192.943 69.7754 193.215 70.9487L193.253 71.0936L193.372 71.018C193.743 70.7975 194.121 70.5518 194.498 70.2935C195.193 69.8283 195.859 69.3212 196.493 68.7751C196.784 68.535 197.016 68.231 197.172 67.8868C197.297 67.5846 197.368 67.2624 197.38 66.9354C197.394 66.4718 197.349 66.0082 197.247 65.5556C197.222 65.3867 197.175 65.2217 197.109 65.0642C197.114 65.2335 197.133 65.402 197.166 65.5682C197.234 66.0163 197.255 66.4703 197.229 66.9228C197.207 67.2288 197.135 67.529 197.015 67.8112C196.867 68.1268 196.652 68.4063 196.386 68.6302C195.801 69.1153 195.127 69.6194 194.398 70.1171C194.02 70.3733 193.649 70.6127 193.284 70.8353L193.442 70.9046C193.158 69.7186 192.736 68.5702 192.183 67.4835C192.097 67.2923 191.987 67.1125 191.856 66.948C191.753 66.8252 191.618 66.7336 191.466 66.6834C191.177 66.6393 191.045 66.7464 191.051 66.7527Z" fill="#3D3468"/>
<path d="M186.811 63.5396C186.769 63.6999 186.748 63.8651 186.748 64.031L186.654 65.3793C186.61 65.94 186.541 66.6393 186.421 67.3576C186.324 67.753 186.3 68.1632 186.352 68.5672C186.5 68.9907 186.783 69.3537 187.157 69.6005C187.641 69.8996 188.094 70.2457 188.51 70.6337L188.68 70.8165V70.5707C188.756 69.4915 189.067 68.442 189.592 67.4962C189.982 66.7968 190.303 66.4314 190.277 66.4125C190.186 66.4837 190.103 66.5663 190.032 66.6582C189.826 66.9001 189.64 67.1594 189.478 67.4332C188.9 68.389 188.555 69.4685 188.472 70.5833L188.654 70.5203C188.232 70.1198 187.771 69.763 187.277 69.4556C186.941 69.237 186.683 68.9171 186.541 68.542C186.496 68.1632 186.517 67.7795 186.604 67.408C186.711 66.6582 186.767 65.9841 186.792 65.4108C186.817 64.8374 186.824 64.3775 186.824 64.0625C186.836 63.8882 186.832 63.7131 186.811 63.5396Z" fill="#3D3468"/>
<path d="M167.008 64.3335C167.26 64.6296 176.319 76.7578 176.319 76.7578L175.06 77.4823L165.763 65.5117L167.008 64.3335Z" fill="#1E2E34"/>
<path d="M203.406 73.9225C203.406 73.9225 193.876 87.6636 193.297 87.9345C192.165 88.47 179.13 77.1798 177.884 76.1024C177.715 75.8756 177.356 75.3905 176.664 74.4265C176.664 74.4265 175.639 69.7139 174.538 70.073C173.437 70.4321 175.167 72.4671 174.425 74.2627C173.682 76.0583 170.436 71.7804 170.304 71.3961L169.461 70.2935C169.461 70.2935 168.574 72.8137 168.637 73.8532C168.826 77.2176 172.003 81.2183 172.003 81.2183C172.003 81.2183 186.276 98.9223 196.046 99.4893C198.864 99.6469 203.865 91.6454 207.212 85.6286C208.192 83.8774 208.496 81.8269 208.065 79.8664C207.635 77.9059 206.501 76.1718 204.878 74.9936L203.406 73.9225Z" fill="#FFBE9D"/>
<path d="M170.242 74.4518C170.242 74.4518 169.965 73.891 169.612 73.1917C169.429 72.7592 169.219 72.3384 168.983 71.9316C169.094 72.3843 169.263 72.8206 169.487 73.2295C169.676 73.6723 169.931 74.0842 170.242 74.4518Z" fill="#EB996E"/>
<path d="M205.017 67.219C205.017 67.219 215.245 70.8606 207.64 88.0921L195.832 80.9664L197.512 76.9342L205.017 67.219Z" fill="#5E4D9A"/>
<path d="M205.803 67.515C205.381 67.4776 204.955 67.5138 204.545 67.6221C204.073 67.7437 203.621 67.9348 203.205 68.1892C202.655 68.5265 202.153 68.9378 201.714 69.4114C200.599 70.661 199.663 72.0606 198.934 73.5697C198.066 75.2455 197.26 77.1546 196.417 79.1581L195.694 80.9096L195.656 80.9978L195.744 81.0482C199.16 82.9383 202.136 84.6583 204.237 85.9688C205.287 86.5988 206.124 87.1532 206.703 87.5249L207.363 87.9534L207.602 88.092C207.538 88.0277 207.466 87.9706 207.389 87.9219C207.244 87.8148 207.03 87.6572 206.759 87.4619C206.2 87.0713 205.369 86.5169 204.325 85.8428C202.243 84.5071 199.292 82.7304 195.858 80.8592L195.908 80.9915C196.134 80.4307 196.38 79.8385 196.631 79.24C197.462 77.2365 198.261 75.3338 199.11 73.6642C199.82 72.1643 200.732 70.7693 201.821 69.5185C202.245 69.0354 202.732 68.6115 203.268 68.2585C203.67 68.0027 204.107 67.8054 204.564 67.6725C204.972 67.5868 205.387 67.5342 205.803 67.515Z" fill="#3D3468"/>
<path d="M183.792 41.9734C183.77 42.0305 183.753 42.0895 183.742 42.1498C183.72 42.3276 183.72 42.5075 183.742 42.6853C183.761 43.102 183.875 43.5089 184.075 43.8746C184.275 44.2403 184.557 44.5551 184.898 44.7949C185.238 45.0346 185.63 45.1929 186.041 45.2575C186.453 45.3221 186.873 45.2914 187.271 45.1677C187.853 45.019 188.357 44.6541 188.68 44.147C188.856 43.8698 188.931 43.5407 188.894 43.2146C188.876 43.0451 188.821 42.8815 188.734 42.7348C188.647 42.5881 188.53 42.4617 188.391 42.364C188.243 42.2725 188.075 42.2189 187.902 42.2079C187.728 42.1969 187.555 42.2289 187.397 42.301C187.092 42.4302 186.85 42.6747 186.724 42.9814C186.621 43.2667 186.591 43.5735 186.639 43.8732C186.686 44.1729 186.808 44.4556 186.994 44.6951C187.302 45.0965 187.743 45.3755 188.237 45.4827C188.731 45.59 189.247 45.5186 189.693 45.2811C190.017 45.1132 190.359 44.9822 190.712 44.8905C190.977 44.8344 191.253 44.8653 191.498 44.9787C191.707 45.0887 191.905 45.2174 192.09 45.363C192.054 45.3095 192.012 45.2608 191.964 45.2181C191.915 45.1616 191.861 45.1109 191.8 45.0669C191.72 45.0009 191.631 44.9458 191.536 44.9031C191.277 44.7689 190.98 44.7246 190.693 44.777C190.327 44.8534 189.972 44.9762 189.636 45.1425C189.445 45.2303 189.244 45.2979 189.039 45.3441C188.82 45.3817 188.597 45.3817 188.378 45.3441C187.89 45.2567 187.452 44.9892 187.152 44.5943C186.99 44.3806 186.884 44.1298 186.843 43.8647C186.802 43.5996 186.828 43.3285 186.919 43.076C186.967 42.948 187.043 42.8317 187.139 42.7347C187.235 42.6377 187.351 42.5621 187.479 42.5128C187.606 42.4635 187.743 42.4416 187.879 42.4485C188.016 42.4554 188.149 42.491 188.271 42.553C188.385 42.6353 188.48 42.7407 188.551 42.8623C188.621 42.9838 188.665 43.1189 188.68 43.2587C188.714 43.5357 188.652 43.816 188.504 44.0525C188.211 44.5071 187.765 44.8405 187.246 44.9913C186.797 45.1252 186.32 45.1375 185.865 45.0268C185.41 44.9162 184.992 44.6865 184.654 44.3612C184.201 43.9074 183.916 43.3113 183.849 42.6727C183.816 42.4409 183.798 42.2074 183.792 41.9734Z" fill="#3E5963"/>
<path d="M183.119 43.366C182.974 43.5902 182.903 43.855 182.918 44.122C182.883 44.7743 183.102 45.4148 183.529 45.9084C183.956 46.4021 184.558 46.7103 185.208 46.7682C185.471 46.8141 185.741 46.7835 185.988 46.68C185.988 46.6422 185.686 46.68 185.226 46.617C184.626 46.5238 184.078 46.2185 183.682 45.7564C183.287 45.2942 183.069 44.7056 183.069 44.0968C183.037 43.6558 183.15 43.3723 183.119 43.366Z" fill="#3E5963"/>
<path d="M142.883 154.838C150.446 154.838 156.578 148.697 156.578 141.122C156.578 133.547 150.446 127.406 142.883 127.406C135.319 127.406 129.188 133.547 129.188 141.122C129.188 148.697 135.319 154.838 142.883 154.838Z" fill="white" stroke="#5E4D9A" stroke-width="2" stroke-miterlimit="10"/>
<path d="M151.199 123.5C151.684 123.702 152.162 123.928 152.621 124.174" stroke="#F89E41" stroke-width="2" stroke-linecap="round" stroke-linejoin="round"/>
<path d="M157.616 128.03C160.501 131.178 162.208 135.228 162.449 139.494C162.69 143.759 161.449 147.976 158.937 151.43" stroke="#F89E41" stroke-width="2" stroke-linecap="round" stroke-linejoin="round" stroke-dasharray="5.03 10.07"/>
<path d="M156.861 153.817C156.484 154.183 156.093 154.529 155.685 154.863" stroke="#F89E41" stroke-width="2" stroke-linecap="round" stroke-linejoin="round"/>
<path d="M150.545 136.63L145.921 141.254L150.57 145.879C150.658 145.698 150.705 145.5 150.708 145.299V137.203C150.705 137.004 150.658 136.808 150.57 136.63H150.545Z" fill="#5E4D9A"/>
<path d="M143.971 141.91L149.91 135.994C149.73 135.902 149.532 135.854 149.331 135.855H136.699C136.498 135.854 136.299 135.902 136.12 135.994L142.065 141.91C142.317 142.157 142.656 142.296 143.009 142.296C143.362 142.296 143.7 142.157 143.952 141.91H143.971Z" fill="#5E4D9A"/>
<path d="M135.491 136.63C135.4 136.807 135.353 137.004 135.353 137.203V145.299C135.352 145.501 135.399 145.699 135.491 145.879L140.134 141.254L135.491 136.63Z" fill="#5E4D9A"/>
<path d="M144.606 142.546C144.187 142.96 143.622 143.192 143.034 143.192C142.445 143.192 141.88 142.96 141.461 142.546L140.8 141.916L136.12 146.49C136.301 146.576 136.499 146.621 136.699 146.622H149.331C149.531 146.621 149.729 146.576 149.91 146.49L145.292 141.891L144.663 142.521L144.606 142.546Z" fill="#5E4D9A"/>
<path d="M142.883 233.353C150.446 233.353 156.578 227.212 156.578 219.637C156.578 212.062 150.446 205.921 142.883 205.921C135.319 205.921 129.188 212.062 129.188 219.637C129.188 227.212 135.319 233.353 142.883 233.353Z" fill="white" stroke="#5E4D9A" stroke-width="2" stroke-miterlimit="10"/>
<path d="M156.112 206.596C156.49 206.974 156.842 207.358 157.175 207.755" stroke="#F89E41" stroke-width="2" stroke-linecap="round" stroke-linejoin="round"/>
<path d="M160.252 212.921C161.264 215.509 161.68 218.292 161.47 221.064C161.26 223.836 160.429 226.524 159.039 228.93C157.648 231.335 155.735 233.396 153.44 234.959C151.145 236.523 148.528 237.548 145.783 237.959" stroke="#F89E41" stroke-width="2" stroke-linecap="round" stroke-linejoin="round" stroke-dasharray="4.79 9.58"/>
<path d="M142.776 238.154C142.254 238.154 141.725 238.116 141.203 238.066" stroke="#F89E41" stroke-width="2" stroke-linecap="round" stroke-linejoin="round"/>
<path d="M146.5 220.746C146.251 220.746 146.008 220.672 145.801 220.534C145.594 220.395 145.433 220.199 145.337 219.968C145.242 219.738 145.217 219.485 145.266 219.24C145.314 218.996 145.434 218.771 145.61 218.595C145.786 218.419 146.01 218.299 146.254 218.25C146.498 218.202 146.751 218.227 146.981 218.322C147.211 218.417 147.408 218.579 147.546 218.786C147.684 218.993 147.758 219.237 147.758 219.486C147.758 219.82 147.625 220.141 147.389 220.377C147.153 220.613 146.833 220.746 146.5 220.746ZM143.103 220.746C142.854 220.746 142.611 220.672 142.404 220.534C142.197 220.395 142.035 220.199 141.94 219.968C141.845 219.738 141.82 219.485 141.869 219.24C141.917 218.996 142.037 218.771 142.213 218.595C142.389 218.419 142.613 218.299 142.857 218.25C143.101 218.202 143.354 218.227 143.584 218.322C143.814 218.417 144.011 218.579 144.149 218.786C144.287 218.993 144.361 219.237 144.361 219.486C144.361 219.82 144.228 220.141 143.992 220.377C143.756 220.613 143.436 220.746 143.103 220.746ZM139.699 220.746C139.451 220.746 139.207 220.672 139 220.534C138.793 220.395 138.632 220.199 138.537 219.968C138.442 219.738 138.417 219.485 138.465 219.24C138.514 218.996 138.634 218.771 138.81 218.595C138.986 218.419 139.21 218.299 139.454 218.25C139.698 218.202 139.951 218.227 140.181 218.322C140.411 218.417 140.607 218.579 140.745 218.786C140.884 218.993 140.957 219.237 140.957 219.486C140.957 219.82 140.825 220.141 140.589 220.377C140.353 220.613 140.033 220.746 139.699 220.746ZM143.046 213.091C139.064 213.091 135.824 215.952 135.824 219.474C135.836 220.99 136.428 222.445 137.479 223.537C137.584 223.968 137.577 224.42 137.457 224.847C137.336 225.274 137.108 225.663 136.793 225.976C136.735 226.036 136.697 226.111 136.682 226.193C136.666 226.275 136.675 226.36 136.707 226.437C136.739 226.514 136.793 226.579 136.862 226.626C136.931 226.673 137.012 226.699 137.095 226.7C138.305 226.7 139.469 226.23 140.341 225.39C141.209 225.699 142.125 225.854 143.046 225.85C147.022 225.85 150.318 222.989 150.318 219.474C150.318 215.958 147.022 213.091 143.046 213.091Z" fill="#5E4D9A"/>
<path d="M142.625 193.528C150.188 193.528 156.32 187.388 156.32 179.813C156.32 172.237 150.188 166.097 142.625 166.097C135.061 166.097 128.93 172.237 128.93 179.813C128.93 187.388 135.061 193.528 142.625 193.528Z" fill="white" stroke="#5E4D9A" stroke-width="2" stroke-miterlimit="10"/>
<path d="M160.862 175.988C160.976 176.505 161.057 177.022 161.127 177.544" stroke="#F89E41" stroke-width="2" stroke-linecap="round" stroke-linejoin="round"/>
<path d="M160.604 184.765C159.961 187.112 158.857 189.307 157.358 191.223" stroke="#F89E41" stroke-width="2" stroke-linecap="round" stroke-linejoin="round" stroke-dasharray="5.78 11.56"/>
<path d="M154.854 193.862C154.451 194.209 154.042 194.536 153.596 194.839" stroke="#F89E41" stroke-width="2" stroke-linecap="round" stroke-linejoin="round"/>
<path d="M139.932 178.817C140.285 180.317 142.216 182.175 143.638 182.528C143.959 182.6 144.296 182.553 144.585 182.396C144.874 182.238 145.096 181.981 145.21 181.671C145.283 181.455 145.41 181.261 145.58 181.108C145.749 180.955 145.955 180.848 146.178 180.798C146.4 180.748 146.632 180.756 146.85 180.822C147.069 180.888 147.267 181.009 147.425 181.173L149.419 183.171C149.662 183.434 149.797 183.779 149.797 184.138C149.797 184.496 149.662 184.842 149.419 185.105L148.066 186.459C146.638 187.89 142.858 186.321 139.498 182.956C136.139 179.592 134.648 175.812 136.007 174.382L137.359 173.027C137.621 172.784 137.965 172.649 138.322 172.649C138.679 172.649 139.023 172.784 139.284 173.027L141.285 175.024C141.449 175.183 141.57 175.381 141.636 175.6C141.701 175.818 141.71 176.05 141.66 176.273C141.61 176.496 141.503 176.702 141.351 176.872C141.198 177.042 141.004 177.169 140.788 177.242C140.47 177.344 140.204 177.564 140.045 177.858C139.886 178.151 139.845 178.495 139.932 178.817Z" fill="#5E4D9A"/>
<path d="M15.2803 63.6278V62.0527" stroke="white" stroke-miterlimit="10"/>
<path d="M15.2803 58.4741V47.9966" stroke="white" stroke-miterlimit="10" stroke-dasharray="4.06 5.68"/>
<path d="M15.2803 46.2074V44.6323H16.853" stroke="white" stroke-miterlimit="10"/>
<path d="M21.2822 44.6323H26.6671" stroke="white" stroke-miterlimit="10" stroke-dasharray="5.03 7.04"/>
<path d="M28.8809 44.6323H30.4536" stroke="white" stroke-miterlimit="10"/>
<path d="M198.374 112.512V217.873H173.588" stroke="white" stroke-miterlimit="10" stroke-dasharray="5 7"/>
<path d="M198.336 149.741C195.637 152.476 191.322 154.718 186.704 155.67C186.704 155.96 186.704 157.56 186.66 165.007C186.616 174.924 196.606 179.769 198.16 180.512C199.663 179.882 209.779 175.025 209.829 165.108C209.867 157.673 209.873 156.06 209.873 155.771C205.268 154.775 201.016 152.501 198.336 149.741Z" fill="#CBC6E2"/>
<path d="M198.311 151.53C195.301 154.004 191.759 155.742 187.963 156.608L187.925 165.013C187.925 168.856 189.523 172.334 192.731 175.352C194.356 176.868 196.191 178.141 198.179 179.132L198.336 179.057V151.53H198.311Z" fill="#5E4D9A"/>
<path d="M198.336 151.53V179.012C200.272 178.053 202.066 176.827 203.664 175.371C206.898 172.384 208.552 168.919 208.565 165.076L208.609 156.671C204.833 155.778 201.317 154.018 198.336 151.53Z" fill="#5E4D9A"/>
<path d="M193.649 163.665V170.173C193.649 170.898 203.016 170.898 203.016 170.173V163.665H193.649ZM198.808 167.118V168.964C198.794 169.08 198.739 169.188 198.651 169.266C198.563 169.344 198.45 169.388 198.333 169.388C198.216 169.388 198.102 169.344 198.015 169.266C197.927 169.188 197.871 169.08 197.858 168.964V167.118C197.66 167.036 197.49 166.899 197.369 166.722C197.249 166.545 197.182 166.336 197.179 166.122C197.179 165.815 197.301 165.52 197.518 165.302C197.735 165.085 198.029 164.963 198.336 164.963C198.643 164.963 198.937 165.085 199.155 165.302C199.372 165.52 199.494 165.815 199.494 166.122C199.489 166.337 199.422 166.546 199.3 166.723C199.178 166.9 199.007 167.037 198.808 167.118Z" fill="white"/>
<path d="M202.199 163.199H201.28V162.758C201.246 162.007 200.923 161.298 200.38 160.779C199.837 160.26 199.115 159.97 198.365 159.97C197.614 159.97 196.892 160.26 196.349 160.779C195.806 161.298 195.484 162.007 195.449 162.758V163.199H194.499V162.758C194.567 161.778 195.004 160.86 195.722 160.19C196.439 159.52 197.384 159.147 198.365 159.147C199.346 159.147 200.29 159.52 201.008 160.19C201.725 160.86 202.162 161.778 202.23 162.758L202.199 163.199Z" fill="white"/>
<mask id="mask0" style="mask-type:alpha" maskUnits="userSpaceOnUse" x="7" y="83" width="86" height="183">
<rect x="7" y="83.9653" width="86" height="181.687" fill="#C4C4C4"/>
</mask>
<g mask="url(#mask0)">
<path d="M44.9788 163.432L44.7335 183.511C44.6894 186.926 45.3248 191.954 50.716 191.771C55.3838 191.267 56.6231 186.838 56.6608 183.65C56.6608 182.138 56.6608 180.878 56.7048 180.726C56.7048 180.726 61.8193 180.304 62.247 175.251C62.4546 172.807 62.4798 167.741 62.442 163.155C62.4214 160.781 61.5099 158.503 59.8887 156.771C58.2674 155.04 56.0551 153.984 53.6916 153.811L53.2009 153.773C47.9229 153.698 44.9096 158.14 44.9788 163.432Z" fill="#CF8B6F"/>
<path d="M56.7048 180.726C54.383 180.54 52.162 179.697 50.3008 178.294C50.3008 178.294 51.6407 182.075 56.7111 182.018L56.7048 180.726Z" fill="#7B4B45"/>
<path d="M45.1176 167.206C45.0358 167.162 41.7205 165.946 41.5821 169.392C41.4437 172.838 44.9414 172.284 44.954 172.189C44.9666 172.095 45.1176 167.206 45.1176 167.206Z" fill="#CF8B6F"/>
<path d="M43.9537 170.828C43.9537 170.828 43.8908 170.872 43.7839 170.91C43.7121 170.94 43.6351 170.955 43.5574 170.955C43.4797 170.955 43.4028 170.94 43.331 170.91C43.1155 170.758 42.944 170.551 42.8336 170.311C42.7232 170.071 42.6777 169.806 42.7019 169.543C42.708 169.244 42.7788 168.949 42.9095 168.68C42.9459 168.573 43.0081 168.477 43.0903 168.4C43.1726 168.323 43.2725 168.268 43.3813 168.239C43.4505 168.223 43.5231 168.232 43.5863 168.264C43.6496 168.296 43.6995 168.35 43.7273 168.415C43.7713 168.516 43.7273 168.585 43.765 168.592C43.8028 168.598 43.8405 168.535 43.8216 168.39C43.8045 168.305 43.7604 168.228 43.6958 168.17C43.6496 168.132 43.5964 168.103 43.5392 168.086C43.482 168.068 43.4219 168.063 43.3624 168.069C43.223 168.094 43.0922 168.153 42.9821 168.243C42.8721 168.332 42.7865 168.448 42.7333 168.579C42.573 168.873 42.4866 169.202 42.4817 169.537C42.4524 169.844 42.5144 170.154 42.6598 170.426C42.8053 170.698 43.0278 170.922 43.2995 171.068C43.3909 171.1 43.4884 171.11 43.5844 171.098C43.6804 171.086 43.7724 171.052 43.8531 170.998C43.9412 170.917 43.96 170.835 43.9537 170.828Z" fill="#7B4B45"/>
<path d="M69.1736 158.618C69.1097 158.416 68.9728 158.246 68.7899 158.139C68.3953 157.963 67.962 157.891 67.5317 157.931C66.1914 157.898 64.886 157.497 63.7572 156.772C63.2277 156.011 62.6364 155.294 61.9895 154.63C60.4608 153.049 59.2027 151.978 57.9005 151.448C55.887 150.715 53.7123 150.546 51.6097 150.957C49.8546 151.417 48.2756 152.847 48.0302 154.649C47.505 154.272 46.8894 154.042 46.2463 153.981C45.6032 153.92 44.9554 154.031 44.369 154.302C43.0353 154.781 42.2742 156.193 41.8527 157.56C41.4312 158.927 41.2865 160.382 40.5945 161.605C40.4435 161.863 40.2611 162.165 40.3932 162.436C40.454 162.534 40.5434 162.611 40.6492 162.656C40.755 162.701 40.8721 162.712 40.9845 162.688C41.2111 162.64 41.4252 162.546 41.6136 162.411C41.4626 162.764 41.3117 163.123 41.167 163.482C41.6526 163.563 42.1503 163.528 42.6201 163.381C42.8642 164.599 43.1814 165.8 43.5701 166.979C44.0669 166.921 44.5677 167.047 44.9792 167.332C45.451 167.754 45.6586 168.548 46.4387 168.245C46.835 168.088 47.1936 167.256 47.3257 166.853C48.2054 164.164 48.4972 161.317 48.1812 158.505C48.7351 157.912 49.3971 157.431 50.1314 157.087L50.0747 157.144C51.4839 156.652 53.0817 156.167 54.4217 156.835C55.4597 157.346 56.0699 158.429 56.8436 159.286C57.5426 160.078 58.396 160.718 59.3514 161.166C60.3068 161.615 61.3437 161.863 62.3984 161.894C62.4739 163.318 62.4487 165.334 62.5242 166.758L63.7195 164.478C63.8141 164.314 63.9002 164.146 63.9774 163.974V163.923C64.0977 163.648 64.2321 163.378 64.38 163.117C64.5449 163.251 64.7524 163.321 64.9648 163.315C65.1772 163.309 65.3804 163.227 65.5373 163.083C65.6943 162.94 65.7946 162.745 65.82 162.534C65.8455 162.322 65.7943 162.109 65.6759 161.932C65.5563 161.766 65.4121 161.62 65.2481 161.497C65.4218 161.667 65.6369 161.789 65.872 161.85C66.1071 161.91 66.354 161.908 66.5881 161.844C66.8196 161.774 67.0214 161.629 67.1615 161.432C67.3016 161.234 67.3721 160.996 67.3619 160.754C67.3438 160.59 67.2832 160.435 67.186 160.302C67.0889 160.169 66.9586 160.064 66.8083 159.998C67.4343 160.052 68.0618 159.913 68.6074 159.601C68.9157 159.399 69.268 159.091 69.1736 158.618Z" fill="#1E2E34"/>
<path d="M49.5706 155.229C49.3897 155.369 49.2213 155.525 49.0673 155.695C48.6665 156.176 48.3976 156.754 48.2873 157.371C48.2059 157.786 48.1638 158.208 48.1615 158.631C48.1615 159.097 48.1929 159.595 48.2307 160.124C48.2753 160.675 48.2879 161.228 48.2684 161.781C48.252 162.075 48.2141 162.368 48.1552 162.657C48.1075 162.966 47.9795 163.257 47.784 163.501C47.6974 163.6 47.5859 163.675 47.461 163.717C47.3361 163.759 47.2022 163.767 47.0732 163.74C46.8299 163.693 46.6089 163.567 46.4441 163.381C46.175 163.011 46.0079 162.576 45.9597 162.121H46.0666C45.9074 162.502 45.6956 162.858 45.4375 163.18C45.1917 163.478 44.8401 163.67 44.4562 163.715C44.2774 163.734 44.0967 163.704 43.934 163.627C43.7912 163.549 43.6727 163.433 43.5916 163.292C43.5105 163.151 43.4701 162.99 43.4748 162.827C43.4782 162.681 43.5366 162.541 43.6384 162.436L43.6887 162.48C43.3895 162.826 43.0208 163.105 42.6067 163.299C42.496 163.348 42.3825 163.39 42.267 163.425L42.1475 163.457L42.2607 163.406C42.3362 163.375 42.4494 163.331 42.5878 163.261C42.9888 163.061 43.3442 162.78 43.6321 162.436L43.6887 162.48C43.6024 162.586 43.5527 162.717 43.547 162.853C43.5414 162.989 43.58 163.124 43.6573 163.236C43.7285 163.369 43.8382 163.476 43.9718 163.545C44.1197 163.611 44.2824 163.637 44.4436 163.621C44.8028 163.577 45.1304 163.394 45.3558 163.11C45.6017 162.796 45.8008 162.448 45.9471 162.077L46.0226 161.913V162.09C46.0638 162.543 46.2244 162.978 46.4881 163.35C46.6377 163.518 46.8393 163.631 47.0606 163.671C47.1738 163.699 47.2926 163.695 47.4037 163.66C47.5147 163.624 47.6138 163.558 47.6897 163.469C47.8674 163.238 47.9823 162.965 48.0231 162.676C48.0789 162.393 48.1167 162.106 48.1363 161.819C48.1682 161.271 48.1682 160.722 48.1363 160.174C48.1048 159.645 48.0671 159.147 48.0734 158.675C48.08 158.236 48.1285 157.8 48.2181 157.371C48.3339 156.737 48.6186 156.147 49.0422 155.663C49.1936 155.491 49.3721 155.344 49.5706 155.229Z" fill="#3E5963"/>
<path d="M65.191 160.149L65.1532 160.187L65.0274 160.275C64.9594 160.326 64.888 160.373 64.8135 160.414C64.7143 160.475 64.6114 160.53 64.5053 160.578C63.8265 160.882 63.0832 161.014 62.3412 160.962C61.2388 160.894 60.1805 160.504 59.2965 159.84C58.2289 159.02 57.3386 157.991 56.6795 156.816C56.3084 156.186 56.0127 155.556 55.6793 154.995C55.3802 154.431 55.0009 153.913 54.5532 153.458C54.1506 153.045 53.651 152.74 53.1001 152.57C52.616 152.434 52.1017 152.451 51.628 152.62C51.237 152.753 50.8789 152.968 50.5775 153.25C50.3483 153.466 50.155 153.717 50.005 153.994C49.8849 154.233 49.7981 154.487 49.7471 154.75C49.7471 154.75 49.7471 154.75 49.7471 154.699V154.542C49.7885 154.346 49.8518 154.156 49.9358 153.975C50.0822 153.69 50.2734 153.43 50.502 153.206C50.8094 152.91 51.176 152.682 51.5777 152.538C51.8109 152.456 52.0544 152.408 52.3011 152.393C52.5701 152.378 52.8398 152.405 53.1001 152.475C53.6676 152.647 54.184 152.957 54.6036 153.376C55.0601 153.839 55.4478 154.365 55.7548 154.939C56.0882 155.525 56.3839 156.148 56.755 156.753C57.4069 157.915 58.2838 158.934 59.3342 159.752C60.2016 160.408 61.2389 160.799 62.3224 160.88C63.0528 160.94 63.787 160.821 64.4612 160.533C64.7119 160.42 64.9556 160.292 65.191 160.149Z" fill="#3E5963"/>
<path d="M65.6503 157.925C65.6503 157.925 65.5937 157.982 65.4679 158.051C65.2983 158.16 65.1193 158.252 64.9332 158.329C64.6579 158.443 64.3739 158.536 64.0839 158.606C63.7287 158.689 63.3664 158.737 63.0019 158.751C62.6354 158.762 62.2688 158.737 61.9073 158.675C61.6117 158.626 61.3211 158.55 61.0392 158.448C60.8501 158.387 60.6669 158.309 60.4919 158.215L60.2969 158.102C60.2969 158.102 60.5863 158.221 61.0643 158.373C61.3464 158.459 61.6344 158.525 61.9262 158.568C62.2803 158.619 62.638 158.64 62.9956 158.631C63.3532 158.619 63.709 158.574 64.0588 158.499C64.3466 158.439 64.6286 158.355 64.9017 158.247C65.3987 158.07 65.6377 157.906 65.6503 157.925Z" fill="#3E5963"/>
<path d="M44.8343 181.848L38.7889 184.368C35.0282 185.913 31.8007 188.525 29.5037 191.884C28.9627 192.684 27.2453 198.859 27.1195 199.363C26.6225 201.391 25.8047 204.882 25.8047 204.882H73.8475C73.8475 204.882 72.4258 191.134 69.0036 188.501C66.7829 186.775 56.6107 182.074 56.6107 182.074C56.2456 182.858 55.6628 183.519 54.932 183.98C54.2012 184.44 53.3535 184.68 52.4902 184.67C49.6727 184.739 46.9349 183.73 44.8343 181.848Z" fill="#C5C2E1"/>
<path d="M38.9776 113.193C38.6762 113.041 38.4091 112.829 38.1927 112.57C37.9763 112.311 37.8152 112.011 37.7194 111.687C38.2414 111.567 38.7092 111.277 39.0503 110.864C39.3915 110.451 39.5871 109.936 39.6066 109.4C39.5537 108.711 39.3924 108.035 39.1285 107.396C39.0008 107.076 38.9378 106.733 38.9432 106.388C38.9486 106.043 39.0223 105.703 39.16 105.387C39.7325 104.379 40.9843 104.076 41.6763 103.175C42.1746 102.492 42.5025 101.699 42.6325 100.863C42.8896 99.8856 43.4701 99.0245 44.2791 98.4203C45.0881 97.816 46.0777 97.5044 47.0864 97.5364C47.9797 97.5931 48.8541 97.927 49.7411 97.8262C50.9552 97.6876 51.9429 96.7677 53.1256 96.4338C53.7028 96.2753 54.3098 96.259 54.8948 96.3862C55.4797 96.5135 56.0253 96.7806 56.4849 97.1646C57.1139 97.7128 57.5794 98.4814 58.2714 98.9854C59.0755 99.4479 59.9361 99.8037 60.8318 100.044C61.6999 100.372 62.5806 100.976 62.719 101.89C62.8574 102.803 62.1843 103.938 62.5806 104.857C62.7694 105.279 63.4928 106.017 63.6438 106.458C64.3295 108.486 62.7819 109.841 63.0147 110.647C64.3735 114.869 62.719 116.696 61.3225 116.853L44.0102 116.482C43.3898 116.739 42.7232 116.867 42.0516 116.858C41.3799 116.848 40.7174 116.701 40.1046 116.425C39.4918 116.15 38.9418 115.752 38.4883 115.255C38.0349 114.759 37.6876 114.175 37.4678 113.539C37.9935 113.568 38.5167 113.448 38.9776 113.193Z" fill="#E1E1E1"/>
<path d="M43.4441 113.482C43.3498 113.445 39.8018 112.336 39.8521 116.003C39.9024 119.669 43.5511 118.844 43.5574 118.743C43.5637 118.642 43.4441 113.482 43.4441 113.482Z" fill="#FFBE9D"/>
<path d="M42.425 117.357C42.425 117.357 42.3621 117.401 42.2552 117.452C42.1039 117.513 41.9347 117.513 41.7834 117.452C41.5457 117.306 41.351 117.1 41.2195 116.854C41.0879 116.608 41.0241 116.332 41.0348 116.053C41.0209 115.74 41.0768 115.428 41.1983 115.139C41.2303 115.024 41.29 114.919 41.3723 114.832C41.4545 114.745 41.5568 114.68 41.6701 114.642C41.743 114.622 41.8203 114.628 41.8891 114.659C41.9579 114.69 42.0139 114.744 42.0476 114.812C42.0979 114.913 42.0476 114.988 42.0916 114.995C42.1356 115.001 42.1734 114.932 42.1419 114.78C42.1185 114.69 42.0653 114.61 41.991 114.554C41.9411 114.516 41.8843 114.489 41.8238 114.474C41.7632 114.458 41.7003 114.456 41.6387 114.465C41.4947 114.502 41.362 114.573 41.2522 114.673C41.1424 114.773 41.0591 114.899 41.0096 115.039C40.86 115.357 40.7909 115.708 40.8083 116.059C40.7938 116.384 40.8757 116.706 41.0436 116.984C41.2116 117.262 41.4581 117.484 41.7519 117.622C41.851 117.648 41.9544 117.652 42.0553 117.635C42.1563 117.618 42.2523 117.579 42.337 117.521C42.4187 117.445 42.4376 117.364 42.425 117.357Z" fill="#EB996E"/>
<path d="M61.9007 120.93C61.9762 118.359 61.6994 113.042 61.3974 108.228C61.2426 105.734 60.1548 103.391 58.351 101.665C56.5472 99.9389 54.16 98.9574 51.6656 98.9163H51.1497C45.6012 99.1431 42.6949 103.988 43.0786 109.539L43.5567 127.86L53.0558 133.757L56.4025 131.136V127.016C56.4025 127.016 61.7371 126.266 61.9007 120.93Z" fill="#FFBE9D"/>
<path d="M56.4033 126.997C53.9397 127.002 51.5304 126.272 49.4834 124.899C49.4834 124.899 51.0184 128.83 56.3404 128.44L56.4033 126.997Z" fill="#EB996E"/>
<path d="M55.7865 98.2232C53.7797 97.3537 51.7101 97.7003 49.5397 97.9397C47.8702 98.089 46.266 98.6614 44.8783 99.603C43.8005 100.386 42.9139 101.403 42.2852 102.578C41.6565 103.753 41.3021 105.056 41.2485 106.388C41.1079 108.995 41.3732 111.607 42.0348 114.132C41.8183 114.775 41.7813 115.466 41.9279 116.129C42.0167 116.455 42.2283 116.733 42.5181 116.906C42.8079 117.079 43.1534 117.132 43.4817 117.055C44.2177 116.765 44.2806 115.763 44.2429 114.976C44.138 112.31 44.2221 109.641 44.4945 106.987C44.6832 105.002 45.8974 102.577 47.4826 101.726C51.0369 99.7479 53.6665 101.726 54.8618 102.205C56.8245 100.636 58.9256 101.651 60.0454 103.119C59.6931 100.958 57.787 99.0989 55.7865 98.2232Z" fill="#E1E1E1"/>
<path d="M40.0283 104.555C40.0283 104.681 40.2548 104.832 40.7266 104.908C41.3916 104.975 42.0633 104.898 42.6956 104.681C43.6008 104.381 44.4602 103.957 45.2497 103.421C46.1241 102.854 46.9985 102.199 47.9233 101.669C48.7282 101.171 49.6407 100.873 50.5843 100.8C51.3603 100.769 52.134 100.902 52.8553 101.191C54.1134 101.688 54.7865 102.394 55.0193 102.23C55.0696 102.192 55.0885 102.11 55.0633 101.978C55.029 101.798 54.963 101.625 54.8683 101.468C54.5233 100.885 54.0472 100.391 53.478 100.025C52.6213 99.4536 51.6252 99.1269 50.5969 99.08C49.9771 99.0529 49.3569 99.1252 48.7599 99.2942C48.1456 99.4688 47.5558 99.7207 47.0048 100.044C46.0365 100.631 45.1153 101.292 44.2494 102.022C43.5969 102.559 42.9051 103.045 42.1798 103.478C41.693 103.759 41.1838 103.999 40.6574 104.196C40.2737 104.322 40.0346 104.423 40.0283 104.555Z" fill="#F5F5F5"/>
<path d="M39.8896 107.768C40.1258 107.871 40.3806 107.925 40.6383 107.926C41.8888 108.018 43.1253 107.613 44.0793 106.798C44.2849 106.643 44.4598 106.45 44.5952 106.231C44.3774 106.375 44.1674 106.531 43.9661 106.697C43.4852 107.056 42.95 107.334 42.3808 107.523C41.8091 107.703 41.2126 107.793 40.6131 107.787C40.3725 107.768 40.131 107.762 39.8896 107.768Z" fill="white"/>
<path d="M38.1592 111.712C38.2608 111.705 38.3606 111.682 38.4548 111.643C38.7222 111.561 38.9848 111.465 39.2412 111.353C40.9497 110.65 42.4799 109.574 43.7202 108.203C43.9072 108.002 44.0836 107.792 44.2487 107.573C44.3619 107.415 44.4248 107.321 44.4122 107.315C44.3996 107.308 44.1103 107.63 43.6196 108.134C42.985 108.787 42.2922 109.382 41.5499 109.91C40.8033 110.412 40.0139 110.846 39.1909 111.208C38.838 111.357 38.4935 111.525 38.1592 111.712Z" fill="white"/>
<path d="M51.8613 97.4292C52.1392 97.575 52.4248 97.7054 52.7169 97.8198C53.3975 98.1207 54.0065 98.5631 54.5035 99.1177C54.9809 99.6797 55.2498 100.39 55.2646 101.128C55.2481 101.437 55.1974 101.743 55.1137 102.041C55.1137 102.041 55.1766 101.972 55.2458 101.821C55.3333 101.599 55.3843 101.365 55.3967 101.128C55.4248 100.341 55.1577 99.5721 54.6481 98.9728C54.1338 98.3929 53.486 97.9474 52.7609 97.6749C52.4749 97.5487 52.1717 97.4659 51.8613 97.4292Z" fill="white"/>
<path d="M53.9873 96.1818C53.9873 96.1818 54.2893 96.396 54.6919 96.8119C55.2189 97.3556 55.585 98.0351 55.7494 98.7748C55.9137 99.5145 55.87 100.285 55.6229 101.002C55.4405 101.556 55.2266 101.858 55.258 101.877C55.3238 101.82 55.3791 101.752 55.4216 101.676C55.5517 101.477 55.6613 101.266 55.7487 101.046C56.0392 100.311 56.1027 99.5052 55.9311 98.7335C55.7595 97.9619 55.3607 97.2595 54.7862 96.7174C54.6132 96.553 54.4234 96.4073 54.2201 96.2826C54.0754 96.207 53.9936 96.1692 53.9873 96.1818Z" fill="white"/>
<path d="M42.0225 114.988C42.4876 114.962 42.9376 114.814 43.3274 114.558C43.7172 114.303 44.033 113.949 44.2431 113.533C43.9197 113.841 43.5794 114.132 43.224 114.402C42.8346 114.62 42.4335 114.815 42.0225 114.988Z" fill="white"/>
<path d="M41.7832 115.732C42.2932 115.794 42.8091 115.683 43.249 115.417C43.7213 115.2 44.1038 114.826 44.331 114.358C43.9694 114.685 43.5776 114.976 43.1609 115.228C42.7156 115.432 42.2549 115.6 41.7832 115.732Z" fill="white"/>
<path d="M60.4914 103.988C60.6789 103.976 60.8596 103.913 61.0135 103.805C61.4049 103.58 61.7287 103.254 61.9508 102.86C62.1746 102.478 62.2959 102.044 62.3031 101.6C62.3222 101.414 62.2873 101.226 62.2025 101.058C62.2025 101.058 62.2025 101.273 62.2025 101.594C62.1647 102.016 62.0359 102.424 61.825 102.791C61.6103 103.156 61.3209 103.472 60.9758 103.717C60.6738 103.881 60.4851 103.957 60.4914 103.988Z" fill="white"/>
<path d="M59.9069 102.841C60.2897 102.531 60.5991 102.139 60.8128 101.695C61.0832 101.284 61.2634 100.82 61.3412 100.334C61.2909 100.334 61.0455 100.913 60.6492 101.594C60.2529 102.274 59.8691 102.81 59.9069 102.841Z" fill="white"/>
<path d="M11.5054 143.894L11.4236 142.08C11.4204 141.954 11.3949 141.831 11.3482 141.714L10.3982 139.44C10.3982 139.44 14.2545 135.03 14.4621 134.494C14.6697 133.959 14.5376 133.373 13.5814 133.776C12.6252 134.179 9.51754 137.04 9.51754 137.04L8.32229 134.916C8.32229 134.916 11.1154 131.93 11.3922 131.615C11.669 131.3 11.5117 129.618 10.4737 130.178C9.18662 131.075 7.96327 132.06 6.8125 133.127L6.09534 132.409L8.15243 129.246C8.15243 129.246 8.86958 128.131 7.99516 127.81C7.12074 127.488 6.73701 128.131 6.10793 128.849C5.52218 129.572 4.9802 130.329 4.4849 131.117L3.85582 131.073L2.90591 130.84L2.9814 129.731C2.9814 129.731 4.23956 127.885 4.47232 127.476C4.70508 127.066 5.18947 126.342 4.47232 126.02C3.75517 125.699 3.28965 125.642 2.90591 126.291C2.68707 126.61 2.42205 126.895 2.11956 127.135C1.74348 126.787 1.31985 126.495 0.861404 126.266C0.295233 126.083 -0.396754 126.738 0.282651 128.559C0.389595 128.862 1.03755 132.207 1.03755 132.207L1.20111 133.965L1.96229 135.534L5.39078 141.532V143.894" fill="#FFBE9D"/>
<path d="M5.41006 136.618C5.50876 136.319 5.58653 136.014 5.64282 135.704L5.91332 134.721C5.96365 134.539 6.02026 134.337 6.0643 134.129C6.06726 134.096 6.06726 134.062 6.0643 134.028C6.06783 134.003 6.06783 133.978 6.0643 133.953C6.05083 133.926 6.02994 133.905 6.00422 133.89C5.9785 133.875 5.94909 133.869 5.91961 133.871C5.87773 133.871 5.8374 133.887 5.80638 133.915V133.946V133.99V134.041C5.80638 134.041 5.80638 134.041 5.80638 134.142C5.8135 134.169 5.82683 134.195 5.84536 134.217C5.86388 134.239 5.88713 134.256 5.91332 134.268C5.93486 134.278 5.95853 134.284 5.98252 134.284C6.00651 134.284 6.03018 134.278 6.05172 134.268L6.08946 134.23V134.198L6.12721 134.135C6.1758 134.048 6.23046 133.963 6.29077 133.883C6.79498 133.331 7.33959 132.817 7.92008 132.346C8.36044 131.968 8.62465 131.716 8.5932 131.678C8.29581 131.794 8.0195 131.958 7.7754 132.163C7.13014 132.588 6.54414 133.096 6.03285 133.675C5.95653 133.768 5.88913 133.867 5.83154 133.972L5.7938 134.047L5.88187 134.104C5.91961 134.104 5.91961 134.154 5.94477 134.142C6.15237 134.142 6.07059 134.142 6.08946 134.142L6.00139 134.098C5.96994 134.098 5.94477 134.053 5.93848 134.066C5.93219 134.079 5.89445 134.066 5.82525 134.066H5.78121V134.123L5.64911 134.702C5.56733 135.08 5.49184 135.421 5.4478 135.717C5.35779 136.009 5.34478 136.319 5.41006 136.618Z" fill="#EB996E"/>
<path d="M9.1084 140.939C9.71562 140.491 10.254 139.956 10.7063 139.352C11.2425 138.821 11.6944 138.211 12.0462 137.543C11.439 137.992 10.9006 138.527 10.4483 139.131C9.91364 139.663 9.46193 140.273 9.1084 140.939Z" fill="#EB996E"/>
<path d="M7.69922 138.93C8.29599 138.57 8.83475 138.122 9.29708 137.601C9.83078 137.153 10.2932 136.626 10.6685 136.038C10.0633 136.388 9.52102 136.838 9.06432 137.367C8.52679 137.81 8.06559 138.338 7.69922 138.93Z" fill="#EB996E"/>
<path d="M11.6189 142.231C11.6009 141.816 11.4913 141.409 11.298 141.041C11.1219 140.707 10.9395 140.442 10.8073 140.209C10.5306 139.755 10.5054 139.421 10.4551 139.421C10.4047 139.421 10.3544 139.793 10.5935 140.316C10.9608 140.901 11.1969 141.559 11.2854 142.244C11.3561 142.826 11.2105 143.413 10.8765 143.895H11.2414C11.6189 143.479 11.6503 143.12 11.6189 142.231Z" fill="#EB996E"/>
<path d="M8.03881 137.619C8.13317 137.619 8.00735 136.989 8.09543 136.252C8.1835 135.515 8.41626 134.948 8.33448 134.898C8.2527 134.847 7.84379 135.395 7.76201 136.214C7.68023 137.034 7.95703 137.67 8.03881 137.619Z" fill="#EB996E"/>
<path d="M19.4062 143.894C19.4062 143.894 25.0176 135.401 26.15 134.79C27.2823 134.179 38.7693 130.141 38.7693 130.141L43.6635 126.764L42.8835 133.732L44.4436 143.894" fill="#6945A5"/>
<path d="M56.403 127.715L51.7792 132.39L43.5446 127.198L41.1855 131.842L43.0979 143.894L60.8317 143.794L60.9135 135.742L56.403 127.715Z" fill="#F5F5F5"/>
<path d="M55.8433 143.894C55.3903 142.212 53.4779 137.594 53.4779 137.594L54.6292 135.779C54.5474 133.259 52.333 133.02 51.1881 133.177C50.0432 133.335 49.779 135.779 49.779 135.779L51.2636 137.922L49.4707 143.85L55.8433 143.894Z" fill="#FF7E66"/>
<path d="M77.1311 143.894L75.1181 138.111C74.9636 137.567 74.6814 137.068 74.2951 136.656C73.9087 136.244 73.4295 135.93 72.8974 135.742L61.4482 131.628L56.3086 127.507L59.0703 133.889V143.97L77.1311 143.894Z" fill="#6945A5"/>
<path d="M29.7678 143.794C29.6648 143.419 29.5871 143.038 29.535 142.653C29.3644 141.738 29.1204 140.839 28.8053 139.963C28.4907 139.092 28.1035 138.249 27.6478 137.443C27.4394 137.111 27.2524 136.766 27.0879 136.41C27.3665 136.685 27.6038 136.999 27.7925 137.342C28.2999 138.135 28.7217 138.98 29.0506 139.862C29.3679 140.75 29.5935 141.669 29.7237 142.603C29.7887 142.996 29.8035 143.396 29.7678 143.794Z" fill="#4D367F"/>
<path d="M70.7773 143.34C70.8018 142.986 70.8651 142.635 70.9661 142.294C71.1592 141.459 71.3965 140.635 71.6769 139.824C71.952 139.011 72.3016 138.224 72.7212 137.474C72.8797 137.151 73.0924 136.857 73.3503 136.605C73.3503 136.605 73.1615 136.97 72.8785 137.55C72.504 138.311 72.1804 139.096 71.9097 139.9C71.2491 141.796 70.8528 143.372 70.7773 143.34Z" fill="#4D367F"/>
<path d="M63.7816 143.693C63.8291 143.447 63.8942 143.205 63.9766 142.968C64.1401 142.471 64.3477 141.828 64.6057 141.078V141.16L63.7627 140.121L63.2909 139.541L63.0393 139.245L62.9072 139.1L62.8002 138.993L62.6996 138.892L62.7562 138.816C63.2405 138.3 63.8396 137.905 64.505 137.663C64.7268 137.573 64.9536 137.495 65.1844 137.43L65.1152 137.6C64.1276 135.906 63.1085 134.482 62.4416 133.411C62.1082 132.882 61.8503 132.447 61.6805 132.151C61.582 131.999 61.5018 131.836 61.4414 131.666C61.5584 131.803 61.6637 131.951 61.7559 132.107L62.5737 133.367C63.272 134.412 64.3163 135.817 65.3165 137.519L65.392 137.645L65.2473 137.689C65.0334 137.752 64.8133 137.827 64.6182 137.915C63.9884 138.143 63.4199 138.514 62.9575 138.999L62.9134 138.823C62.9821 138.868 63.0436 138.923 63.0959 138.987L63.2343 139.138C63.3161 139.245 63.3978 139.339 63.4859 139.44L63.9514 140.026L64.7692 141.091V141.129V141.173C64.4924 141.935 64.2597 142.571 64.0772 143.063C63.9954 143.28 63.8966 143.491 63.7816 143.693Z" fill="#4D367F"/>
<path d="M37.272 143.894C37.2067 143.723 37.1521 143.549 37.1085 143.371C37.0015 142.987 36.8631 142.502 36.6933 141.922C36.4805 141.19 36.3145 140.445 36.1963 139.692C36.1497 139.463 36.1497 139.227 36.1963 138.999C36.2602 138.766 36.3555 138.544 36.4794 138.337C36.6101 138.105 36.7909 137.906 37.0086 137.753C37.2263 137.601 37.4754 137.499 37.7375 137.455V137.669L36.5926 137.543L35.7497 137.443C35.7348 137.441 35.7203 137.437 35.7072 137.429C35.694 137.422 35.6824 137.412 35.673 137.401C35.6637 137.389 35.6567 137.375 35.6526 137.361C35.6485 137.347 35.6473 137.331 35.649 137.317C35.6456 137.306 35.6456 137.295 35.649 137.285C36.492 135.395 37.2532 133.669 37.8067 132.453L38.4736 131.016C38.5475 130.84 38.638 130.671 38.7441 130.512C38.6965 130.698 38.6334 130.879 38.5553 131.054C38.3981 131.438 38.1905 131.923 37.9263 132.516C37.4041 133.744 36.6681 135.458 35.8314 137.38L35.7371 137.216L36.58 137.31L37.725 137.443C37.7399 137.444 37.7543 137.449 37.7675 137.456C37.7806 137.463 37.7922 137.473 37.8016 137.485C37.8109 137.496 37.8179 137.51 37.822 137.524C37.8261 137.539 37.8274 137.554 37.8256 137.569C37.8218 137.594 37.81 137.617 37.7919 137.636C37.7738 137.654 37.7503 137.666 37.725 137.669C37.5007 137.712 37.2883 137.802 37.1026 137.935C36.9168 138.068 36.7621 138.239 36.6492 138.438C36.5307 138.634 36.4416 138.846 36.385 139.068C36.3358 139.275 36.3358 139.491 36.385 139.698C36.4868 140.444 36.6338 141.182 36.8254 141.91C37.0274 142.558 37.1768 143.222 37.272 143.894Z" fill="#4D367F"/>
<path d="M93.8582 143.756H6.11426V144.052H93.8582V143.756Z" fill="#E1E1E1"/>
<path d="M93.8582 204.554H6.11426V204.85H93.8582V204.554Z" fill="#E1E1E1"/>
<path d="M14.7702 211.151C14.7702 211.453 14.6806 211.749 14.5126 212.001C14.3446 212.253 14.1059 212.449 13.8265 212.565C13.5472 212.681 13.2399 212.711 12.9433 212.652C12.6468 212.593 12.3744 212.447 12.1606 212.233C11.9468 212.019 11.8012 211.746 11.7423 211.449C11.6833 211.152 11.7136 210.844 11.8293 210.565C11.945 210.285 12.1409 210.046 12.3923 209.878C12.6437 209.709 12.9392 209.62 13.2416 209.62C13.4425 209.619 13.6417 209.658 13.8275 209.734C14.0134 209.811 14.1822 209.924 14.3243 210.066C14.4664 210.209 14.579 210.378 14.6555 210.564C14.7321 210.75 14.771 210.949 14.7702 211.151Z" fill="#45B549"/>
<path d="M31.623 211.296H17.5379C17.4959 211.302 17.453 211.299 17.4123 211.287C17.3715 211.275 17.3338 211.255 17.3016 211.227C17.2695 211.199 17.2437 211.165 17.226 211.126C17.2084 211.087 17.1992 211.045 17.1992 211.003C17.1992 210.96 17.2084 210.918 17.226 210.879C17.2437 210.841 17.2695 210.806 17.3016 210.779C17.3338 210.751 17.3715 210.73 17.4123 210.718C17.453 210.706 17.4959 210.704 17.5379 210.71H31.623C31.6932 210.72 31.7574 210.755 31.8037 210.809C31.8501 210.863 31.8756 210.932 31.8756 211.003C31.8756 211.074 31.8501 211.142 31.8037 211.196C31.7574 211.25 31.6932 211.285 31.623 211.296Z" fill="#BBBBBB"/>
<path d="M14.7702 151.096C14.7702 151.399 14.6806 151.695 14.5126 151.947C14.3446 152.198 14.1059 152.395 13.8265 152.51C13.5472 152.626 13.2399 152.657 12.9433 152.598C12.6468 152.538 12.3744 152.393 12.1606 152.179C11.9468 151.964 11.8012 151.692 11.7423 151.395C11.6833 151.098 11.7136 150.79 11.8293 150.51C11.945 150.23 12.1409 149.991 12.3923 149.823C12.6437 149.655 12.9392 149.565 13.2416 149.565C13.4425 149.564 13.6417 149.603 13.8275 149.68C14.0134 149.756 14.1822 149.869 14.3243 150.012C14.4664 150.154 14.579 150.323 14.6555 150.509C14.7321 150.695 14.771 150.895 14.7702 151.096Z" fill="#45B549"/>
<path d="M31.623 151.24H17.5379C17.4959 151.247 17.453 151.244 17.4123 151.232C17.3715 151.22 17.3338 151.199 17.3016 151.172C17.2695 151.144 17.2437 151.109 17.226 151.071C17.2084 151.032 17.1992 150.99 17.1992 150.947C17.1992 150.905 17.2084 150.863 17.226 150.824C17.2437 150.786 17.2695 150.751 17.3016 150.723C17.3338 150.696 17.3715 150.675 17.4123 150.663C17.453 150.651 17.4959 150.648 17.5379 150.655H31.623C31.6932 150.665 31.7574 150.7 31.8037 150.754C31.8501 150.808 31.8756 150.876 31.8756 150.947C31.8756 151.019 31.8501 151.087 31.8037 151.141C31.7574 151.195 31.6932 151.23 31.623 151.24Z" fill="#BBBBBB"/>
<path d="M14.7702 85.6035C14.7702 85.9063 14.6806 86.2023 14.5126 86.4541C14.3446 86.7058 14.1059 86.9021 13.8265 87.018C13.5472 87.1338 13.2399 87.1641 12.9433 87.1051C12.6468 87.046 12.3744 86.9002 12.1606 86.6861C11.9468 86.472 11.8012 86.1992 11.7423 85.9022C11.6833 85.6052 11.7136 85.2974 11.8293 85.0176C11.945 84.7379 12.1409 84.4988 12.3923 84.3305C12.6437 84.1623 12.9392 84.0725 13.2416 84.0725C13.647 84.0725 14.0358 84.2338 14.3225 84.5209C14.6092 84.808 14.7702 85.1975 14.7702 85.6035Z" fill="#45B549"/>
<path d="M31.6229 85.7484H17.5379C17.4594 85.7484 17.3842 85.7172 17.3288 85.6616C17.2733 85.6061 17.2422 85.5308 17.2422 85.4522C17.2422 85.4136 17.2499 85.3754 17.2648 85.3399C17.2797 85.3043 17.3016 85.272 17.3292 85.245C17.3567 85.218 17.3893 85.1968 17.4252 85.1826C17.461 85.1685 17.4993 85.1616 17.5379 85.1624H31.6229C31.6997 85.1624 31.7733 85.1929 31.8276 85.2473C31.8818 85.3017 31.9123 85.3754 31.9123 85.4522C31.9123 85.5297 31.882 85.6041 31.8279 85.6594C31.7739 85.7148 31.7003 85.7467 31.6229 85.7484Z" fill="#BBBBBB"/>
<path d="M68.8591 242.148C68.8591 242.224 66.4623 242.388 63.4993 242.52C60.5363 242.652 58.1333 242.696 58.127 242.621C58.1207 242.545 60.5238 242.381 63.4867 242.249C66.4497 242.117 68.8528 242.079 68.8591 242.148Z" fill="white"/>
<path d="M42.6698 223.021C43.1353 220.444 43.7581 217.792 45.3433 215.706C46.9286 213.621 49.7469 212.247 52.2192 213.091L55.2765 214.862C54.6451 221.996 53.1971 229.033 50.961 235.836C50.7915 236.52 50.4664 237.156 50.0111 237.694C49.0172 238.696 47.3941 244.228 45.9913 244.064C44.2991 243.869 41.7324 246.25 41.009 244.694C40.6567 243.951 41.2858 234.695 41.3361 233.876C41.5697 230.235 42.015 226.61 42.6698 223.021Z" fill="#1E2E34"/>
<path d="M59.8752 218.434L50.439 215.284C47.388 214.736 45.0729 218.377 44.6515 221.452C44.1859 224.873 43.7519 229.063 43.9721 231.652C44.4124 236.862 48.3064 237.808 48.3064 237.808C47.9956 239.089 47.8915 240.412 47.9982 241.726C48.2435 245.28 50.5145 246.193 52.4017 246.326C55.3521 246.634 58.4346 245.696 58.7743 242.747L61.3472 220.374C61.3847 219.926 61.255 219.479 60.9831 219.121C60.7113 218.763 60.3166 218.518 59.8752 218.434Z" fill="#FFBE9D"/>
<path d="M48.319 237.845C50.8319 238.08 53.3611 237.624 55.6352 236.528C55.6352 236.528 53.339 239.987 48.2246 239.105L48.319 237.845Z" fill="#EB996E"/>
<path d="M49.5015 216.575C49.9049 217.22 50.3962 217.805 50.9609 218.314L53.5527 220.878C54.1456 221.496 54.7759 222.077 55.44 222.617C56.0587 223.071 56.7013 223.492 57.365 223.877C58.0507 224.293 58.3967 225.364 59.0823 225.767C59.2396 225.862 59.7114 225.805 59.9002 225.925C59.9002 227.078 59.8498 230.751 59.8372 232.225C59.8372 234.531 58.9943 240.668 58.9943 240.668H60.9947C62.5297 240.435 64.6937 243.786 65.5115 242.463C66.4237 241.008 65.3165 234.752 65.2725 233.58C65.1341 230.096 64.4484 226.542 64.2534 223.55C64.2339 222.335 64.0368 221.129 63.6683 219.971C62.9804 218.389 61.8811 217.02 60.4852 216.008C58.9823 214.723 57.2077 213.797 55.2953 213.299C54.3408 213.057 53.3475 213.011 52.3747 213.162C51.4019 213.314 50.4696 213.66 49.6336 214.181C49.3634 214.327 49.1587 214.57 49.0611 214.861C48.7843 215.58 49.1303 215.907 49.5015 216.575ZM59.9756 225.975C60.0511 226.114 59.9756 226.473 59.9756 225.975V225.975Z" fill="#1E2E34"/>
<path d="M59.6363 227.361C59.6634 227.108 59.754 226.867 59.8997 226.658C60.0453 226.45 60.2413 226.282 60.4693 226.17C60.6973 226.058 60.95 226.006 61.2036 226.018C61.4573 226.03 61.7037 226.106 61.9199 226.24C62.4232 226.574 62.7754 227.21 62.6496 228.369C62.2973 231.463 59.2715 230.48 59.2715 230.386C59.2715 230.291 59.4791 228.64 59.6363 227.361Z" fill="#FFBE9D"/>
<path d="M60.3662 229.321C60.3662 229.321 60.4165 229.365 60.5046 229.416C60.6261 229.487 60.7708 229.507 60.9072 229.472C61.121 229.368 61.3032 229.209 61.4348 229.01C61.5664 228.812 61.6427 228.582 61.6558 228.344C61.6935 228.081 61.672 227.811 61.5929 227.557C61.5746 227.457 61.5324 227.363 61.47 227.283C61.4076 227.203 61.3267 227.139 61.2343 227.097C61.1743 227.074 61.1081 227.073 61.0473 227.094C60.9865 227.114 60.9347 227.156 60.9009 227.21C60.8506 227.292 60.8632 227.355 60.8443 227.355C60.8254 227.355 60.7814 227.299 60.8443 227.173C60.87 227.1 60.9186 227.038 60.9827 226.996C61.028 226.967 61.0787 226.948 61.1317 226.939C61.1847 226.931 61.2388 226.933 61.291 226.946C61.4158 226.985 61.5283 227.057 61.6176 227.153C61.7068 227.249 61.7698 227.366 61.8005 227.494C61.901 227.776 61.9312 228.079 61.8886 228.376C61.8751 228.655 61.7795 228.923 61.6138 229.147C61.4481 229.372 61.2197 229.542 60.9575 229.636C60.8716 229.651 60.7835 229.646 60.6997 229.622C60.6159 229.598 60.5385 229.555 60.4732 229.497C60.3662 229.397 60.3662 229.327 60.3662 229.321Z" fill="#EB996E"/>
<path d="M61.3031 230.745C61.3024 230.872 61.2634 230.996 61.1911 231.101C61.1188 231.205 61.0166 231.285 60.8979 231.331C60.7792 231.376 60.6497 231.384 60.5263 231.354C60.4029 231.324 60.2913 231.258 60.2064 231.163C60.1215 231.069 60.0671 230.951 60.0504 230.825C60.0337 230.699 60.0555 230.57 60.1129 230.457C60.1703 230.344 60.2606 230.25 60.372 230.189C60.4833 230.128 60.6106 230.102 60.7369 230.115C60.8926 230.131 61.0369 230.204 61.1416 230.32C61.2463 230.437 61.3038 230.588 61.3031 230.745Z" fill="#E1E1E1"/>
<path d="M56.8743 218.453C58.8165 219.846 60.4666 221.608 61.7308 223.638L60.0575 226.473C57.2203 226.209 56.9121 225.919 54.8864 223.884C52.8608 221.849 48.9165 217.798 48.6963 214.956C51.3762 215.712 54.6033 216.834 56.8743 218.453Z" fill="#1E2E34"/>
<path d="M61.3599 240.561C61.3979 240.458 61.4442 240.359 61.4983 240.265C61.599 240.076 61.7374 239.792 61.9135 239.427C62.4005 238.395 62.8065 237.327 63.1277 236.232C63.6007 234.608 63.8753 232.933 63.9455 231.242C64.0014 230.248 63.9486 229.251 63.7882 228.269C63.628 227.221 63.1517 226.247 62.4231 225.478C61.6315 224.765 60.731 224.185 59.7558 223.758C58.8447 223.328 57.9677 222.828 57.1325 222.264C55.7281 221.297 54.4588 220.147 53.3581 218.843C52.6109 217.971 51.9356 217.04 51.3387 216.059C51.1248 215.712 50.9739 215.429 50.8732 215.246C50.8183 215.153 50.77 215.056 50.7285 214.956C50.7989 215.039 50.862 215.127 50.9172 215.221C51.0242 215.403 51.194 215.668 51.4205 216.008C52.0419 216.966 52.7337 217.875 53.4902 218.73C54.5965 220.008 55.8655 221.135 57.2646 222.082C58.0925 222.634 58.961 223.123 59.8627 223.543C60.8644 223.979 61.7887 224.575 62.5992 225.308C63.366 226.108 63.8651 227.127 64.0272 228.225C64.1914 229.224 64.242 230.238 64.1782 231.249C64.0963 232.959 63.8026 234.652 63.3038 236.289C62.965 237.388 62.5292 238.455 62.0016 239.477C61.8129 239.836 61.6619 240.107 61.5487 240.29C61.4917 240.384 61.4286 240.475 61.3599 240.561Z" fill="#3E5963"/>
<path d="M63.5616 224.388C63.4023 223.603 63.0643 222.866 62.574 222.233C62.0355 221.556 61.379 220.981 60.6364 220.538C59.7175 219.998 58.7657 219.516 57.7867 219.095C56.001 218.297 54.3449 217.235 52.8735 215.945C52.4306 215.549 52.0105 215.129 51.6154 214.685C51.4617 214.53 51.3228 214.362 51.2002 214.181C51.3742 214.311 51.5344 214.459 51.6783 214.622C51.9803 214.912 52.4143 215.328 52.9868 215.807C54.4728 217.054 56.1214 218.092 57.8873 218.894C58.8768 219.317 59.8353 219.81 60.7559 220.368C61.5157 220.832 62.1798 221.437 62.7124 222.151C63.0733 222.63 63.3363 223.176 63.4861 223.758C63.5222 223.915 63.5474 224.075 63.5616 224.236C63.5682 224.287 63.5682 224.338 63.5616 224.388Z" fill="#3E5963"/>
<path d="M41.7952 243.793C41.787 243.682 41.787 243.57 41.7952 243.459V242.501C41.7952 241.67 41.8833 240.466 41.9651 238.979C42.1349 236.012 42.3928 231.91 42.9464 227.399C43.1612 225.27 43.5526 223.163 44.1165 221.099C44.5577 219.472 45.3144 217.948 46.3434 216.613C46.9745 215.794 47.7862 215.132 48.7151 214.679C48.9507 214.569 49.1974 214.484 49.4511 214.427C49.5372 214.402 49.6258 214.387 49.7153 214.383C49.7153 214.383 49.3567 214.484 48.7465 214.792C47.8715 215.29 47.114 215.972 46.5259 216.79C45.5396 218.11 44.8137 219.607 44.387 221.2C43.844 223.241 43.4654 225.323 43.2547 227.425C42.7011 231.917 42.418 236.018 42.2041 238.979C42.0972 240.428 42.0154 241.619 41.9525 242.489C41.921 242.879 41.8959 243.194 41.8707 243.446C41.862 243.565 41.8366 243.681 41.7952 243.793Z" fill="#3E5963"/>
<path d="M34.1519 253.231C34.1519 253.231 34.7055 248.77 36.8569 246.54C39.0084 244.309 47.9916 241.499 47.9916 241.499C47.9916 241.499 48.3628 244.687 50.508 245.45C52.7915 246.269 55.3707 245.96 57.0441 244.019C58.0619 242.768 58.7767 241.297 59.1326 239.723C59.1326 239.723 69.8647 240.712 71.6136 243.66C73.3624 246.609 75.6334 258.031 75.6334 258.031L65.5681 260.167L66.1972 269.429L41.5373 269.567L40.7761 261.377L33.5605 262.417L34.1519 253.231Z" fill="#6945A5"/>
<path d="M63.6057 260.829C63.578 260.682 63.5675 260.531 63.5743 260.382C63.5743 260.098 63.5743 259.682 63.5743 259.172C63.5743 258.158 63.5743 256.746 63.6246 255.19C63.6749 253.634 63.6938 252.229 63.7378 251.208C63.7378 250.698 63.7819 250.282 63.8007 249.999C63.8008 249.85 63.8177 249.702 63.8511 249.558C63.8872 249.702 63.8999 249.851 63.8888 249.999C63.8888 250.282 63.8888 250.698 63.8888 251.208C63.8888 252.229 63.8888 253.634 63.8385 255.19C63.7882 256.746 63.7693 258.158 63.7253 259.178C63.7253 259.689 63.6812 260.098 63.6623 260.388C63.6666 260.537 63.6475 260.686 63.6057 260.829Z" fill="#4D367F"/>
<path d="M38.3486 252.727C38.4052 252.727 39.0343 254.705 39.7452 257.181C40.4561 259.657 41.0033 261.686 40.9216 261.705C40.8398 261.723 40.2359 259.726 39.525 257.244C39.0575 255.759 38.6649 254.251 38.3486 252.727Z" fill="#4D367F"/>
<path d="M70.5007 242.967C70.5007 243.005 70.0226 243.1 69.2928 243.377C67.3732 244.112 65.7723 245.499 64.7697 247.296C64.3923 247.982 64.2413 248.455 64.1973 248.436C64.2053 248.322 64.2308 248.209 64.2728 248.102C64.3674 247.799 64.4851 247.505 64.625 247.22C65.5707 245.326 67.2261 243.883 69.2299 243.207C69.5299 243.108 69.837 243.032 70.1484 242.98C70.3748 242.961 70.5007 242.948 70.5007 242.967Z" fill="#4D367F"/>
<path d="M36.6934 247.441C37.0817 248.339 37.3238 249.294 37.4105 250.27C37.0221 249.371 36.78 248.416 36.6934 247.441Z" fill="#4D367F"/>
<path d="M40.8206 261.39L37.3921 261.831L34.1523 253.464L28.9121 255.587C28.9121 255.587 31.8059 265.384 32.9319 269.347H43.5697L40.8206 261.39Z" fill="#FFBE9D"/>
<path d="M41.1853 267.923C40.5479 267.243 39.9592 266.519 39.4239 265.756C38.9945 265.125 38.6118 264.464 38.2789 263.777C37.9959 263.191 37.8071 262.7 37.6499 262.36C37.5921 262.177 37.5184 262 37.4297 261.831C37.4504 262.022 37.4948 262.211 37.5618 262.391C37.7144 262.887 37.8971 263.373 38.1091 263.847C38.4239 264.55 38.7964 265.227 39.2226 265.869C39.7511 266.651 40.3423 267.388 40.9903 268.074C41.4247 268.491 41.8051 268.961 42.1226 269.473H42.3931C42.0566 268.908 41.6509 268.387 41.1853 267.923Z" fill="#EB996E"/>
<path d="M34.1524 253.464C34.1524 253.464 34.1524 249.797 33.8505 248.764L31.4285 243.062C31.4285 243.062 30.724 242.703 30.5919 243.787C30.5271 244.568 30.6635 245.353 30.9882 246.067L31.07 247.579L30.0257 246.729L28.0126 242.949C28.0126 242.949 26.6224 240.202 26.2638 240.636C25.9052 241.071 26.0247 241.959 26.6224 243.156L27.9749 245.853C27.9749 245.853 28.1825 246.326 27.4716 245.633C26.7608 244.939 25.2069 241.581 24.8924 241.166C24.5779 240.75 24.1312 239.515 23.4392 239.792C22.7472 240.069 23.6279 241.544 23.6279 241.544L25.8486 246.527C25.8486 246.527 24.5904 244.637 24.3325 244.322C24.0746 244.007 23.565 242.923 23.1436 242.375C22.7221 241.827 22.2628 241.607 21.9546 241.745C21.8068 241.801 21.6852 241.91 21.6141 242.051C21.543 242.193 21.5276 242.355 21.5709 242.508L23.9425 246.628C23.9425 246.628 25.1377 248.455 25.1377 248.594C25.1377 248.732 24.0998 247.964 24.0998 247.964L23.1121 246.704C23.1121 246.704 22.0364 244.813 21.4702 244.908C20.904 245.002 21.011 245.431 21.011 245.431L23.0052 248.89L25.8989 252.62L29.0003 255.701L30.7869 255.127L34.1524 253.464Z" fill="#FFBE9D"/>
<path d="M28.4527 252.84C28.5441 252.462 28.6051 252.076 28.6351 251.687C28.7272 250.777 29.153 249.933 29.8304 249.319C30.1677 249.034 30.5911 248.872 31.0319 248.859H31.1829V248.695C31.1389 247.989 31.1829 247.309 31.1389 246.861C31.0949 246.414 31.076 246.131 31.0382 246.137C30.992 246.376 30.9688 246.618 30.969 246.861C30.9157 247.49 30.8968 248.121 30.9124 248.751L31.0445 248.594C30.5378 248.59 30.0466 248.769 29.6605 249.098C29.2331 249.44 28.9086 249.893 28.7232 250.409C28.5725 250.813 28.4794 251.238 28.4464 251.669C28.3817 252.057 28.3838 252.453 28.4527 252.84Z" fill="#EB996E"/>
<path d="M64.5811 260.394L63.7256 269.347H72.237C72.583 268.043 73.8538 258.422 73.8538 258.422L64.5811 260.394Z" fill="#FFBE9D"/>
</g>
</g>
<defs>
<clipPath id="clip0">
<rect width="213" height="269" fill="white" transform="translate(0 0.586426)"/>
</clipPath>
</defs>
</svg>
