<svg width="286" height="270" viewBox="0 0 286 270" fill="none" xmlns="http://www.w3.org/2000/svg">
<g clip-path="url(#clip0)">
<path d="M135.476 253.919L40.6669 253.573C39.1537 253.567 37.6565 253.264 36.2608 252.681C34.8652 252.097 33.5987 251.245 32.5335 250.173C31.4684 249.1 30.6256 247.828 30.0536 246.43C29.4816 245.033 29.1915 243.536 29.1999 242.026L29.9462 39.638C29.9516 38.128 30.2551 36.6339 30.8398 35.2412C31.4245 33.8485 32.2787 32.5845 33.3535 31.5216C34.4283 30.4588 35.7025 29.6178 37.1034 29.047C38.5043 28.4762 40.0043 28.1866 41.5175 28.195L136.326 28.5414C137.839 28.5467 139.337 28.8498 140.732 29.4332C142.128 30.0166 143.395 30.869 144.46 31.9415C145.525 33.0141 146.367 34.2857 146.939 35.6836C147.511 37.0816 147.802 38.5783 147.793 40.0883L147.047 242.482C147.042 243.992 146.738 245.485 146.153 246.878C145.569 248.27 144.714 249.534 143.639 250.596C142.564 251.659 141.29 252.499 139.889 253.069C138.488 253.639 136.989 253.928 135.476 253.919Z" fill="white" stroke="#6349A0" stroke-miterlimit="10"/>
<path d="M134.18 33.212L110.551 33.1255V35.152C110.547 36.3162 110.079 37.431 109.252 38.2516C108.424 39.0721 107.304 39.5313 106.137 39.5282L71.62 39.4012C71.0418 39.3989 70.4698 39.283 69.9365 39.0601C69.4032 38.8372 68.9191 38.5117 68.5118 38.1021C68.1046 37.6925 67.7822 37.2069 67.563 36.673C67.3439 36.139 67.2324 35.5673 67.2346 34.9903V32.9696L43.6004 32.883C42.3909 32.8754 41.1918 33.1059 40.0717 33.5613C38.9515 34.0167 37.9323 34.688 37.0725 35.5369C36.2127 36.3858 35.5291 37.3956 35.0608 38.5084C34.5925 39.6213 34.3487 40.8153 34.3434 42.0223L33.6491 239.231C33.6408 240.439 33.8712 241.635 34.3273 242.754C34.7834 243.872 35.4561 244.889 36.3069 245.747C37.1577 246.605 38.1701 247.288 39.2856 247.755C40.4011 248.222 41.5981 248.464 42.8078 248.469L133.393 248.798C134.603 248.807 135.803 248.578 136.924 248.123C138.044 247.668 139.064 246.997 139.924 246.147C140.784 245.298 141.468 244.288 141.936 243.174C142.404 242.061 142.646 240.866 142.65 239.659L143.373 42.4495C143.382 41.2395 143.15 40.0397 142.692 38.9193C142.234 37.7989 141.558 36.7801 140.703 35.9215C139.849 35.0629 138.832 34.3814 137.713 33.9164C136.593 33.4514 135.393 33.212 134.18 33.212Z" fill="#F6F5FF" stroke="#6349A0" stroke-miterlimit="10"/>
<path d="M80.8929 34.9542L80.8927 35.0234C80.8913 35.406 81.201 35.7174 81.5844 35.7188L98.1254 35.7793C98.5088 35.7807 98.8208 35.4716 98.8222 35.089L98.8224 35.0198C98.8238 34.6371 98.5141 34.3258 98.1307 34.3244L81.5898 34.2639C81.2063 34.2625 80.8943 34.5716 80.8929 34.9542Z" fill="#6349A0"/>
<mask id="mask0" style="mask-type:alpha" maskUnits="userSpaceOnUse" x="33" y="32" width="111" height="217">
<path d="M134.243 33.211L110.779 33.1247V35.1445C110.774 36.3049 110.31 37.4161 109.488 38.2339C108.666 39.0518 107.554 39.5094 106.395 39.5063L72.1172 39.3797C71.543 39.3775 70.9749 39.262 70.4453 39.0398C69.9156 38.8176 69.4349 38.4932 69.0305 38.0849C68.6261 37.6767 68.3059 37.1927 68.0883 36.6605C67.8706 36.1283 67.7599 35.5584 67.7621 34.9833V32.9693L44.2917 32.883C43.0905 32.8754 41.8998 33.1051 40.7874 33.559C39.675 34.0129 38.6629 34.6821 37.809 35.5282C36.9552 36.3743 36.2763 37.3807 35.8113 38.4899C35.3462 39.5991 35.1041 40.7892 35.0988 41.9922L34.4094 238.552C34.4011 239.756 34.6299 240.949 35.0828 242.063C35.5358 243.177 36.2038 244.191 37.0487 245.047C37.8937 245.902 38.899 246.582 40.0068 247.048C41.1146 247.513 42.3032 247.755 43.5046 247.759L133.462 248.087C134.664 248.097 135.855 247.868 136.968 247.414C138.081 246.961 139.094 246.292 139.948 245.446C140.802 244.599 141.481 243.592 141.946 242.482C142.41 241.372 142.651 240.182 142.655 238.978L143.373 42.4181C143.381 41.212 143.151 40.0161 142.696 38.8994C142.241 37.7828 141.57 36.7673 140.722 35.9115C139.873 35.0557 138.864 34.3765 137.752 33.913C136.64 33.4496 135.448 33.2109 134.243 33.211Z" fill="#F6F5FF" stroke="#6349A0" stroke-miterlimit="10"/>
</mask>
<g mask="url(#mask0)">
<path d="M132.542 233.365L100.722 236.494C100.722 236.494 99.3504 210.468 99.3967 198.055C99.4487 182.992 100.803 163.599 102.619 163.992C107.734 165.181 114.613 168.033 118.692 173.662C132.82 193.2 132.542 233.365 132.542 233.365Z" fill="#CECEF2"/>
<path d="M117.049 195.457C117.697 200.076 129.494 324.932 129.494 324.932C71.4755 352.645 39.5968 329.592 39.5968 329.592C39.5968 329.592 41.7953 241.939 39.5621 230C38.0868 222.102 36.3974 169.638 41.5293 168.184C48.1133 166.325 55.6635 164.35 63.8848 163.524C70.9085 162.82 98.1703 162.497 103.042 164.148C103.042 164.177 114.312 176.139 117.049 195.457Z" fill="#CECEF2"/>
<path d="M0 221.005L27.4932 239.566C27.4932 239.566 43.1143 216.553 51.4688 208.39C61.9465 198.142 47.8065 166.578 41.0547 168.339C26.0063 172.26 0 221.005 0 221.005Z" fill="#CECEF2"/>
<path d="M71.6721 137.919L67.3213 163.9C67.3213 163.9 82.8094 197.039 92.1358 194.285C99.9696 191.976 95.2542 163.547 95.2542 163.547C95.2542 163.547 91.0423 148.271 92.3614 140.638C93.6805 133.006 71.6721 137.919 71.6721 137.919Z" fill="#EEEDF9"/>
<path d="M92.3499 140.639C93.6516 133.012 71.6721 137.919 71.6721 137.919L71.3135 140.154C71.8673 141.543 72.6689 142.82 73.6797 143.924C78.5685 148.993 86.2288 152.053 92.8533 152.307C92.2053 148.184 91.8118 143.768 92.3499 140.639Z" fill="#EBEAF9"/>
<path d="M68.2007 99.7509C67.5816 99.5315 63.1209 130.448 71.3538 139.01C79.5868 147.572 95.6534 150.395 101.48 143.71C107.896 136.32 107.688 103.071 94.8724 94.2719C82.0573 85.4732 68.2007 99.7509 68.2007 99.7509Z" fill="#EEEDF9"/>
<path d="M71.2556 87.8459C66.7428 88.3367 60.6101 90.7327 54.2459 100.709C46.418 113.012 52.1168 126.69 61.1539 133.433C70.191 140.176 70.0001 147.867 70.0001 147.867L71.4811 143.929C72.5664 140.912 72.9617 137.691 72.6383 134.501C72.4758 132.542 71.9869 130.624 71.1919 128.826C69.028 124.34 75.9015 121.39 77.8339 117.671C79.3266 114.785 79.419 108.249 81.768 103.515L84.5683 99.9067C84.5683 99.9067 91.0134 95.1436 97.2966 96.5119C103.58 97.8802 95.9891 68.4703 71.2556 87.8459Z" fill="#B7B7ED"/>
<path d="M77.4229 123.151C77.475 126.926 75.6872 130.009 73.373 130.038C71.0588 130.067 69.2075 127.03 69.1554 123.26C69.1033 119.49 70.8911 116.401 73.2053 116.373C75.5196 116.344 77.3708 119.38 77.4229 123.151Z" fill="#EBEAF9"/>
<path d="M91.4531 131.476L102.747 129.276C102.747 129.276 103.325 133.606 98.3843 134.72C92.3672 136.071 91.4531 131.476 91.4531 131.476Z" fill="white"/>
<path d="M103.632 99.4622H123.552C127.811 99.4622 131.264 96.0165 131.264 91.7662V63.2858C131.264 59.0354 127.811 55.5898 123.552 55.5898H103.632C99.3727 55.5898 95.9198 59.0354 95.9198 63.2858V91.7662C95.9198 96.0165 99.3727 99.4622 103.632 99.4622Z" fill="#F6F5FF" stroke="#6349A0" stroke-miterlimit="10"/>
<path d="M103.331 75.4158C103.353 72.125 104.194 68.8913 105.778 66.0051C107.213 63.4706 110.407 62.1946 113.271 62.3794C122.302 62.9567 122.655 74.9424 128.094 79.9133C129.754 81.4317 131.64 82.7077 133.202 84.33C138.988 90.3228 135.517 100.496 129.552 104.999C125.415 108.14 119.137 109.664 114.509 106.685C112.124 105.042 110.261 102.752 109.14 100.086C107.451 96.3734 106.479 92.153 105.362 88.2444C104.164 84.0817 103.227 79.7632 103.331 75.4158Z" fill="#B7B7ED"/>
<path d="M116.655 85.9524C116.655 85.9524 124.801 86.8126 126.965 89.0874L121.671 117.724C121.671 117.724 111.622 119.219 105.205 117.019C105.205 117.019 101.601 94.0583 104.853 88.435C105.935 86.5586 110.87 86.4835 110.87 86.4835L116.655 85.9524Z" fill="#CECEF2"/>
<path d="M78.129 74.0533C78.4298 73.4182 81.1086 75.2946 81.6988 74.9366C82.2889 74.5787 79.3035 71.5707 79.6043 71.0453C80.1829 70.0754 83.0757 74.1399 83.3765 73.7126C83.6774 73.2854 80.8599 68.938 81.8608 68.7013C82.8617 68.4646 84.2964 73.5048 84.8114 73.1815C85.3263 72.8582 83.0758 68.6089 84.0246 67.7429C84.5395 67.281 86.981 75.4908 87.8662 75.8257C88.7514 76.1606 89.7523 72.581 90.5854 72.7254C91.4185 72.8697 87.8488 79.3071 88.034 79.8267C88.2191 80.3463 91.4764 90.8655 93.4088 94.0467C94.5659 93.4694 95.7231 92.9382 96.7761 92.3955C97.21 94.8376 98.2051 96.968 98.7779 99.3698C95.0346 101.009 90.7417 102.638 89.6598 102.257C86.3504 101.038 84.7189 85.0113 84.1866 82.0206C83.6543 79.03 82.2369 78.4411 81.4327 76.8707C80.6285 75.3004 77.8281 74.6884 78.129 74.0533Z" fill="#EEEDF9"/>
<path d="M106.548 87.3899L111.361 93.1633C111.361 93.1633 104.465 97.7821 98.2569 100.519C97.6783 98.1227 96.284 94.3642 95.8501 91.9163C99.3257 90.2033 102.897 88.692 106.548 87.3899Z" fill="#CECEF2"/>
<path d="M150.681 73.4644C150.385 72.8293 147.701 74.7057 147.111 74.3477C146.521 73.9898 149.512 70.9818 149.205 70.4506C148.627 69.4807 145.734 73.551 145.433 73.118C145.132 72.685 147.95 68.3491 146.949 68.1066C145.948 67.8641 144.513 72.9159 143.998 72.5926C143.483 72.2693 145.734 68.02 144.791 67.154C144.27 66.6922 141.829 74.902 140.943 75.2368C140.058 75.5717 139.057 71.9922 138.224 72.1365C137.391 72.2808 140.961 78.7298 140.787 79.2321C140.614 79.7343 137.345 90.2709 135.418 93.452C134.261 92.8747 133.104 92.3378 132.045 91.7951C131.611 94.243 130.454 96.5524 129.881 98.9541C133.625 100.594 138.079 102.043 139.167 101.645C142.471 100.426 144.108 84.3993 144.635 81.4086C145.161 78.418 146.584 77.8291 147.389 76.253C148.193 74.6768 150.981 74.111 150.681 73.4644Z" fill="#EEEDF9"/>
<path d="M121.886 86.8704L121.012 99.8895C121.012 99.8895 124.368 97.176 130.576 99.8895C131.154 97.4935 132.549 93.7292 132.983 91.2871C129.395 89.5506 125.686 88.0745 121.886 86.8704Z" fill="#CECEF2"/>
<path d="M116.25 77.4944C116.25 77.4944 116.25 77.6734 116.308 77.9852C116.482 79.4747 117.211 84.434 117.836 85.8254C118.593 87.5055 114.428 92.4302 110.8 91.5585C109.718 91.2986 112.038 86.8589 111.957 86.3624C111.836 85.4213 111.668 84.1454 111.495 82.829C111.402 82.09 111.304 81.3395 111.211 80.6294L110.737 76.9863L116.25 77.4944Z" fill="#EEEDF9"/>
<path d="M116.458 79.1744C116.424 78.8626 116.406 78.6778 116.406 78.6778L110.91 78.1755C110.91 78.1755 111.124 79.8152 111.385 81.8244C111.477 82.5287 111.57 83.2735 111.668 84.0125C112.665 83.8967 113.607 83.4957 114.382 82.8578C115.353 82.1234 116.115 81.1481 116.592 80.0288C116.551 79.694 116.487 79.4053 116.458 79.1744Z" fill="#EEEDF9"/>
<path d="M113.277 64.914C114.126 64.9059 114.965 65.1021 115.722 65.486C116.479 65.8699 117.133 66.4302 117.627 67.1195C119.201 69.4289 120.601 76.4436 116.071 79.8961C111.541 83.3486 107.589 78.8338 107.26 74.3132C106.93 69.7926 107.051 64.3425 113.277 64.914Z" fill="#EEEDF9"/>
<path d="M105.998 74.1629C106.444 75.1848 107.265 75.791 107.832 75.5139C108.399 75.2368 108.498 74.1802 108.052 73.1583C107.607 72.1364 106.785 71.5302 106.218 71.8074C105.651 72.0845 105.553 73.1353 105.998 74.1629Z" fill="#EEEDF9"/>
<path d="M113.022 64.1634C113.022 64.1634 116.256 70.9357 118.865 71.4149C121.475 71.8941 121.59 75.3812 121.59 75.3812C121.59 75.3812 121.185 67.2984 118.698 65.6068C117 64.553 115.018 64.0489 113.022 64.1634Z" fill="#B7B7ED"/>
<path d="M118.067 73.0083C117.778 74.1629 118.136 75.2483 118.871 75.4504C119.606 75.6525 120.433 74.8731 120.728 73.7184C121.023 72.5637 120.659 71.484 119.924 71.282C119.189 71.0799 118.362 71.8651 118.067 73.0083Z" fill="#EEEDF9"/>
<path d="M110.528 76.7609L114.763 76.4434C114.75 76.9234 114.551 77.3796 114.208 77.7165C113.865 78.0533 113.405 78.2446 112.924 78.2504C110.656 78.4814 110.528 76.7609 110.528 76.7609Z" fill="white"/>
<path d="M104.112 99.4622H123.071C127.596 99.4622 131.264 95.802 131.264 91.287V63.765C131.264 59.25 127.596 55.5898 123.071 55.5898H104.112C99.5871 55.5898 95.9193 59.25 95.9193 63.765V91.287C95.9193 95.802 99.5871 99.4622 104.112 99.4622Z" stroke="#6349A0" stroke-miterlimit="10"/>
</g>
<path d="M247.885 270.408L141.233 270.021C137.799 270.007 134.511 268.634 132.092 266.202C129.673 263.771 128.32 260.48 128.331 257.054L129.17 29.3728C129.176 27.6762 129.517 25.9975 130.173 24.4325C130.829 22.8675 131.788 21.4469 132.995 20.2518C134.202 19.0567 135.633 18.1106 137.206 17.4675C138.779 16.8244 140.464 16.4969 142.164 16.5038L248.822 16.8906C252.255 16.9044 255.542 18.2781 257.96 20.7097C260.379 23.1414 261.73 26.4319 261.718 29.8577L260.879 257.539C260.873 259.235 260.532 260.914 259.876 262.479C259.219 264.044 258.26 265.465 257.054 266.66C255.847 267.855 254.416 268.801 252.843 269.444C251.269 270.087 249.585 270.415 247.885 270.408Z" fill="white" stroke="#6349A0" stroke-miterlimit="10"/>
<path d="M246.421 22.0925L219.807 22.0001V24.2748C219.804 24.9236 219.674 25.5655 219.423 26.1639C219.172 26.7623 218.805 27.3054 218.344 27.7623C217.882 28.2191 217.335 28.5807 216.733 28.8263C216.131 29.072 215.487 29.1968 214.837 29.1938L176.01 29.0552C175.359 29.053 174.716 28.9229 174.116 28.6724C173.516 28.422 172.971 28.056 172.513 27.5955C172.055 27.135 171.692 26.5889 171.445 25.9884C171.198 25.388 171.072 24.7449 171.075 24.0959V21.8211L144.49 21.723C143.132 21.7177 141.786 21.9795 140.529 22.4934C139.272 23.0073 138.129 23.7633 137.165 24.7182C136.201 25.6731 135.435 26.8082 134.911 28.0586C134.387 29.3089 134.115 30.6501 134.11 32.0055L133.295 253.855C133.289 255.211 133.552 256.554 134.067 257.808C134.582 259.062 135.339 260.203 136.296 261.165C137.253 262.127 138.39 262.891 139.643 263.414C140.896 263.937 142.241 264.209 143.599 264.213L245.501 264.588C246.861 264.597 248.21 264.337 249.47 263.825C250.731 263.312 251.877 262.557 252.844 261.602C253.812 260.647 254.581 259.511 255.108 258.259C255.634 257.007 255.909 255.664 255.915 254.306L256.725 32.45C256.73 31.0947 256.468 29.7515 255.953 28.4974C255.438 27.2432 254.68 26.1027 253.723 25.1408C252.766 24.1789 251.629 23.4147 250.376 22.8916C249.123 22.3686 247.779 22.097 246.421 22.0925Z" fill="#F6F5FF" stroke="#6349A0" stroke-miterlimit="10"/>
<path d="M186.478 24.0511L186.478 24.1261C186.476 24.5565 186.825 24.9068 187.256 24.9084L205.863 24.9764C206.294 24.978 206.645 24.6303 206.646 24.1998L206.647 24.1248C206.648 23.6944 206.3 23.3441 205.869 23.3425L187.262 23.2745C186.831 23.2729 186.48 23.6206 186.478 24.0511Z" fill="#6349A0"/>
<path d="M232.281 82.9559H181.367C180.153 82.9559 178.989 82.4748 178.131 81.6183C177.273 80.7619 176.791 79.6003 176.791 78.3891V57.0563L171.179 52.0796H232.281C233.495 52.0811 234.659 52.5635 235.517 53.4209C236.375 54.2783 236.857 55.4404 236.857 56.6521V78.3891C236.857 79.6003 236.375 80.7619 235.517 81.6183C234.658 82.4748 233.494 82.9559 232.281 82.9559Z" fill="#CECEF2"/>
<path d="M231.043 87.9212C231.02 87.9216 230.997 87.9171 230.976 87.9082C230.955 87.8992 230.937 87.886 230.921 87.8693L229.868 86.7723C229.838 86.7402 229.821 86.6979 229.821 86.654C229.821 86.61 229.838 86.5677 229.868 86.5356C229.901 86.5068 229.943 86.4909 229.987 86.4909C230.03 86.4909 230.073 86.5068 230.105 86.5356L231.037 87.5113L233.079 85.4387C233.111 85.4073 233.153 85.3896 233.198 85.3896C233.242 85.3896 233.285 85.4073 233.316 85.4387C233.332 85.4537 233.344 85.4717 233.352 85.4915C233.361 85.5113 233.365 85.5326 233.365 85.5541C233.365 85.5756 233.361 85.5969 233.352 85.6168C233.344 85.6366 233.332 85.6546 233.316 85.6696L231.153 87.8693C231.123 87.8993 231.084 87.9177 231.043 87.9212Z" fill="#EC665A"/>
<path d="M232.541 87.8865H232.344C232.322 87.8865 232.301 87.8822 232.281 87.8737C232.261 87.8652 232.243 87.8528 232.228 87.8371C232.212 87.8215 232.201 87.803 232.193 87.7827C232.185 87.7624 232.181 87.7408 232.182 87.7191C232.185 87.6762 232.204 87.6358 232.235 87.6059C232.266 87.576 232.307 87.5587 232.35 87.5574H232.472L234.583 85.4155C234.615 85.3841 234.657 85.3665 234.702 85.3665C234.746 85.3665 234.789 85.3841 234.821 85.4155C234.836 85.4305 234.848 85.4485 234.857 85.4683C234.865 85.4881 234.869 85.5094 234.869 85.5309C234.869 85.5525 234.865 85.5737 234.857 85.5936C234.848 85.6134 234.836 85.6313 234.821 85.6464L232.662 87.8461C232.628 87.8735 232.585 87.8879 232.541 87.8865Z" fill="#EC665A"/>
<path d="M184.937 60.3936H224.904" stroke="white" stroke-width="2" stroke-linecap="round" stroke-linejoin="round"/>
<path d="M184.937 67.2407H224.904" stroke="white" stroke-width="2" stroke-linecap="round" stroke-linejoin="round"/>
<path d="M184.937 74.4055H205.574" stroke="white" stroke-width="2" stroke-linecap="round" stroke-linejoin="round"/>
<path d="M156.489 70.2775C161.388 70.2775 165.359 66.3149 165.359 61.4268C165.359 56.5387 161.388 52.5762 156.489 52.5762C151.591 52.5762 147.62 56.5387 147.62 61.4268C147.62 66.3149 151.591 70.2775 156.489 70.2775Z" fill="#CECEF2"/>
<path d="M216.052 87.1072H226.368" stroke="#CECEF2" stroke-width="2" stroke-linecap="round" stroke-linejoin="round"/>
<path d="M257.587 128.191C264.754 128.191 270.564 122.406 270.564 115.27C270.564 108.134 264.754 102.349 257.587 102.349C250.42 102.349 244.61 108.134 244.61 115.27C244.61 122.406 250.42 128.191 257.587 128.191Z" fill="#6349A0"/>
<path d="M258.119 106.864H257.518V109.889H258.119V106.864Z" fill="#FFA03E"/>
<path d="M248.966 118.959C249.938 118.959 250.725 118.173 250.725 117.204C250.725 116.235 249.938 115.449 248.966 115.449C247.995 115.449 247.208 116.235 247.208 117.204C247.208 118.173 247.995 118.959 248.966 118.959Z" fill="white"/>
<path d="M266.751 118.844C267.722 118.844 268.51 118.058 268.51 117.089C268.51 116.119 267.722 115.333 266.751 115.333C265.78 115.333 264.992 116.119 264.992 117.089C264.992 118.058 265.78 118.844 266.751 118.844Z" fill="white"/>
<path d="M258.073 109.254C258.073 109.254 265.235 109.173 266.369 115.362C267.503 121.551 261.446 121.667 259.704 121.782C258.917 121.84 257.228 121.846 255.735 121.817C252.432 121.759 250.1 121.124 249.308 118.064C249.213 117.707 249.153 117.342 249.128 116.973C248.92 113.619 251.188 109.092 258.073 109.254Z" fill="white"/>
<path d="M252.877 118.688L263.291 118.849C263.815 118.857 264.321 118.657 264.697 118.294C265.073 117.93 265.29 117.432 265.299 116.909C265.307 116.387 265.106 115.882 264.742 115.507C264.378 115.131 263.879 114.915 263.355 114.906L252.941 114.744C252.681 114.74 252.423 114.786 252.182 114.882C251.94 114.977 251.72 115.118 251.534 115.299C251.347 115.479 251.198 115.694 251.095 115.932C250.992 116.17 250.937 116.425 250.933 116.684C250.926 117.207 251.126 117.711 251.49 118.087C251.855 118.463 252.353 118.679 252.877 118.688Z" fill="#FFA03E"/>
<path d="M258.802 106.806C258.802 107.001 258.744 107.192 258.635 107.355C258.526 107.517 258.372 107.643 258.191 107.718C258.01 107.793 257.812 107.812 257.62 107.774C257.428 107.736 257.251 107.642 257.113 107.504C256.975 107.366 256.88 107.19 256.842 106.999C256.804 106.807 256.824 106.609 256.898 106.428C256.973 106.248 257.1 106.094 257.263 105.985C257.426 105.877 257.617 105.819 257.813 105.819C258.075 105.819 258.327 105.923 258.512 106.108C258.698 106.293 258.802 106.544 258.802 106.806Z" fill="white"/>
<path d="M158.335 141.562H222.405C223.934 141.562 225.401 140.958 226.486 139.881C227.57 138.805 228.183 137.344 228.19 135.818V108.965L235.255 102.713H158.335C156.8 102.713 155.329 103.321 154.244 104.404C153.159 105.486 152.549 106.955 152.549 108.486V135.846C152.565 137.368 153.181 138.821 154.264 139.892C155.348 140.962 156.81 141.562 158.335 141.562Z" fill="#FFA03E"/>
<path d="M216.758 111.95H161.5" stroke="white" stroke-width="2" stroke-linecap="round" stroke-linejoin="round"/>
<path d="M216.758 119.259H161.5" stroke="white" stroke-width="2" stroke-linecap="round" stroke-linejoin="round"/>
<path d="M182.548 132.267H161.5" stroke="white" stroke-width="2" stroke-linecap="round" stroke-linejoin="round"/>
<path d="M157.513 173.991H208.426C209.64 173.991 210.804 173.51 211.662 172.654C212.521 171.797 213.003 170.636 213.003 169.425V154.899L218.615 149.928H157.513C156.299 149.928 155.135 150.409 154.277 151.265C153.419 152.122 152.937 153.283 152.937 154.495V169.425C152.937 170.636 153.419 171.797 154.277 172.654C155.135 173.51 156.299 173.991 157.513 173.991Z" fill="#FFA03E"/>
<path d="M202.577 158.271H162.616" stroke="white" stroke-width="2" stroke-linecap="round" stroke-linejoin="round"/>
<path d="M183.028 165.441H162.396" stroke="white" stroke-width="2" stroke-linecap="round" stroke-linejoin="round"/>
<path d="M231.303 220.48H180.389C179.176 220.48 178.012 219.998 177.154 219.142C176.295 218.285 175.813 217.124 175.813 215.913V194.551L170.189 189.58H231.291C232.506 189.582 233.671 190.064 234.53 190.921C235.389 191.778 235.872 192.94 235.873 194.153V215.89C235.876 216.491 235.759 217.086 235.531 217.642C235.302 218.198 234.966 218.704 234.542 219.13C234.117 219.556 233.613 219.895 233.057 220.126C232.501 220.358 231.905 220.478 231.303 220.48Z" fill="#CECEF2"/>
<path d="M230.065 225.445C230.042 225.445 230.02 225.44 229.999 225.432C229.978 225.423 229.959 225.409 229.943 225.393L228.89 224.296C228.875 224.28 228.863 224.261 228.855 224.24C228.848 224.22 228.844 224.198 228.844 224.176C228.845 224.132 228.864 224.09 228.896 224.059C228.928 224.028 228.972 224.012 229.016 224.013C229.061 224.014 229.103 224.033 229.133 224.065L230.065 225.04L232.107 222.968C232.121 222.948 232.139 222.931 232.16 222.919C232.181 222.907 232.205 222.9 232.229 222.898C232.253 222.895 232.278 222.899 232.3 222.907C232.323 222.915 232.344 222.928 232.361 222.945C232.379 222.961 232.392 222.982 232.401 223.005C232.41 223.027 232.413 223.051 232.412 223.076C232.41 223.1 232.403 223.123 232.392 223.144C232.38 223.166 232.364 223.184 232.344 223.199L230.181 225.393C230.166 225.409 230.148 225.422 230.128 225.431C230.108 225.44 230.087 225.444 230.065 225.445Z" fill="#EC665A"/>
<path d="M231.563 225.41H231.366C231.344 225.41 231.323 225.406 231.303 225.397C231.283 225.389 231.265 225.376 231.25 225.361C231.234 225.345 231.223 225.326 231.215 225.306C231.207 225.286 231.203 225.264 231.204 225.242C231.207 225.2 231.226 225.159 231.257 225.129C231.288 225.099 231.329 225.082 231.372 225.081H231.493L233.605 222.939C233.637 222.909 233.68 222.892 233.724 222.892C233.768 222.892 233.81 222.909 233.842 222.939C233.874 222.97 233.892 223.013 233.892 223.057C233.892 223.102 233.874 223.144 233.842 223.176L231.684 225.369C231.651 225.398 231.607 225.413 231.563 225.41Z" fill="#EC665A"/>
<path d="M183.959 197.917H223.926" stroke="white" stroke-width="2" stroke-linecap="round" stroke-linejoin="round"/>
<path d="M183.959 204.764H223.926" stroke="white" stroke-width="2" stroke-linecap="round" stroke-linejoin="round"/>
<path d="M183.959 211.929H204.597" stroke="white" stroke-width="2" stroke-linecap="round" stroke-linejoin="round"/>
<path d="M155.511 207.801C160.41 207.801 164.381 203.838 164.381 198.95C164.381 194.062 160.41 190.1 155.511 190.1C150.613 190.1 146.642 194.062 146.642 198.95C146.642 203.838 150.613 207.801 155.511 207.801Z" fill="#CECEF2"/>
<path d="M215.074 224.63H225.39" stroke="#CECEF2" stroke-width="2" stroke-linecap="round" stroke-linejoin="round"/>
<path d="M242.446 247.349H148.071C145.978 247.349 144.282 249.042 144.282 251.13C144.282 253.219 145.978 254.912 148.071 254.912H242.446C244.539 254.912 246.236 253.219 246.236 251.13C246.236 249.042 244.539 247.349 242.446 247.349Z" fill="white" stroke="#6349A0" stroke-miterlimit="10"/>
<path d="M29.9926 184.095C43.5727 184.095 54.5815 173.11 54.5815 159.558C54.5815 146.007 43.5727 135.021 29.9926 135.021C16.4126 135.021 5.40381 146.007 5.40381 159.558C5.40381 173.11 16.4126 184.095 29.9926 184.095Z" fill="#F6F5FF"/>
<mask id="mask1" style="mask-type:alpha" maskUnits="userSpaceOnUse" x="5" y="135" width="50" height="50">
<path d="M29.9926 184.095C43.5727 184.095 54.5815 173.11 54.5815 159.558C54.5815 146.007 43.5727 135.021 29.9926 135.021C16.4126 135.021 5.40381 146.007 5.40381 159.558C5.40381 173.11 16.4126 184.095 29.9926 184.095Z" fill="#F6F5FF"/>
</mask>
<g mask="url(#mask1)">
<path d="M40.9334 150.505L40.8118 150.28V150.216C40.5919 149.639 40.3547 149.131 40.0886 148.594C38.3529 145.044 33.9906 143.029 30.0274 143.023C28.8304 143.014 27.6383 143.176 26.4867 143.502C24.861 144.229 20.8977 146.747 19.8679 154.246C19.5145 156.837 20.0161 159.471 21.2969 161.752C20.2324 162.422 18.8322 163.773 17.8255 166.509C15.9626 171.538 6.6304 172.658 5.67577 179.361C4.72115 186.064 14.4468 198.165 24.7047 190.33C32.5153 184.378 31.2482 173.01 30.1952 167.953C32.834 168.301 35.5119 167.721 37.7687 166.313C39.0756 165.593 40.195 164.577 41.037 163.346C41.8791 162.116 42.4202 160.706 42.6169 159.229C42.5594 156.246 41.99 153.296 40.9334 150.505Z" fill="black"/>
<path d="M31.8153 168.022C25.4511 168.022 20.9267 162.283 20.7358 162.035C20.6489 161.916 20.6107 161.769 20.629 161.623C20.6473 161.477 20.7207 161.343 20.8342 161.25C20.9539 161.164 21.102 161.126 21.2482 161.146C21.3945 161.165 21.5278 161.239 21.621 161.353C21.6615 161.405 26.0123 166.907 31.8153 166.907C31.9379 166.941 32.0461 167.013 32.1232 167.114C32.2004 167.215 32.2422 167.338 32.2422 167.465C32.2422 167.591 32.2004 167.715 32.1232 167.815C32.0461 167.916 31.9379 167.989 31.8153 168.022Z" fill="#EC665A"/>
<path d="M42.9063 181.659C39.4755 171.267 35.6338 171.705 35.6338 171.705L38.6019 193.564C40.7252 192.986 43.4848 191.699 45.6024 191.098C44.8669 187.908 43.9671 184.757 42.9063 181.659Z" fill="#4C3C99"/>
<path d="M26.834 169.841C26.834 169.841 20.5103 169.436 18.0051 172.15C15.5 174.864 23.5594 196.468 24.0165 199.943C24.4735 203.419 21.7022 212.645 21.7022 212.645C21.7022 212.645 36.5712 215.635 40.7947 212.824C40.7947 212.824 41.2518 187.848 40.7947 185.365C40.3377 182.883 36.548 172.797 35.6339 171.804C34.7197 170.811 26.834 169.841 26.834 169.841Z" fill="#5E4C9A"/>
<path d="M28.9456 161.382L28.8529 161.885C28.5694 163.409 27.4818 168.455 26.747 169.846C25.8618 171.521 29.7845 176.873 33.5625 176.197C34.6849 176.006 32.6135 171.284 32.7119 170.787C32.9028 169.829 33.1633 168.524 33.4236 167.185C33.5741 166.428 33.7243 165.661 33.869 164.945L34.6038 161.227L28.9456 161.382Z" fill="#F5BD9B"/>
<path d="M28.8533 161.867L28.9459 161.365L34.6042 161.227L33.8694 164.945C33.7247 165.661 33.5802 166.423 33.4298 167.173C32.4165 166.991 31.4778 166.52 30.7278 165.816C29.7899 164.999 29.0836 163.949 28.6797 162.774L28.8533 161.867Z" fill="#E47B60"/>
<path d="M32.7523 148.519C31.9328 148.455 31.1099 148.59 30.3541 148.913C29.5984 149.236 28.9324 149.736 28.4131 150.372C26.741 152.537 24.9418 159.223 29.0901 162.86C33.2384 166.497 37.3461 162.381 37.9593 158.016C38.5726 153.651 38.804 148.363 32.7523 148.519Z" fill="#F5BD9B"/>
<path d="M39.186 157.953C38.6885 158.917 37.8554 159.448 37.3289 159.142C36.8024 158.836 36.7502 157.809 37.2652 156.833C37.7801 155.857 38.59 155.338 39.1223 155.644C39.6546 155.95 39.6836 156.989 39.186 157.953Z" fill="#F5BD9B"/>
<path d="M27.6034 156.053C27.8117 157.208 27.3951 158.218 26.6719 158.363C25.9487 158.507 25.2024 157.716 24.9941 156.584C24.7858 155.453 25.2023 154.419 25.9255 154.275C26.6487 154.131 27.4009 154.939 27.6034 156.053Z" fill="#F5BD9B"/>
<path d="M25.5496 193.904C25.5496 193.904 28.4423 181.122 27.6612 177.103C26.8802 173.085 21.812 169.598 18.5547 171.215C15.2974 172.831 17.01 191.808 17.01 191.808L25.5496 193.904Z" fill="#4C3C99"/>
<path d="M34.6271 159.76L30.0508 159.425C30.0657 159.944 30.2815 160.436 30.6526 160.799C31.0238 161.162 31.5214 161.367 32.041 161.371C34.4825 161.619 34.6271 159.76 34.6271 159.76Z" fill="#EFFAFD"/>
</g>
<path d="M29.9926 184.095C43.5727 184.095 54.5815 173.11 54.5815 159.558C54.5815 146.007 43.5727 135.021 29.9926 135.021C16.4126 135.021 5.40381 146.007 5.40381 159.558C5.40381 173.11 16.4126 184.095 29.9926 184.095Z" stroke="#6349A0" stroke-width="1.5" stroke-miterlimit="10"/>
<path d="M258.721 50.0937C272.301 50.0937 283.309 39.1081 283.309 25.5566C283.309 12.0052 272.301 1.01953 258.721 1.01953C245.141 1.01953 234.132 12.0052 234.132 25.5566C234.132 39.1081 245.141 50.0937 258.721 50.0937Z" fill="#F6F5FF"/>
<mask id="mask2" style="mask-type:alpha" maskUnits="userSpaceOnUse" x="234" y="1" width="50" height="50">
<path d="M258.721 50.0937C272.301 50.0937 283.31 39.1081 283.31 25.5566C283.31 12.0052 272.301 1.01953 258.721 1.01953C245.141 1.01953 234.132 12.0052 234.132 25.5566C234.132 39.1081 245.141 50.0937 258.721 50.0937Z" fill="#C4C4C4"/>
</mask>
<g mask="url(#mask2)">
<path d="M239.993 60.7342L251.032 61.8542C251.032 61.8542 251.536 52.8246 251.536 48.5176C251.536 43.3215 251.09 36.5608 250.459 36.7052C248.683 37.1151 246.294 38.0908 244.871 40.0422C239.947 46.7971 239.993 60.7342 239.993 60.7342Z" fill="#F7A09C"/>
<path d="M272.017 63.3727C272.029 62.1346 272.12 60.8986 272.288 59.6719C272.809 56.9353 273.446 38.7374 271.681 38.2236C269.147 37.4476 266.549 36.8989 263.917 36.5839C261.481 36.3299 252.022 36.1855 250.332 36.7513C247.707 39.8347 246.009 43.5951 245.432 47.5996C245.345 48.2174 244.651 55.1397 243.829 63.3727H272.017Z" fill="#EC665A"/>
<path d="M286 56.6003L276.437 63.0089C276.437 63.0089 271.045 55.0068 268.152 52.1548C264.53 48.5868 269.477 37.6577 271.808 38.2985C277.033 39.6553 286 56.6003 286 56.6003Z" fill="#F7A09C"/>
<path d="M255.238 8.72703C255.238 8.72703 258.513 5.26296 261.151 9.4718C261.735 9.15244 262.418 9.06663 263.063 9.23175C263.707 9.39687 264.265 9.80057 264.622 10.3609C264.622 10.3609 268.29 9.25821 269.181 14.7314C269.181 14.7314 271.068 14.3792 271.316 16.6135C271.474 17.9248 271.158 19.2491 270.425 20.349C270.425 20.349 271.484 21.1399 271.004 23.201C270.918 23.6793 270.698 24.1231 270.367 24.4801C270.037 24.8371 269.612 25.0924 269.141 25.216C269.141 25.216 268.753 28.1662 267.469 29.0553C266.555 29.5863 265.474 29.7514 264.443 29.5172C264.443 29.5172 263.98 31.1164 262.482 30.9721C260.983 30.8278 259.138 29.4075 257.466 30.0483C255.794 30.6892 251.443 30.0137 251.443 30.0137C251.443 30.0137 246.566 27.8429 248.029 22.8719C248.029 22.8719 245.46 20.5626 247.705 17.7913C247.705 17.7913 246.068 13.4555 249.308 10.8979C252.548 8.34022 255.238 8.72703 255.238 8.72703Z" fill="#1A1A1A"/>
<path d="M255.817 32.1269L255.238 36.5205C255.238 36.5205 253.913 42.8712 255.62 44.0663C257.327 45.2614 262.887 36.3415 262.887 36.3415L262.308 25.2161L255.817 32.1269Z" fill="#F5BD9B"/>
<path d="M262.447 28.8187C261.036 32.6118 257.674 34.9443 255.291 35.8507L255.794 32.1269L262.262 25.1987L262.447 28.8187Z" fill="#E47B60"/>
<path d="M271.357 17.6529C271.357 19.3445 270.391 20.7185 269.199 20.7185C268.007 20.7185 267.041 19.3445 267.041 17.6529C267.041 15.9612 268.007 14.5872 269.199 14.5872C270.391 14.5872 271.357 15.9612 271.357 17.6529Z" fill="#1A1A1A"/>
<path d="M262.262 12.8204C263.713 12.8204 264.889 12.032 264.889 11.0595C264.889 10.087 263.713 9.29858 262.262 9.29858C260.811 9.29858 259.635 10.087 259.635 11.0595C259.635 12.032 260.811 12.8204 262.262 12.8204Z" fill="#1A1A1A"/>
<path d="M258.311 13.5248C257.497 13.2513 256.633 13.1588 255.78 13.2537C254.927 13.3486 254.105 13.6287 253.372 14.0744C252.638 14.52 252.012 15.1203 251.536 15.8332C251.06 16.5462 250.746 17.3544 250.616 18.2013C250.335 20.0673 250.177 21.9496 250.141 23.8362C250.043 28.963 252.704 33.9512 255.042 33.9512C257.379 33.9512 263.824 30.6315 264.056 23.3512C264.2 18.8595 261.95 14.7776 258.311 13.5248Z" fill="#F5BD9B"/>
<path d="M262.337 23.9285C262.337 25.0832 263.089 25.978 264.015 25.978C264.941 25.978 265.693 25.0601 265.693 23.9285C265.693 22.7969 264.941 21.8789 264.015 21.8789C263.089 21.8789 262.337 22.7969 262.337 23.9285Z" fill="#F5BD9B"/>
<path d="M248.203 10.9728C245.791 12.878 244.946 15.7763 246.317 17.4391C247.688 19.1018 250.749 18.9113 253.156 17.006C255.562 15.1008 256.413 12.2083 255.042 10.5398C253.671 8.87127 250.61 9.06757 248.203 10.9728Z" fill="#1A1A1A"/>
<path d="M254.503 12.5375C254.503 13.3631 255.504 14.0386 256.743 14.0386C257.981 14.0386 258.981 13.3631 258.981 12.5375C258.981 11.7119 257.975 11.0364 256.743 11.0364C255.51 11.0364 254.503 11.7061 254.503 12.5375Z" fill="#1A1A1A"/>
<path d="M247.844 18.9115C247.849 19.2873 247.965 19.6533 248.177 19.9636C248.39 20.2739 248.69 20.5145 249.039 20.6552C249.388 20.7958 249.771 20.8303 250.14 20.7542C250.509 20.6781 250.847 20.4948 251.112 20.2275C251.376 19.9601 251.556 19.6206 251.628 19.2517C251.7 18.8828 251.66 18.5008 251.515 18.1541C251.37 17.8073 251.125 17.5111 250.812 17.3027C250.498 17.0944 250.13 16.9832 249.754 16.9832C249.501 16.9847 249.252 17.0358 249.019 17.1335C248.787 17.2312 248.576 17.3737 248.399 17.5527C248.221 17.7318 248.081 17.944 247.986 18.1771C247.891 18.4102 247.843 18.6598 247.844 18.9115Z" fill="#1A1A1A"/>
<path d="M252.594 28.3279L257.159 28.5069C257.094 29.0224 256.829 29.4922 256.422 29.8157C256.014 30.1393 255.496 30.2912 254.978 30.2389C252.525 30.1869 252.594 28.3279 252.594 28.3279Z" fill="#EFFAFD"/>
</g>
<path d="M258.721 50.0937C272.301 50.0937 283.31 39.1081 283.31 25.5566C283.31 12.0052 272.301 1.01953 258.721 1.01953C245.141 1.01953 234.132 12.0052 234.132 25.5566C234.132 39.1081 245.141 50.0937 258.721 50.0937Z" stroke="#6349A0" stroke-width="1.5" stroke-miterlimit="10"/>
<path d="M86.8939 237.476C91.1532 237.476 94.6061 234.031 94.6061 229.78C94.6061 225.53 91.1532 222.084 86.8939 222.084C82.6345 222.084 79.1816 225.53 79.1816 229.78C79.1816 234.031 82.6345 237.476 86.8939 237.476Z" fill="#766BC9"/>
<path d="M90.7413 230.97C90.7615 230.95 90.7775 230.927 90.7885 230.901C90.7994 230.875 90.8051 230.848 90.805 230.82V230.358C90.7675 229.997 90.6425 229.651 90.4409 229.349C90.2393 229.047 89.9671 228.799 89.6479 228.626C88.8149 228.113 87.8554 227.841 86.8766 227.841C85.8977 227.841 84.9382 228.113 84.1052 228.626C83.786 228.799 83.5139 229.047 83.3123 229.349C83.1107 229.651 82.9856 229.997 82.9481 230.358V230.82C82.9496 230.876 82.9727 230.929 83.0125 230.969C83.0524 231.009 83.1059 231.032 83.1622 231.033H84.4814C84.5377 231.032 84.5913 231.009 84.6311 230.969C84.6709 230.929 84.6939 230.876 84.6954 230.82V230.358C84.7013 230.125 84.7658 229.897 84.8831 229.695C85.0004 229.493 85.1666 229.324 85.3665 229.203C85.8127 228.92 86.3305 228.77 86.8592 228.77C87.3879 228.77 87.9057 228.92 88.3519 229.203C88.5518 229.324 88.718 229.493 88.8353 229.695C88.9525 229.897 89.0171 230.125 89.023 230.358V230.82C89.0245 230.876 89.0476 230.929 89.0874 230.969C89.1272 231.009 89.1808 231.032 89.2371 231.033H90.5563C90.5843 231.033 90.6121 231.028 90.6379 231.017C90.6638 231.006 90.6872 230.99 90.7067 230.97H90.7413ZM83.22 228.66C83.3969 228.481 83.5906 228.318 83.7986 228.175C84.7207 227.597 85.7876 227.291 86.8766 227.291C87.9655 227.291 89.0325 227.597 89.9545 228.175C90.3513 228.427 90.692 228.757 90.9554 229.145C91.2037 229.51 91.3385 229.94 91.343 230.381V230.843C91.3415 231.046 91.2601 231.241 91.1163 231.386C90.9725 231.531 90.7776 231.613 90.5735 231.616H89.2545C89.0494 231.615 88.8529 231.533 88.7079 231.388C88.5628 231.243 88.4807 231.047 88.4792 230.843V230.381C88.4693 230.24 88.4251 230.104 88.3505 229.984C88.2759 229.865 88.1731 229.765 88.0511 229.694C87.6973 229.479 87.2909 229.365 86.8766 229.365C86.4622 229.365 86.0559 229.479 85.7021 229.694C85.58 229.765 85.4772 229.865 85.4026 229.984C85.328 230.104 85.2839 230.24 85.2739 230.381V230.843C85.2724 231.047 85.1903 231.243 85.0453 231.388C84.9002 231.533 84.7038 231.615 84.4986 231.616H83.1796C82.9745 231.615 82.778 231.533 82.633 231.388C82.4879 231.243 82.4058 231.047 82.4043 230.843V230.381C82.4109 229.939 82.5477 229.51 82.7977 229.145C82.9137 228.97 83.0475 228.808 83.1969 228.66H83.22Z" fill="white"/>
<path d="M239.015 175.17C246.182 175.17 251.992 169.385 251.992 162.249C251.992 155.113 246.182 149.328 239.015 149.328C231.848 149.328 226.038 155.113 226.038 162.249C226.038 169.385 231.848 175.17 239.015 175.17Z" fill="#6349A0"/>
<path d="M239.548 153.842H238.946V156.868H239.548V153.842Z" fill="#FFA03E"/>
<path d="M230.395 165.937C231.366 165.937 232.153 165.152 232.153 164.182C232.153 163.213 231.366 162.427 230.395 162.427C229.423 162.427 228.636 163.213 228.636 164.182C228.636 165.152 229.423 165.937 230.395 165.937Z" fill="white"/>
<path d="M248.179 165.822C249.151 165.822 249.938 165.036 249.938 164.067C249.938 163.098 249.151 162.312 248.179 162.312C247.208 162.312 246.42 163.098 246.42 164.067C246.42 165.036 247.208 165.822 248.179 165.822Z" fill="white"/>
<path d="M239.507 156.238C239.507 156.238 246.669 156.152 247.803 162.341C248.937 168.53 242.88 168.645 241.138 168.767C240.346 168.819 238.656 168.824 237.164 168.767C233.86 168.709 231.528 168.074 230.736 165.014C230.641 164.657 230.581 164.291 230.557 163.923C230.36 160.597 232.622 156.094 239.507 156.238Z" fill="white"/>
<path d="M234.312 165.666L244.726 165.828C245.249 165.836 245.755 165.636 246.131 165.272C246.508 164.908 246.724 164.411 246.733 163.888C246.741 163.365 246.541 162.861 246.176 162.485C245.812 162.11 245.313 161.894 244.789 161.885L234.375 161.723C234.116 161.718 233.858 161.765 233.617 161.86C233.376 161.955 233.156 162.097 232.97 162.277C232.784 162.458 232.635 162.673 232.533 162.911C232.431 163.148 232.376 163.404 232.373 163.663C232.369 163.921 232.415 164.178 232.51 164.419C232.605 164.66 232.747 164.879 232.927 165.065C233.107 165.251 233.322 165.4 233.559 165.503C233.797 165.606 234.052 165.662 234.312 165.666Z" fill="#FFA03E"/>
<path d="M240.23 153.785C240.23 153.98 240.172 154.171 240.063 154.333C239.955 154.495 239.8 154.622 239.619 154.697C239.439 154.771 239.24 154.791 239.048 154.753C238.856 154.715 238.68 154.621 238.541 154.483C238.403 154.345 238.309 154.169 238.27 153.977C238.232 153.786 238.252 153.587 238.327 153.407C238.402 153.226 238.528 153.072 238.691 152.964C238.854 152.855 239.045 152.797 239.241 152.797C239.503 152.797 239.755 152.901 239.94 153.087C240.126 153.272 240.23 153.523 240.23 153.785Z" fill="white"/>
</g>
<defs>
<clipPath id="clip0">
<rect width="286" height="338" fill="white" transform="translate(0 0.586426)"/>
</clipPath>
</defs>
</svg>
