<svg width="317" height="267" viewBox="0 0 317 267" fill="none" xmlns="http://www.w3.org/2000/svg">
<g clip-path="url(#clip0)">
<path d="M52.4452 249.104L150.965 248.736C152.537 248.73 154.093 248.413 155.543 247.804C156.994 247.194 158.31 246.303 159.417 245.182C160.524 244.061 161.399 242.731 161.994 241.27C162.588 239.809 162.889 238.245 162.881 236.666L162.105 25.1178C162.1 23.5395 161.784 21.9778 161.177 20.522C160.569 19.0663 159.681 17.7451 158.565 16.6341C157.448 15.5231 156.124 14.6441 154.668 14.0475C153.212 13.4508 151.653 13.1482 150.081 13.1569L51.5615 13.519C49.9896 13.5253 48.4343 13.8427 46.9848 14.4529C45.5352 15.0631 44.2198 15.9541 43.1136 17.0751C42.0074 18.1961 41.1323 19.5251 40.5382 20.9859C39.9442 22.4467 39.6428 24.0107 39.6516 25.5885L40.4211 237.143C40.4274 238.721 40.7436 240.282 41.3514 241.738C41.9592 243.193 42.8468 244.514 43.9635 245.625C45.0802 246.736 46.4041 247.615 47.8594 248.212C49.3148 248.809 50.8731 249.112 52.4452 249.104Z" fill="white" stroke="#6349A0" stroke-miterlimit="10"/>
<path d="M53.81 18.3889L78.3633 18.2984V20.4105C78.3696 21.628 78.8567 22.7933 79.7178 23.6508C80.5788 24.5083 81.7435 24.9881 82.9564 24.9849L118.824 24.8521C119.425 24.8505 120.02 24.7299 120.575 24.4972C121.129 24.2645 121.633 23.9243 122.056 23.496C122.479 23.0677 122.814 22.5598 123.042 22.0013C123.269 21.4429 123.385 20.8449 123.382 20.2416V18.1294L147.941 18.0389C150.474 18.0308 152.907 19.0324 154.705 20.8236C156.503 22.6148 157.519 25.0492 157.53 27.5919L158.282 233.727C158.29 234.989 158.051 236.24 157.577 237.409C157.103 238.578 156.404 239.641 155.52 240.538C154.636 241.435 153.584 242.148 152.425 242.636C151.265 243.124 150.022 243.378 148.764 243.383L54.6277 243.733C52.0951 243.741 49.6629 242.739 47.8659 240.948C46.0688 239.156 45.0539 236.722 45.0443 234.18L44.2868 28.0385C44.2789 26.7767 44.5192 25.5257 44.9938 24.3573C45.4685 23.1888 46.1683 22.1259 47.053 21.2295C47.9377 20.333 48.9899 19.6207 50.1495 19.1332C51.309 18.6458 52.5529 18.3928 53.81 18.3889Z" fill="#F6F5FF" stroke="#6349A0" stroke-miterlimit="10"/>
<path d="M108.442 19.481L91.2541 19.5442C90.8557 19.5457 90.5339 19.8711 90.5354 20.271L90.5356 20.3435C90.5371 20.7434 90.8612 21.0664 91.2597 21.065L108.448 21.0017C108.846 21.0003 109.168 20.6749 109.167 20.2749L109.167 20.2025C109.165 19.8026 108.841 19.4795 108.442 19.481Z" fill="#6349A0"/>
<path d="M150.959 266.285L261.785 265.88C265.353 265.866 268.77 264.43 271.283 261.889C273.797 259.347 275.203 255.908 275.192 252.326L274.32 14.3517C274.306 10.7708 272.876 7.34217 270.343 4.81969C267.811 2.29722 264.385 0.887404 260.817 0.900233L149.991 1.31061C146.424 1.32339 143.007 2.75776 140.493 5.29834C137.979 7.83892 136.573 11.2777 136.584 14.8586L137.456 252.845C137.472 256.425 138.903 259.851 141.435 262.371C143.967 264.892 147.393 266.299 150.959 266.285Z" fill="white" stroke="#6349A0" stroke-miterlimit="10"/>
<path d="M152.48 6.76612L180.105 6.66354V9.04123C180.113 10.4103 180.661 11.7205 181.629 12.6851C182.597 13.6498 183.906 14.1905 185.27 14.1889L225.623 14.038C226.298 14.0356 226.967 13.8996 227.59 13.6377C228.213 13.3759 228.778 12.9933 229.254 12.5118C229.73 12.0304 230.107 11.4595 230.362 10.8319C230.618 10.2043 230.748 9.53225 230.745 8.85416V6.47646L258.37 6.37386C259.782 6.3683 261.18 6.64195 262.486 7.17915C263.792 7.71635 264.98 8.50657 265.982 9.50469C266.983 10.5028 267.779 11.6893 268.324 12.9962C268.868 14.3032 269.151 15.7051 269.156 17.1218L270.004 249.013C270.009 250.43 269.737 251.834 269.202 253.145C268.666 254.456 267.879 255.648 266.885 256.653C265.89 257.659 264.708 258.458 263.406 259.004C262.104 259.551 260.708 259.835 259.296 259.84L153.406 260.232C151.994 260.238 150.596 259.964 149.29 259.427C147.984 258.889 146.796 258.099 145.795 257.101C144.793 256.103 143.997 254.917 143.452 253.61C142.908 252.303 142.625 250.901 142.62 249.484L141.773 17.5925C141.767 16.1758 142.04 14.7719 142.575 13.461C143.11 12.1501 143.897 10.9578 144.892 9.95243C145.886 8.94703 147.068 8.14814 148.37 7.60142C149.672 7.0547 151.069 6.77086 152.48 6.76612Z" fill="#F6F5FF" stroke="#6349A0" stroke-miterlimit="10"/>
<path d="M213.954 7.99497L194.619 8.06611C194.171 8.06775 193.809 8.43384 193.811 8.88378L193.811 8.96224C193.813 9.41218 194.177 9.77557 194.626 9.77392L213.96 9.70279C214.408 9.70114 214.77 9.33507 214.769 8.88513L214.768 8.80668C214.767 8.35674 214.402 7.99332 213.954 7.99497Z" fill="#6349A0"/>
<path d="M101.39 229.256C105.816 229.256 109.404 225.654 109.404 221.211C109.404 216.769 105.816 213.167 101.39 213.167C96.9635 213.167 93.3755 216.769 93.3755 221.211C93.3755 225.654 96.9635 229.256 101.39 229.256Z" fill="#766BC9"/>
<path d="M97.3977 222.454C97.418 222.475 97.4422 222.492 97.4691 222.503C97.4959 222.515 97.5249 222.52 97.5541 222.52H98.9008C98.9593 222.519 99.0149 222.495 99.0563 222.453C99.0977 222.412 99.1218 222.356 99.1233 222.297V221.82C99.13 221.577 99.1973 221.339 99.3191 221.128C99.4409 220.917 99.6133 220.74 99.8206 220.613C100.285 220.322 100.821 220.167 101.369 220.167C101.916 220.167 102.453 220.322 102.917 220.613C103.124 220.74 103.297 220.917 103.418 221.128C103.54 221.339 103.608 221.577 103.614 221.82V222.297C103.614 222.326 103.62 222.355 103.631 222.382C103.643 222.409 103.659 222.434 103.68 222.454C103.724 222.496 103.782 222.52 103.843 222.52H105.207C105.237 222.521 105.267 222.516 105.294 222.505C105.322 222.494 105.347 222.478 105.369 222.457C105.39 222.436 105.407 222.411 105.418 222.384C105.43 222.356 105.436 222.327 105.436 222.297V221.82C105.397 221.443 105.268 221.081 105.058 220.766C104.849 220.45 104.566 220.191 104.234 220.01C103.369 219.474 102.373 219.189 101.357 219.189C100.34 219.189 99.3443 219.474 98.4799 220.01C98.1482 220.191 97.8653 220.451 97.6558 220.766C97.4463 221.081 97.3165 221.443 97.2775 221.82V222.297C97.2774 222.326 97.2832 222.355 97.2946 222.382C97.3059 222.409 97.3226 222.434 97.3436 222.454H97.3977ZM105.213 220.04C105.367 220.198 105.506 220.37 105.628 220.553C105.888 220.934 106.028 221.383 106.031 221.845V222.321C106.031 222.536 105.946 222.741 105.795 222.893C105.644 223.045 105.439 223.13 105.225 223.13H103.861C103.75 223.134 103.639 223.116 103.536 223.075C103.432 223.035 103.338 222.973 103.26 222.895C103.11 222.742 103.026 222.536 103.025 222.321V221.845C103.014 221.696 102.967 221.553 102.888 221.427C102.81 221.301 102.702 221.196 102.574 221.12C102.208 220.895 101.786 220.776 101.357 220.776C100.927 220.776 100.506 220.895 100.139 221.12C100.012 221.196 99.9038 221.301 99.8253 221.427C99.7468 221.553 99.6999 221.696 99.6884 221.845V222.321C99.6898 222.428 99.6697 222.533 99.6294 222.632C99.5891 222.73 99.5294 222.82 99.4538 222.895C99.304 223.045 99.1007 223.13 98.8887 223.13H97.5179C97.4119 223.131 97.3068 223.11 97.2087 223.07C97.1106 223.03 97.0215 222.97 96.9465 222.895C96.8716 222.82 96.8122 222.73 96.772 222.632C96.7318 222.533 96.7116 222.428 96.7124 222.321V221.845C96.7175 221.383 96.8598 220.933 97.1212 220.553C97.3936 220.146 97.7454 219.799 98.1553 219.533C99.1141 218.928 100.224 218.606 101.357 218.606C102.489 218.606 103.599 218.928 104.558 219.533C104.774 219.682 104.976 219.852 105.159 220.04H105.213Z" fill="white"/>
<path d="M310.88 67.5963L288.731 54L284.721 79.7563C289.79 80.547 294.979 79.8142 299.634 77.6503C304.289 75.4865 308.202 71.9882 310.88 67.5963Z" fill="#CECEF2"/>
<path d="M310.904 67.5662L311.042 67.3429C313.339 63.4812 314.602 59.0887 314.707 54.5924C314.812 50.0961 313.757 45.6489 311.644 41.6831C303.828 45.8048 308.475 43.3004 288.762 54C310.922 67.6205 307.471 65.5204 310.904 67.5662Z" fill="#F9C941"/>
<path d="M264.376 44.9961L288.731 54L311.577 41.5986C300.906 21.7623 272.126 24.1461 264.376 44.9961Z" fill="#766BC9"/>
<path d="M284.721 79.7563L288.731 54L264.377 44.9961C258.587 60.5778 268.861 77.2458 284.721 79.7563Z" fill="#EC665A"/>
<path d="M262.783 49.2567C263.215 49.2543 263.639 49.3645 264.016 49.5766C264.225 48.3996 264.52 47.2397 264.899 46.1066L278.126 51.0008C278.112 50.4023 278.327 49.8212 278.727 49.3774L277.398 48.8886L265.531 44.5013C266.48 42.1708 267.768 39.9947 269.354 38.0442C268.799 37.8358 268.331 37.4415 268.032 36.9277C266.321 39.0345 264.933 41.3858 263.914 43.9039L263.619 44.7065L263.312 45.5212C262.896 46.7606 262.573 48.0294 262.344 49.3171C262.488 49.2835 262.635 49.2633 262.783 49.2567Z" fill="white"/>
<path d="M312.726 41.9607L312.317 41.2003L312.287 41.1581L311.956 40.5546C309.455 36.1247 305.741 32.5077 301.255 30.1325C296.519 27.6995 291.177 26.7116 285.889 27.2907C280.6 27.8698 275.596 29.9906 271.495 33.3913C271.998 33.7036 272.382 34.1749 272.589 34.731C276.689 31.2992 281.769 29.2641 287.096 28.9196C291.746 28.566 296.402 29.54 300.524 31.729C304.646 33.9181 308.067 37.233 310.393 41.2908L303.647 44.9479L297.034 48.5325L288.954 52.9198L288.743 53.0345L288.064 52.6181L288.028 52.8534L283.279 51.0973C283.271 51.693 283.044 52.2647 282.641 52.7025L287.757 54.5975L283.994 78.7787C278.319 77.6555 273.2 74.6104 269.493 70.1528C265.787 65.6952 263.717 60.0953 263.631 54.2897C263.364 54.3923 263.081 54.4454 262.795 54.4466C262.493 54.4467 262.194 54.3915 261.912 54.2837C261.964 58.9267 263.221 63.4758 265.561 67.4817C267.489 70.8279 270.111 73.7189 273.25 75.9586C276.389 78.1982 279.971 79.7342 283.753 80.4624L284.607 80.5952L285.455 80.734C290.432 81.3474 295.481 80.5492 300.03 78.4299C304.579 76.3106 308.446 72.9549 311.192 68.7429L311.361 68.4653L311.637 68.0127L311.757 67.8075L312.034 67.361C314.213 63.508 315.416 59.1765 315.537 54.7474C315.658 50.3183 314.692 45.9274 312.726 41.9607ZM285.707 79.0201L289.381 55.4122L298.94 61.284L306.383 65.8523L309.683 67.88C307.122 71.7993 303.519 74.9203 299.281 76.8892C295.044 78.8581 290.342 79.5963 285.707 79.0201ZM310.603 66.3471L310.435 66.2506C309.533 65.7135 309.136 65.4781 307.333 64.3738L290.457 54.0181L304.465 46.4143C306.527 45.2979 307.369 44.8574 309.455 43.759L311.259 42.8236C313.061 46.5085 313.943 50.5783 313.829 54.6817C313.715 58.7852 312.608 62.7991 310.603 66.3773V66.3471Z" fill="#E8F2FC"/>
<path d="M230.475 81.2711H183.46V53.7646H218.817L230.475 65.466V81.2711Z" fill="#F9C941"/>
<path d="M217.952 53.7646V68.4472H230.475V65.6229L218.739 53.8431L217.952 53.7646Z" fill="#E5B12E"/>
<path d="M218.817 53.7646V65.6229H230.475L218.817 53.7646Z" fill="#F9C941"/>
<path d="M209.715 64.0841H188.763C188.543 64.0841 188.332 63.9963 188.176 63.8401C188.021 63.6839 187.933 63.4721 187.933 63.2513C187.933 63.0304 188.021 62.8186 188.176 62.6624C188.332 62.5062 188.543 62.4185 188.763 62.4185H209.715C209.935 62.4185 210.146 62.5062 210.302 62.6624C210.457 62.8186 210.545 63.0304 210.545 63.2513C210.545 63.4721 210.457 63.6839 210.302 63.8401C210.146 63.9963 209.935 64.0841 209.715 64.0841Z" fill="white"/>
<path d="M209.715 68.3507H188.763C188.543 68.3507 188.332 68.2629 188.176 68.1067C188.021 67.9506 187.933 67.7387 187.933 67.5179C187.933 67.297 188.021 67.0852 188.176 66.929C188.332 66.7728 188.543 66.6851 188.763 66.6851H209.715C209.824 66.6851 209.932 66.7066 210.032 66.7484C210.133 66.7903 210.225 66.8517 210.302 66.929C210.379 67.0063 210.44 67.0981 210.481 67.1992C210.523 67.3002 210.545 67.4085 210.545 67.5179C210.545 67.6272 210.523 67.7355 210.481 67.8366C210.44 67.9376 210.379 68.0294 210.302 68.1067C210.225 68.1841 210.133 68.2454 210.032 68.2873C209.932 68.3291 209.824 68.3507 209.715 68.3507Z" fill="white"/>
<path d="M209.715 72.8407H188.763C188.543 72.8407 188.332 72.7529 188.176 72.5967C188.021 72.4405 187.933 72.2287 187.933 72.0079C187.933 71.787 188.021 71.5751 188.176 71.419C188.332 71.2628 188.543 71.175 188.763 71.175H209.715C209.935 71.175 210.146 71.2628 210.302 71.419C210.457 71.5751 210.545 71.787 210.545 72.0079C210.545 72.2287 210.457 72.4405 210.302 72.5967C210.146 72.7529 209.935 72.8407 209.715 72.8407Z" fill="white"/>
<path d="M252.208 119.755L206.799 114.927L209.805 86.3584L245.806 90.1663L254.222 100.6L252.208 119.755Z" fill="#FFA03E"/>
<path d="M245.126 92.2363L211.327 88.6577L208.795 112.767L250.814 117.208L252.293 103.093L244.074 102.224L245.126 92.2363Z" fill="white"/>
<path d="M240.545 100.993L218.649 98.6754C218.44 98.6164 218.258 98.4849 218.136 98.3042C218.014 98.1236 217.96 97.9055 217.983 97.6886C218.006 97.4717 218.105 97.27 218.262 97.1192C218.419 96.9685 218.624 96.8784 218.841 96.865L240.737 99.1823C240.871 99.1741 241.004 99.1951 241.129 99.2441C241.254 99.2931 241.366 99.3687 241.459 99.4658C241.551 99.5629 241.621 99.679 241.665 99.8061C241.708 99.9333 241.723 100.068 241.709 100.202C241.694 100.335 241.651 100.464 241.582 100.579C241.513 100.694 241.42 100.793 241.31 100.868C241.199 100.944 241.073 100.994 240.941 101.015C240.809 101.037 240.674 101.029 240.545 100.993Z" fill="#FFA03E"/>
<path d="M240.034 105.832L218.144 103.515C218.014 103.517 217.886 103.492 217.767 103.44C217.648 103.389 217.542 103.313 217.454 103.217C217.367 103.121 217.301 103.008 217.26 102.884C217.22 102.761 217.206 102.63 217.22 102.501C217.234 102.371 217.275 102.247 217.34 102.134C217.406 102.022 217.494 101.925 217.599 101.85C217.705 101.775 217.825 101.723 217.952 101.698C218.079 101.673 218.21 101.675 218.336 101.705L240.226 104.022C240.356 104.02 240.484 104.045 240.603 104.097C240.722 104.148 240.829 104.224 240.916 104.32C241.003 104.416 241.069 104.53 241.11 104.653C241.15 104.777 241.164 104.907 241.15 105.036C241.137 105.166 241.096 105.291 241.03 105.403C240.965 105.515 240.876 105.612 240.771 105.687C240.665 105.762 240.545 105.814 240.418 105.839C240.291 105.864 240.16 105.862 240.034 105.832Z" fill="#FFA03E"/>
<path d="M239.505 110.908L217.609 108.59C217.392 108.54 217.201 108.411 217.072 108.228C216.942 108.046 216.884 107.822 216.908 107.6C216.932 107.377 217.036 107.171 217.2 107.02C217.365 106.869 217.578 106.784 217.801 106.78L239.697 109.091C239.831 109.083 239.964 109.104 240.089 109.153C240.214 109.202 240.326 109.278 240.418 109.375C240.511 109.472 240.581 109.588 240.625 109.715C240.668 109.842 240.683 109.977 240.669 110.111C240.654 110.244 240.611 110.373 240.542 110.488C240.473 110.603 240.38 110.702 240.27 110.777C240.159 110.853 240.033 110.903 239.901 110.924C239.769 110.946 239.634 110.938 239.505 110.902V110.908Z" fill="#FFA03E"/>
<path d="M33.8139 181.883H110.6C112.738 181.883 114.472 180.143 114.472 177.996V146.205C114.472 144.059 112.738 142.319 110.6 142.319H33.8139C31.6756 142.319 29.9422 144.059 29.9422 146.205V177.996C29.9422 180.143 31.6756 181.883 33.8139 181.883Z" fill="white" stroke="#6349A0" stroke-miterlimit="10"/>
<path d="M105.075 152.059H39.3511V152.849H105.075V152.059Z" fill="#DFDFFB"/>
<path d="M105.075 161.708H39.3511V162.499H105.075V161.708Z" fill="#DFDFFB"/>
<path d="M105.075 171.358H39.3511V172.148H105.075V171.358Z" fill="#DFDFFB"/>
<path d="M103.969 172.215L104.588 171.726L99.9048 165.8L91.8367 168.564L84.8987 160.996L77.8406 166.705L69.5499 157.394L62.0349 166.102L55.3194 148.655L48.3514 159.644L40.2532 147.919L39.6099 148.372L48.3815 161.063L55.151 150.393L61.7703 167.604L69.562 158.588L77.7504 167.785L84.8206 162.076L91.6082 169.475L99.6343 166.723L103.969 172.215Z" fill="#4F57C7"/>
<path d="M253.351 186.535H162.881C161.438 186.535 160.054 185.96 159.034 184.936C158.013 183.911 157.44 182.522 157.44 181.074V139.011C157.44 137.563 158.013 136.174 159.034 135.15C160.054 134.125 161.438 133.55 162.881 133.55H247.904C249.348 133.55 250.734 134.126 251.755 135.151C252.777 136.177 253.351 137.567 253.351 139.018V186.535Z" fill="#766BC9"/>
<path d="M177.833 158.89H240.707C241.026 158.89 241.332 158.763 241.557 158.536C241.783 158.31 241.909 158.003 241.909 157.683C241.909 157.363 241.783 157.056 241.557 156.83C241.332 156.603 241.026 156.476 240.707 156.476H177.833C177.514 156.476 177.208 156.603 176.983 156.83C176.757 157.056 176.63 157.363 176.63 157.683C176.63 158.003 176.757 158.31 176.983 158.536C177.208 158.763 177.514 158.89 177.833 158.89Z" fill="white"/>
<path d="M216.514 167.767H241.062C241.381 167.767 241.686 167.64 241.912 167.414C242.137 167.188 242.264 166.881 242.264 166.56C242.264 166.24 242.137 165.933 241.912 165.707C241.686 165.481 241.381 165.354 241.062 165.354H216.514C216.196 165.354 215.89 165.481 215.664 165.707C215.439 165.933 215.312 166.24 215.312 166.56C215.312 166.881 215.439 167.188 215.664 167.414C215.89 167.64 216.196 167.767 216.514 167.767Z" fill="white"/>
<path d="M177.833 167.767H210.021C210.34 167.767 210.646 167.64 210.872 167.414C211.097 167.188 211.224 166.881 211.224 166.56C211.224 166.24 211.097 165.933 210.872 165.707C210.646 165.481 210.34 165.354 210.021 165.354H177.833C177.514 165.354 177.208 165.481 176.983 165.707C176.757 165.933 176.63 166.24 176.63 166.56C176.63 166.881 176.757 167.188 176.983 167.414C177.208 167.64 177.514 167.767 177.833 167.767Z" fill="white"/>
<path d="M216.514 176.512H241.062C241.381 176.512 241.686 176.384 241.912 176.158C242.137 175.932 242.264 175.625 242.264 175.305C242.264 174.985 242.137 174.677 241.912 174.451C241.686 174.225 241.381 174.098 241.062 174.098H216.514C216.196 174.098 215.89 174.225 215.664 174.451C215.439 174.677 215.312 174.985 215.312 175.305C215.312 175.625 215.439 175.932 215.664 176.158C215.89 176.384 216.196 176.512 216.514 176.512Z" fill="white"/>
<path d="M177.833 176.512H210.021C210.34 176.512 210.646 176.384 210.872 176.158C211.097 175.932 211.224 175.625 211.224 175.305C211.224 174.985 211.097 174.677 210.872 174.451C210.646 174.225 210.34 174.098 210.021 174.098H177.833C177.514 174.098 177.208 174.225 176.983 174.451C176.757 174.677 176.63 174.985 176.63 175.305C176.63 175.625 176.757 175.932 176.983 176.158C177.208 176.384 177.514 176.512 177.833 176.512Z" fill="white"/>
<path d="M193.368 147.967H240.479C241.153 147.967 241.699 147.419 241.699 146.742C241.699 146.066 241.153 145.517 240.479 145.517H193.368C192.694 145.517 192.148 146.066 192.148 146.742C192.148 147.419 192.694 147.967 193.368 147.967Z" fill="white"/>
<path d="M165.779 84.5178H192.905C197.331 84.5178 200.919 80.9163 200.919 76.4735V38.6838C200.919 34.2411 197.331 30.6395 192.905 30.6395L165.779 30.6395C161.353 30.6395 157.765 34.2411 157.765 38.6838V76.4735C157.765 80.9163 161.353 84.5178 165.779 84.5178Z" fill="white" stroke="#6349A0" stroke-miterlimit="10"/>
<mask id="mask0" style="mask-type:alpha" maskUnits="userSpaceOnUse" x="157" y="30" width="45" height="56">
<path d="M165.779 84.5176H192.905C197.331 84.5176 200.919 80.916 200.919 76.4733V38.6836C200.919 34.2408 197.331 30.6393 192.905 30.6393L165.779 30.6393C161.353 30.6393 157.765 34.2408 157.765 38.6836V76.4733C157.765 80.916 161.353 84.5176 165.779 84.5176Z" fill="white" stroke="#6349A0" stroke-miterlimit="10"/>
</mask>
<g mask="url(#mask0)">
<path d="M201.057 100.045L187.573 101.379C187.573 101.379 186.971 90.2809 187.013 84.9884C187.013 78.5674 187.615 70.3059 188.378 70.505C190.542 71.0119 193.458 72.2249 195.19 74.6267C201.178 82.8944 201.057 100.045 201.057 100.045Z" fill="#CECEF2"/>
<path d="M194.492 83.8599C194.769 85.8152 199.765 139.048 199.765 139.048C175.182 150.864 161.672 141.039 161.672 141.039C161.672 141.039 162.604 103.672 161.672 98.5847C161.071 95.2173 160.332 72.8525 162.508 72.237C165.601 71.2898 168.772 70.6233 171.983 70.2455C174.959 69.9498 186.508 69.805 188.576 70.511C191.759 74.3144 193.809 78.9407 194.492 83.8599Z" fill="#CECEF2"/>
<path d="M144.887 94.7526L156.538 102.664C156.538 102.664 163.151 92.8517 166.705 89.3877C171.141 85.0186 165.153 71.5671 162.298 72.3154C155.913 73.9689 144.887 94.7526 144.887 94.7526Z" fill="#CECEF2"/>
<path d="M175.254 59.3346L173.45 70.4083C173.45 70.4083 180.015 84.5357 183.965 83.3589C187.284 82.3752 185.288 70.2575 185.288 70.2575C185.288 70.2575 183.484 63.746 184.056 60.4932C184.627 57.2405 175.254 59.3346 175.254 59.3346Z" fill="#EEEDF9"/>
<path d="M184.025 60.4932C184.578 57.2405 175.266 59.3346 175.266 59.3346L175.109 60.282C175.345 60.8753 175.685 61.4211 176.113 61.8933C178.304 64.0482 181.208 65.3197 184.272 65.4659C183.946 63.8296 183.863 62.1539 184.025 60.4932Z" fill="#EBEAF9"/>
<path d="M173.793 43.0648C173.528 42.9682 171.64 56.1481 175.127 59.7871C178.614 63.4261 185.438 64.6149 187.897 61.7906C190.614 58.6405 190.524 44.4709 185.095 40.7173C179.667 36.9637 173.793 43.0648 173.793 43.0648Z" fill="#EEEDF9"/>
<path d="M175.091 37.9836C173.186 38.1948 170.582 39.1905 167.877 43.4692C164.564 48.7134 166.981 54.549 170.805 57.4215C174.629 60.2941 174.556 63.5589 174.556 63.5589L175.188 61.8873C175.647 60.6008 175.815 59.2279 175.681 57.8681C175.613 57.0359 175.41 56.2205 175.079 55.4542C174.16 53.5412 177.076 52.2799 177.893 50.6988C178.524 49.4919 178.567 46.6797 179.559 44.6641L180.761 43.1252C180.761 43.1252 183.49 41.0915 186.172 41.6769C188.853 42.2622 185.57 29.7281 175.091 37.9836Z" fill="#B7B7ED"/>
<path d="M177.701 53.0344C177.701 54.6456 176.961 55.9612 175.993 55.9733C175.025 55.9853 174.226 54.6939 174.19 53.0826C174.154 51.4713 174.929 50.1618 175.897 50.1497C176.865 50.1377 177.659 51.4291 177.701 53.0344Z" fill="#EBEAF9"/>
<path d="M183.67 56.5947L188.48 55.6533C188.531 56.2043 188.368 56.7538 188.023 57.1861C187.679 57.6183 187.181 57.8996 186.634 57.9707C184.031 58.544 183.67 56.5947 183.67 56.5947Z" fill="white"/>
</g>
<path d="M165.779 84.5178H192.905C197.331 84.5178 200.919 80.9163 200.919 76.4735V38.6838C200.919 34.2411 197.331 30.6395 192.905 30.6395L165.779 30.6395C161.353 30.6395 157.765 34.2411 157.765 38.6838V76.4735C157.765 80.9163 161.353 84.5178 165.779 84.5178Z" stroke="#6349A0" stroke-miterlimit="10"/>
<path d="M206.402 247.004C212.18 247.004 216.863 242.303 216.863 236.503C216.863 230.704 212.18 226.003 206.402 226.003C200.625 226.003 195.941 230.704 195.941 236.503C195.941 242.303 200.625 247.004 206.402 247.004Z" fill="#EC665A"/>
<path d="M201.184 238.127C201.24 238.181 201.316 238.212 201.394 238.211H203.198C203.236 238.211 203.273 238.204 203.308 238.189C203.343 238.175 203.375 238.154 203.402 238.127C203.455 238.069 203.485 237.994 203.486 237.915V237.312C203.498 236.995 203.587 236.686 203.746 236.412C203.906 236.138 204.13 235.908 204.4 235.743C205.006 235.36 205.707 235.157 206.423 235.157C207.139 235.157 207.84 235.36 208.446 235.743C208.715 235.909 208.939 236.139 209.097 236.413C209.256 236.686 209.344 236.995 209.354 237.312V237.915C209.354 237.955 209.362 237.994 209.378 238.03C209.393 238.067 209.416 238.099 209.444 238.127C209.471 238.154 209.503 238.175 209.538 238.189C209.573 238.204 209.611 238.211 209.649 238.211H211.452C211.53 238.211 211.605 238.18 211.661 238.125C211.716 238.069 211.747 237.994 211.747 237.915V237.312C211.704 236.817 211.54 236.341 211.269 235.925C210.998 235.509 210.63 235.167 210.196 234.928C209.067 234.226 207.766 233.854 206.438 233.854C205.111 233.854 203.809 234.226 202.681 234.928C202.248 235.168 201.88 235.51 201.611 235.926C201.341 236.342 201.178 236.818 201.135 237.312V237.915C201.136 237.994 201.166 238.069 201.22 238.127H201.184ZM211.404 234.94C211.606 235.143 211.788 235.365 211.945 235.604C212.283 236.103 212.468 236.691 212.474 237.294V237.897C212.474 238.177 212.363 238.446 212.166 238.644C211.969 238.842 211.701 238.953 211.422 238.953H209.619C209.481 238.954 209.345 238.927 209.218 238.874C209.091 238.821 208.976 238.744 208.879 238.646C208.781 238.548 208.702 238.431 208.648 238.303C208.595 238.174 208.567 238.037 208.567 237.897V237.294C208.553 237.099 208.49 236.911 208.385 236.746C208.28 236.582 208.136 236.447 207.965 236.352C207.488 236.054 206.937 235.896 206.375 235.896C205.813 235.896 205.262 236.054 204.785 236.352C204.617 236.449 204.474 236.585 204.369 236.749C204.264 236.913 204.201 237.1 204.184 237.294V237.897C204.185 238.036 204.158 238.173 204.106 238.301C204.053 238.429 203.977 238.546 203.879 238.644C203.782 238.742 203.667 238.82 203.539 238.873C203.412 238.926 203.275 238.953 203.137 238.953H201.334C201.195 238.954 201.058 238.927 200.93 238.875C200.802 238.822 200.686 238.744 200.588 238.646C200.49 238.548 200.413 238.431 200.36 238.302C200.308 238.174 200.281 238.036 200.282 237.897V237.294C200.286 236.69 200.47 236.102 200.811 235.604C201.17 235.075 201.633 234.623 202.17 234.277C203.422 233.491 204.868 233.075 206.345 233.075C207.821 233.075 209.268 233.491 210.52 234.277C210.813 234.472 211.087 234.694 211.338 234.94H211.404Z" fill="white"/>
<path d="M256.423 213.867H283.549C287.975 213.867 291.563 210.265 291.563 205.822V168.033C291.563 163.59 287.975 159.988 283.549 159.988H256.423C251.997 159.988 248.409 163.59 248.409 168.033V205.822C248.409 210.265 251.997 213.867 256.423 213.867Z" fill="#F6F5FF" stroke="#6349A0" stroke-miterlimit="10"/>
<mask id="mask1" style="mask-type:alpha" maskUnits="userSpaceOnUse" x="248" y="159" width="45" height="55">
<path d="M257.08 212.859H283.699C288.043 212.859 291.563 209.325 291.563 204.965V167.882C291.563 163.523 288.043 159.988 283.699 159.988H257.08C252.737 159.988 249.216 163.523 249.216 167.882V204.965C249.216 209.325 252.737 212.859 257.08 212.859Z" fill="#F6F5FF" stroke="#6349A0" stroke-miterlimit="10"/>
</mask>
<g mask="url(#mask1)">
<path d="M288.785 220.895L277.528 222.079C277.528 222.079 277.015 212.817 277.015 208.4C277.015 203.07 277.47 196.136 278.113 196.284C279.924 196.704 282.36 197.705 283.811 199.706C288.832 206.576 288.785 220.895 288.785 220.895Z" fill="#F7A09C"/>
<path d="M256.16 223.607C256.144 222.337 256.051 221.07 255.883 219.811C255.352 217.004 254.703 198.333 256.502 197.812C259.082 197.014 261.728 196.449 264.408 196.124C266.891 195.869 276.537 195.715 278.26 196.296C280.932 199.461 282.664 203.317 283.257 207.423C283.345 208.062 284.053 215.163 284.891 223.607H256.16Z" fill="#EC665A"/>
<path d="M241.871 216.643L251.623 223.216C251.623 223.216 257.116 215.003 260.065 212.083C263.764 208.424 258.72 197.208 256.343 197.841C251.015 199.28 241.871 216.643 241.871 216.643Z" fill="#F7A09C"/>
<path d="M273.239 167.557C273.239 167.557 269.9 164.004 267.21 168.321C266.615 167.993 265.918 167.905 265.26 168.074C264.603 168.244 264.035 168.658 263.67 169.233C263.67 169.233 259.93 168.101 259.021 173.715C259.021 173.715 257.098 173.348 256.844 175.646C256.683 176.989 257.005 178.346 257.753 179.471C257.753 179.471 256.673 180.289 257.163 182.397C257.25 182.888 257.476 183.344 257.812 183.711C258.149 184.078 258.583 184.341 259.063 184.47C259.063 184.47 259.458 187.496 260.767 188.402C261.699 188.946 262.802 189.116 263.853 188.875C263.853 188.875 264.325 190.516 265.853 190.374C267.381 190.232 269.263 188.769 270.968 189.426C272.673 190.083 277.133 189.402 277.133 189.402C277.133 189.402 282.106 187.176 280.614 182.071C280.614 182.071 283.233 179.702 280.944 176.86C280.944 176.86 282.614 172.413 279.31 169.789C276.006 167.166 273.239 167.557 273.239 167.557Z" fill="#1A1A1A"/>
<path d="M272.673 191.558L273.263 196.064C273.263 196.064 274.614 202.578 272.874 203.798C271.133 205.018 265.464 195.875 265.464 195.875L266.054 184.463L272.673 191.558Z" fill="#F5BD9B"/>
<path d="M265.883 188.165C267.322 192.055 270.756 194.448 273.186 195.378L272.673 191.558L266.077 184.452L265.883 188.165Z" fill="#E47B60"/>
<path d="M256.803 176.712C256.803 178.447 257.788 179.857 259.003 179.857C260.219 179.857 261.204 178.447 261.204 176.712C261.204 174.977 260.219 173.562 259.003 173.562C257.788 173.562 256.803 174.971 256.803 176.712Z" fill="#1A1A1A"/>
<path d="M266.077 171.755C267.557 171.755 268.756 170.947 268.756 169.949C268.756 168.952 267.557 168.143 266.077 168.143C264.598 168.143 263.399 168.952 263.399 169.949C263.399 170.947 264.598 171.755 266.077 171.755Z" fill="#1A1A1A"/>
<path d="M270.107 172.478C270.936 172.197 271.817 172.102 272.687 172.2C273.557 172.297 274.395 172.584 275.143 173.041C275.891 173.499 276.53 174.114 277.015 174.846C277.501 175.577 277.821 176.406 277.953 177.275C278.239 179.187 278.401 181.115 278.437 183.048C278.531 188.313 275.823 193.429 273.44 193.429C271.057 193.429 264.484 190.024 264.248 182.557C264.101 177.95 266.396 173.757 270.107 172.478Z" fill="#F5BD9B"/>
<path d="M266 183.149C266 184.334 265.233 185.251 264.289 185.251C263.346 185.251 262.579 184.31 262.579 183.149C262.579 181.988 263.346 181.047 264.289 181.047C265.233 181.047 266 181.988 266 183.149Z" fill="#F5BD9B"/>
<path d="M280.413 169.86C282.874 171.815 283.735 174.781 282.337 176.493C280.938 178.204 277.818 178.003 275.363 176.049C272.909 174.094 272.042 171.122 273.44 169.416C274.838 167.711 277.959 167.906 280.413 169.86Z" fill="#1A1A1A"/>
<path d="M273.988 171.465C273.988 172.312 272.968 172.999 271.705 172.999C270.443 172.999 269.422 172.312 269.422 171.465C269.422 170.618 270.449 169.925 271.705 169.925C272.962 169.925 273.988 170.612 273.988 171.465Z" fill="#1A1A1A"/>
<path d="M280.779 177.997C280.774 178.382 280.656 178.758 280.439 179.076C280.223 179.394 279.917 179.641 279.561 179.785C279.205 179.93 278.814 179.965 278.438 179.887C278.062 179.809 277.717 179.621 277.447 179.347C277.177 179.072 276.994 178.724 276.921 178.346C276.848 177.967 276.888 177.576 277.036 177.22C277.184 176.864 277.433 176.56 277.753 176.347C278.072 176.133 278.448 176.019 278.832 176.019C279.089 176.021 279.344 176.073 279.581 176.173C279.818 176.273 280.033 176.42 280.214 176.603C280.394 176.787 280.537 177.005 280.634 177.244C280.731 177.483 280.781 177.739 280.779 177.997Z" fill="#1A1A1A"/>
<path d="M275.953 187.655L271.298 187.845C271.365 188.374 271.635 188.855 272.05 189.187C272.466 189.519 272.994 189.675 273.522 189.621C276.006 189.562 275.953 187.655 275.953 187.655Z" fill="#EFFAFD"/>
</g>
<path d="M57.6702 42.2383H32.167C27.2927 42.2383 23.3413 46.2046 23.3413 51.0973V87.2576C23.3413 92.1503 27.2927 96.1166 32.167 96.1166H57.6702C62.5445 96.1166 66.4959 92.1503 66.4959 87.2576V51.0973C66.4959 46.2046 62.5445 42.2383 57.6702 42.2383Z" stroke="#6349A0" stroke-miterlimit="10"/>
<path d="M57.6697 42.2383H32.1665C27.2922 42.2383 23.3408 46.2046 23.3408 51.0973V87.2576C23.3408 92.1503 27.2922 96.1166 32.1665 96.1166H57.6697C62.544 96.1166 66.4954 92.1503 66.4954 87.2576V51.0973C66.4954 46.2046 62.544 42.2383 57.6697 42.2383Z" fill="white" stroke="#6349A0" stroke-miterlimit="10"/>
<mask id="mask2" style="mask-type:alpha" maskUnits="userSpaceOnUse" x="22" y="41" width="45" height="56">
<path d="M58.4813 42.2383H31.3549C26.9288 42.2383 23.3408 45.8399 23.3408 50.2826V88.0723C23.3408 92.515 26.9288 96.1166 31.3549 96.1166H58.4813C62.9074 96.1166 66.4954 92.515 66.4954 88.0723V50.2826C66.4954 45.8399 62.9074 42.2383 58.4813 42.2383Z" fill="#F6F5FF" stroke="#6349A0" stroke-miterlimit="10"/>
</mask>
<g mask="url(#mask2)">
<path d="M58.103 65.6833C58.0736 61.6402 57.0404 57.6683 55.097 54.1268C53.3475 51.0128 49.4216 49.4438 45.9466 49.6731C34.9265 50.3973 34.5238 65.104 27.8564 71.2112C25.8244 73.0759 23.5217 74.6389 21.6158 76.6425C14.5817 84.0049 18.8023 96.4787 26.0769 102.031C31.127 105.887 38.7803 107.758 44.4496 104.101C47.4076 102.194 49.548 99.2064 51.0029 95.9899C53.065 91.4336 54.2493 86.2558 55.6141 81.4522C57.087 76.3226 58.2353 71.0241 58.103 65.6833Z" fill="black"/>
<path d="M41.8403 78.6279C41.8403 78.6279 31.8903 79.684 29.251 82.4781L35.7139 117.649C35.7139 117.649 47.9847 119.459 55.8124 116.78C55.8124 116.78 60.2192 88.5853 56.2512 81.6755C54.9286 79.3702 48.8985 79.2616 48.8985 79.2616L41.8403 78.6279Z" fill="#F9C941"/>
<path d="M88.8784 64.0117C88.5117 63.2332 85.2712 65.5385 84.5137 65.0979C83.7562 64.6574 87.4416 60.9641 87.0688 60.3124C86.3834 59.1054 82.8182 64.1203 82.4695 63.5892C82.1208 63.0582 85.5417 57.7295 84.3213 57.4338C83.1008 57.1381 81.3453 63.3358 80.714 62.9375C80.0827 62.5392 82.8544 57.3252 81.676 56.263C81.0387 55.6958 78.0687 65.7799 76.9805 66.1963C75.8924 66.6126 74.6779 62.2133 73.6619 62.3883C72.6458 62.5633 76.9985 70.487 76.7881 71.1025C76.5777 71.7181 72.5797 84.6566 70.229 88.5671C68.8102 87.8852 67.4334 87.2032 66.1167 86.5334C65.5877 89.5507 64.3672 92.1578 63.6758 95.1027C68.2449 97.1183 73.4815 99.1158 74.8041 98.627C78.8442 97.1364 80.8162 77.445 81.4896 73.7759C82.1629 70.1068 83.8643 69.3766 84.8502 67.4455C85.8362 65.5143 89.2452 64.7902 88.8784 64.0117Z" fill="#F5BD9B"/>
<path d="M54.2008 80.3718L48.333 87.4325C48.333 87.4325 56.7499 93.1293 64.3251 96.4846C65.0225 93.5397 66.7299 88.9231 67.265 85.9238C63.0219 83.8189 58.6597 81.9651 54.2008 80.3718Z" fill="#F9C941"/>
<path d="M0.302837 63.2876C0.669573 62.5031 3.94014 64.8144 4.6676 64.3738C5.39506 63.9333 1.72168 60.2159 2.10646 59.6124C2.79784 58.4055 6.35693 63.4203 6.71164 62.8893C7.06635 62.3582 3.63958 57.0295 4.86003 56.7338C6.08048 56.4381 7.86606 62.6358 8.46727 62.2375C9.06847 61.8392 6.3209 56.6252 7.50528 55.5631C8.13654 54.9958 11.1125 65.0799 12.2007 65.4963C13.2889 65.9127 14.4974 61.5134 15.5194 61.6884C16.5415 61.8634 12.1827 69.787 12.3932 70.4026C12.6036 71.0181 16.6016 83.9566 18.9523 87.8671C20.3651 87.1852 21.7479 86.5033 23.0646 85.8334C23.5936 88.8508 25.0064 91.6751 25.7038 94.62C21.1346 96.6357 15.6997 98.4159 14.371 97.9271C10.3309 96.4305 8.35903 76.7451 7.69169 73.076C7.02435 69.4068 5.28681 68.6766 4.33089 66.7455C3.37497 64.8144 -0.0759232 64.0661 0.302837 63.2876Z" fill="#F5BD9B"/>
<path d="M35.4555 79.7563L36.5136 95.7424C36.5136 95.7424 32.4195 92.4052 24.8383 95.7424C24.1469 92.7974 22.4334 88.1809 21.9043 85.1816C26.2845 83.046 30.8135 81.2328 35.4555 79.7563Z" fill="#F9C941"/>
<path d="M42.3331 68.2361C42.3331 68.2361 42.3332 68.4594 42.261 68.8396C42.0506 70.65 41.1547 76.7632 40.3912 78.4952C39.4713 80.5591 44.5516 86.6059 48.9885 85.5317C50.3051 85.2119 47.4675 79.7625 47.5517 79.159C47.702 78.0064 47.9063 76.4313 48.1107 74.82C48.231 73.9088 48.3513 73.0096 48.4595 72.1225C48.7781 69.6543 49.0607 67.6387 49.0607 67.6387L42.3331 68.2361Z" fill="#F5BD9B"/>
<path d="M42.0746 70.3L42.1408 69.6965L48.8502 69.093C48.8502 69.093 48.5917 71.1086 48.249 73.5708C48.1348 74.4338 48.0205 75.3511 47.9002 76.2563C46.6847 76.1241 45.5337 75.6397 44.5876 74.8622C43.4011 73.9598 42.4704 72.7615 41.8882 71.3862C41.9663 70.9397 42.0385 70.5836 42.0746 70.3Z" fill="#E47B60"/>
<path d="M45.9584 52.7871C44.9216 52.7768 43.8978 53.0177 42.9736 53.4894C42.0494 53.9612 41.2523 54.6497 40.6498 55.4967C38.7259 58.3632 37.0425 66.9627 42.5496 71.187C48.0566 75.4114 52.9083 69.8835 53.3111 64.3315C53.7139 58.7796 53.5636 52.081 45.9584 52.7871Z" fill="#F5BD9B"/>
<path d="M54.8504 64.1445C54.3093 65.3997 53.3053 66.148 52.6079 65.8041C51.9105 65.4601 51.7963 64.1686 52.3374 62.9134C52.8785 61.6582 53.8825 60.9099 54.5799 61.2539C55.2773 61.5978 55.3915 62.8893 54.8504 64.1445Z" fill="#F5BD9B"/>
<path d="M46.277 51.8638C46.277 51.8638 42.3211 60.1857 39.1347 60.7711C35.9484 61.3565 35.8101 65.6472 35.8101 65.6472C35.8101 65.6472 36.309 55.7441 39.3631 53.638C42.4173 51.5319 46.277 51.8638 46.277 51.8638Z" fill="black"/>
<path d="M40.1084 62.7262C40.4691 64.1323 40.0303 65.4781 39.1345 65.7436C38.2387 66.0092 37.2227 65.0496 36.868 63.6435C36.5132 62.2374 36.946 60.8977 37.8418 60.6261C38.7376 60.3546 39.7537 61.3201 40.1084 62.7262Z" fill="#F5BD9B"/>
<path d="M49.3194 67.3369L44.1489 66.9507C44.1645 67.5394 44.4069 68.0992 44.8251 68.5122C45.2434 68.9252 45.8047 69.1594 46.3914 69.1654C49.157 69.4491 49.3194 67.3369 49.3194 67.3369Z" fill="#EFFAFD"/>
</g>
<path d="M57.6697 42.2383H32.1665C27.2922 42.2383 23.3408 46.2046 23.3408 51.0973V87.2576C23.3408 92.1503 27.2922 96.1166 32.1665 96.1166H57.6697C62.544 96.1166 66.4954 92.1503 66.4954 87.2576V51.0973C66.4954 46.2046 62.544 42.2383 57.6697 42.2383Z" stroke="#6349A0" stroke-miterlimit="10"/>
<path d="M124.276 84.4484L94.9395 78.7563L88.1016 114.265L117.439 119.957L124.276 84.4484Z" fill="#CECEF2"/>
<path d="M118.139 99.6048L102.586 96.5874C102.386 96.549 102.21 96.4327 102.097 96.2641C101.983 96.0954 101.94 95.8883 101.979 95.6882C102.017 95.4882 102.133 95.3116 102.301 95.1973C102.469 95.0829 102.675 95.0403 102.874 95.0787L118.428 98.0961C118.627 98.1345 118.803 98.2508 118.917 98.4195C119.031 98.5881 119.073 98.7952 119.035 98.9953C118.996 99.1954 118.881 99.372 118.713 99.4863C118.545 99.6006 118.338 99.6432 118.139 99.6048Z" fill="white"/>
<path d="M117.382 103.509L101.828 100.492C101.629 100.453 101.453 100.337 101.339 100.168C101.225 99.9997 101.183 99.7926 101.221 99.5925C101.26 99.3925 101.375 99.2159 101.543 99.1015C101.711 98.9872 101.918 98.9446 102.117 98.983L117.67 102C117.869 102.039 118.046 102.155 118.159 102.324C118.273 102.492 118.316 102.7 118.277 102.9C118.239 103.1 118.123 103.276 117.955 103.391C117.787 103.505 117.581 103.547 117.382 103.509Z" fill="white"/>
<path d="M116.612 107.522L101.053 104.505C100.861 104.458 100.693 104.339 100.587 104.171C100.48 104.004 100.441 103.802 100.479 103.606C100.517 103.411 100.629 103.238 100.79 103.124C100.952 103.009 101.152 102.961 101.348 102.99L116.901 106.008C117.091 106.056 117.256 106.176 117.361 106.342C117.466 106.508 117.504 106.708 117.467 106.902C117.431 107.095 117.322 107.267 117.163 107.382C117.004 107.498 116.807 107.548 116.612 107.522Z" fill="white"/>
<path d="M107.606 83.329C107.559 83.5789 107.438 83.809 107.261 83.9903C107.083 84.1715 106.856 84.2958 106.608 84.3473C106.359 84.3989 106.102 84.3754 105.867 84.2798C105.632 84.1843 105.431 84.0209 105.288 83.8105C105.146 83.6 105.069 83.352 105.067 83.0976C105.066 82.8433 105.139 82.5942 105.278 82.3817C105.418 82.1693 105.617 82.0032 105.85 81.9043C106.084 81.8054 106.341 81.7783 106.59 81.8264C106.923 81.8907 107.217 82.085 107.408 82.3668C107.598 82.6485 107.669 82.9945 107.606 83.329Z" fill="#B7B7ED"/>
<path d="M165.382 184.749C165.383 185.836 165.063 186.898 164.463 187.802C163.862 188.706 163.008 189.411 162.009 189.827C161.009 190.244 159.909 190.353 158.847 190.142C157.786 189.931 156.81 189.408 156.044 188.641C155.279 187.873 154.757 186.894 154.546 185.829C154.334 184.763 154.442 183.659 154.856 182.655C155.27 181.651 155.971 180.793 156.871 180.19C157.771 179.586 158.829 179.264 159.911 179.264C161.361 179.264 162.751 179.841 163.777 180.87C164.803 181.899 165.38 183.294 165.382 184.749Z" fill="#5ABC3F"/>
<path d="M159.37 186.626C159.333 186.627 159.296 186.619 159.263 186.604C159.229 186.588 159.2 186.564 159.177 186.535L157.692 184.846C157.664 184.82 157.64 184.789 157.625 184.754C157.609 184.718 157.601 184.68 157.601 184.642C157.601 184.603 157.609 184.565 157.625 184.53C157.64 184.495 157.664 184.463 157.692 184.438C157.721 184.412 157.755 184.393 157.792 184.382C157.829 184.371 157.867 184.367 157.905 184.372C157.944 184.377 157.98 184.39 158.013 184.41C158.046 184.431 158.074 184.458 158.095 184.489L159.394 185.968L162.364 183.053C162.389 183.029 162.418 183.009 162.45 182.996C162.483 182.983 162.517 182.976 162.552 182.977C162.587 182.977 162.622 182.984 162.654 182.998C162.686 183.011 162.715 183.031 162.74 183.056C162.764 183.081 162.783 183.111 162.796 183.143C162.809 183.176 162.816 183.21 162.816 183.245C162.816 183.28 162.808 183.315 162.795 183.347C162.781 183.38 162.761 183.409 162.737 183.433L159.562 186.553C159.537 186.578 159.507 186.597 159.473 186.61C159.44 186.622 159.405 186.627 159.37 186.626Z" fill="white"/>
</g>
<defs>
<clipPath id="clip0">
<rect width="316" height="266" fill="white" transform="translate(0.260742 0.586426)"/>
</clipPath>
</defs>
</svg>
