<svg width="62" height="63" viewBox="0 0 62 63" fill="none" xmlns="http://www.w3.org/2000/svg">
<circle cx="31" cy="31.344" r="31" fill="#6945A5"/>
<path d="M41.5 31.344V22.594C41.5 22.1299 41.3156 21.6847 40.9874 21.3566C40.6592 21.0284 40.2141 20.844 39.75 20.844H22.25C21.7859 20.844 21.3408 21.0284 21.0126 21.3566C20.6844 21.6847 20.5 22.1299 20.5 22.594V40.094C20.5 40.5581 20.6844 41.0032 21.0126 41.3314C21.3408 41.6596 21.7859 41.844 22.25 41.844H31" stroke="white" stroke-width="2" stroke-linecap="round" stroke-linejoin="round"/>
<path d="M39.7793 36.594V42.4273" stroke="white" stroke-width="2" stroke-linecap="round" stroke-linejoin="round"/>
<path d="M42.6668 39.4815H36.8335" stroke="white" stroke-width="2" stroke-linecap="round" stroke-linejoin="round"/>
<path d="M31.0002 30.7606C32.611 30.7606 33.9168 29.4548 33.9168 27.844C33.9168 26.2331 32.611 24.9273 31.0002 24.9273C29.3893 24.9273 28.0835 26.2331 28.0835 27.844C28.0835 29.4548 29.3893 30.7606 31.0002 30.7606Z" stroke="white" stroke-width="2" stroke-linecap="round" stroke-linejoin="round"/>
<path d="M36.25 35.4273C36.25 32.8502 33.8992 30.7607 31 30.7607C28.1008 30.7607 25.75 32.8502 25.75 35.4273" stroke="white" stroke-width="2" stroke-linecap="round" stroke-linejoin="round"/>
</svg>
