<svg width="82" height="82" viewBox="0 0 82 82" fill="none" xmlns="http://www.w3.org/2000/svg">
<circle cx="40.752" cy="40.7327" r="40.5" fill="#6945A5"/>
<path d="M64.5212 44.9433C63.6652 43.6855 61.9415 43.3525 60.6797 44.2005L54.937 48.0438L54.9203 36.081L56.9154 37.95C57.3396 38.3473 57.8928 38.566 58.4736 38.566C58.4746 38.566 58.4759 38.566 58.477 38.566C59.104 38.5651 59.7094 38.3023 60.138 37.8449C60.5543 37.4004 60.7727 36.8205 60.7529 36.2118C60.733 35.603 60.4772 35.0385 60.0328 34.6222L56.2504 31.0789C55.9915 30.8364 55.585 30.8496 55.3425 31.1086C55.1 31.3675 55.1133 31.7739 55.3721 32.0165L59.1545 35.5597C59.3485 35.7415 59.4602 35.9879 59.4689 36.2536C59.4775 36.5193 59.3822 36.7725 59.2004 36.9665C59.0105 37.1692 58.753 37.281 58.4751 37.2813C58.4746 37.2813 58.4741 37.2813 58.4736 37.2813C58.2202 37.2813 57.9788 37.1859 57.7936 37.0124C57.7935 37.0123 57.7935 37.0123 57.7935 37.0123L42.7746 22.9428C42.5271 22.7111 42.1419 22.7114 41.8951 22.9441L26.9151 37.0556C26.7217 37.2379 26.4687 37.3333 26.203 37.326C25.9372 37.318 25.6905 37.207 25.5082 37.0134C25.3259 36.82 25.2298 36.567 25.2378 36.3013C25.2458 36.0355 25.3568 35.7888 25.5502 35.6065L41.6497 20.4403C42.0314 20.0808 42.6301 20.0799 43.0127 20.4385L52.4316 29.262C52.6905 29.5045 53.097 29.4913 53.3396 29.2324C53.582 28.9734 53.5688 28.567 53.3099 28.3245L43.891 19.5009C43.0145 18.6797 41.6432 18.6815 40.7689 19.5052L35.6151 24.3603L35.6137 23.4943C35.6133 23.2213 35.5066 22.9649 35.3134 22.7722C35.1204 22.5798 34.8643 22.4739 34.5919 22.4739C34.5913 22.4739 34.5909 22.4739 34.5904 22.4739L30.9036 22.4791C30.6306 22.4795 30.3743 22.5862 30.1815 22.7794C29.9889 22.9727 29.8829 23.2294 29.8833 23.5025L29.8935 29.7504L24.6694 34.6717C24.226 35.0892 23.972 35.6544 23.9538 36.2632C23.9356 36.8719 24.1556 37.4513 24.5731 37.8944C24.9906 38.3377 25.5558 38.5919 26.1646 38.6101C26.1879 38.6108 26.2112 38.6112 26.2345 38.6112C26.8177 38.6112 27.3699 38.3923 27.7961 37.9907L29.7867 36.1154L29.7946 41.766C29.1506 41.6722 28.4989 41.623 27.8443 41.623H26.7453V41.2379C26.7453 39.9449 25.6933 38.893 24.4003 38.893H22.3449C21.052 38.8929 20 39.9447 20 41.2378V51.3028C20 51.6576 20.2876 51.9451 20.6423 51.9451C20.997 51.9451 21.2846 51.6576 21.2846 51.3028V41.2378C21.2846 40.6531 21.7603 40.1775 22.3449 40.1775H24.4002C24.9849 40.1775 25.4606 40.6531 25.4606 41.2378V42.2652V55.4309V56.4482C25.4606 57.0329 24.9849 57.5085 24.4002 57.5085H22.3449C21.7603 57.5085 21.2846 57.0329 21.2846 56.4482V55.3243C21.2846 54.9696 20.997 54.682 20.6423 54.682C20.2876 54.682 20 54.9696 20 55.3243V56.4482C20 57.7412 21.052 58.7931 22.3449 58.7931H24.4002C25.6932 58.7931 26.7452 57.7413 26.7452 56.4482V56.361L36.1516 59.923C36.169 59.9296 36.1866 59.9354 36.2046 59.9404C36.6135 60.0559 37.0223 60.1138 37.4259 60.1138C37.6442 60.1138 37.861 60.0968 38.0757 60.0629L51.8992 58.0702C51.9025 58.0698 51.9056 58.0693 51.9089 58.0688C53.0841 57.8811 54.1929 57.3843 55.1151 56.6321C55.1231 56.6256 55.131 56.6188 55.1387 56.6119L64.0693 48.5797C65.1093 47.6564 65.3035 46.0931 64.5212 44.9433ZM34.3294 23.759L34.3324 25.5686L31.1761 28.542L31.1683 23.7633L34.3294 23.759ZM42.3366 24.2928L53.6339 34.8759L53.6535 48.9026L51.835 50.1197L49.9092 50.0117L49.8583 49.5002C49.6791 47.6986 48.3491 46.2494 46.5905 45.9035L46.5789 37.5588C46.578 36.9184 46.0567 36.398 45.4164 36.398C45.4159 36.398 45.4154 36.398 45.4148 36.398L39.2929 36.4066C38.9824 36.4071 38.6906 36.5283 38.4714 36.7482C38.2521 36.9681 38.1316 37.2602 38.132 37.5706L38.1422 44.8463C36.9296 44.5691 35.7717 44.1113 34.6892 43.478C34.5541 43.399 34.4177 43.3227 34.2801 43.2485C34.2265 43.2196 34.172 43.1925 34.118 43.1643C34.0343 43.1206 33.9508 43.0766 33.8662 43.0347C33.7989 43.0013 33.7308 42.9697 33.6629 42.9374C33.591 42.9032 33.5191 42.8687 33.4466 42.8357C33.3727 42.8022 33.2983 42.7703 33.2239 42.7382C33.156 42.7088 33.0881 42.6793 33.0197 42.6511C32.9432 42.6195 32.8663 42.5892 32.7893 42.559C32.721 42.5323 32.6526 42.5058 32.584 42.4801C32.5078 42.4516 32.4313 42.4241 32.3545 42.3972C32.2825 42.3718 32.2105 42.347 32.138 42.3228C32.0646 42.2983 31.9909 42.2743 31.9169 42.251C31.8381 42.2261 31.7589 42.2024 31.6796 42.1789C31.6115 42.1589 31.5435 42.1388 31.475 42.1199C31.3856 42.095 31.2958 42.0717 31.2059 42.0487C31.1638 42.0379 31.1219 42.0256 31.0796 42.0152L31.0696 34.9068L42.3366 24.2928ZM45.3057 45.7428L39.9334 45.1243L39.4273 45.066L39.4169 37.691L45.2945 37.6828L45.3057 45.7428ZM63.2134 47.622L54.2916 55.6462C53.5481 56.2491 52.6563 56.6478 51.711 56.7995L37.8935 58.7913C37.8906 58.7917 37.8878 58.7922 37.8849 58.7926L37.8753 58.7941C37.4567 58.8604 37.0207 58.8324 36.5794 58.7113L26.7453 54.9872V42.9075H27.8443C28.7799 42.9075 29.7092 43.0155 30.6141 43.2253C30.6478 43.2332 30.6813 43.2412 30.7149 43.2493C30.8261 43.2761 30.937 43.3037 31.0474 43.3335C31.0571 43.3362 31.0667 43.339 31.0763 43.3416C31.187 43.3719 31.2972 43.4038 31.4071 43.4371C31.4267 43.4431 31.4465 43.4489 31.4661 43.455C31.583 43.4911 31.6994 43.5288 31.8151 43.5684C31.8271 43.5725 31.839 43.5767 31.8509 43.5809C32.092 43.6641 32.3307 43.7549 32.5664 43.8531C32.5793 43.8585 32.5921 43.8639 32.6049 43.8693C32.7224 43.9187 32.8392 43.9698 32.9553 44.0229C32.9583 44.0243 32.9615 44.0258 32.9646 44.0273C33.0767 44.0788 33.1881 44.1322 33.2987 44.1871C33.3117 44.1935 33.3248 44.1999 33.3378 44.2064C33.4459 44.2604 33.5532 44.3164 33.6598 44.3737C33.6799 44.3845 33.7 44.3956 33.7201 44.4065C33.8277 44.4651 33.9346 44.5249 34.0405 44.5869C35.569 45.481 37.233 46.0601 38.9862 46.3082C38.9918 46.309 38.9972 46.3097 39.0027 46.3103L46.1993 47.1388C46.2391 47.1446 46.2787 47.1512 46.318 47.1585C47.3774 47.3575 48.2136 48.1404 48.4934 49.1598C48.5348 49.3108 48.564 49.4671 48.58 49.6273L48.6086 49.9147L35.1209 48.733C34.7677 48.7022 34.4559 48.9635 34.425 49.3168C34.3939 49.6702 34.6554 49.9818 35.0087 50.0127L49.2683 51.2621C49.2717 51.2623 49.275 51.2622 49.2784 51.2625C49.2817 51.2628 49.285 51.2633 49.2884 51.2636L51.9776 51.4145C51.9896 51.4152 52.0016 51.4154 52.0135 51.4154C52.0263 51.4154 52.0389 51.4134 52.0515 51.4126C52.0658 51.4117 52.0802 51.4112 52.0944 51.4095C52.1136 51.407 52.1323 51.4029 52.1511 51.3987C52.1645 51.3957 52.1781 51.3936 52.1913 51.3897C52.2118 51.3838 52.2316 51.3758 52.2516 51.3678C52.2623 51.3635 52.2733 51.3602 52.2839 51.3553C52.3139 51.3414 52.343 51.3254 52.3708 51.3068L54.6535 49.7792C54.6536 49.7791 54.6537 49.779 54.6538 49.7789L61.3952 45.2673C62.0734 44.8114 62.9993 44.9903 63.459 45.666C63.8793 46.2835 63.775 47.1233 63.2134 47.622Z" fill="white"/>
</svg>
