<svg width="62" height="63" viewBox="0 0 62 63" fill="none" xmlns="http://www.w3.org/2000/svg">
<circle cx="31" cy="31.5708" r="31" fill="#6945A5"/>
<path d="M43.5002 42.5L38.2665 37.257L43.5002 42.5ZM41.1668 30.25C41.1668 32.8801 40.122 35.4024 38.2623 37.2621C36.4026 39.1219 33.8802 40.1667 31.2502 40.1667C28.6201 40.1667 26.0978 39.1219 24.238 37.2621C22.3783 35.4024 21.3335 32.8801 21.3335 30.25C21.3335 27.6199 22.3783 25.0976 24.238 23.2379C26.0978 21.3781 28.6201 20.3333 31.2502 20.3333C33.8802 20.3333 36.4026 21.3781 38.2623 23.2379C40.122 25.0976 41.1668 27.6199 41.1668 30.25V30.25Z" stroke="white" stroke-width="2" stroke-linecap="round"/>
</svg>
