<svg width="62" height="63" viewBox="0 0 62 63" fill="none" xmlns="http://www.w3.org/2000/svg">
<circle cx="31" cy="31.8945" r="31" fill="#6945A5"/>
<path d="M30.9998 17.9919C23.6478 17.9919 17.6665 23.9733 17.6665 31.3253V36.8493C17.6665 38.2146 18.8625 39.3253 20.3332 39.3253H21.6665C22.0201 39.3253 22.3593 39.1848 22.6093 38.9348C22.8594 38.6847 22.9998 38.3456 22.9998 37.9919V31.1346C22.9998 30.781 22.8594 30.4418 22.6093 30.1918C22.3593 29.9418 22.0201 29.8013 21.6665 29.8013H20.4558C21.1972 24.6413 25.6372 20.6586 30.9998 20.6586C36.3625 20.6586 40.8025 24.6413 41.5438 29.8013H40.3332C39.9795 29.8013 39.6404 29.9418 39.3904 30.1918C39.1403 30.4418 38.9998 30.781 38.9998 31.1346V39.3253C38.9998 40.7959 37.8038 41.9919 36.3332 41.9919H33.6665V40.6586H28.3332V44.6586H36.3332C39.2745 44.6586 41.6665 42.2666 41.6665 39.3253C43.1372 39.3253 44.3332 38.2146 44.3332 36.8493V31.3253C44.3332 23.9733 38.3518 17.9919 30.9998 17.9919Z" fill="white"/>
</svg>
