<svg width="62" height="63" viewBox="0 0 62 63" fill="none" xmlns="http://www.w3.org/2000/svg">
<circle cx="31" cy="31.8882" r="31" fill="#6945A5"/>
<path d="M17.5127 23.5632C17.5127 22.8272 17.8051 22.1214 18.3255 21.601C18.8459 21.0806 19.5517 20.7882 20.2877 20.7882H44.3377C45.0737 20.7882 45.7795 21.0806 46.2999 21.601C46.8203 22.1214 47.1127 22.8272 47.1127 23.5632V29.8643C46.5296 29.6124 45.8974 29.4948 45.2627 29.5202V23.5632C45.2627 23.3179 45.1652 23.0826 44.9918 22.9091C44.8183 22.7357 44.583 22.6382 44.3377 22.6382H20.2877C20.0424 22.6382 19.8071 22.7357 19.6336 22.9091C19.4602 23.0826 19.3627 23.3179 19.3627 23.5632V40.2132C19.3627 40.4585 19.4602 40.6938 19.6336 40.8673C19.8071 41.0408 20.0424 41.1382 20.2877 41.1382H24.9127V38.3632C24.9127 37.6272 25.2051 36.9214 25.7255 36.401C26.2459 35.8806 26.9517 35.5882 27.6877 35.5882H36.9377C37.6737 35.5882 38.3795 35.8806 38.8999 36.401C39.4203 36.9214 39.7127 37.6272 39.7127 38.3632V40.3501C38.9523 40.3742 38.3474 40.6091 37.8627 40.9366V38.3632C37.8627 38.1179 37.7652 37.8826 37.5918 37.7091C37.4183 37.5357 37.183 37.4382 36.9377 37.4382H27.6877C27.4424 37.4382 27.2071 37.5357 27.0336 37.7091C26.8602 37.8826 26.7627 38.1179 26.7627 38.3632V41.1382H37.5907C37.008 41.6118 36.6195 42.2038 36.3327 42.6367C36.257 42.756 36.178 42.8732 36.0959 42.9882H20.2877C19.5517 42.9882 18.8459 42.6958 18.3255 42.1754C17.8051 41.655 17.5127 40.9492 17.5127 40.2132V23.5632ZM32.3127 33.7382C33.5393 33.7382 34.7157 33.2509 35.5831 32.3836C36.4504 31.5162 36.9377 30.3398 36.9377 29.1132C36.9377 27.8866 36.4504 26.7102 35.5831 25.8428C34.7157 24.9755 33.5393 24.4882 32.3127 24.4882C31.0861 24.4882 29.9097 24.9755 29.0423 25.8428C28.175 26.7102 27.6877 27.8866 27.6877 29.1132C27.6877 30.3398 28.175 31.5162 29.0423 32.3836C29.9097 33.2509 31.0861 33.7382 32.3127 33.7382ZM32.3127 31.8882C31.5767 31.8882 30.8709 31.5958 30.3505 31.0754C29.8301 30.555 29.5377 29.8492 29.5377 29.1132C29.5377 28.3772 29.8301 27.6714 30.3505 27.151C30.8709 26.6306 31.5767 26.3382 32.3127 26.3382C33.0487 26.3382 33.7545 26.6306 34.2749 27.151C34.7953 27.6714 35.0877 28.3772 35.0877 29.1132C35.0877 29.8492 34.7953 30.555 34.2749 31.0754C33.7545 31.5958 33.0487 31.8882 32.3127 31.8882ZM43.1074 34.2285L43.8456 32.4876C44.1915 31.6699 45.0203 31.2259 45.8343 31.3961L46.0082 31.4405L46.9332 31.7365C47.8508 32.0307 48.552 32.8151 48.7795 33.8011C49.3179 36.1451 48.6722 38.9996 46.8389 42.3629C45.0092 45.7225 43.0057 47.7409 40.8245 48.4217C39.9772 48.6862 39.067 48.4957 38.3825 47.9203L38.2031 47.7538L37.5001 47.049C37.2048 46.7449 37.014 46.3547 36.9554 45.9349C36.8969 45.5151 36.9736 45.0875 37.1745 44.7143L37.2781 44.5441L38.3363 42.9901C38.5287 42.6967 38.8047 42.4678 39.1285 42.3329C39.4524 42.198 39.8092 42.1634 40.153 42.2334L40.338 42.2834L42.2934 42.9364C43.0723 42.3444 43.7235 41.6044 44.2433 40.7072C44.6892 39.9394 44.9833 39.1624 45.1184 38.3743L45.1739 37.9784L43.5477 36.4337C43.2853 36.1779 43.0987 35.8545 43.0086 35.4993C42.9185 35.144 42.9283 34.7708 43.0371 34.4209L43.1056 34.2285H43.1074Z" fill="white"/>
</svg>
