<svg width="62" height="63" viewBox="0 0 62 63" fill="none" xmlns="http://www.w3.org/2000/svg">
<circle cx="31" cy="31.502" r="31" fill="#6945A5"/>
<path d="M47 44.1033H45V39.1033C44.9984 37.7777 44.4711 36.5068 43.5338 35.5695C42.5964 34.6322 41.3256 34.1049 40 34.1033V32.1033C41.8559 32.1054 43.6351 32.8436 44.9474 34.1559C46.2597 35.4682 46.9979 37.2474 47 39.1033V44.1033Z" fill="white"/>
<path d="M39 44.1033H37V39.1033C36.9984 37.7777 36.4711 36.5068 35.5338 35.5695C34.5964 34.6322 33.3256 34.1049 32 34.1033H26C24.6744 34.1049 23.4036 34.6322 22.4662 35.5695C21.5289 36.5068 21.0016 37.7777 21 39.1033V44.1033H19V39.1033C19.0021 37.2474 19.7403 35.4682 21.0526 34.1559C22.3649 32.8436 24.1441 32.1054 26 32.1033H32C33.8559 32.1054 35.6351 32.8436 36.9474 34.1559C38.2597 35.4682 38.9979 37.2474 39 39.1033V44.1033Z" fill="white"/>
<path d="M37 16.1033V18.1033C38.3261 18.1033 39.5979 18.6301 40.5355 19.5677C41.4732 20.5054 42 21.7772 42 23.1033C42 24.4294 41.4732 25.7011 40.5355 26.6388C39.5979 27.5765 38.3261 28.1033 37 28.1033V30.1033C38.8565 30.1033 40.637 29.3658 41.9497 28.053C43.2625 26.7403 44 24.9598 44 23.1033C44 21.2468 43.2625 19.4663 41.9497 18.1535C40.637 16.8408 38.8565 16.1033 37 16.1033Z" fill="white"/>
<path d="M29 18.1033C29.9889 18.1033 30.9556 18.3965 31.7779 18.9459C32.6001 19.4953 33.241 20.2762 33.6194 21.1899C33.9978 22.1035 34.0969 23.1088 33.9039 24.0787C33.711 25.0486 33.2348 25.9395 32.5355 26.6388C31.8363 27.3381 30.9454 27.8143 29.9755 28.0072C29.0055 28.2001 28.0002 28.1011 27.0866 27.7227C26.173 27.3442 25.3921 26.7034 24.8427 25.8811C24.2932 25.0589 24 24.0922 24 23.1033C24 21.7772 24.5268 20.5054 25.4645 19.5677C26.4022 18.6301 27.6739 18.1033 29 18.1033ZM29 16.1033C27.6155 16.1033 26.2622 16.5138 25.111 17.283C23.9599 18.0522 23.0627 19.1454 22.5328 20.4245C22.003 21.7036 21.8644 23.111 22.1345 24.4689C22.4046 25.8268 23.0713 27.0741 24.0503 28.053C25.0292 29.032 26.2765 29.6987 27.6344 29.9688C28.9922 30.2389 30.3997 30.1002 31.6788 29.5704C32.9579 29.0406 34.0511 28.1434 34.8203 26.9923C35.5895 25.8411 36 24.4877 36 23.1033C36 21.2468 35.2625 19.4663 33.9497 18.1535C32.637 16.8408 30.8565 16.1033 29 16.1033Z" fill="white"/>
</svg>
