<svg width="82" height="82" viewBox="0 0 82 82" fill="none" xmlns="http://www.w3.org/2000/svg">
<circle cx="41.2949" cy="40.8761" r="40.5" fill="#6945A5"/>
<g clip-path="url(#clip0)">
<path d="M61.2206 34.237C61.6884 34.0707 62.0005 33.6278 62 33.1314C61.9994 32.635 61.6861 32.1929 61.218 32.0277L42.3899 25.3847C42.1377 25.2956 41.8624 25.2956 41.6102 25.3847L22.782 32.0277C22.3139 32.1928 22.0006 32.635 22 33.1314C21.9994 33.6278 22.3116 34.0707 22.7794 34.237L30.2379 36.8885V44.5328C30.2379 45.7945 31.5541 46.8614 34.1498 47.7039C36.4124 48.4383 39.2004 48.8427 42.0001 48.8427C44.7998 48.8427 47.5877 48.4383 49.8503 47.7039C52.4461 46.8614 53.7623 45.7945 53.7623 44.5328V36.8885L56.8417 35.7938V46.3863C55.4723 46.8705 54.4882 48.1774 54.4882 49.7106C54.4882 51.2438 55.4723 52.5508 56.8417 53.035V57.5104C56.8417 58.1576 57.3664 58.6823 58.0136 58.6823C58.6608 58.6823 59.1855 58.1576 59.1855 57.5104V53.035C60.5549 52.5508 61.539 51.2438 61.539 49.7106C61.539 48.1775 60.5549 46.8705 59.1855 46.3863V34.9605L61.2206 34.237ZM58.0135 50.8922C57.362 50.8922 56.8319 50.3621 56.8319 49.7106C56.8319 49.059 57.362 48.5289 58.0135 48.5289C58.6651 48.5289 59.1952 49.059 59.1952 49.7106C59.1952 50.3621 58.6651 50.8922 58.0135 50.8922ZM42 27.7324L57.3179 33.137L42 38.5826L26.6821 33.137L42 27.7324ZM51.4184 44.3562C51.1938 44.5826 50.3898 45.1249 48.575 45.6426C46.639 46.1949 44.3039 46.499 42 46.499C39.6961 46.499 37.3611 46.1949 35.425 45.6426C33.6102 45.1249 32.8062 44.5827 32.5816 44.3562V37.7217L41.6074 40.9305C41.7344 40.9756 41.8672 40.9982 41.9999 40.9982C42.1327 40.9982 42.2655 40.9756 42.3924 40.9305L51.4183 37.7217V44.3562H51.4184Z" fill="white"/>
</g>
<defs>
<clipPath id="clip0">
<rect width="40" height="40" fill="white" transform="translate(22 22)"/>
</clipPath>
</defs>
</svg>
