<svg width="62" height="63" viewBox="0 0 62 63" fill="none" xmlns="http://www.w3.org/2000/svg">
<circle cx="31" cy="31.8442" r="31" fill="#6945A5"/>
<path d="M23.7998 24.6442C23.7998 24.4055 23.8946 24.1766 24.0634 24.0078C24.2322 23.839 24.4611 23.7442 24.6998 23.7442H30.0998C30.3385 23.7442 30.5674 23.839 30.7362 24.0078C30.905 24.1766 30.9998 24.4055 30.9998 24.6442C30.9998 24.8829 30.905 25.1118 30.7362 25.2806C30.5674 25.4494 30.3385 25.5442 30.0998 25.5442H24.6998C24.4611 25.5442 24.2322 25.4494 24.0634 25.2806C23.8946 25.1118 23.7998 24.8829 23.7998 24.6442Z" fill="white"/>
<path d="M24.6998 27.3442C24.4611 27.3442 24.2322 27.4391 24.0634 27.6078C23.8946 27.7766 23.7998 28.0055 23.7998 28.2442C23.7998 28.4829 23.8946 28.7119 24.0634 28.8806C24.2322 29.0494 24.4611 29.1442 24.6998 29.1442H28.2998C28.5385 29.1442 28.7674 29.0494 28.9362 28.8806C29.105 28.7119 29.1998 28.4829 29.1998 28.2442C29.1998 28.0055 29.105 27.7766 28.9362 27.6078C28.7674 27.4391 28.5385 27.3442 28.2998 27.3442H24.6998Z" fill="white"/>
<path d="M27.3998 15.6442C25.5261 15.6436 23.6845 16.1305 22.0559 17.057C20.4273 17.9835 19.0677 19.3177 18.1108 20.9287C17.1539 22.5396 16.6326 24.3718 16.598 26.2452C16.5635 28.1186 17.0169 29.9687 17.9138 31.6138L16.6358 36.0958C16.5909 36.2532 16.5897 36.4199 16.6324 36.5779C16.6751 36.7359 16.76 36.8793 16.8782 36.9926C16.9963 37.1059 17.1431 37.1848 17.3027 37.2209C17.4624 37.257 17.6289 37.2489 17.7842 37.1974L21.9926 35.7952C23.427 36.6241 25.0328 37.1119 26.6858 37.2208C28.3388 37.3298 29.9947 37.057 31.5255 36.4237C33.0562 35.7903 34.4208 34.8132 35.5135 33.5681C36.6062 32.323 37.3979 30.8432 37.8272 29.2432C38.2565 27.6432 38.3121 25.9659 37.9894 24.341C37.6668 22.7161 36.9747 21.1872 35.9667 19.8726C34.9587 18.5579 33.6618 17.4928 32.1762 16.7596C30.6907 16.0264 29.0564 15.6448 27.3998 15.6442ZM18.3998 26.4442C18.4001 24.4473 19.0645 22.5072 20.2885 20.9293C21.5124 19.3515 23.2263 18.2255 25.1605 17.7286C27.0946 17.2317 29.139 17.3922 30.9719 18.1848C32.8048 18.9774 34.322 20.357 35.2848 22.1065C36.2475 23.856 36.6011 25.876 36.2898 27.8485C35.9785 29.821 35.0201 31.634 33.5653 33.002C32.1106 34.37 30.2422 35.2153 28.2543 35.4049C26.2664 35.5945 24.2719 35.1176 22.5848 34.0492C22.472 33.9777 22.3446 33.9322 22.212 33.916C22.0793 33.8998 21.9448 33.9133 21.818 33.9556L18.8336 34.951L19.7516 31.7452C19.7851 31.6272 19.794 31.5035 19.7779 31.3819C19.7618 31.2602 19.721 31.1431 19.658 31.0378C18.8316 29.6483 18.3968 28.0609 18.3998 26.4442Z" fill="white"/>
<path d="M35.0964 40.7488L30.7728 38.5888C31.5648 38.3674 32.3262 38.0722 33.0462 37.7104L35.4996 38.938L43.5996 34.8881V33.6443C43.5996 33.1669 43.41 32.709 43.0724 32.3715C42.7348 32.0339 42.277 31.8443 41.7996 31.8443H38.7864C39.0618 31.2683 39.2922 30.6653 39.4776 30.0443H41.7996C42.7544 30.0443 43.6701 30.4235 44.3452 31.0987C45.0203 31.7738 45.3996 32.6895 45.3996 33.6443V42.6442C45.3996 43.599 45.0203 44.5147 44.3452 45.1898C43.6701 45.865 42.7544 46.2442 41.7996 46.2442H29.1996C28.2448 46.2442 27.3292 45.865 26.654 45.1898C25.9789 44.5147 25.5996 43.599 25.5996 42.6442V38.9183C26.1882 39.001 26.7876 39.0442 27.3996 39.0442V42.6442C27.3996 43.1216 27.5893 43.5795 27.9268 43.917C28.2644 44.2546 28.7222 44.4442 29.1996 44.4442H41.7996C42.277 44.4442 42.7348 44.2546 43.0724 43.917C43.41 43.5795 43.5996 43.1216 43.5996 42.6442V36.9004L35.9028 40.7488C35.7777 40.8116 35.6396 40.8442 35.4996 40.8442C35.3596 40.8442 35.2216 40.8116 35.0964 40.7488Z" fill="white"/>
</svg>
