<svg width="62" height="63" viewBox="0 0 62 63" fill="none" xmlns="http://www.w3.org/2000/svg">
<circle cx="31" cy="31.6519" r="31" fill="#6945A5"/>
<path fill-rule="evenodd" clip-rule="evenodd" d="M30.9999 15.4706C30.6816 15.4706 30.3764 15.597 30.1513 15.8221C29.9263 16.0471 29.7999 16.3523 29.7999 16.6706V21.8834C29.7999 22.2016 29.9263 22.5069 30.1513 22.7319C30.3764 22.957 30.6816 23.0834 30.9999 23.0834C31.3181 23.0834 31.6233 22.957 31.8484 22.7319C32.0734 22.5069 32.1999 22.2016 32.1999 21.8834V17.9234C35.2257 18.1925 38.0736 19.4698 40.2869 21.5506C42.5002 23.6314 43.9507 26.3952 44.4058 29.3987C44.8609 32.4023 44.2942 35.4716 42.7967 38.1147C41.2991 40.7577 38.9574 42.8214 36.1471 43.9748C33.3367 45.1281 30.2204 45.3044 27.2979 44.4753C24.3754 43.6462 21.816 41.8598 20.03 39.4024C18.2439 36.9451 17.3348 33.9592 17.4483 30.9235C17.5618 27.8878 18.6913 24.9781 20.6559 22.661C20.7629 22.5416 20.845 22.402 20.8973 22.2504C20.9495 22.0988 20.9708 21.9383 20.9599 21.7783C20.9491 21.6183 20.9063 21.4622 20.834 21.319C20.7618 21.1758 20.6616 21.0486 20.5394 20.9448C20.4171 20.8411 20.2754 20.7628 20.1224 20.7148C19.9694 20.6667 19.8084 20.6498 19.6487 20.665C19.4891 20.6802 19.3342 20.7273 19.193 20.8034C19.0519 20.8795 18.9275 20.9832 18.8271 21.1082C16.4753 23.8815 15.141 27.3747 15.0451 31.0097C14.9492 34.6447 16.0974 38.2034 18.2998 41.0968C20.5021 43.9903 23.6264 46.045 27.1556 46.9207C30.6847 47.7965 34.4072 47.4409 37.7067 45.9128C41.0063 44.3847 43.6851 41.7757 45.2998 38.5176C46.9144 35.2595 47.3681 31.5478 46.5858 27.9967C45.8034 24.4456 43.8319 21.2682 40.9976 18.9903C38.1633 16.7124 34.6361 15.4707 30.9999 15.4706ZM29.1759 32.8226L23.1375 24.4058C23.0571 24.2902 23.0198 24.1501 23.0323 24.0099C23.0448 23.8697 23.1062 23.7383 23.2057 23.6388C23.3052 23.5393 23.4366 23.4779 23.5768 23.4654C23.717 23.453 23.8571 23.4902 23.9727 23.5706L32.3943 29.6066C32.6652 29.8017 32.8906 30.0533 33.0546 30.3441C33.2187 30.6349 33.3177 30.9579 33.3446 31.2907C33.3715 31.6235 33.3257 31.9581 33.2105 32.2715C33.0953 32.5849 32.9133 32.8695 32.6772 33.1056C32.4411 33.3417 32.1566 33.5236 31.8432 33.6388C31.5298 33.7541 31.1951 33.7998 30.8623 33.7729C30.5295 33.746 30.2066 33.647 29.9158 33.483C29.625 33.3189 29.3733 33.0935 29.1783 32.8226H29.1759Z" fill="white"/>
</svg>
