<svg width="62" height="63" viewBox="0 0 62 63" fill="none" xmlns="http://www.w3.org/2000/svg">
<circle cx="31" cy="31.4092" r="31" fill="#6945A5"/>
<path d="M32 37.5256C30.8449 37.5266 29.7075 37.2414 28.6896 36.6954C27.6717 36.1493 26.805 35.3595 26.167 34.3966L27.833 33.2896C28.2891 33.9774 28.9082 34.5415 29.6353 34.9318C30.3624 35.3221 31.1748 35.5263 32 35.5263C32.8252 35.5263 33.6376 35.3221 34.3647 34.9318C35.0917 34.5415 35.7109 33.9774 36.167 33.2896L37.833 34.3966C37.195 35.3595 36.3282 36.1493 35.3103 36.6954C34.2924 37.2414 33.1551 37.5266 32 37.5256Z" fill="white"/>
<path d="M36 26.5256C35.6044 26.5256 35.2178 26.6429 34.8889 26.8627C34.56 27.0825 34.3036 27.3948 34.1522 27.7603C34.0009 28.1257 33.9613 28.5279 34.0384 28.9158C34.1156 29.3038 34.3061 29.6602 34.5858 29.9399C34.8655 30.2196 35.2219 30.41 35.6098 30.4872C35.9978 30.5644 36.3999 30.5248 36.7654 30.3734C37.1308 30.222 37.4432 29.9657 37.6629 29.6368C37.8827 29.3079 38 28.9212 38 28.5256C38.0027 28.2623 37.9528 28.001 37.8532 27.7571C37.7536 27.5133 37.6064 27.2917 37.4202 27.1055C37.2339 26.9192 37.0124 26.772 36.7685 26.6724C36.5247 26.5729 36.2634 26.523 36 26.5256Z" fill="white"/>
<path d="M28 26.5256C27.6044 26.5256 27.2178 26.6429 26.8889 26.8627C26.56 27.0825 26.3036 27.3948 26.1522 27.7603C26.0009 28.1257 25.9613 28.5279 26.0384 28.9158C26.1156 29.3038 26.3061 29.6602 26.5858 29.9399C26.8655 30.2196 27.2219 30.41 27.6098 30.4872C27.9978 30.5644 28.3999 30.5248 28.7654 30.3734C29.1308 30.222 29.4432 29.9657 29.6629 29.6368C29.8827 29.3079 30 28.9212 30 28.5256C30.0027 28.2623 29.9528 28.001 29.8532 27.7571C29.7536 27.5133 29.6064 27.2917 29.4202 27.1055C29.2339 26.9192 29.0124 26.772 28.7685 26.6724C28.5247 26.5729 28.2634 26.523 28 26.5256Z" fill="white"/>
<path d="M33.736 48.5256L32 47.5256L36 40.5256H42C42.2628 40.526 42.523 40.4746 42.7658 40.3742C43.0087 40.2738 43.2293 40.1265 43.4151 39.9407C43.6009 39.7549 43.7482 39.5343 43.8486 39.2915C43.9489 39.0486 44.0004 38.7884 44 38.5256V24.5256C44.0004 24.2629 43.9489 24.0026 43.8486 23.7598C43.7482 23.517 43.6009 23.2963 43.4151 23.1105C43.2293 22.9247 43.0087 22.7774 42.7658 22.6771C42.523 22.5767 42.2628 22.5252 42 22.5256H22C21.7372 22.5252 21.477 22.5767 21.2342 22.6771C20.9913 22.7774 20.7707 22.9247 20.5849 23.1105C20.3991 23.2963 20.2518 23.517 20.1514 23.7598C20.0511 24.0026 19.9996 24.2629 20 24.5256V38.5256C19.9996 38.7884 20.0511 39.0486 20.1514 39.2915C20.2518 39.5343 20.3991 39.7549 20.5849 39.9407C20.7707 40.1265 20.9913 40.2738 21.2342 40.3742C21.477 40.4746 21.7372 40.526 22 40.5256H31V42.5256H22C20.9391 42.5256 19.9217 42.1042 19.1716 41.3541C18.4214 40.6039 18 39.5865 18 38.5256V24.5256C17.9999 24.0003 18.1032 23.4801 18.3042 22.9947C18.5052 22.5094 18.7998 22.0684 19.1713 21.6969C19.5427 21.3255 19.9837 21.0308 20.4691 20.8298C20.9545 20.6289 21.4747 20.5255 22 20.5256H42C42.5253 20.5255 43.0455 20.6289 43.5309 20.8298C44.0163 21.0308 44.4573 21.3255 44.8287 21.6969C45.2002 22.0684 45.4948 22.5094 45.6958 22.9947C45.8968 23.4801 46.0001 24.0003 46 24.5256V38.5256C46 39.5865 45.5786 40.6039 44.8284 41.3541C44.0783 42.1042 43.0609 42.5256 42 42.5256H37.165L33.736 48.5256Z" fill="white"/>
</svg>
