<svg width="82" height="82" viewBox="0 0 82 82" fill="none" xmlns="http://www.w3.org/2000/svg">
<circle cx="41.231" cy="41.4749" r="40.5" fill="#6945A5"/>
<path d="M56.9536 37.9358H54.5217C56.6286 36.2364 57.979 33.6351 57.979 30.7239C57.979 25.6164 53.8238 21.4612 48.7163 21.4612C43.6088 21.4612 39.4536 25.6164 39.4536 30.7239C39.4536 33.6351 40.8041 36.2364 42.911 37.9358H40.5132C39.9469 37.9358 39.4878 38.3949 39.4878 38.9612V46.1389H24.0728C23.5065 46.1389 23.0474 46.598 23.0474 47.1643V51.2659V55.3674C23.0474 55.9337 23.5065 56.3928 24.0728 56.3928H40.5132H56.9536C57.5199 56.3928 57.979 55.9337 57.979 55.3674V51.2659V47.1643V43.0627V38.9612C57.979 38.3949 57.5199 37.9358 56.9536 37.9358ZM41.5386 44.0881H55.9282V46.1389H41.5386V44.0881ZM41.5386 48.1897H55.9282V50.2405H41.5386V48.1897ZM41.5044 30.7239C41.5044 26.7472 44.7396 23.512 48.7163 23.512C52.693 23.512 55.9282 26.7472 55.9282 30.7239C55.9282 34.7005 52.693 37.9358 48.7163 37.9358C44.7396 37.9358 41.5044 34.7005 41.5044 30.7239ZM41.5386 39.9866H55.9282V42.0374H41.5386V39.9866ZM25.0981 48.1897H39.4878V50.2405H25.0981V48.1897ZM25.0981 52.2913H39.4878V54.342H25.0981V52.2913ZM55.9282 54.342H41.5386V52.2913H55.9282V54.342Z" fill="white"/>
<path d="M24.7295 41.737L28.1401 38.3264L30.5254 40.7117C30.9258 41.1121 31.5751 41.1121 31.9755 40.7117L35.352 37.3351V37.9358C35.352 38.5021 35.8111 38.9612 36.3774 38.9612C36.9437 38.9612 37.4028 38.5021 37.4028 37.9358V34.86C37.4031 34.2905 36.9391 33.834 36.3771 33.8342H33.3696C32.8033 33.8342 32.3442 34.2933 32.3442 34.8596C32.3442 35.4259 32.8033 35.885 33.3696 35.885H33.9019L31.2505 38.5365L28.8651 36.1512C28.4647 35.7508 27.8155 35.7508 27.415 36.1512L23.2793 40.2869C22.8788 40.6874 22.8788 41.3366 23.2793 41.737C23.6797 42.1374 24.329 42.1375 24.7295 41.737Z" fill="white"/>
<path d="M49.807 29.7154C49.2982 29.5356 48.9249 29.387 48.6324 29.2478C48.4756 29.1732 47.9657 28.9069 47.988 28.6125C48.0035 28.4083 48.2091 28.1855 48.369 28.1374C49.0007 27.9472 49.4088 28.2444 49.4741 28.2968L49.5565 28.3727C49.9727 28.7567 50.6213 28.7306 51.0054 28.3145C51.3894 27.8983 51.3634 27.2496 50.9471 26.8655L50.8516 26.7773C50.6217 26.5652 50.2186 26.3091 49.6957 26.1569V26.0704C49.6957 25.5041 49.2366 25.045 48.6703 25.045C48.104 25.045 47.6449 25.5041 47.6449 26.0704V26.2187C46.724 26.5583 46.0174 27.4775 45.943 28.4573C45.9038 28.9745 46.0014 30.2672 47.7513 31.0996C48.1096 31.2702 48.5456 31.4447 49.1233 31.649C49.6315 31.8286 49.6832 32.193 49.6372 32.467C49.5859 32.7723 49.323 33.29 48.6635 33.2945C47.9788 33.2987 47.8181 33.2737 47.3183 32.9467C46.8443 32.6367 46.2088 32.7695 45.8988 33.2435C45.5888 33.7174 45.7216 34.3529 46.1955 34.6629C46.7408 35.0196 47.1725 35.1964 47.6448 35.2792V35.3774C47.6448 35.9437 48.1039 36.4028 48.6702 36.4028C49.2365 36.4028 49.6956 35.9437 49.6956 35.3774V35.1633C50.7042 34.7988 51.473 33.9167 51.6595 32.807C51.891 31.4313 51.1464 30.1889 49.807 29.7154ZM49.4611 28.2846L49.4715 28.2942C49.4646 28.2882 49.4613 28.2847 49.4611 28.2846Z" fill="white"/>
</svg>
