<svg width="62" height="63" viewBox="0 0 62 63" fill="none" xmlns="http://www.w3.org/2000/svg">
<circle cx="31" cy="31.4565" r="31" fill="#6945A5"/>
<g clip-path="url(#clip0)">
<path d="M42.5713 30.4758H19.4037C17.7853 30.4758 16.4688 31.7924 16.4688 33.4108V43.5219C16.4688 45.1401 17.7853 46.4566 19.4037 46.4566H42.5713C44.1898 46.4566 45.5063 45.1401 45.5063 43.5219V33.4108C45.5063 31.7924 44.1898 30.4758 42.5713 30.4758ZM43.7485 43.5219C43.7485 44.1707 43.2205 44.6988 42.5713 44.6988H19.4037C18.7546 44.6988 18.2266 44.1707 18.2266 43.5219V33.4108C18.2266 32.7617 18.7546 32.2336 19.4037 32.2336H42.5713C43.2205 32.2336 43.7485 32.7617 43.7485 33.4108V43.5219Z" fill="white"/>
<path d="M30.9898 25.8691C31.6881 25.8691 32.3864 25.6038 32.9181 25.073C33.4338 24.5585 33.7176 23.8741 33.7176 23.146C33.7176 22.418 33.4338 21.7336 32.9181 21.2191C31.8547 20.1578 30.1246 20.1578 29.0612 21.2191C28.5455 21.7336 28.2617 22.418 28.2617 23.146C28.2617 23.8741 28.5455 24.5585 29.0612 25.073C29.5929 25.6038 30.2912 25.8691 30.9898 25.8691ZM30.3029 22.4631C30.4924 22.274 30.741 22.1797 30.9898 22.1797C31.2383 22.1797 31.4869 22.2742 31.6762 22.4631C31.8591 22.6455 31.9598 22.8881 31.9598 23.146C31.9598 23.404 31.8591 23.6464 31.6764 23.829C31.2976 24.2069 30.6817 24.2067 30.3029 23.829C30.12 23.6464 30.0195 23.404 30.0195 23.146C30.0195 22.8881 30.1202 22.6457 30.3029 22.4631Z" fill="white"/>
<path d="M34.2015 26.9894C34.3732 27.1615 34.5984 27.2476 34.8236 27.2476C35.0484 27.2476 35.2729 27.162 35.4446 26.9908C36.4734 25.9638 37.0401 24.5985 37.0401 23.146C37.0401 21.6935 36.4734 20.328 35.4446 19.3013C35.1011 18.9584 34.5444 18.9589 34.2015 19.3024C33.8587 19.646 33.8594 20.2026 34.2029 20.5455C34.899 21.2401 35.2823 22.1637 35.2823 23.146C35.2823 24.1282 34.899 25.0519 34.2029 25.7466C33.8594 26.0894 33.8587 26.6459 34.2015 26.9894Z" fill="white"/>
<path d="M26.5306 26.9909C26.7023 27.1621 26.9268 27.2477 27.1515 27.2477C27.3768 27.2477 27.602 27.1616 27.7736 26.9895C28.1165 26.6459 28.1158 26.0895 27.7723 25.7467C27.0762 25.0518 26.6929 24.1282 26.6929 23.1459C26.6929 22.1637 27.0762 21.2402 27.7723 20.5453C28.1158 20.2025 28.1165 19.646 27.7736 19.3025C27.4308 18.9587 26.8741 18.9583 26.5306 19.3011C25.5018 20.3281 24.9353 21.6934 24.9351 23.1459C24.9351 24.5984 25.5018 25.9639 26.5306 26.9909Z" fill="white"/>
<path d="M24.1088 41.1817H21.7495V34.8717C21.7495 34.3862 21.3561 33.9928 20.8706 33.9928C20.3851 33.9928 19.9917 34.3862 19.9917 34.8717V42.0607C19.9917 42.5461 20.3851 42.9396 20.8706 42.9396H24.1088C24.5941 42.9396 24.9877 42.5461 24.9877 42.0607C24.9877 41.5754 24.5941 41.1817 24.1088 41.1817Z" fill="white"/>
<path d="M26.832 33.9928C26.3466 33.9928 25.9531 34.3862 25.9531 34.8717V42.0607C25.9531 42.5461 26.3466 42.9396 26.832 42.9396C27.3173 42.9396 27.7109 42.5461 27.7109 42.0607V34.8717C27.7109 34.3862 27.3173 33.9928 26.832 33.9928Z" fill="white"/>
<path d="M34.5179 34.0303C34.0535 33.89 33.5627 34.153 33.4224 34.6176L32.0936 39.0197L30.7644 34.6176C30.6241 34.1528 30.1336 33.89 29.669 34.0303C29.2044 34.1706 28.9414 34.6611 29.0817 35.1257L31.2522 42.3147C31.2524 42.3154 31.2526 42.3161 31.2529 42.3168C31.492 43.0821 32.6703 43.1286 32.9342 42.3168C32.9345 42.3161 32.9347 42.3156 32.9349 42.3147L35.1054 35.1257C35.2457 34.6609 34.9825 34.1706 34.5179 34.0303Z" fill="white"/>
<path d="M41.1046 35.7506C41.59 35.7506 41.9835 35.3572 41.9835 34.8717C41.9835 34.3862 41.59 33.9928 41.1046 33.9928H37.1396C36.6542 33.9928 36.2607 34.3862 36.2607 34.8717V42.0607C36.2607 42.5461 36.6542 42.9396 37.1396 42.9396H40.9862C41.4717 42.9396 41.8651 42.5461 41.8651 42.0607C41.8651 41.5754 41.4717 41.1817 40.9862 41.1817H38.0186V38.8925H40.5127C40.9981 38.8925 41.3916 38.499 41.3916 38.0136C41.3916 37.5281 40.9981 37.1347 40.5127 37.1347H38.0186V35.7506H41.1046Z" fill="white"/>
<path d="M38.344 23.1461C38.344 25.1058 37.5793 26.9485 36.1907 28.3344C35.8472 28.6773 35.8465 29.2339 36.1893 29.5775C36.3612 29.7494 36.5862 29.8354 36.8114 29.8354C37.0362 29.8354 37.2607 29.7498 37.4324 29.5786C39.1538 27.8606 40.1018 25.5762 40.1018 23.1461C40.1018 20.7163 39.1538 18.4316 37.4324 16.7136C37.0888 16.3708 36.5324 16.3712 36.1893 16.7148C35.8465 17.0583 35.8472 17.615 36.1907 17.9578C37.5793 19.3437 38.344 21.1862 38.344 23.1461Z" fill="white"/>
<path d="M25.1635 29.8354C25.3887 29.8354 25.6139 29.7493 25.7856 29.5774C26.1284 29.2339 26.128 28.6772 25.7842 28.3344C24.3956 26.9485 23.6309 25.1058 23.6309 23.1458C23.6309 21.1862 24.3956 19.3434 25.7842 17.9576C26.1277 17.6147 26.1284 17.058 25.7856 16.7147C25.4425 16.3709 24.8861 16.3705 24.5425 16.7133C22.8211 18.4316 21.873 20.716 21.873 23.1458C21.873 25.5759 22.8211 27.8604 24.5425 29.5786C24.7142 29.7498 24.9387 29.8354 25.1635 29.8354Z" fill="white"/>
</g>
<defs>
<clipPath id="clip0">
<rect width="30" height="30" fill="white" transform="translate(16 16.4565)"/>
</clipPath>
</defs>
</svg>
