<svg width="82" height="82" viewBox="0 0 82 82" fill="none" xmlns="http://www.w3.org/2000/svg">
<circle cx="41" cy="41.0479" r="40.5" fill="#6945A5"/>
<g clip-path="url(#clip0)">
<path d="M55.8846 50.2645V38.3636C57.7193 37.522 59 35.6466 59 33.4713C59 33.434 58.9986 33.3972 58.9978 33.3601C59.011 33.1401 58.9539 32.9182 58.8297 32.7287C58.8292 32.7278 58.8286 32.727 58.8281 32.7262L56.4152 29.0139C56.4102 29.0062 56.4053 28.9983 56.4004 28.9906L54.5 26.0674V23.9522C54.5 22.2343 53.1025 20.8368 51.3846 20.8368H30.6154C28.8975 20.8368 27.5 22.2343 27.5 23.9522V26.0674L23.1719 32.7262C23.1714 32.7273 23.1708 32.7284 23.1703 32.7292C23.0492 32.9141 22.9931 33.1288 23.0025 33.342C23.0014 33.3851 23 33.4279 23 33.4713C23 35.6466 24.2807 37.522 26.1154 38.3636V50.2645C24.3824 50.3549 23 51.7932 23 53.5483C23 55.3616 24.4752 56.8368 26.2885 56.8368H55.7115C57.5248 56.8368 59 55.3616 59 53.5483C59 51.7932 57.6176 50.3549 55.8846 50.2645ZM54.561 36.6445C54.494 36.6631 54.4267 36.6796 54.3591 36.6936C54.3577 36.6939 54.3561 36.6942 54.3547 36.6947C54.2209 36.7225 54.0858 36.7409 53.9501 36.7508C53.9386 36.7516 53.9265 36.7524 53.915 36.7532C53.8504 36.7571 53.7859 36.7598 53.7211 36.7598C53.67 36.7598 53.6192 36.7582 53.5686 36.756C53.5524 36.7552 53.5365 36.7538 53.5203 36.7527C53.4857 36.7505 53.4514 36.748 53.417 36.7444C53.3986 36.7428 53.3802 36.7406 53.3618 36.7387C53.3297 36.7348 53.2975 36.7307 53.2657 36.726C53.2473 36.7233 53.2292 36.7206 53.211 36.7175C53.1778 36.712 53.1446 36.706 53.1116 36.6994C53.0959 36.6964 53.08 36.6934 53.0646 36.6901C53.0182 36.6802 52.9726 36.6695 52.927 36.6574C52.9251 36.6568 52.9232 36.6566 52.9213 36.656C52.8737 36.6434 52.8268 36.6296 52.7804 36.6148C52.7658 36.6101 52.7518 36.6052 52.7375 36.6003C52.7051 36.5898 52.6732 36.5788 52.6414 36.567C52.6249 36.5607 52.6084 36.5544 52.5919 36.5481C52.5626 36.5365 52.5332 36.5247 52.5041 36.5124C52.4876 36.5055 52.4714 36.4986 52.4552 36.4912C52.4247 36.478 52.3947 36.4637 52.3651 36.4495C52.3511 36.4426 52.3371 36.4363 52.3233 36.4294C52.2832 36.4091 52.2434 36.3885 52.2044 36.3668C52.2014 36.3651 52.1984 36.3635 52.1953 36.3618C52.153 36.3382 52.1116 36.3135 52.0706 36.2882C52.0586 36.2805 52.0465 36.2726 52.0344 36.2649C52.0058 36.2465 51.9773 36.2281 51.9492 36.2086C51.935 36.199 51.921 36.1891 51.907 36.1789C51.8811 36.1608 51.8556 36.1421 51.83 36.1229C51.8163 36.1125 51.8023 36.102 51.7886 36.0913C51.7628 36.071 51.7369 36.0501 51.7117 36.0292C51.6999 36.0193 51.6878 36.0095 51.676 35.9996C51.643 35.9713 51.6106 35.9424 51.5787 35.9131C51.5754 35.9098 51.5716 35.9067 51.5683 35.9034C51.5329 35.8705 51.4985 35.8364 51.4648 35.8021C51.4551 35.7922 51.4458 35.782 51.4362 35.7722C51.4123 35.7469 51.3887 35.7216 51.3656 35.6958C51.3541 35.6832 51.3428 35.67 51.3315 35.6571C51.3109 35.6332 51.2903 35.6087 51.27 35.5843C51.2588 35.5706 51.2478 35.5571 51.2368 35.5431C51.2165 35.5175 51.1964 35.4912 51.1769 35.4648C51.1673 35.4522 51.1577 35.4395 51.1483 35.4266C51.1239 35.3926 51.1 35.358 51.0767 35.3231C51.0731 35.3176 51.0692 35.3124 51.0654 35.3069C51.0388 35.2662 51.0129 35.2248 50.9879 35.1827C50.9808 35.1709 50.9742 35.1588 50.9673 35.1468C50.9498 35.1165 50.9325 35.0861 50.916 35.055C50.9075 35.0396 50.8995 35.0237 50.8915 35.0081C50.8767 34.9798 50.8624 34.9515 50.8487 34.9226C50.8407 34.9062 50.833 34.8894 50.8253 34.8729C50.8116 34.8433 50.7984 34.8133 50.7855 34.7831C50.7789 34.7675 50.7721 34.7521 50.7657 34.7364C50.7506 34.6988 50.7361 34.6609 50.7221 34.623C50.7191 34.6145 50.7158 34.6062 50.7127 34.5977C50.6963 34.5513 50.6806 34.5041 50.666 34.4568C50.6619 34.4428 50.6581 34.4288 50.654 34.4148C50.6465 34.389 50.6394 34.3629 50.6325 34.3371H56.8107C56.513 35.4566 55.6516 36.3396 54.561 36.6445ZM48.2955 34.4565C48.2809 34.5041 48.2653 34.551 48.2488 34.5977C48.2458 34.6062 48.2425 34.6142 48.2394 34.6227C48.2254 34.6609 48.2109 34.6988 48.1958 34.7361C48.1895 34.7521 48.1826 34.7675 48.176 34.7831C48.1631 34.813 48.1499 34.843 48.1364 34.8727C48.1288 34.8894 48.1208 34.9059 48.1128 34.9224C48.0991 34.9512 48.0848 34.9798 48.0703 35.0081C48.062 35.0237 48.054 35.0394 48.0455 35.055C48.0291 35.0861 48.0117 35.1163 47.9942 35.1468C47.9873 35.1586 47.9807 35.1709 47.9736 35.1827C47.9486 35.2245 47.9228 35.266 47.8961 35.3066C47.8923 35.3121 47.8884 35.3176 47.8849 35.3231C47.8615 35.358 47.8376 35.3926 47.8132 35.4264C47.8038 35.4393 47.7942 35.4519 47.7846 35.4648C47.7651 35.4912 47.7451 35.5173 47.7247 35.5431C47.7137 35.5568 47.7028 35.5706 47.6915 35.584C47.6712 35.6087 47.6508 35.6329 47.63 35.6571C47.6187 35.67 47.6075 35.6829 47.5959 35.6958C47.5728 35.7216 47.5492 35.7469 47.5253 35.7719C47.5157 35.782 47.5064 35.7922 47.4968 35.8018C47.463 35.8364 47.4286 35.8705 47.3932 35.9034C47.3899 35.9065 47.3861 35.9098 47.3828 35.9128C47.3509 35.9424 47.3185 35.971 47.2856 35.9993C47.2737 36.0095 47.2617 36.0191 47.2498 36.029C47.2246 36.0501 47.1988 36.0707 47.1729 36.091C47.1592 36.1017 47.1452 36.1125 47.1315 36.1229C47.1062 36.1418 47.0807 36.1605 47.0548 36.1789C47.0406 36.1888 47.0266 36.1987 47.0123 36.2086C46.9843 36.2278 46.9557 36.2465 46.9271 36.2649C46.915 36.2726 46.9032 36.2805 46.8909 36.288C46.8499 36.3135 46.8085 36.3382 46.7662 36.3618C46.7632 36.3635 46.7601 36.3649 46.7571 36.3665C46.7181 36.3882 46.6783 36.4091 46.6382 36.4291C46.6245 36.436 46.6104 36.4426 46.5964 36.4492C46.5668 36.4637 46.5368 36.4778 46.5063 36.4912C46.4901 36.4984 46.4739 36.5052 46.4575 36.5124C46.4283 36.5244 46.3992 36.5363 46.3696 36.5478C46.3531 36.5544 46.3366 36.5607 46.3201 36.5667C46.2883 36.5786 46.2564 36.5895 46.2243 36.6003C46.2097 36.6049 46.1957 36.6101 46.1812 36.6145C46.1347 36.6294 46.0878 36.6431 46.0403 36.6557C46.0383 36.6563 46.0364 36.6568 46.0345 36.6574C45.9889 36.6692 45.943 36.6799 45.8972 36.6901C45.8815 36.6934 45.8656 36.6961 45.8499 36.6991C45.817 36.7057 45.7837 36.712 45.7505 36.7175C45.7324 36.7206 45.7142 36.7233 45.6958 36.7258C45.664 36.7304 45.6318 36.7346 45.5997 36.7384C45.5813 36.7406 45.5632 36.7425 45.5445 36.7444C45.5104 36.7477 45.4758 36.7502 45.4412 36.7524C45.425 36.7535 45.4091 36.7549 45.3929 36.7557C45.3423 36.7582 45.2915 36.7596 45.2404 36.7596C45.1891 36.7596 45.1383 36.7582 45.0877 36.7557C45.0715 36.7549 45.0556 36.7535 45.0397 36.7524C45.0051 36.7502 44.9705 36.7477 44.9361 36.7444C44.9177 36.7425 44.8993 36.7406 44.8812 36.7384C44.8488 36.7346 44.8167 36.7304 44.7848 36.7258C44.7667 36.723 44.7485 36.7206 44.7304 36.7175C44.6969 36.712 44.6639 36.7057 44.6307 36.6991C44.6151 36.6961 44.5994 36.6934 44.5837 36.6901C44.5376 36.6802 44.4917 36.6692 44.4464 36.6574C44.4445 36.6568 44.4426 36.6563 44.4404 36.6557C44.3931 36.6431 44.3462 36.6294 44.2995 36.6145C44.2852 36.6101 44.2709 36.6049 44.2566 36.6003C44.2245 36.5895 44.1924 36.5786 44.1608 36.5667C44.144 36.5607 44.1275 36.5544 44.1111 36.5478C44.0817 36.5363 44.0523 36.5244 44.0232 36.5124C44.007 36.5052 43.9905 36.4984 43.9743 36.4912C43.9441 36.4778 43.9141 36.4637 43.8842 36.4492C43.8702 36.4426 43.8562 36.436 43.8424 36.4291C43.8023 36.4091 43.7628 36.3882 43.7235 36.3665C43.7208 36.3649 43.7175 36.3635 43.7144 36.3618C43.6724 36.3382 43.631 36.3135 43.5898 36.288C43.5777 36.2805 43.5659 36.2726 43.5538 36.2649C43.5249 36.2465 43.4966 36.2278 43.4684 36.2086C43.4541 36.1987 43.4401 36.1888 43.4261 36.1789C43.4002 36.1605 43.3747 36.1418 43.3494 36.1229C43.3354 36.1125 43.3217 36.1017 43.308 36.091C43.2819 36.0707 43.2563 36.0501 43.231 36.029C43.219 36.0191 43.2069 36.0095 43.1953 35.9993C43.1624 35.9713 43.13 35.9424 43.0981 35.9128C43.0945 35.9098 43.091 35.9065 43.0874 35.9034C43.0522 35.8702 43.0176 35.8364 42.9839 35.8018C42.9742 35.7919 42.9649 35.7818 42.9556 35.7719C42.9317 35.7469 42.9078 35.7216 42.8847 35.6958C42.8734 35.6829 42.8622 35.67 42.8509 35.6571C42.83 35.6329 42.8094 35.6087 42.7894 35.584C42.7781 35.5706 42.7672 35.5568 42.7562 35.5431C42.7356 35.5173 42.7158 35.4912 42.696 35.4648C42.6867 35.4519 42.6771 35.4393 42.6677 35.4264C42.643 35.3926 42.6191 35.358 42.596 35.3231C42.5922 35.3176 42.5883 35.3121 42.5848 35.3066C42.5581 35.266 42.5323 35.2245 42.5073 35.1827C42.5002 35.1709 42.4936 35.1586 42.4867 35.1468C42.4689 35.1163 42.4518 35.0858 42.4351 35.055C42.4268 35.0394 42.4186 35.0237 42.4106 35.0081C42.3961 34.9798 42.3818 34.9512 42.3678 34.9224C42.3598 34.9059 42.3521 34.8894 42.3445 34.8727C42.3307 34.8433 42.3175 34.813 42.3049 34.7831C42.2983 34.7675 42.2914 34.7521 42.2851 34.7361C42.2697 34.6988 42.2552 34.6609 42.2415 34.6227C42.2384 34.6145 42.2349 34.6062 42.2318 34.5977C42.2154 34.551 42.2 34.5041 42.1854 34.4565C42.181 34.4425 42.1775 34.4285 42.1733 34.4145C42.1656 34.389 42.1588 34.3629 42.1519 34.3368H48.329C48.3221 34.3629 48.315 34.3887 48.3076 34.4145C48.3034 34.4285 48.2996 34.4425 48.2955 34.4565ZM39.8146 34.4565C39.8 34.5041 39.7846 34.551 39.7682 34.5977C39.7651 34.6062 39.7616 34.6142 39.7585 34.6227C39.7448 34.6609 39.7303 34.6988 39.7149 34.7361C39.7086 34.7521 39.7017 34.7675 39.6951 34.7831C39.6825 34.813 39.6693 34.843 39.6555 34.8727C39.6479 34.8894 39.6402 34.9059 39.6322 34.9224C39.6182 34.9512 39.6039 34.9798 39.5894 35.0081C39.5814 35.0237 39.5732 35.0394 39.5649 35.055C39.5482 35.0861 39.5311 35.1163 39.5133 35.1468C39.5064 35.1586 39.4998 35.1709 39.4927 35.1827C39.4677 35.2245 39.4421 35.266 39.4152 35.3066C39.4117 35.3121 39.4078 35.3176 39.404 35.3231C39.3809 35.358 39.357 35.3926 39.3323 35.4264C39.3232 35.4393 39.3133 35.4519 39.304 35.4648C39.2842 35.4912 39.2644 35.5173 39.2438 35.5431C39.2328 35.5568 39.2219 35.5706 39.2106 35.584C39.1906 35.6087 39.17 35.6329 39.1491 35.6571C39.1378 35.67 39.1266 35.6829 39.1153 35.6958C39.0922 35.7216 39.0683 35.7469 39.0444 35.7719C39.0351 35.782 39.0258 35.7922 39.0161 35.8018C38.9824 35.8364 38.9478 35.8705 38.9126 35.9034C38.909 35.9065 38.9055 35.9098 38.9019 35.9128C38.87 35.9424 38.8376 35.971 38.8047 35.9993C38.7931 36.0095 38.781 36.0191 38.769 36.029C38.7437 36.0501 38.7181 36.0707 38.692 36.091C38.6783 36.1017 38.6646 36.1125 38.6506 36.1229C38.6253 36.1418 38.5998 36.1605 38.5739 36.1789C38.5599 36.1888 38.5459 36.1987 38.5316 36.2086C38.5034 36.2278 38.4751 36.2465 38.4462 36.2649C38.4341 36.2726 38.4223 36.2805 38.4102 36.288C38.369 36.3135 38.3276 36.3382 38.2856 36.3618C38.2825 36.3635 38.2792 36.3649 38.2765 36.3665C38.2372 36.3882 38.1977 36.4091 38.1576 36.4291C38.1438 36.436 38.1298 36.4426 38.1158 36.4492C38.0859 36.4637 38.0559 36.4778 38.0257 36.4912C38.0095 36.4984 37.993 36.5052 37.9768 36.5124C37.9477 36.5244 37.9183 36.5363 37.8889 36.5478C37.8725 36.5544 37.856 36.5607 37.8392 36.5667C37.8076 36.5786 37.7755 36.5895 37.7434 36.6003C37.7291 36.6049 37.7148 36.6101 37.7005 36.6145C37.6538 36.6294 37.6069 36.6431 37.5596 36.6557C37.5574 36.6563 37.5555 36.6568 37.5536 36.6574C37.5083 36.6692 37.4624 36.6799 37.4163 36.6901C37.4006 36.6934 37.3849 36.6961 37.3693 36.6991C37.3361 36.7057 37.3031 36.712 37.2696 36.7175C37.2515 36.7206 37.2333 36.7233 37.2152 36.7258C37.1833 36.7304 37.1512 36.7346 37.1188 36.7384C37.1007 36.7406 37.0823 36.7425 37.0639 36.7444C37.0295 36.7477 36.9949 36.7502 36.9603 36.7524C36.9444 36.7535 36.9285 36.7549 36.9123 36.7557C36.8617 36.7582 36.8109 36.7596 36.7596 36.7596C36.7085 36.7596 36.6577 36.7582 36.6071 36.7557C36.5909 36.7549 36.575 36.7535 36.5588 36.7524C36.5242 36.7502 36.4898 36.7477 36.4555 36.7444C36.4371 36.7425 36.4187 36.7406 36.4003 36.7384C36.3682 36.7346 36.336 36.7304 36.3042 36.7258C36.2858 36.723 36.2676 36.7206 36.2495 36.7175C36.2163 36.712 36.183 36.7057 36.1501 36.6991C36.1344 36.6961 36.1185 36.6934 36.1028 36.6901C36.0567 36.6802 36.0108 36.6692 35.9655 36.6574C35.9636 36.6568 35.9617 36.6563 35.9597 36.6557C35.9122 36.6431 35.8653 36.6294 35.8188 36.6145C35.8043 36.6101 35.7903 36.6049 35.7757 36.6003C35.7436 36.5895 35.7117 36.5786 35.6799 36.5667C35.6634 36.5607 35.6469 36.5544 35.6304 36.5478C35.6008 36.5363 35.5717 36.5244 35.5425 36.5124C35.5261 36.5052 35.5099 36.4984 35.4937 36.4912C35.4632 36.4778 35.4332 36.4637 35.4036 36.4492C35.3896 36.4426 35.3755 36.436 35.3618 36.4291C35.3217 36.4091 35.2819 36.3882 35.2429 36.3665C35.2399 36.3649 35.2368 36.3635 35.2338 36.3618C35.1915 36.3382 35.1501 36.3135 35.1091 36.288C35.0968 36.2805 35.085 36.2726 35.0729 36.2649C35.0443 36.2465 35.0157 36.2278 34.9877 36.2086C34.9734 36.1987 34.9594 36.1888 34.9452 36.1789C34.9193 36.1605 34.8938 36.1418 34.8685 36.1229C34.8548 36.1125 34.8408 36.1017 34.8271 36.091C34.8012 36.0707 34.7754 36.0501 34.7502 36.029C34.7383 36.0191 34.7263 36.0095 34.7144 35.9993C34.6815 35.9713 34.6491 35.9424 34.6172 35.9128C34.6139 35.9098 34.6101 35.9065 34.6068 35.9034C34.5714 35.8702 34.537 35.8364 34.5032 35.8018C34.4936 35.7919 34.4843 35.7818 34.4747 35.7719C34.4508 35.7469 34.4272 35.7216 34.4041 35.6958C34.3925 35.6829 34.3813 35.67 34.37 35.6571C34.3492 35.6329 34.3288 35.6087 34.3085 35.584C34.2972 35.5706 34.2863 35.5568 34.2753 35.5431C34.2549 35.5173 34.2349 35.4912 34.2154 35.4648C34.2058 35.4519 34.1962 35.4393 34.1868 35.4264C34.1624 35.3926 34.1385 35.358 34.1151 35.3231C34.1116 35.3176 34.1077 35.3121 34.1039 35.3066C34.0772 35.266 34.0514 35.2245 34.0264 35.1827C34.0193 35.1709 34.0127 35.1586 34.0058 35.1468C33.9883 35.1163 33.9709 35.0858 33.9545 35.055C33.946 35.0394 33.938 35.0237 33.9297 35.0081C33.9152 34.9798 33.9009 34.9512 33.8872 34.9224C33.8792 34.9059 33.8712 34.8894 33.8636 34.8727C33.8501 34.8433 33.8369 34.813 33.824 34.7831C33.8174 34.7675 33.8105 34.7521 33.8042 34.7361C33.7891 34.6988 33.7746 34.6609 33.7606 34.6227C33.7575 34.6145 33.7542 34.6062 33.7512 34.5977C33.7347 34.551 33.7191 34.5041 33.7045 34.4565C33.7004 34.4425 33.6966 34.4285 33.6924 34.4145C33.685 34.389 33.6779 34.3629 33.671 34.3368H39.8481C39.8412 34.3629 39.8341 34.3887 39.8267 34.4145C39.8225 34.4285 39.819 34.4425 39.8146 34.4565ZM29.4091 26.9413C29.5187 26.7727 29.577 26.576 29.577 26.3753V23.9522C29.577 23.3796 30.0428 22.9138 30.6154 22.9138H51.3846C51.9572 22.9138 52.423 23.3796 52.423 23.9522V26.3753C52.423 26.576 52.4813 26.7727 52.5909 26.9413L56.0477 32.2598H25.952L29.4091 26.9413ZM25.1893 34.3368H31.3675C31.3606 34.3629 31.3535 34.3887 31.346 34.4145C31.3419 34.4285 31.3381 34.4425 31.334 34.4565C31.3194 34.5041 31.3037 34.551 31.2873 34.5977C31.2842 34.6062 31.2809 34.6142 31.2779 34.6227C31.2639 34.6609 31.2494 34.6988 31.2343 34.7361C31.2279 34.7521 31.2211 34.7675 31.2145 34.7831C31.2016 34.813 31.1884 34.843 31.1747 34.8727C31.167 34.8894 31.1593 34.9059 31.1513 34.9224C31.1376 34.9512 31.1233 34.9798 31.1085 35.0081C31.1005 35.0237 31.0923 35.0394 31.084 35.055C31.0675 35.0861 31.0502 35.1163 31.0327 35.1468C31.0258 35.1586 31.0192 35.1709 31.0121 35.1827C30.9871 35.2245 30.9612 35.266 30.9346 35.3066C30.9308 35.3121 30.9269 35.3176 30.9233 35.3231C30.9 35.358 30.8761 35.3926 30.8517 35.4264C30.8423 35.4393 30.8327 35.4519 30.8231 35.4648C30.8036 35.4912 30.7835 35.5173 30.7632 35.5431C30.7522 35.5568 30.7412 35.5706 30.73 35.584C30.7097 35.6087 30.6893 35.6329 30.6685 35.6571C30.6572 35.67 30.6459 35.6829 30.6344 35.6958C30.6113 35.7216 30.5877 35.7469 30.5638 35.7719C30.5542 35.782 30.5449 35.7922 30.5352 35.8018C30.5015 35.8364 30.4671 35.8705 30.4317 35.9034C30.4281 35.9065 30.4246 35.9098 30.4213 35.9128C30.3894 35.9424 30.357 35.971 30.324 35.9993C30.3122 36.0095 30.3001 36.0191 30.2883 36.029C30.2631 36.0501 30.2372 36.0707 30.2114 36.091C30.1977 36.1017 30.1837 36.1125 30.17 36.1229C30.1444 36.1418 30.1189 36.1605 30.093 36.1789C30.079 36.1888 30.065 36.1987 30.0508 36.2086C30.0227 36.2278 29.9942 36.2465 29.9656 36.2649C29.9535 36.2726 29.9417 36.2805 29.9294 36.288C29.8884 36.3135 29.847 36.3382 29.8047 36.3618C29.8016 36.3635 29.7986 36.3649 29.7956 36.3665C29.7566 36.3882 29.7168 36.4091 29.6767 36.4291C29.6629 36.436 29.6489 36.4426 29.6349 36.4492C29.6053 36.4637 29.5753 36.4778 29.5448 36.4912C29.5286 36.4984 29.5124 36.5052 29.4959 36.5124C29.4668 36.5244 29.4377 36.5363 29.4081 36.5478C29.3916 36.5544 29.3751 36.5607 29.3586 36.5667C29.3268 36.5786 29.2946 36.5895 29.2625 36.6003C29.2482 36.6049 29.2342 36.6101 29.2196 36.6145C29.1732 36.6294 29.1263 36.6431 29.0787 36.6557C29.0768 36.6563 29.0749 36.6568 29.073 36.6574C29.0274 36.6692 28.9815 36.6799 28.9354 36.6901C28.92 36.6934 28.9041 36.6961 28.8884 36.6991C28.8554 36.7057 28.8222 36.712 28.789 36.7175C28.7708 36.7206 28.7527 36.7233 28.7343 36.7258C28.7025 36.7304 28.6703 36.7346 28.6382 36.7384C28.6198 36.7406 28.6017 36.7425 28.583 36.7444C28.5486 36.7477 28.5143 36.7502 28.4797 36.7524C28.4635 36.7535 28.4476 36.7549 28.4314 36.7557C28.3808 36.7585 28.33 36.7598 28.2789 36.7598C28.2144 36.7598 28.1496 36.7574 28.085 36.7532C28.0732 36.7524 28.0614 36.7519 28.0499 36.751C27.9142 36.7409 27.7791 36.7225 27.6453 36.6947C27.6439 36.6945 27.6423 36.6942 27.6409 36.6939C27.5733 36.6796 27.506 36.6631 27.439 36.6445C26.3484 36.3396 25.487 35.4566 25.1893 34.3368ZM28.5234 38.8305C28.5382 38.8299 28.5528 38.8294 28.5676 38.8286C28.6453 38.8242 28.7225 38.8181 28.7994 38.8104C28.8142 38.8091 28.8291 38.8074 28.8442 38.8058C28.923 38.797 29.0016 38.7874 29.0796 38.775C29.0826 38.7747 29.0859 38.7739 29.0889 38.7736C29.165 38.7615 29.2405 38.7475 29.3158 38.7321C29.3292 38.7294 29.343 38.7269 29.3567 38.7239C29.4308 38.7083 29.5042 38.6909 29.5772 38.6723C29.5921 38.6684 29.6066 38.6643 29.6215 38.6605C29.6959 38.6404 29.7698 38.6195 29.8428 38.5965C29.8483 38.5945 29.8538 38.5926 29.8593 38.591C29.9294 38.5685 29.9988 38.5443 30.0675 38.519C30.0801 38.5143 30.0928 38.5102 30.1051 38.5053C30.1749 38.4792 30.2436 38.4514 30.312 38.4223C30.3262 38.4163 30.3405 38.41 30.3551 38.4037C30.424 38.3734 30.4924 38.3424 30.5597 38.3094C30.5668 38.3059 30.5737 38.3023 30.5806 38.2987C30.6448 38.2672 30.708 38.2342 30.7706 38.1999C30.7816 38.1938 30.7929 38.1878 30.8039 38.1817C30.8684 38.146 30.9319 38.1087 30.9948 38.0702C31.0082 38.062 31.0217 38.0535 31.0351 38.045C31.098 38.0057 31.1604 37.9653 31.2216 37.9236C31.2293 37.9181 31.237 37.9126 31.2447 37.9073C31.3024 37.8672 31.3595 37.8258 31.4155 37.7835C31.4251 37.7763 31.4348 37.7695 31.4441 37.7623C31.5026 37.7176 31.56 37.6717 31.6166 37.6245C31.6287 37.6143 31.6407 37.6041 31.6528 37.594C31.7094 37.5462 31.7649 37.4976 31.8193 37.4473C31.8272 37.4402 31.8347 37.433 31.8423 37.4259C31.8937 37.3778 31.9445 37.3289 31.994 37.2787C32.0014 37.2712 32.0091 37.2641 32.0162 37.2567C32.0681 37.2037 32.1189 37.1496 32.1686 37.0944C32.1791 37.0828 32.1892 37.0713 32.1997 37.0595C32.2488 37.0043 32.2969 36.948 32.3439 36.8906C32.351 36.8818 32.3579 36.8727 32.365 36.8639C32.4098 36.8082 32.4537 36.7519 32.4963 36.6942C32.5015 36.6873 32.5067 36.6805 32.512 36.6736C32.5144 36.6703 32.5169 36.667 32.5194 36.6637C32.5219 36.667 32.5243 36.67 32.5268 36.6736C32.532 36.6805 32.5372 36.6873 32.5424 36.6942C32.585 36.7519 32.629 36.8084 32.6737 36.8639C32.6809 36.8727 32.6877 36.8818 32.6949 36.8906C32.7419 36.948 32.7899 37.0043 32.8391 37.0595C32.8495 37.0713 32.8597 37.0828 32.8701 37.0944C32.9198 37.1496 32.9706 37.2037 33.0226 37.2567C33.0297 37.2641 33.0374 37.2712 33.0448 37.2787C33.0942 37.3289 33.1448 37.3778 33.1964 37.4259C33.2041 37.433 33.2118 37.4402 33.2195 37.4473C33.2739 37.4976 33.3293 37.5462 33.3859 37.594C33.3977 37.6041 33.4098 37.6143 33.4222 37.6245C33.4788 37.6717 33.5362 37.7176 33.5947 37.7623C33.604 37.7695 33.6136 37.7763 33.6232 37.7835C33.6793 37.8258 33.7361 37.8672 33.7941 37.9073C33.8018 37.9126 33.8094 37.9181 33.8171 37.9236C33.8784 37.9653 33.9407 38.0057 34.0036 38.045C34.0171 38.0535 34.0305 38.062 34.044 38.0702C34.1069 38.1087 34.1703 38.146 34.2349 38.1817C34.2459 38.1878 34.2571 38.1938 34.2681 38.1999C34.3307 38.2342 34.3939 38.2672 34.4579 38.2987C34.4651 38.3023 34.4719 38.3059 34.4791 38.3094C34.5464 38.3424 34.6147 38.3734 34.6837 38.4037C34.6982 38.41 34.7125 38.4163 34.7268 38.4223C34.7949 38.4514 34.8639 38.4792 34.9336 38.5053C34.946 38.5102 34.9586 38.5146 34.9713 38.519C35.0399 38.5443 35.1094 38.5685 35.1794 38.591C35.1849 38.5926 35.1904 38.5945 35.1959 38.5965C35.269 38.6195 35.3429 38.6404 35.4173 38.6605C35.4319 38.6643 35.4467 38.6684 35.4615 38.6723C35.5346 38.6909 35.6079 38.7083 35.6821 38.7239C35.6958 38.7269 35.7093 38.7294 35.723 38.7321C35.7982 38.7475 35.8735 38.7615 35.9499 38.7736C35.9529 38.7739 35.9562 38.7747 35.9592 38.775C36.0372 38.7874 36.1158 38.797 36.1946 38.8058C36.2097 38.8071 36.2245 38.8091 36.2393 38.8104C36.3163 38.8181 36.3934 38.8242 36.4712 38.8286C36.486 38.8294 36.5005 38.8299 36.5154 38.8305C36.5964 38.8343 36.678 38.8368 36.7598 38.8368C36.8419 38.8368 36.9232 38.8343 37.0045 38.8305C37.0191 38.8299 37.0339 38.8294 37.0485 38.8286C37.1262 38.8242 37.2034 38.8181 37.2803 38.8104C37.2954 38.8091 37.3102 38.8074 37.3251 38.8058C37.4042 38.797 37.4827 38.7874 37.5607 38.775C37.5638 38.7747 37.5668 38.7739 37.5701 38.7736C37.6461 38.7615 37.7217 38.7475 37.7967 38.7321C37.8104 38.7294 37.8241 38.7269 37.8376 38.7239C37.9117 38.7083 37.9854 38.6909 38.0581 38.6723C38.073 38.6684 38.0878 38.6643 38.1026 38.6605C38.1771 38.6404 38.2509 38.6195 38.324 38.5965C38.3295 38.5945 38.3347 38.5926 38.3402 38.591C38.4105 38.5685 38.4797 38.5443 38.5487 38.519C38.561 38.5143 38.5737 38.5102 38.5863 38.5053C38.6558 38.4792 38.7247 38.4514 38.7928 38.4223C38.8074 38.4163 38.8217 38.41 38.836 38.4037C38.9049 38.3734 38.9733 38.3424 39.0409 38.3094C39.0477 38.3059 39.0549 38.3023 39.0617 38.2987C39.1257 38.2672 39.1889 38.2342 39.2515 38.1999C39.2628 38.1938 39.274 38.1878 39.285 38.1817C39.3493 38.146 39.4128 38.1087 39.4756 38.0702C39.4894 38.062 39.5026 38.0535 39.5163 38.045C39.5792 38.0057 39.6415 37.9653 39.7028 37.9236C39.7105 37.9181 39.7182 37.9126 39.7259 37.9073C39.7835 37.8672 39.8404 37.8258 39.8967 37.7835C39.906 37.7763 39.9156 37.7695 39.925 37.7623C39.9835 37.7176 40.0409 37.6717 40.0977 37.6245C40.1098 37.6143 40.1219 37.6041 40.134 37.594C40.1903 37.5462 40.2461 37.4976 40.3004 37.4473C40.3081 37.4402 40.3156 37.433 40.3232 37.4259C40.3749 37.3778 40.4254 37.3289 40.4751 37.2787C40.4825 37.2712 40.49 37.2641 40.4974 37.2567C40.5493 37.2037 40.5998 37.1496 40.6495 37.0944C40.66 37.0828 40.6704 37.0713 40.6806 37.0595C40.7297 37.0043 40.7781 36.948 40.825 36.8906C40.8319 36.8818 40.8391 36.8727 40.8459 36.8639C40.8907 36.8082 40.9346 36.7519 40.9772 36.6942C40.9824 36.6873 40.9879 36.6805 40.9929 36.6736C40.9953 36.6703 40.9981 36.667 41.0005 36.6637C41.0027 36.667 41.0055 36.67 41.008 36.6736C41.0129 36.6805 41.0184 36.6873 41.0236 36.6942C41.0662 36.7519 41.1099 36.8084 41.1549 36.8639C41.1618 36.8727 41.1689 36.8818 41.1758 36.8906C41.2227 36.948 41.2711 37.0043 41.3203 37.0595C41.3304 37.0713 41.3409 37.0828 41.3513 37.0944C41.401 37.1496 41.4515 37.2037 41.5034 37.2567C41.5109 37.2641 41.5183 37.2712 41.5257 37.2787C41.5754 37.3289 41.6259 37.3778 41.6776 37.4259C41.6853 37.433 41.6927 37.4402 41.7004 37.4473C41.7548 37.4976 41.8105 37.5462 41.8668 37.594L41.9031 37.6245C41.9597 37.6717 42.0173 37.7176 42.0758 37.7623C42.0852 37.7695 42.0948 37.7763 42.1041 37.7835C42.1604 37.8258 42.2173 37.8672 42.275 37.9073C42.2829 37.9126 42.2903 37.9181 42.298 37.9236C42.3593 37.9653 42.4216 38.0057 42.4845 38.045C42.4983 38.0535 42.5117 38.062 42.5252 38.0702C42.5878 38.1087 42.6512 38.146 42.7158 38.1817C42.7268 38.1878 42.738 38.1938 42.7493 38.1999C42.8119 38.2342 42.8751 38.2672 42.9391 38.2987C42.946 38.3023 42.9531 38.3059 42.96 38.3094C43.0275 38.3424 43.0959 38.3734 43.1649 38.4037C43.1791 38.41 43.1934 38.4163 43.208 38.4223C43.2761 38.4514 43.345 38.4792 43.4145 38.5053C43.4272 38.5102 43.4398 38.5146 43.4521 38.519C43.5211 38.5443 43.5903 38.5685 43.6606 38.591C43.6661 38.5926 43.6716 38.5945 43.6768 38.5965C43.7499 38.6195 43.8238 38.6404 43.8982 38.6605C43.913 38.6643 43.9276 38.6684 43.9427 38.6723C44.0155 38.6909 44.0891 38.7083 44.1632 38.7239C44.1767 38.7269 44.1904 38.7294 44.2042 38.7321C44.2791 38.7475 44.3547 38.7615 44.4308 38.7736C44.4341 38.7739 44.4371 38.7747 44.4401 38.775C44.5181 38.7874 44.5966 38.797 44.6758 38.8058C44.6906 38.8071 44.7054 38.8091 44.7205 38.8104C44.7974 38.8181 44.8746 38.8242 44.9523 38.8286C44.9669 38.8294 44.9817 38.8299 44.9963 38.8305C45.0776 38.8343 45.1589 38.8368 45.241 38.8368C45.3228 38.8368 45.4044 38.8343 45.4854 38.8305C45.5003 38.8299 45.5148 38.8294 45.5297 38.8286C45.6074 38.8242 45.6846 38.8181 45.7615 38.8104C45.7763 38.8091 45.7911 38.8074 45.8062 38.8058C45.8851 38.797 45.9639 38.7874 46.0416 38.775C46.0446 38.7747 46.0479 38.7739 46.051 38.7736C46.127 38.7615 46.2026 38.7475 46.2778 38.7321C46.2916 38.7294 46.305 38.7269 46.3188 38.7239C46.3929 38.7083 46.4665 38.6909 46.5393 38.6723C46.5541 38.6684 46.569 38.6643 46.5838 38.6605C46.658 38.6404 46.7318 38.6195 46.8049 38.5965C46.8104 38.5945 46.8159 38.5926 46.8214 38.591C46.8914 38.5685 46.9609 38.5443 47.0296 38.519C47.0422 38.5143 47.0548 38.5102 47.0672 38.5053C47.137 38.4792 47.2059 38.4514 47.274 38.4223C47.2883 38.4163 47.3026 38.41 47.3171 38.4037C47.3861 38.3734 47.4545 38.3424 47.5218 38.3094C47.5289 38.3059 47.5358 38.3023 47.5429 38.2987C47.6069 38.2672 47.6701 38.2342 47.7327 38.1999C47.7437 38.1938 47.7549 38.1878 47.7659 38.1817C47.8305 38.146 47.8939 38.1087 47.9568 38.0702C47.9703 38.062 47.9837 38.0535 47.9972 38.045C48.0601 38.0057 48.1224 37.9653 48.1837 37.9236C48.1914 37.9181 48.1991 37.9126 48.2068 37.9073C48.2647 37.8672 48.3216 37.8258 48.3776 37.7835C48.3872 37.7763 48.3968 37.7695 48.4062 37.7623C48.4647 37.7176 48.5221 37.6717 48.5786 37.6245C48.591 37.6143 48.6028 37.6041 48.6152 37.594C48.6715 37.5462 48.727 37.4976 48.7813 37.4473C48.7893 37.4402 48.7967 37.433 48.8044 37.4259C48.8558 37.3778 48.9066 37.3289 48.956 37.2787C48.9634 37.2712 48.9711 37.2641 48.9783 37.2567C49.0302 37.2037 49.081 37.1496 49.1307 37.0944C49.1411 37.0828 49.1513 37.0713 49.1617 37.0595C49.2109 37.0043 49.259 36.948 49.3059 36.8906C49.3131 36.8818 49.3199 36.8727 49.3271 36.8639C49.3719 36.8082 49.4158 36.7519 49.4584 36.6942C49.4636 36.6873 49.4688 36.6805 49.474 36.6736C49.4765 36.6703 49.479 36.667 49.4814 36.6637C49.4839 36.667 49.4864 36.67 49.4889 36.6736C49.4941 36.6805 49.4993 36.6873 49.5045 36.6942C49.5474 36.7519 49.591 36.8084 49.6358 36.8639C49.6429 36.8727 49.6498 36.8818 49.657 36.8906C49.7039 36.948 49.752 37.0043 49.8011 37.0595C49.8116 37.0713 49.8217 37.0828 49.8325 37.0944C49.8819 37.1496 49.9327 37.2037 49.9846 37.2567C49.992 37.2641 49.9995 37.2712 50.0069 37.2787C50.0563 37.3289 50.1068 37.3778 50.1585 37.4259C50.1662 37.433 50.1739 37.4402 50.1815 37.4473C50.2359 37.4976 50.2914 37.5462 50.348 37.594C50.3598 37.6041 50.3722 37.6143 50.3842 37.6245C50.4408 37.6717 50.4982 37.7176 50.5567 37.7623C50.5661 37.7695 50.5757 37.7763 50.5853 37.7835C50.6413 37.8258 50.6985 37.8672 50.7561 37.9073C50.7638 37.9126 50.7715 37.9181 50.7792 37.9236C50.8405 37.9653 50.9028 38.0057 50.9657 38.045C50.9792 38.0535 50.9926 38.062 51.0061 38.0702C51.069 38.1087 51.1324 38.146 51.197 38.1817C51.2079 38.1878 51.2192 38.1938 51.2302 38.1999C51.2928 38.2342 51.356 38.2672 51.4203 38.2987C51.4271 38.3023 51.434 38.3059 51.4411 38.3094C51.5084 38.3424 51.5768 38.3734 51.646 38.4037C51.6603 38.41 51.6746 38.4163 51.6889 38.4223C51.7573 38.4514 51.8259 38.4792 51.8957 38.5053C51.9081 38.5102 51.9207 38.5146 51.9333 38.519C52.002 38.5443 52.0715 38.5685 52.1415 38.591C52.147 38.5926 52.1525 38.5945 52.158 38.5965C52.231 38.6195 52.3049 38.6404 52.3794 38.6605C52.3942 38.6643 52.4088 38.6684 52.4236 38.6723C52.4966 38.6909 52.5703 38.7083 52.6441 38.7239C52.6579 38.7269 52.6716 38.7294 52.6851 38.7321C52.7603 38.7475 52.8356 38.7615 52.9119 38.7736C52.9149 38.7739 52.9182 38.7747 52.9213 38.775C52.9993 38.7874 53.0778 38.797 53.1569 38.8058C53.1718 38.8071 53.1866 38.8091 53.2014 38.8104C53.2783 38.8181 53.3555 38.8242 53.4332 38.8286C53.4481 38.8294 53.4626 38.8299 53.4774 38.8305C53.5585 38.8343 53.64 38.8368 53.7219 38.8368C53.7507 38.8368 53.7796 38.8365 53.8084 38.836V50.2598H39.9615V43.6829C39.9615 41.9651 38.5641 40.5677 36.8461 40.5677H34.077C32.359 40.5677 30.9615 41.9651 30.9615 43.6829V50.2598H28.1924V38.836C28.2213 38.8365 28.2501 38.8368 28.2789 38.8368C28.3608 38.8368 28.4424 38.8343 28.5234 38.8305ZM37.8846 50.2598H33.0385V43.6829C33.0385 43.1105 33.5043 42.6444 34.077 42.6444H36.8461C37.4187 42.6444 37.8846 43.1105 37.8846 43.6829V50.2598ZM55.7115 54.7598H26.2885C25.6205 54.7598 25.077 54.2163 25.077 53.5483C25.077 52.8803 25.6205 52.3368 26.2885 52.3368H55.7115C56.3795 52.3368 56.923 52.8803 56.923 53.5483C56.923 54.2163 56.3795 54.7598 55.7115 54.7598Z" fill="white"/>
<path d="M45.1539 46.7983H47.923C49.641 46.7983 51.0385 45.4008 51.0385 43.6829C51.0385 41.9651 49.641 40.5677 47.923 40.5677H45.1539C43.4359 40.5677 42.0385 41.9651 42.0385 43.6829C42.0385 45.4008 43.4359 46.7983 45.1539 46.7983ZM45.1539 42.6444H47.923C48.4957 42.6444 48.9615 43.1105 48.9615 43.6829C48.9615 44.2555 48.4957 44.7213 47.923 44.7213H45.1539C44.5813 44.7213 44.1154 44.2555 44.1154 43.6829C44.1154 43.1105 44.5813 42.6444 45.1539 42.6444Z" fill="white"/>
<path d="M51.0385 26.3753C51.0385 25.8018 50.5735 25.3368 50 25.3368H32C31.4265 25.3368 30.9615 25.8018 30.9615 26.3753C30.9615 26.9488 31.4265 27.4138 32 27.4138H50C50.5735 27.4138 51.0385 26.9488 51.0385 26.3753Z" fill="white"/>
</g>
<defs>
<clipPath id="clip0">
<rect width="36" height="36" fill="white" transform="translate(23 20.8368)"/>
</clipPath>
</defs>
</svg>
