<svg width="62" height="63" viewBox="0 0 62 63" fill="none" xmlns="http://www.w3.org/2000/svg">
<circle cx="31" cy="31.9253" r="31" fill="#6945A5"/>
<g clip-path="url(#clip0)">
<path d="M31 31.1689C31.2404 31.1689 31.4709 31.2644 31.6408 31.4344C31.8108 31.6043 31.9062 31.8348 31.9062 32.0752V34.7939H34.625C34.8654 34.7939 35.0959 34.8894 35.2658 35.0594C35.4358 35.2293 35.5312 35.4598 35.5312 35.7002C35.5312 35.9405 35.4358 36.1711 35.2658 36.341C35.0959 36.511 34.8654 36.6064 34.625 36.6064H31.9062V39.3252C31.9062 39.5655 31.8108 39.7961 31.6408 39.966C31.4709 40.136 31.2404 40.2314 31 40.2314C30.7596 40.2314 30.5291 40.136 30.3592 39.966C30.1892 39.7961 30.0938 39.5655 30.0938 39.3252V36.6064H27.375C27.1346 36.6064 26.9041 36.511 26.7342 36.341C26.5642 36.1711 26.4688 35.9405 26.4688 35.7002C26.4688 35.4598 26.5642 35.2293 26.7342 35.0594C26.9041 34.8894 27.1346 34.7939 27.375 34.7939H30.0938V32.0752C30.0938 31.8348 30.1892 31.6043 30.3592 31.4344C30.5291 31.2644 30.7596 31.1689 31 31.1689Z" fill="white"/>
<path d="M22.8438 18.4814C23.0841 18.4814 23.3146 18.5769 23.4846 18.7469C23.6545 18.9168 23.75 19.1473 23.75 19.3877V20.2939H38.25V19.3877C38.25 19.1473 38.3455 18.9168 38.5154 18.7469C38.6854 18.5769 38.9159 18.4814 39.1562 18.4814C39.3966 18.4814 39.6271 18.5769 39.7971 18.7469C39.967 18.9168 40.0625 19.1473 40.0625 19.3877V20.2939H41.875C42.8364 20.2939 43.7584 20.6759 44.4383 21.3557C45.1181 22.0355 45.5 22.9575 45.5 23.9189V43.8564C45.5 44.8179 45.1181 45.7399 44.4383 46.4197C43.7584 47.0995 42.8364 47.4814 41.875 47.4814H20.125C19.1636 47.4814 18.2416 47.0995 17.5617 46.4197C16.8819 45.7399 16.5 44.8179 16.5 43.8564V23.9189C16.5 22.9575 16.8819 22.0355 17.5617 21.3557C18.2416 20.6759 19.1636 20.2939 20.125 20.2939H21.9375V19.3877C21.9375 19.1473 22.033 18.9168 22.2029 18.7469C22.3729 18.5769 22.6034 18.4814 22.8438 18.4814V18.4814ZM18.3125 25.7314V43.8564C18.3125 44.3372 18.5035 44.7982 18.8434 45.1381C19.1833 45.478 19.6443 45.6689 20.125 45.6689H41.875C42.3557 45.6689 42.8167 45.478 43.1566 45.1381C43.4965 44.7982 43.6875 44.3372 43.6875 43.8564V25.7314H18.3125Z" fill="white"/>
</g>
<defs>
<clipPath id="clip0">
<rect width="29" height="29" fill="white" transform="translate(16.5 18.4814)"/>
</clipPath>
</defs>
</svg>
