<svg width="62" height="63" viewBox="0 0 62 63" fill="none" xmlns="http://www.w3.org/2000/svg">
<circle cx="31" cy="31.1982" r="31" fill="#6945A5"/>
<path fill-rule="evenodd" clip-rule="evenodd" d="M30.9999 17.0146C30.6816 17.0146 30.3764 17.1411 30.1513 17.3661C29.9263 17.5912 29.7999 17.8964 29.7999 18.2146V23.4274C29.7999 23.7457 29.9263 24.0509 30.1513 24.276C30.3764 24.501 30.6816 24.6274 30.9999 24.6274C31.3181 24.6274 31.6233 24.501 31.8484 24.276C32.0734 24.0509 32.1999 23.7457 32.1999 23.4274V19.4674C35.2257 19.7365 38.0736 21.0139 40.2869 23.0947C42.5002 25.1755 43.9507 27.9392 44.4058 30.9428C44.8609 33.9463 44.2942 37.0157 42.7967 39.6588C41.2991 42.3018 38.9574 44.3655 36.1471 45.5188C33.3367 46.6722 30.2204 46.8484 27.2979 46.0194C24.3754 45.1903 21.816 43.4038 20.03 40.9465C18.2439 38.4892 17.3348 35.5033 17.4483 32.4675C17.5618 29.4318 18.6913 26.5222 20.6559 24.205C20.7629 24.0857 20.845 23.9461 20.8973 23.7945C20.9495 23.6429 20.9708 23.4824 20.9599 23.3224C20.9491 23.1624 20.9063 23.0062 20.834 22.8631C20.7618 22.7199 20.6616 22.5927 20.5394 22.4889C20.4171 22.3851 20.2754 22.3069 20.1224 22.2588C19.9694 22.2108 19.8084 22.1938 19.6487 22.2091C19.4891 22.2243 19.3342 22.2714 19.193 22.3475C19.0519 22.4236 18.9275 22.5272 18.8271 22.6522C16.4753 25.4256 15.141 28.9188 15.0451 32.5538C14.9492 36.1887 16.0974 39.7475 18.2998 42.6409C20.5021 45.5344 23.6264 47.589 27.1556 48.4648C30.6847 49.3406 34.4072 48.985 37.7067 47.4569C41.0063 45.9288 43.6851 43.3197 45.2998 40.0617C46.9144 36.8036 47.3681 33.0918 46.5858 29.5408C45.8034 25.9897 43.8319 22.8123 40.9976 20.5344C38.1633 18.2565 34.6361 17.0147 30.9999 17.0146ZM29.1759 34.3666L23.1375 25.9498C23.0571 25.8343 23.0198 25.6942 23.0323 25.554C23.0448 25.4138 23.1062 25.2824 23.2057 25.1829C23.3052 25.0834 23.4366 25.022 23.5768 25.0095C23.717 24.997 23.8571 25.0343 23.9727 25.1146L32.3943 31.1506C32.6652 31.3457 32.8906 31.5974 33.0546 31.8882C33.2187 32.179 33.3177 32.5019 33.3446 32.8347C33.3715 33.1675 33.3257 33.5022 33.2105 33.8156C33.0953 34.129 32.9133 34.4135 32.6772 34.6496C32.4411 34.8857 32.1566 35.0677 31.8432 35.1829C31.5298 35.2981 31.1951 35.3439 30.8623 35.317C30.5295 35.29 30.2066 35.1911 29.9158 35.027C29.625 34.8629 29.3733 34.6376 29.1783 34.3666H29.1759Z" fill="white"/>
</svg>
