<svg width="62" height="63" viewBox="0 0 62 63" fill="none" xmlns="http://www.w3.org/2000/svg">
<circle cx="31" cy="31.3784" r="31" fill="#6945A5"/>
<path d="M15.25 18.2534V20.8784H44.125V41.8784H25.75V44.5034H49.375V41.8784H46.75V18.2534H15.25ZM20.5026 22.1909C19.1115 22.1958 17.7787 22.7504 16.7947 23.7338C15.8108 24.7172 15.2555 26.0498 15.25 27.4409C15.25 30.3271 17.6178 32.6909 20.5026 32.6909C21.8931 32.6854 23.2249 32.1304 24.2079 31.147C25.1908 30.1635 25.7452 28.8314 25.75 27.4409C25.75 24.5574 23.3849 22.1909 20.5026 22.1909ZM28.375 23.5034V26.1284H34.9375V23.5034H28.375ZM37.5625 23.5034V26.1284H41.5V23.5034H37.5625ZM20.5026 24.8159C21.9647 24.8159 23.125 25.9749 23.125 27.4409C23.125 28.9109 21.9661 30.0659 20.5026 30.0659C19.0326 30.0659 17.875 28.9109 17.875 27.4409C17.875 25.9749 19.0339 24.8159 20.5026 24.8159ZM28.375 28.7534V31.3784H41.5V28.7534H28.375ZM15.25 34.0034V44.5034H17.875V36.6284H21.8125V44.5034H24.4375V37.492L27.1465 38.9253C27.9143 39.3322 28.837 39.3309 29.6035 38.9253V38.9279L34.2366 36.4775L33.0121 34.1544L28.3776 36.6048L24.3141 34.4602C23.747 34.1606 23.1154 34.0038 22.474 34.0034H15.25Z" fill="white"/>
</svg>
