<svg width="62" height="63" viewBox="0 0 62 63" fill="none" xmlns="http://www.w3.org/2000/svg">
<circle cx="31" cy="31.248" r="31" fill="#6945A5"/>
<path d="M43.4596 41.748L38.226 36.505L43.4596 41.748ZM41.1263 29.498C41.1263 32.128 40.0815 34.6504 38.2218 36.5101C36.362 38.3698 33.8397 39.4146 31.2096 39.4146C28.5796 39.4146 26.0572 38.3698 24.1975 36.5101C22.3378 34.6504 21.293 32.128 21.293 29.498C21.293 26.8679 22.3378 24.3456 24.1975 22.4858C26.0572 20.6261 28.5796 19.5813 31.2096 19.5813C33.8397 19.5813 36.362 20.6261 38.2218 22.4858C40.0815 24.3456 41.1263 26.8679 41.1263 29.498V29.498Z" stroke="white" stroke-width="2" stroke-linecap="round"/>
</svg>
