<svg width="114" height="100" viewBox="0 0 114 100" fill="none" xmlns="http://www.w3.org/2000/svg">
<path d="M113.03 39.6462C113.03 60.4266 96.16 77.2736 75.3484 77.2736C54.5369 77.2736 37.667 60.4266 37.667 39.6462C37.667 18.8658 54.5369 2.0188 75.3484 2.0188C96.16 2.0188 113.03 18.8658 113.03 39.6462Z" fill="#F6F5FF" stroke="#2F0A62"/>
<mask id="mask0" style="mask-type:alpha" maskUnits="userSpaceOnUse" x="37" y="0" width="77" height="77">
<path d="M75.3484 76.7736C96.4354 76.7736 113.53 59.7034 113.53 38.6462C113.53 17.589 96.4354 0.518799 75.3484 0.518799C54.2614 0.518799 37.167 17.589 37.167 38.6462C37.167 59.7034 54.2614 76.7736 75.3484 76.7736Z" fill="#C4C4C4"/>
</mask>
<g mask="url(#mask0)">
<path d="M46.2676 93.3073L63.409 95.0477C63.409 95.0477 64.1907 81.0168 64.1907 74.3243C64.1907 66.2503 63.4988 55.7451 62.5196 55.9694C59.7615 56.6063 56.0512 58.1224 53.8412 61.1546C46.1959 71.6509 46.2676 93.3073 46.2676 93.3073Z" fill="#F7A09C"/>
<path d="M95.9939 97.407C96.014 95.4832 96.155 93.5626 96.4161 91.6565C97.2247 87.4042 98.2129 59.1271 95.4728 58.3287C91.5379 57.1229 87.5032 56.2703 83.4165 55.7808C79.6343 55.3861 64.9457 55.1618 62.3225 56.041C58.2467 60.8321 55.6091 66.6754 54.7132 72.8978C54.5784 73.8577 53.5003 84.6142 52.2246 97.407H95.9939Z" fill="#EC665A"/>
<path d="M117.707 86.8839L102.857 96.8419C102.857 96.8419 94.4838 84.4079 89.9919 79.9761C84.368 74.4319 92.0491 57.4495 95.6696 58.4453C103.782 60.5536 117.707 86.8839 117.707 86.8839Z" fill="#F7A09C"/>
<path d="M69.9402 12.4952C69.9402 12.4952 75.025 7.11245 79.1216 13.6524C80.0278 13.1562 81.0892 13.0229 82.0903 13.2794C83.0914 13.536 83.9571 14.1633 84.5119 15.034C84.5119 15.034 90.2078 13.3205 91.5913 21.8252C91.5913 21.8252 94.52 21.2779 94.9063 24.7497C95.1509 26.7872 94.6603 28.8451 93.5228 30.5541C93.5228 30.5541 95.1668 31.7832 94.4212 34.9859C94.2883 35.7289 93.9454 36.4185 93.4329 36.9733C92.9203 37.5281 92.2594 37.9248 91.5284 38.1168C91.5284 38.1168 90.9263 42.7011 88.9319 44.0826C87.5134 44.9078 85.8341 45.1643 84.2334 44.8003C84.2334 44.8003 83.5148 47.2853 81.188 47.061C78.8612 46.8368 75.9954 44.6298 73.399 45.6256C70.8027 46.6214 64.0467 45.5718 64.0467 45.5718C64.0467 45.5718 56.4734 42.1987 58.7463 34.4745C58.7463 34.4745 54.7574 30.886 58.2432 26.5799C58.2432 26.5799 55.7008 19.8425 60.7317 15.8683C65.7627 11.8941 69.9402 12.4952 69.9402 12.4952Z" fill="#1A1A1A"/>
<path d="M70.8392 48.8554L69.9408 55.6825C69.9408 55.6825 67.8835 65.5508 70.5337 67.4078C73.1839 69.2648 81.8175 55.4044 81.8175 55.4044L80.9191 38.1169L70.8392 48.8554Z" fill="#F5BD9B"/>
<path d="M81.1344 43.7147C78.9423 49.6088 73.7228 53.2331 70.0215 54.6416L70.803 48.8552L80.8468 38.0898L81.1344 43.7147Z" fill="#E47B60"/>
<path d="M94.9697 26.3645C94.9697 28.9931 93.4692 31.1282 91.6185 31.1282C89.7679 31.1282 88.2676 28.9931 88.2676 26.3645C88.2676 23.736 89.7679 21.6008 91.6185 21.6008C93.4692 21.6008 94.9697 23.736 94.9697 26.3645Z" fill="#1A1A1A"/>
<path d="M80.8462 18.8557C83.0988 18.8557 84.9249 17.6307 84.9249 16.1195C84.9249 14.6083 83.0988 13.3833 80.8462 13.3833C78.5936 13.3833 76.7676 14.6083 76.7676 16.1195C76.7676 17.6307 78.5936 18.8557 80.8462 18.8557Z" fill="#1A1A1A"/>
<path d="M74.711 19.9501C73.4476 19.5251 72.1063 19.3813 70.7814 19.5288C69.4565 19.6764 68.1801 20.1116 67.0415 20.804C65.903 21.4965 64.9299 22.4293 64.1906 23.5371C63.4514 24.6449 62.9639 25.9008 62.7623 27.2167C62.3265 30.1163 62.0803 33.0411 62.0256 35.9726C61.8729 43.939 66.0054 51.6901 69.6349 51.6901C73.2644 51.6901 83.2725 46.5317 83.6319 35.2191C83.8565 28.2395 80.3618 21.8969 74.711 19.9501Z" fill="#F5BD9B"/>
<path d="M80.9639 36.1164C80.9639 37.9106 82.1317 39.3011 83.5691 39.3011C85.0065 39.3011 86.1746 37.8747 86.1746 36.1164C86.1746 34.358 85.0065 32.9316 83.5691 32.9316C82.1317 32.9316 80.9639 34.358 80.9639 36.1164Z" fill="#F5BD9B"/>
<path d="M59.0153 15.9848C55.2691 18.9453 53.9574 23.4488 56.0866 26.0325C58.2158 28.6162 62.9681 28.3201 66.7054 25.3596C70.4427 22.3992 71.7633 17.9046 69.6342 15.3119C67.505 12.7193 62.7526 13.0243 59.0153 15.9848Z" fill="#1A1A1A"/>
<path d="M68.7988 18.416C68.7988 19.6989 70.3531 20.7485 72.2757 20.7485C74.1983 20.7485 75.7524 19.6989 75.7524 18.416C75.7524 17.1331 74.1893 16.0835 72.2757 16.0835C70.3621 16.0835 68.7988 17.1241 68.7988 18.416Z" fill="#1A1A1A"/>
<path d="M58.459 28.3204C58.4661 28.9043 58.646 29.4731 58.976 29.9552C59.306 30.4373 59.7716 30.8112 60.3139 31.0298C60.8562 31.2484 61.4511 31.3019 62.0238 31.1836C62.5965 31.0654 63.1214 30.7806 63.5324 30.3652C63.9434 29.9498 64.2223 29.4223 64.3338 28.849C64.4453 28.2757 64.3844 27.6823 64.159 27.1434C63.9336 26.6045 63.5537 26.1443 63.067 25.8206C62.5802 25.4968 62.0086 25.324 61.4237 25.324C61.0321 25.3263 60.6446 25.4057 60.2837 25.5576C59.9227 25.7094 59.5952 25.9308 59.3199 26.209C59.0446 26.4873 58.827 26.8169 58.6792 27.1792C58.5315 27.5415 58.4567 27.9292 58.459 28.3204Z" fill="#1A1A1A"/>
<path d="M65.8343 42.9521L72.9226 43.2303C72.8213 44.0314 72.4103 44.7613 71.7775 45.2641C71.1447 45.7669 70.3403 46.0029 69.5357 45.9216C65.7266 45.8409 65.8343 42.9521 65.8343 42.9521Z" fill="#EFFAFD"/>
</g>
<g clip-path="url(#clip0)">
<path d="M21.5 99.264C33.3741 99.264 43 89.6402 43 77.7688C43 65.8973 33.3741 56.2736 21.5 56.2736C9.62588 56.2736 0 65.8973 0 77.7688C0 89.6402 9.62588 99.264 21.5 99.264Z" fill="#6349A0"/>
<path d="M22.3719 63.7939H21.375V68.8268H22.3719V63.7939Z" fill="#FFA03E"/>
<path d="M7.21767 83.9157C8.827 83.9157 10.1316 82.6084 10.1316 80.9959C10.1316 79.3833 8.827 78.076 7.21767 78.076C5.60833 78.076 4.30371 79.3833 4.30371 80.9959C4.30371 82.6084 5.60833 83.9157 7.21767 83.9157Z" fill="white"/>
<path d="M36.6835 83.714C38.2928 83.714 39.5974 82.4068 39.5974 80.7942C39.5974 79.1816 38.2928 77.8744 36.6835 77.8744C35.0742 77.8744 33.7695 79.1816 33.7695 80.7942C33.7695 82.4068 35.0742 83.714 36.6835 83.714Z" fill="white"/>
<path d="M22.3054 67.7703C22.3054 67.7703 34.1722 67.6262 36.0509 77.932C37.9296 88.2378 27.8937 88.4203 25.0085 88.6124C23.7049 88.6988 20.906 88.7084 18.433 88.67C12.9597 88.574 9.09682 87.5079 7.78363 82.427C7.62624 81.8297 7.52673 81.2186 7.48648 80.6021C7.13182 75.0314 10.8988 67.5014 22.3054 67.7703Z" fill="white"/>
<path d="M13.6974 83.4547L30.9511 83.7236C31.3803 83.73 31.8066 83.6515 32.2056 83.4928C32.6046 83.334 32.9685 83.0981 33.2765 82.7984C33.5845 82.4987 33.8305 82.1412 34.0006 81.7462C34.1706 81.3512 34.2614 80.9266 34.2677 80.4965C34.274 80.0663 34.1957 79.6392 34.0373 79.2394C33.8788 78.8396 33.6434 78.475 33.3443 78.1664C33.0452 77.8578 32.6884 77.6112 32.2942 77.4408C31.9 77.2704 31.4762 77.1795 31.0469 77.1733L13.7932 76.9043C13.3632 76.8967 12.9359 76.9742 12.5358 77.1324C12.1357 77.2905 11.7707 77.5263 11.4617 77.8261C11.1527 78.1259 10.9058 78.4839 10.7351 78.8795C10.5644 79.2751 10.4734 79.7005 10.4672 80.1315C10.4608 80.5624 10.5394 80.9903 10.6984 81.3907C10.8574 81.7912 11.0938 82.1562 11.3939 82.4649C11.694 82.7736 12.052 83.02 12.4472 83.1898C12.8425 83.3597 13.2674 83.4497 13.6974 83.4547Z" fill="#FFA03E"/>
<path d="M23.5125 63.6883C23.5144 64.0136 23.4199 64.3321 23.241 64.6034C23.062 64.8748 22.8067 65.0868 22.5074 65.2125C22.208 65.3383 21.8782 65.3722 21.5596 65.3099C21.241 65.2477 20.948 65.092 20.7178 64.8627C20.4876 64.6334 20.3306 64.3408 20.2666 64.0219C20.2026 63.7031 20.2344 63.3723 20.3582 63.0717C20.482 62.771 20.692 62.5139 20.9618 62.333C21.2315 62.1521 21.5488 62.0555 21.8734 62.0555C22.3065 62.0555 22.7219 62.2273 23.0291 62.5332C23.3362 62.8391 23.51 63.2544 23.5125 63.6883Z" fill="white"/>
</g>
<defs>
<clipPath id="clip0">
<rect width="43" height="43" fill="white" transform="translate(0 56.2736)"/>
</clipPath>
</defs>
</svg>
