<svg width="82" height="82" viewBox="0 0 82 82" fill="none" xmlns="http://www.w3.org/2000/svg">
<circle cx="41.231" cy="41.4811" r="40.5" fill="#6945A5"/>
<g clip-path="url(#clip0)">
<path d="M50.2949 27.2829C48.169 25.2799 44.5263 24.8227 41.2309 28.1181C37.9404 24.8259 34.2929 25.2799 32.167 27.2813C29.6906 29.6123 29.647 33.5119 32.0346 35.8994L41.2309 45.0974L50.4273 35.901C52.8149 33.5135 52.7712 29.6139 50.2949 27.2829ZM49.2852 34.7573L41.2309 42.8133L33.1766 34.7589C31.4288 33.0095 31.4627 30.1648 33.2752 28.4589C34.0473 27.7288 35.0812 27.3282 36.1861 27.3282C38.4993 27.3282 39.5396 28.7109 41.2309 30.4023C42.877 28.7562 43.9367 27.3282 46.2758 27.3282C47.3807 27.3282 48.4146 27.7288 49.1883 28.4573C50.9959 30.1599 51.0379 33.0046 49.2852 34.7573Z" fill="white"/>
<path d="M59.4703 27.3281C58.0471 27.3281 56.8663 28.3943 56.7241 29.8094L55.7016 39.9071C55.2089 40.0121 54.7566 40.2512 54.406 40.6017L46.2467 48.1973C45.124 49.2198 44.473 50.6785 44.4617 52.2034V61.2512H54.154V56.993C54.154 56.3356 54.4303 55.6959 54.931 55.221L61.0614 49.034C61.8158 48.2716 62.231 47.262 62.231 46.191V30.0888C62.231 28.5671 60.992 27.3281 59.4703 27.3281ZM60.6156 46.191C60.6156 46.8339 60.3668 47.4397 59.9129 47.8984L53.8019 54.066C52.999 54.8252 52.5387 55.8914 52.5387 56.993V59.6358H46.0771V52.2131C46.0852 51.1421 46.5423 50.1164 47.342 49.3894L55.5271 41.7664C55.7468 41.5467 56.0473 41.4385 56.3655 41.4708C56.5416 41.487 56.7952 41.55 57.0117 41.7664C57.2103 41.9651 57.3202 42.23 57.3202 42.5095C57.3202 42.789 57.2087 43.0539 57.0391 43.2251L50.7375 48.9404L51.823 50.1357L58.1537 44.393C58.6577 43.889 58.9356 43.2203 58.9356 42.5079C58.9356 41.7955 58.6593 41.1267 58.1553 40.6244C57.9098 40.3756 57.6239 40.185 57.3105 40.0541L58.3298 29.9741C58.3896 29.3861 58.8807 28.9435 59.4703 28.9435C60.1019 28.9435 60.6156 29.4572 60.6156 30.0888V46.191Z" fill="white"/>
<path d="M36.2152 48.1973L28.0559 40.6017C27.7053 40.2512 27.253 40.0105 26.7603 39.9071L25.7378 29.8094C25.5956 28.3943 24.4148 27.3281 22.9916 27.3281C21.47 27.3281 20.231 28.5671 20.231 30.0888V46.191C20.231 47.262 20.6461 48.2716 21.4005 49.0324L27.5309 55.2194C28.0316 55.6943 28.3079 56.3356 28.3079 56.993V61.2512H38.0002V52.2034C37.9905 50.6785 37.3379 49.2214 36.2152 48.1973ZM36.3848 59.6358H29.9233V56.993C29.9233 55.893 29.4629 54.8252 28.66 54.066L22.549 47.8984C22.0951 47.4397 21.8463 46.8339 21.8463 46.191V30.0888C21.8463 29.4572 22.36 28.9435 22.9916 28.9435C23.5813 28.9435 24.0723 29.3861 24.1321 29.9709L25.1514 40.0509C24.838 40.1834 24.5521 40.374 24.3066 40.6211C23.8042 41.1235 23.5263 41.7923 23.5263 42.5047C23.5263 43.217 23.8042 43.8858 24.3082 44.3898L30.6389 50.1325L31.7244 48.9371L25.4228 43.2219C25.2516 43.0507 25.1417 42.7874 25.1417 42.5063C25.1417 42.2252 25.2516 41.9619 25.4503 41.7632C25.6651 41.5467 25.9203 41.4837 26.0964 41.4676C26.4163 41.4369 26.7151 41.5435 26.9348 41.7632L35.12 49.3862C35.9196 50.1131 36.3767 51.1389 36.3848 52.2099V59.6358Z" fill="white"/>
</g>
<defs>
<clipPath id="clip0">
<rect width="42" height="42" fill="white" transform="translate(20.231 22.4811)"/>
</clipPath>
</defs>
</svg>
