<svg width="62" height="63" viewBox="0 0 62 63" fill="none" xmlns="http://www.w3.org/2000/svg">
<circle cx="31" cy="31.0657" r="31" fill="#6945A5"/>
<path d="M43.4596 43.2193L38.226 37.9763L43.4596 43.2193ZM41.1263 30.9693C41.1263 33.5993 40.0815 36.1217 38.2218 37.9814C36.362 39.8412 33.8397 40.8859 31.2096 40.8859C28.5796 40.8859 26.0572 39.8412 24.1975 37.9814C22.3378 36.1217 21.293 33.5993 21.293 30.9693C21.293 28.3392 22.3378 25.8169 24.1975 23.9571C26.0572 22.0974 28.5796 21.0526 31.2096 21.0526C33.8397 21.0526 36.362 22.0974 38.2218 23.9571C40.0815 25.8169 41.1263 28.3392 41.1263 30.9693V30.9693Z" stroke="white" stroke-width="2" stroke-linecap="round"/>
</svg>
