<svg width="62" height="63" viewBox="0 0 62 63" fill="none" xmlns="http://www.w3.org/2000/svg">
<circle cx="31" cy="31.5551" r="31" fill="#6945A5"/>
<path d="M31.5 18.1236C28.9401 18.1236 26.4253 18.7975 24.2084 20.0775C21.9915 21.3575 20.1506 23.1985 18.8707 25.4154C17.5908 27.6323 16.917 30.1471 16.917 32.707C16.917 35.2669 17.5908 37.7816 18.8708 39.9986C19.0642 40.3351 19.3833 40.5809 19.758 40.6821C20.1327 40.7833 20.5322 40.7315 20.8687 40.5382C21.2052 40.3448 21.4511 40.0256 21.5523 39.6509C21.6535 39.2763 21.6017 38.8767 21.4083 38.5402C20.375 36.77 19.8314 34.7567 19.8333 32.7069C19.834 30.9178 20.2461 29.1528 21.0379 27.5484C21.8297 25.9441 22.9798 24.5433 24.3994 23.4544C25.819 22.3655 27.47 21.6177 29.2248 21.2688C30.9795 20.9199 32.791 20.9792 34.5192 21.4422C36.2473 21.9052 37.8459 22.7595 39.1911 23.9389C40.5364 25.1184 41.5924 26.5915 42.2775 28.2442C42.9625 29.897 43.2583 31.6851 43.1419 33.4705C43.0255 35.2558 42.5001 36.9904 41.6062 38.5402C41.5098 38.7067 41.4472 38.8906 41.4222 39.0813C41.3971 39.272 41.41 39.4658 41.4602 39.6515C41.5103 39.8372 41.5967 40.0111 41.7144 40.1633C41.8321 40.3155 41.9787 40.4429 42.1458 40.5382C42.4806 40.7283 42.8771 40.7782 43.2487 40.6772C43.6202 40.5761 43.9367 40.3321 44.1291 39.9986C45.4091 37.7816 46.0829 35.2669 46.0829 32.707C46.0829 30.1471 45.4091 27.6323 44.1292 25.4154C42.8493 23.1985 41.0084 21.3575 38.7915 20.0775C36.5746 18.7975 34.0598 18.1236 31.5 18.1236ZM35.6416 26.5236L33.3812 28.7694C32.7961 28.4809 32.1523 28.3312 31.5 28.3319C30.6347 28.3319 29.7888 28.5885 29.0693 29.0692C28.3499 29.55 27.7891 30.2332 27.458 31.0327C27.1268 31.8321 27.0402 32.7118 27.209 33.5604C27.3778 34.4091 27.7945 35.1886 28.4064 35.8005C29.0182 36.4123 29.7978 36.829 30.6464 36.9978C31.4951 37.1666 32.3748 37.08 33.1742 36.7489C33.9736 36.4177 34.6569 35.857 35.1376 35.1375C35.6184 34.4181 35.875 33.5722 35.875 32.7069C35.8739 32.0594 35.7243 31.4208 35.4375 30.8402L37.6979 28.5944C37.8346 28.4588 37.9431 28.2975 38.0171 28.1198C38.0911 27.9421 38.1292 27.7515 38.1292 27.559C38.1292 27.3665 38.0911 27.1759 38.0171 26.9981C37.9431 26.8204 37.8346 26.6591 37.6979 26.5236C37.4246 26.252 37.055 26.0995 36.6697 26.0995C36.2845 26.0995 35.9149 26.252 35.6416 26.5236ZM31.5 34.1652C31.1132 34.1652 30.7422 34.0116 30.4688 33.7381C30.1953 33.4646 30.0416 33.0937 30.0416 32.7069C30.0416 32.3201 30.1953 31.9492 30.4688 31.6757C30.7422 31.4022 31.1132 31.2486 31.5 31.2486C31.8805 31.2463 32.2468 31.3928 32.5208 31.6569C32.6603 31.7937 32.771 31.9571 32.8461 32.1375C32.9213 32.3179 32.9594 32.5115 32.9583 32.7069C32.9583 33.0937 32.8046 33.4646 32.5312 33.7381C32.2577 34.0116 31.8867 34.1652 31.5 34.1652Z" fill="white"/>
</svg>
