<svg width="62" height="63" viewBox="0 0 62 63" fill="none" xmlns="http://www.w3.org/2000/svg">
<circle cx="31" cy="31.8101" r="31" fill="#6945A5"/>
<path d="M31.9998 17.4767C24.6478 17.4767 18.6665 23.4581 18.6665 30.8101V36.3341C18.6665 37.6994 19.8625 38.8101 21.3332 38.8101H22.6665C23.0201 38.8101 23.3593 38.6696 23.6093 38.4196C23.8594 38.1695 23.9998 37.8304 23.9998 37.4767V30.6194C23.9998 30.2658 23.8594 29.9267 23.6093 29.6766C23.3593 29.4266 23.0201 29.2861 22.6665 29.2861H21.4558C22.1972 24.1261 26.6372 20.1434 31.9998 20.1434C37.3625 20.1434 41.8025 24.1261 42.5438 29.2861H41.3332C40.9795 29.2861 40.6404 29.4266 40.3904 29.6766C40.1403 29.9267 39.9998 30.2658 39.9998 30.6194V38.8101C39.9998 40.2807 38.8038 41.4767 37.3332 41.4767H34.6665V40.1434H29.3332V44.1434H37.3332C40.2745 44.1434 42.6665 41.7514 42.6665 38.8101C44.1372 38.8101 45.3332 37.6994 45.3332 36.3341V30.8101C45.3332 23.4581 39.3518 17.4767 31.9998 17.4767Z" fill="white"/>
</svg>
