<svg width="62" height="63" viewBox="0 0 62 63" fill="none" xmlns="http://www.w3.org/2000/svg">
<circle cx="31" cy="31.2627" r="31" fill="#6945A5"/>
<path d="M31.9998 17.1566C24.6478 17.1566 18.6665 23.138 18.6665 30.49V36.014C18.6665 37.3793 19.8625 38.49 21.3332 38.49H22.6665C23.0201 38.49 23.3593 38.3495 23.6093 38.0995C23.8594 37.8494 23.9998 37.5103 23.9998 37.1566V30.2993C23.9998 29.9457 23.8594 29.6066 23.6093 29.3565C23.3593 29.1065 23.0201 28.966 22.6665 28.966H21.4558C22.1972 23.806 26.6372 19.8233 31.9998 19.8233C37.3625 19.8233 41.8025 23.806 42.5438 28.966H41.3332C40.9795 28.966 40.6404 29.1065 40.3904 29.3565C40.1403 29.6066 39.9998 29.9457 39.9998 30.2993V38.49C39.9998 39.9606 38.8038 41.1566 37.3332 41.1566H34.6665V39.8233H29.3332V43.8233H37.3332C40.2745 43.8233 42.6665 41.4313 42.6665 38.49C44.1372 38.49 45.3332 37.3793 45.3332 36.014V30.49C45.3332 23.138 39.3518 17.1566 31.9998 17.1566Z" fill="white"/>
</svg>
