<svg width="81" height="81" viewBox="0 0 81 81" fill="none" xmlns="http://www.w3.org/2000/svg">
<circle cx="40.5" cy="40.5" r="40.5" fill="#6945A5"/>
<g clip-path="url(#clip0)">
<path d="M57.4494 32.6122L57.4486 32.5741C57.4297 31.5768 57.4119 30.6349 57.4119 29.7287C57.4119 28.3559 56.295 27.2391 54.9222 27.2391C49.6106 27.2391 45.5792 25.7247 42.2352 22.4732C41.2619 21.5267 39.737 21.5266 38.7639 22.4731C35.42 25.7247 31.389 27.2391 26.0781 27.2391C24.7053 27.2391 23.5885 28.3559 23.5885 29.7287C23.5885 30.6543 23.5703 31.6056 23.551 32.613C23.4612 37.3156 23.3494 43.1681 25.3134 48.4806C26.3934 51.4018 28.0286 53.9404 30.1736 56.0259C32.6167 58.4011 35.8165 60.2853 39.6839 61.6258C39.9469 61.717 40.2213 61.7633 40.4994 61.7633C40.7779 61.7633 41.0524 61.717 41.3148 61.6259C45.1828 60.2852 48.3828 58.4011 50.8261 56.0257C52.9713 53.9401 54.6067 51.4015 55.6868 48.4802C57.651 43.1674 57.5392 37.3148 57.4494 32.6122ZM53.4886 47.6676C51.4173 53.2697 47.1842 57.1113 40.5465 59.4119C40.5162 59.4224 40.483 59.4226 40.4516 59.4117C33.8151 57.1114 29.5824 53.27 27.5114 47.668C25.7008 42.7705 25.8034 37.3979 25.8939 32.6577C25.9135 31.639 25.9319 30.6768 25.9319 29.7287C25.9319 29.6482 25.9974 29.5826 26.078 29.5826C32.0382 29.5826 36.5883 27.8574 40.3976 24.1532C40.4261 24.1254 40.4627 24.1115 40.4994 24.1115C40.536 24.1115 40.5727 24.1255 40.6013 24.1532C44.4108 27.8574 48.9614 29.5826 54.9222 29.5826C55.0027 29.5826 55.0683 29.6482 55.0683 29.7287C55.0683 30.6572 55.0864 31.6099 55.1056 32.6185L55.1063 32.6568V32.6569C55.1969 37.3971 55.2995 42.7698 53.4886 47.6676Z" fill="white"/>
<path d="M47.7806 37.8643H44.0104V34.0936C44.0104 33.4465 43.4857 32.9219 42.8386 32.9219H38.1622C37.5151 32.9219 36.9905 33.4465 36.9905 34.0936V37.8643H33.2195C32.5724 37.8643 32.0478 38.3889 32.0478 39.036V43.7125C32.0478 44.3596 32.5724 44.8842 33.2195 44.8842H36.9905V48.6548C36.9905 49.3019 37.5151 49.8266 38.1622 49.8266H42.8386C43.4857 49.8266 44.0104 49.3019 44.0104 48.6548V44.8842H47.7807C48.4278 44.8842 48.9524 44.3596 48.9524 43.7125V39.036C48.9523 38.3888 48.4277 37.8643 47.7806 37.8643ZM46.6089 42.5408H42.8386C42.1915 42.5408 41.6669 43.0654 41.6669 43.7125V47.4831H39.3339V43.7125C39.3339 43.0654 38.8093 42.5408 38.1622 42.5408H34.3912V40.2078H38.1622C38.8093 40.2078 39.3339 39.6831 39.3339 39.036V35.2653H41.6669V39.036C41.6669 39.6831 42.1915 40.2078 42.8386 40.2078H46.6089V42.5408H46.6089Z" fill="white"/>
</g>
<defs>
<clipPath id="clip0">
<rect width="40" height="40" fill="white" transform="translate(20.5 21.7633)"/>
</clipPath>
</defs>
</svg>
