<svg width="203" height="119" viewBox="0 0 203 119" fill="none" xmlns="http://www.w3.org/2000/svg">
<g clip-path="url(#clip0)">
<path d="M74 37.6115V65.2684C74 66.4584 74.2332 67.6367 74.6863 68.7361C75.1394 69.8355 75.8035 70.8345 76.6407 71.676C77.4779 72.5174 78.4718 73.1849 79.5657 73.6403C80.6596 74.0957 81.832 74.3301 83.0159 74.3301H181.696C184.087 74.3301 186.381 73.3756 188.073 71.6764C189.765 69.9771 190.716 67.6723 190.718 65.2684V41.8967L203 28.9102L83.0485 28.5367C81.8605 28.5315 80.6831 28.7626 79.5842 29.2165C78.4854 29.6705 77.4867 30.3384 76.6457 31.1819C75.8047 32.0253 75.138 33.0276 74.6839 34.1311C74.2299 35.2346 73.9974 36.4174 74 37.6115Z" fill="#5E4D9A"/>
<path d="M175.431 46.0901H147.483C147.255 46.0901 147.073 45.828 147.073 45.5135C147.073 45.199 147.255 44.9369 147.483 44.9369L175.431 44.9762C175.652 44.9762 175.835 45.2317 175.835 45.5462C175.835 45.8608 175.652 46.0901 175.431 46.0901Z" fill="white"/>
<path d="M175.431 52.2033L147.483 52.164C147.255 52.164 147.073 51.9084 147.073 51.5874C147.073 51.2663 147.255 51.0173 147.483 51.0173L175.431 51.0501C175.652 51.0501 175.835 51.3122 175.835 51.6267C175.835 51.9412 175.652 52.2033 175.431 52.2033Z" fill="white"/>
<path d="M175.431 59.0503H147.483C147.255 59.0503 147.073 58.7882 147.073 58.4737C147.073 58.1592 147.255 57.8971 147.483 57.8971L175.431 57.9364C175.652 57.9364 175.835 58.1919 175.835 58.5065C175.835 58.821 175.652 59.0503 175.431 59.0503Z" fill="white"/>
<path d="M109.079 69.0162C123.726 69.0162 135.599 57.3642 135.599 42.9908C135.599 28.6174 123.726 16.9655 109.079 16.9655C94.4328 16.9655 82.5596 28.6174 82.5596 42.9908C82.5596 57.3642 94.4328 69.0162 109.079 69.0162Z" fill="white"/>
<path d="M118.721 41.7067H99.2423C98.2666 41.7067 97.4756 42.5016 97.4756 43.4823V44.6748C97.4756 45.6555 98.2666 46.4505 99.2423 46.4505H118.721C119.697 46.4505 120.488 45.6555 120.488 44.6748V43.4823C120.488 42.5016 119.697 41.7067 118.721 41.7067Z" fill="#1E2E34"/>
<path d="M109.79 3.20581H108.18V11.3764H109.79V3.20581Z" fill="#1E2E34"/>
<path d="M90.075 32.1542C90.6778 29.6053 89.1106 27.0479 86.5745 26.442C84.0385 25.8362 81.494 27.4114 80.8912 29.9603C80.2884 32.5093 81.8557 35.0667 84.3917 35.6725C86.9278 36.2783 89.4723 34.7031 90.075 32.1542Z" fill="#FFA03E"/>
<path d="M137.769 31.7977C138.346 29.2426 136.752 26.7016 134.21 26.122C131.668 25.5425 129.14 27.1439 128.563 29.6989C127.986 32.2539 129.58 34.795 132.122 35.3746C134.664 35.9541 137.192 34.3527 137.769 31.7977Z" fill="#FFA03E"/>
<path d="M109.914 9.60082C109.914 9.60082 129.119 9.37149 132.157 26.0862C135.195 42.8008 118.956 43.1219 114.288 43.4298C112.169 43.574 107.639 43.5871 103.642 43.515C94.7895 43.3643 88.5377 41.6411 86.4059 33.3853C86.1551 32.4176 85.9958 31.4281 85.9301 30.4303C85.3694 21.3882 91.4583 9.15527 109.914 9.60082Z" fill="#FFA03E"/>
<path d="M95.109 36.0192L123.011 35.8947C123.706 35.8922 124.394 35.752 125.035 35.4822C125.676 35.2125 126.258 34.8184 126.748 34.3226C127.238 33.8267 127.626 33.2387 127.889 32.5922C128.153 31.9457 128.287 31.2534 128.285 30.5547C128.282 29.8555 128.143 29.1636 127.874 28.5186C127.605 27.8737 127.212 27.2883 126.718 26.796C126.224 26.3037 125.638 25.9141 124.994 25.6495C124.35 25.3849 123.661 25.2505 122.965 25.254L95.0699 25.3719C94.3742 25.3745 93.6858 25.5149 93.0441 25.785C92.4025 26.0552 91.8201 26.4499 91.3302 26.9464C90.8404 27.443 90.4528 28.0317 90.1895 28.679C89.9263 29.3262 89.7925 30.0193 89.796 30.7185C89.8029 32.129 90.3661 33.4792 91.3621 34.4729C92.3581 35.4666 93.7056 36.0227 95.109 36.0192Z" fill="#1E2E34"/>
<path d="M110.855 4.92059C111.888 3.88172 111.888 2.19738 110.855 1.15851C109.821 0.119641 108.145 0.119639 107.112 1.15851C106.078 2.19738 106.078 3.88172 107.112 4.92059C108.145 5.95946 109.821 5.95947 110.855 4.92059Z" fill="#FFA03E"/>
<path d="M118.526 31.0789C118.471 31.3534 118.337 31.6055 118.141 31.8035C117.944 32.0014 117.693 32.1363 117.42 32.191C117.147 32.2458 116.864 32.2179 116.606 32.111C116.349 32.0041 116.129 31.8228 115.974 31.5903C115.819 31.3577 115.737 31.0842 115.736 30.8044C115.736 30.5245 115.818 30.2509 115.973 30.018C116.127 29.7852 116.347 29.6036 116.604 29.4962C116.861 29.3888 117.144 29.3604 117.417 29.4146C117.599 29.4499 117.772 29.521 117.927 29.624C118.081 29.7269 118.214 29.8596 118.317 30.0144C118.42 30.1692 118.492 30.3429 118.527 30.5256C118.563 30.7084 118.563 30.8964 118.526 31.0789Z" fill="white"/>
<path d="M101.713 31.0789C101.659 31.3532 101.525 31.6053 101.329 31.8034C101.132 32.0014 100.882 32.1366 100.609 32.1918C100.337 32.2469 100.054 32.2197 99.7964 32.1134C99.539 32.0072 99.3188 31.8267 99.1634 31.5947C99.008 31.3627 98.9245 31.0897 98.9234 30.8101C98.9222 30.5305 99.0035 30.2568 99.157 30.0235C99.3105 29.7903 99.5293 29.608 99.7857 29.4996C100.042 29.3913 100.325 29.3617 100.598 29.4146C100.78 29.4499 100.954 29.5211 101.108 29.6239C101.263 29.7267 101.396 29.8593 101.5 30.0139C101.603 30.1686 101.675 30.3423 101.712 30.525C101.749 30.7078 101.749 30.896 101.713 31.0789Z" fill="white"/>
<path d="M108.877 108.382C127.358 108.382 142.34 95.2866 142.34 79.1328C142.34 62.979 127.358 49.8838 108.877 49.8838C90.3962 49.8838 75.4146 62.979 75.4146 79.1328C75.4146 95.2866 90.3962 108.382 108.877 108.382Z" fill="#FFA03E"/>
</g>
<g clip-path="url(#clip1)">
<path d="M29.8556 58.3873C25.8761 58.4419 21.9465 59.2731 18.2916 60.8333C14.6367 62.3934 11.3282 64.6519 8.55529 67.4796C5.78237 70.3073 3.59946 73.6487 2.1314 77.3127C0.663335 80.9767 -0.0610697 84.8914 -0.00038592 88.8329C0.122741 96.7828 3.42609 104.359 9.1843 109.899C14.9425 115.439 22.6849 118.488 30.7114 118.379L61.0261 117.95L60.5673 87.9591C60.5121 84.0197 59.6738 80.1297 58.1003 76.5113C56.5268 72.8929 54.249 69.6171 51.3969 66.8709C48.5449 64.1247 45.1745 61.962 41.4784 60.5064C37.7822 59.0507 33.8327 58.3306 29.8556 58.3873ZM12.9866 98.7863C11.2853 95.8186 10.3711 92.4722 10.3293 89.0597C10.2874 85.6472 11.1194 82.2799 12.7475 79.2721C14.3756 76.2644 16.7467 73.7143 19.6393 71.8602C22.532 70.006 25.8519 68.9081 29.289 68.6691C32.7261 68.4301 36.1683 69.0577 39.2941 70.4933C42.42 71.929 45.1275 74.1258 47.1639 76.8788C49.2004 79.6317 50.4992 82.8508 50.9392 86.2357C51.3792 89.6205 50.9461 93.0606 49.6801 96.2346C49.539 96.5842 49.4066 96.9075 49.2831 97.2308L43.6719 90.8166C44.2931 87.8877 43.8788 84.8363 42.4985 82.174C41.6179 80.638 40.4405 79.2888 39.0336 78.2034C37.6266 77.1181 36.0175 76.3178 34.2983 75.8484C30.8262 74.9003 27.116 75.3573 23.9841 77.1187C20.8521 78.8801 18.5548 81.8017 17.5977 85.2408C16.6405 88.6799 17.1018 92.3547 18.8801 95.4569C19.9281 97.3723 21.4485 98.9939 23.2997 100.17C25.1509 101.347 27.2727 102.04 29.4674 102.186L33.8787 107.184L34.9374 108.513C26.0089 109.989 17.3185 106.31 12.9866 98.7863ZM42.3132 108.399L28.0646 92.1536L33.6758 87.391L51.824 108.25L42.3132 108.399Z" fill="#6349A0"/>
<path d="M12.987 98.7868C11.2857 95.8191 10.3714 92.4727 10.3296 89.0602C10.2878 85.6477 11.1198 82.2804 12.7479 79.2726C14.376 76.2649 16.747 73.7148 19.6397 71.8607C22.5324 70.0065 25.8522 68.9086 29.2893 68.6696C32.7264 68.4306 36.1686 69.0582 39.2945 70.4938C42.4203 71.9295 45.1279 74.1263 47.1643 76.8793C49.2007 79.6322 50.4996 82.8513 50.9396 86.2362C51.3796 89.621 50.9464 93.061 49.6805 96.2351C49.5393 96.5847 49.407 96.908 49.2835 97.2313L43.6722 90.8171C44.2935 87.8882 43.8792 84.8368 42.4988 82.1745C41.6183 80.6385 40.4409 79.2893 39.0339 78.2039C37.6269 77.1186 36.0179 76.3183 34.2987 75.8489C30.8266 74.9008 27.1164 75.3578 23.9844 77.1192C20.8525 78.8806 18.5552 81.8022 17.598 85.2413C16.6408 88.6804 17.1022 92.3552 18.8805 95.4574C19.9285 97.3728 21.4489 98.9944 23.3001 100.171C25.1513 101.347 27.2731 102.041 29.4677 102.186L33.8791 107.185L34.9378 108.513C26.0092 109.99 17.3189 106.311 12.987 98.7868Z" fill="white"/>
<path d="M42.3224 108.382L28.0737 92.1629L33.6673 87.4003L51.8244 108.251L42.3224 108.382Z" fill="white"/>
</g>
<defs>
<clipPath id="clip0">
<rect width="129" height="108" fill="white" transform="translate(74 0.381836)"/>
</clipPath>
<clipPath id="clip1">
<rect width="61" height="60" fill="white" transform="translate(0 58.3877)"/>
</clipPath>
</defs>
</svg>