<svg width="62" height="63" viewBox="0 0 62 63" fill="none" xmlns="http://www.w3.org/2000/svg">
<circle cx="31" cy="31.2422" r="31" fill="#6945A5"/>
<path d="M32.5 27.4375C33.047 27.4375 33.5716 27.2202 33.9584 26.8334C34.3452 26.4466 34.5625 25.922 34.5625 25.375C34.5625 24.828 34.3452 24.3034 33.9584 23.9166C33.5716 23.5298 33.047 23.3125 32.5 23.3125C31.953 23.3125 31.4284 23.5298 31.0416 23.9166C30.6548 24.3034 30.4375 24.828 30.4375 25.375C30.4375 25.922 30.6548 26.4466 31.0416 26.8334C31.4284 27.2202 31.953 27.4375 32.5 27.4375Z" fill="white"/>
<path fill-rule="evenodd" clip-rule="evenodd" d="M32.5 24C32.1353 24 31.7856 24.1449 31.5277 24.4027C31.2699 24.6606 31.125 25.0103 31.125 25.375C31.125 25.7397 31.2699 26.0894 31.5277 26.3473C31.7856 26.6051 32.1353 26.75 32.5 26.75C32.8647 26.75 33.2144 26.6051 33.4723 26.3473C33.7301 26.0894 33.875 25.7397 33.875 25.375C33.875 25.0103 33.7301 24.6606 33.4723 24.4027C33.2144 24.1449 32.8647 24 32.5 24ZM29.75 25.375C29.75 24.6457 30.0397 23.9462 30.5555 23.4305C31.0712 22.9147 31.7707 22.625 32.5 22.625C33.2293 22.625 33.9288 22.9147 34.4445 23.4305C34.9603 23.9462 35.25 24.6457 35.25 25.375C35.25 26.1043 34.9603 26.8038 34.4445 27.3195C33.9288 27.8353 33.2293 28.125 32.5 28.125C31.7707 28.125 31.0712 27.8353 30.5555 27.3195C30.0397 26.8038 29.75 26.1043 29.75 25.375Z" fill="white"/>
<path d="M34.15 41.1873L34.975 36.4731H36.625V34.1157C36.625 33.0741 36.1905 32.0745 35.4171 31.3382C34.628 30.5951 33.5839 30.1832 32.5 30.1873C31.4161 30.1832 30.372 30.5951 29.5829 31.3382C28.8095 32.0745 28.375 33.0741 28.375 34.1157V36.4731H30.025L30.85 41.1873H34.15Z" fill="white"/>
<path fill-rule="evenodd" clip-rule="evenodd" d="M29.1093 30.8406C30.0261 29.976 31.2398 29.4961 32.5 29.5C33.7657 29.5 34.986 29.9785 35.8907 30.8406C36.7969 31.7028 37.3125 32.8798 37.3125 34.1152V36.4726C37.3125 36.655 37.2401 36.8299 37.1111 36.9588C36.9822 37.0877 36.8073 37.1601 36.625 37.1601H35.5525L34.8272 41.3058C34.7994 41.4652 34.7162 41.6097 34.5923 41.7138C34.4684 41.8179 34.3118 41.875 34.15 41.875H30.85C30.6882 41.875 30.5316 41.8179 30.4077 41.7138C30.2838 41.6097 30.2006 41.4652 30.1728 41.3058L29.4475 37.1601H28.375C28.1927 37.1601 28.0178 37.0877 27.8889 36.9588C27.7599 36.8299 27.6875 36.655 27.6875 36.4726V34.1159C27.6875 32.8805 28.2031 31.7028 29.1093 30.8406ZM32.5 30.875C31.5928 30.871 30.7185 31.215 30.0573 31.8361C29.4159 32.4466 29.0625 33.2675 29.0625 34.1159V35.7858H30.025C30.1868 35.7859 30.3434 35.8429 30.4673 35.9471C30.5912 36.0512 30.6744 36.1957 30.7022 36.3551L31.4275 40.5H33.5725L34.2978 36.3544C34.3258 36.1951 34.409 36.0508 34.5329 35.9468C34.6567 35.8428 34.8133 35.7858 34.975 35.7858H35.9375V34.1159C35.9375 33.2675 35.5841 32.4466 34.9427 31.8361C34.2815 31.215 33.4072 30.871 32.5 30.875Z" fill="white"/>
<path fill-rule="evenodd" clip-rule="evenodd" d="M32.0861 17.2638C32.2054 17.1739 32.3507 17.1252 32.5 17.1252C32.6493 17.1252 32.7946 17.1739 32.9139 17.2638L44.2095 25.7819C44.2288 25.7963 44.2466 25.8115 44.2638 25.8273C44.6364 26.1737 44.8563 26.6539 44.875 27.1624V40.1733C44.8737 40.6242 44.694 41.0563 44.3752 41.3751C44.0564 41.694 43.6243 41.8736 43.1734 41.8749H21.8266C21.3757 41.8736 20.9436 41.694 20.6248 41.3751C20.3059 41.0563 20.1263 40.6242 20.125 40.1733V27.1624C20.125 27.1487 20.125 27.1349 20.1264 27.1218C20.1552 26.6275 20.3739 26.1642 20.7362 25.8273C20.7535 25.8112 20.7716 25.7961 20.7905 25.7819L32.0861 17.2638ZM21.6513 26.853C21.5639 26.9429 21.5102 27.0602 21.4993 27.1851V40.1699C21.4997 40.2573 21.5346 40.341 21.5964 40.4028C21.6582 40.4647 21.7419 40.4995 21.8293 40.4999H43.1693C43.2566 40.4992 43.3401 40.4642 43.4019 40.4025C43.4636 40.3407 43.4986 40.2572 43.4993 40.1699V27.1865C43.4886 27.0617 43.4352 26.9444 43.3481 26.8544L32.5 18.6732L21.6513 26.8537V26.853Z" fill="white"/>
</svg>
