<svg width="62" height="63" viewBox="0 0 62 63" fill="none" xmlns="http://www.w3.org/2000/svg">
<circle cx="31" cy="31.9751" r="31" fill="#6945A5"/>
<path d="M31.9999 18.2471C34.4332 18.2439 36.7721 19.1881 38.5211 20.8798C40.2702 22.5714 41.2919 24.8776 41.3699 27.3096L41.3749 27.6221V32.7433L43.0999 36.6883C43.2036 36.9261 43.2466 37.1859 43.2248 37.4443C43.2031 37.7028 43.1174 37.9518 42.9753 38.1688C42.8333 38.3859 42.6395 38.5641 42.4114 38.6876C42.1833 38.811 41.928 38.8757 41.6687 38.8758L35.7499 38.8796C35.7512 39.8558 35.3717 40.7941 34.6921 41.4949C34.0125 42.1958 33.0864 42.604 32.1106 42.6328C31.1348 42.6616 30.1862 42.3088 29.4664 41.6492C28.7467 40.9897 28.3125 40.0754 28.2562 39.1008L28.2499 38.8758H22.3437C22.0847 38.8755 21.8298 38.8109 21.602 38.6878C21.3741 38.5646 21.1804 38.3868 21.0383 38.1703C20.8962 37.9538 20.81 37.7054 20.7876 37.4474C20.7652 37.1894 20.8072 36.9298 20.9099 36.6921L22.6249 32.7446V27.6221C22.6249 22.4283 26.8149 18.2471 31.9999 18.2471ZM33.8749 38.8771L30.1249 38.8796C30.1248 39.3612 30.3101 39.8244 30.6423 40.1731C30.9745 40.5219 31.4281 40.7294 31.9092 40.7527C32.3902 40.776 32.8618 40.6133 33.2262 40.2983C33.5905 39.9833 33.8197 39.5402 33.8662 39.0608L33.8737 38.8771H33.8749ZM31.9999 20.1221C27.8499 20.1221 24.4999 23.4646 24.4999 27.6221V33.1346L22.8199 37.0021H41.1912L39.4999 33.1358V27.6383L39.4949 27.3571C39.43 25.4139 38.6114 23.5721 37.2125 22.2218C35.8137 20.8714 33.9442 20.1184 31.9999 20.1221Z" fill="white"/>
</svg>
