<svg width="104" height="40" viewBox="0 0 104 40" fill="none" xmlns="http://www.w3.org/2000/svg">
<path d="M79.6294 33.8571C79.6294 34.1533 79.5943 34.4196 79.5243 34.656C79.4542 34.8925 79.3532 35.0941 79.2212 35.2608C79.0891 35.4276 78.9261 35.5558 78.7321 35.6454C78.5408 35.735 78.3226 35.7798 78.0774 35.7798C77.9561 35.7798 77.843 35.7686 77.7379 35.7462C77.6328 35.7263 77.5318 35.6927 77.4348 35.6454C77.3405 35.5981 77.2462 35.5384 77.1519 35.4662C77.0602 35.394 76.9659 35.3069 76.8689 35.2048V35.567C76.8689 35.5944 76.8609 35.618 76.8447 35.6379C76.8312 35.6553 76.807 35.6703 76.7719 35.6827C76.7396 35.6952 76.6952 35.7039 76.6386 35.7088C76.582 35.7138 76.5133 35.7163 76.4325 35.7163C76.3489 35.7163 76.2789 35.7138 76.2223 35.7088C76.1684 35.7039 76.1239 35.6952 76.0889 35.6827C76.0566 35.6703 76.0337 35.6553 76.0202 35.6379C76.0067 35.618 76 35.5944 76 35.567V30.6576C76 30.6327 76.0081 30.6103 76.0243 30.5904C76.0404 30.5705 76.0674 30.5543 76.1051 30.5419C76.1455 30.5269 76.198 30.5157 76.2627 30.5083C76.3274 30.5008 76.4095 30.4971 76.5092 30.4971C76.6089 30.4971 76.6911 30.5008 76.7558 30.5083C76.8204 30.5157 76.8716 30.5269 76.9094 30.5419C76.9498 30.5543 76.9781 30.5705 76.9942 30.5904C77.0104 30.6103 77.0185 30.6327 77.0185 30.6576V32.4982C77.1101 32.4135 77.2017 32.3414 77.2933 32.2816C77.3849 32.2219 77.4765 32.1734 77.5681 32.136C77.6598 32.0962 77.7541 32.0676 77.8511 32.0502C77.9481 32.0327 78.0504 32.024 78.1582 32.024C78.425 32.024 78.6513 32.0738 78.8372 32.1734C79.0231 32.2704 79.174 32.4023 79.2899 32.5691C79.4084 32.7358 79.4946 32.9312 79.5485 33.1552C79.6024 33.3767 79.6294 33.6107 79.6294 33.8571ZM78.5745 33.9243C78.5745 33.7824 78.5624 33.6455 78.5381 33.5136C78.5166 33.3817 78.4775 33.2647 78.4209 33.1627C78.3643 33.0606 78.2902 32.9798 78.1986 32.92C78.1097 32.8578 77.9966 32.8267 77.8591 32.8267C77.7918 32.8267 77.7258 32.8354 77.6611 32.8528C77.5964 32.8702 77.5291 32.9001 77.459 32.9424C77.3917 32.9847 77.3216 33.0395 77.2489 33.1067C77.1761 33.1739 77.0993 33.2573 77.0185 33.3568V34.4619C77.1613 34.6312 77.2974 34.7606 77.4267 34.8502C77.5587 34.9373 77.6961 34.9808 77.8389 34.9808C77.971 34.9808 78.0828 34.9497 78.1744 34.8875C78.266 34.8253 78.3414 34.7444 78.4007 34.6448C78.4627 34.5453 78.5071 34.432 78.5341 34.3051C78.561 34.1782 78.5745 34.0512 78.5745 33.9243Z" fill="#E7E7E7"/>
<path d="M82.4868 35.6939L82.0503 36.8737C82.026 36.9359 81.96 36.9807 81.8522 37.0081C81.7445 37.0354 81.5868 37.0491 81.3794 37.0491C81.2716 37.0491 81.1854 37.0441 81.1207 37.0342C81.056 37.0267 81.0076 37.013 80.9752 36.9931C80.9429 36.9732 80.9254 36.9483 80.9227 36.9185C80.92 36.8886 80.9281 36.8525 80.9469 36.8102L81.4279 35.6939C81.3929 35.679 81.3605 35.6566 81.3309 35.6267C81.3039 35.5944 81.2837 35.5608 81.2703 35.5259L80.0295 32.4646C79.9945 32.3774 79.9769 32.3115 79.9769 32.2667C79.9769 32.2194 79.9931 32.1833 80.0254 32.1584C80.0578 32.131 80.1117 32.1124 80.1871 32.1024C80.2652 32.0925 80.3676 32.0875 80.4943 32.0875C80.6101 32.0875 80.7017 32.09 80.7691 32.095C80.8365 32.0974 80.889 32.1062 80.9267 32.1211C80.9644 32.136 80.9927 32.1597 81.0116 32.192C81.0305 32.2219 81.0493 32.2654 81.0682 32.3227L81.9169 34.5515H81.929L82.705 32.2779C82.7212 32.2132 82.7414 32.1709 82.7656 32.151C82.7926 32.1286 82.8357 32.1124 82.895 32.1024C82.9543 32.0925 83.058 32.0875 83.2062 32.0875C83.322 32.0875 83.4177 32.0925 83.4931 32.1024C83.5713 32.1124 83.6279 32.131 83.6629 32.1584C83.7006 32.1858 83.7195 32.2231 83.7195 32.2704C83.7195 32.3152 83.7087 32.3687 83.6871 32.431L82.4868 35.6939Z" fill="#E7E7E7"/>
<path d="M87.3205 35.5595C87.3205 35.5844 87.3111 35.6068 87.2922 35.6267C87.2761 35.6466 87.2478 35.6628 87.2074 35.6752C87.167 35.6877 87.1131 35.6976 87.0457 35.7051C86.9783 35.7126 86.8921 35.7163 86.787 35.7163C86.6847 35.7163 86.5984 35.7126 86.5284 35.7051C86.461 35.6976 86.4071 35.6877 86.3667 35.6752C86.3263 35.6628 86.2967 35.6466 86.2778 35.6267C86.2616 35.6068 86.2536 35.5844 86.2536 35.5595V30.9973C86.2536 30.9725 86.2616 30.9501 86.2778 30.9301C86.2967 30.9102 86.3263 30.8941 86.3667 30.8816C86.4098 30.8692 86.4651 30.8592 86.5324 30.8517C86.5998 30.8443 86.6847 30.8405 86.787 30.8405C86.8921 30.8405 86.9783 30.8443 87.0457 30.8517C87.1131 30.8592 87.167 30.8692 87.2074 30.8816C87.2478 30.8941 87.2761 30.9102 87.2922 30.9301C87.3111 30.9501 87.3205 30.9725 87.3205 30.9973V35.5595Z" fill="#E7E7E7"/>
<path d="M94.555 35.5595C94.555 35.5844 94.5469 35.6068 94.5308 35.6267C94.5173 35.6466 94.4903 35.6628 94.4499 35.6752C94.4122 35.6877 94.361 35.6976 94.2964 35.7051C94.2317 35.7126 94.1495 35.7163 94.0498 35.7163C93.9528 35.7163 93.872 35.7126 93.8073 35.7051C93.7427 35.6976 93.6915 35.6877 93.6537 35.6752C93.616 35.6628 93.5891 35.6466 93.5729 35.6267C93.5567 35.6068 93.5487 35.5844 93.5487 35.5595V31.6283H93.5406L92.025 35.5558C92.0142 35.5881 91.9967 35.6155 91.9724 35.6379C91.9482 35.6578 91.9145 35.674 91.8714 35.6864C91.831 35.6989 91.7784 35.7064 91.7138 35.7088C91.6491 35.7138 91.571 35.7163 91.4794 35.7163C91.3877 35.7163 91.3096 35.7126 91.2449 35.7051C91.1803 35.7001 91.1264 35.6914 91.0833 35.679C91.0429 35.664 91.0105 35.6466 90.9863 35.6267C90.962 35.6068 90.9459 35.5832 90.9378 35.5558L89.4747 31.6283H89.4666V35.5595C89.4666 35.5844 89.4585 35.6068 89.4424 35.6267C89.4289 35.6466 89.402 35.6628 89.3615 35.6752C89.3211 35.6877 89.2686 35.6976 89.2039 35.7051C89.142 35.7126 89.0611 35.7163 88.9614 35.7163C88.8644 35.7163 88.7836 35.7126 88.7189 35.7051C88.6543 35.6976 88.6017 35.6877 88.5613 35.6752C88.5236 35.6628 88.4966 35.6466 88.4805 35.6267C88.467 35.6068 88.4603 35.5844 88.4603 35.5595V31.2549C88.4603 31.128 88.4966 31.0309 88.5694 30.9637C88.6421 30.8965 88.7391 30.8629 88.8604 30.8629H89.5556C89.6795 30.8629 89.7859 30.8729 89.8748 30.8928C89.9637 30.9102 90.0405 30.9413 90.1052 30.9861C90.1699 31.0285 90.2238 31.0857 90.2669 31.1579C90.31 31.2276 90.3477 31.3147 90.38 31.4192L91.5117 34.2976H91.5279L92.6999 31.4267C92.7349 31.3221 92.7727 31.2338 92.8131 31.1616C92.8562 31.0894 92.9047 31.0309 92.9586 30.9861C93.0152 30.9413 93.0812 30.9102 93.1566 30.8928C93.2321 30.8729 93.3196 30.8629 93.4193 30.8629H94.1347C94.2074 30.8629 94.2694 30.8717 94.3206 30.8891C94.3745 30.9065 94.4176 30.9326 94.4499 30.9675C94.485 30.9998 94.5106 31.0409 94.5267 31.0907C94.5456 31.138 94.555 31.1927 94.555 31.2549V35.5595Z" fill="#E7E7E7"/>
<path d="M96.7617 35.5595C96.7617 35.5844 96.7523 35.6068 96.7334 35.6267C96.7173 35.6466 96.689 35.6628 96.6486 35.6752C96.6081 35.6877 96.5543 35.6976 96.4869 35.7051C96.4195 35.7126 96.3333 35.7163 96.2282 35.7163C96.1259 35.7163 96.0396 35.7126 95.9696 35.7051C95.9022 35.6976 95.8483 35.6877 95.8079 35.6752C95.7675 35.6628 95.7379 35.6466 95.719 35.6267C95.7028 35.6068 95.6948 35.5844 95.6948 35.5595V30.9973C95.6948 30.9725 95.7028 30.9501 95.719 30.9301C95.7379 30.9102 95.7675 30.8941 95.8079 30.8816C95.851 30.8692 95.9063 30.8592 95.9736 30.8517C96.041 30.8443 96.1259 30.8405 96.2282 30.8405C96.3333 30.8405 96.4195 30.8443 96.4869 30.8517C96.5543 30.8592 96.6081 30.8692 96.6486 30.8816C96.689 30.8941 96.7173 30.9102 96.7334 30.9301C96.7523 30.9501 96.7617 30.9725 96.7617 30.9973V35.5595Z" fill="#E7E7E7"/>
<path d="M19.4708 24.3654C18.5038 24.9827 17.7288 25.4425 17.1458 25.7446C15.8091 26.454 14.6501 26.8086 13.6689 26.8086C12.517 26.8086 11.5643 26.2898 10.8106 25.252C10.2702 24.5033 10 23.6429 10 22.6708C10 19.9648 11.2798 16.8122 13.8395 13.213C16.2143 9.88958 18.966 7.02596 22.0945 4.62208C24.6542 2.6517 26.8513 1.6665 28.6857 1.6665C29.61 1.6665 30.3637 2.02774 30.9468 2.75022C31.3876 3.30192 31.608 3.95215 31.608 4.7009C31.608 6.98655 30.3993 9.35758 27.9818 11.814C26.1331 13.6924 24.7324 14.6316 23.7796 14.6316C23.5663 14.6316 23.353 14.5528 23.1397 14.3952C22.9122 14.2113 22.7984 13.9946 22.7984 13.745C22.7984 13.4166 23.1113 13.0159 23.737 12.543C25.3439 11.3477 26.6522 10.126 27.6618 8.87812C29.2403 6.94714 30.0295 5.41681 30.0295 4.28712C30.0295 3.98499 29.9087 3.74198 29.6669 3.55807C29.4394 3.38731 29.1621 3.30192 28.835 3.30192C28.0813 3.30192 27.0717 3.70914 25.8061 4.52356C23.161 6.24437 20.5516 8.65481 17.9777 11.7549C16.3139 13.7647 14.9274 15.8401 13.8182 17.9813C12.8512 19.8597 12.3677 21.3966 12.3677 22.592C12.3677 23.0649 12.5312 23.5115 12.8583 23.9319C13.2991 24.4967 13.8751 24.7791 14.5861 24.7791C15.5958 24.7791 16.84 24.2865 18.319 23.3013C20.1676 22.0666 21.4901 21.0748 22.2865 20.3261C22.9549 19.6955 23.4597 19.3803 23.801 19.3803C24.0427 19.3803 24.2418 19.4657 24.3982 19.6364C24.5973 19.8597 24.6969 20.1356 24.6969 20.464C24.6969 20.8318 24.4551 21.3178 23.9716 21.9221C23.4739 22.5263 22.706 23.6494 21.6679 25.2914C20.4734 27.1699 19.3713 29.2059 18.3616 31.3996C17.4657 33.3306 16.9254 34.6376 16.7405 35.3207C16.5841 35.8987 16.4063 36.3125 16.2072 36.562C15.9939 36.8248 15.6669 36.9561 15.226 36.9561C14.8563 36.9561 14.5719 36.8379 14.3728 36.6015C14.2021 36.3913 14.1168 36.1417 14.1168 35.8527C14.1168 34.7362 14.8207 32.8052 16.2286 30.0598C16.4561 29.6263 17.1742 28.3652 18.383 26.2766C18.6247 25.8563 18.9873 25.2192 19.4708 24.3654Z" fill="#FF6B00"/>
<path d="M32.3972 24.1092C31.928 24.8711 31.4658 25.5147 31.0107 26.0402C30.1149 27.0648 29.2261 27.5771 28.3444 27.5771C27.5765 27.5771 26.9792 27.2421 26.5526 26.5722C26.2824 26.1387 26.1473 25.6264 26.1473 25.0353C26.1473 23.5772 26.6451 21.9681 27.6405 20.2078C28.7497 18.2506 30.0864 16.7465 31.6507 15.6957C32.6745 15.0126 33.6629 14.6711 34.6156 14.6711C35.2129 14.6711 35.7106 14.8418 36.1088 15.1834C36.4501 15.4855 36.6207 15.827 36.6207 16.208C36.6207 16.4969 36.4999 16.8976 36.2581 17.4099C36.4714 17.6857 36.5781 17.9288 36.5781 18.1389C36.5781 18.4148 36.379 18.868 35.9808 19.4985C35.5684 20.1422 35.156 20.996 34.7436 22.06C34.3028 23.1897 34.0824 24.0961 34.0824 24.7791C34.0824 25.3308 34.2601 25.784 34.6156 26.1387C34.7152 26.2307 35.0067 26.3817 35.4902 26.5919C35.8457 26.7495 36.0235 27.0254 36.0235 27.4195C36.0235 27.669 35.9239 27.8726 35.7248 28.0303C35.5115 28.201 35.2627 28.2864 34.9783 28.2864C34.2104 28.2864 33.5491 27.9712 32.9945 27.3406C32.5394 26.8283 32.3119 26.1847 32.3119 25.4097C32.3119 25.1469 32.3404 24.7135 32.3972 24.1092ZM35.0636 17.6266C34.8929 17.3376 34.7081 17.1275 34.509 16.9961C34.3099 16.8516 34.0966 16.7794 33.8691 16.7794C32.7883 16.7794 31.6151 17.6529 30.3495 19.4C28.9559 21.331 28.2591 22.9664 28.2591 24.3062C28.2591 24.6346 28.3231 24.8842 28.4511 25.055C28.5933 25.2258 28.7995 25.3111 29.0697 25.3111C29.7522 25.3111 30.5486 24.6412 31.4587 23.3013C31.9706 22.5657 32.6034 21.482 33.3571 20.0502C33.8548 19.1176 34.2175 18.5002 34.445 18.198C34.5588 18.0404 34.765 17.8499 35.0636 17.6266Z" fill="#FF6B00"/>
<path d="M47.2221 14.277C48.1038 14.277 48.765 14.4215 49.2058 14.7105C49.6467 14.9995 49.8671 15.4395 49.8671 16.0306C49.8671 16.8056 49.5542 17.5544 48.9285 18.2769C48.3313 18.9599 47.4354 19.5116 46.2409 19.932C45.5867 20.1553 45.0392 20.267 44.5984 20.267C44.0012 20.267 43.7025 20.0239 43.7025 19.5379C43.7025 19.2095 43.8732 18.9599 44.2145 18.7892C44.2998 18.7498 44.7833 18.6381 45.6649 18.4542C46.1911 18.3491 46.6746 18.1192 47.1154 17.7646C47.4994 17.4624 47.6914 17.134 47.6914 16.7794C47.6914 16.5035 47.606 16.2999 47.4354 16.1685C47.2647 16.0372 47.0088 15.9715 46.6675 15.9715C45.8427 15.9715 44.9326 16.2802 43.9372 16.8976C42.7853 17.5938 42.2094 18.4214 42.2094 19.3803C42.2094 20.0633 42.5862 20.9172 43.3399 21.9418C44.1789 23.0583 44.5984 24.0041 44.5984 24.7791C44.5984 25.9351 44.0438 26.8415 42.9346 27.4983C42.252 27.9055 41.477 28.1091 40.6096 28.1091C39.2444 28.1091 38.2063 27.6559 37.4953 26.7495C36.9976 26.1059 36.7487 25.344 36.7487 24.4639C36.7487 23.4393 37.0331 22.5789 37.6019 21.8827C37.9717 21.4229 38.3556 21.193 38.7538 21.193C39.1093 21.193 39.2871 21.3244 39.2871 21.5871C39.2871 21.6922 39.2231 21.8498 39.0951 22.06C38.768 22.6248 38.6045 23.2882 38.6045 24.0501C38.6045 24.6938 38.8533 25.2389 39.3511 25.6855C39.7919 26.0796 40.2967 26.2766 40.8655 26.2766C41.4201 26.2766 41.8539 26.1059 42.1667 25.7643C42.4227 25.4753 42.5507 25.1075 42.5507 24.6609C42.5507 24.1092 42.2094 23.3933 41.5268 22.5132C40.5882 21.3047 40.119 20.2078 40.119 19.2226C40.119 17.9091 40.894 16.7465 42.444 15.7351C43.9514 14.763 45.5441 14.277 47.2221 14.277Z" fill="#FF6B00"/>
<path d="M54.7092 16.8976C55.2922 16.5561 55.7259 16.3196 56.0103 16.1883C56.5934 15.9255 57.1622 15.7942 57.7168 15.7942C58.3425 15.7942 58.8118 15.9649 59.1246 16.3065C59.4375 16.6349 59.5939 17.134 59.5939 17.804C59.5939 18.7235 59.2455 19.8269 58.5487 21.1142C57.4679 23.1503 56.1597 24.7529 54.6238 25.922C53.3298 26.9072 52.1139 27.3997 50.9763 27.3997C50.3506 27.3997 49.732 27.1764 49.1205 26.7298C47.1723 30.3685 45.4303 34.0794 43.8945 37.8625C43.5674 38.7689 43.1835 39.2221 42.7426 39.2221C42.5293 39.2221 42.316 39.0907 42.1027 38.828C41.9463 38.6441 41.8681 38.4405 41.8681 38.2172C41.8681 37.5078 42.8066 35.2025 44.6837 31.3011C47.5847 25.2849 50.3364 20.2867 52.9387 16.3065C53.4791 15.4658 53.8417 14.8878 54.0266 14.5725C54.5243 13.7187 55.0078 13.2918 55.4771 13.2918C55.9606 13.2918 56.2023 13.5611 56.2023 14.0996C56.2023 14.4018 56.0317 14.809 55.6904 15.3213C55.278 15.9781 54.9509 16.5035 54.7092 16.8976ZM49.9098 25.0747C50.2226 25.3768 50.6137 25.5279 51.0829 25.5279C52.4054 25.5279 53.8702 24.4442 55.4771 22.2767C56.0743 21.4755 56.5507 20.6545 56.9062 19.8138C57.1906 19.1438 57.3328 18.6381 57.3328 18.2966C57.3328 18.0601 57.2689 17.8828 57.1409 17.7646C57.0271 17.6463 56.8422 17.5872 56.5863 17.5872C55.9179 17.5872 55.1002 18.0141 54.1332 18.868C53.2089 19.6955 52.3201 20.8581 51.4669 22.3556C50.6848 23.7348 50.1657 24.6412 49.9098 25.0747Z" fill="#FF6B00"/>
<path d="M68.3182 14.6514C69.4842 14.6514 70.0673 15.3081 70.0673 16.6217C70.0673 18.3688 69.1927 20.5822 67.4436 23.2619C65.5381 26.165 63.6965 27.6165 61.9189 27.6165C61.0942 27.6165 60.4898 27.2618 60.1058 26.5525C59.9067 26.1978 59.8072 25.7709 59.8072 25.2717C59.8072 23.5903 60.4329 21.7644 61.6843 19.7941C62.8504 17.9682 64.2227 16.5495 65.8011 15.538C66.7255 14.9469 67.5645 14.6514 68.3182 14.6514ZM66.0998 22.0994C65.7443 21.8367 65.5665 21.6331 65.5665 21.4886C65.5665 21.3835 65.794 21.0945 66.2491 20.6216C67.5289 19.2949 68.1688 18.2243 68.1688 17.4099C68.1688 17.3048 68.1333 17.1997 68.0622 17.0946C67.9484 16.8976 67.7707 16.7991 67.5289 16.7991C67.0739 16.7991 66.4055 17.2063 65.5238 18.0207C64.3862 19.0716 63.5187 20.1553 62.9215 21.2718C62.2247 22.546 61.8763 23.6035 61.8763 24.4442C61.8763 24.6675 61.9403 24.8645 62.0683 25.0353C62.2531 25.2717 62.4878 25.39 62.7722 25.39C63.4548 25.39 64.1871 24.9171 64.9692 23.9713C65.3105 23.5772 65.5878 23.17 65.8011 22.7496C66.0144 22.3293 66.114 22.1125 66.0998 22.0994Z" fill="#FF6B00"/>
<path d="M73.7362 20.8187C73.3095 21.8433 72.9896 22.6708 72.7763 23.3013C72.563 23.9319 72.4563 24.3719 72.4563 24.6215C72.4563 24.9499 72.627 25.1141 72.9683 25.1141C73.4802 25.1141 74.1414 24.6675 74.952 23.7742C75.336 23.3408 75.9048 22.5592 76.6585 21.4295C76.9571 20.9829 77.2699 20.7595 77.597 20.7595C77.9668 20.7595 78.1516 20.9237 78.1516 21.2521C78.1516 21.817 77.4477 22.9598 76.0399 24.6806C74.5752 26.4802 73.2171 27.38 71.9657 27.38C71.4253 27.38 70.9845 27.1699 70.6432 26.7495C70.4015 26.4474 70.2806 26.0796 70.2806 25.6461C70.2806 24.9105 70.5223 23.8925 71.0058 22.592C71.4893 21.2916 72.2075 19.7087 73.1602 17.8434C75.6062 13.1013 78.1018 9.19338 80.6473 6.11958C82.6808 3.65003 84.366 2.41525 85.7027 2.41525C86.1293 2.41525 86.4777 2.56631 86.7479 2.86844C87.0323 3.17057 87.1745 3.51867 87.1745 3.91274C87.1745 5.75177 85.3969 8.81244 81.8418 13.0947C80.2491 14.9995 78.3436 16.9042 76.1252 18.8089C75.5422 19.308 74.7458 19.978 73.7362 20.8187ZM75.2506 17.6857C78.2085 15.3476 80.8535 12.392 83.1857 8.81901C84.3944 6.96684 84.9988 5.73864 84.9988 5.13438C84.9988 4.84539 84.8637 4.7009 84.5935 4.7009C83.8114 4.7009 82.3893 6.13928 80.3273 9.01604C78.6209 11.3805 76.9287 14.2704 75.2506 17.6857Z" fill="#FF6B00"/>
<path d="M95.7281 2.51377C96.041 2.51377 96.2827 2.63199 96.4534 2.86844C96.5956 3.06548 96.6667 3.28879 96.6667 3.53837C96.6667 4.07694 96.2401 5.08841 95.3868 6.57277C91.8886 12.6284 88.7317 17.6857 85.916 21.7447C85.4609 22.4147 85.1765 22.8613 85.0628 23.0846C84.693 23.7283 84.3091 24.0501 83.9109 24.0501C83.6265 24.0501 83.3776 23.899 83.1643 23.5969C82.9795 23.3473 82.887 23.078 82.887 22.789C82.887 22.4212 83.0932 21.9089 83.5056 21.2521C83.6194 21.0682 84.1171 20.3523 84.9988 19.1044C86.1222 17.3573 87.2385 15.63 88.3477 13.9223C88.7174 13.3312 89.8266 11.4659 91.6753 8.32641C92.3294 7.22299 92.8485 6.35602 93.2324 5.7255C93.6875 4.97675 94.1212 4.20173 94.5336 3.40044C94.8465 2.80933 95.2446 2.51377 95.7281 2.51377ZM81.8632 25.922C82.176 25.922 82.4391 26.0533 82.6524 26.316C82.7946 26.4868 82.8657 26.7035 82.8657 26.9663C82.8657 27.5837 82.6808 28.2339 82.3111 28.9169C81.9272 29.6394 81.4223 30.0007 80.7966 30.0007C80.1425 30.0007 79.8154 29.6591 79.8154 28.9761C79.8154 28.293 80.0429 27.5968 80.498 26.8874C80.9104 26.2438 81.3654 25.922 81.8632 25.922Z" fill="#FF6B00"/>
</svg>
