<svg width="223" height="59" viewBox="0 0 223 59" fill="none" xmlns="http://www.w3.org/2000/svg">
<g clip-path="url(#clip0)">
<path d="M12.0766 38.2947C9.66442 33.8117 9.1204 28.5576 10.5629 23.6755C12.0054 18.7935 15.3176 14.6788 19.7789 12.2267C24.2401 9.77467 29.4892 9.18379 34.3839 10.5827C39.2786 11.9815 43.4227 15.2569 45.9145 19.6961C48.062 23.6108 48.2148 28.4781 47.2045 32.9632L54.9258 42.146C55.2128 41.4786 55.4981 40.7777 55.8056 40.0283C57.6722 35.4972 58.3598 30.567 57.8041 25.6981C57.2484 20.8292 55.4676 16.1807 52.628 12.1867C49.7885 8.19279 45.9828 4.98382 41.5667 2.85962C37.1505 0.735417 32.268 -0.234682 27.3752 0.0399534C22.4824 0.314589 17.7391 1.825 13.5884 4.43006C9.43771 7.03513 6.0151 10.6498 3.64033 14.9365C1.26556 19.2231 0.0161484 24.0417 0.00882147 28.9422C0.00149453 33.8427 1.23649 38.665 3.59843 42.9587C9.60843 53.8938 21.8894 59.3017 34.6346 57.3518L27.5881 48.2044C21.1214 47.8745 15.4227 44.3811 12.0766 38.2947Z" fill="#ffffff"/>
<path d="M33.2117 27.0171L32.8053 27.3545L25.7402 34.4215L45.0956 57.3094L58.6125 57.3187L33.2117 27.0171Z" fill="#ffffff"/>
<path d="M70.1123 57.5275V24.905H77.7441V29.4442C78.4898 27.8572 79.6797 26.5622 81.3139 25.5593C82.9791 24.5468 84.8962 24.0247 86.8449 24.0531C92.0272 24.0531 95.4578 25.9906 97.1368 29.8655C97.9309 28.184 99.2358 26.7953 101.051 25.6991C102.89 24.5971 104.998 24.0273 107.142 24.0531C114.983 24.0531 118.904 28.3245 118.904 36.8672V57.5275H111.28V38.3436C111.28 33.1625 109.25 30.572 105.19 30.572C103.042 30.572 101.365 31.2841 100.157 32.7083C98.9487 34.1325 98.3417 36.641 98.3354 40.2339V57.5275H90.6962V38.2746C90.6962 33.1408 88.7127 30.5733 84.7458 30.572C82.5499 30.572 80.8342 31.2841 79.5989 32.7083C78.3636 34.1325 77.7422 36.641 77.7348 40.2339V57.5275H70.1123Z" fill="#ffffff"/>
<path d="M158.53 39.5347C158.53 40.3748 158.461 41.7748 158.321 43.7346H134.088C134.18 46.3034 135.02 48.2757 136.608 49.6514C138.196 51.0272 140.39 51.7157 143.188 51.7169C146.782 51.7169 149.21 50.4797 150.47 48.0054H158.172C157.658 51.0402 156.012 53.5257 153.236 55.462C150.46 57.3982 147.111 58.3669 143.188 58.3682C138.053 58.3682 133.993 56.8278 131.006 53.747C128.02 50.6662 126.529 46.4886 126.532 41.2143C126.532 35.9873 128.014 31.824 130.978 28.7246C133.942 25.6251 137.919 24.0717 142.909 24.0642C147.574 24.0642 151.343 25.4996 154.217 28.3704C157.09 31.2412 158.528 34.9626 158.53 39.5347ZM134.097 37.9241H151.04C150.992 35.4038 150.256 33.4669 148.833 32.1136C147.41 30.7602 145.392 30.0829 142.778 30.0817C140.116 30.0817 138.016 30.8056 136.477 32.2534C134.939 33.7012 134.145 35.5914 134.097 37.9241Z" fill="#ffffff"/>
<path d="M166.505 57.5275V24.905H174.135V31.2058C174.696 29.0136 175.793 27.3452 177.427 26.2006C179 25.0769 180.886 24.4768 182.818 24.4856C183.829 24.4607 184.84 24.5546 185.829 24.7652V31.7669C184.829 31.6636 183.824 31.6169 182.818 31.6271C180.111 31.6271 177.987 32.6213 176.447 34.6098C174.907 36.5982 174.137 39.4335 174.135 43.1159V57.5387L166.505 57.5275Z" fill="#ffffff"/>
<path d="M204.935 58.3681C199.848 58.3681 195.904 56.7575 193.103 53.5362C190.302 50.315 188.899 46.2077 188.894 41.2143C188.894 36.2668 190.364 32.1713 193.306 28.9277C196.248 25.6841 200.192 24.0617 205.138 24.0604C207.228 24.0367 209.293 24.5169 211.159 25.4604C212.898 26.3183 214.357 27.6543 215.364 29.3117V24.9011H223.007V57.5236H215.364V53.1187C214.43 54.7069 212.971 55.9789 210.989 56.9346C209.106 57.8667 207.036 58.357 204.935 58.3681ZM206.053 51.577C209.179 51.577 211.571 50.5965 213.23 48.6354C214.889 46.6743 215.717 44.2006 215.715 41.2143C215.715 38.2316 214.887 35.7579 213.23 33.7931C211.573 31.8283 209.181 30.8478 206.053 30.8515C203.114 30.8515 200.792 31.8202 199.087 33.7577C197.382 35.6952 196.53 38.1807 196.531 41.2143C196.531 44.2491 197.383 46.7346 199.087 48.6708C200.791 50.607 203.113 51.5758 206.055 51.577H206.053Z" fill="#ffffff"/>
</g>
<defs>
<clipPath id="clip0">
<rect width="223" height="58.3682" fill="white"/>
</clipPath>
</defs>
</svg>