<svg width="181" height="67" viewBox="0 0 181 67" fill="none" xmlns="http://www.w3.org/2000/svg">
<g clip-path="url(#clip0)">
<path d="M32.66 0.776855H147.94C156.602 0.776855 164.909 4.21781 171.034 10.3427C177.159 16.4677 180.6 24.7749 180.6 33.4369V66.1069H32.66C28.3702 66.1069 24.1224 65.2617 20.1593 63.6198C16.1961 61.9779 12.5953 59.5712 9.56236 56.5374C6.52947 53.5036 4.12396 49.902 2.48323 45.9384C0.842494 41.9747 -0.00131195 37.7267 1.53107e-06 33.4369C1.53107e-06 24.7749 3.44096 16.4677 9.56589 10.3427C15.6908 4.21781 23.998 0.776855 32.66 0.776855Z" fill="#6945A5"/>
<path d="M20.5398 40.8268C18.7205 37.5116 18.2925 33.6094 19.3503 29.9787C20.408 26.348 22.8646 23.2862 26.1798 21.4668C29.4951 19.6474 33.3972 19.2195 37.0279 20.2772C40.6586 21.3349 43.7205 23.7916 45.5398 27.1068C47.0331 30.142 47.3879 33.6122 46.5398 36.8868L52.2298 43.6668L52.8798 42.1068C54.257 38.7638 54.7644 35.1263 54.3545 31.5341C53.9446 27.9418 52.6308 24.5121 50.5359 21.5653C48.441 18.6186 45.6333 16.2509 42.3751 14.6835C39.117 13.1161 35.5147 12.4002 31.9048 12.6026C28.295 12.8051 24.7953 13.9192 21.7328 15.841C18.6703 17.7628 16.1449 20.4295 14.3926 23.5921C12.6403 26.7546 11.7182 30.3097 11.7124 33.9252C11.7067 37.5407 12.6175 41.0987 14.3598 44.2668C18.7198 52.3268 27.7698 56.3168 37.2098 54.9168L32.0098 48.1768C29.6223 48.0615 27.3067 47.3221 25.294 46.0324C23.2814 44.7427 21.6422 42.9478 20.5398 40.8268Z" fill="white"/>
<path d="M36.1399 32.5068L35.8399 32.7568L30.6299 37.9668L44.8999 54.8568H54.8699L36.1399 32.5068Z" fill="white"/>
<path d="M63.21 54.5369V32.4169H68.38V35.5069C68.9223 34.4233 69.7707 33.5228 70.82 32.9169C71.9507 32.2368 73.2507 31.8901 74.57 31.9169C78.09 31.9169 80.41 33.2369 81.57 35.8569C82.1337 34.6462 83.0551 33.6376 84.21 32.9669C85.4568 32.2192 86.8863 31.8316 88.34 31.8469C93.6733 31.8469 96.34 34.7435 96.34 40.5369V54.5369H91.17V41.5369C91.17 38.0302 89.7933 36.2769 87.04 36.2769C86.3982 36.2434 85.7572 36.3555 85.1649 36.6049C84.5727 36.8543 84.0445 37.2344 83.62 37.7169C82.8 38.6835 82.39 40.3869 82.39 42.8269V54.5369H77.21V41.4869C77.21 38.0069 75.8766 36.2669 73.21 36.2669C72.5578 36.2322 71.906 36.3434 71.3023 36.5925C70.6985 36.8417 70.1579 37.2223 69.72 37.7069C68.88 38.6735 68.46 40.3769 68.46 42.8169V54.5369H63.21Z" fill="white"/>
<path d="M130.21 54.5369V32.4169H135.38V36.6869C135.686 35.3205 136.483 34.114 137.62 33.2969C138.685 32.5372 139.962 32.1314 141.27 32.1369C141.942 32.1219 142.613 32.1857 143.27 32.3269V37.0669C142.605 37.0018 141.938 36.9717 141.27 36.9769C140.442 36.9389 139.617 37.1008 138.866 37.449C138.114 37.7971 137.457 38.3212 136.95 38.9769C135.803 40.67 135.251 42.696 135.38 44.7369V54.5169L130.21 54.5369Z" fill="white"/>
<path d="M157.94 55.1069C156.446 55.1936 154.952 54.9439 153.567 54.3762C152.182 53.8085 150.943 52.9373 149.94 51.8269C147.985 49.4946 146.969 46.5177 147.09 43.4769C146.991 40.4193 148.065 37.4396 150.09 35.1469C151.104 34.0494 152.345 33.1858 153.726 32.6159C155.108 32.0461 156.597 31.7837 158.09 31.8469C159.514 31.8479 160.916 32.1908 162.18 32.8469C163.352 33.4337 164.336 34.3381 165.02 35.4569V32.4569H170.21V54.5369H165.01V51.5369C164.296 52.6851 163.25 53.5885 162.01 54.1269C160.743 54.7515 159.352 55.0862 157.94 55.1069ZM158.7 50.5069C159.61 50.5657 160.522 50.4161 161.366 50.0695C162.21 49.723 162.963 49.1885 163.57 48.5069C164.66 47.0566 165.25 45.2913 165.25 43.4769C165.25 41.6624 164.66 39.8971 163.57 38.4469C162.963 37.7652 162.21 37.2308 161.366 36.8842C160.522 36.5376 159.61 36.3881 158.7 36.4469C157.814 36.4066 156.93 36.5654 156.113 36.9115C155.296 37.2576 154.567 37.7822 153.98 38.4469C152.858 39.8933 152.25 41.6716 152.25 43.5019C152.25 45.3321 152.858 47.1104 153.98 48.5569C154.575 49.2091 155.306 49.722 156.122 50.0591C156.938 50.3962 157.818 50.5491 158.7 50.5069Z" fill="white"/>
<path d="M118.5 48.1367C117.64 49.7767 116.007 50.5967 113.6 50.5967C111.992 50.6898 110.406 50.1919 109.14 49.1967C108.59 48.6877 108.153 48.0684 107.858 47.3791C107.564 46.6899 107.418 45.9462 107.43 45.1967H123.85C123.95 43.8634 124 42.9134 124 42.3467C124.053 40.9528 123.821 39.5627 123.319 38.2612C122.817 36.9597 122.055 35.7741 121.08 34.7767C120.066 33.7952 118.864 33.0302 117.545 32.5282C116.227 32.0262 114.82 31.7977 113.41 31.8567C111.915 31.788 110.423 32.0338 109.029 32.5781C107.636 33.1224 106.372 33.9532 105.32 35.0167C103.237 37.3311 102.158 40.3774 102.32 43.4867C102.231 45.0317 102.451 46.5788 102.966 48.0381C103.481 49.4973 104.281 50.8396 105.32 51.9867C106.404 53.0497 107.697 53.8765 109.117 54.4152C110.537 54.9539 112.053 55.1928 113.57 55.1167C115.993 55.1773 118.374 54.4779 120.38 53.1167C121.249 52.5561 121.994 51.8231 122.568 50.9631C123.143 50.1031 123.535 49.1343 123.72 48.1167L118.5 48.1367ZM109.05 37.4067C110.224 36.3721 111.757 35.8374 113.32 35.9167C114.815 35.8201 116.288 36.3159 117.42 37.2967C117.926 37.8159 118.32 38.4335 118.578 39.1112C118.836 39.7889 118.953 40.5123 118.92 41.2367H107.43C107.419 40.5208 107.557 39.8104 107.836 39.151C108.115 38.4915 108.528 37.8974 109.05 37.4067Z" fill="white"/>
</g>
<defs>
<clipPath id="clip0">
<rect width="180.61" height="65.33" fill="white" transform="translate(0 0.776855)"/>
</clipPath>
</defs>
</svg>
