<svg width="72" height="73" viewBox="0 0 72 73" fill="none" xmlns="http://www.w3.org/2000/svg">
<g clip-path="url(#clip0)">
<path d="M68.1705 53.0198C77.0772 35.2491 69.8914 13.6228 52.1207 4.71607C34.3499 -4.19061 12.7236 2.99511 3.81692 20.7659C-5.08976 38.5366 2.09598 60.1629 19.8667 69.0696C37.6375 77.9763 59.2638 70.7905 68.1705 53.0198Z" fill="#6945A5"/>
<path d="M36.0077 56.6541C34.0878 56.6515 32.2355 55.9446 30.802 54.6674C29.3685 53.3902 28.4533 51.6315 28.23 49.7246L28.0859 48.4763H43.9295L43.7854 49.7246C43.5621 51.6315 42.6469 53.3902 41.2134 54.6674C39.7799 55.9446 37.9276 56.6515 36.0077 56.6541ZM30.7745 50.7328C31.1655 51.8067 31.8774 52.7342 32.8136 53.3897C33.7497 54.0451 34.8649 54.3967 36.0077 54.3967C37.1505 54.3967 38.2657 54.0451 39.2018 53.3897C40.138 52.7342 40.8499 51.8067 41.2409 50.7328H30.7745Z" fill="white"/>
<path d="M49.9151 43.2591H22.1489V30.4562C22.1532 26.9177 23.5607 23.5253 26.0628 21.0232C28.565 18.521 31.9573 17.1135 35.4959 17.1093H36.6161C40.1547 17.1135 43.5471 18.521 46.0492 21.0232C48.5513 23.5253 49.9589 26.9177 49.9631 30.4562L49.9151 43.2591ZM24.3094 41.0026H47.5946V30.4882C47.5946 27.5496 46.4283 24.7312 44.3519 22.6517C42.2755 20.5723 39.4587 19.402 36.5201 19.3977H35.3999C32.4598 19.402 29.6414 20.5718 27.5624 22.6508C25.4835 24.7297 24.3136 27.5482 24.3094 30.4882V41.0026Z" fill="white"/>
<path d="M48.779 50.7328H23.1733C21.9255 50.7328 20.7287 50.2371 19.8463 49.3547C18.964 48.4723 18.4683 47.2756 18.4683 46.0277V45.7397C18.4554 45.1097 18.5692 44.4836 18.8028 43.8984C19.0365 43.3132 19.3854 42.781 19.8287 42.3332C20.272 41.8854 20.8007 41.5312 21.3835 41.2917C21.9663 41.0521 22.5913 40.932 23.2213 40.9386H48.827C49.4529 40.9258 50.0751 41.0381 50.6571 41.2688C51.239 41.4995 51.7691 41.8441 52.2162 42.2823C52.6634 42.7204 53.0185 43.2434 53.261 43.8206C53.5034 44.3978 53.6282 45.0176 53.6281 45.6437V45.9637C53.6239 46.5956 53.495 47.2204 53.2489 47.8023C53.0027 48.3843 52.6441 48.9119 52.1936 49.355C51.7431 49.798 51.2096 50.1478 50.6237 50.3842C50.0377 50.6207 49.4108 50.7391 48.779 50.7328ZM23.1733 43.2591C22.5267 43.2717 21.9113 43.5397 21.4616 44.0044C21.0118 44.4692 20.7642 45.093 20.7728 45.7397V46.0597C20.777 46.7078 21.0363 47.3282 21.4946 47.7865C21.9529 48.2448 22.5732 48.5041 23.2213 48.5083H48.827C49.4764 48.5083 50.0992 48.2503 50.5584 47.7911C51.0176 47.3319 51.2756 46.7091 51.2756 46.0597V45.7397C51.2777 45.4175 51.2158 45.0982 51.0935 44.8002C50.9712 44.5021 50.7909 44.2313 50.5631 44.0035C50.3354 43.7757 50.0646 43.5955 49.7665 43.4732C49.4685 43.3509 49.1492 43.289 48.827 43.2911L23.1733 43.2591Z" fill="white"/>
</g>
<defs>
<clipPath id="clip0">
<rect width="72" height="72" fill="white" transform="translate(0 0.897705)"/>
</clipPath>
</defs>
</svg>
