<svg width="145" height="128" viewBox="0 0 145 128" fill="none" xmlns="http://www.w3.org/2000/svg">
<g clip-path="url(#clip0)">
<path d="M11.329 49.9454C9.02957 49.9454 6.82433 50.8608 5.1984 52.4901C3.57247 54.1194 2.65903 56.3293 2.65903 58.6335V101.61C2.64886 102.758 2.8656 103.896 3.29674 104.959C3.72789 106.022 4.3649 106.989 5.171 107.804C5.97709 108.619 6.9363 109.266 7.99324 109.707C9.05018 110.148 10.1839 110.376 11.329 110.376L124.443 110.491C125.359 110.497 126.264 110.684 127.107 111.042C127.951 111.4 128.715 111.921 129.356 112.577L140.916 124.566C141.029 124.674 141.17 124.747 141.324 124.777C141.478 124.806 141.636 124.79 141.781 124.731C141.926 124.671 142.05 124.572 142.139 124.443C142.228 124.314 142.279 124.163 142.284 124.006V60.2939C142.279 57.568 141.194 54.9555 139.269 53.0298C137.344 51.1042 134.735 50.0226 132.015 50.0226L11.329 49.9454Z" fill="white"/>
<path d="M141.494 127.539C141.025 127.536 140.562 127.439 140.132 127.253C139.702 127.067 139.313 126.797 138.989 126.458L127.429 114.469C127.045 114.076 126.586 113.764 126.08 113.552C125.574 113.339 125.03 113.231 124.481 113.233L11.3289 113.098C8.30881 113.088 5.4156 111.88 3.28187 109.738C1.14813 107.596 -0.0525414 104.695 -0.0576172 101.668V58.6914C-0.0525229 55.6668 1.14876 52.7675 3.28305 50.6288C5.41733 48.49 8.31058 47.2862 11.3289 47.2811H131.957C135.397 47.2811 138.697 48.6495 141.132 51.0857C143.567 53.5218 144.937 56.8268 144.942 60.2746V123.987C144.943 124.688 144.734 125.374 144.343 125.955C143.951 126.537 143.395 126.988 142.746 127.25C142.349 127.42 141.925 127.518 141.494 127.539ZM11.3289 49.9455C9.0295 49.9455 6.82426 50.8608 5.19833 52.4902C3.5724 54.1195 2.65896 56.3293 2.65896 58.6335V101.61C2.64879 102.758 2.86553 103.896 3.29668 104.959C3.72782 106.022 4.36483 106.989 5.17093 107.804C5.97702 108.619 6.93623 109.266 7.99317 109.707C9.05011 110.148 10.1838 110.376 11.3289 110.376L124.443 110.492C125.358 110.497 126.264 110.684 127.107 111.042C127.951 111.4 128.715 111.921 129.356 112.577L140.916 124.566C141.029 124.674 141.17 124.747 141.324 124.777C141.477 124.806 141.636 124.79 141.781 124.731C141.925 124.671 142.05 124.572 142.139 124.443C142.228 124.314 142.279 124.163 142.284 124.006V60.2939C142.279 57.568 141.194 54.9556 139.269 53.0299C137.344 51.1042 134.735 50.0227 132.015 50.0227L11.3289 49.9455Z" fill="#6945A5"/>
<path d="M113.268 72.6888H84.3684C84.1897 72.6914 84.0123 72.6583 83.8464 72.5915C83.6805 72.5248 83.5296 72.4256 83.4023 72.2999C83.275 72.1741 83.1739 72.0243 83.105 71.859C83.036 71.6938 83.0005 71.5165 83.0005 71.3373C83.0005 70.9738 83.1446 70.6251 83.4011 70.3681C83.6577 70.111 84.0056 69.9666 84.3684 69.9666H113.268C113.631 69.9666 113.979 70.111 114.235 70.3681C114.492 70.6251 114.636 70.9738 114.636 71.3373C114.636 71.5165 114.601 71.6938 114.532 71.859C114.463 72.0243 114.362 72.1741 114.234 72.2999C114.107 72.4256 113.956 72.5248 113.79 72.5915C113.624 72.6583 113.447 72.6914 113.268 72.6888Z" fill="#F2A23A"/>
<path d="M66.6433 72.6888H22.3302C21.9725 72.6888 21.6295 72.5464 21.3766 72.293C21.1237 72.0395 20.9816 71.6958 20.9816 71.3373C20.979 71.1582 21.012 70.9804 21.0787 70.8142C21.1453 70.648 21.2442 70.4968 21.3697 70.3692C21.4952 70.2417 21.6447 70.1404 21.8096 70.0713C21.9745 70.0021 22.1515 69.9665 22.3302 69.9666H66.6433C66.822 69.9665 66.999 70.0021 67.1639 70.0713C67.3288 70.1404 67.4783 70.2417 67.6038 70.3692C67.7293 70.4968 67.8282 70.648 67.8949 70.8142C67.9615 70.9804 67.9945 71.1582 67.992 71.3373C67.992 71.6958 67.8498 72.0395 67.5969 72.293C67.344 72.5464 67.001 72.6888 66.6433 72.6888Z" fill="#F2A23A"/>
<path d="M113.268 83.0372H40.2283C40.0496 83.0398 39.8721 83.0067 39.7062 82.9399C39.5404 82.8732 39.3894 82.774 39.2622 82.6482C39.1349 82.5225 39.0338 82.3727 38.9648 82.2074C38.8958 82.0422 38.8603 81.8649 38.8604 81.6857C38.8604 81.3222 39.0045 80.9735 39.261 80.7164C39.5175 80.4594 39.8655 80.3149 40.2283 80.3149H113.229C113.592 80.3149 113.94 80.4594 114.196 80.7164C114.453 80.9735 114.597 81.3222 114.597 81.6857C114.597 82.0409 114.458 82.3817 114.209 82.6346C113.96 82.8875 113.622 83.0321 113.268 83.0372Z" fill="#F2A23A"/>
<path d="M113.268 93.3858H64.8898C64.5321 93.3858 64.1891 93.2434 63.9362 92.99C63.6832 92.7365 63.5412 92.3928 63.5412 92.0344C63.5386 91.8553 63.5716 91.6775 63.6382 91.5113C63.7049 91.345 63.8038 91.1938 63.9293 91.0662C64.0548 90.9387 64.2043 90.8374 64.3692 90.7683C64.5341 90.6992 64.7111 90.6636 64.8898 90.6636H113.268C113.448 90.6636 113.626 90.699 113.792 90.7679C113.958 90.8368 114.108 90.9378 114.235 91.0651C114.362 91.1924 114.463 91.3435 114.532 91.5098C114.601 91.6761 114.636 91.8544 114.636 92.0344C114.636 92.2135 114.601 92.3908 114.532 92.556C114.463 92.7213 114.362 92.8711 114.234 92.9969C114.107 93.1226 113.956 93.2218 113.79 93.2886C113.624 93.3553 113.447 93.3884 113.268 93.3858Z" fill="#F2A23A"/>
<path d="M125.945 54.2124H86.6416C86.0215 54.2136 85.4082 54.3408 84.8386 54.5864C84.269 54.832 83.755 55.1907 83.3278 55.641L73.5403 65.8157C73.2726 66.037 72.9501 66.1817 72.6071 66.2345C72.264 66.2873 71.9131 66.2463 71.5914 66.1158C71.2698 65.9852 70.9892 65.77 70.7795 65.4929C70.5697 65.2158 70.4386 64.8871 70.3999 64.5415V10.4825C70.3999 9.18527 70.6552 7.90078 71.1511 6.70255C71.6471 5.50432 72.374 4.41588 73.2903 3.49951C74.2065 2.58313 75.2942 1.85683 76.4909 1.36217C77.6876 0.867505 78.9699 0.61418 80.2644 0.616718H127.506C129.633 0.616712 131.674 1.46228 133.18 2.96795C134.686 4.47362 135.535 6.51645 135.54 8.64835V44.6941C135.505 47.2242 134.48 49.6392 132.685 51.4194C130.891 53.1995 128.47 54.2025 125.945 54.2124Z" fill="#F2A23A"/>
<path d="M91.15 28.5729C91.15 29.2411 90.9523 29.8944 90.5818 30.45C90.2113 31.0056 89.6847 31.4387 89.0687 31.6944C88.4526 31.9501 87.7746 32.0171 87.1206 31.8867C86.4666 31.7563 85.8658 31.4345 85.3943 30.962C84.9227 30.4895 84.6016 29.8875 84.4715 29.2321C84.3414 28.5767 84.4082 27.8973 84.6634 27.2799C84.9186 26.6626 85.3507 26.1349 85.9052 25.7636C86.4597 25.3924 87.1115 25.1942 87.7784 25.1942C88.6726 25.1942 89.5302 25.5502 90.1625 26.1838C90.7948 26.8175 91.15 27.6768 91.15 28.5729Z" fill="white"/>
<path d="M106.91 28.573C106.91 29.242 106.712 29.896 106.341 30.452C105.969 31.0081 105.442 31.4411 104.824 31.6963C104.207 31.9514 103.528 32.0172 102.874 31.8852C102.219 31.7533 101.618 31.4296 101.148 30.9552C100.677 30.4807 100.357 29.8769 100.229 29.2202C100.102 28.5635 100.171 27.8836 100.429 27.2666C100.687 26.6495 101.123 26.1232 101.679 25.7543C102.236 25.3853 102.89 25.1904 103.558 25.1943C104 25.1943 104.437 25.2818 104.845 25.4518C105.253 25.6219 105.624 25.871 105.935 26.185C106.247 26.499 106.493 26.8717 106.661 27.2815C106.828 27.6913 106.913 28.1302 106.91 28.573Z" fill="white"/>
<path d="M119.684 31.9516C121.546 31.9516 123.055 30.4389 123.055 28.5729C123.055 26.7069 121.546 25.1942 119.684 25.1942C117.822 25.1942 116.312 26.7069 116.312 28.5729C116.312 30.4389 117.822 31.9516 119.684 31.9516Z" fill="white"/>
</g>
<defs>
<clipPath id="clip0">
<rect width="145" height="127" fill="white" transform="translate(0 0.539429)"/>
</clipPath>
</defs>
</svg>
