<svg width="150" height="117" viewBox="0 0 150 117" fill="none" xmlns="http://www.w3.org/2000/svg">
<g clip-path="url(#clip0)">
<path d="M90.0811 51.677H9.08138C4.76324 51.677 1.2627 55.1763 1.2627 59.4929V108.295C1.2627 112.611 4.76324 116.11 9.08138 116.11H90.0811C94.3992 116.11 97.8997 112.611 97.8997 108.295V59.4929C97.8997 55.1763 94.3992 51.677 90.0811 51.677Z" fill="white"/>
<path d="M93.0687 117H6.77707C5.09118 117 3.47435 116.33 2.28225 115.139C1.09015 113.947 0.42041 112.331 0.42041 110.646V58.3808C0.420406 56.3739 1.21687 54.4489 2.63502 53.0283C4.05317 51.6077 5.97718 50.8074 7.98485 50.8032H69.9622C70.1206 50.7843 70.2811 50.7992 70.4332 50.8469C70.5854 50.8945 70.7257 50.9739 70.845 51.0797C70.9642 51.1856 71.0597 51.3155 71.1251 51.4608C71.1904 51.6062 71.2242 51.7638 71.2242 51.9232C71.2242 52.0826 71.1904 52.2402 71.1251 52.3856C71.0597 52.531 70.9642 52.6608 70.845 52.7667C70.7257 52.8725 70.5854 52.9518 70.4332 52.9995C70.2811 53.0472 70.1206 53.062 69.9622 53.0432H7.98485C6.57145 53.0474 5.21739 53.6116 4.21946 54.6121C3.22152 55.6127 2.66113 56.9679 2.66114 58.3808V110.709C2.66113 111.781 3.0859 112.809 3.84244 113.568C4.59897 114.327 5.62563 114.756 6.69763 114.76H92.9892C94.064 114.76 95.0947 114.333 95.8547 113.574C96.6146 112.814 97.0416 111.784 97.0416 110.709V59.747C97.0416 57.969 96.335 56.2639 95.0774 55.0067C93.8197 53.7495 92.1139 53.0432 90.3353 53.0432H78.3848C78.2264 53.062 78.0659 53.0472 77.9138 52.9995C77.7616 52.9518 77.6213 52.8725 77.502 52.7667C77.3828 52.6608 77.2873 52.531 77.222 52.3856C77.1566 52.2402 77.1228 52.0826 77.1228 51.9232C77.1228 51.7638 77.1566 51.6062 77.222 51.4608C77.2873 51.3155 77.3828 51.1856 77.502 51.0797C77.6213 50.9739 77.7616 50.8945 77.9138 50.8469C78.0659 50.7992 78.2264 50.7843 78.3848 50.8032H90.3353C92.7082 50.8032 94.9839 51.7455 96.6618 53.4228C98.3397 55.1001 99.2823 57.375 99.2823 59.747V110.709C99.2662 112.359 98.6089 113.938 97.4493 115.112C96.2897 116.286 94.7187 116.963 93.0687 117Z" fill="#F2A23A"/>
<path d="M4.58425 115.459C4.3594 115.455 4.14094 115.384 3.95691 115.254C3.77287 115.125 3.63164 114.944 3.55137 114.734C3.4711 114.524 3.45544 114.295 3.50639 114.076C3.55734 113.857 3.6726 113.658 3.83734 113.505L39.1644 82.1463C39.2742 82.0466 39.4029 81.9698 39.5428 81.9205C39.6827 81.8712 39.831 81.8504 39.9791 81.8593C40.1272 81.8682 40.272 81.9066 40.405 81.9722C40.538 82.0379 40.6565 82.1295 40.7536 82.2416C40.953 82.4632 41.0566 82.7546 41.0417 83.0523C41.0268 83.3499 40.8947 83.6296 40.6742 83.8302L5.33116 115.173C5.12708 115.359 4.86035 115.461 4.58425 115.459Z" fill="#F2A23A"/>
<path d="M94.9122 116.333C94.6366 116.332 94.3709 116.23 94.1652 116.047L58.9653 84.8627C58.8429 84.7682 58.7413 84.6496 58.6668 84.5142C58.5922 84.3788 58.5463 84.2296 58.5318 84.0758C58.5173 83.9219 58.5347 83.7667 58.5827 83.6198C58.6307 83.4729 58.7084 83.3375 58.811 83.2218C58.9136 83.1062 59.0388 83.0129 59.179 82.9477C59.3191 82.8825 59.4712 82.8467 59.6257 82.8427C59.7803 82.8386 59.934 82.8664 60.0773 82.9242C60.2207 82.982 60.3506 83.0687 60.4591 83.1788L95.6591 114.379C95.8295 114.531 95.9499 114.731 96.0042 114.952C96.0585 115.174 96.0443 115.407 95.9634 115.621C95.8825 115.834 95.7386 116.018 95.5509 116.148C95.3632 116.278 95.1405 116.348 94.9122 116.349V116.333Z" fill="#F2A23A"/>
<path d="M49.9387 90.8041C48.7427 90.8041 47.5783 90.4198 46.6174 89.7079L1.97778 56.9193C1.84628 56.8368 1.73321 56.7281 1.64567 56.5999C1.55813 56.4717 1.49799 56.3269 1.46902 56.1744C1.44005 56.0219 1.4429 55.8651 1.47734 55.7138C1.51178 55.5624 1.57707 55.4198 1.66917 55.2949C1.76127 55.1699 1.87819 55.0653 2.01258 54.9876C2.14697 54.9099 2.29596 54.8608 2.45022 54.8433C2.60449 54.8258 2.7607 54.8402 2.9091 54.8859C3.05751 54.9315 3.1949 55.0072 3.31268 55.1083L47.9364 87.8969C48.5146 88.3215 49.2133 88.5504 49.9308 88.5504C50.6482 88.5504 51.347 88.3215 51.9252 87.8969L95.6113 56.125C95.8542 55.9675 96.1484 55.9094 96.4329 55.9627C96.7175 56.016 96.9707 56.1766 97.1402 56.4113C97.3096 56.6459 97.3823 56.9367 97.3432 57.2235C97.3042 57.5103 97.1564 57.7711 96.9303 57.9519L53.2442 89.7238C52.2872 90.4298 51.1281 90.8087 49.9387 90.8041Z" fill="#F2A23A"/>
<path d="M93.8313 43.8134C94.2902 44.1564 94.8476 44.3417 95.4205 44.3417C95.9934 44.3417 96.5509 44.1564 97.0097 43.8134L134.133 16.8073C133.402 15.8967 132.475 15.1625 131.421 14.6592C130.368 14.1559 129.214 13.8965 128.046 13.9002H61.4124C60.4376 13.8958 59.4748 14.1156 58.5985 14.5425C57.7223 14.9695 56.956 15.5922 56.3589 16.3625H56.486L93.8313 43.8134Z" fill="#6945A5"/>
<path d="M98.2812 45.6244C97.4445 46.2375 96.4342 46.568 95.3968 46.568C94.3595 46.568 93.3491 46.2375 92.5125 45.6244L86.8392 41.4464L58.2342 66.8639H58.1548C58.7868 67.1374 59.4684 67.278 60.1571 67.277H130.684C131.075 67.2705 131.464 67.2226 131.844 67.134L103.335 41.8753L98.2812 45.6244Z" fill="#6945A5"/>
<path d="M84.9956 40.0961L55.2942 18.2688C55.0792 18.9255 54.9667 19.6113 54.9604 20.3022V62.1934C54.9633 63.5237 55.475 64.8025 56.3907 65.7678C56.4491 65.5683 56.5587 65.3876 56.7085 65.2436L84.9956 40.0961Z" fill="#6945A5"/>
<path d="M133.783 65.9743C133.839 66.0309 133.887 66.0951 133.926 66.1649C134.516 65.6845 134.992 65.0789 135.319 64.392C135.646 63.7052 135.816 62.9542 135.817 62.1935V21.6684C135.819 20.6491 135.619 19.6396 135.229 18.6978L105.162 40.6045L133.783 65.9743Z" fill="#6945A5"/>
<path d="M135.404 28.1817C143.189 28.1817 149.5 21.873 149.5 14.0908C149.5 6.30868 143.189 0 135.404 0C127.619 0 121.308 6.30868 121.308 14.0908C121.308 21.873 127.619 28.1817 135.404 28.1817Z" fill="#F2A23A"/>
<path d="M132.274 19.5238H130.684V10.1988L129.095 11.1678V9.57921L130.684 8.54663H132.274V19.5238Z" fill="white"/>
<path d="M135.563 18.809C135.006 18.1812 134.721 17.3589 134.768 16.5214V11.5174C134.745 11.099 134.804 10.68 134.943 10.2847C135.082 9.88937 135.298 9.52547 135.579 9.21392C135.889 8.92055 136.257 8.69545 136.659 8.55316C137.062 8.41087 137.489 8.35454 137.915 8.38784C138.339 8.36002 138.764 8.41738 139.165 8.55653C139.566 8.69568 139.935 8.9138 140.251 9.19802C140.533 9.51148 140.75 9.87801 140.89 10.2762C141.029 10.6744 141.087 11.0964 141.061 11.5174V16.5214C141.119 16.9523 141.076 17.3905 140.937 17.8022C140.798 18.2139 140.565 18.588 140.258 18.8953C139.95 19.2026 139.576 19.435 139.164 19.5743C138.752 19.7136 138.314 19.7562 137.883 19.6986C137.456 19.7137 137.031 19.6427 136.632 19.4899C136.234 19.3371 135.87 19.1055 135.563 18.809ZM139.123 17.7447C139.396 17.3977 139.532 16.9622 139.504 16.5214V11.5174C139.534 11.0714 139.398 10.6301 139.123 10.2783C138.782 9.99952 138.355 9.84722 137.915 9.84722C137.475 9.84722 137.048 9.99952 136.707 10.2783C136.426 10.6278 136.284 11.0694 136.31 11.5174V16.5214C136.287 16.9642 136.428 17.4 136.707 17.7447C137.048 18.0234 137.475 18.1757 137.915 18.1757C138.355 18.1757 138.782 18.0234 139.123 17.7447Z" fill="white"/>
</g>
<defs>
<clipPath id="clip0">
<rect width="149" height="117" fill="white" transform="translate(0.5)"/>
</clipPath>
</defs>
</svg>
