<svg width="206" height="136" viewBox="0 0 206 136" fill="none" xmlns="http://www.w3.org/2000/svg">
<g clip-path="url(#clip0)">
<path d="M180.312 48.9684H45.6871C42.2524 48.9684 38.9581 50.3337 36.5277 52.7645C34.0973 55.1954 32.7294 58.4929 32.7246 61.9331V133.038C32.7269 133.516 32.8716 133.983 33.14 134.378C33.4084 134.774 33.7884 135.08 34.2314 135.258C34.6745 135.436 35.1604 135.477 35.6271 135.377C36.0938 135.277 36.5201 135.039 36.8515 134.695L49.705 121.348C50.2719 120.766 50.9507 120.304 51.7006 119.991C52.4505 119.678 53.2558 119.52 54.0682 119.527L180.312 119.382C181.781 119.384 183.237 119.096 184.596 118.535C185.955 117.973 187.189 117.148 188.229 116.108C189.27 115.068 190.095 113.833 190.658 112.473C191.221 111.113 191.511 109.656 191.511 108.183V60.185C191.511 57.2102 190.331 54.3572 188.23 52.2537C186.13 50.1501 183.282 48.9684 180.312 48.9684Z" fill="#F2A23A"/>
<path d="M98.9728 75.5532H66.6302C66.2927 75.5532 65.969 75.4189 65.7303 75.1798C65.4917 74.9408 65.3576 74.6166 65.3576 74.2785C65.3551 74.1096 65.3863 73.9419 65.4492 73.7852C65.512 73.6284 65.6054 73.4857 65.7238 73.3654C65.8423 73.2452 65.9834 73.1496 66.139 73.0844C66.2946 73.0193 66.4615 72.9857 66.6302 72.9857H98.9728C99.3151 72.9857 99.6435 73.1219 99.8855 73.3644C100.128 73.6068 100.264 73.9357 100.264 74.2785C100.264 74.4475 100.23 74.6147 100.165 74.7705C100.1 74.9264 100.005 75.0677 99.8844 75.1863C99.7643 75.3049 99.6219 75.3984 99.4654 75.4614C99.3089 75.5244 99.1415 75.5556 98.9728 75.5532Z" fill="white"/>
<path d="M168.185 75.5532H118.608C118.439 75.5556 118.272 75.5244 118.115 75.4614C117.959 75.3984 117.816 75.3049 117.696 75.1863C117.576 75.0677 117.481 74.9264 117.415 74.7705C117.35 74.6147 117.317 74.4475 117.317 74.2785C117.317 73.9357 117.453 73.6068 117.695 73.3644C117.937 73.1219 118.265 72.9857 118.608 72.9857H168.112C168.455 72.9857 168.783 73.1219 169.025 73.3644C169.267 73.6068 169.403 73.9357 169.403 74.2785C169.403 74.6073 169.277 74.9235 169.05 75.161C168.823 75.3986 168.513 75.5391 168.185 75.5532Z" fill="white"/>
<path d="M148.096 87.0976H66.6302C66.2927 87.0976 65.969 86.9633 65.7303 86.7243C65.4917 86.4852 65.3576 86.161 65.3576 85.823C65.3551 85.6541 65.3863 85.4864 65.4492 85.3296C65.512 85.1729 65.6054 85.0302 65.7238 84.9099C65.8423 84.7896 65.9834 84.6941 66.139 84.6289C66.2946 84.5637 66.4615 84.5301 66.6302 84.5302H148.096C148.438 84.5302 148.766 84.6664 149.008 84.9088C149.251 85.1513 149.387 85.4801 149.387 85.823C149.387 85.9919 149.353 86.1592 149.288 86.315C149.223 86.4708 149.128 86.6122 149.007 86.7308C148.887 86.8494 148.745 86.9429 148.588 87.0058C148.432 87.0688 148.264 87.1 148.096 87.0976Z" fill="white"/>
<path d="M120.607 98.6419H66.6302C66.2927 98.6419 65.969 98.5076 65.7303 98.2686C65.4917 98.0295 65.3576 97.7053 65.3576 97.3673C65.3551 97.1984 65.3863 97.0307 65.4492 96.8739C65.512 96.7172 65.6054 96.5745 65.7238 96.4542C65.8423 96.3339 65.9834 96.2384 66.139 96.1732C66.2946 96.108 66.4615 96.0744 66.6302 96.0745H120.607C120.95 96.0745 121.278 96.2107 121.52 96.4531C121.762 96.6956 121.898 97.0244 121.898 97.3673C121.898 97.5362 121.865 97.7034 121.799 97.8593C121.734 98.0151 121.639 98.1565 121.519 98.2751C121.399 98.3937 121.256 98.4872 121.1 98.5501C120.943 98.6131 120.776 98.6443 120.607 98.6419Z" fill="white"/>
<path d="M9.1446 51.6632H46.6504C47.2442 51.6602 47.8324 51.7781 48.3793 52.0097C48.9263 52.2413 49.4205 52.5819 49.832 53.0107L59.1584 62.716C59.4079 62.962 59.7232 63.1305 60.0661 63.2014C60.409 63.2723 60.7651 63.2425 61.0915 63.1155C61.4179 62.9886 61.7008 62.77 61.9061 62.4859C62.1115 62.2018 62.2305 61.8644 62.249 61.5142V9.87405C62.249 7.37249 61.2568 4.97339 59.4907 3.20451C57.7247 1.43564 55.3293 0.441895 52.8317 0.441895H7.70837C6.70172 0.441892 5.70497 0.640774 4.77517 1.02716C3.84537 1.41355 3.00081 1.97985 2.28984 2.69363C1.57888 3.4074 1.01546 4.25463 0.631887 5.18681C0.248315 6.11898 0.052099 7.11778 0.0544901 8.12601V42.486C0.0448911 43.6877 0.272936 44.8795 0.725457 45.9925C1.17798 47.1055 1.84604 48.1178 2.69109 48.9709C3.53614 49.8241 4.54146 50.5012 5.64909 50.9633C6.75672 51.4254 7.94472 51.6633 9.1446 51.6632Z" fill="#6945A5"/>
<path d="M42.3599 27.1906C42.3599 27.8281 42.5486 28.4512 42.9022 28.9812C43.2558 29.5112 43.7583 29.9243 44.3463 30.1682C44.9343 30.4122 45.5813 30.476 46.2055 30.3516C46.8298 30.2273 47.4031 29.9203 47.8532 29.4696C48.3032 29.0189 48.6097 28.4446 48.7338 27.8194C48.858 27.1942 48.7943 26.5462 48.5507 25.9572C48.3072 25.3683 47.8947 24.865 47.3655 24.5108C46.8363 24.1567 46.2142 23.9677 45.5778 23.9677C44.7243 23.9677 43.9058 24.3072 43.3024 24.9116C42.6989 25.5161 42.3599 26.3358 42.3599 27.1906Z" fill="white"/>
<path d="M27.3066 27.1906C27.3066 27.8281 27.4954 28.4512 27.8489 28.9812C28.2025 29.5112 28.7051 29.9243 29.2931 30.1682C29.8811 30.4122 30.5281 30.476 31.1523 30.3516C31.7765 30.2273 32.3499 29.9203 32.7999 29.4696C33.25 29.0189 33.5565 28.4446 33.6806 27.8194C33.8048 27.1942 33.7411 26.5462 33.4975 25.9572C33.2539 25.3683 32.8415 24.865 32.3123 24.5108C31.7831 24.1567 31.161 23.9677 30.5245 23.9677C29.6711 23.9677 28.8526 24.3072 28.2491 24.9116C27.6457 25.5161 27.3066 26.3358 27.3066 27.1906Z" fill="white"/>
<path d="M11.9077 27.1906C11.9077 27.8281 12.0964 28.4512 12.45 28.9812C12.8036 29.5112 13.3062 29.9243 13.8942 30.1682C14.4822 30.4122 15.1292 30.476 15.7534 30.3516C16.3776 30.2273 16.951 29.9203 17.401 29.4696C17.851 29.0189 18.1575 28.4446 18.2817 27.8194C18.4059 27.1942 18.3421 26.5462 18.0986 25.9572C17.855 25.3683 17.4426 24.865 16.9134 24.5108C16.3842 24.1567 15.7621 23.9677 15.1256 23.9677C14.2722 23.9677 13.4537 24.3072 12.8502 24.9116C12.2467 25.5161 11.9077 26.3358 11.9077 27.1906Z" fill="white"/>
<path d="M200.165 72.2762C207.954 64.4755 207.954 51.828 200.165 44.0272C192.377 36.2265 179.749 36.2265 171.961 44.0272C164.172 51.828 164.172 64.4755 171.961 72.2762C179.749 80.077 192.377 80.077 200.165 72.2762Z" fill="#6945A5"/>
<path d="M188.347 67.4866H185.602V50.8984L182.82 52.6101V49.7695L185.602 47.9486H188.347V67.4866Z" fill="white"/>
</g>
<defs>
<clipPath id="clip0">
<rect width="206" height="135" fill="white" transform="translate(0 0.441895)"/>
</clipPath>
</defs>
</svg>
