<svg width="206" height="321" viewBox="0 0 206 321" fill="none" xmlns="http://www.w3.org/2000/svg">
<g clip-path="url(#clip0)">
<path d="M185.967 320.478L52.13 319.99C47.8269 319.975 43.7056 318.248 40.6703 315.19C37.6351 312.132 35.9337 307.992 35.9395 303.678L36.9922 16.6251C36.9951 14.4831 37.4194 12.3627 38.241 10.3854C39.0626 8.40808 40.2652 6.61272 41.78 5.10216C43.2948 3.59159 45.0919 2.39551 47.0686 1.58244C49.0452 0.76937 51.1624 0.355282 53.2989 0.363901L187.172 0.873429C191.48 0.888847 195.606 2.61894 198.642 5.68332C201.678 8.74769 203.376 12.8955 203.362 17.2147L202.273 304.253C202.266 306.392 201.838 308.508 201.014 310.481C200.19 312.454 198.987 314.246 197.473 315.752C195.958 317.259 194.163 318.452 192.189 319.263C190.214 320.073 188.1 320.486 185.967 320.478Z" fill="white" stroke="#6945A5" stroke-miterlimit="10"/>
<path d="M184.13 7.4246L150.769 7.30086V10.1688C150.759 11.8213 150.097 13.4027 148.926 14.5665C147.756 15.7303 146.173 16.3816 144.525 16.3777L95.801 16.1957C94.1533 16.188 92.576 15.5254 91.4149 14.3532C90.2539 13.1811 89.6041 11.595 89.6079 9.94311V7.07521L56.2468 6.95147C54.539 6.93996 52.8457 7.26642 51.264 7.91213C49.6822 8.55785 48.2431 9.51013 47.0291 10.7144C45.8151 11.9187 44.85 13.3513 44.1892 14.9302C43.5284 16.509 43.1848 18.2031 43.1782 19.9153L42.1618 299.616C42.1541 301.325 42.4827 303.019 43.1286 304.601C43.7746 306.182 44.7253 307.621 45.9263 308.834C47.1273 310.046 48.555 311.01 50.1279 311.669C51.7007 312.328 53.3877 312.67 55.0924 312.675L182.968 313.148C184.673 313.155 186.362 312.824 187.939 312.177C189.516 311.529 190.95 310.575 192.16 309.371C193.37 308.168 194.331 306.737 194.988 305.16C195.646 303.584 195.988 301.893 195.993 300.184L197.061 20.5267C197.073 18.8143 196.748 17.1162 196.104 15.53C195.461 13.9438 194.511 12.5006 193.31 11.2833C192.108 10.0659 190.679 9.09844 189.104 8.43627C187.528 7.7741 185.838 7.4303 184.13 7.4246Z" fill="#F6F5FF" stroke="#6945A5" stroke-miterlimit="10"/>
<path d="M108.902 9.91856L108.902 10.0132C108.9 10.5559 109.337 10.9975 109.879 10.9995L133.228 11.0852C133.769 11.0872 134.209 10.6489 134.211 10.1062L134.212 10.0116C134.214 9.46886 133.776 9.0273 133.235 9.02531L109.886 8.93951C109.345 8.93752 108.904 9.37586 108.902 9.91856Z" fill="#6945A5"/>
<path d="M63.7827 43.943H5.76549C3.1832 43.943 1.08984 46.0417 1.08984 48.6306V70.7441C1.08984 73.333 3.1832 75.4317 5.76549 75.4317H63.7827C66.365 75.4317 68.4584 73.333 68.4584 70.7441V48.6306C68.4584 46.0417 66.365 43.943 63.7827 43.943Z" fill="white" stroke="#6945A5" stroke-miterlimit="10"/>
<path d="M60.959 51.6951H8.58301V52.3211H60.959V51.6951Z" fill="#DFDFFB"/>
<path d="M60.959 59.3744H8.58301V60.0004H60.959V59.3744Z" fill="#DFDFFB"/>
<path d="M60.959 67.0537H8.58301V67.6797H60.959V67.0537Z" fill="#DFDFFB"/>
<path d="M9.46099 67.7379L8.96729 67.3521L12.7063 62.6281L19.1317 64.8263L24.6641 58.8066L30.2908 63.3487L36.8905 55.9387L42.8802 62.8683L48.2384 48.98L53.7852 57.7293L60.2397 48.3977L60.7551 48.7544L53.7635 58.8648L48.369 50.363L43.0908 64.0693L36.8832 56.8922L30.3562 64.2149L24.7222 59.6655L19.3132 65.5542L12.9169 63.3705L9.46099 67.7379Z" fill="#4F57C7"/>
<mask id="mask0" style="mask-type:alpha" maskUnits="userSpaceOnUse" x="41" y="6" width="157" height="308">
<path d="M184.13 7.4246L150.769 7.30086V10.1688C150.759 11.8213 150.097 13.4027 148.926 14.5665C147.756 15.7303 146.173 16.3816 144.525 16.3777L95.801 16.1957C94.1533 16.188 92.576 15.5254 91.4149 14.3532C90.2539 13.1811 89.6041 11.595 89.6079 9.94311V7.07521L56.2468 6.95147C54.539 6.93996 52.8457 7.26642 51.264 7.91213C49.6822 8.55785 48.2431 9.51013 47.0291 10.7144C45.8151 11.9187 44.85 13.3513 44.1892 14.9302C43.5284 16.509 43.1848 18.2031 43.1782 19.9153L42.1618 299.616C42.1541 301.325 42.4827 303.019 43.1286 304.601C43.7746 306.182 44.7253 307.621 45.9263 308.834C47.1273 310.046 48.555 311.01 50.1279 311.669C51.7007 312.328 53.3877 312.67 55.0924 312.675L182.968 313.148C184.673 313.155 186.362 312.824 187.939 312.177C189.516 311.529 190.95 310.575 192.16 309.371C193.37 308.168 194.331 306.737 194.988 305.16C195.646 303.584 195.988 301.893 195.993 300.184L197.061 20.5267C197.073 18.8143 196.748 17.1162 196.104 15.53C195.461 13.9438 194.511 12.5006 193.31 11.2833C192.108 10.0659 190.679 9.09844 189.104 8.43627C187.528 7.7741 185.838 7.4303 184.13 7.4246Z" fill="#F6F5FF" stroke="#6945A5" stroke-miterlimit="10"/>
</mask>
<g mask="url(#mask0)">
<path d="M179.985 116.558C179.629 115.83 179.411 115.459 179.411 115.459L179.447 115.16C178.395 112.547 177.269 109.956 175.984 107.394C167.613 90.3754 146.899 80.7235 128.015 80.6944C122.3 80.655 116.609 81.4319 111.113 83.0018C103.381 86.4885 84.4751 98.5497 79.5598 134.471C77.8512 146.918 80.2478 159.584 86.3845 170.539C81.3023 173.741 74.6156 180.234 69.7729 193.343C60.8427 217.43 16.3878 222.78 11.9372 254.909C7.48664 287.038 53.7567 345 102.691 307.536C139.937 279.017 133.911 224.665 128.865 200.331C140.481 201.933 152.976 199.734 164.97 192.47C180.217 183.218 186.432 170.742 188.094 158.528C187.827 144.174 185.084 129.974 179.985 116.558Z" fill="black"/>
<path d="M136.495 200.484C106.176 200.484 84.5766 172.962 83.6763 171.791C83.4618 171.513 83.3039 171.196 83.2117 170.857C83.1195 170.518 83.0948 170.164 83.139 169.816C83.1831 169.467 83.2953 169.131 83.4691 168.826C83.6429 168.521 83.8749 168.253 84.1519 168.038C84.4288 167.823 84.7454 167.665 85.0833 167.572C85.4213 167.48 85.7742 167.455 86.1217 167.499C86.4692 167.544 86.8047 167.656 87.1089 167.83C87.4131 168.005 87.68 168.237 87.8946 168.515C88.0978 168.777 108.826 195.127 136.495 195.127C137.204 195.127 137.883 195.409 138.384 195.911C138.885 196.414 139.167 197.095 139.167 197.805C139.167 198.516 138.885 199.197 138.384 199.7C137.883 200.202 137.204 200.484 136.495 200.484Z" fill="#EC665A"/>
<path d="M189.35 265.827C172.971 216.017 154.653 218.143 154.653 218.143L168.818 322.865C178.932 320.092 192.102 313.919 202.216 311.059C198.883 295.3 193.409 278.085 189.35 265.827Z" fill="#4C3C99"/>
<path d="M112.768 209.182C112.768 209.182 82.5872 207.254 70.6585 220.327C58.7298 233.4 97.1441 336.833 99.3222 353.48C101.5 370.127 88.2575 414.369 88.2575 414.369C88.2575 414.369 159.14 428.701 179.404 415.228C179.404 415.228 181.582 295.562 179.404 283.675C177.225 271.789 159.14 223.449 154.798 218.696C150.457 213.943 112.768 209.182 112.768 209.182Z" fill="#5E4C9A"/>
<path d="M122.817 168.668C122.817 168.668 122.657 169.563 122.374 171.077C121.031 178.356 115.84 202.551 112.347 209.204C108.122 217.211 126.832 242.862 144.837 239.732C150.203 238.8 140.307 216.192 140.786 213.79C141.694 209.212 142.928 202.952 144.191 196.539C144.917 192.899 145.643 189.26 146.304 185.802C148.228 176.005 149.796 167.991 149.796 167.991L122.817 168.668Z" fill="#F5BD9B"/>
<path d="M122.374 171.077C122.657 169.563 122.817 168.668 122.817 168.668L149.796 167.991C149.796 167.991 148.228 175.998 146.304 185.802C145.628 189.231 144.91 192.878 144.205 196.481C140.038 195.862 135.682 193.824 131.318 189.988C126.857 186.07 123.493 181.052 121.561 175.43C121.887 173.69 122.17 172.213 122.374 171.077Z" fill="#E47B60"/>
<path d="M140.975 107.03C140.975 107.03 128.255 105.574 120.283 115.917C112.311 126.261 103.715 158.324 123.521 175.743C143.327 193.162 162.901 173.443 165.798 152.538C168.695 131.633 169.828 106.273 140.975 107.03Z" fill="#F5BD9B"/>
<path d="M171.657 152.225C169.297 156.847 165.326 159.402 162.799 157.939C160.273 156.476 160.128 151.54 162.495 146.926C164.861 142.311 168.826 139.749 171.359 141.212C173.893 142.675 174.024 147.61 171.657 152.225Z" fill="#F5BD9B"/>
<path d="M116.435 143.141C117.43 148.556 115.441 153.513 111.999 154.226C108.558 154.94 104.964 151.126 104.013 145.71C103.062 140.294 105.007 135.337 108.449 134.631C111.89 133.925 115.448 137.718 116.435 143.141Z" fill="#F5BD9B"/>
<path d="M106.662 324.459C106.662 324.459 120.508 263.229 116.747 243.99C112.986 224.752 88.8601 208.076 73.3303 215.755C57.8005 223.435 65.9248 314.443 65.9248 314.443L106.662 324.459Z" fill="#4C3C99"/>
<path d="M283.611 225.254C282.108 222.066 268.713 231.507 265.744 229.709C262.774 227.911 277.745 212.778 276.213 210.136C273.403 205.259 258.788 225.698 257.336 223.537C255.884 221.375 269.94 199.589 264.945 198.359C259.95 197.128 252.762 222.503 250.192 220.872C247.622 219.242 258.977 197.907 254.134 193.555C251.543 191.233 239.331 232.49 234.902 234.2C230.473 235.911 225.463 217.903 221.318 218.609C217.172 219.315 234.989 251.742 234.118 254.276C233.247 256.809 216.904 309.734 207.255 325.718C201.446 322.938 195.798 320.136 190.403 317.413C188.225 329.686 182.417 341.317 179.593 353.364C198.303 361.611 220.563 368.883 226.001 366.881C242.547 360.767 250.686 280.261 253.372 265.209C256.058 250.156 263.101 247.215 267.13 239.325C271.16 231.434 285.114 228.443 283.611 225.254Z" fill="#EBA694"/>
<path d="M149.912 160.887L128.131 159.292C128.131 159.292 128.03 167.634 137.57 168.61C149.237 169.803 149.912 160.887 149.912 160.887Z" fill="#EFFAFD"/>
</g>
<mask id="mask1" style="mask-type:alpha" maskUnits="userSpaceOnUse" x="124" y="35" width="55" height="67">
<path d="M167.889 35.6086H135.13C129.785 35.6086 125.452 39.9528 125.452 45.3115V90.8923C125.452 96.251 129.785 100.595 135.13 100.595H167.889C173.234 100.595 177.567 96.251 177.567 90.8923V45.3115C177.567 39.9528 173.234 35.6086 167.889 35.6086Z" fill="#C4C4C4" stroke="#6945A5" stroke-miterlimit="10"/>
</mask>
<g mask="url(#mask1)">
<path d="M167.889 35.6086H135.13C129.785 35.6086 125.452 39.9528 125.452 45.3115V90.8923C125.452 96.251 129.785 100.595 135.13 100.595H167.889C173.234 100.595 177.567 96.251 177.567 90.8923V45.3115C177.567 39.9528 173.234 35.6086 167.889 35.6086Z" fill="#F6F5FF" stroke="#6945A5" stroke-miterlimit="10"/>
<path d="M127.638 113.1L142.216 114.556C142.216 114.556 142.892 102.568 142.892 96.8538C142.892 89.917 142.296 80.9784 141.44 81.1749C139.095 81.7136 135.936 83.0092 134.056 85.6005C127.587 94.5973 127.638 113.1 127.638 113.1Z" fill="#FFA03E"/>
<path d="M134.818 95.6672C134.506 97.7781 128.901 155.275 128.901 155.275C155.459 168.136 170.11 157.567 170.11 157.567C170.11 157.567 169.239 117.191 170.285 111.71C170.967 108.071 171.831 83.9117 169.479 83.2348C166.135 82.2044 162.707 81.4736 159.234 81.0511C156.018 80.7163 143.523 80.527 141.287 81.2767C137.823 85.3676 135.581 90.3556 134.818 95.6672Z" fill="#FFA03E"/>
<path d="M188.435 107.619L175.802 116.121C175.802 116.121 168.68 105.501 164.861 101.716C160.069 96.9775 166.604 82.4633 169.689 83.2858C176.586 85.1201 188.435 107.619 188.435 107.619Z" fill="#FFA03E"/>
<path d="M155.706 69.2301L157.659 81.2113C157.659 81.2113 150.507 96.4461 146.238 95.165C142.652 94.0877 144.859 81.0002 144.859 81.0002C144.859 81.0002 146.812 73.9687 146.224 70.453C145.636 66.9372 155.706 69.2301 155.706 69.2301Z" fill="#F5BD9B"/>
<path d="M146.224 70.453C145.636 66.9372 155.706 69.2301 155.706 69.2301L155.866 70.2637C155.612 70.9034 155.243 71.4907 154.777 71.9961C152.414 74.3181 149.282 75.6885 145.977 75.8467C146.32 74.0703 146.403 72.2534 146.224 70.453Z" fill="#E47B60"/>
<path d="M157.361 51.6587C157.645 51.5641 159.641 65.809 155.851 69.7251C152.061 73.6411 144.678 74.9295 142.057 71.8433C139.152 68.4294 139.276 53.1145 145.164 49.082C151.052 45.0494 157.361 51.6587 157.361 51.6587Z" fill="#F5BD9B"/>
<path d="M155.953 46.1704C158.022 46.4033 160.832 47.5024 163.736 52.1245C167.301 57.8021 164.665 64.0984 160.512 67.1847C156.359 70.271 156.432 73.8085 156.432 73.8085L155.764 71.9961C155.266 70.5978 155.088 69.1054 155.241 67.6287C155.316 66.7255 155.545 65.8417 155.917 65.0156C156.911 62.9483 153.738 61.5799 152.889 59.8693C152.207 58.5446 152.163 55.502 151.103 53.3183L149.825 51.6514C149.825 51.6514 146.877 49.4677 144.017 50.0719C141.156 50.676 144.67 37.21 155.953 46.1704Z" fill="#1A1A1A"/>
<path d="M153.092 62.4243C153.092 64.164 153.884 65.5834 154.929 65.6053C155.975 65.6271 156.846 64.2223 156.875 62.4826C156.904 60.7429 156.084 59.3235 155.038 59.309C153.993 59.2944 153.121 60.6847 153.092 62.4243Z" fill="#F5BD9B"/>
<path d="M146.645 66.2384L141.476 65.2048C141.42 65.7999 141.595 66.3937 141.966 66.8618C142.337 67.3299 142.874 67.636 143.465 67.7161C146.224 68.3493 146.645 66.2384 146.645 66.2384Z" fill="#EFFAFD"/>
</g>
<path d="M118.831 296.574C125.808 296.574 131.464 290.903 131.464 283.908C131.464 276.913 125.808 271.243 118.831 271.243C111.854 271.243 106.198 276.913 106.198 283.908C106.198 290.903 111.854 296.574 118.831 296.574Z" fill="#EC665A"/>
<path d="M125.133 285.866C125.165 285.834 125.191 285.795 125.208 285.753C125.225 285.71 125.234 285.665 125.234 285.619V284.891C125.183 284.295 124.986 283.721 124.66 283.219C124.335 282.718 123.891 282.304 123.368 282.016C122.006 281.169 120.434 280.72 118.831 280.72C117.227 280.72 115.656 281.169 114.293 282.016C113.769 282.303 113.324 282.716 112.997 283.218C112.67 283.719 112.472 284.294 112.42 284.891V285.619C112.42 285.665 112.429 285.711 112.447 285.754C112.465 285.797 112.491 285.836 112.524 285.869C112.558 285.901 112.597 285.927 112.64 285.944C112.683 285.961 112.729 285.969 112.776 285.968H114.954C115.048 285.967 115.139 285.931 115.208 285.866C115.24 285.834 115.266 285.795 115.283 285.753C115.301 285.71 115.309 285.665 115.309 285.619V284.891C115.322 284.509 115.43 284.137 115.623 283.808C115.815 283.479 116.087 283.203 116.413 283.006C117.142 282.54 117.988 282.292 118.852 282.292C119.717 282.292 120.563 282.54 121.292 283.006C121.618 283.203 121.889 283.479 122.082 283.808C122.275 284.137 122.383 284.509 122.395 284.891V285.619C122.395 285.665 122.404 285.71 122.422 285.753C122.439 285.795 122.465 285.834 122.497 285.866C122.565 285.932 122.656 285.969 122.751 285.968H124.929C124.975 285.968 125.02 285.959 125.063 285.942C125.105 285.924 125.144 285.899 125.176 285.866H125.133ZM112.79 282.03C113.088 281.727 113.416 281.456 113.77 281.222C115.284 280.276 117.032 279.774 118.816 279.774C120.6 279.774 122.348 280.276 123.862 281.222C124.512 281.639 125.068 282.187 125.496 282.831C125.906 283.429 126.128 284.136 126.134 284.862V285.59C126.134 285.926 126.001 286.248 125.764 286.485C125.528 286.723 125.206 286.856 124.871 286.856H122.693C122.527 286.857 122.362 286.825 122.207 286.762C122.053 286.699 121.913 286.606 121.795 286.488C121.677 286.37 121.583 286.23 121.519 286.076C121.455 285.922 121.423 285.757 121.423 285.59V284.862C121.402 284.628 121.325 284.402 121.199 284.205C121.072 284.007 120.9 283.843 120.697 283.726C120.116 283.374 119.451 283.187 118.773 283.187C118.094 283.187 117.429 283.374 116.849 283.726C116.645 283.843 116.473 284.007 116.346 284.205C116.22 284.402 116.143 284.628 116.123 284.862V285.59C116.123 285.757 116.09 285.922 116.026 286.076C115.962 286.23 115.868 286.37 115.75 286.488C115.632 286.606 115.492 286.699 115.338 286.762C115.184 286.825 115.018 286.857 114.852 286.856H112.674C112.338 286.856 112.016 286.723 111.778 286.486C111.54 286.248 111.405 285.926 111.403 285.59V284.862C111.413 284.137 111.635 283.43 112.042 282.831C112.234 282.541 112.455 282.273 112.703 282.03H112.79Z" fill="white"/>
<path d="M47.803 140.382H16.6563C10.8662 140.382 6.17236 145.088 6.17236 150.893V194.858C6.17236 200.662 10.8662 205.368 16.6563 205.368H47.803C53.5931 205.368 58.2869 200.662 58.2869 194.858V150.893C58.2869 145.088 53.5931 140.382 47.803 140.382Z" fill="white" stroke="#6945A5" stroke-miterlimit="10"/>
<mask id="mask2" style="mask-type:alpha" maskUnits="userSpaceOnUse" x="5" y="138" width="54" height="67">
<path d="M47.803 139.382H16.6563C10.8662 139.382 6.17236 144.088 6.17236 149.893V193.858C6.17236 199.662 10.8662 204.368 16.6563 204.368H47.803C53.5931 204.368 58.2869 199.662 58.2869 193.858V149.893C58.2869 144.088 53.5931 139.382 47.803 139.382Z" fill="#C4C4C4" stroke="#6945A5" stroke-miterlimit="10"/>
</mask>
<g mask="url(#mask2)">
<path d="M9.59914 214.253L23.4518 215.709C23.4518 215.709 24.0835 204.325 24.0835 198.895C24.0835 192.3 23.5244 183.82 22.7331 184.002C20.5041 184.511 17.5056 185.749 15.7196 188.202C9.54106 196.682 9.59914 214.253 9.59914 214.253Z" fill="#F7A09C"/>
<path d="M49.7489 217.58C49.7647 216.021 49.8786 214.465 50.0901 212.921C50.7435 209.464 51.5422 186.52 49.3278 185.88C46.1535 184.897 42.8974 184.203 39.5989 183.805C36.5423 183.485 24.6717 183.303 22.5517 184.016C19.2579 187.904 17.1262 192.645 16.4022 197.694C16.2933 198.472 15.4148 207.2 14.3911 217.58H49.7489Z" fill="#EC665A"/>
<path d="M67.3258 209.049L55.3317 217.121C55.3317 217.121 48.5651 207.032 44.9349 203.444C40.39 198.938 46.5903 185.159 49.5235 185.938C56.0795 187.67 67.3258 209.049 67.3258 209.049Z" fill="#F7A09C"/>
<path d="M28.7298 148.684C28.7298 148.684 32.8391 144.317 36.1498 149.631C36.8813 149.227 37.7384 149.118 38.5474 149.325C39.3563 149.532 40.0565 150.039 40.506 150.744C40.506 150.744 45.1018 149.361 46.2199 156.254C46.2199 156.254 48.594 155.81 48.9062 158.635C49.1027 160.285 48.7063 161.952 47.7881 163.337C47.7881 163.337 49.1168 164.334 48.5142 166.933C48.4068 167.536 48.1296 168.095 47.7154 168.545C47.3012 168.995 46.7671 169.317 46.1763 169.473C46.1763 169.473 45.6899 173.193 44.0781 174.314C42.9317 174.983 41.5745 175.191 40.2809 174.896C40.2809 174.896 39.7001 176.912 37.8197 176.73C35.9393 176.548 33.6232 174.758 31.5177 175.566C29.4123 176.373 23.967 175.522 23.967 175.522C23.967 175.522 17.8466 172.792 19.6762 166.518C19.6762 166.518 16.4598 163.606 19.2769 160.112C19.2769 160.112 17.2222 154.646 21.288 151.421C25.3537 148.197 28.7298 148.684 28.7298 148.684Z" fill="#1A1A1A"/>
<path d="M29.42 178.208L28.6939 183.74C28.6939 183.74 27.024 191.747 29.1731 193.253C31.3222 194.76 38.2921 183.514 38.2921 183.514L37.566 169.488L29.42 178.208Z" fill="#F5BD9B"/>
<path d="M37.7764 174.015C36.0049 178.805 31.7867 181.745 28.7954 182.881L29.4198 178.193L37.5441 169.458L37.7764 174.015Z" fill="#E47B60"/>
<path d="M48.9572 159.938C48.9572 162.078 47.7447 163.81 46.2491 163.81C44.7535 163.81 43.541 162.078 43.541 159.938C43.541 157.798 44.7535 156.073 46.2491 156.073C47.7447 156.073 48.9572 157.827 48.9572 159.938Z" fill="#1A1A1A"/>
<path d="M37.5442 153.845C39.3647 153.845 40.8404 152.851 40.8404 151.625C40.8404 150.399 39.3647 149.405 37.5442 149.405C35.7238 149.405 34.248 150.399 34.248 151.625C34.248 152.851 35.7238 153.845 37.5442 153.845Z" fill="#1A1A1A"/>
<path d="M32.585 154.733C31.5641 154.387 30.4799 154.269 29.4087 154.388C28.3375 154.508 27.3054 154.861 26.3849 155.423C25.4644 155.985 24.6779 156.742 24.0808 157.642C23.4837 158.541 23.0905 159.561 22.9288 160.629C22.5777 162.982 22.3765 165.355 22.3262 167.733C22.21 174.197 25.5498 180.493 28.4757 180.493C31.4016 180.493 39.4968 176.308 39.7945 167.129C39.976 161.466 37.1518 156.313 32.585 154.733Z" fill="#F5BD9B"/>
<path d="M37.6094 167.85C37.6094 169.306 38.546 170.434 39.7149 170.434C40.8838 170.434 41.8204 169.276 41.8204 167.85C41.8204 166.423 40.8765 165.273 39.7149 165.273C38.5532 165.273 37.6094 166.423 37.6094 167.85Z" fill="#F5BD9B"/>
<path d="M19.9016 151.523C16.874 153.925 15.814 157.572 17.5274 159.676C19.2409 161.779 23.0888 161.524 26.1164 159.122C29.144 156.72 30.204 153.074 28.4833 150.97C26.7626 148.866 22.9219 149.092 19.9016 151.523Z" fill="#1A1A1A"/>
<path d="M27.8081 153.459C27.8081 154.507 29.0641 155.352 30.6178 155.352C32.1716 155.352 33.4203 154.507 33.4203 153.459C33.4203 152.411 32.1643 151.567 30.6178 151.567C29.0714 151.567 27.8081 152.448 27.8081 153.459Z" fill="#1A1A1A"/>
<path d="M19.4585 161.524C19.4643 161.998 19.6096 162.46 19.8764 162.851C20.1431 163.242 20.5193 163.545 20.9575 163.723C21.3958 163.9 21.8766 163.944 22.3394 163.848C22.8022 163.752 23.2264 163.521 23.5586 163.184C23.8908 162.847 24.1161 162.418 24.2062 161.953C24.2963 161.488 24.2472 161.007 24.0651 160.569C23.8829 160.132 23.5758 159.759 23.1825 159.496C22.7891 159.233 22.3271 159.093 21.8544 159.093C21.5379 159.095 21.2248 159.16 20.9331 159.283C20.6414 159.406 20.3767 159.586 20.1543 159.811C19.9318 160.037 19.7558 160.305 19.6365 160.599C19.5171 160.892 19.4566 161.207 19.4585 161.524Z" fill="#1A1A1A"/>
<path d="M25.4119 173.396L31.1403 173.622C31.0498 174.265 30.714 174.849 30.2036 175.249C29.6932 175.649 29.0478 175.836 28.4031 175.769C25.3248 175.74 25.4119 173.396 25.4119 173.396Z" fill="#EFFAFD"/>
</g>
</g>
<defs>
<clipPath id="clip0">
<rect width="283" height="421" fill="white" transform="translate(0.727051)"/>
</clipPath>
</defs>
</svg>
