<svg width="384" height="320" viewBox="0 0 384 320" fill="none" xmlns="http://www.w3.org/2000/svg">
<g clip-path="url(#clip0)">
<path d="M176.003 302.874L54.8931 302.431C52.9623 302.425 51.0516 302.037 49.2703 301.291C47.489 300.545 45.8719 299.455 44.5113 298.083C43.1507 296.711 42.0734 295.084 41.3407 293.295C40.608 291.507 40.2341 289.591 40.2408 287.657L41.1979 28.2191C41.2045 26.286 41.5915 24.3731 42.3367 22.5898C43.0818 20.8065 44.1705 19.1877 45.5406 17.8258C46.9107 16.4639 48.5354 15.3857 50.3217 14.6528C52.108 13.9199 54.0211 13.5466 55.9516 13.5542L177.026 13.997C178.956 14.0037 180.866 14.3912 182.647 15.1373C184.428 15.8835 186.045 16.9737 187.405 18.3457C188.765 19.7176 189.841 21.3445 190.573 23.1333C191.305 24.9221 191.678 26.8377 191.67 28.7709L190.721 288.209C190.705 292.106 189.148 295.838 186.389 298.587C183.63 301.336 179.895 302.878 176.003 302.874Z" fill="white" stroke="#6945A5" stroke-miterlimit="10"/>
<path d="M174.335 19.9792L144.154 19.8703V22.462C144.148 23.9549 143.551 25.3845 142.493 26.4367C141.436 27.4889 140.004 28.0778 138.514 28.0739L94.4194 27.9069C92.9286 27.9012 91.5009 27.3031 90.4502 26.2441C89.3994 25.185 88.8114 23.7516 88.8152 22.2588V19.667L58.6192 19.5508C55.5055 19.5412 52.5154 20.7701 50.3062 22.9673C48.097 25.1645 46.8495 28.1503 46.838 31.2682L45.939 284.071C45.9333 285.615 46.2316 287.145 46.8166 288.574C47.4017 290.003 48.2621 291.302 49.3488 292.397C50.4355 293.493 51.727 294.363 53.1497 294.959C54.5724 295.555 56.0984 295.864 57.6405 295.868L173.357 296.297C176.47 296.306 179.461 295.077 181.67 292.88C183.879 290.683 185.126 287.697 185.138 284.579L186.059 31.7837C186.065 30.2371 185.767 28.7044 185.181 27.2735C184.595 25.8425 183.733 24.5415 182.644 23.4448C181.555 22.3482 180.26 21.4776 178.835 20.8829C177.409 20.2882 175.88 19.9811 174.335 19.9792Z" fill="#F6F5FF" stroke="#6945A5" stroke-miterlimit="10"/>
<path d="M106.265 22.2491L106.265 22.2564C106.263 22.7696 106.677 23.1872 107.19 23.1891L128.236 23.2663C128.749 23.2682 129.166 22.8537 129.168 22.3404L129.168 22.3332C129.169 21.82 128.755 21.4024 128.243 21.4005L107.197 21.3233C106.684 21.3214 106.267 21.7359 106.265 22.2491Z" fill="#6945A5"/>
<path d="M149.519 154.359H81.2753C78.2682 154.359 75.8306 156.8 75.8306 159.811V234.784C75.8306 237.795 78.2682 240.236 81.2753 240.236H149.519C152.526 240.236 154.964 237.795 154.964 234.784V159.811C154.964 156.8 152.526 154.359 149.519 154.359Z" fill="white"/>
<path d="M149.519 241.165H81.2679C79.5829 241.163 77.9676 240.492 76.7767 239.298C75.5859 238.104 74.917 236.486 74.917 234.798V159.811C74.917 158.124 75.5859 156.506 76.7767 155.312C77.9676 154.118 79.5829 153.446 81.2679 153.444H149.519C151.205 153.446 152.821 154.118 154.013 155.311C155.205 156.505 155.875 158.123 155.877 159.811V234.784C155.878 235.621 155.714 236.45 155.395 237.224C155.076 237.997 154.608 238.701 154.018 239.293C153.427 239.886 152.726 240.356 151.954 240.677C151.182 240.998 150.355 241.164 149.519 241.165ZM81.2679 154.374C79.8252 154.376 78.4422 154.951 77.4227 155.973C76.4032 156.995 75.8305 158.381 75.8305 159.826V234.784C75.8305 236.229 76.4032 237.614 77.4227 238.636C78.4422 239.659 79.8252 240.234 81.2679 240.236H149.519C150.962 240.234 152.346 239.659 153.367 238.637C154.387 237.615 154.962 236.229 154.964 234.784V159.811C154.962 158.366 154.387 156.98 153.367 155.958C152.346 154.936 150.962 154.361 149.519 154.359L81.2679 154.374Z" fill="#CACAEF"/>
<path d="M146.3 166.331H84.4941V167.332H146.3V166.331Z" fill="#DFDFFB"/>
<path d="M146.3 181.562H84.4941V182.564H146.3V181.562Z" fill="#DFDFFB"/>
<path d="M146.3 196.8H84.4941V197.802H146.3V196.8Z" fill="#DFDFFB"/>
<path d="M146.3 212.031H84.4941V213.033H146.3V212.031Z" fill="#DFDFFB"/>
<path d="M146.3 227.263H84.4941V228.264H146.3V227.263Z" fill="#DFDFFB"/>
<path d="M89.7576 186.803H84.4941V228.264H89.7576V186.803Z" fill="#DFDFFB"/>
<path d="M101.198 202.209H95.9346V228.264H101.198V202.209Z" fill="#DFDFFB"/>
<path d="M112.646 192.64H107.382V228.272H112.646V192.64Z" fill="#DFDFFB"/>
<path d="M124.086 186.208H118.823V228.272H124.086V186.208Z" fill="#DFDFFB"/>
<path d="M135.534 178.44H130.271V228.264H135.534V178.44Z" fill="#DFDFFB"/>
<path d="M146.974 170.171H141.711V228.264H146.974V170.171Z" fill="#DFDFFB"/>
<path d="M76.6717 87.4522C82.2333 87.4522 86.7419 82.9375 86.7419 77.3682C86.7419 71.799 82.2333 67.2843 76.6717 67.2843C71.1101 67.2843 66.6016 71.799 66.6016 77.3682C66.6016 82.9375 71.1101 87.4522 76.6717 87.4522Z" fill="#DFDFFB"/>
<path d="M149.708 272.579H64.2669C61.2319 272.579 58.7715 275.042 58.7715 278.082C58.7715 281.121 61.2319 283.585 64.2669 283.585H149.708C152.743 283.585 155.203 281.121 155.203 278.082C155.203 275.042 152.743 272.579 149.708 272.579Z" fill="white" stroke="#8C7DBC" stroke-miterlimit="10"/>
<path d="M166.549 283.265C169.408 283.265 171.725 280.944 171.725 278.082C171.725 275.219 169.408 272.898 166.549 272.898C163.69 272.898 161.373 275.219 161.373 278.082C161.373 280.944 163.69 283.265 166.549 283.265Z" fill="white" stroke="#8C7DBC" stroke-miterlimit="10"/>
<path d="M97.7402 70.9941H168.398" stroke="#DFDFFB" stroke-width="3" stroke-linecap="round" stroke-linejoin="round"/>
<path d="M97.7402 78.0289H168.398" stroke="#DFDFFB" stroke-width="3" stroke-linecap="round" stroke-linejoin="round"/>
<path d="M97.7402 85.071H122.528" stroke="#DFDFFB" stroke-width="3" stroke-linecap="round" stroke-linejoin="round"/>
<path d="M76.6717 119.069C82.2333 119.069 86.7419 114.554 86.7419 108.985C86.7419 103.416 82.2333 98.901 76.6717 98.901C71.1101 98.901 66.6016 103.416 66.6016 108.985C66.6016 114.554 71.1101 119.069 76.6717 119.069Z" fill="#DFDFFB"/>
<path d="M97.7402 102.604H168.398" stroke="#DFDFFB" stroke-width="3" stroke-linecap="round" stroke-linejoin="round"/>
<path d="M97.7402 109.646H168.398" stroke="#DFDFFB" stroke-width="3" stroke-linecap="round" stroke-linejoin="round"/>
<path d="M97.7402 116.68H122.528" stroke="#DFDFFB" stroke-width="3" stroke-linecap="round" stroke-linejoin="round"/>
<path d="M314.738 319.637L181.085 319.151C176.788 319.135 172.672 317.412 169.642 314.361C166.612 311.309 164.916 307.177 164.925 302.874L165.977 16.5742C165.98 14.4403 166.404 12.328 167.224 10.3582C168.043 8.38833 169.242 6.59951 170.752 5.09396C172.263 3.58842 174.054 2.39567 176.025 1.5839C177.996 0.772127 180.107 0.357247 182.238 0.362974L315.884 0.849384C320.186 0.866682 324.306 2.59385 327.338 5.65134C330.369 8.70883 332.064 12.8465 332.051 17.155L331 303.455C330.984 307.759 329.263 311.882 326.214 314.916C323.164 317.951 319.037 319.649 314.738 319.637Z" fill="white" stroke="#6945A5" stroke-miterlimit="10"/>
<path d="M312.904 7.39781L279.554 7.28165V10.142C279.551 10.9578 279.388 11.765 279.073 12.5175C278.759 13.2699 278.299 13.9529 277.721 14.5274C277.142 15.1018 276.457 15.5565 275.703 15.8654C274.949 16.1742 274.141 16.3313 273.327 16.3274L224.672 16.1532C223.027 16.1455 221.452 15.4846 220.292 14.3155C219.133 13.1464 218.484 11.5646 218.488 9.91698V7.0566L185.138 6.93318C181.701 6.9216 178.401 8.27712 175.962 10.7017C173.523 13.1263 172.145 16.4216 172.132 19.863L171.117 298.83C171.109 300.535 171.437 302.224 172.082 303.802C172.727 305.379 173.677 306.814 174.876 308.023C176.075 309.233 177.501 310.194 179.071 310.852C180.642 311.509 182.327 311.85 184.029 311.854L311.722 312.326C315.159 312.338 318.46 310.982 320.899 308.558C323.338 306.133 324.715 302.838 324.729 299.397L325.787 20.4656C325.799 18.7603 325.474 17.0695 324.833 15.4897C324.192 13.91 323.246 12.4723 322.049 11.2587C320.853 10.0452 319.43 9.07956 317.86 8.41709C316.291 7.75462 314.607 7.40826 312.904 7.39781Z" fill="#F6F5FF" stroke="#6945A5" stroke-miterlimit="10"/>
<path d="M237.787 9.89504L237.787 9.98943C237.785 10.5307 238.221 10.9711 238.762 10.9731L262.078 11.0586C262.618 11.0606 263.058 10.6235 263.06 10.0822L263.06 9.9878C263.062 9.44652 262.626 9.00614 262.085 9.00415L238.769 8.91858C238.229 8.9166 237.789 9.35376 237.787 9.89504Z" fill="#6945A5"/>
<path d="M24.0951 266.909C24.1205 266.884 24.1406 266.855 24.1543 266.822C24.168 266.79 24.1749 266.755 24.1748 266.72V266.146C24.1278 265.693 23.9713 265.257 23.7187 264.878C23.466 264.498 23.1249 264.186 22.7248 263.968C21.6848 263.315 20.4799 262.972 19.2521 262.981C18.0265 262.972 16.824 263.315 15.7866 263.968C15.3861 264.186 15.0447 264.498 14.792 264.877C14.5393 265.257 14.383 265.693 14.3366 266.146V266.72C14.3385 266.792 14.3683 266.86 14.4198 266.91C14.4712 266.96 14.5403 266.989 14.6122 266.988H16.2579C16.331 266.988 16.4012 266.96 16.4537 266.909C16.479 266.884 16.4991 266.855 16.5128 266.822C16.5265 266.79 16.5334 266.755 16.5333 266.72V266.146C16.5414 265.853 16.6226 265.567 16.7694 265.313C16.9163 265.06 17.1244 264.847 17.3744 264.694C17.9269 264.33 18.576 264.14 19.2375 264.15C19.9014 264.14 20.553 264.33 21.1081 264.694C21.3581 264.847 21.566 265.06 21.7129 265.313C21.8598 265.567 21.9409 265.853 21.949 266.146V266.72C21.9489 266.755 21.956 266.79 21.9697 266.822C21.9834 266.855 22.0035 266.884 22.0288 266.909C22.0533 266.934 22.0825 266.954 22.1149 266.968C22.1473 266.982 22.1822 266.989 22.2173 266.988H23.8704C23.9055 266.989 23.9403 266.982 23.9727 266.968C24.0051 266.954 24.0344 266.934 24.0589 266.909H24.0951ZM14.6702 264.005C14.8933 263.78 15.1359 263.576 15.3952 263.395C16.5482 262.663 17.8867 262.277 19.2521 262.284C20.6198 262.276 21.9612 262.661 23.1163 263.395C23.6107 263.718 24.0368 264.134 24.3706 264.622C24.6805 265.081 24.8493 265.621 24.8562 266.175V266.749C24.8556 267.007 24.7542 267.255 24.5736 267.439C24.3898 267.619 24.1426 267.721 23.8849 267.722H22.2319C21.9762 267.722 21.7311 267.62 21.5504 267.439C21.3698 267.255 21.2682 267.007 21.2676 266.749V266.175C21.2549 265.997 21.1988 265.824 21.104 265.672C21.0092 265.52 20.8786 265.394 20.7238 265.304C20.2922 265.025 19.7875 264.881 19.2738 264.89C18.7601 264.881 18.2553 265.025 17.8238 265.304C17.669 265.394 17.5386 265.52 17.4438 265.672C17.349 265.824 17.2928 265.997 17.2801 266.175V266.749C17.2795 267.007 17.1781 267.255 16.9974 267.439C16.9069 267.529 16.7993 267.6 16.6811 267.649C16.5629 267.697 16.4363 267.722 16.3085 267.722H14.663C14.4053 267.722 14.1582 267.619 13.976 267.437C13.7938 267.254 13.6914 267.007 13.6914 266.749V266.175C13.6984 265.621 13.8672 265.081 14.1771 264.622C14.3251 264.401 14.4924 264.195 14.6773 264.005H14.6702Z" fill="white"/>
<path d="M285.506 155.724H210.201C206.882 155.724 204.191 158.419 204.191 161.742V244.476C204.191 247.8 206.882 250.494 210.201 250.494H285.506C288.826 250.494 291.516 247.8 291.516 244.476V161.742C291.516 158.419 288.826 155.724 285.506 155.724Z" fill="white"/>
<path d="M285.513 251.503H210.201C208.34 251.501 206.556 250.76 205.241 249.443C203.925 248.125 203.185 246.339 203.183 244.476V161.713C203.187 159.851 203.928 158.067 205.243 156.751C206.559 155.435 208.342 154.695 210.201 154.693H285.513C287.372 154.695 289.154 155.435 290.469 156.751C291.783 158.068 292.522 159.852 292.524 161.713V244.476C292.522 246.338 291.783 248.123 290.469 249.44C289.155 250.758 287.373 251.499 285.513 251.503ZM210.201 155.724C208.608 155.724 207.081 156.357 205.954 157.484C204.827 158.611 204.193 160.14 204.191 161.735V244.498C204.193 246.093 204.827 247.623 205.953 248.751C207.08 249.879 208.608 250.514 210.201 250.516H285.513C287.106 250.514 288.633 249.879 289.759 248.751C290.884 247.622 291.516 246.092 291.516 244.498V161.735C291.516 160.141 290.884 158.612 289.758 157.485C288.632 156.357 287.105 155.724 285.513 155.724H210.201Z" fill="#B7B7ED"/>
<path d="M281.954 168.937H213.753V170.04H281.954V168.937Z" fill="#DFDFFB"/>
<path d="M281.954 185.743H213.753V186.847H281.954V185.743Z" fill="#DFDFFB"/>
<path d="M281.954 202.557H213.753V203.661H281.954V202.557Z" fill="#DFDFFB"/>
<path d="M281.954 219.364H213.753V220.467H281.954V219.364Z" fill="#DFDFFB"/>
<path d="M281.954 236.178H213.753V237.281H281.954V236.178Z" fill="#DFDFFB"/>
<path d="M219.561 191.53H213.753V237.288H219.561V191.53Z" fill="#EC665A"/>
<path d="M232.19 208.532H226.383V237.288H232.19V208.532Z" fill="#F9C941"/>
<path d="M244.819 197.962H239.012V237.281H244.819V197.962Z" fill="#EC665A"/>
<path d="M257.449 190.869H251.642V237.288H257.449V190.869Z" fill="#FFA03E"/>
<path d="M270.078 182.295H264.271V237.281H270.078V182.295Z" fill="#EC665A"/>
<path d="M282.708 173.177H276.9V237.288H282.708V173.177Z" fill="#FFA03E"/>
<path d="M190.249 46.1436L194.346 42.4556L193.686 55.0151L181.144 54.3545L185.283 50.6157C177.693 43.3558 167.985 40.7205 161.358 43.9221C161.956 42.9583 162.688 42.0855 163.533 41.3303C169.95 35.5224 181.513 37.773 190.264 46.1436H190.249Z" fill="#FFA03E"/>
<path d="M158.009 257.435L153.92 261.13L154.572 248.57L167.115 249.224L162.975 252.962C170.566 260.222 180.274 262.858 186.9 259.656C186.306 260.623 185.574 261.496 184.725 262.248C178.316 268.056 166.745 265.805 157.994 257.435H158.009Z" fill="#FFA03E"/>
<path d="M205.119 81.8912C211.257 81.8912 216.233 76.9084 216.233 70.7618C216.233 64.6152 211.257 59.6324 205.119 59.6324C198.981 59.6324 194.005 64.6152 194.005 70.7618C194.005 76.9084 198.981 81.8912 205.119 81.8912Z" fill="#6945A5"/>
<path d="M285.717 286.176H191.438C188.087 286.176 185.37 288.895 185.37 292.249C185.37 295.603 188.087 298.322 191.438 298.322H285.717C289.068 298.322 291.785 295.603 291.785 292.249C291.785 288.895 289.068 286.176 285.717 286.176Z" fill="white" stroke="#6945A5" stroke-miterlimit="10"/>
<path d="M304.305 297.974C307.46 297.974 310.018 295.412 310.018 292.253C310.018 289.093 307.46 286.532 304.305 286.532C301.15 286.532 298.592 289.093 298.592 292.253C298.592 295.412 301.15 297.974 304.305 297.974Z" fill="white" stroke="#6945A5" stroke-miterlimit="10"/>
<path d="M228.37 63.7271H306.35" stroke="#B7B7ED" stroke-width="3" stroke-linecap="round" stroke-linejoin="round"/>
<path d="M228.37 71.4951H306.35" stroke="#B7B7ED" stroke-width="3" stroke-linecap="round" stroke-linejoin="round"/>
<path d="M228.37 79.2631H255.724" stroke="#B7B7ED" stroke-width="3" stroke-linecap="round" stroke-linejoin="round"/>
<path d="M205.119 116.782C211.257 116.782 216.233 111.799 216.233 105.653C216.233 99.5061 211.257 94.5233 205.119 94.5233C198.981 94.5233 194.005 99.5061 194.005 105.653C194.005 111.799 198.981 116.782 205.119 116.782Z" fill="#6945A5"/>
<path d="M228.37 98.6106H306.35" stroke="#B7B7ED" stroke-width="3" stroke-linecap="round" stroke-linejoin="round"/>
<path d="M228.37 106.379H306.35" stroke="#B7B7ED" stroke-width="3" stroke-linecap="round" stroke-linejoin="round"/>
<path d="M228.37 114.147H255.724" stroke="#B7B7ED" stroke-width="3" stroke-linecap="round" stroke-linejoin="round"/>
<path d="M334.966 184.604C351.983 184.604 365.778 170.79 365.778 153.749C365.778 136.709 351.983 122.895 334.966 122.895C317.948 122.895 304.153 136.709 304.153 153.749C304.153 170.79 317.948 184.604 334.966 184.604Z" fill="#F6F5FF"/>
<mask id="mask0" style="mask-type:alpha" maskUnits="userSpaceOnUse" x="304" y="122" width="62" height="63">
<path d="M334.966 184.604C351.983 184.604 365.778 170.79 365.778 153.749C365.778 136.709 351.983 122.895 334.966 122.895C317.948 122.895 304.153 136.709 304.153 153.749C304.153 170.79 317.948 184.604 334.966 184.604Z" fill="#F6F5FF"/>
</mask>
<g mask="url(#mask0)">
<path d="M350.096 151.651C350.069 147.267 348.953 142.958 346.848 139.113C344.941 135.745 340.678 134.031 336.901 134.286C324.924 135.07 324.453 151.027 317.232 157.648C315.057 159.666 312.527 161.365 310.453 163.528C302.805 171.514 307.387 185.032 315.296 191.058C320.785 195.239 329.115 197.265 335.27 193.301C338.489 191.232 340.816 187.994 342.397 184.509C344.644 179.565 345.927 173.946 347.414 168.734C348.987 163.194 350.241 157.445 350.096 151.651Z" fill="black"/>
<path d="M332.413 165.663C332.413 165.663 321.596 166.81 318.732 169.844L325.75 207.988C325.75 207.988 339.097 209.977 347.609 207.044C347.609 207.044 352.394 176.465 348.08 168.973C346.63 166.476 340.105 166.374 340.105 166.374L332.413 165.663Z" fill="#F9C941"/>
<path d="M383.554 149.836C383.156 148.994 379.596 151.491 378.806 151.02C378.015 150.548 381.996 146.533 381.59 145.829C380.865 144.537 376.964 149.952 376.587 149.379C376.21 148.805 379.922 143.026 378.595 142.707C377.269 142.388 375.362 149.11 374.68 148.675C373.999 148.239 377.015 142.591 375.724 141.415C375.043 140.798 371.802 151.731 370.649 152.188C369.497 152.646 368.155 147.869 367.024 148.058C365.893 148.246 370.649 156.835 370.425 157.495C370.2 158.156 365.85 172.197 363.291 176.429C361.754 175.703 360.253 174.977 358.825 174.251C358.245 177.504 356.918 180.349 356.164 183.544C361.13 185.722 366.829 187.9 368.271 187.362C372.665 185.744 374.796 164.392 375.521 160.414C376.246 156.435 378.102 155.644 379.146 153.553C380.19 151.462 383.953 150.686 383.554 149.836Z" fill="#F5BD9B"/>
<path d="M345.855 167.579L339.475 175.238C339.475 175.238 348.624 181.417 356.874 185.047C357.636 181.852 359.492 176.843 360.072 173.591C355.453 171.313 350.706 169.306 345.855 167.579Z" fill="#F9C941"/>
<path d="M287.246 149.052C287.645 148.203 291.205 150.707 291.988 150.228C292.771 149.749 288.805 145.742 289.211 145.045C289.936 143.752 293.829 149.168 294.213 148.595C294.598 148.021 290.871 142.242 292.205 141.923C293.539 141.603 295.439 148.319 296.12 147.891C296.802 147.462 293.786 141.8 295.069 140.631C295.758 140.021 298.998 150.954 300.144 151.412C301.289 151.869 302.645 147.056 303.769 147.273C304.893 147.491 300.144 156.058 300.369 156.711C300.593 157.365 304.936 171.412 307.495 175.652C309.04 174.926 310.54 174.2 311.968 173.474C312.541 176.727 314.085 179.812 314.868 183.006C309.902 185.184 303.993 187.116 302.544 186.586C298.15 184.967 296.019 163.615 295.294 159.63C294.569 155.644 292.713 154.867 291.669 152.769C290.625 150.671 286.847 149.894 287.246 149.052Z" fill="#F5BD9B"/>
<path d="M325.475 166.911L326.628 184.255C326.628 184.255 322.176 180.625 313.933 184.255C313.208 181.061 311.316 176.059 310.743 172.799C315.505 170.482 320.429 168.515 325.475 166.911Z" fill="#F9C941"/>
<path d="M332.95 154.417C332.95 154.417 332.95 154.664 332.877 155.078C332.645 157.06 331.674 163.666 330.847 165.517C329.847 167.761 335.364 174.316 340.185 173.155C341.635 172.806 338.539 166.897 338.626 166.243C338.786 164.987 339.011 163.281 339.235 161.532C339.366 160.552 339.496 159.55 339.612 158.628C339.96 155.956 340.243 153.771 340.243 153.771L332.95 154.417Z" fill="#F5BD9B"/>
<path d="M332.667 156.653L332.747 156L340.04 155.332C340.04 155.332 339.758 157.51 339.41 160.189C339.287 161.125 339.163 162.12 339.033 163.093C337.703 162.952 336.442 162.424 335.408 161.575C334.135 160.592 333.136 159.297 332.508 157.815C332.551 157.35 332.631 156.951 332.667 156.653Z" fill="#E47B60"/>
<path d="M336.894 137.669C335.765 137.648 334.648 137.901 333.638 138.407C332.628 138.913 331.755 139.656 331.094 140.573C329.006 143.68 327.143 152.994 333.16 157.59C339.178 162.185 344.419 156.181 344.854 150.156C345.289 144.13 345.166 136.899 336.894 137.669Z" fill="#F5BD9B"/>
<path d="M346.558 149.981C345.971 151.346 344.876 152.159 344.122 151.782C343.368 151.404 343.237 150.01 343.832 148.646C344.426 147.281 345.514 146.468 346.268 146.845C347.022 147.223 347.152 148.616 346.558 149.981Z" fill="#F5BD9B"/>
<path d="M337.242 136.66C337.242 136.66 332.942 145.684 329.477 146.322C326.012 146.961 325.852 151.608 325.852 151.608C325.852 151.608 326.389 140.878 329.709 138.591C333.03 136.304 337.242 136.66 337.242 136.66Z" fill="black"/>
<path d="M330.536 148.45C330.927 149.974 330.449 151.426 329.47 151.695C328.491 151.963 327.396 150.969 327.012 149.422C326.628 147.876 327.099 146.439 328.071 146.17C329.042 145.901 330.137 146.918 330.536 148.45Z" fill="#F5BD9B"/>
<path d="M340.548 153.444L334.929 153.023C334.946 153.661 335.209 154.268 335.663 154.716C336.118 155.165 336.728 155.419 337.365 155.426C340.374 155.738 340.548 153.444 340.548 153.444Z" fill="#EFFAFD"/>
</g>
<path d="M334.966 184.604C351.983 184.604 365.778 170.79 365.778 153.749C365.778 136.709 351.983 122.895 334.966 122.895C317.948 122.895 304.153 136.709 304.153 153.749C304.153 170.79 317.948 184.604 334.966 184.604Z" stroke="#6945A5" stroke-width="1.5" stroke-miterlimit="10"/>
<path d="M31.9397 257.282C48.9568 257.282 62.752 243.468 62.752 226.428C62.752 209.387 48.9568 195.573 31.9397 195.573C14.9226 195.573 1.12744 209.387 1.12744 226.428C1.12744 243.468 14.9226 257.282 31.9397 257.282Z" fill="#F6F5FF"/>
<mask id="mask1" style="mask-type:alpha" maskUnits="userSpaceOnUse" x="1" y="195" width="62" height="63">
<path d="M31.9397 257.282C48.9568 257.282 62.752 243.468 62.752 226.428C62.752 209.387 48.9568 195.573 31.9397 195.573C14.9226 195.573 1.12744 209.387 1.12744 226.428C1.12744 243.468 14.9226 257.282 31.9397 257.282Z" fill="#F6F5FF"/>
</mask>
<g mask="url(#mask1)">
<path d="M8.47854 270.655L22.3041 272.07C22.3041 272.07 22.9421 260.716 22.9421 255.3C22.9421 248.73 22.3838 240.265 21.5863 240.447C19.3678 240.955 16.3737 242.189 14.5902 244.643C8.41324 253.13 8.47854 270.655 8.47854 270.655Z" fill="#F7A09C"/>
<path d="M48.5633 273.973C48.5867 272.418 48.7004 270.867 48.904 269.326C49.5638 265.885 50.354 242.995 48.1427 242.356C44.9747 241.379 41.7259 240.686 38.435 240.287C35.3827 239.967 23.5291 239.786 21.4049 240.497C18.1214 244.377 15.9958 249.105 15.2714 254.139C15.1554 254.915 14.2854 263.627 13.2632 273.973H48.5633Z" fill="#EC665A"/>
<path d="M66.123 265.464L54.1389 273.515C54.1389 273.515 47.3891 263.453 43.7642 259.874C39.2257 255.387 45.4172 241.637 48.3462 242.45C54.8856 244.156 66.123 265.464 66.123 265.464Z" fill="#F7A09C"/>
<path d="M27.5746 205.265C27.5746 205.265 31.6853 200.909 34.984 206.202C35.7153 205.8 36.5718 205.692 37.3797 205.9C38.1875 206.108 38.8862 206.615 39.3339 207.32C39.3339 207.32 43.9305 205.933 45.047 212.816C45.047 212.816 47.4104 212.365 47.7222 215.182C47.9203 216.829 47.5243 218.492 46.6057 219.872C46.6057 219.872 47.9396 220.874 47.3307 223.458C47.2257 224.06 46.9506 224.618 46.538 225.067C46.1255 225.516 45.5929 225.837 45.0034 225.992C45.0034 225.992 44.5105 229.702 42.9083 230.82C41.7608 231.488 40.4034 231.695 39.1093 231.401C39.1093 231.401 38.5292 233.412 36.6588 233.237C34.7883 233.063 32.4611 231.27 30.3659 232.076C28.2706 232.882 22.826 232.025 22.826 232.025C22.826 232.025 16.7142 229.303 18.5412 223.045C18.5412 223.045 15.3294 220.141 18.1424 216.656C18.1424 216.656 16.0834 211.204 20.1506 207.988C24.2178 204.772 27.5746 205.265 27.5746 205.265Z" fill="#1A1A1A"/>
<path d="M28.2707 234.689L27.5457 240.207C27.5457 240.207 25.8783 248.193 28.017 249.696C30.1558 251.198 37.1303 239.982 37.1303 239.982L36.4053 225.992L28.2707 234.689Z" fill="#F5BD9B"/>
<path d="M36.6155 230.53C34.8465 235.299 30.6344 238.232 27.6401 239.372L28.2708 234.689L36.3764 225.978L36.6155 230.53Z" fill="#E47B60"/>
<path d="M47.7732 216.482C47.7732 218.616 46.5625 220.344 45.0763 220.344C43.59 220.344 42.3721 218.616 42.3721 216.482C42.3721 214.347 43.5828 212.627 45.0763 212.627C46.5698 212.627 47.7732 214.355 47.7732 216.482Z" fill="#1A1A1A"/>
<path d="M36.3764 210.413C38.1943 210.413 39.6679 209.421 39.6679 208.198C39.6679 206.975 38.1943 205.984 36.3764 205.984C34.5586 205.984 33.085 206.975 33.085 208.198C33.085 209.421 34.5586 210.413 36.3764 210.413Z" fill="#1A1A1A"/>
<path d="M31.4392 211.298C30.4197 210.953 29.337 210.836 28.2673 210.954C27.1977 211.073 26.167 211.425 25.2479 211.986C24.3287 212.546 23.5435 213.302 22.9472 214.199C22.351 215.096 21.9582 216.113 21.7967 217.179C21.4521 219.524 21.2535 221.888 21.2022 224.257C21.0862 230.704 24.4213 236.984 27.343 236.984C30.2647 236.984 38.3483 232.809 38.6383 223.654C38.8051 217.999 35.9921 212.852 31.4392 211.298Z" fill="#F5BD9B"/>
<path d="M36.4702 224.38C36.4702 225.832 37.4128 226.95 38.5728 226.95C39.7328 226.95 40.6752 225.803 40.6752 224.38C40.6752 222.958 39.74 221.803 38.5728 221.803C37.4056 221.803 36.4702 222.958 36.4702 224.38Z" fill="#F5BD9B"/>
<path d="M18.7591 208.089C15.7432 210.485 14.6847 214.122 16.3957 216.22C18.1066 218.319 21.9492 218.072 24.9724 215.676C27.9956 213.28 29.0469 209.636 27.3359 207.545C25.6249 205.454 21.7824 205.694 18.7591 208.089Z" fill="#1A1A1A"/>
<path d="M26.6538 210.05C26.6538 211.095 27.9154 211.937 29.4596 211.937C31.0039 211.937 32.2653 211.095 32.2653 210.05C32.2653 209.004 31.0111 208.169 29.4596 208.169C27.9081 208.169 26.6538 209.011 26.6538 210.05Z" fill="#1A1A1A"/>
<path d="M18.3091 218.064C18.3072 218.704 18.5588 219.319 19.0086 219.773C19.4584 220.228 20.0698 220.485 20.7089 220.489C21.025 220.487 21.3376 220.423 21.6289 220.3C21.9202 220.177 22.1845 219.998 22.4067 219.773C22.6288 219.548 22.8045 219.281 22.9237 218.988C23.0429 218.695 23.1033 218.381 23.1014 218.064C23.1033 217.748 23.0429 217.434 22.9237 217.141C22.8045 216.848 22.6288 216.581 22.4067 216.356C22.1845 216.131 21.9202 215.952 21.6289 215.829C21.3376 215.706 21.025 215.641 20.7089 215.64C20.0698 215.643 19.4584 215.901 19.0086 216.355C18.5588 216.81 18.3072 217.424 18.3091 218.064Z" fill="#1A1A1A"/>
<path d="M24.2688 229.905L29.9889 230.13C29.9053 230.779 29.5721 231.37 29.0603 231.777C28.5485 232.183 27.8985 232.374 27.2484 232.308C24.1889 232.243 24.2688 229.905 24.2688 229.905Z" fill="#EFFAFD"/>
</g>
<path d="M31.9397 257.282C48.9568 257.282 62.752 243.468 62.752 226.428C62.752 209.387 48.9568 195.573 31.9397 195.573C14.9226 195.573 1.12744 209.387 1.12744 226.428C1.12744 243.468 14.9226 257.282 31.9397 257.282Z" stroke="#6945A5" stroke-width="1.5" stroke-miterlimit="10"/>
</g>
<defs>
<clipPath id="clip0">
<rect width="383" height="320" fill="white" transform="translate(0.583496)"/>
</clipPath>
</defs>
</svg>
