<svg width="63" height="63" viewBox="0 0 63 63" fill="none" xmlns="http://www.w3.org/2000/svg">
<circle cx="31.8091" cy="31.9961" r="31" fill="#6945A5"/>
<path d="M39.7307 19.4287C40.3868 18.785 41.2691 18.424 42.1882 18.4231C43.1074 18.4222 43.9903 18.7814 44.6478 19.4237C45.3053 20.066 45.685 20.9403 45.7055 21.8593C45.726 22.7782 45.3857 23.6686 44.7575 24.3396L38.9169 30.4588C38.5479 30.845 38.0739 31.1147 37.5534 31.2346L33.3461 32.2059C33.201 32.2394 33.0499 32.2369 32.9061 32.1985C32.7622 32.1602 32.6299 32.0872 32.5207 31.9859C32.4116 31.8846 32.3289 31.7581 32.28 31.6175C32.231 31.4768 32.2173 31.3264 32.2399 31.1792L32.878 27.0295C32.9664 26.4545 33.2358 25.9227 33.6472 25.5114L39.7307 19.4287ZM43.6222 20.9745C43.4834 20.7664 43.3 20.5917 43.0855 20.4629C42.871 20.3342 42.6305 20.2547 42.3816 20.23C42.1326 20.2054 41.8812 20.2363 41.6456 20.3206C41.41 20.4048 41.1961 20.5402 41.0191 20.7171L34.9364 26.8006C34.7992 26.9376 34.7093 27.1149 34.6797 27.3066L34.2459 30.127L37.1436 29.4584C37.317 29.4183 37.475 29.3283 37.5979 29.1995L43.4385 23.0811C43.7037 22.8031 43.8664 22.4431 43.8998 22.0604C43.9332 21.6777 43.8353 21.2949 43.6222 20.9752V20.9745ZM34.9247 21.6563H21.4738C20.7486 21.6563 20.0531 21.9444 19.5403 22.4572C19.0275 22.97 18.7394 23.6655 18.7394 24.3907V27.9869C19.4759 27.4422 20.275 26.8829 21.0786 26.4083C22.0571 25.8308 23.1173 25.3335 24.1309 25.1789C25.1845 25.0185 26.279 25.2241 27.0876 26.1669C27.469 26.6117 27.6907 27.1046 27.7599 27.6296C27.8278 28.1429 27.7424 28.6329 27.5959 29.0741C27.3334 29.8667 26.8135 30.6549 26.3767 31.3185L26.2892 31.4512C25.7919 32.2081 25.4171 32.8118 25.2742 33.3492C25.2086 33.5971 25.2049 33.7882 25.2429 33.9471C25.2786 34.101 25.3668 34.2854 25.5819 34.5013C25.8758 34.7951 26.1346 34.8994 26.3548 34.9278C26.5882 34.9585 26.8645 34.9147 27.1934 34.7733C27.881 34.4779 28.5846 33.8545 29.2146 33.2252C29.3856 33.0543 29.6174 32.9582 29.8592 32.9582C30.101 32.9582 30.3328 33.0543 30.5038 33.2252C30.6747 33.3962 30.7708 33.6281 30.7708 33.8698C30.7708 34.1116 30.6747 34.3435 30.5038 34.5144C29.8701 35.1481 28.9521 36.0019 27.9131 36.4482C27.3793 36.6771 26.7668 36.82 26.1179 36.7354C25.455 36.6487 24.8374 36.3344 24.2928 35.7904C23.8691 35.3661 23.5906 34.8885 23.4681 34.3635C23.3463 33.8443 23.3908 33.3404 23.5125 32.8811C23.7459 32.0053 24.3051 31.1508 24.766 30.45L24.7915 30.4107C25.2844 29.6618 25.6811 29.0573 25.8656 28.5002C25.9531 28.2363 25.9742 28.0321 25.9531 27.8681C25.9326 27.7149 25.8699 27.5472 25.7037 27.354C25.4186 27.0208 25.0321 26.8851 24.4058 26.9807C23.7386 27.0827 22.9183 27.4393 22.0054 27.9782C21.1063 28.509 20.1883 29.1725 19.3315 29.82C19.1324 29.971 18.9341 30.1226 18.7394 30.2721V38.6094C18.7394 39.3346 19.0275 40.0301 19.5403 40.5429C20.0531 41.0557 20.7486 41.3438 21.4738 41.3438H41.5259C42.2511 41.3438 42.9466 41.0557 43.4594 40.5429C43.9722 40.0301 44.2603 39.3346 44.2603 38.6094V27.4998L46.0832 25.5901V38.6094C46.0832 39.8181 45.603 40.9772 44.7484 41.8319C43.8937 42.6866 42.7345 43.1667 41.5259 43.1667H21.4738C20.2651 43.1667 19.106 42.6866 18.2513 41.8319C17.3966 40.9772 16.9165 39.8181 16.9165 38.6094V24.3907C16.9165 23.182 17.3966 22.0228 18.2513 21.1682C19.106 20.3135 20.2651 19.8334 21.4738 19.8334H36.7476L34.9247 21.6563Z" fill="white"/>
</svg>
