<svg width="63" height="63" viewBox="0 0 63 63" fill="none" xmlns="http://www.w3.org/2000/svg">
<circle cx="31.7329" cy="31.4539" r="31" fill="#6945A5"/>
<path d="M24.4205 35.9538C25.4049 35.948 26.3518 35.5611 27.0755 34.8688L34.118 39.0455C34.0283 39.3678 33.9828 39.7017 33.983 40.0372C33.9757 40.984 34.2833 41.9044 34.8539 42.6436C35.4245 43.3827 36.2233 43.8954 37.1157 44.0953C38.0082 44.2952 38.9398 44.17 39.7537 43.741C40.5675 43.3119 41.214 42.6052 41.5842 41.7397C41.9544 40.8742 42.0258 39.9028 41.7862 38.9891C41.5466 38.0755 41.0108 37.2754 40.2689 36.7234C39.5271 36.1715 38.6245 35.9016 37.7132 35.959C36.8018 36.0165 35.9374 36.3978 35.2655 37.0388L28.223 32.8622C28.308 32.5747 28.3534 32.2762 28.358 31.9755L35.2767 27.8688C35.945 28.4951 36.8007 28.8641 37.7002 28.9138C38.5997 28.9635 39.4883 28.691 40.217 28.1419C40.9458 27.5928 41.4703 26.8005 41.7026 25.898C41.9349 24.9955 41.8609 24.0375 41.493 23.1849C41.1251 22.3322 40.4856 21.6367 39.6819 21.2149C38.8781 20.7931 37.959 20.6708 37.0786 20.8684C36.1982 21.066 35.4101 21.5715 34.8465 22.3002C34.2829 23.0289 33.978 23.9364 33.983 24.8705C33.9868 25.2057 34.0321 25.539 34.118 25.8622L27.7167 29.6538C27.3458 29.0588 26.832 28.5741 26.2257 28.2473C25.6195 27.9205 24.9417 27.763 24.2589 27.7902C23.5762 27.8173 22.912 28.0283 22.3317 28.4022C21.7514 28.7762 21.2749 29.3003 20.949 29.9231C20.6232 30.5459 20.4592 31.2459 20.4732 31.9543C20.4873 32.6627 20.6788 33.3551 21.029 33.9635C21.3792 34.5719 21.876 35.0753 22.4706 35.4243C23.0653 35.7732 23.7372 35.9557 24.4205 35.9538ZM37.9205 38.2872C38.2542 38.2872 38.5805 38.3898 38.858 38.5821C39.1355 38.7744 39.3518 39.0477 39.4795 39.3675C39.6072 39.6872 39.6407 40.0391 39.5755 40.3786C39.5104 40.718 39.3497 41.0299 39.1137 41.2746C38.8777 41.5193 38.577 41.686 38.2497 41.7535C37.9223 41.8211 37.583 41.7864 37.2747 41.6539C36.9663 41.5215 36.7028 41.2972 36.5174 41.0094C36.3319 40.7216 36.233 40.3833 36.233 40.0372C36.233 39.573 36.4108 39.1279 36.7272 38.7997C37.0437 38.4715 37.4729 38.2872 37.9205 38.2872ZM37.9205 23.1205C38.2542 23.1205 38.5805 23.2231 38.858 23.4154C39.1355 23.6077 39.3518 23.881 39.4795 24.2008C39.6072 24.5206 39.6407 24.8724 39.5755 25.2119C39.5104 25.5514 39.3497 25.8632 39.1137 26.1079C38.8777 26.3527 38.577 26.5193 38.2497 26.5869C37.9223 26.6544 37.583 26.6197 37.2747 26.4873C36.9663 26.3548 36.7028 26.1305 36.5174 25.8427C36.3319 25.555 36.233 25.2166 36.233 24.8705C36.233 24.4064 36.4108 23.9612 36.7272 23.6331C37.0437 23.3049 37.4729 23.1205 37.9205 23.1205ZM24.4205 30.1205C24.7542 30.1205 25.0805 30.2231 25.358 30.4154C25.6355 30.6077 25.8518 30.881 25.9795 31.2008C26.1072 31.5206 26.1407 31.8724 26.0755 32.2119C26.0104 32.5514 25.8497 32.8632 25.6137 33.1079C25.3777 33.3527 25.077 33.5193 24.7497 33.5869C24.4223 33.6544 24.083 33.6197 23.7747 33.4873C23.4663 33.3548 23.2028 33.1305 23.0174 32.8427C22.8319 32.555 22.733 32.2166 22.733 31.8705C22.733 31.4064 22.9108 30.9612 23.2272 30.6331C23.5437 30.3049 23.9729 30.1205 24.4205 30.1205Z" fill="white"/>
</svg>
