<svg width="63" height="63" viewBox="0 0 63 63" fill="none" xmlns="http://www.w3.org/2000/svg">
<circle cx="31.1782" cy="31.0892" r="31" fill="#6945A5"/>
<g clip-path="url(#clip0)">
<path d="M39.2085 29.8713H36.7476V23.8674C36.7476 20.5881 34.1716 17.9202 31.0054 17.9202C27.8391 17.9202 25.2632 20.5881 25.2632 23.8674V29.8713H22.8022C22.3492 29.8713 21.9819 30.2517 21.9819 30.7209V32.4202C21.9819 37.287 25.5926 41.2961 30.1851 41.7268V45.2209H26.0835C25.6305 45.2209 25.2632 45.6013 25.2632 46.0706C25.2632 46.5398 25.6305 46.9202 26.0835 46.9202H35.9272C36.3803 46.9202 36.7476 46.5398 36.7476 46.0706C36.7476 45.6013 36.3803 45.2209 35.9272 45.2209H31.8257V41.7268C36.4182 41.2961 40.0288 37.287 40.0288 32.4202V30.7209C40.0288 30.2517 39.6615 29.8713 39.2085 29.8713ZM26.9038 23.8674C26.9038 21.5251 28.7438 19.6194 31.0054 19.6194C33.267 19.6194 35.1069 21.5251 35.1069 23.8674V32.4202C35.1069 34.7625 33.267 36.6682 31.0054 36.6682C28.7438 36.6682 26.9038 34.7625 26.9038 32.4202V23.8674ZM38.3882 32.4202C38.3882 36.6364 35.0763 40.0667 31.0054 40.0667C26.9345 40.0667 23.6226 36.6364 23.6226 32.4202V31.5706H25.2632V32.4202C25.2632 35.6995 27.8391 38.3674 31.0054 38.3674C34.1716 38.3674 36.7476 35.6995 36.7476 32.4202V31.5706H38.3882V32.4202Z" fill="white"/>
<path d="M22.8022 26.4729C23.2553 26.4729 23.6226 26.0925 23.6226 25.6233V21.3752C23.6226 20.906 23.2553 20.5256 22.8022 20.5256C22.3492 20.5256 21.9819 20.906 21.9819 21.3752V25.6233C21.9819 26.0925 22.3492 26.4729 22.8022 26.4729Z" fill="white"/>
<path d="M19.521 17.9202C19.068 17.9202 18.7007 18.3006 18.7007 18.7698V28.1721C18.7007 28.6413 19.068 29.0217 19.521 29.0217C19.974 29.0217 20.3413 28.6413 20.3413 28.1721V18.7698C20.3413 18.3006 19.974 17.9202 19.521 17.9202Z" fill="white"/>
<path d="M39.2085 20.5256C38.7555 20.5256 38.3882 20.906 38.3882 21.3752V25.6233C38.3882 26.0925 38.7555 26.4729 39.2085 26.4729C39.6615 26.4729 40.0288 26.0925 40.0288 25.6233V21.3752C40.0288 20.906 39.6615 20.5256 39.2085 20.5256Z" fill="white"/>
<path d="M42.4897 17.9202C42.0367 17.9202 41.6694 18.3006 41.6694 18.7698V28.1721C41.6694 28.6413 42.0367 29.0217 42.4897 29.0217C42.9428 29.0217 43.3101 28.6413 43.3101 28.1721V18.7698C43.3101 18.3006 42.9428 17.9202 42.4897 17.9202Z" fill="white"/>
</g>
<defs>
<clipPath id="clip0">
<rect width="28" height="29" fill="white" transform="translate(17.0054 17.9202)"/>
</clipPath>
</defs>
</svg>