<svg width="63" height="63" viewBox="0 0 63 63" fill="none" xmlns="http://www.w3.org/2000/svg">
<circle cx="31.1782" cy="31.8201" r="31" fill="#6945A5"/>
<path d="M17.9082 37.8702C17.9082 38.5129 18.6364 38.8868 19.1586 38.5142L23.5076 35.4117C23.8724 35.1515 24.3021 35.014 24.7502 35.014H34.3153C35.999 35.014 37.3687 33.6442 37.3687 31.9606V21.9236C37.3687 21.4867 37.0146 21.1326 36.5777 21.1326H20.9616C19.278 21.1326 17.9082 22.5023 17.9082 24.186V37.8702ZM19.4902 24.186C19.4902 23.3746 20.1503 22.7146 20.9616 22.7146H35.7866V31.9606C35.7866 32.7719 35.1266 33.432 34.3152 33.432H24.7502C23.9708 33.432 23.2234 33.6712 22.5889 34.1238L19.4902 36.3343V24.186Z" fill="white"/>
<path d="M44.9083 30.3215C44.9083 28.6376 43.5386 27.2677 41.855 27.2677H39.7419C39.3051 27.2677 38.9509 27.6219 38.9509 28.0587C38.9509 28.4956 39.3051 28.8497 39.7419 28.8497H41.855C42.6663 28.8497 43.3263 29.51 43.3263 30.3215V42.4696L40.2277 40.2593C39.5932 39.8067 38.8459 39.5675 38.0666 39.5675H28.5011C27.6898 39.5675 27.0298 38.9072 27.0298 38.0956V37.387C27.0298 36.9501 26.6756 36.5959 26.2388 36.5959C25.8019 36.5959 25.4478 36.9501 25.4478 37.387V38.0956C25.4478 39.7796 26.8175 41.1495 28.5011 41.1495H38.0666C38.5146 41.1495 38.9443 41.287 39.309 41.5472L43.658 44.6495C44.1776 45.0203 44.9084 44.6503 44.9084 44.0056V30.3215H44.9083Z" fill="white"/>
<path d="M23.5962 27.0237H32.7353C33.1721 27.0237 33.5263 26.6695 33.5263 26.2327C33.5263 25.7958 33.1721 25.4417 32.7353 25.4417H23.5962C23.1593 25.4417 22.8052 25.7958 22.8052 26.2327C22.8052 26.6695 23.1593 27.0237 23.5962 27.0237Z" fill="white"/>
<path d="M23.5962 30.7151H32.7353C33.1721 30.7151 33.5263 30.3609 33.5263 29.9241C33.5263 29.4872 33.1721 29.1331 32.7353 29.1331H23.5962C23.1593 29.1331 22.8052 29.4872 22.8052 29.9241C22.8052 30.3609 23.1593 30.7151 23.5962 30.7151Z" fill="white"/>
</svg>
