<svg width="63" height="63" viewBox="0 0 63 63" fill="none" xmlns="http://www.w3.org/2000/svg">
<circle cx="31.1477" cy="31.0867" r="31" fill="#6945A5"/>
<g clip-path="url(#clip0)">
<path d="M41.6205 27.0376L37.7456 29.9822V27.7219C37.7456 27.2473 37.3609 26.8626 36.8862 26.8626H21.8594C21.3847 26.8626 21 27.2473 21 27.7219V40.1204C21 40.5949 21.3847 40.9796 21.8594 40.9796H36.8862C37.3609 40.9796 37.7456 40.5949 37.7456 40.1204V37.86L41.6205 40.8046C42.1811 41.2306 42.9998 40.8335 42.9998 40.1204V27.7219C42.9998 27.0128 42.1856 26.6081 41.6205 27.0376ZM36.0268 39.2611H22.7188V28.5813H36.0268V39.2611ZM41.2811 38.3879L37.7456 35.7014V32.141L41.2811 29.4543V38.3879ZM24.7797 22.3848C26.5695 20.221 29.2012 18.98 31.9998 18.98C34.7985 18.98 37.4302 20.221 39.2201 22.3848C39.5226 22.7505 39.4714 23.2923 39.1056 23.5948C38.7409 23.8964 38.1989 23.847 37.8956 23.4803C36.4335 21.7125 34.2846 20.6987 31.9998 20.6987C29.7153 20.6987 27.5663 21.7125 26.1042 23.4803C25.8018 23.846 25.2599 23.8974 24.8942 23.5948C24.5285 23.2923 24.4773 22.7505 24.7797 22.3848ZM35.1075 23.769C35.5114 24.0182 35.6366 24.5478 35.3873 24.9516C35.1384 25.3546 34.6092 25.4812 34.2045 25.2313C33.5427 24.8226 32.7803 24.6065 31.9998 24.6065C31.2195 24.6065 30.4572 24.8226 29.7952 25.2313C29.3913 25.4807 28.8619 25.3555 28.6125 24.9516C28.3631 24.5478 28.4883 24.0182 28.8922 23.769C29.8257 23.1924 30.9003 22.8878 31.9998 22.8878C33.0996 22.8878 34.1741 23.1924 35.1075 23.769Z" fill="white"/>
</g>
<defs>
<clipPath id="clip0">
<rect width="22" height="22" fill="white" transform="translate(21 18.98)"/>
</clipPath>
</defs>
</svg>
