<svg width="62" height="63" viewBox="0 0 62 63" fill="none" xmlns="http://www.w3.org/2000/svg">
<circle cx="31" cy="31.0295" r="31" fill="#6945A5"/>
<path d="M41.1172 22.4507H21.6172C21.1862 22.4507 20.7729 22.6219 20.4681 22.9266C20.1634 23.2314 19.9922 23.6447 19.9922 24.0757V37.0757C19.9922 37.5067 20.1634 37.92 20.4681 38.2247C20.7729 38.5295 21.1862 38.7007 21.6172 38.7007H41.1172C41.5482 38.7007 41.9615 38.5295 42.2662 38.2247C42.571 37.92 42.7422 37.5067 42.7422 37.0757V24.0757C42.7422 23.6447 42.571 23.2314 42.2662 22.9266C41.9615 22.6219 41.5482 22.4507 41.1172 22.4507ZM39.3297 24.0757L31.3672 29.5844L23.4047 24.0757H39.3297ZM21.6172 37.0757V24.8151L30.9041 31.2419C31.0401 31.3363 31.2017 31.3868 31.3672 31.3868C31.5327 31.3868 31.6943 31.3363 31.8303 31.2419L41.1172 24.8151V37.0757H21.6172Z" fill="white"/>
</svg>
