<?xml version="1.0" standalone="no"?>
<!DOCTYPE svg PUBLIC "-//W3C//DTD SVG 20010904//EN"
 "http://www.w3.org/TR/2001/REC-SVG-20010904/DTD/svg10.dtd">
<svg version="1.0" xmlns="http://www.w3.org/2000/svg"
 width="700.000000pt" height="700.000000pt" viewBox="0 0 700.000000 700.000000"
 preserveAspectRatio="xMidYMid meet">
<metadata>
Created by potrace 1.14, written by Peter Selinger 2001-2017
</metadata>
<g transform="translate(0.000000,700.000000) scale(0.100000,-0.100000)"
fill="#000000" stroke="none">
<path d="M3459 6886 c-2 -2 -81 -6 -176 -10 -95 -3 -178 -8 -185 -10 -7 -3
-42 -7 -78 -11 -122 -11 -278 -41 -446 -85 -507 -133 -963 -371 -1369 -714
-68 -57 -283 -270 -357 -352 -102 -115 -344 -452 -380 -529 -5 -11 -14 -29
-21 -40 -21 -33 -41 -70 -43 -75 0 -3 -28 -61 -62 -130 -33 -69 -74 -161 -91
-205 -18 -44 -36 -89 -41 -100 -19 -43 -82 -252 -110 -368 -49 -205 -67 -318
-87 -532 -14 -154 -8 -545 12 -690 34 -251 88 -485 161 -704 26 -75 50 -140
54 -146 3 -5 15 -32 25 -60 26 -73 130 -284 193 -394 288 -501 700 -916 1207
-1216 105 -62 356 -184 471 -229 159 -61 401 -136 520 -161 11 -2 39 -8 64
-13 25 -6 63 -13 85 -16 22 -4 47 -8 55 -11 15 -4 40 -8 135 -20 28 -4 61 -8
74 -11 169 -26 646 -26 866 1 17 2 57 6 90 10 33 4 65 8 72 8 14 0 -36 73
-144 207 -7 8 -132 170 -278 360 -145 190 -279 364 -297 387 -48 61 -82 104
-93 120 -6 8 -28 16 -50 18 -22 2 -69 6 -103 10 -138 13 -325 55 -482 110
-573 197 -1065 667 -1312 1255 -43 103 -107 299 -124 385 -39 187 -49 297 -49
510 1 190 8 274 36 420 18 94 70 286 88 330 5 11 19 47 31 80 31 81 130 279
182 362 267 429 676 765 1138 937 106 39 221 76 260 82 14 3 33 7 42 10 35 10
161 32 223 39 28 3 70 8 95 11 53 7 328 7 385 0 22 -3 63 -8 90 -11 28 -3 59
-7 70 -9 11 -2 59 -11 106 -20 583 -109 1144 -498 1479 -1026 85 -134 187
-369 215 -495 55 -254 60 -297 60 -555 0 -118 -3 -244 -7 -280 -8 -69 -45
-294 -54 -321 -4 -15 8 -34 73 -109 11 -14 98 -117 193 -230 94 -113 182 -216
194 -230 12 -14 78 -92 146 -175 126 -151 143 -172 199 -235 18 -19 48 -56 68
-82 l36 -47 13 25 c31 59 165 408 198 514 71 230 123 492 144 724 9 105 9 477
0 586 -9 98 -26 237 -32 260 -3 8 -7 33 -11 55 -3 22 -7 47 -10 55 -2 8 -6 32
-10 54 -3 21 -7 41 -9 45 -2 3 -7 23 -10 44 -3 21 -10 46 -15 55 -4 9 -11 34
-15 54 -8 45 -72 245 -86 270 -6 10 -10 22 -10 27 0 17 -89 220 -147 335 -88
178 -209 375 -322 526 -29 39 -35 46 -117 145 -76 92 -308 327 -385 390 -34
28 -77 64 -96 80 -136 117 -406 289 -622 396 -349 174 -765 299 -1116 335 -33
3 -62 8 -65 9 -3 2 -75 7 -160 11 -85 3 -158 8 -161 10 -3 2 -8 2 -10 0z"/>
<path d="M3493 3238 c-238 -238 -433 -436 -433 -440 0 -4 26 -38 57 -75 94
-112 197 -234 442 -523 128 -151 240 -284 249 -295 22 -26 124 -146 137 -161
14 -15 76 -89 218 -258 65 -77 138 -163 162 -191 24 -27 54 -63 66 -80 13 -16
26 -32 30 -35 6 -5 263 -308 304 -359 11 -13 36 -43 56 -65 19 -23 96 -113
169 -201 74 -88 137 -162 140 -165 3 -3 41 -48 85 -100 43 -52 81 -97 85 -100
3 -3 24 -28 47 -56 l43 -51 801 -1 c759 -2 801 -1 787 16 -8 9 -35 42 -60 72
-25 30 -143 172 -263 315 -120 143 -236 282 -259 309 -75 91 -117 141 -139
166 -13 14 -42 50 -67 80 -25 30 -47 57 -50 60 -6 5 -245 292 -270 323 -8 11
-20 24 -26 31 -5 6 -57 67 -114 136 -58 69 -109 130 -115 136 -13 14 -67 79
-179 214 -48 58 -95 114 -105 125 -40 48 -244 292 -259 310 -28 34 -127 150
-132 155 -3 3 -59 70 -125 150 -66 80 -122 147 -125 150 -3 3 -64 75 -135 160
-108 129 -244 291 -534 638 -19 23 -40 42 -45 42 -6 0 -205 -195 -443 -432z"/>
</g>
</svg>
