<svg width="286" height="270" viewBox="0 0 286 270" fill="none" xmlns="http://www.w3.org/2000/svg">
<g clip-path="url(#clip0)">
<path d="M135.476 253.333L40.6669 252.986C39.1537 252.981 37.6565 252.678 36.2608 252.094C34.8652 251.511 33.5987 250.659 32.5335 249.586C31.4684 248.514 30.6256 247.242 30.0536 245.844C29.4816 244.446 29.1915 242.949 29.1999 241.439L29.9462 39.0515C29.9516 37.5415 30.2551 36.0474 30.8398 34.6547C31.4245 33.262 32.2787 31.9981 33.3535 30.9352C34.4283 29.8723 35.7025 29.0314 37.1034 28.4605C38.5043 27.8897 40.0043 27.6002 41.5175 27.6085L136.326 27.955C137.839 27.9603 139.337 28.2633 140.732 28.8467C142.128 29.4302 143.395 30.2825 144.46 31.3551C145.525 32.4276 146.367 33.6992 146.939 35.0972C147.511 36.4951 147.802 37.9919 147.793 39.5018L147.047 241.895C147.042 243.405 146.738 244.899 146.153 246.291C145.569 247.684 144.714 248.947 143.639 250.01C142.564 251.072 141.29 251.913 139.889 252.483C138.488 253.053 136.989 253.342 135.476 253.333Z" fill="white" stroke="#6349A0" stroke-miterlimit="10"/>
<path d="M134.18 32.6257L110.551 32.5391V34.5656C110.547 35.7298 110.079 36.8447 109.252 37.6652C108.424 38.4858 107.304 38.9449 106.137 38.9418L71.62 38.8148C71.0418 38.8126 70.4698 38.6967 69.9365 38.4738C69.4032 38.2509 68.9191 37.9253 68.5118 37.5157C68.1046 37.1061 67.7822 36.6205 67.563 36.0866C67.3439 35.5527 67.2324 34.9809 67.2346 34.4039V32.3832L43.6004 32.2966C42.3909 32.289 41.1918 32.5195 40.0717 32.9749C38.9515 33.4303 37.9323 34.1017 37.0725 34.9506C36.2127 35.7995 35.5291 36.8092 35.0608 37.9221C34.5925 39.0349 34.3487 40.229 34.3434 41.436L33.6491 238.645C33.6408 239.852 33.8712 241.049 34.3273 242.167C34.7834 243.285 35.4561 244.303 36.3069 245.161C37.1577 246.019 38.1701 246.701 39.2856 247.168C40.4011 247.635 41.5981 247.878 42.8078 247.882L133.393 248.212C134.603 248.221 135.803 247.991 136.924 247.536C138.044 247.082 139.064 246.41 139.924 245.561C140.784 244.712 141.468 243.701 141.936 242.588C142.404 241.474 142.646 240.28 142.65 239.072L143.373 41.8632C143.382 40.6531 143.15 39.4533 142.692 38.3329C142.234 37.2126 141.558 36.1937 140.703 35.3351C139.849 34.4765 138.832 33.7951 137.713 33.3301C136.593 32.8651 135.393 32.6257 134.18 32.6257Z" fill="#F6F5FF" stroke="#6349A0" stroke-miterlimit="10"/>
<path d="M80.8929 34.3677L80.8927 34.4369C80.8913 34.8195 81.201 35.131 81.5844 35.1324L98.1254 35.1929C98.5088 35.1943 98.8208 34.8851 98.8222 34.5025L98.8224 34.4333C98.8238 34.0506 98.5141 33.7394 98.1307 33.738L81.5898 33.6775C81.2063 33.6761 80.8943 33.9851 80.8929 34.3677Z" fill="#6349A0"/>
<mask id="mask0" style="mask-type:alpha" maskUnits="userSpaceOnUse" x="33" y="31" width="111" height="218">
<path d="M134.243 32.6246L110.779 32.5383V34.5582C110.774 35.7186 110.31 36.8297 109.488 37.6476C108.666 38.4654 107.554 38.923 106.395 38.92L72.1172 38.7934C71.543 38.7911 70.9749 38.6756 70.4453 38.4535C69.9156 38.2313 69.4349 37.9068 69.0305 37.4986C68.6261 37.0903 68.3059 36.6063 68.0883 36.0742C67.8706 35.542 67.7599 34.9721 67.7621 34.397V32.383L44.2917 32.2967C43.0905 32.2891 41.8998 32.5188 40.7874 32.9727C39.675 33.4266 38.6629 34.0958 37.809 34.9419C36.9552 35.788 36.2763 36.7944 35.8113 37.9036C35.3462 39.0128 35.1041 40.2029 35.0988 41.4059L34.4094 237.966C34.4011 239.169 34.6299 240.362 35.0828 241.477C35.5358 242.591 36.2038 243.605 37.0487 244.46C37.8937 245.316 38.899 245.996 40.0068 246.461C41.1146 246.927 42.3032 247.169 43.5046 247.173L133.462 247.501C134.664 247.51 135.855 247.282 136.968 246.828C138.081 246.375 139.094 245.706 139.948 244.859C140.802 244.013 141.481 243.006 141.946 241.896C142.41 240.786 142.651 239.595 142.655 238.392L143.373 41.8317C143.381 40.6256 143.151 39.4298 142.696 38.3131C142.241 37.1964 141.57 36.1809 140.722 35.3252C139.873 34.4694 138.864 33.7902 137.752 33.3267C136.64 32.8632 135.448 32.6246 134.243 32.6246Z" fill="#F6F5FF" stroke="#6349A0" stroke-miterlimit="10"/>
</mask>
<g mask="url(#mask0)">
<path d="M132.542 232.779L100.722 235.908C100.722 235.908 99.3504 209.882 99.3967 197.469C99.4487 182.406 100.803 163.013 102.619 163.406C107.734 164.595 114.613 167.447 118.692 173.076C132.82 192.613 132.542 232.779 132.542 232.779Z" fill="#CECEF2"/>
<path d="M117.049 194.871C117.697 199.49 129.494 324.346 129.494 324.346C71.4755 352.058 39.5968 329.005 39.5968 329.005C39.5968 329.005 41.7953 241.353 39.5621 229.413C38.0868 221.515 36.3974 169.052 41.5293 167.597C48.1133 165.738 55.6635 163.764 63.8848 162.938C70.9085 162.234 98.1703 161.91 103.042 163.561C103.042 163.59 114.312 175.553 117.049 194.871Z" fill="#CECEF2"/>
<path d="M0 220.418L27.4932 238.98C27.4932 238.98 43.1143 215.967 51.4688 207.803C61.9465 197.555 47.8065 165.992 41.0547 167.753C26.0063 171.673 0 220.418 0 220.418Z" fill="#CECEF2"/>
<path d="M71.6721 137.333L67.3213 163.313C67.3213 163.313 82.8094 196.453 92.1358 193.699C99.9696 191.389 95.2542 162.961 95.2542 162.961C95.2542 162.961 91.0423 147.684 92.3614 140.052C93.6805 132.42 71.6721 137.333 71.6721 137.333Z" fill="#EEEDF9"/>
<path d="M92.3499 140.052C93.6516 132.425 71.6721 137.333 71.6721 137.333L71.3135 139.567C71.8673 140.956 72.6689 142.234 73.6797 143.337C78.5685 148.406 86.2288 151.466 92.8533 151.72C92.2053 147.598 91.8118 143.181 92.3499 140.052Z" fill="#EBEAF9"/>
<path d="M68.2007 99.1645C67.5816 98.9452 63.1209 129.862 71.3538 138.424C79.5868 146.986 95.6534 149.809 101.48 143.123C107.896 135.734 107.688 102.484 94.8724 93.6856C82.0573 84.8868 68.2007 99.1645 68.2007 99.1645Z" fill="#EEEDF9"/>
<path d="M71.2556 87.2597C66.7428 87.7504 60.6101 90.1464 54.2459 100.123C46.418 112.426 52.1168 126.103 61.1539 132.847C70.191 139.59 70.0001 147.28 70.0001 147.28L71.4811 143.343C72.5664 140.326 72.9617 137.104 72.6383 133.915C72.4758 131.956 71.9869 130.038 71.1919 128.24C69.028 123.754 75.9015 120.803 77.8339 117.085C79.3266 114.199 79.419 107.663 81.768 102.929L84.5683 99.3204C84.5683 99.3204 91.0134 94.5573 97.2966 95.9256C103.58 97.2939 95.9891 67.884 71.2556 87.2597Z" fill="#B7B7ED"/>
<path d="M77.4229 122.564C77.475 126.34 75.6872 129.423 73.373 129.452C71.0588 129.481 69.2075 126.444 69.1554 122.674C69.1033 118.904 70.8911 115.815 73.2053 115.786C75.5196 115.757 77.3708 118.794 77.4229 122.564Z" fill="#EBEAF9"/>
<path d="M91.4531 130.89L102.747 128.69C102.747 128.69 103.325 133.02 98.3843 134.134C92.3672 135.485 91.4531 130.89 91.4531 130.89Z" fill="white"/>
<path d="M103.632 98.8759H123.552C127.811 98.8759 131.264 95.4302 131.264 91.1799V62.6995C131.264 58.4491 127.811 55.0035 123.552 55.0035H103.632C99.3727 55.0035 95.9198 58.4491 95.9198 62.6995V91.1799C95.9198 95.4302 99.3727 98.8759 103.632 98.8759Z" fill="#F6F5FF" stroke="#6349A0" stroke-miterlimit="10"/>
<path d="M103.331 74.8295C103.353 71.5387 104.194 68.3049 105.778 65.4188C107.213 62.8843 110.407 61.6083 113.271 61.7931C122.302 62.3704 122.655 74.3561 128.094 79.327C129.754 80.8454 131.64 82.1214 133.202 83.7437C138.988 89.7365 135.517 99.9093 129.552 104.413C125.415 107.553 119.137 109.078 114.509 106.098C112.124 104.456 110.261 102.166 109.14 99.4994C107.451 95.7871 106.479 91.5667 105.362 87.6581C104.164 83.4954 103.227 79.1769 103.331 74.8295Z" fill="#B7B7ED"/>
<path d="M116.655 85.3661C116.655 85.3661 124.801 86.2263 126.965 88.501L121.671 117.137C121.671 117.137 111.622 118.633 105.205 116.433C105.205 116.433 101.601 93.4719 104.853 87.8486C105.935 85.9723 110.87 85.8972 110.87 85.8972L116.655 85.3661Z" fill="#CECEF2"/>
<path d="M78.129 73.4669C78.4298 72.8319 81.1086 74.7082 81.6988 74.3502C82.2889 73.9923 79.3035 70.9843 79.6043 70.459C80.1829 69.489 83.0757 73.5535 83.3765 73.1263C83.6774 72.699 80.8599 68.3517 81.8608 68.1149C82.8617 67.8782 84.2964 72.9184 84.8114 72.5951C85.3263 72.2718 83.0758 68.0225 84.0246 67.1565C84.5395 66.6947 86.981 74.9045 87.8662 75.2393C88.7514 75.5742 89.7523 71.9947 90.5854 72.139C91.4185 72.2833 87.8488 78.7208 88.034 79.2404C88.2191 79.76 91.4764 90.2792 93.4088 93.4603C94.5659 92.883 95.7231 92.3518 96.7761 91.8091C97.21 94.2513 98.2051 96.3817 98.7779 98.7834C95.0346 100.423 90.7417 102.051 89.6598 101.67C86.3504 100.452 84.7189 84.4249 84.1866 81.4343C83.6543 78.4436 82.2369 77.8547 81.4327 76.2844C80.6285 74.714 77.8281 74.102 78.129 73.4669Z" fill="#EEEDF9"/>
<path d="M106.548 86.8036L111.361 92.5771C111.361 92.5771 104.465 97.1958 98.2569 99.9324C97.6783 97.5365 96.284 93.778 95.8501 91.33C99.3257 89.617 102.897 88.1057 106.548 86.8036Z" fill="#CECEF2"/>
<path d="M150.681 72.8781C150.385 72.243 147.701 74.1194 147.111 73.7614C146.521 73.4035 149.512 70.3955 149.205 69.8643C148.627 68.8944 145.734 72.9647 145.433 72.5317C145.132 72.0987 147.95 67.7628 146.949 67.5203C145.948 67.2778 144.513 72.3296 143.998 72.0063C143.483 71.683 145.734 67.4337 144.791 66.5677C144.27 66.1059 141.829 74.3157 140.943 74.6505C140.058 74.9854 139.057 71.4059 138.224 71.5502C137.391 71.6945 140.961 78.1435 140.787 78.6457C140.614 79.148 137.345 89.6846 135.418 92.8657C134.261 92.2884 133.104 91.7515 132.045 91.2088C131.611 93.6567 130.454 95.9661 129.881 98.3678C133.625 100.007 138.079 101.457 139.167 101.058C142.471 99.84 144.108 83.813 144.635 80.8223C145.161 77.8317 146.584 77.2428 147.389 75.6667C148.193 74.0905 150.981 73.5247 150.681 72.8781Z" fill="#EEEDF9"/>
<path d="M121.886 86.284L121.012 99.3031C121.012 99.3031 124.368 96.5896 130.576 99.3031C131.154 96.9072 132.549 93.1429 132.983 90.7007C129.395 88.9642 125.686 87.4882 121.886 86.284Z" fill="#CECEF2"/>
<path d="M116.25 76.908C116.25 76.908 116.25 77.087 116.308 77.3987C116.482 78.8883 117.211 83.8476 117.836 85.239C118.593 86.9191 114.428 91.8438 110.8 90.972C109.718 90.7122 112.038 86.2725 111.957 85.7759C111.836 84.8349 111.668 83.5589 111.495 82.2426C111.402 81.5036 111.304 80.7531 111.211 80.0429L110.737 76.3999L116.25 76.908Z" fill="#EEEDF9"/>
<path d="M116.458 78.588C116.424 78.2762 116.406 78.0915 116.406 78.0915L110.91 77.5892C110.91 77.5892 111.124 79.2288 111.385 81.238C111.477 81.9423 111.57 82.6871 111.668 83.4261C112.665 83.3103 113.607 82.9093 114.382 82.2715C115.353 81.5371 116.115 80.5617 116.592 79.4425C116.551 79.1076 116.487 78.8189 116.458 78.588Z" fill="#EEEDF9"/>
<path d="M113.277 64.3276C114.126 64.3195 114.965 64.5157 115.722 64.8996C116.479 65.2835 117.133 65.8438 117.627 66.5331C119.201 68.8425 120.601 75.8572 116.071 79.3097C111.541 82.7622 107.589 78.2474 107.26 73.7268C106.93 69.2062 107.051 63.7561 113.277 64.3276Z" fill="#EEEDF9"/>
<path d="M105.998 73.5767C106.444 74.5986 107.265 75.2048 107.832 74.9276C108.399 74.6505 108.498 73.594 108.052 72.5721C107.607 71.5502 106.785 70.944 106.218 71.2211C105.651 71.4982 105.553 72.549 105.998 73.5767Z" fill="#EEEDF9"/>
<path d="M113.022 63.5771C113.022 63.5771 116.256 70.3493 118.865 70.8285C121.475 71.3077 121.59 74.7948 121.59 74.7948C121.59 74.7948 121.185 66.712 118.698 65.0204C117 63.9666 115.018 63.4625 113.022 63.5771Z" fill="#B7B7ED"/>
<path d="M118.067 72.422C117.778 73.5767 118.136 74.6621 118.871 74.8642C119.606 75.0662 120.433 74.2868 120.728 73.1321C121.023 71.9775 120.659 70.8978 119.924 70.6957C119.189 70.4937 118.362 71.2789 118.067 72.422Z" fill="#EEEDF9"/>
<path d="M110.528 76.1747L114.763 75.8572C114.75 76.3372 114.551 76.7934 114.208 77.1303C113.865 77.4671 113.405 77.6585 112.924 77.6642C110.656 77.8952 110.528 76.1747 110.528 76.1747Z" fill="white"/>
<path d="M104.112 98.8759H123.071C127.596 98.8759 131.264 95.2157 131.264 90.7006V63.1787C131.264 58.6637 127.596 55.0035 123.071 55.0035H104.112C99.5871 55.0035 95.9193 58.6637 95.9193 63.1787V90.7006C95.9193 95.2157 99.5871 98.8759 104.112 98.8759Z" stroke="#6349A0" stroke-miterlimit="10"/>
</g>
<path d="M247.885 269.821L141.233 269.435C137.799 269.421 134.511 268.047 132.092 265.616C129.673 263.184 128.32 259.894 128.331 256.468L129.17 28.7864C129.176 27.0898 129.517 25.4111 130.173 23.8461C130.829 22.2811 131.788 20.8605 132.995 19.6654C134.202 18.4703 135.633 17.5242 137.206 16.8811C138.779 16.238 140.464 15.9105 142.164 15.9173L248.822 16.3042C252.255 16.3179 255.542 17.6917 257.96 20.1233C260.379 22.555 261.73 25.8454 261.718 29.2713L260.879 256.952C260.873 258.649 260.532 260.328 259.876 261.893C259.219 263.458 258.26 264.878 257.054 266.073C255.847 267.269 254.416 268.215 252.843 268.858C251.269 269.501 249.585 269.828 247.885 269.821Z" fill="white" stroke="#6349A0" stroke-miterlimit="10"/>
<path d="M246.421 21.5061L219.807 21.4137V23.6884C219.804 24.3372 219.674 24.9791 219.423 25.5775C219.172 26.1759 218.805 26.719 218.344 27.1759C217.882 27.6327 217.335 27.9943 216.733 28.2399C216.131 28.4856 215.487 28.6104 214.837 28.6074L176.01 28.4689C175.359 28.4666 174.716 28.3365 174.116 28.086C173.516 27.8356 172.971 27.4696 172.513 27.0091C172.055 26.5486 171.692 26.0025 171.445 25.402C171.198 24.8016 171.072 24.1585 171.075 23.5095V21.2347L144.49 21.1366C143.132 21.1313 141.786 21.3931 140.529 21.907C139.272 22.4209 138.129 23.1769 137.165 24.1318C136.201 25.0867 135.435 26.2218 134.911 27.4722C134.387 28.7225 134.115 30.0637 134.11 31.4191L133.295 253.269C133.289 254.624 133.552 255.968 134.067 257.222C134.582 258.476 135.339 259.616 136.296 260.578C137.253 261.54 138.39 262.304 139.643 262.828C140.896 263.351 142.241 263.622 143.599 263.627L245.501 264.002C246.861 264.01 248.21 263.751 249.47 263.238C250.731 262.726 251.877 261.971 252.844 261.016C253.812 260.061 254.581 258.925 255.108 257.673C255.634 256.421 255.909 255.077 255.915 253.719L256.725 31.8636C256.73 30.5083 256.468 29.1651 255.953 27.911C255.438 26.6569 254.68 25.5163 253.723 24.5544C252.766 23.5925 251.629 22.8283 250.376 22.3052C249.123 21.7822 247.779 21.5106 246.421 21.5061Z" fill="#F6F5FF" stroke="#6349A0" stroke-miterlimit="10"/>
<path d="M186.478 23.4646L186.478 23.5396C186.476 23.97 186.825 24.3203 187.256 24.3219L205.863 24.3899C206.294 24.3915 206.645 24.0438 206.646 23.6133L206.647 23.5383C206.648 23.1079 206.3 22.7576 205.869 22.756L187.262 22.688C186.831 22.6864 186.48 23.0341 186.478 23.4646Z" fill="#6349A0"/>
<path d="M232.281 82.3696H181.367C180.153 82.3696 178.989 81.8884 178.131 81.032C177.273 80.1756 176.791 79.014 176.791 77.8028V56.47L171.179 51.4933H232.281C233.495 51.4948 234.659 51.9772 235.517 52.8346C236.375 53.6919 236.857 54.8541 236.857 56.0658V77.8028C236.857 79.014 236.375 80.1756 235.517 81.032C234.658 81.8884 233.494 82.3696 232.281 82.3696Z" fill="#CECEF2"/>
<path d="M231.043 87.3347C231.02 87.3351 230.997 87.3307 230.976 87.3217C230.955 87.3128 230.937 87.2995 230.921 87.2828L229.868 86.1858C229.838 86.1537 229.821 86.1114 229.821 86.0675C229.821 86.0235 229.838 85.9812 229.868 85.9491C229.901 85.9203 229.943 85.9044 229.987 85.9044C230.03 85.9044 230.073 85.9203 230.105 85.9491L231.037 86.9249L233.079 84.8522C233.111 84.8208 233.153 84.8032 233.198 84.8032C233.242 84.8032 233.285 84.8208 233.316 84.8522C233.332 84.8672 233.344 84.8852 233.352 84.905C233.361 84.9249 233.365 84.9461 233.365 84.9677C233.365 84.9892 233.361 85.0104 233.352 85.0303C233.344 85.0501 233.332 85.0681 233.316 85.0831L231.153 87.2828C231.123 87.3128 231.084 87.3312 231.043 87.3347Z" fill="#EC665A"/>
<path d="M232.541 87.3001H232.344C232.322 87.3001 232.301 87.2958 232.281 87.2873C232.261 87.2788 232.243 87.2664 232.228 87.2508C232.212 87.2351 232.201 87.2166 232.193 87.1964C232.185 87.1761 232.181 87.1544 232.182 87.1327C232.185 87.0898 232.204 87.0494 232.235 87.0196C232.266 86.9897 232.307 86.9724 232.35 86.971H232.472L234.583 84.8291C234.615 84.7977 234.657 84.7801 234.702 84.7801C234.746 84.7801 234.789 84.7977 234.821 84.8291C234.836 84.8442 234.848 84.8621 234.857 84.8819C234.865 84.9018 234.869 84.9231 234.869 84.9446C234.869 84.9661 234.865 84.9874 234.857 85.0072C234.848 85.027 234.836 85.045 234.821 85.06L232.662 87.2597C232.628 87.2872 232.585 87.3015 232.541 87.3001Z" fill="#EC665A"/>
<path d="M184.937 59.807H224.904" stroke="white" stroke-width="2" stroke-linecap="round" stroke-linejoin="round"/>
<path d="M184.937 66.6543H224.904" stroke="white" stroke-width="2" stroke-linecap="round" stroke-linejoin="round"/>
<path d="M184.937 73.8192H205.574" stroke="white" stroke-width="2" stroke-linecap="round" stroke-linejoin="round"/>
<path d="M156.489 69.6911C161.388 69.6911 165.359 65.7285 165.359 60.8404C165.359 55.9524 161.388 51.9898 156.489 51.9898C151.591 51.9898 147.62 55.9524 147.62 60.8404C147.62 65.7285 151.591 69.6911 156.489 69.6911Z" fill="#CECEF2"/>
<path d="M216.052 86.5207H226.368" stroke="#CECEF2" stroke-width="2" stroke-linecap="round" stroke-linejoin="round"/>
<path d="M257.587 127.604C264.754 127.604 270.564 121.82 270.564 114.684C270.564 107.547 264.754 101.763 257.587 101.763C250.42 101.763 244.61 107.547 244.61 114.684C244.61 121.82 250.42 127.604 257.587 127.604Z" fill="#6349A0"/>
<path d="M258.119 106.277H257.518V109.303H258.119V106.277Z" fill="#FFA03E"/>
<path d="M248.966 118.373C249.938 118.373 250.725 117.587 250.725 116.618C250.725 115.648 249.938 114.863 248.966 114.863C247.995 114.863 247.208 115.648 247.208 116.618C247.208 117.587 247.995 118.373 248.966 118.373Z" fill="white"/>
<path d="M266.751 118.257C267.723 118.257 268.51 117.471 268.51 116.502C268.51 115.533 267.723 114.747 266.751 114.747C265.78 114.747 264.992 115.533 264.992 116.502C264.992 117.471 265.78 118.257 266.751 118.257Z" fill="white"/>
<path d="M258.073 108.668C258.073 108.668 265.235 108.587 266.369 114.776C267.503 120.965 261.446 121.08 259.704 121.196C258.917 121.254 257.228 121.259 255.735 121.231C252.432 121.173 250.1 120.538 249.308 117.478C249.213 117.121 249.153 116.755 249.128 116.387C248.92 113.032 251.188 108.506 258.073 108.668Z" fill="white"/>
<path d="M252.877 118.101L263.291 118.263C263.815 118.271 264.321 118.071 264.697 117.707C265.073 117.344 265.29 116.846 265.299 116.323C265.307 115.8 265.106 115.296 264.742 114.92C264.378 114.545 263.879 114.329 263.355 114.32L252.941 114.158C252.681 114.154 252.423 114.2 252.182 114.295C251.94 114.39 251.72 114.532 251.534 114.712C251.347 114.892 251.198 115.108 251.095 115.345C250.992 115.583 250.937 115.839 250.933 116.098C250.926 116.621 251.126 117.125 251.49 117.501C251.855 117.876 252.353 118.092 252.877 118.101Z" fill="#FFA03E"/>
<path d="M258.802 106.22C258.802 106.415 258.744 106.606 258.635 106.768C258.526 106.93 258.372 107.057 258.191 107.132C258.01 107.206 257.812 107.226 257.62 107.188C257.428 107.15 257.251 107.056 257.113 106.918C256.975 106.78 256.88 106.604 256.842 106.412C256.804 106.221 256.824 106.022 256.898 105.842C256.973 105.661 257.1 105.507 257.263 105.399C257.426 105.29 257.617 105.232 257.813 105.232C258.075 105.232 258.327 105.336 258.512 105.522C258.698 105.707 258.802 105.958 258.802 106.22Z" fill="white"/>
<path d="M158.335 140.976H222.405C223.934 140.976 225.401 140.371 226.485 139.295C227.57 138.218 228.182 136.757 228.19 135.231V108.379L235.254 102.126H158.335C156.8 102.126 155.329 102.735 154.244 103.817C153.159 104.9 152.549 106.369 152.549 107.9V135.26C152.564 136.781 153.181 138.235 154.264 139.305C155.347 140.375 156.81 140.976 158.335 140.976Z" fill="#FFA03E"/>
<path d="M216.758 111.364H161.5" stroke="white" stroke-width="2" stroke-linecap="round" stroke-linejoin="round"/>
<path d="M216.758 118.673H161.5" stroke="white" stroke-width="2" stroke-linecap="round" stroke-linejoin="round"/>
<path d="M182.548 131.68H161.5" stroke="white" stroke-width="2" stroke-linecap="round" stroke-linejoin="round"/>
<path d="M157.513 173.405H208.427C209.64 173.405 210.804 172.924 211.663 172.068C212.521 171.211 213.003 170.05 213.003 168.838V154.312L218.615 149.341H157.513C156.3 149.341 155.135 149.823 154.277 150.679C153.419 151.536 152.937 152.697 152.937 153.908V168.838C152.937 170.05 153.419 171.211 154.277 172.068C155.135 172.924 156.3 173.405 157.513 173.405Z" fill="#FFA03E"/>
<path d="M202.577 157.684H162.616" stroke="white" stroke-width="2" stroke-linecap="round" stroke-linejoin="round"/>
<path d="M183.028 164.855H162.396" stroke="white" stroke-width="2" stroke-linecap="round" stroke-linejoin="round"/>
<path d="M231.303 219.893H180.389C179.176 219.893 178.012 219.412 177.154 218.555C176.295 217.699 175.813 216.537 175.813 215.326V193.964L170.189 188.993H231.291C232.506 188.995 233.671 189.477 234.53 190.334C235.389 191.192 235.872 192.354 235.873 193.566V215.303C235.876 215.904 235.759 216.499 235.531 217.055C235.302 217.612 234.966 218.117 234.542 218.543C234.117 218.97 233.613 219.308 233.057 219.54C232.501 219.771 231.905 219.891 231.303 219.893Z" fill="#CECEF2"/>
<path d="M230.065 224.858C230.042 224.858 230.019 224.854 229.998 224.845C229.978 224.836 229.959 224.823 229.943 224.806L228.89 223.709C228.875 223.693 228.863 223.674 228.855 223.654C228.847 223.633 228.844 223.612 228.844 223.59C228.845 223.545 228.864 223.503 228.896 223.472C228.928 223.442 228.971 223.425 229.016 223.426C229.06 223.427 229.102 223.446 229.133 223.478L230.065 224.454L232.107 222.381C232.121 222.361 232.139 222.345 232.16 222.333C232.181 222.321 232.205 222.313 232.229 222.311C232.253 222.309 232.277 222.312 232.3 222.32C232.323 222.328 232.344 222.341 232.361 222.358C232.379 222.375 232.392 222.395 232.401 222.418C232.409 222.441 232.413 222.465 232.411 222.489C232.41 222.513 232.403 222.537 232.391 222.558C232.38 222.579 232.364 222.598 232.344 222.612L230.18 224.806C230.166 224.822 230.148 224.835 230.128 224.844C230.108 224.853 230.087 224.858 230.065 224.858Z" fill="#EC665A"/>
<path d="M231.563 224.823H231.366C231.345 224.823 231.323 224.819 231.303 224.811C231.283 224.802 231.265 224.79 231.25 224.774C231.235 224.758 231.223 224.74 231.215 224.72C231.207 224.699 231.204 224.678 231.204 224.656C231.207 224.613 231.226 224.573 231.257 224.543C231.288 224.513 231.329 224.496 231.372 224.494H231.494L233.606 222.352C233.638 222.322 233.68 222.306 233.724 222.306C233.768 222.306 233.811 222.322 233.843 222.352C233.874 222.384 233.892 222.426 233.892 222.471C233.892 222.515 233.874 222.558 233.843 222.589L231.685 224.783C231.651 224.812 231.607 224.826 231.563 224.823Z" fill="#EC665A"/>
<path d="M183.959 197.33H223.926" stroke="white" stroke-width="2" stroke-linecap="round" stroke-linejoin="round"/>
<path d="M183.959 204.177H223.926" stroke="white" stroke-width="2" stroke-linecap="round" stroke-linejoin="round"/>
<path d="M183.959 211.342H204.596" stroke="white" stroke-width="2" stroke-linecap="round" stroke-linejoin="round"/>
<path d="M155.511 207.214C160.41 207.214 164.381 203.252 164.381 198.364C164.381 193.476 160.41 189.513 155.511 189.513C150.613 189.513 146.642 193.476 146.642 198.364C146.642 203.252 150.613 207.214 155.511 207.214Z" fill="#CECEF2"/>
<path d="M215.074 224.044H225.39" stroke="#CECEF2" stroke-width="2" stroke-linecap="round" stroke-linejoin="round"/>
<path d="M242.446 246.762H148.071C145.978 246.762 144.281 248.455 144.281 250.544C144.281 252.632 145.978 254.326 148.071 254.326H242.446C244.539 254.326 246.235 252.632 246.235 250.544C246.235 248.455 244.539 246.762 242.446 246.762Z" fill="white" stroke="#6349A0" stroke-miterlimit="10"/>
<path d="M29.9926 183.509C43.5727 183.509 54.5815 172.523 54.5815 158.972C54.5815 145.42 43.5727 134.434 29.9926 134.434C16.4126 134.434 5.40381 145.42 5.40381 158.972C5.40381 172.523 16.4126 183.509 29.9926 183.509Z" fill="#F6F5FF"/>
<mask id="mask1" style="mask-type:alpha" maskUnits="userSpaceOnUse" x="5" y="134" width="50" height="50">
<path d="M29.9926 183.509C43.5727 183.509 54.5815 172.523 54.5815 158.972C54.5815 145.42 43.5727 134.434 29.9926 134.434C16.4126 134.434 5.40381 145.42 5.40381 158.972C5.40381 172.523 16.4126 183.509 29.9926 183.509Z" fill="#F6F5FF"/>
</mask>
<g mask="url(#mask1)">
<path d="M40.9334 149.919L40.8118 149.694V149.63C40.5919 149.053 40.3547 148.545 40.0886 148.008C38.3529 144.457 33.9906 142.442 30.0274 142.436C28.8304 142.428 27.6383 142.589 26.4867 142.916C24.861 143.643 20.8977 146.16 19.8679 153.66C19.5145 156.25 20.0161 158.885 21.2969 161.165C20.2324 161.835 18.8322 163.186 17.8255 165.923C15.9626 170.951 6.6304 172.071 5.67577 178.774C4.72115 185.477 14.4468 197.579 24.7047 189.744C32.5153 183.792 31.2482 172.424 30.1952 167.366C32.834 167.715 35.5119 167.135 37.7687 165.726C39.0756 165.006 40.195 163.99 41.037 162.76C41.8791 161.53 42.4202 160.119 42.6169 158.642C42.5594 155.66 41.99 152.709 40.9334 149.919Z" fill="black"/>
<path d="M31.8153 167.435C25.4511 167.435 20.9267 161.697 20.7358 161.448C20.6489 161.33 20.6107 161.182 20.629 161.036C20.6473 160.89 20.7207 160.757 20.8342 160.663C20.9539 160.577 21.102 160.54 21.2482 160.559C21.3945 160.579 21.5278 160.653 21.621 160.767C21.6615 160.819 26.0123 166.321 31.8153 166.321C31.9379 166.354 32.0461 166.427 32.1232 166.528C32.2004 166.628 32.2422 166.751 32.2422 166.878C32.2422 167.005 32.2004 167.128 32.1232 167.229C32.0461 167.33 31.9379 167.402 31.8153 167.435Z" fill="#EC665A"/>
<path d="M42.9063 181.072C39.4755 170.68 35.6338 171.119 35.6338 171.119L38.6019 192.977C40.7252 192.4 43.4848 191.112 45.6024 190.512C44.8669 187.321 43.9671 184.17 42.9063 181.072Z" fill="#4C3C99"/>
<path d="M26.834 169.254C26.834 169.254 20.5103 168.85 18.0051 171.563C15.5 174.277 23.5594 195.881 24.0165 199.357C24.4735 202.832 21.7022 212.058 21.7022 212.058C21.7022 212.058 36.5712 215.049 40.7947 212.237C40.7947 212.237 41.2518 187.261 40.7947 184.779C40.3377 182.296 36.548 172.21 35.6339 171.217C34.7197 170.224 26.834 169.254 26.834 169.254Z" fill="#5E4C9A"/>
<path d="M28.9456 160.796L28.8529 161.298C28.5694 162.822 27.4818 167.868 26.747 169.26C25.8618 170.934 29.7845 176.286 33.5625 175.611C34.6849 175.42 32.6135 170.697 32.7119 170.201C32.9028 169.242 33.1633 167.938 33.4236 166.598C33.5741 165.842 33.7243 165.074 33.869 164.358L34.6038 160.64L28.9456 160.796Z" fill="#F5BD9B"/>
<path d="M28.8533 161.281L28.9459 160.779L34.6042 160.64L33.8694 164.358C33.7247 165.074 33.5802 165.836 33.4298 166.587C32.4165 166.405 31.4778 165.934 30.7278 165.23C29.7899 164.412 29.0836 163.363 28.6797 162.187L28.8533 161.281Z" fill="#E47B60"/>
<path d="M32.7523 147.933C31.9328 147.869 31.1099 148.004 30.3541 148.327C29.5984 148.649 28.9324 149.15 28.4131 149.786C26.741 151.951 24.9418 158.637 29.0901 162.274C33.2384 165.911 37.3461 161.795 37.9593 157.43C38.5726 153.065 38.804 147.777 32.7523 147.933Z" fill="#F5BD9B"/>
<path d="M39.186 157.367C38.6885 158.331 37.8554 158.862 37.3289 158.556C36.8024 158.25 36.7502 157.222 37.2652 156.247C37.7801 155.271 38.59 154.751 39.1223 155.057C39.6546 155.363 39.6836 156.402 39.186 157.367Z" fill="#F5BD9B"/>
<path d="M27.6034 155.467C27.8117 156.622 27.3951 157.632 26.6719 157.776C25.9487 157.921 25.2024 157.13 24.9941 155.998C24.7858 154.867 25.2023 153.833 25.9255 153.689C26.6487 153.544 27.4009 154.353 27.6034 155.467Z" fill="#F5BD9B"/>
<path d="M25.5496 193.318C25.5496 193.318 28.4423 180.535 27.6612 176.517C26.8802 172.499 21.812 169.011 18.5547 170.628C15.2974 172.245 17.01 191.222 17.01 191.222L25.5496 193.318Z" fill="#4C3C99"/>
<path d="M34.6271 159.174L30.0508 158.839C30.0657 159.357 30.2815 159.849 30.6526 160.212C31.0238 160.575 31.5214 160.78 32.041 160.784C34.4825 161.033 34.6271 159.174 34.6271 159.174Z" fill="#EFFAFD"/>
</g>
<path d="M29.9926 183.509C43.5727 183.509 54.5815 172.523 54.5815 158.972C54.5815 145.42 43.5727 134.434 29.9926 134.434C16.4126 134.434 5.40381 145.42 5.40381 158.972C5.40381 172.523 16.4126 183.509 29.9926 183.509Z" stroke="#6349A0" stroke-width="1.5" stroke-miterlimit="10"/>
<path d="M258.721 49.5072C272.301 49.5072 283.31 38.5216 283.31 24.9701C283.31 11.4186 272.301 0.433014 258.721 0.433014C245.141 0.433014 234.132 11.4186 234.132 24.9701C234.132 38.5216 245.141 49.5072 258.721 49.5072Z" fill="#F6F5FF"/>
<mask id="mask2" style="mask-type:alpha" maskUnits="userSpaceOnUse" x="234" y="0" width="50" height="50">
<path d="M258.721 49.5072C272.301 49.5072 283.31 38.5216 283.31 24.9701C283.31 11.4186 272.301 0.433014 258.721 0.433014C245.141 0.433014 234.132 11.4186 234.132 24.9701C234.132 38.5216 245.141 49.5072 258.721 49.5072Z" fill="#C4C4C4"/>
</mask>
<g mask="url(#mask2)">
<path d="M239.993 60.1477L251.032 61.2678C251.032 61.2678 251.535 52.2381 251.535 47.9311C251.535 42.735 251.09 35.9743 250.459 36.1187C248.683 36.5286 246.294 37.5043 244.87 39.4557C239.947 46.2106 239.993 60.1477 239.993 60.1477Z" fill="#F7A09C"/>
<path d="M272.016 62.7862C272.029 61.5481 272.12 60.3121 272.288 59.0854C272.809 56.3488 273.445 38.1509 271.681 37.6371C269.147 36.8611 266.548 36.3124 263.916 35.9974C261.481 35.7434 252.021 35.599 250.332 36.1648C247.707 39.2482 246.008 43.0086 245.431 47.0131C245.345 47.6309 244.65 54.5532 243.829 62.7862H272.016Z" fill="#EC665A"/>
<path d="M286 56.0139L276.437 62.4225C276.437 62.4225 271.044 54.4205 268.152 51.5684C264.53 48.0004 269.476 37.0713 271.808 37.7121C277.032 39.0689 286 56.0139 286 56.0139Z" fill="#F7A09C"/>
<path d="M255.238 8.14058C255.238 8.14058 258.513 4.67651 261.151 8.88534C261.735 8.56598 262.418 8.48017 263.063 8.6453C263.707 8.81042 264.265 9.21412 264.622 9.77447C264.622 9.77447 268.29 8.67175 269.181 14.145C269.181 14.145 271.068 13.7928 271.316 16.0271C271.474 17.3383 271.158 18.6627 270.425 19.7625C270.425 19.7625 271.484 20.5535 271.004 22.6146C270.918 23.0928 270.698 23.5366 270.367 23.8936C270.037 24.2507 269.612 24.506 269.141 24.6295C269.141 24.6295 268.753 27.5797 267.469 28.4689C266.555 28.9999 265.474 29.165 264.443 28.9307C264.443 28.9307 263.98 30.53 262.482 30.3856C260.983 30.2413 259.138 28.821 257.466 29.4619C255.794 30.1027 251.443 29.4272 251.443 29.4272C251.443 29.4272 246.566 27.2564 248.029 22.2855C248.029 22.2855 245.46 19.9761 247.705 17.2049C247.705 17.2049 246.068 12.869 249.308 10.3114C252.548 7.75376 255.238 8.14058 255.238 8.14058Z" fill="#1A1A1A"/>
<path d="M255.817 31.5403L255.238 35.9339C255.238 35.9339 253.913 42.2847 255.62 43.4798C257.327 44.6749 262.887 35.7549 262.887 35.7549L262.308 24.6295L255.817 31.5403Z" fill="#F5BD9B"/>
<path d="M262.447 28.2322C261.035 32.0253 257.674 34.3578 255.29 35.2642L255.794 31.5404L262.262 24.6122L262.447 28.2322Z" fill="#E47B60"/>
<path d="M271.357 17.0664C271.357 18.758 270.39 20.1321 269.199 20.1321C268.007 20.1321 267.041 18.758 267.041 17.0664C267.041 15.3747 268.007 14.0007 269.199 14.0007C270.39 14.0007 271.357 15.3747 271.357 17.0664Z" fill="#1A1A1A"/>
<path d="M262.262 12.2339C263.713 12.2339 264.889 11.4455 264.889 10.473C264.889 9.50051 263.713 8.71213 262.262 8.71213C260.811 8.71213 259.635 9.50051 259.635 10.473C259.635 11.4455 260.811 12.2339 262.262 12.2339Z" fill="#1A1A1A"/>
<path d="M258.31 12.9383C257.497 12.6648 256.633 12.5723 255.78 12.6672C254.926 12.7621 254.104 13.0422 253.371 13.4879C252.638 13.9335 252.011 14.5338 251.535 15.2467C251.059 15.9597 250.745 16.7679 250.615 17.6148C250.335 19.4808 250.176 21.3631 250.141 23.2497C250.042 28.3765 252.704 33.3647 255.041 33.3647C257.379 33.3647 263.824 30.045 264.055 22.7647C264.2 18.273 261.949 14.1912 258.31 12.9383Z" fill="#F5BD9B"/>
<path d="M262.337 23.3421C262.337 24.4968 263.089 25.3916 264.015 25.3916C264.94 25.3916 265.693 24.4737 265.693 23.3421C265.693 22.2105 264.94 21.2925 264.015 21.2925C263.089 21.2925 262.337 22.2105 262.337 23.3421Z" fill="#F5BD9B"/>
<path d="M248.203 10.3864C245.79 12.2916 244.945 15.1899 246.317 16.8527C247.688 18.5154 250.748 18.3249 253.155 16.4197C255.562 14.5144 256.412 11.6219 255.041 9.9534C253.67 8.28487 250.61 8.48117 248.203 10.3864Z" fill="#1A1A1A"/>
<path d="M254.503 11.951C254.503 12.7766 255.504 13.4521 256.742 13.4521C257.98 13.4521 258.981 12.7766 258.981 11.951C258.981 11.1254 257.975 10.4499 256.742 10.4499C255.51 10.4499 254.503 11.1196 254.503 11.951Z" fill="#1A1A1A"/>
<path d="M247.844 18.3249C247.849 18.7007 247.964 19.0668 248.177 19.377C248.39 19.6873 248.689 19.9279 249.039 20.0686C249.388 20.2092 249.771 20.2437 250.14 20.1676C250.509 20.0915 250.847 19.9082 251.111 19.6409C251.376 19.3735 251.556 19.034 251.627 18.6651C251.699 18.2962 251.66 17.9143 251.515 17.5675C251.37 17.2207 251.125 16.9245 250.812 16.7162C250.498 16.5078 250.13 16.3966 249.753 16.3966C249.501 16.3981 249.252 16.4492 249.019 16.5469C248.787 16.6446 248.576 16.7871 248.398 16.9662C248.221 17.1452 248.081 17.3574 247.986 17.5905C247.891 17.8237 247.843 18.0732 247.844 18.3249Z" fill="#1A1A1A"/>
<path d="M252.594 27.7414L257.159 27.9204C257.094 28.436 256.829 28.9057 256.421 29.2293C256.014 29.5529 255.496 29.7047 254.978 29.6524C252.525 29.6004 252.594 27.7414 252.594 27.7414Z" fill="#EFFAFD"/>
</g>
<path d="M258.721 49.5072C272.301 49.5072 283.31 38.5216 283.31 24.9701C283.31 11.4186 272.301 0.433014 258.721 0.433014C245.141 0.433014 234.132 11.4186 234.132 24.9701C234.132 38.5216 245.141 49.5072 258.721 49.5072Z" stroke="#6349A0" stroke-width="1.5" stroke-miterlimit="10"/>
<path d="M86.8939 236.89C91.1532 236.89 94.6061 233.444 94.6061 229.194C94.6061 224.943 91.1532 221.498 86.8939 221.498C82.6345 221.498 79.1816 224.943 79.1816 229.194C79.1816 233.444 82.6345 236.89 86.8939 236.89Z" fill="#766BC9"/>
<path d="M90.7413 230.383C90.7615 230.364 90.7775 230.34 90.7885 230.315C90.7994 230.289 90.8051 230.261 90.805 230.233V229.771C90.7675 229.41 90.6425 229.064 90.4409 228.762C90.2393 228.461 89.9671 228.212 89.6479 228.039C88.8149 227.526 87.8554 227.254 86.8766 227.254C85.8977 227.254 84.9382 227.526 84.1052 228.039C83.786 228.212 83.5139 228.461 83.3123 228.762C83.1107 229.064 82.9856 229.41 82.9481 229.771V230.233C82.9496 230.289 82.9727 230.343 83.0125 230.382C83.0524 230.422 83.1059 230.445 83.1622 230.447H84.4814C84.5377 230.445 84.5913 230.422 84.6311 230.382C84.6709 230.343 84.6939 230.289 84.6954 230.233V229.771C84.7013 229.538 84.7658 229.31 84.8831 229.108C85.0004 228.907 85.1666 228.737 85.3665 228.616C85.8127 228.334 86.3305 228.183 86.8592 228.183C87.3879 228.183 87.9057 228.334 88.3519 228.616C88.5518 228.737 88.718 228.907 88.8353 229.108C88.9525 229.31 89.0171 229.538 89.023 229.771V230.233C89.0245 230.289 89.0476 230.343 89.0874 230.382C89.1272 230.422 89.1808 230.445 89.2371 230.447H90.5563C90.5843 230.447 90.6121 230.441 90.6379 230.43C90.6638 230.419 90.6872 230.403 90.7067 230.383H90.7413ZM83.22 228.074C83.3969 227.894 83.5906 227.732 83.7986 227.589C84.7207 227.011 85.7876 226.704 86.8766 226.704C87.9655 226.704 89.0325 227.011 89.9545 227.589C90.3513 227.84 90.692 228.17 90.9554 228.559C91.2037 228.924 91.3385 229.353 91.343 229.794V230.256C91.3415 230.46 91.2601 230.655 91.1163 230.799C90.9725 230.944 90.7776 231.027 90.5735 231.03H89.2545C89.0494 231.028 88.8529 230.946 88.7079 230.802C88.5628 230.657 88.4807 230.461 88.4792 230.256V229.794C88.4693 229.654 88.4251 229.518 88.3505 229.398C88.2759 229.278 88.1731 229.178 88.0511 229.107C87.6973 228.892 87.2909 228.778 86.8766 228.778C86.4622 228.778 86.0559 228.892 85.7021 229.107C85.58 229.178 85.4772 229.278 85.4026 229.398C85.328 229.518 85.2839 229.654 85.2739 229.794V230.256C85.2724 230.461 85.1903 230.657 85.0453 230.802C84.9002 230.946 84.7038 231.028 84.4986 231.03H83.1796C82.9745 231.028 82.778 230.946 82.633 230.802C82.4879 230.657 82.4058 230.461 82.4043 230.256V229.794C82.4109 229.353 82.5477 228.923 82.7977 228.559C82.9137 228.384 83.0475 228.221 83.1969 228.074H83.22Z" fill="white"/>
<path d="M239.015 174.583C246.182 174.583 251.992 168.798 251.992 161.662C251.992 154.526 246.182 148.741 239.015 148.741C231.848 148.741 226.038 154.526 226.038 161.662C226.038 168.798 231.848 174.583 239.015 174.583Z" fill="#6349A0"/>
<path d="M239.547 153.256H238.946V156.281H239.547V153.256Z" fill="#FFA03E"/>
<path d="M230.395 165.351C231.366 165.351 232.153 164.565 232.153 163.596C232.153 162.627 231.366 161.841 230.395 161.841C229.423 161.841 228.636 162.627 228.636 163.596C228.636 164.565 229.423 165.351 230.395 165.351Z" fill="white"/>
<path d="M248.179 165.236C249.151 165.236 249.938 164.45 249.938 163.481C249.938 162.511 249.151 161.725 248.179 161.725C247.208 161.725 246.421 162.511 246.421 163.481C246.421 164.45 247.208 165.236 248.179 165.236Z" fill="white"/>
<path d="M239.507 155.652C239.507 155.652 246.669 155.565 247.803 161.754C248.937 167.943 242.88 168.059 241.138 168.18C240.345 168.232 238.656 168.238 237.163 168.18C233.86 168.122 231.528 167.487 230.736 164.427C230.641 164.07 230.581 163.705 230.556 163.336C230.36 160.011 232.622 155.507 239.507 155.652Z" fill="white"/>
<path d="M234.312 165.08L244.726 165.241C245.249 165.249 245.755 165.049 246.131 164.686C246.508 164.322 246.724 163.824 246.733 163.302C246.741 162.779 246.541 162.274 246.176 161.899C245.812 161.523 245.313 161.307 244.789 161.298L234.375 161.137C234.116 161.132 233.858 161.179 233.617 161.274C233.376 161.369 233.156 161.511 232.97 161.691C232.784 161.871 232.635 162.087 232.533 162.324C232.431 162.562 232.376 162.818 232.373 163.076C232.369 163.335 232.415 163.592 232.51 163.833C232.605 164.073 232.747 164.293 232.927 164.479C233.107 164.665 233.322 164.814 233.559 164.917C233.797 165.02 234.052 165.075 234.312 165.08Z" fill="#FFA03E"/>
<path d="M240.23 153.198C240.23 153.393 240.172 153.584 240.063 153.747C239.955 153.909 239.8 154.035 239.619 154.11C239.439 154.185 239.24 154.204 239.048 154.166C238.856 154.128 238.68 154.034 238.541 153.896C238.403 153.758 238.309 153.582 238.27 153.391C238.232 153.199 238.252 153.001 238.327 152.82C238.402 152.64 238.528 152.486 238.691 152.377C238.854 152.269 239.045 152.211 239.241 152.211C239.503 152.211 239.755 152.315 239.94 152.5C240.126 152.685 240.23 152.936 240.23 153.198Z" fill="white"/>
</g>
<defs>
<clipPath id="clip0">
<rect width="286" height="338" fill="white"/>
</clipPath>
</defs>
</svg>
