<svg width="213" height="269" viewBox="0 0 213 269" fill="none" xmlns="http://www.w3.org/2000/svg">
<g clip-path="url(#clip0)">
<path d="M130.05 36.5042H54.0255C46.3924 36.5042 40.2046 42.7015 40.2046 50.3461V236.572C40.2046 244.217 46.3924 250.414 54.0255 250.414H130.05C137.683 250.414 143.871 244.217 143.871 236.572V50.3461C143.871 42.7015 137.683 36.5042 130.05 36.5042Z" fill="#B6B3D9"/>
<path d="M72.4069 40.9334H51.4208C50.5653 40.9326 49.7179 41.1006 48.9273 41.428C48.1366 41.7553 47.4181 42.2355 46.8128 42.8411C46.2075 43.4467 45.7274 44.1658 45.3998 44.9574C45.0722 45.749 44.9036 46.5974 44.9036 47.4543V239.332C44.9036 241.063 45.5902 242.723 46.8124 243.947C48.0347 245.171 49.6923 245.859 51.4208 245.859H133.258C134.986 245.859 136.644 245.171 137.866 243.947C139.088 242.723 139.775 241.063 139.775 239.332V47.4543C139.775 46.5974 139.606 45.749 139.279 44.9574C138.951 44.1658 138.471 43.4467 137.866 42.8411C137.261 42.2355 136.542 41.7553 135.751 41.428C134.961 41.1006 134.113 40.9326 133.258 40.9334H72.4069Z" fill="#F9F9FC"/>
<path d="M129.672 218.805H54.7614C53.1007 218.805 51.7544 220.153 51.7544 221.817V223.518C51.7544 225.181 53.1007 226.529 54.7614 226.529H129.672C131.333 226.529 132.679 225.181 132.679 223.518V221.817C132.679 220.153 131.333 218.805 129.672 218.805Z" fill="#E3E4F2"/>
<path d="M103.106 232.861H53.8492C52.6923 232.861 51.7544 233.8 51.7544 234.959V235.066C51.7544 236.225 52.6923 237.164 53.8492 237.164H103.106C104.263 237.164 105.201 236.225 105.201 235.066V234.959C105.201 233.8 104.263 232.861 103.106 232.861Z" fill="#E3E4F2"/>
<path d="M130.521 232.861H110.693C109.536 232.861 108.598 233.8 108.598 234.959V235.066C108.598 236.225 109.536 237.164 110.693 237.164H130.521C131.678 237.164 132.616 236.225 132.616 235.066V234.959C132.616 233.8 131.678 232.861 130.521 232.861Z" fill="#E3E4F2"/>
<path d="M88.5429 74.8104H68.5885C68.674 75.2891 68.6337 75.7819 68.4716 76.2403C68.3095 76.6987 68.0311 77.107 67.6637 77.4251C67.1133 77.978 66.4579 78.415 65.7362 78.7104C65.0145 79.0058 64.2411 79.1536 63.4615 79.1451H36.4928C35.7133 79.1536 34.9398 79.0058 34.2182 78.7104C33.4965 78.415 32.8411 77.978 32.2906 77.4251C31.9233 77.107 31.6449 76.6987 31.4827 76.2403C31.3206 75.7819 31.2803 75.2891 31.3658 74.8104H11.4114C10.6608 74.8096 9.91736 74.957 9.22361 75.2441C8.52987 75.5312 7.89944 75.9525 7.36836 76.4838C6.83728 77.0151 6.41597 77.646 6.12852 78.3405C5.84107 79.0349 5.69311 79.7794 5.69312 80.5312V260.394C5.69478 261.912 6.29798 263.367 7.3702 264.439C8.44241 265.512 9.89594 266.114 11.4114 266.114H88.5429C90.0584 266.114 91.5119 265.512 92.5841 264.439C93.6563 263.367 94.2596 261.912 94.2612 260.394V80.5312C94.2612 79.7794 94.1133 79.0349 93.8258 78.3405C93.5384 77.646 93.1171 77.0151 92.586 76.4838C92.0549 75.9525 91.4245 75.5312 90.7307 75.2441C90.037 74.957 89.2935 74.8096 88.5429 74.8104Z" fill="#F9F9FC"/>
<path d="M88.5429 74.8104H68.5885C68.674 75.2891 68.6337 75.7819 68.4716 76.2403C68.3095 76.6987 68.0311 77.107 67.6637 77.4251C67.1133 77.978 66.4579 78.415 65.7362 78.7104C65.0145 79.0058 64.2411 79.1536 63.4615 79.1451H36.4928C35.7133 79.1536 34.9398 79.0058 34.2182 78.7104C33.4965 78.415 32.8411 77.978 32.2906 77.4251C31.9233 77.107 31.6449 76.6987 31.4827 76.2403C31.3206 75.7819 31.2803 75.2891 31.3658 74.8104H11.4114C10.6608 74.8096 9.91736 74.957 9.22361 75.2441C8.52987 75.5312 7.89943 75.9525 7.36836 76.4838C6.83728 77.0151 6.41597 77.646 6.12852 78.3405C5.84107 79.0349 5.69311 79.7794 5.69312 80.5312V260.394C5.69478 261.912 6.29798 263.367 7.3702 264.439C8.44241 265.512 9.89594 266.114 11.4114 266.114H88.5429C90.0584 266.114 91.5119 265.512 92.5841 264.439C93.6563 263.367 94.2596 261.912 94.2612 260.394V80.5312C94.2612 79.7794 94.1133 79.0349 93.8258 78.3405C93.5384 77.646 93.1171 77.0151 92.586 76.4838C92.0549 75.9525 91.4245 75.5312 90.7307 75.2441C90.037 74.957 89.2935 74.8096 88.5429 74.8104Z" stroke="#604D9B" stroke-width="2" stroke-miterlimit="10"/>
<path d="M76.0935 26.745V46.6163C76.0952 48.3419 76.7804 49.9964 77.9987 51.2165C79.217 52.4367 80.8689 53.1229 82.5919 53.1246H153.709C155.433 53.1246 157.087 52.4391 158.307 51.2188C159.526 49.9984 160.212 48.343 160.214 46.6163V29.8259L169.071 20.5266L82.5919 20.2556C80.8717 20.2556 79.2216 20.9387 78.0035 22.1552C76.7854 23.3716 76.0985 25.0222 76.0935 26.745Z" fill="#5E4D9A"/>
<path d="M149.192 32.8375H129.062C128.905 32.8375 128.772 32.6484 128.772 32.4216C128.772 32.1948 128.905 32.0121 129.062 32.0121H149.192C149.356 32.0121 149.488 32.1948 149.488 32.4216C149.488 32.6484 149.356 32.8375 149.192 32.8375Z" fill="white"/>
<path d="M149.192 37.2288H129.062C128.905 37.2288 128.772 37.0398 128.772 36.813C128.772 36.5862 128.905 36.4035 129.062 36.4035H149.192C149.356 36.4035 149.488 36.5862 149.488 36.813C149.488 37.0398 149.356 37.2288 149.192 37.2288Z" fill="white"/>
<path d="M149.192 42.1242H129.062C128.905 42.1242 128.772 41.9352 128.772 41.7084C128.772 41.4816 128.905 41.2989 129.062 41.2989H149.192C149.356 41.2989 149.488 41.4816 149.488 41.7084C149.488 41.9352 149.356 42.1242 149.192 42.1242Z" fill="white"/>
<path d="M101.364 49.3066C111.922 49.3066 120.481 40.9345 120.481 30.6071C120.481 20.2797 111.922 11.9077 101.364 11.9077C90.8051 11.9077 82.2458 20.2797 82.2458 30.6071C82.2458 40.9345 90.8051 49.3066 101.364 49.3066Z" fill="white"/>
<path d="M107.925 29.6873H94.6576C93.7404 29.6873 92.9968 30.432 92.9968 31.3506V31.4325C92.9968 32.3511 93.7404 33.0958 94.6576 33.0958H107.925C108.842 33.0958 109.586 32.3511 109.586 31.4325V31.3506C109.586 30.432 108.842 29.6873 107.925 29.6873Z" fill="#1E2E34"/>
<path d="M101.867 2.02869H100.709V7.89432H101.867V2.02869Z" fill="#1E2E34"/>
<path d="M87.664 22.8265C88.0986 20.9951 86.9686 19.1575 85.1399 18.7222C83.3113 18.2869 81.4765 19.4187 81.0419 21.2502C80.6072 23.0816 81.7373 24.9192 83.566 25.3545C85.3946 25.7898 87.2294 24.658 87.664 22.8265Z" fill="#FFA03E"/>
<path d="M122.054 21.928C122.468 20.0832 121.31 18.252 119.468 17.8378C117.626 17.4237 115.797 18.5835 115.384 20.4283C114.97 22.2731 116.128 24.1043 117.97 24.5185C119.812 24.9326 121.641 23.7728 122.054 21.928Z" fill="#FFA03E"/>
<path d="M101.961 6.62167C101.961 6.62167 115.801 6.45787 117.996 18.4663C120.192 30.4748 108.478 30.6953 105.113 30.9221C103.591 31.0292 100.319 31.0355 97.4381 30.9914C91.0593 30.878 86.5488 29.6432 85.0138 23.7145C84.8349 23.0165 84.7191 22.3038 84.6678 21.585C84.2715 15.0894 88.675 6.30666 101.961 6.62167Z" fill="#FFA03E"/>
<path d="M91.2667 25.5983L111.397 25.5164C112.406 25.5048 113.368 25.0941 114.076 24.3741C114.783 23.6541 115.177 22.6832 115.172 21.6732C115.162 20.6639 114.753 19.6996 114.035 18.9912C113.317 18.2828 112.348 17.8879 111.341 17.893L91.2101 17.9812C90.2045 17.9862 89.2416 18.3889 88.5311 19.1017C87.8206 19.8144 87.4201 20.7795 87.4167 21.7866C87.4176 22.2907 87.518 22.7896 87.7123 23.2545C87.9066 23.7195 88.1909 24.1414 88.5489 24.4957C88.9068 24.8501 89.3312 25.13 89.7977 25.3192C90.2642 25.5085 90.7634 25.6033 91.2667 25.5983Z" fill="#1E2E34"/>
<path d="M102.644 3.2668C103.391 2.51882 103.391 1.30612 102.644 0.558147C101.898 -0.189827 100.687 -0.18983 99.9399 0.558145C99.1931 1.30612 99.1931 2.51883 99.9399 3.2668C100.687 4.01478 101.898 4.01477 102.644 3.2668Z" fill="#FFA03E"/>
<path d="M108.177 22.0513C108.139 22.2501 108.043 22.4332 107.901 22.5774C107.759 22.7215 107.578 22.8201 107.38 22.8607C107.182 22.9013 106.976 22.8821 106.789 22.8054C106.602 22.7287 106.442 22.5981 106.329 22.4301C106.217 22.2621 106.156 22.0643 106.156 21.8619C106.156 21.6596 106.216 21.4617 106.328 21.2934C106.441 21.1252 106.6 20.9942 106.787 20.9171C106.974 20.84 107.18 20.8203 107.378 20.8605C107.508 20.8861 107.632 20.9373 107.743 21.011C107.854 21.0847 107.949 21.1796 108.023 21.2901C108.098 21.4007 108.149 21.5248 108.176 21.6554C108.202 21.786 108.202 21.9205 108.177 22.0513Z" fill="white"/>
<path d="M96.0479 22.0513C96.0102 22.2501 95.9143 22.4332 95.7725 22.5774C95.6306 22.7215 95.4491 22.8201 95.2512 22.8607C95.0532 22.9013 94.8476 22.8821 94.6606 22.8054C94.4736 22.7287 94.3135 22.5981 94.2008 22.4301C94.0881 22.2621 94.0278 22.0643 94.0276 21.8619C94.0274 21.6596 94.0872 21.4617 94.1996 21.2934C94.3119 21.1252 94.4717 20.9942 94.6585 20.9171C94.8454 20.84 95.0509 20.8203 95.249 20.8605C95.3795 20.8861 95.5037 20.9373 95.6145 21.011C95.7253 21.0847 95.8205 21.1796 95.8947 21.2901C95.9689 21.4007 96.0206 21.5248 96.0469 21.6554C96.0732 21.786 96.0735 21.9205 96.0479 22.0513Z" fill="white"/>
<path d="M101.219 77.5826C114.543 77.5826 125.344 68.1753 125.344 56.5709C125.344 44.9665 114.543 35.5592 101.219 35.5592C87.895 35.5592 77.0938 44.9665 77.0938 56.5709C77.0938 68.1753 87.895 77.5826 101.219 77.5826Z" fill="#FFA03E"/>
<path d="M116.789 64.3329H210.452C211.12 64.3329 211.76 64.5985 212.232 65.0711C212.703 65.5437 212.969 66.1847 212.969 66.8531V97.3909C212.969 98.0593 212.703 98.7003 212.232 99.1729C211.76 99.6455 211.12 99.9111 210.452 99.9111H133.969L127.779 106.646C127.779 106.646 127.15 102.866 126.577 99.9111H116.789C116.121 99.9111 115.481 99.6455 115.009 99.1729C114.537 98.7003 114.272 98.0593 114.272 97.3909V66.8783C114.269 66.5452 114.332 66.2148 114.457 65.9061C114.582 65.5975 114.766 65.3167 115 65.08C115.234 64.8433 115.513 64.6554 115.82 64.5272C116.127 64.3989 116.456 64.3329 116.789 64.3329Z" fill="#C5C2E1"/>
<path d="M165.712 75.0498L122.935 75.0057C122.882 75.0049 122.83 74.9937 122.781 74.9726C122.733 74.9516 122.689 74.9212 122.652 74.8832C122.615 74.8452 122.586 74.8002 122.567 74.751C122.547 74.7018 122.538 74.6492 122.538 74.5962C122.537 74.4887 122.577 74.3848 122.651 74.307C122.726 74.2291 122.827 74.1837 122.935 74.1804L165.712 74.2245C165.765 74.2253 165.817 74.2366 165.866 74.2576C165.914 74.2786 165.958 74.309 165.995 74.347C166.032 74.3851 166.061 74.43 166.08 74.4792C166.1 74.5285 166.109 74.5811 166.108 74.634C166.11 74.7416 166.069 74.8455 165.995 74.9233C165.921 75.0011 165.819 75.0465 165.712 75.0498Z" fill="white"/>
<path d="M165.706 79.6932L122.928 79.6554C122.828 79.643 122.735 79.5941 122.668 79.5181C122.601 79.4421 122.564 79.3442 122.564 79.2428C122.564 79.1413 122.601 79.0434 122.668 78.9674C122.735 78.8914 122.828 78.8425 122.928 78.8301L165.706 78.8679C165.813 78.8712 165.915 78.9166 165.989 78.9944C166.063 79.0723 166.104 79.1761 166.102 79.2837C166.102 79.3902 166.061 79.4925 165.987 79.5689C165.913 79.6454 165.812 79.6899 165.706 79.6932Z" fill="white"/>
<path d="M165.706 84.4059L122.928 84.3681C122.828 84.3556 122.735 84.3068 122.668 84.2308C122.601 84.1548 122.564 84.0568 122.564 83.9554C122.564 83.854 122.601 83.756 122.668 83.68C122.735 83.604 122.828 83.5552 122.928 83.5427L165.706 83.5805C165.813 83.5838 165.915 83.6293 165.989 83.7071C166.063 83.7849 166.104 83.8888 166.102 83.9963C166.103 84.0493 166.093 84.1019 166.074 84.1511C166.054 84.2004 166.025 84.2453 165.989 84.2833C165.952 84.3213 165.908 84.3517 165.859 84.3728C165.811 84.3938 165.759 84.405 165.706 84.4059Z" fill="white"/>
<path d="M150.274 89.2887H122.922C122.822 89.2762 122.729 89.2274 122.662 89.1514C122.595 89.0754 122.558 88.9774 122.558 88.876C122.558 88.7746 122.595 88.6766 122.662 88.6006C122.729 88.5246 122.822 88.4758 122.922 88.4633H150.274C150.375 88.4758 150.467 88.5246 150.534 88.6006C150.602 88.6766 150.639 88.7746 150.639 88.876C150.639 88.9774 150.602 89.0754 150.534 89.1514C150.467 89.2274 150.375 89.2762 150.274 89.2887Z" fill="white"/>
<path d="M197.109 51.1967C197.059 50.4406 197.738 49.3885 198.367 48.7899C198.726 48.467 198.981 48.0461 199.103 47.5792C199.225 47.1123 199.208 46.6198 199.053 46.1627C198.802 45.2239 198.204 45.2932 197.971 44.7451C197.858 44.3158 197.812 43.8718 197.833 43.4283C197.785 43.055 197.661 42.6956 197.468 42.3727C197.275 42.0498 197.017 41.7704 196.711 41.5521C196.405 41.3337 196.057 41.1811 195.69 41.1039C195.322 41.0267 194.942 41.0266 194.574 41.1035C194.372 40.3713 193.954 39.7172 193.375 39.2264C192.796 38.7356 192.083 38.4309 191.328 38.352C190.574 38.2731 189.813 38.4237 189.146 38.7841C188.478 39.1446 187.934 39.6981 187.585 40.3727C187.157 40.149 186.681 40.0353 186.199 40.0417C185.716 40.0481 185.243 40.1744 184.821 40.4093C184.4 40.6441 184.043 40.9802 183.783 41.3873C183.523 41.7944 183.368 42.2598 183.332 42.7416C182.901 42.4658 182.384 42.356 181.877 42.4325C181.371 42.5089 180.909 42.7664 180.577 43.1574C180.264 43.5652 180.078 44.0565 180.042 44.5698C180.006 45.0831 180.122 45.5955 180.376 46.043C180.64 46.4841 181 46.8599 181.429 47.1424C181.858 47.4249 182.345 47.6069 182.854 47.6748C183.876 47.8046 184.912 47.6177 185.824 47.1393C186.73 46.657 187.553 46.0339 188.264 45.2932" fill="#1E2E34"/>
<path d="M190.378 98.6195C200.231 98.6195 208.219 90.8088 208.219 81.1738C208.219 71.5388 200.231 63.7281 190.378 63.7281C180.525 63.7281 172.538 71.5388 172.538 81.1738C172.538 90.8088 180.525 98.6195 190.378 98.6195Z" fill="#E1E1E1"/>
<path d="M172.462 81.1864L174.437 76.1461L181.515 80.5942L175.224 90.3345C175.224 90.3345 172.645 86.9701 172.462 81.1864Z" fill="#EB996E"/>
<path d="M192.001 70.2112C190.782 70.2178 189.607 69.7545 188.719 68.917C187.831 68.0796 187.299 66.9323 187.233 65.7127C187.126 63.6147 187.038 61.5923 187.038 61.5923C187.038 61.5923 183.144 61.3088 182.785 57.4971C182.427 53.6853 182.376 44.8963 182.376 44.8963C184.489 43.7885 186.856 43.2597 189.238 43.3637C191.619 43.4678 193.932 44.2008 195.939 45.4886L196.311 45.728L196.757 65.4481C196.759 66.0741 196.637 66.6942 196.399 67.2728C196.16 67.8515 195.81 68.3772 195.368 68.8198C194.926 69.2625 194.401 69.6132 193.823 69.852C193.246 70.0908 192.626 70.2129 192.001 70.2112Z" fill="#FFBE9D"/>
<path d="M187.031 61.5356C188.806 61.4258 190.508 60.7946 191.926 59.7211C191.926 59.7211 190.963 62.5625 187.101 62.5247L187.031 61.5356Z" fill="#EB996E"/>
<path d="M196.405 51.2975C196.401 51.1486 196.456 51.0042 196.557 50.8948C196.658 50.7854 196.797 50.7197 196.946 50.7116C197.663 50.6738 198.833 50.9384 198.99 52.9041C199.204 55.7078 196.474 55.0588 196.474 54.9769C196.474 54.895 196.418 52.3938 196.405 51.2975Z" fill="#FFBE9D"/>
<path d="M197.059 53.8618C197.059 53.8618 197.109 53.8618 197.198 53.9248C197.317 53.9709 197.449 53.9709 197.569 53.9248C197.741 53.796 197.876 53.6237 197.96 53.4256C198.044 53.2275 198.074 53.0105 198.047 52.797C198.037 52.5547 197.972 52.3178 197.858 52.104C197.824 52.019 197.77 51.9432 197.702 51.883C197.633 51.8228 197.55 51.7797 197.462 51.7574C197.404 51.7474 197.344 51.7575 197.292 51.7862C197.241 51.8148 197.201 51.8603 197.179 51.915C197.147 51.9969 197.179 52.0536 197.179 52.0599C197.179 52.0662 197.116 52.0158 197.128 51.8961C197.139 51.8249 197.174 51.76 197.229 51.7133C197.265 51.6809 197.306 51.6559 197.352 51.6396C197.397 51.6234 197.445 51.6163 197.493 51.6188C197.611 51.632 197.723 51.6755 197.819 51.7451C197.915 51.8146 197.991 51.9079 198.041 52.0158C198.181 52.2483 198.261 52.5127 198.273 52.7844C198.306 53.0333 198.263 53.2862 198.151 53.5107C198.039 53.7352 197.862 53.9211 197.644 54.0445C197.571 54.0723 197.492 54.0834 197.413 54.0768C197.335 54.0703 197.259 54.0463 197.191 54.0067C197.072 53.9185 197.053 53.8681 197.059 53.8618Z" fill="#EB996E"/>
<path d="M181.835 46.0808C182.696 46.4065 183.618 46.5408 184.535 46.4745C185.453 46.4081 186.346 46.1426 187.151 45.6965C189.126 44.7136 191.423 44.2285 191.932 44.6254C192.442 45.0223 192.561 47.0573 194.499 47.6559C194.499 47.6559 194.367 51.5369 195.908 51.3983C197.449 51.2597 196.487 45.2429 196.487 45.2429L192.712 43.3968L188.585 42.6156L184.698 43.1637L181.691 43.9891L181.835 46.0808Z" fill="#1E2E34"/>
<path d="M207.722 68.5479C203.677 64.3897 196.562 64.8433 196.562 64.8433L190.668 69.0708L187.327 65.1709C184.957 65.4919 182.657 66.2052 180.521 67.2815L180.294 67.3508V67.3949C177.709 68.7999 174.048 72.1769 170.556 75.4531L174.733 79.3278L179.357 83.4356C179.349 83.4623 179.349 83.4909 179.357 83.5175C179.407 83.7695 178.728 89.421 178.011 93.7115C180.022 95.7001 182.487 97.1674 185.193 97.9864C187.898 98.8054 190.762 98.9514 193.536 98.4116C195.424 98.084 196.342 97.6177 198.091 97.1515C199.357 96.8231 200.489 96.1078 201.33 95.1051C202.171 94.1024 202.679 92.8621 202.784 91.5568C203.105 87.9593 203.344 83.5049 203.344 83.5049" fill="#5E4D9A"/>
<path d="M183.628 65.8891C183.531 66.0933 183.446 66.3038 183.377 66.5192C183.226 66.9539 183.018 67.5839 182.748 68.3652C182.263 69.9277 181.64 72.1013 181.055 74.5269C180.47 76.9526 180.036 79.1703 179.753 80.7832C179.615 81.5896 179.514 82.2449 179.451 82.6733C179.405 82.9057 179.379 83.1419 179.376 83.3789C179.444 83.1518 179.497 82.9203 179.533 82.6859L179.904 80.7958C180.219 79.1892 180.684 76.9841 181.269 74.5584C181.854 72.1328 182.446 69.9592 182.899 68.3904C183.112 67.628 183.295 67.0043 183.427 66.5003C183.508 66.3014 183.575 66.0972 183.628 65.8891Z" fill="#3D3468"/>
<path d="M179.835 80.7769C179.873 80.7265 178.105 79.227 175.897 77.4251C173.689 75.6232 171.858 74.193 171.82 74.2371C171.783 74.2812 173.55 75.787 175.758 77.5889C177.967 79.3908 179.797 80.821 179.835 80.7769Z" fill="#3D3468"/>
<path opacity="0.2" d="M202.387 74.2623L206.005 86.1763L204.658 86.8819L203.331 83.5301C203.331 83.5301 201.966 76.4296 202.387 74.2623Z" fill="black"/>
<g opacity="0.2">
<path opacity="0.2" d="M184.018 65.8891C182.074 66.9224 186.956 69.3984 189.164 69.3291L187.56 65.0953C186.36 65.2622 185.175 65.5277 184.018 65.8891Z" fill="black"/>
</g>
<path d="M197.147 65.1079V61.9577C197.147 61.9577 190.995 63.5454 190.768 67.2311C190.768 67.2311 189.988 63.1548 186.818 62.9595L186.371 68.6928L190.058 71.9122H193.801L196.757 69.348L197.147 65.3662" fill="#5E4D9A"/>
<path d="M189.384 84.9162C189.402 84.6897 189.402 84.4622 189.384 84.2358C189.384 83.801 189.384 83.171 189.384 82.3898C189.384 80.8336 189.428 78.6788 189.623 76.3099C189.818 73.941 190.127 71.8052 190.385 70.2742C190.517 69.5307 190.63 68.9196 190.712 68.4534C190.76 68.2333 190.794 68.0102 190.812 67.7855C190.733 67.9898 190.672 68.2006 190.63 68.4156C190.523 68.844 190.391 69.4614 190.24 70.2238C189.853 72.2232 189.576 74.2423 189.41 76.2721C189.236 78.3001 189.177 80.3362 189.233 82.3709C189.233 83.1521 189.284 83.7884 189.315 84.2232C189.322 84.4555 189.345 84.6871 189.384 84.9162Z" fill="#3D3468"/>
<path d="M191.051 66.1663C191.171 66.1348 191.297 66.1348 191.416 66.1663C191.655 66.2419 191.863 66.5381 192.045 66.9539C192.551 68.0469 192.943 69.189 193.216 70.3624L193.253 70.5073L193.373 70.4317C193.744 70.2112 194.121 69.9654 194.499 69.7071C195.194 69.2419 195.86 68.7349 196.493 68.1887C196.784 67.9486 197.017 67.6447 197.172 67.3004C197.298 66.9983 197.368 66.6761 197.38 66.349C197.394 65.8854 197.35 65.4218 197.248 64.9693C197.222 64.8004 197.176 64.6353 197.11 64.4778C197.115 64.6471 197.134 64.8157 197.166 64.9819C197.234 65.4299 197.255 65.884 197.229 66.3364C197.207 66.6424 197.135 66.9426 197.015 67.2248C196.867 67.5404 196.653 67.8199 196.386 68.0438C195.801 68.529 195.128 69.033 194.398 69.5307C194.021 69.7869 193.65 70.0263 193.285 70.249L193.442 70.3183C193.159 69.1322 192.736 67.9839 192.184 66.8972C192.097 66.706 191.987 66.5261 191.857 66.3616C191.754 66.2389 191.619 66.1472 191.467 66.097C191.177 66.0529 191.045 66.16 191.051 66.1663Z" fill="#3D3468"/>
<path d="M186.811 62.9532C186.769 63.1135 186.748 63.2787 186.749 63.4446L186.654 64.7929C186.61 65.3536 186.541 66.0529 186.421 66.7712C186.324 67.1666 186.3 67.5768 186.352 67.9808C186.5 68.4043 186.783 68.7673 187.157 69.0141C187.641 69.3132 188.094 69.6593 188.51 70.0474L188.68 70.2301V69.9844C188.756 68.9051 189.067 67.8556 189.592 66.9098C189.982 66.2104 190.303 65.845 190.278 65.8261C190.186 65.8973 190.103 65.9799 190.032 66.0718C189.826 66.3137 189.641 66.573 189.479 66.8468C188.9 67.8026 188.555 68.8821 188.472 69.9969L188.655 69.9339C188.232 69.5334 187.771 69.1766 187.277 68.8692C186.941 68.6506 186.683 68.3307 186.541 67.9556C186.496 67.5768 186.518 67.1931 186.604 66.8216C186.711 66.0718 186.767 65.3977 186.793 64.8244C186.818 64.251 186.824 63.7911 186.824 63.4761C186.836 63.3018 186.832 63.1267 186.811 62.9532Z" fill="#3D3468"/>
<path d="M167.008 63.747C167.26 64.0431 176.318 76.1713 176.318 76.1713L175.06 76.8959L165.762 64.9252L167.008 63.747Z" fill="#1E2E34"/>
<path d="M203.406 73.3362C203.406 73.3362 193.876 87.0772 193.297 87.3481C192.165 87.8837 179.13 76.5934 177.885 75.5161C177.715 75.2893 177.356 74.8041 176.664 73.8402C176.664 73.8402 175.639 69.1275 174.538 69.4866C173.437 69.8458 175.167 71.8808 174.425 73.6764C173.682 75.472 170.436 71.194 170.304 70.8097L169.461 69.7071C169.461 69.7071 168.574 72.2273 168.637 73.2668C168.826 76.6312 172.003 80.632 172.003 80.632C172.003 80.632 186.277 98.336 196.046 98.903C198.864 99.0605 203.866 91.059 207.212 85.0422C208.192 83.2911 208.496 81.2406 208.066 79.28C207.635 77.3195 206.501 75.5855 204.878 74.4072L203.406 73.3362Z" fill="#FFBE9D"/>
<path d="M170.242 73.8654C170.242 73.8654 169.965 73.3046 169.612 72.6053C169.429 72.1728 169.219 71.752 168.983 71.3452C169.094 71.7979 169.263 72.2342 169.487 72.6431C169.676 73.0859 169.931 73.4978 170.242 73.8654Z" fill="#EB996E"/>
<path d="M205.017 66.6326C205.017 66.6326 215.246 70.2742 207.64 87.5057L195.833 80.38L197.512 76.3477L205.017 66.6326Z" fill="#5E4D9A"/>
<path d="M205.803 66.9287C205.381 66.8913 204.955 66.9275 204.545 67.0358C204.073 67.1574 203.621 67.3485 203.205 67.6028C202.655 67.9402 202.153 68.3515 201.714 68.8251C200.599 70.0747 199.663 71.4743 198.934 72.9833C198.066 74.6592 197.26 76.5683 196.417 78.5718L195.694 80.3233L195.656 80.4115L195.744 80.4619C199.16 82.352 202.136 84.072 204.237 85.3825C205.287 86.0125 206.124 86.5669 206.703 86.9386L207.363 87.3671L207.602 87.5057C207.538 87.4414 207.466 87.3843 207.389 87.3356C207.244 87.2285 207.03 87.0709 206.759 86.8756C206.2 86.485 205.369 85.9306 204.325 85.2564C202.243 83.9208 199.292 82.1441 195.858 80.2729L195.908 80.4052C196.134 79.8444 196.38 79.2522 196.631 78.6537C197.462 76.6502 198.261 74.7475 199.11 73.0779C199.82 71.578 200.732 70.183 201.821 68.9322C202.245 68.4491 202.732 68.0252 203.268 67.6722C203.67 67.4164 204.107 67.2191 204.564 67.0862C204.972 67.0005 205.387 66.9479 205.803 66.9287Z" fill="#3D3468"/>
<path d="M183.792 41.387C183.77 41.4441 183.753 41.5032 183.741 41.5634C183.72 41.7413 183.72 41.9211 183.741 42.099C183.76 42.5157 183.874 42.9225 184.074 43.2882C184.275 43.6539 184.556 43.9688 184.897 44.2085C185.238 44.4483 185.629 44.6065 186.041 44.6711C186.452 44.7358 186.873 44.705 187.271 44.5813C187.853 44.4326 188.356 44.0677 188.68 43.5606C188.855 43.2834 188.931 42.9544 188.894 42.6282C188.875 42.4587 188.821 42.2951 188.734 42.1485C188.647 42.0018 188.53 41.8753 188.39 41.7776C188.243 41.6861 188.075 41.6325 187.901 41.6215C187.728 41.6105 187.554 41.6425 187.396 41.7146C187.091 41.8439 186.849 42.0884 186.723 42.3951C186.62 42.6804 186.591 42.9871 186.638 43.2868C186.685 43.5865 186.808 43.8693 186.994 44.1088C187.302 44.5101 187.742 44.7891 188.236 44.8964C188.73 45.0036 189.246 44.9322 189.693 44.6947C190.017 44.5268 190.358 44.3958 190.712 44.3041C190.976 44.248 191.252 44.279 191.498 44.3923C191.706 44.5024 191.904 44.631 192.089 44.7766C192.054 44.7232 192.011 44.6745 191.964 44.6317C191.915 44.5753 191.86 44.5245 191.8 44.4805C191.719 44.4145 191.631 44.3594 191.536 44.3167C191.276 44.1826 190.98 44.1383 190.693 44.1907C190.326 44.267 189.971 44.3898 189.636 44.5561C189.444 44.6439 189.244 44.7115 189.038 44.7577C188.82 44.7953 188.596 44.7953 188.378 44.7577C187.89 44.6703 187.452 44.4028 187.151 44.008C186.989 43.7942 186.883 43.5434 186.843 43.2783C186.802 43.0132 186.828 42.7421 186.918 42.4896C186.967 42.3616 187.042 42.2454 187.138 42.1484C187.235 42.0513 187.351 41.9757 187.478 41.9264C187.606 41.8771 187.742 41.8552 187.879 41.8621C188.015 41.8691 188.149 41.9047 188.271 41.9667C188.385 42.049 188.48 42.1543 188.55 42.2759C188.621 42.3975 188.665 42.5325 188.68 42.6723C188.714 42.9493 188.652 43.2296 188.504 43.4661C188.211 43.9208 187.764 44.2542 187.245 44.4049C186.796 44.5389 186.32 44.5512 185.865 44.4405C185.409 44.3298 184.991 44.1001 184.654 43.7749C184.2 43.321 183.916 42.7249 183.848 42.0864C183.816 41.8545 183.797 41.621 183.792 41.387Z" fill="#3E5963"/>
<path d="M183.119 42.7794C182.973 43.0037 182.903 43.2684 182.917 43.5355C182.882 44.1878 183.101 44.8282 183.529 45.3219C183.956 45.8155 184.558 46.1238 185.207 46.1816C185.47 46.2275 185.741 46.1969 185.987 46.0934C185.987 46.0556 185.685 46.0934 185.226 46.0304C184.626 45.9372 184.078 45.632 183.682 45.1698C183.286 44.7077 183.069 44.1191 183.068 43.5103C183.037 43.0692 183.15 42.7857 183.119 42.7794Z" fill="#3E5963"/>
<path d="M142.883 154.252C150.446 154.252 156.578 148.111 156.578 140.536C156.578 132.961 150.446 126.82 142.883 126.82C135.319 126.82 129.188 132.961 129.188 140.536C129.188 148.111 135.319 154.252 142.883 154.252Z" fill="white" stroke="#5E4D9A" stroke-width="2" stroke-miterlimit="10"/>
<path d="M151.199 122.914C151.684 123.115 152.162 123.342 152.621 123.588" stroke="#F89E41" stroke-width="2" stroke-linecap="round" stroke-linejoin="round"/>
<path d="M157.616 127.444C160.5 130.591 162.208 134.642 162.449 138.907C162.69 143.173 161.449 147.39 158.937 150.843" stroke="#F89E41" stroke-width="2" stroke-linecap="round" stroke-linejoin="round" stroke-dasharray="5.03 10.07"/>
<path d="M156.861 153.231C156.484 153.596 156.093 153.943 155.685 154.277" stroke="#F89E41" stroke-width="2" stroke-linecap="round" stroke-linejoin="round"/>
<path d="M150.545 136.044L145.921 140.668L150.57 145.293C150.658 145.112 150.705 144.914 150.709 144.713V136.617C150.705 136.418 150.658 136.222 150.57 136.044H150.545Z" fill="#5E4D9A"/>
<path d="M143.971 141.323L149.91 135.407C149.73 135.315 149.532 135.268 149.331 135.269H136.699C136.498 135.268 136.299 135.315 136.12 135.407L142.065 141.323C142.317 141.571 142.656 141.71 143.009 141.71C143.362 141.71 143.7 141.571 143.952 141.323H143.971Z" fill="#5E4D9A"/>
<path d="M135.491 136.044C135.4 136.221 135.353 136.418 135.353 136.617V144.713C135.352 144.914 135.399 145.113 135.491 145.293L140.134 140.668L135.491 136.044Z" fill="#5E4D9A"/>
<path d="M144.606 141.96C144.187 142.374 143.622 142.606 143.034 142.606C142.445 142.606 141.88 142.374 141.461 141.96L140.8 141.33L136.12 145.904C136.301 145.99 136.499 146.035 136.699 146.036H149.331C149.531 146.035 149.729 145.99 149.91 145.904L145.292 141.304L144.663 141.934L144.606 141.96Z" fill="#5E4D9A"/>
<path d="M142.883 232.767C150.446 232.767 156.578 226.626 156.578 219.051C156.578 211.476 150.446 205.335 142.883 205.335C135.319 205.335 129.188 211.476 129.188 219.051C129.188 226.626 135.319 232.767 142.883 232.767Z" fill="white" stroke="#5E4D9A" stroke-width="2" stroke-miterlimit="10"/>
<path d="M156.112 206.009C156.49 206.387 156.842 206.771 157.175 207.168" stroke="#F89E41" stroke-width="2" stroke-linecap="round" stroke-linejoin="round"/>
<path d="M160.252 212.335C161.263 214.923 161.68 217.706 161.47 220.478C161.26 223.249 160.429 225.938 159.038 228.343C157.648 230.749 155.735 232.81 153.44 234.373C151.145 235.936 148.528 236.961 145.783 237.372" stroke="#F89E41" stroke-width="2" stroke-linecap="round" stroke-linejoin="round" stroke-dasharray="4.79 9.58"/>
<path d="M142.776 237.568C142.254 237.568 141.725 237.53 141.203 237.479" stroke="#F89E41" stroke-width="2" stroke-linecap="round" stroke-linejoin="round"/>
<path d="M146.5 220.16C146.251 220.16 146.008 220.086 145.801 219.947C145.594 219.809 145.433 219.612 145.338 219.382C145.242 219.152 145.217 218.898 145.266 218.654C145.314 218.409 145.434 218.185 145.61 218.009C145.786 217.832 146.01 217.712 146.254 217.664C146.499 217.615 146.751 217.64 146.981 217.735C147.211 217.831 147.408 217.992 147.546 218.2C147.684 218.407 147.758 218.65 147.758 218.9C147.758 219.234 147.626 219.554 147.39 219.791C147.154 220.027 146.834 220.16 146.5 220.16ZM143.103 220.16C142.854 220.16 142.611 220.086 142.404 219.947C142.197 219.809 142.036 219.612 141.941 219.382C141.845 219.152 141.82 218.898 141.869 218.654C141.917 218.409 142.037 218.185 142.213 218.009C142.389 217.832 142.613 217.712 142.857 217.664C143.102 217.615 143.354 217.64 143.584 217.735C143.814 217.831 144.011 217.992 144.149 218.2C144.287 218.407 144.361 218.65 144.361 218.9C144.361 219.234 144.228 219.554 143.993 219.791C143.757 220.027 143.437 220.16 143.103 220.16ZM139.7 220.16C139.451 220.16 139.207 220.086 139.001 219.947C138.794 219.809 138.632 219.612 138.537 219.382C138.442 219.152 138.417 218.898 138.466 218.654C138.514 218.409 138.634 218.185 138.81 218.009C138.986 217.832 139.21 217.712 139.454 217.664C139.698 217.615 139.951 217.64 140.181 217.735C140.411 217.831 140.607 217.992 140.746 218.2C140.884 218.407 140.958 218.65 140.958 218.9C140.958 219.234 140.825 219.554 140.589 219.791C140.353 220.027 140.033 220.16 139.7 220.16ZM143.046 212.505C139.064 212.505 135.824 215.365 135.824 218.887C135.837 220.404 136.429 221.858 137.479 222.951C137.585 223.382 137.577 223.833 137.457 224.26C137.337 224.688 137.108 225.076 136.793 225.389C136.736 225.449 136.697 225.525 136.682 225.607C136.667 225.689 136.676 225.773 136.708 225.85C136.74 225.927 136.793 225.993 136.862 226.04C136.931 226.086 137.012 226.112 137.095 226.113C138.306 226.113 139.469 225.644 140.341 224.803C141.21 225.112 142.125 225.268 143.046 225.263C147.022 225.263 150.318 222.403 150.318 218.887C150.318 215.371 147.022 212.505 143.046 212.505Z" fill="#5E4D9A"/>
<path d="M142.625 192.942C150.188 192.942 156.32 186.801 156.32 179.226C156.32 171.651 150.188 165.51 142.625 165.51C135.061 165.51 128.93 171.651 128.93 179.226C128.93 186.801 135.061 192.942 142.625 192.942Z" fill="white" stroke="#5E4D9A" stroke-width="2" stroke-miterlimit="10"/>
<path d="M160.862 175.402C160.975 175.919 161.057 176.435 161.126 176.958" stroke="#F89E41" stroke-width="2" stroke-linecap="round" stroke-linejoin="round"/>
<path d="M160.604 184.178C159.96 186.525 158.857 188.721 157.358 190.636" stroke="#F89E41" stroke-width="2" stroke-linecap="round" stroke-linejoin="round" stroke-dasharray="5.78 11.56"/>
<path d="M154.854 193.276C154.452 193.623 154.043 193.95 153.596 194.253" stroke="#F89E41" stroke-width="2" stroke-linecap="round" stroke-linejoin="round"/>
<path d="M139.932 178.231C140.285 179.73 142.216 181.589 143.638 181.942C143.959 182.014 144.296 181.967 144.585 181.809C144.874 181.652 145.096 181.394 145.21 181.085C145.283 180.868 145.41 180.674 145.58 180.521C145.749 180.368 145.955 180.262 146.178 180.212C146.4 180.162 146.632 180.17 146.85 180.236C147.069 180.302 147.267 180.423 147.425 180.587L149.419 182.584C149.662 182.847 149.797 183.193 149.797 183.551C149.797 183.91 149.662 184.255 149.419 184.519L148.066 185.873C146.638 187.303 142.858 185.734 139.498 182.37C136.139 179.006 134.648 175.226 136.007 173.795L137.359 172.441C137.621 172.198 137.965 172.063 138.322 172.063C138.679 172.063 139.023 172.198 139.284 172.441L141.285 174.438C141.449 174.596 141.57 174.795 141.636 175.013C141.701 175.232 141.71 175.464 141.66 175.687C141.61 175.91 141.503 176.116 141.351 176.286C141.198 176.455 141.004 176.583 140.788 176.656C140.47 176.758 140.204 176.978 140.045 177.271C139.886 177.565 139.845 177.908 139.932 178.231Z" fill="#5E4D9A"/>
<path d="M15.2805 63.0414V61.4663" stroke="#5E4D9A" stroke-miterlimit="10"/>
<path d="M15.2805 57.8877V47.4102" stroke="#5E4D9A" stroke-miterlimit="10" stroke-dasharray="4.06 5.68"/>
<path d="M15.2805 45.6209V44.0458H16.8532" stroke="#5E4D9A" stroke-miterlimit="10"/>
<path d="M21.2817 44.0458H26.6667" stroke="#5E4D9A" stroke-miterlimit="10" stroke-dasharray="5.03 7.04"/>
<path d="M28.8811 44.0458H30.4538" stroke="#5E4D9A" stroke-miterlimit="10"/>
<path d="M198.374 111.926V217.287H173.588" stroke="#5E4D9A" stroke-miterlimit="10" stroke-dasharray="5 7"/>
<path d="M198.336 149.155C195.637 151.889 191.322 154.132 186.704 155.083C186.704 155.373 186.704 156.973 186.66 164.42C186.616 174.337 196.606 179.182 198.16 179.926C199.663 179.296 209.779 174.438 209.829 164.521C209.867 157.087 209.873 155.474 209.873 155.184C205.268 154.189 201.016 151.914 198.336 149.155Z" fill="#CBC6E2"/>
<path d="M198.311 150.944C195.301 153.417 191.759 155.156 187.963 156.022L187.925 164.427C187.925 168.27 189.523 171.748 192.731 174.766C194.356 176.281 196.191 177.554 198.179 178.546L198.336 178.47V150.944H198.311Z" fill="#5E4D9A"/>
<path d="M198.336 150.944V178.426C200.273 177.466 202.066 176.241 203.664 174.784C206.898 171.798 208.552 168.333 208.565 164.49L208.609 156.085C204.833 155.191 201.317 153.431 198.336 150.944Z" fill="#5E4D9A"/>
<path d="M193.649 163.078V169.587C193.649 170.311 203.016 170.311 203.016 169.587V163.078H193.649ZM198.808 166.531V168.377C198.794 168.494 198.739 168.601 198.651 168.68C198.563 168.758 198.45 168.801 198.333 168.801C198.216 168.801 198.102 168.758 198.015 168.68C197.927 168.601 197.871 168.494 197.858 168.377V166.531C197.66 166.45 197.49 166.312 197.369 166.135C197.249 165.958 197.182 165.75 197.179 165.536C197.179 165.228 197.301 164.933 197.518 164.716C197.735 164.498 198.029 164.376 198.336 164.376C198.643 164.376 198.937 164.498 199.155 164.716C199.372 164.933 199.494 165.228 199.494 165.536C199.489 165.751 199.422 165.96 199.3 166.137C199.178 166.314 199.007 166.451 198.808 166.531Z" fill="white"/>
<path d="M202.199 162.612H201.28V162.171C201.245 161.42 200.923 160.711 200.38 160.192C199.837 159.673 199.115 159.383 198.364 159.383C197.614 159.383 196.892 159.673 196.349 160.192C195.806 160.711 195.484 161.42 195.449 162.171V162.612H194.499V162.171C194.567 161.191 195.004 160.273 195.722 159.603C196.439 158.933 197.383 158.561 198.364 158.561C199.345 158.561 200.29 158.933 201.007 159.603C201.725 160.273 202.162 161.191 202.23 162.171L202.199 162.612Z" fill="white"/>
<mask id="mask0" style="mask-type:alpha" maskUnits="userSpaceOnUse" x="6" y="83" width="88" height="183">
<rect x="6.11475" y="83.3789" width="87.744" height="181.687" fill="#C4C4C4"/>
</mask>
<g mask="url(#mask0)">
<path d="M44.9793 162.845L44.734 182.925C44.6899 186.339 45.3253 191.367 50.7165 191.184C55.3843 190.68 56.6236 186.251 56.6613 183.063C56.6613 181.551 56.6613 180.291 56.7053 180.14C56.7053 180.14 61.8197 179.718 62.2475 174.665C62.4551 172.22 62.4803 167.155 62.4425 162.568C62.4219 160.195 61.5104 157.916 59.8892 156.185C58.2679 154.454 56.0556 153.397 53.692 153.225L53.2014 153.187C47.9234 153.111 44.9101 157.553 44.9793 162.845Z" fill="#CF8B6F"/>
<path d="M56.7053 180.14C54.3835 179.954 52.1625 179.11 50.3013 177.708C50.3013 177.708 51.6412 181.488 56.7116 181.431L56.7053 180.14Z" fill="#7B4B45"/>
<path d="M45.1176 166.619C45.0358 166.575 41.7205 165.359 41.5821 168.805C41.4437 172.252 44.9414 171.697 44.954 171.603C44.9666 171.508 45.1176 166.619 45.1176 166.619Z" fill="#CF8B6F"/>
<path d="M43.9537 170.242C43.9537 170.242 43.8908 170.286 43.7839 170.324C43.7121 170.354 43.6351 170.369 43.5574 170.369C43.4797 170.369 43.4028 170.354 43.331 170.324C43.1155 170.171 42.944 169.965 42.8336 169.725C42.7232 169.485 42.6777 169.22 42.7019 168.957C42.708 168.657 42.7788 168.363 42.9095 168.094C42.9459 167.987 43.0081 167.891 43.0903 167.814C43.1726 167.737 43.2725 167.682 43.3813 167.652C43.4505 167.636 43.5231 167.645 43.5863 167.678C43.6496 167.71 43.6995 167.763 43.7273 167.829C43.7713 167.93 43.7273 167.999 43.765 168.005C43.8028 168.012 43.8405 167.949 43.8216 167.804C43.8045 167.719 43.7604 167.641 43.6958 167.583C43.6496 167.545 43.5964 167.517 43.5392 167.499C43.482 167.482 43.4219 167.476 43.3624 167.482C43.223 167.507 43.0922 167.567 42.9821 167.656C42.8721 167.746 42.7865 167.861 42.7333 167.993C42.573 168.287 42.4866 168.615 42.4817 168.95C42.4524 169.258 42.5144 169.567 42.6598 169.839C42.8053 170.112 43.0278 170.335 43.2995 170.481C43.3909 170.513 43.4884 170.524 43.5844 170.512C43.6804 170.5 43.7724 170.465 43.8531 170.412C43.9412 170.33 43.96 170.248 43.9537 170.242Z" fill="#7B4B45"/>
<path d="M69.1736 158.032C69.1097 157.83 68.9728 157.659 68.7899 157.553C68.3953 157.377 67.962 157.305 67.5317 157.345C66.1914 157.311 64.886 156.91 63.7572 156.186C63.2277 155.424 62.6364 154.708 61.9895 154.044C60.4608 152.462 59.2027 151.391 57.9005 150.862C55.887 150.129 53.7123 149.959 51.6097 150.371C49.8546 150.831 48.2756 152.261 48.0302 154.063C47.505 153.686 46.8894 153.455 46.2463 153.395C45.6032 153.334 44.9554 153.445 44.369 153.716C43.0353 154.195 42.2742 155.606 41.8527 156.973C41.4312 158.341 41.2865 159.796 40.5945 161.018C40.4435 161.277 40.2611 161.579 40.3932 161.85C40.454 161.948 40.5434 162.024 40.6492 162.069C40.755 162.114 40.8721 162.126 40.9845 162.102C41.2111 162.054 41.4252 161.959 41.6136 161.825C41.4626 162.177 41.3117 162.537 41.167 162.896C41.6526 162.976 42.1503 162.942 42.6201 162.795C42.8642 164.012 43.1814 165.213 43.5701 166.392C44.0669 166.335 44.5677 166.46 44.9792 166.745C45.451 167.167 45.6586 167.961 46.4387 167.659C46.835 167.501 47.1936 166.67 47.3257 166.266C48.2054 163.577 48.4972 160.73 48.1812 157.918C48.7351 157.326 49.3971 156.845 50.1314 156.501L50.0747 156.558C51.4839 156.066 53.0817 155.581 54.4217 156.249C55.4597 156.759 56.0699 157.843 56.8436 158.7C57.5426 159.491 58.396 160.131 59.3514 160.58C60.3068 161.028 61.3437 161.276 62.3984 161.308C62.4739 162.732 62.4487 164.748 62.5242 166.172L63.7195 163.891C63.8141 163.728 63.9002 163.56 63.9774 163.387V163.337C64.0977 163.061 64.2321 162.792 64.38 162.53C64.5449 162.665 64.7524 162.735 64.9648 162.729C65.1772 162.723 65.3804 162.641 65.5373 162.497C65.6943 162.354 65.7946 162.158 65.82 161.947C65.8455 161.736 65.7943 161.523 65.6759 161.346C65.5563 161.18 65.4121 161.033 65.2481 160.911C65.4218 161.081 65.6369 161.202 65.872 161.263C66.1071 161.324 66.354 161.322 66.5881 161.258C66.8196 161.188 67.0214 161.043 67.1615 160.845C67.3016 160.648 67.3721 160.41 67.3619 160.168C67.3438 160.004 67.2832 159.848 67.186 159.715C67.0889 159.583 66.9586 159.478 66.8083 159.412C67.4343 159.465 68.0618 159.327 68.6074 159.015C68.9157 158.813 69.268 158.504 69.1736 158.032Z" fill="#1E2E34"/>
<path d="M49.5716 154.642C49.3907 154.783 49.2223 154.939 49.0683 155.108C48.6674 155.59 48.3986 156.167 48.2883 156.784C48.2069 157.199 48.1648 157.621 48.1624 158.044C48.1624 158.511 48.1939 159.008 48.2316 159.538C48.2763 160.089 48.2889 160.642 48.2694 161.195C48.2529 161.489 48.2151 161.782 48.1561 162.07C48.1085 162.38 47.9805 162.671 47.785 162.915C47.6984 163.014 47.5869 163.089 47.462 163.131C47.337 163.173 47.2032 163.181 47.0741 163.154C46.8308 163.106 46.6098 162.98 46.4451 162.795C46.176 162.425 46.0089 161.99 45.9607 161.535H46.0676C45.9084 161.915 45.6966 162.272 45.4385 162.593C45.1927 162.892 44.841 163.084 44.4572 163.129C44.2783 163.148 44.0977 163.117 43.935 163.041C43.7922 162.963 43.6736 162.847 43.5926 162.705C43.5115 162.564 43.4711 162.403 43.4758 162.24C43.4792 162.094 43.5376 161.955 43.6394 161.85L43.6897 161.894C43.3905 162.24 43.0218 162.519 42.6077 162.713C42.4969 162.761 42.3835 162.804 42.268 162.839L42.1484 162.87L42.2617 162.82C42.3372 162.789 42.4504 162.744 42.5888 162.675C42.9897 162.475 43.3452 162.194 43.6331 161.85L43.6897 161.894C43.6034 162 43.5537 162.13 43.548 162.267C43.5423 162.403 43.581 162.538 43.6582 162.65C43.7295 162.782 43.8392 162.89 43.9728 162.959C44.1207 163.025 44.2834 163.051 44.4446 163.034C44.8037 162.991 45.1314 162.807 45.3567 162.524C45.6026 162.21 45.8018 161.862 45.9481 161.491L46.0236 161.327V161.503C46.0648 161.957 46.2254 162.392 46.4891 162.763C46.6387 162.932 46.8402 163.045 47.0615 163.085C47.1748 163.113 47.2935 163.109 47.4046 163.073C47.5157 163.038 47.6147 162.972 47.6906 162.883C47.8684 162.652 47.9833 162.378 48.024 162.089C48.0799 161.806 48.1177 161.52 48.1373 161.232C48.1691 160.685 48.1691 160.136 48.1373 159.588C48.1058 159.059 48.0681 158.561 48.0744 158.089C48.081 157.65 48.1294 157.213 48.2191 156.784C48.3348 156.151 48.6196 155.561 49.0432 155.077C49.1946 154.904 49.373 154.757 49.5716 154.642Z" fill="#3E5963"/>
<path d="M65.1917 159.563L65.1539 159.601L65.0281 159.689C64.9602 159.74 64.8887 159.786 64.8142 159.827C64.7151 159.889 64.6121 159.943 64.506 159.991C63.8273 160.296 63.0839 160.428 62.342 160.376C61.2396 160.307 60.1812 159.917 59.2972 159.254C58.2296 158.434 57.3393 157.405 56.6803 156.23C56.3091 155.6 56.0134 154.97 55.68 154.409C55.381 153.845 55.0017 153.327 54.554 152.872C54.1514 152.459 53.6517 152.153 53.1008 151.984C52.6167 151.847 52.1024 151.865 51.6287 152.034C51.2378 152.167 50.8796 152.381 50.5782 152.664C50.349 152.88 50.1558 153.131 50.0057 153.407C49.8856 153.646 49.7988 153.901 49.7478 154.163C49.7478 154.163 49.7478 154.163 49.7478 154.113V153.956C49.7892 153.76 49.8525 153.57 49.9365 153.388C50.0829 153.104 50.2741 152.844 50.5027 152.62C50.8101 152.324 51.1768 152.096 51.5784 151.952C51.8116 151.87 52.0551 151.821 52.3019 151.807C52.5708 151.791 52.8406 151.819 53.1008 151.889C53.6683 152.061 54.1847 152.37 54.6043 152.79C55.0608 153.253 55.4485 153.779 55.7555 154.352C56.0889 154.938 56.3846 155.562 56.7557 156.167C57.4076 157.329 58.2845 158.348 59.335 159.166C60.2023 159.821 61.2396 160.213 62.3231 160.294C63.0536 160.354 63.7877 160.235 64.462 159.947C64.7126 159.834 64.9563 159.705 65.1917 159.563Z" fill="#3E5963"/>
<path d="M65.6508 157.339C65.6508 157.339 65.5942 157.395 65.4684 157.465C65.2988 157.573 65.1198 157.666 64.9337 157.742C64.6584 157.857 64.3744 157.95 64.0844 158.019C63.7292 158.102 63.3669 158.151 63.0024 158.164C62.6359 158.175 62.2692 158.15 61.9078 158.089C61.6121 158.039 61.3216 157.964 61.0397 157.862C60.8506 157.801 60.6674 157.723 60.4924 157.629L60.2974 157.515C60.2974 157.515 60.5867 157.635 61.0648 157.786C61.3468 157.873 61.6349 157.938 61.9267 157.981C62.2808 158.032 62.6385 158.053 62.9961 158.044C63.3537 158.032 63.7095 157.988 64.0592 157.912C64.347 157.853 64.6291 157.769 64.9022 157.66C65.3992 157.484 65.6382 157.32 65.6508 157.339Z" fill="#3E5963"/>
<path d="M44.8346 181.261L38.7891 183.781C35.0284 185.326 31.8009 187.939 29.5039 191.298C28.9629 192.098 27.2455 198.272 27.1197 198.776C26.6227 200.805 25.8049 204.295 25.8049 204.295H73.8477C73.8477 204.295 72.426 190.548 69.0038 187.914C66.7832 186.188 56.6109 181.488 56.6109 181.488C56.2458 182.272 55.663 182.933 54.9323 183.393C54.2015 183.854 53.3537 184.094 52.4905 184.084C49.6729 184.153 46.9351 183.143 44.8346 181.261Z" fill="#C5C2E1"/>
<path d="M38.9778 112.606C38.6764 112.455 38.4093 112.243 38.1929 111.984C37.9765 111.725 37.8154 111.424 37.7197 111.1C38.2416 110.98 38.7094 110.691 39.0506 110.278C39.3918 109.864 39.5873 109.349 39.6069 108.813C39.554 108.125 39.3926 107.448 39.1288 106.81C39.001 106.489 38.938 106.147 38.9434 105.802C38.9488 105.457 39.0225 105.116 39.1602 104.8C39.7327 103.792 40.9846 103.49 41.6766 102.589C42.1749 101.905 42.5027 101.113 42.6328 100.276C42.8899 99.2991 43.4704 98.438 44.2793 97.8338C45.0883 97.2295 46.078 96.9179 47.0866 96.9499C47.9799 97.0066 48.8544 97.3405 49.7414 97.2397C50.9555 97.1011 51.9431 96.1812 53.1258 95.8473C53.7031 95.6888 54.3101 95.6725 54.895 95.7997C55.48 95.927 56.0255 96.1941 56.4851 96.5782C57.1142 97.1263 57.5797 97.8949 58.2717 98.399C59.0757 98.8614 59.9364 99.2172 60.832 99.4574C61.7002 99.785 62.5809 100.39 62.7193 101.303C62.8577 102.217 62.1846 103.351 62.5809 104.271C62.7696 104.693 63.493 105.43 63.644 105.871C64.3297 107.9 62.7822 109.254 63.0149 110.061C64.3738 114.282 62.7193 116.109 61.3227 116.267L44.0104 115.895C43.39 116.153 42.7235 116.281 42.0518 116.271C41.3802 116.262 40.7176 116.114 40.1048 115.839C39.492 115.563 38.942 115.165 38.4886 114.669C38.0351 114.172 37.6878 113.588 37.468 112.953C37.9938 112.981 38.517 112.861 38.9778 112.606Z" fill="#E1E1E1"/>
<path d="M43.4444 112.896C43.35 112.858 39.802 111.749 39.8523 115.416C39.9027 119.083 43.5513 118.258 43.5576 118.157C43.5639 118.056 43.4444 112.896 43.4444 112.896Z" fill="#FFBE9D"/>
<path d="M42.4253 116.771C42.4253 116.771 42.3624 116.815 42.2554 116.865C42.1041 116.927 41.9349 116.927 41.7836 116.865C41.5459 116.72 41.3513 116.514 41.2197 116.268C41.0881 116.022 41.0244 115.745 41.035 115.467C41.0212 115.154 41.077 114.842 41.1986 114.553C41.2305 114.438 41.2902 114.332 41.3725 114.245C41.4548 114.159 41.5571 114.093 41.6704 114.055C41.7432 114.036 41.8206 114.042 41.8894 114.073C41.9582 114.104 42.0141 114.158 42.0478 114.225C42.0981 114.326 42.0478 114.402 42.0919 114.408C42.1359 114.414 42.1736 114.345 42.1422 114.194C42.1187 114.103 42.0655 114.024 41.9912 113.967C41.9414 113.93 41.8845 113.902 41.824 113.887C41.7635 113.872 41.7005 113.869 41.6389 113.879C41.495 113.915 41.3622 113.986 41.2524 114.086C41.1427 114.186 41.0593 114.312 41.0098 114.452C40.8603 114.771 40.7911 115.121 40.8085 115.473C40.794 115.798 40.8759 116.119 41.0439 116.397C41.2118 116.675 41.4583 116.898 41.7522 117.035C41.8512 117.061 41.9547 117.066 42.0556 117.048C42.1565 117.031 42.2525 116.992 42.3372 116.935C42.419 116.859 42.4379 116.777 42.4253 116.771Z" fill="#EB996E"/>
<path d="M61.9014 120.343C61.9769 117.773 61.7001 112.455 61.3981 107.642C61.2433 105.148 60.1555 102.804 58.3517 101.078C56.5479 99.3523 54.1607 98.3708 51.6663 98.3297H51.1504C45.602 98.5565 42.6956 103.401 43.0794 108.952L43.5575 127.274L53.0565 133.171L56.4032 130.55V126.429C56.4032 126.429 61.7378 125.68 61.9014 120.343Z" fill="#FFBE9D"/>
<path d="M56.4033 126.41C53.9397 126.416 51.5304 125.685 49.4834 124.312C49.4834 124.312 51.0184 128.244 56.3404 127.853L56.4033 126.41Z" fill="#EB996E"/>
<path d="M55.7867 97.6366C53.78 96.7672 51.7103 97.1137 49.54 97.3531C47.8704 97.5024 46.2662 98.0748 44.8785 99.0164C43.8007 99.7991 42.9142 100.816 42.2855 101.992C41.6568 103.167 41.3023 104.47 41.2487 105.802C41.1082 108.408 41.3735 111.02 42.0351 113.545C41.8185 114.189 41.7815 114.879 41.9281 115.542C42.0169 115.868 42.2285 116.147 42.5184 116.319C42.8082 116.492 43.1536 116.546 43.4819 116.468C44.218 116.179 44.2809 115.177 44.2431 114.389C44.1383 111.724 44.2223 109.054 44.4948 106.4C44.6835 104.416 45.8976 101.99 47.4829 101.14C51.0372 99.1613 53.6667 101.14 54.862 101.618C56.8247 100.05 58.9258 101.064 60.0456 102.532C59.6933 100.371 57.7872 98.5124 55.7867 97.6366Z" fill="#E1E1E1"/>
<path d="M40.0283 103.968C40.0283 104.094 40.2548 104.246 40.7266 104.321C41.3916 104.389 42.0633 104.312 42.6956 104.094C43.6008 103.794 44.4602 103.37 45.2497 102.834C46.1241 102.267 46.9985 101.612 47.9233 101.083C48.7282 100.584 49.6407 100.286 50.5843 100.213C51.3603 100.183 52.134 100.316 52.8553 100.604C54.1134 101.102 54.7865 101.807 55.0193 101.644C55.0696 101.606 55.0885 101.524 55.0633 101.392C55.029 101.211 54.963 101.039 54.8683 100.881C54.5233 100.299 54.0472 99.8046 53.478 99.4385C52.6213 98.867 51.6252 98.5403 50.5969 98.4935C49.9771 98.4663 49.3569 98.5387 48.7599 98.7077C48.1456 98.8822 47.5558 99.1342 47.0048 99.4574C46.0365 100.044 45.1153 100.706 44.2494 101.436C43.5969 101.972 42.9051 102.459 42.1798 102.891C41.693 103.172 41.1838 103.412 40.6574 103.609C40.2737 103.735 40.0346 103.836 40.0283 103.968Z" fill="#F5F5F5"/>
<path d="M39.8899 107.182C40.1261 107.285 40.3808 107.338 40.6385 107.339C41.889 107.432 43.1255 107.026 44.0796 106.211C44.2852 106.056 44.4601 105.864 44.5954 105.644C44.3777 105.789 44.1677 105.944 43.9663 106.111C43.4855 106.469 42.9502 106.748 42.3811 106.936C41.8094 107.117 41.2128 107.206 40.6133 107.201C40.3727 107.181 40.1312 107.175 39.8899 107.182Z" fill="white"/>
<path d="M38.1599 111.126C38.2615 111.118 38.3613 111.095 38.4556 111.056C38.723 110.975 38.9855 110.878 39.2419 110.767C40.9504 110.063 42.4806 108.987 43.721 107.616C43.9079 107.416 44.0843 107.205 44.2494 106.986C44.3626 106.829 44.4255 106.734 44.413 106.728C44.4004 106.722 44.111 107.043 43.6203 107.547C42.9857 108.201 42.2929 108.796 41.5506 109.324C40.804 109.825 40.0146 110.26 39.1916 110.622C38.8387 110.771 38.4943 110.939 38.1599 111.126Z" fill="white"/>
<path d="M51.8613 96.8428C52.1392 96.9886 52.4248 97.119 52.7169 97.2334C53.3975 97.5343 54.0065 97.9767 54.5035 98.5313C54.9809 99.0933 55.2498 99.8033 55.2646 100.541C55.2481 100.85 55.1974 101.157 55.1137 101.455C55.1137 101.455 55.1766 101.385 55.2458 101.234C55.3333 101.013 55.3843 100.779 55.3967 100.541C55.4248 99.7544 55.1577 98.9857 54.6481 98.3864C54.1338 97.8065 53.486 97.361 52.7609 97.0885C52.4749 96.9623 52.1717 96.8795 51.8613 96.8428Z" fill="white"/>
<path d="M53.9875 95.5953C53.9875 95.5953 54.2895 95.8095 54.6921 96.2253C55.2192 96.769 55.5852 97.4485 55.7496 98.1882C55.914 98.9279 55.8702 99.6988 55.6232 100.415C55.4407 100.969 55.2268 101.272 55.2583 101.291C55.324 101.234 55.3794 101.165 55.4218 101.089C55.5519 100.891 55.6615 100.68 55.749 100.459C56.0394 99.7241 56.1029 98.9186 55.9313 98.147C55.7597 97.3753 55.3609 96.673 54.7865 96.1308C54.6135 95.9665 54.4237 95.8208 54.2203 95.6961C54.0756 95.6205 53.9938 95.5827 53.9875 95.5953Z" fill="white"/>
<path d="M42.0225 114.402C42.4876 114.376 42.9376 114.227 43.3274 113.972C43.7172 113.717 44.033 113.363 44.2431 112.947C43.9197 113.255 43.5794 113.545 43.224 113.816C42.8346 114.033 42.4335 114.229 42.0225 114.402Z" fill="white"/>
<path d="M41.7834 115.145C42.2934 115.207 42.8094 115.096 43.2492 114.83C43.7215 114.614 44.104 114.24 44.3312 113.772C43.9697 114.098 43.5779 114.389 43.1611 114.641C42.7158 114.845 42.2552 115.014 41.7834 115.145Z" fill="white"/>
<path d="M60.4923 103.401C60.6799 103.39 60.8606 103.327 61.0145 103.219C61.4059 102.994 61.7296 102.667 61.9518 102.274C62.1755 101.891 62.2969 101.457 62.3041 101.014C62.3232 100.827 62.2882 100.639 62.2034 100.472C62.2034 100.472 62.2034 100.686 62.2034 101.007C62.1657 101.429 62.0369 101.837 61.826 102.204C61.6113 102.57 61.3219 102.885 60.9767 103.131C60.6748 103.294 60.486 103.37 60.4923 103.401Z" fill="white"/>
<path d="M59.9071 102.255C60.29 101.944 60.5993 101.553 60.813 101.108C61.0835 100.697 61.2636 100.233 61.3414 99.7473C61.2911 99.7473 61.0458 100.327 60.6494 101.007C60.2531 101.688 59.8694 102.223 59.9071 102.255Z" fill="white"/>
<path d="M11.5059 143.308L11.4241 141.493C11.4209 141.368 11.3953 141.244 11.3486 141.128L10.3987 138.854C10.3987 138.854 14.255 134.443 14.4626 133.908C14.6702 133.372 14.5381 132.786 13.5819 133.19C12.6257 133.593 9.51802 136.453 9.51802 136.453L8.32277 134.33C8.32277 134.33 11.1159 131.344 11.3927 131.029C11.6695 130.713 11.5122 129.031 10.4742 129.592C9.18711 130.489 7.96375 131.474 6.81298 132.541L6.09583 131.822L8.15292 128.66C8.15292 128.66 8.87007 127.544 7.99565 127.223C7.12123 126.902 6.73749 127.544 6.10841 128.263C5.52267 128.986 4.98069 129.743 4.48539 130.531L3.85631 130.487L2.9064 130.254L2.98189 129.145C2.98189 129.145 4.24005 127.299 4.47281 126.889C4.70557 126.48 5.18996 125.755 4.47281 125.434C3.75566 125.112 3.29014 125.056 2.9064 125.705C2.68756 126.024 2.42254 126.308 2.12005 126.549C1.74397 126.201 1.32034 125.908 0.861893 125.68C0.295721 125.497 -0.396266 126.152 0.28314 127.973C0.390083 128.275 1.03803 131.621 1.03803 131.621L1.2016 133.379L1.96278 134.947L5.39126 140.945V143.308" fill="#FFBE9D"/>
<path d="M5.41006 136.031C5.50876 135.732 5.58653 135.427 5.64282 135.117L5.91332 134.135C5.96365 133.952 6.02026 133.75 6.0643 133.542C6.06726 133.509 6.06726 133.475 6.0643 133.442C6.06783 133.416 6.06783 133.391 6.0643 133.366C6.05083 133.34 6.02994 133.318 6.00422 133.303C5.9785 133.289 5.94909 133.282 5.91961 133.284C5.87773 133.284 5.8374 133.3 5.80638 133.328V133.36V133.404V133.454C5.80638 133.454 5.80638 133.454 5.80638 133.555C5.8135 133.583 5.82683 133.608 5.84536 133.63C5.86388 133.652 5.88713 133.669 5.91332 133.681C5.93486 133.692 5.95853 133.697 5.98252 133.697C6.00651 133.697 6.03018 133.692 6.05172 133.681L6.08946 133.643V133.612L6.12721 133.549C6.1758 133.461 6.23046 133.377 6.29077 133.297C6.79498 132.744 7.33959 132.231 7.92008 131.759C8.36044 131.381 8.62465 131.129 8.5932 131.092C8.29581 131.207 8.0195 131.371 7.7754 131.577C7.13014 132.001 6.54414 132.51 6.03285 133.089C5.95653 133.181 5.88913 133.28 5.83154 133.385L5.7938 133.46L5.88187 133.517C5.91961 133.517 5.91961 133.568 5.94477 133.555C6.15237 133.555 6.07059 133.555 6.08946 133.555L6.00139 133.511C5.96994 133.511 5.94477 133.467 5.93848 133.479C5.93219 133.492 5.89445 133.479 5.82525 133.479H5.78121V133.536L5.64911 134.116C5.56733 134.494 5.49184 134.834 5.4478 135.13C5.35779 135.422 5.34478 135.732 5.41006 136.031Z" fill="#EB996E"/>
<path d="M9.10913 140.353C9.71635 139.905 10.2547 139.37 10.707 138.765C11.2432 138.235 11.6951 137.625 12.0469 136.957C11.4397 137.405 10.9014 137.94 10.4491 138.545C9.91437 139.077 9.46266 139.686 9.10913 140.353Z" fill="#EB996E"/>
<path d="M7.69995 138.343C8.29672 137.984 8.83549 137.535 9.29781 137.014C9.83151 136.566 10.294 136.039 10.6692 135.451C10.064 135.802 9.52175 136.251 9.06505 136.781C8.52752 137.223 8.06632 137.751 7.69995 138.343Z" fill="#EB996E"/>
<path d="M11.6191 141.645C11.6011 141.229 11.4916 140.822 11.2983 140.454C11.1221 140.12 10.9397 139.855 10.8076 139.622C10.5308 139.169 10.5056 138.835 10.4553 138.835C10.405 138.835 10.3547 139.206 10.5937 139.729C10.9611 140.314 11.1972 140.972 11.2857 141.657C11.3563 142.239 11.2108 142.827 10.8768 143.308H11.2417C11.6191 142.892 11.6506 142.533 11.6191 141.645Z" fill="#EB996E"/>
<path d="M8.03978 137.033C8.13415 137.033 8.00833 136.403 8.0964 135.666C8.18447 134.928 8.41723 134.361 8.33545 134.311C8.25367 134.261 7.84477 134.809 7.76299 135.628C7.68121 136.447 7.958 137.083 8.03978 137.033Z" fill="#EB996E"/>
<path d="M5.48563 134.683C5.62495 134.216 5.73421 133.74 5.81275 133.259C5.99108 132.804 6.14233 132.339 6.26568 131.866C6.19649 131.81 5.71839 132.339 5.49192 133.171C5.29916 133.656 5.29691 134.196 5.48563 134.683Z" fill="#EB996E"/>
<path d="M19.4072 143.308C19.4072 143.308 25.0186 134.815 26.151 134.204C27.2833 133.593 38.7703 129.554 38.7703 129.554L43.6645 126.177L42.8845 133.145L44.4446 143.308" fill="#6945A5"/>
<path d="M56.4032 127.129L51.7795 131.803L43.5448 126.612L41.1858 131.255L43.0982 143.308L60.8319 143.207L60.9137 135.155L56.4032 127.129Z" fill="#F5F5F5"/>
<path d="M55.8435 143.308C55.3906 141.626 53.4782 137.008 53.4782 137.008L54.6294 135.193C54.5476 132.673 52.3333 132.434 51.1883 132.591C50.0434 132.749 49.7792 135.193 49.7792 135.193L51.2638 137.335L49.4709 143.264L55.8435 143.308Z" fill="#FF7E66"/>
<path d="M77.1314 143.308L75.1183 137.524C74.9639 136.98 74.6817 136.482 74.2953 136.07C73.909 135.657 73.4297 135.344 72.8977 135.155L61.4484 131.041L56.3088 126.921L59.0705 133.303V143.384L77.1314 143.308Z" fill="#6945A5"/>
<path d="M29.768 143.207C29.6651 142.833 29.5873 142.452 29.5353 142.067C29.3646 141.152 29.1206 140.252 28.8055 139.376C28.491 138.505 28.1038 137.662 27.648 136.856C27.4397 136.524 27.2527 136.179 27.0881 135.823C27.3667 136.098 27.604 136.412 27.7927 136.756C28.3002 137.549 28.7219 138.393 29.0509 139.276C29.3682 140.164 29.5937 141.082 29.724 142.016C29.789 142.41 29.8038 142.81 29.768 143.207Z" fill="#4D367F"/>
<path d="M70.7778 142.753C70.8023 142.399 70.8655 142.048 70.9666 141.708C71.1597 140.872 71.397 140.048 71.6774 139.238C71.9525 138.424 72.3021 137.637 72.7217 136.888C72.8801 136.564 73.0929 136.27 73.3507 136.018C73.3507 136.018 73.162 136.384 72.8789 136.963C72.5045 137.724 72.1808 138.51 71.9102 139.313C71.2496 141.21 70.8533 142.785 70.7778 142.753Z" fill="#4D367F"/>
<path d="M63.7823 143.106C63.8298 142.86 63.895 142.618 63.9773 142.382C64.1409 141.884 64.3485 141.241 64.6064 140.492V140.574L63.7634 139.534L63.2916 138.954L63.04 138.658L62.9079 138.513L62.8009 138.406L62.7003 138.305L62.7569 138.23C63.2412 137.713 63.8404 137.318 64.5057 137.077C64.7275 136.986 64.9544 136.908 65.1852 136.844L65.116 137.014C64.1283 135.319 63.1092 133.895 62.4424 132.824C62.109 132.295 61.851 131.86 61.6812 131.564C61.5827 131.412 61.5025 131.249 61.4421 131.079C61.5592 131.217 61.6644 131.364 61.7567 131.52L62.5745 132.78C63.2728 133.826 64.317 135.231 65.3173 136.932L65.3927 137.058L65.2481 137.102C65.0342 137.165 64.814 137.241 64.619 137.329C63.9891 137.557 63.4206 137.928 62.9582 138.413L62.9142 138.236C62.9828 138.281 63.0443 138.337 63.0966 138.4L63.235 138.551C63.3168 138.658 63.3986 138.753 63.4866 138.854L63.9522 139.44L64.77 140.504V140.542V140.586C64.4932 141.349 64.2604 141.985 64.078 142.476C63.9961 142.694 63.8973 142.904 63.7823 143.106Z" fill="#4D367F"/>
<path d="M37.273 143.308C37.2077 143.137 37.1531 142.963 37.1094 142.785C37.0025 142.401 36.8641 141.916 36.6943 141.336C36.4814 140.604 36.3155 139.859 36.1973 139.106C36.1507 138.877 36.1507 138.641 36.1973 138.413C36.2612 138.18 36.3564 137.958 36.4804 137.751C36.611 137.519 36.7919 137.32 37.0096 137.167C37.2273 137.014 37.4764 136.913 37.7385 136.869V137.083L36.5936 136.957L35.7506 136.856C35.7357 136.855 35.7213 136.85 35.7081 136.843C35.695 136.836 35.6834 136.826 35.674 136.814C35.6647 136.803 35.6577 136.789 35.6536 136.775C35.6495 136.76 35.6482 136.745 35.65 136.73C35.6466 136.72 35.6466 136.709 35.65 136.699C36.4929 134.809 37.2541 133.082 37.8077 131.866L38.4745 130.43C38.5484 130.254 38.639 130.085 38.745 129.926C38.6975 130.112 38.6343 130.293 38.5563 130.468C38.3991 130.852 38.1915 131.337 37.9272 131.929C37.4051 133.158 36.6691 134.872 35.8324 136.793L35.7381 136.63L36.581 136.724L37.7259 136.856C37.7408 136.858 37.7553 136.862 37.7684 136.87C37.7816 136.877 37.7932 136.887 37.8026 136.898C37.8119 136.91 37.8189 136.923 37.823 136.938C37.8271 136.952 37.8283 136.967 37.8266 136.982C37.8228 137.008 37.811 137.031 37.7929 137.049C37.7748 137.068 37.7513 137.079 37.7259 137.083C37.5017 137.125 37.2893 137.216 37.1036 137.349C36.9178 137.482 36.7631 137.653 36.6502 137.852C36.5316 138.048 36.4426 138.26 36.386 138.482C36.3368 138.689 36.3368 138.905 36.386 139.112C36.4877 139.857 36.6348 140.596 36.8264 141.323C37.0284 141.972 37.1778 142.635 37.273 143.308Z" fill="#4D367F"/>
<path d="M93.8587 143.169H6.11475V143.465H93.8587V143.169Z" fill="#E1E1E1"/>
<path d="M93.8587 203.968H6.11475V204.264H93.8587V203.968Z" fill="#E1E1E1"/>
<path d="M14.7707 210.564C14.7707 210.867 14.681 211.163 14.5131 211.415C14.3451 211.667 14.1064 211.863 13.827 211.979C13.5477 212.095 13.2403 212.125 12.9438 212.066C12.6473 212.007 12.3749 211.861 12.1611 211.647C11.9473 211.433 11.8017 211.16 11.7428 210.863C11.6838 210.566 11.714 210.258 11.8297 209.978C11.9454 209.699 12.1414 209.459 12.3928 209.291C12.6441 209.123 12.9397 209.033 13.242 209.033C13.443 209.032 13.6422 209.071 13.828 209.148C14.0139 209.225 14.1827 209.337 14.3248 209.48C14.4669 209.622 14.5795 209.791 14.656 209.977C14.7326 210.163 14.7715 210.363 14.7707 210.564Z" fill="#45B549"/>
<path d="M31.624 210.709H17.5389C17.4969 210.715 17.454 210.712 17.4132 210.7C17.3725 210.689 17.3347 210.668 17.3026 210.64C17.2705 210.612 17.2447 210.578 17.227 210.539C17.2093 210.501 17.2002 210.459 17.2002 210.416C17.2002 210.374 17.2093 210.332 17.227 210.293C17.2447 210.254 17.2705 210.22 17.3026 210.192C17.3347 210.164 17.3725 210.144 17.4132 210.132C17.454 210.12 17.4969 210.117 17.5389 210.123H31.624C31.6942 210.133 31.7583 210.169 31.8047 210.223C31.8511 210.276 31.8766 210.345 31.8766 210.416C31.8766 210.487 31.8511 210.556 31.8047 210.61C31.7583 210.663 31.6942 210.699 31.624 210.709Z" fill="#BBBBBB"/>
<path d="M14.7707 150.509C14.7707 150.812 14.681 151.108 14.5131 151.36C14.3451 151.612 14.1064 151.808 13.827 151.924C13.5477 152.04 13.2403 152.07 12.9438 152.011C12.6473 151.952 12.3749 151.806 12.1611 151.592C11.9473 151.378 11.8017 151.105 11.7428 150.808C11.6838 150.511 11.714 150.203 11.8297 149.923C11.9454 149.644 12.1414 149.404 12.3928 149.236C12.6441 149.068 12.9397 148.978 13.242 148.978C13.443 148.977 13.6422 149.016 13.828 149.093C14.0139 149.17 14.1827 149.282 14.3248 149.425C14.4669 149.567 14.5795 149.736 14.656 149.922C14.7326 150.108 14.7715 150.308 14.7707 150.509Z" fill="#45B549"/>
<path d="M31.624 150.654H17.5389C17.4969 150.66 17.454 150.657 17.4132 150.645C17.3725 150.634 17.3347 150.613 17.3026 150.585C17.2705 150.557 17.2447 150.523 17.227 150.484C17.2093 150.446 17.2002 150.404 17.2002 150.361C17.2002 150.319 17.2093 150.277 17.227 150.238C17.2447 150.199 17.2705 150.165 17.3026 150.137C17.3347 150.109 17.3725 150.089 17.4132 150.077C17.454 150.065 17.4969 150.062 17.5389 150.068H31.624C31.6942 150.079 31.7583 150.114 31.8047 150.168C31.8511 150.221 31.8766 150.29 31.8766 150.361C31.8766 150.432 31.8511 150.501 31.8047 150.555C31.7583 150.609 31.6942 150.644 31.624 150.654Z" fill="#BBBBBB"/>
<path d="M14.7707 85.017C14.7707 85.3198 14.681 85.6158 14.5131 85.8676C14.3451 86.1194 14.1064 86.3156 13.827 86.4315C13.5477 86.5473 13.2403 86.5777 12.9438 86.5186C12.6473 86.4595 12.3749 86.3137 12.1611 86.0996C11.9473 85.8855 11.8017 85.6127 11.7428 85.3157C11.6838 85.0187 11.714 84.7109 11.8297 84.4311C11.9454 84.1514 12.1414 83.9123 12.3928 83.744C12.6441 83.5758 12.9397 83.486 13.242 83.486C13.6475 83.486 14.0363 83.6473 14.323 83.9344C14.6096 84.2216 14.7707 84.611 14.7707 85.017Z" fill="#45B549"/>
<path d="M31.6239 85.1619H17.5388C17.4604 85.1619 17.3852 85.1307 17.3298 85.0752C17.2743 85.0196 17.2432 84.9443 17.2432 84.8658C17.2432 84.8272 17.2508 84.789 17.2658 84.7534C17.2807 84.7178 17.3026 84.6856 17.3301 84.6586C17.3577 84.6316 17.3903 84.6104 17.4262 84.5962C17.462 84.582 17.5003 84.5751 17.5388 84.576H31.6239C31.7007 84.576 31.7743 84.6065 31.8285 84.6608C31.8828 84.7152 31.9133 84.7889 31.9133 84.8658C31.9133 84.9432 31.883 85.0176 31.8289 85.073C31.7748 85.1283 31.7012 85.1603 31.6239 85.1619Z" fill="#BBBBBB"/>
<path d="M68.8591 241.562C68.8591 241.638 66.4623 241.801 63.4993 241.934C60.5363 242.066 58.1333 242.11 58.127 242.034C58.1207 241.959 60.5238 241.795 63.4867 241.663C66.4497 241.53 68.8528 241.493 68.8591 241.562Z" fill="white"/>
<path d="M42.6705 222.434C43.136 219.857 43.7588 217.205 45.3441 215.119C46.9294 213.034 49.7476 211.66 52.2199 212.505L55.2772 214.275C54.6458 221.409 53.1978 228.446 50.9618 235.249C50.7922 235.933 50.4671 236.57 50.0118 237.108C49.0179 238.109 47.3949 243.641 45.992 243.477C44.2998 243.282 41.7332 245.663 41.0097 244.107C40.6574 243.364 41.2865 234.109 41.3368 233.29C41.5705 229.648 42.0158 226.024 42.6705 222.434Z" fill="#1E2E34"/>
<path d="M59.8759 217.847L50.4397 214.697C47.3887 214.149 45.0737 217.791 44.6522 220.865C44.1867 224.286 43.7526 228.476 43.9728 231.066C44.4131 236.276 48.3071 237.221 48.3071 237.221C47.9963 238.502 47.8923 239.825 47.9989 241.14C48.2442 244.693 50.5152 245.607 52.4024 245.739C55.3528 246.048 58.4353 245.109 58.775 242.161L61.348 219.788C61.3854 219.339 61.2557 218.893 60.9839 218.535C60.712 218.176 60.3173 217.931 59.8759 217.847Z" fill="#FFBE9D"/>
<path d="M48.3197 237.259C50.8326 237.493 53.3618 237.038 55.6359 235.942C55.6359 235.942 53.3398 239.401 48.2253 238.519L48.3197 237.259Z" fill="#EB996E"/>
<path d="M49.5022 215.989C49.9057 216.634 50.3969 217.219 50.9617 217.728L53.5535 220.292C54.1464 220.91 54.7766 221.491 55.4407 222.031C56.0595 222.485 56.7021 222.906 57.3657 223.291C58.0514 223.707 58.3974 224.778 59.0831 225.181C59.2403 225.276 59.7122 225.219 59.9009 225.339C59.9009 226.491 59.8506 230.165 59.838 231.639C59.838 233.945 58.995 240.081 58.995 240.081H60.9955C62.5304 239.848 64.6945 243.2 65.5123 241.877C66.4244 240.422 65.3173 234.165 65.2732 232.993C65.1348 229.509 64.4491 225.956 64.2541 222.963C64.2346 221.748 64.0375 220.543 63.6691 219.385C62.9811 217.802 61.8819 216.434 60.4859 215.422C58.983 214.137 57.2084 213.211 55.296 212.713C54.3416 212.471 53.3482 212.424 52.3754 212.576C51.4026 212.728 50.4704 213.074 49.6343 213.595C49.3641 213.74 49.1594 213.984 49.0618 214.275C48.785 214.993 49.131 215.321 49.5022 215.989ZM59.9764 225.389C60.0519 225.528 59.9764 225.887 59.9764 225.389V225.389Z" fill="#1E2E34"/>
<path d="M59.6368 226.775C59.6639 226.522 59.7545 226.28 59.9002 226.072C60.0458 225.864 60.2418 225.696 60.4698 225.584C60.6978 225.472 60.9504 225.419 61.2041 225.431C61.4577 225.444 61.7042 225.52 61.9204 225.654C62.4236 225.987 62.7759 226.624 62.6501 227.783C62.2978 230.877 59.272 229.894 59.272 229.799C59.272 229.705 59.4796 228.054 59.6368 226.775Z" fill="#FFBE9D"/>
<path d="M60.3665 228.734C60.3665 228.734 60.4168 228.779 60.5049 228.829C60.6264 228.9 60.771 228.921 60.9075 228.886C61.1213 228.782 61.3034 228.622 61.4351 228.424C61.5667 228.226 61.643 227.996 61.6561 227.758C61.6937 227.494 61.6722 227.225 61.5932 226.97C61.5748 226.87 61.5327 226.776 61.4702 226.696C61.4078 226.616 61.3269 226.552 61.2346 226.51C61.1745 226.488 61.1084 226.486 61.0475 226.507C60.9867 226.528 60.935 226.569 60.9012 226.624C60.8508 226.706 60.8634 226.769 60.8446 226.769C60.8257 226.769 60.7816 226.712 60.8446 226.586C60.8703 226.514 60.9189 226.452 60.983 226.41C61.0282 226.381 61.0789 226.361 61.1319 226.353C61.1849 226.344 61.2391 226.346 61.2912 226.359C61.416 226.399 61.5285 226.47 61.6178 226.566C61.7071 226.662 61.7701 226.78 61.8007 226.907C61.9012 227.19 61.9314 227.493 61.8888 227.789C61.8754 228.068 61.7798 228.336 61.614 228.561C61.4483 228.785 61.22 228.955 60.9578 229.049C60.8718 229.064 60.7837 229.059 60.6999 229.035C60.6161 229.011 60.5387 228.969 60.4734 228.911C60.3665 228.81 60.3665 228.741 60.3665 228.734Z" fill="#EB996E"/>
<path d="M61.3038 230.158C61.3032 230.286 61.2641 230.409 61.1918 230.514C61.1195 230.619 61.0173 230.699 60.8986 230.744C60.78 230.789 60.6504 230.797 60.527 230.768C60.4036 230.738 60.2921 230.671 60.2071 230.577C60.1222 230.482 60.0678 230.364 60.0511 230.238C60.0344 230.112 60.0562 229.984 60.1136 229.87C60.171 229.757 60.2613 229.664 60.3727 229.603C60.4841 229.541 60.6113 229.516 60.7376 229.528C60.8933 229.544 61.0376 229.617 61.1423 229.734C61.247 229.85 61.3046 230.002 61.3038 230.158Z" fill="#E1E1E1"/>
<path d="M56.8751 217.866C58.8173 219.26 60.4673 221.021 61.7315 223.052L60.0582 225.887C57.2211 225.622 56.9128 225.332 54.8872 223.297C52.8615 221.262 48.9172 217.211 48.697 214.37C51.3769 215.126 54.6041 216.247 56.8751 217.866Z" fill="#1E2E34"/>
<path d="M61.3604 239.974C61.3984 239.872 61.4447 239.773 61.4988 239.678C61.5995 239.489 61.7379 239.206 61.914 238.84C62.401 237.809 62.807 236.741 63.1281 235.646C63.6012 234.022 63.8758 232.346 63.946 230.656C64.0018 229.662 63.9491 228.665 63.7887 227.682C63.6285 226.634 63.1522 225.66 62.4236 224.891C61.632 224.179 60.7314 223.598 59.7563 223.171C58.8452 222.741 57.9682 222.242 57.133 221.678C55.7286 220.711 54.4592 219.56 53.3586 218.257C52.6114 217.385 51.9361 216.454 51.3392 215.472C51.1253 215.126 50.9743 214.842 50.8737 214.659C50.8188 214.566 50.7704 214.469 50.729 214.37C50.7994 214.452 50.8625 214.541 50.9177 214.634C51.0247 214.817 51.1945 215.082 51.421 215.422C52.0424 216.379 52.7342 217.289 53.4907 218.144C54.597 219.421 55.866 220.548 57.2651 221.495C58.093 222.048 58.9615 222.536 59.8632 222.957C60.8649 223.392 61.7891 223.988 62.5997 224.721C63.3665 225.521 63.8656 226.541 64.0277 227.638C64.1919 228.637 64.2425 229.652 64.1787 230.662C64.0968 232.372 63.8031 234.065 63.3043 235.703C62.9655 236.802 62.5297 237.869 62.0021 238.891C61.8134 239.25 61.6624 239.521 61.5492 239.703C61.4922 239.798 61.4291 239.888 61.3604 239.974Z" fill="#3E5963"/>
<path d="M63.5623 223.801C63.4031 223.016 63.0651 222.279 62.5747 221.647C62.0362 220.969 61.3798 220.395 60.6371 219.952C59.7182 219.412 58.7664 218.93 57.7874 218.509C56.0017 217.711 54.3456 216.649 52.8743 215.359C52.4313 214.963 52.0113 214.542 51.6161 214.099C51.4625 213.944 51.3235 213.775 51.2009 213.595C51.3749 213.725 51.5351 213.873 51.679 214.036C51.981 214.326 52.415 214.741 52.9875 215.22C54.4735 216.467 56.1222 217.506 57.888 218.307C58.8775 218.731 59.836 219.224 60.7567 219.782C61.5165 220.245 62.1806 220.851 62.7131 221.565C63.0741 222.044 63.337 222.59 63.4869 223.171C63.523 223.329 63.5482 223.489 63.5623 223.65C63.5689 223.7 63.5689 223.751 63.5623 223.801Z" fill="#3E5963"/>
<path d="M41.7962 243.206C41.788 243.095 41.788 242.984 41.7962 242.872V241.915C41.7962 241.083 41.8843 239.88 41.966 238.393C42.1359 235.425 42.3938 231.324 42.9474 226.813C43.1622 224.684 43.5536 222.576 44.1175 220.512C44.5587 218.885 45.3154 217.361 46.3444 216.027C46.9755 215.207 47.7872 214.545 48.7161 214.092C48.9516 213.982 49.1984 213.898 49.4521 213.84C49.5382 213.816 49.6268 213.801 49.7163 213.796C49.7163 213.796 49.3577 213.897 48.7475 214.206C47.8724 214.704 47.115 215.385 46.5269 216.203C45.5406 217.524 44.8147 219.02 44.388 220.613C43.845 222.655 43.4664 224.736 43.2556 226.838C42.7021 231.33 42.419 235.432 42.2051 238.393C42.0981 239.842 42.0164 241.033 41.9535 241.902C41.922 242.293 41.8968 242.608 41.8717 242.86C41.8629 242.978 41.8375 243.095 41.7962 243.206Z" fill="#3E5963"/>
<path d="M34.1529 252.644C34.1529 252.644 34.7064 248.184 36.8579 245.953C39.0094 243.723 47.9926 240.913 47.9926 240.913C47.9926 240.913 48.3638 244.101 50.5089 244.863C52.7925 245.682 55.3717 245.374 57.0451 243.433C58.0628 242.181 58.7777 240.711 59.1336 239.136C59.1336 239.136 69.8657 240.125 71.6145 243.074C73.3634 246.023 75.6344 257.445 75.6344 257.445L65.5691 259.581L66.1982 268.842L41.5383 268.981L40.7771 260.791L33.5615 261.83L34.1529 252.644Z" fill="#6945A5"/>
<path d="M63.6062 260.242C63.5785 260.095 63.5679 259.945 63.5748 259.795C63.5748 259.512 63.5748 259.096 63.5748 258.585C63.5748 257.571 63.5748 256.16 63.6251 254.604C63.6754 253.047 63.6943 251.642 63.7383 250.622C63.7383 250.111 63.7824 249.696 63.8012 249.412C63.8013 249.264 63.8182 249.116 63.8516 248.971C63.8877 249.115 63.9004 249.264 63.8893 249.412C63.8893 249.696 63.8893 250.111 63.8893 250.622C63.8893 251.642 63.8893 253.047 63.839 254.604C63.7887 256.16 63.7698 257.571 63.7257 258.592C63.7257 259.102 63.6817 259.512 63.6628 259.801C63.6671 259.951 63.648 260.099 63.6062 260.242Z" fill="#4D367F"/>
<path d="M38.3486 252.14C38.4052 252.14 39.0343 254.119 39.7452 256.595C40.4561 259.071 41.0033 261.099 40.9216 261.118C40.8398 261.137 40.2359 259.14 39.525 256.658C39.0575 255.173 38.6649 253.665 38.3486 252.14Z" fill="#4D367F"/>
<path d="M70.5009 242.381C70.5009 242.419 70.0228 242.513 69.2931 242.791C67.3734 243.526 65.7726 244.913 64.77 246.709C64.3925 247.396 64.2415 247.869 64.1975 247.85C64.2056 247.735 64.231 247.623 64.273 247.516C64.3676 247.213 64.4854 246.918 64.6253 246.634C65.571 244.74 67.2263 243.297 69.2302 242.62C69.5302 242.522 69.8372 242.446 70.1486 242.394C70.3751 242.375 70.5009 242.362 70.5009 242.381Z" fill="#4D367F"/>
<path d="M36.6943 246.854C37.0827 247.753 37.3248 248.708 37.4115 249.683C37.0231 248.785 36.781 247.829 36.6943 246.854Z" fill="#4D367F"/>
<path d="M40.8211 260.803L37.3926 261.244L34.1528 252.877L28.9126 255.001C28.9126 255.001 31.8064 264.798 32.9324 268.761H43.5702L40.8211 260.803Z" fill="#FFBE9D"/>
<path d="M41.1858 267.337C40.5483 266.657 39.9597 265.932 39.4244 265.169C38.9949 264.539 38.6123 263.878 38.2794 263.191C37.9963 262.605 37.8076 262.114 37.6504 261.773C37.5925 261.591 37.5189 261.414 37.4302 261.244C37.4509 261.436 37.4953 261.624 37.5623 261.805C37.7148 262.301 37.8976 262.787 38.1096 263.26C38.4244 263.964 38.7969 264.641 39.223 265.283C39.7516 266.065 40.3428 266.802 40.9908 267.488C41.4251 267.905 41.8056 268.375 42.1231 268.887H42.3936C42.0571 268.322 41.6513 267.801 41.1858 267.337Z" fill="#EB996E"/>
<path d="M34.1529 252.877C34.1529 252.877 34.1529 249.211 33.851 248.177L31.429 242.475C31.429 242.475 30.7244 242.116 30.5923 243.2C30.5276 243.982 30.664 244.767 30.9887 245.481L31.0704 246.993L30.0262 246.142L28.0131 242.362C28.0131 242.362 26.6229 239.615 26.2643 240.05C25.9057 240.485 26.0252 241.373 26.6229 242.57L27.9754 245.267C27.9754 245.267 28.183 245.739 27.4721 245.046C26.7612 244.353 25.2074 240.995 24.8929 240.579C24.5783 240.163 24.1317 238.928 23.4397 239.206C22.7477 239.483 23.6284 240.957 23.6284 240.957L25.8491 245.941C25.8491 245.941 24.5909 244.051 24.333 243.736C24.0751 243.421 23.5655 242.337 23.144 241.789C22.7226 241.241 22.2633 241.02 21.9551 241.159C21.8072 241.214 21.6857 241.324 21.6146 241.465C21.5435 241.606 21.5281 241.769 21.5713 241.921L23.943 246.042C23.943 246.042 25.1382 247.869 25.1382 248.007C25.1382 248.146 24.1002 247.377 24.1002 247.377L23.1126 246.117C23.1126 246.117 22.0369 244.227 21.4707 244.321C20.9045 244.416 21.0115 244.844 21.0115 244.844L23.0056 248.303L25.8994 252.033L29.0008 255.114L30.7874 254.541L34.1529 252.877Z" fill="#FFBE9D"/>
<path d="M28.4532 252.254C28.5446 251.875 28.6056 251.489 28.6356 251.101C28.7277 250.19 29.1535 249.346 29.8309 248.732C30.1682 248.447 30.5916 248.285 31.0324 248.272H31.1834V248.108C31.1394 247.402 31.1834 246.722 31.1394 246.275C31.0953 245.827 31.0765 245.544 31.0387 245.55C30.9924 245.789 30.9693 246.031 30.9695 246.275C30.9162 246.903 30.8973 247.534 30.9129 248.165L31.045 248.007C30.5383 248.004 30.0471 248.183 29.661 248.511C29.2336 248.853 28.9091 249.307 28.7237 249.822C28.573 250.227 28.4798 250.651 28.4469 251.082C28.3822 251.47 28.3843 251.866 28.4532 252.254Z" fill="#EB996E"/>
<path d="M64.5814 259.808L63.7258 268.761H72.2373C72.5833 267.456 73.854 257.836 73.854 257.836L64.5814 259.808Z" fill="#FFBE9D"/>
</g>
</g>
<defs>
<clipPath id="clip0">
<rect width="213" height="269" fill="white"/>
</clipPath>
</defs>
</svg>
