<svg width="317" height="266" viewBox="0 0 317 266" fill="none" xmlns="http://www.w3.org/2000/svg">
<g clip-path="url(#clip0)">
<path d="M52.4455 248.517L150.965 248.149C152.538 248.144 154.093 247.827 155.544 247.217C156.994 246.607 158.31 245.716 159.417 244.595C160.524 243.474 161.399 242.145 161.994 240.684C162.588 239.223 162.89 237.658 162.881 236.08L162.105 24.5313C162.1 22.953 161.784 21.3913 161.177 19.9355C160.569 18.4798 159.682 17.1586 158.565 16.0476C157.448 14.9366 156.124 14.0576 154.668 13.461C153.212 12.8643 151.654 12.5617 150.081 12.5704L51.5617 12.9325C49.9899 12.9388 48.4346 13.2562 46.985 13.8664C45.5354 14.4766 44.22 15.3676 43.1139 16.4886C42.0077 17.6096 41.1325 18.9386 40.5385 20.3994C39.9444 21.8602 39.6431 23.4242 39.6518 25.002L40.4214 236.556C40.4277 238.135 40.7438 239.696 41.3516 241.151C41.9595 242.607 42.847 243.928 43.9637 245.038C45.0804 246.149 46.4043 247.028 47.8597 247.625C49.315 248.222 50.8733 248.525 52.4455 248.517Z" fill="white" stroke="#6349A0" stroke-miterlimit="10"/>
<path d="M53.8102 17.8025L78.3635 17.712V19.8242C78.3699 21.0417 78.857 22.207 79.718 23.0645C80.5791 23.922 81.7437 24.4017 82.9567 24.3985L118.825 24.2657C119.426 24.2642 120.021 24.1436 120.575 23.9109C121.13 23.6782 121.633 23.3379 122.056 22.9096C122.48 22.4813 122.815 21.9734 123.042 21.415C123.269 20.8565 123.385 20.2585 123.382 19.6552V17.543L147.941 17.4525C150.474 17.4445 152.907 18.4461 154.705 20.2373C156.503 22.0285 157.519 24.4628 157.53 27.0055L158.282 233.141C158.291 234.403 158.051 235.654 157.577 236.822C157.103 237.991 156.404 239.054 155.52 239.951C154.636 240.848 153.584 241.562 152.425 242.05C151.266 242.538 150.022 242.792 148.765 242.796L54.6279 243.146C52.0953 243.154 49.6631 242.153 47.8661 240.361C46.0691 238.57 45.0541 236.136 45.0446 233.593L44.2871 27.4521C44.2791 26.1903 44.5194 24.9393 44.9941 23.7709C45.4688 22.6025 46.1686 21.5396 47.0532 20.6431C47.9379 19.7467 48.9902 19.0343 50.1497 18.5469C51.3092 18.0594 52.5531 17.8065 53.8102 17.8025Z" fill="#F6F5FF" stroke="#6349A0" stroke-miterlimit="10"/>
<path d="M108.443 18.8947L91.2544 18.9579C90.8559 18.9594 90.5341 19.2848 90.5356 19.6847L90.5359 19.7571C90.5373 20.1571 90.8615 20.4801 91.2599 20.4786L108.448 20.4154C108.847 20.4139 109.169 20.0885 109.167 19.6886L109.167 19.6162C109.165 19.2162 108.841 18.8932 108.443 18.8947Z" fill="#6349A0"/>
<path d="M150.959 265.698L261.786 265.294C265.354 265.28 268.77 263.844 271.284 261.302C273.798 258.761 275.204 255.321 275.192 251.74L274.321 13.7653C274.306 10.1844 272.876 6.75574 270.344 4.23327C267.812 1.7108 264.385 0.300978 260.817 0.313808L149.991 0.724185C146.424 0.736968 143.007 2.17134 140.493 4.71192C137.979 7.25249 136.573 10.6913 136.584 14.2722L137.456 252.259C137.472 255.838 138.903 259.265 141.435 261.785C143.968 264.305 147.393 265.713 150.959 265.698Z" fill="white" stroke="#6349A0" stroke-miterlimit="10"/>
<path d="M152.48 6.17957L180.105 6.07699V8.45469C180.113 9.82374 180.661 11.1339 181.629 12.0986C182.597 13.0633 183.906 13.604 185.27 13.6023L225.623 13.4515C226.298 13.4491 226.967 13.3131 227.59 13.0512C228.213 12.7893 228.778 12.4067 229.254 11.9253C229.73 11.4438 230.107 10.873 230.362 10.2454C230.618 9.61776 230.748 8.9457 230.745 8.26761V5.88991L258.37 5.78731C259.782 5.78176 261.18 6.0554 262.486 6.5926C263.792 7.1298 264.98 7.92002 265.982 8.91814C266.983 9.91625 267.779 11.1027 268.324 12.4097C268.868 13.7166 269.151 15.1185 269.156 16.5352L270.004 248.427C270.009 249.844 269.737 251.247 269.202 252.558C268.666 253.869 267.879 255.061 266.885 256.067C265.89 257.072 264.708 257.871 263.406 258.418C262.104 258.965 260.708 259.248 259.296 259.253L153.406 259.645C151.994 259.651 150.596 259.377 149.29 258.84C147.984 258.303 146.796 257.513 145.795 256.515C144.793 255.516 143.997 254.33 143.452 253.023C142.908 251.716 142.625 250.314 142.62 248.898L141.773 17.0059C141.767 15.5892 142.04 14.1853 142.575 12.8744C143.11 11.5635 143.897 10.3713 144.892 9.36588C145.886 8.36048 147.068 7.56159 148.37 7.01487C149.672 6.46815 151.069 6.18432 152.48 6.17957Z" fill="#F6F5FF" stroke="#6349A0" stroke-miterlimit="10"/>
<path d="M213.954 7.40864L194.619 7.47977C194.171 7.48142 193.809 7.84751 193.811 8.29745L193.811 8.3759C193.813 8.82584 194.177 9.18924 194.626 9.18759L213.96 9.11646C214.408 9.11481 214.77 8.74874 214.769 8.2988L214.768 8.22034C214.767 7.7704 214.402 7.40699 213.954 7.40864Z" fill="#6349A0"/>
<path d="M307.616 221.868C307.659 221.91 307.717 221.933 307.778 221.934H309.143C309.203 221.934 309.261 221.91 309.305 221.868C309.326 221.847 309.343 221.823 309.354 221.796C309.365 221.769 309.371 221.74 309.371 221.711V221.234C309.378 220.991 309.445 220.752 309.567 220.542C309.689 220.331 309.861 220.154 310.069 220.027C310.533 219.735 311.069 219.581 311.616 219.581C312.164 219.581 312.701 219.735 313.165 220.027C313.372 220.154 313.544 220.331 313.666 220.542C313.788 220.752 313.855 220.991 313.862 221.234V221.711C313.862 221.74 313.868 221.769 313.879 221.796C313.891 221.823 313.907 221.847 313.928 221.868C313.972 221.91 314.03 221.934 314.091 221.934H315.455C315.485 221.935 315.514 221.93 315.541 221.919C315.569 221.908 315.594 221.892 315.614 221.871C315.635 221.85 315.651 221.825 315.662 221.797C315.673 221.77 315.678 221.74 315.678 221.711V221.234C315.64 220.857 315.511 220.494 315.301 220.178C315.092 219.863 314.808 219.604 314.475 219.424C313.611 218.887 312.615 218.603 311.599 218.603C310.582 218.603 309.586 218.887 308.722 219.424C308.389 219.604 308.105 219.863 307.896 220.178C307.686 220.494 307.557 220.857 307.519 221.234V221.711C307.518 221.74 307.523 221.769 307.533 221.796C307.543 221.823 307.559 221.847 307.579 221.868H307.616ZM315.431 219.454C315.588 219.61 315.729 219.782 315.852 219.967C316.109 220.349 316.249 220.798 316.255 221.258V221.735C316.255 221.95 316.17 222.155 316.019 222.307C315.868 222.458 315.663 222.544 315.449 222.544H314.084C313.973 222.548 313.863 222.53 313.759 222.489C313.656 222.449 313.562 222.387 313.483 222.308C313.333 222.155 313.249 221.95 313.249 221.735V221.258C313.237 221.11 313.19 220.967 313.112 220.841C313.033 220.715 312.925 220.609 312.798 220.534C312.431 220.309 312.01 220.19 311.58 220.19C311.151 220.19 310.729 220.309 310.363 220.534C310.235 220.609 310.128 220.715 310.049 220.841C309.971 220.967 309.924 221.11 309.912 221.258V221.735C309.912 221.95 309.827 222.155 309.677 222.308C309.602 222.383 309.513 222.443 309.415 222.483C309.317 222.524 309.212 222.544 309.107 222.544H307.742C307.631 222.548 307.52 222.53 307.417 222.489C307.313 222.449 307.219 222.387 307.141 222.308C306.991 222.155 306.907 221.95 306.906 221.735V221.258C306.912 220.798 307.052 220.349 307.309 219.967C307.586 219.562 307.939 219.215 308.349 218.947C309.308 218.341 310.418 218.02 311.55 218.02C312.683 218.02 313.793 218.341 314.752 218.947C314.968 219.096 315.169 219.266 315.353 219.454H315.431Z" fill="white"/>
<path d="M101.39 228.669C105.816 228.669 109.404 225.067 109.404 220.625C109.404 216.182 105.816 212.58 101.39 212.58C96.9635 212.58 93.3755 216.182 93.3755 220.625C93.3755 225.067 96.9635 228.669 101.39 228.669Z" fill="#766BC9"/>
<path d="M97.3977 221.868C97.418 221.889 97.4422 221.906 97.4691 221.917C97.4959 221.928 97.5249 221.934 97.5541 221.934H98.9008C98.9593 221.933 99.0149 221.909 99.0563 221.867C99.0977 221.826 99.1218 221.77 99.1233 221.711V221.234C99.13 220.991 99.1973 220.752 99.3191 220.542C99.4409 220.331 99.6133 220.154 99.8206 220.027C100.285 219.735 100.821 219.581 101.369 219.581C101.916 219.581 102.453 219.735 102.917 220.027C103.124 220.154 103.297 220.331 103.418 220.542C103.54 220.752 103.608 220.991 103.614 221.234V221.711C103.614 221.74 103.62 221.769 103.631 221.796C103.643 221.823 103.659 221.847 103.68 221.868C103.724 221.91 103.782 221.934 103.843 221.934H105.207C105.237 221.935 105.267 221.93 105.294 221.919C105.322 221.908 105.347 221.892 105.369 221.871C105.39 221.85 105.407 221.825 105.418 221.798C105.43 221.77 105.436 221.741 105.436 221.711V221.234C105.397 220.857 105.268 220.495 105.058 220.179C104.849 219.864 104.566 219.604 104.234 219.424C103.369 218.887 102.373 218.603 101.357 218.603C100.34 218.603 99.3443 218.887 98.4799 219.424C98.1482 219.605 97.8653 219.864 97.6558 220.18C97.4463 220.495 97.3165 220.857 97.2775 221.234V221.711C97.2774 221.74 97.2832 221.769 97.2946 221.796C97.3059 221.823 97.3226 221.847 97.3436 221.868H97.3977ZM105.213 219.454C105.367 219.612 105.506 219.784 105.628 219.967C105.888 220.347 106.028 220.797 106.031 221.258V221.735C106.031 221.95 105.946 222.155 105.795 222.307C105.644 222.458 105.439 222.544 105.225 222.544H103.861C103.75 222.548 103.639 222.53 103.536 222.489C103.432 222.449 103.338 222.387 103.26 222.308C103.11 222.155 103.026 221.95 103.025 221.735V221.258C103.014 221.11 102.967 220.967 102.888 220.841C102.81 220.715 102.702 220.609 102.574 220.534C102.208 220.309 101.786 220.19 101.357 220.19C100.927 220.19 100.506 220.309 100.139 220.534C100.012 220.609 99.9038 220.715 99.8253 220.841C99.7468 220.967 99.6999 221.11 99.6884 221.258V221.735C99.6898 221.842 99.6697 221.947 99.6294 222.046C99.5891 222.144 99.5294 222.234 99.4538 222.308C99.304 222.459 99.1007 222.544 98.8887 222.544H97.5179C97.4119 222.545 97.3068 222.524 97.2087 222.484C97.1106 222.443 97.0215 222.384 96.9465 222.309C96.8716 222.233 96.8122 222.144 96.772 222.045C96.7318 221.947 96.7116 221.841 96.7124 221.735V221.258C96.7175 220.797 96.8598 220.347 97.1212 219.967C97.3936 219.56 97.7454 219.213 98.1553 218.947C99.1141 218.341 100.224 218.02 101.357 218.02C102.489 218.02 103.599 218.341 104.558 218.947C104.774 219.096 104.976 219.266 105.159 219.454H105.213Z" fill="white"/>
<path d="M310.88 67.0099L288.732 53.4136L284.722 79.17C289.791 79.9606 294.979 79.2279 299.634 77.064C304.289 74.9001 308.202 71.4019 310.88 67.0099Z" fill="#CECEF2"/>
<path d="M310.904 66.9797L311.042 66.7565C313.339 62.8947 314.601 58.5023 314.707 54.006C314.812 49.5097 313.757 45.0625 311.643 41.0967C303.828 45.2184 308.475 42.714 288.761 53.4136C310.922 67.0341 307.471 64.934 310.904 66.9797Z" fill="#F9C941"/>
<path d="M264.377 44.4098L288.732 53.4136L311.577 41.0122C300.906 21.176 272.126 23.5597 264.377 44.4098Z" fill="#766BC9"/>
<path d="M284.722 79.17L288.732 53.4136L264.377 44.4098C258.587 59.9915 268.862 76.6595 284.722 79.17Z" fill="#EC665A"/>
<path d="M262.783 48.6703C263.215 48.6679 263.64 48.7781 264.016 48.9902C264.225 47.8132 264.52 46.6533 264.9 45.5202L278.126 50.4144C278.112 49.8159 278.327 49.2348 278.727 48.791L277.399 48.3022L265.531 43.9149C266.48 41.5844 267.769 39.4083 269.355 37.4577C268.799 37.2493 268.332 36.8551 268.032 36.3413C266.321 38.4481 264.933 40.7994 263.914 43.3175L263.619 44.1201L263.313 44.9348C262.897 46.1742 262.573 47.443 262.344 48.7307C262.489 48.697 262.636 48.6768 262.783 48.6703Z" fill="white"/>
<path d="M312.726 41.3743L312.317 40.6139L312.287 40.5717L311.956 39.9682C309.455 35.5383 305.741 31.9213 301.255 29.5462C296.519 27.1131 291.177 26.1252 285.889 26.7043C280.6 27.2834 275.597 29.4042 271.495 32.8049C271.998 33.1172 272.383 33.5885 272.589 34.1446C276.689 30.7128 281.769 28.6777 287.096 28.3332C291.746 27.9796 296.402 28.9536 300.524 31.1426C304.646 33.3317 308.068 36.6466 310.393 40.7044L303.648 44.3615L297.034 47.9461L288.954 52.3334L288.744 52.4481L288.064 52.0317L288.028 52.267L283.279 50.5109C283.271 51.1066 283.044 51.6783 282.641 52.1161L287.758 54.0111L283.994 78.1923C278.319 77.0691 273.2 74.024 269.494 69.5664C265.787 65.1088 263.718 59.5089 263.631 53.7033C263.364 53.8059 263.081 53.859 262.795 53.8602C262.493 53.8603 262.194 53.8051 261.912 53.6973C261.964 58.3403 263.222 62.8894 265.561 66.8953C267.489 70.2415 270.112 73.1325 273.251 75.3722C276.389 77.6118 279.972 79.1478 283.754 79.876L284.607 80.0088L285.455 80.1476C290.433 80.761 295.482 79.9629 300.031 77.8435C304.579 75.7242 308.446 72.3685 311.193 68.1565L311.361 67.8789L311.638 67.4263L311.758 67.2211L312.034 66.7746C314.214 62.9216 315.417 58.5901 315.537 54.161C315.658 49.7319 314.692 45.341 312.726 41.3743ZM285.708 78.4337L289.381 54.8258L298.94 60.6976L306.383 65.2659L309.684 67.2936C307.123 71.2129 303.519 74.3339 299.281 76.3028C295.044 78.2718 290.342 79.0099 285.708 78.4337ZM310.603 65.7607L310.435 65.6642C309.533 65.1271 309.136 64.8917 307.333 63.7874L290.457 53.4317L304.465 45.8279C306.527 44.7115 307.369 44.271 309.455 43.1726L311.259 42.2372C313.061 45.9221 313.943 49.9919 313.829 54.0953C313.715 58.1988 312.608 62.2127 310.603 65.7909V65.7607Z" fill="#E8F2FC"/>
<path d="M230.475 80.6847H183.46V53.1783H218.817L230.475 64.8797V80.6847Z" fill="#F9C941"/>
<path d="M217.951 53.1783V67.8608H230.475V65.0366L218.739 53.2567L217.951 53.1783Z" fill="#E5B12E"/>
<path d="M218.817 53.1783V65.0366H230.475L218.817 53.1783Z" fill="#F9C941"/>
<path d="M209.715 63.4977H188.763C188.543 63.4977 188.332 63.41 188.176 63.2538C188.021 63.0976 187.933 62.8858 187.933 62.6649C187.933 62.4441 188.021 62.2322 188.176 62.0761C188.332 61.9199 188.543 61.8321 188.763 61.8321H209.715C209.935 61.8321 210.146 61.9199 210.302 62.0761C210.457 62.2322 210.545 62.4441 210.545 62.6649C210.545 62.8858 210.457 63.0976 210.302 63.2538C210.146 63.41 209.935 63.4977 209.715 63.4977Z" fill="white"/>
<path d="M209.715 67.7643H188.763C188.543 67.7643 188.332 67.6766 188.176 67.5204C188.021 67.3642 187.933 67.1524 187.933 66.9315C187.933 66.7106 188.021 66.4988 188.176 66.3426C188.332 66.1864 188.543 66.0987 188.763 66.0987H209.715C209.824 66.0987 209.932 66.1202 210.032 66.1621C210.133 66.2039 210.225 66.2653 210.302 66.3426C210.379 66.42 210.44 66.5118 210.481 66.6128C210.523 66.7138 210.545 66.8221 210.545 66.9315C210.545 67.0409 210.523 67.1492 210.481 67.2502C210.44 67.3512 210.379 67.443 210.302 67.5204C210.225 67.5977 210.133 67.659 210.032 67.7009C209.932 67.7427 209.824 67.7643 209.715 67.7643Z" fill="white"/>
<path d="M209.715 72.2542H188.763C188.543 72.2542 188.332 72.1664 188.176 72.0102C188.021 71.8541 187.933 71.6422 187.933 71.4214C187.933 71.2005 188.021 70.9887 188.176 70.8325C188.332 70.6763 188.543 70.5886 188.763 70.5886H209.715C209.935 70.5886 210.146 70.6763 210.302 70.8325C210.457 70.9887 210.545 71.2005 210.545 71.4214C210.545 71.6422 210.457 71.8541 210.302 72.0102C210.146 72.1664 209.935 72.2542 209.715 72.2542Z" fill="white"/>
<path d="M252.208 119.168L206.799 114.341L209.805 85.772L245.806 89.5799L254.222 100.014L252.208 119.168Z" fill="#FFA03E"/>
<path d="M245.126 91.6498L211.326 88.0712L208.795 112.18L250.813 116.622L252.292 102.506L244.074 101.637L245.126 91.6498Z" fill="white"/>
<path d="M240.545 100.406L218.649 98.0889C218.44 98.0299 218.258 97.8984 218.136 97.7178C218.014 97.5371 217.96 97.319 217.983 97.1021C218.006 96.8852 218.105 96.6835 218.262 96.5327C218.419 96.382 218.624 96.2919 218.841 96.2785L240.737 98.5958C240.871 98.5876 241.004 98.6087 241.129 98.6576C241.254 98.7066 241.366 98.7822 241.459 98.8793C241.551 98.9764 241.621 99.0925 241.665 99.2196C241.708 99.3468 241.723 99.4818 241.709 99.6153C241.694 99.7489 241.651 99.8777 241.582 99.9928C241.513 100.108 241.42 100.207 241.31 100.282C241.199 100.357 241.073 100.407 240.941 100.429C240.809 100.45 240.674 100.443 240.545 100.406Z" fill="#FFA03E"/>
<path d="M240.034 105.246L218.144 102.929C218.014 102.931 217.886 102.906 217.767 102.854C217.648 102.803 217.541 102.727 217.454 102.631C217.367 102.535 217.3 102.421 217.26 102.298C217.22 102.174 217.206 102.044 217.22 101.914C217.234 101.785 217.274 101.66 217.34 101.548C217.405 101.436 217.494 101.339 217.599 101.264C217.705 101.189 217.825 101.137 217.952 101.112C218.079 101.087 218.21 101.089 218.336 101.118L240.226 103.436C240.355 103.434 240.484 103.459 240.603 103.51C240.722 103.562 240.828 103.638 240.916 103.734C241.003 103.83 241.069 103.943 241.11 104.067C241.15 104.19 241.164 104.321 241.15 104.45C241.136 104.579 241.095 104.704 241.03 104.816C240.965 104.929 240.876 105.025 240.77 105.101C240.665 105.176 240.545 105.228 240.418 105.253C240.291 105.278 240.16 105.276 240.034 105.246Z" fill="#FFA03E"/>
<path d="M239.505 110.321L217.609 108.004C217.392 107.953 217.2 107.824 217.071 107.642C216.942 107.46 216.884 107.236 216.908 107.013C216.931 106.791 217.035 106.585 217.2 106.434C217.364 106.283 217.578 106.197 217.801 106.194L239.697 108.505C239.83 108.497 239.964 108.518 240.089 108.567C240.213 108.616 240.326 108.691 240.418 108.788C240.511 108.885 240.581 109.002 240.624 109.129C240.667 109.256 240.683 109.391 240.668 109.524C240.654 109.658 240.611 109.787 240.542 109.902C240.473 110.017 240.38 110.116 240.269 110.191C240.159 110.266 240.033 110.316 239.901 110.338C239.769 110.359 239.633 110.352 239.505 110.315V110.321Z" fill="#FFA03E"/>
<path d="M33.8142 181.296H110.6C112.739 181.296 114.472 179.556 114.472 177.41V145.619C114.472 143.472 112.739 141.732 110.6 141.732H33.8142C31.6758 141.732 29.9424 143.472 29.9424 145.619V177.41C29.9424 179.556 31.6758 181.296 33.8142 181.296Z" fill="white" stroke="#6349A0" stroke-miterlimit="10"/>
<path d="M105.075 151.472H39.3511V152.263H105.075V151.472Z" fill="#DFDFFB"/>
<path d="M105.075 161.122H39.3511V161.912H105.075V161.122Z" fill="#DFDFFB"/>
<path d="M105.075 170.772H39.3511V171.562H105.075V170.772Z" fill="#DFDFFB"/>
<path d="M103.969 171.628L104.588 171.14L99.9046 165.214L91.8364 167.977L84.8985 160.41L77.8403 166.119L69.5497 156.807L62.0346 165.515L55.3191 148.069L48.3512 159.058L40.2529 147.333L39.6096 147.785L48.3812 160.476L55.1508 149.807L61.7701 167.018L69.5617 158.002L77.7501 167.199L84.8203 161.49L91.6079 168.889L99.634 166.137L103.969 171.628Z" fill="#4F57C7"/>
<path d="M253.35 185.949H162.881C161.438 185.949 160.054 185.374 159.034 184.349C158.013 183.325 157.44 181.936 157.44 180.487V138.425C157.44 136.977 158.013 135.588 159.034 134.563C160.054 133.539 161.438 132.964 162.881 132.964H247.904C249.348 132.964 250.734 133.54 251.755 134.565C252.776 135.591 253.35 136.981 253.35 138.431V185.949Z" fill="#766BC9"/>
<path d="M177.833 158.304H240.707C241.026 158.304 241.332 158.177 241.557 157.95C241.783 157.724 241.91 157.417 241.91 157.097C241.91 156.777 241.783 156.47 241.557 156.243C241.332 156.017 241.026 155.89 240.707 155.89H177.833C177.514 155.89 177.208 156.017 176.983 156.243C176.757 156.47 176.631 156.777 176.631 157.097C176.631 157.417 176.757 157.724 176.983 157.95C177.208 158.177 177.514 158.304 177.833 158.304Z" fill="white"/>
<path d="M216.514 167.181H241.062C241.381 167.181 241.686 167.054 241.912 166.827C242.137 166.601 242.264 166.294 242.264 165.974C242.264 165.654 242.137 165.347 241.912 165.12C241.686 164.894 241.381 164.767 241.062 164.767H216.514C216.196 164.767 215.89 164.894 215.664 165.12C215.439 165.347 215.312 165.654 215.312 165.974C215.312 166.294 215.439 166.601 215.664 166.827C215.89 167.054 216.196 167.181 216.514 167.181Z" fill="white"/>
<path d="M177.833 167.181H210.022C210.341 167.181 210.646 167.054 210.872 166.827C211.097 166.601 211.224 166.294 211.224 165.974C211.224 165.654 211.097 165.347 210.872 165.12C210.646 164.894 210.341 164.767 210.022 164.767H177.833C177.514 164.767 177.208 164.894 176.983 165.12C176.757 165.347 176.631 165.654 176.631 165.974C176.631 166.294 176.757 166.601 176.983 166.827C177.208 167.054 177.514 167.181 177.833 167.181Z" fill="white"/>
<path d="M216.514 175.925H241.062C241.381 175.925 241.686 175.798 241.912 175.572C242.137 175.345 242.264 175.038 242.264 174.718C242.264 174.398 242.137 174.091 241.912 173.865C241.686 173.638 241.381 173.511 241.062 173.511H216.514C216.196 173.511 215.89 173.638 215.664 173.865C215.439 174.091 215.312 174.398 215.312 174.718C215.312 175.038 215.439 175.345 215.664 175.572C215.89 175.798 216.196 175.925 216.514 175.925Z" fill="white"/>
<path d="M177.833 175.925H210.022C210.341 175.925 210.646 175.798 210.872 175.572C211.097 175.345 211.224 175.038 211.224 174.718C211.224 174.398 211.097 174.091 210.872 173.865C210.646 173.638 210.341 173.511 210.022 173.511H177.833C177.514 173.511 177.208 173.638 176.983 173.865C176.757 174.091 176.631 174.398 176.631 174.718C176.631 175.038 176.757 175.345 176.983 175.572C177.208 175.798 177.514 175.925 177.833 175.925Z" fill="white"/>
<path d="M193.368 147.381H240.479C241.153 147.381 241.699 146.832 241.699 146.156C241.699 145.479 241.153 144.931 240.479 144.931H193.368C192.694 144.931 192.148 145.479 192.148 146.156C192.148 146.832 192.694 147.381 193.368 147.381Z" fill="white"/>
<path d="M165.779 83.9314H192.905C197.331 83.9314 200.919 80.3298 200.919 75.8871V38.0974C200.919 33.6547 197.331 30.0531 192.905 30.0531L165.779 30.0531C161.353 30.0531 157.765 33.6547 157.765 38.0974V75.8871C157.765 80.3298 161.353 83.9314 165.779 83.9314Z" fill="white" stroke="#6349A0" stroke-miterlimit="10"/>
<mask id="mask0" style="mask-type:alpha" maskUnits="userSpaceOnUse" x="157" y="29" width="45" height="56">
<path d="M165.779 83.9314H192.905C197.331 83.9314 200.919 80.3298 200.919 75.8871V38.0974C200.919 33.6547 197.331 30.0531 192.905 30.0531L165.779 30.0531C161.353 30.0531 157.765 33.6547 157.765 38.0974V75.8871C157.765 80.3298 161.353 83.9314 165.779 83.9314Z" fill="white" stroke="#6349A0" stroke-miterlimit="10"/>
</mask>
<g mask="url(#mask0)">
<path d="M201.058 99.4588L187.573 100.793C187.573 100.793 186.972 89.6946 187.014 84.4021C187.014 77.9811 187.615 69.7195 188.378 69.9187C190.543 70.4256 193.459 71.6386 195.19 74.0404C201.178 82.3081 201.058 99.4588 201.058 99.4588Z" fill="#CECEF2"/>
<path d="M194.493 83.2736C194.769 85.2289 199.765 138.461 199.765 138.461C175.182 150.278 161.673 140.453 161.673 140.453C161.673 140.453 162.604 103.086 161.673 97.9984C161.071 94.631 160.332 72.2662 162.508 71.6507C165.601 70.7035 168.772 70.037 171.983 69.6592C174.959 69.3635 186.509 69.2187 188.577 69.9247C191.759 73.7281 193.809 78.3544 194.493 83.2736Z" fill="#CECEF2"/>
<path d="M144.887 94.1663L156.538 102.078C156.538 102.078 163.152 92.2654 166.705 88.8014C171.142 84.4323 165.154 70.9808 162.298 71.7291C155.913 73.3826 144.887 94.1663 144.887 94.1663Z" fill="#CECEF2"/>
<path d="M175.254 58.7484L173.45 69.8222C173.45 69.8222 180.015 83.9495 183.965 82.7727C187.284 81.7891 185.288 69.6713 185.288 69.6713C185.288 69.6713 183.484 63.1598 184.056 59.907C184.627 56.6543 175.254 58.7484 175.254 58.7484Z" fill="#EEEDF9"/>
<path d="M184.025 59.907C184.579 56.6543 175.266 58.7484 175.266 58.7484L175.11 59.6958C175.345 60.2891 175.685 60.8349 176.114 61.3071C178.304 63.462 181.208 64.7335 184.272 64.8797C183.946 63.2434 183.863 61.5677 184.025 59.907Z" fill="#EBEAF9"/>
<path d="M173.793 42.4787C173.528 42.3821 171.641 55.562 175.128 59.201C178.615 62.8399 185.438 64.0288 187.897 61.2045C190.615 58.0544 190.525 43.8848 185.096 40.1312C179.667 36.3775 173.793 42.4787 173.793 42.4787Z" fill="#EEEDF9"/>
<path d="M175.091 37.3974C173.186 37.6086 170.582 38.6043 167.877 42.883C164.564 48.1272 166.981 53.9628 170.805 56.8353C174.629 59.7079 174.556 62.9727 174.556 62.9727L175.188 61.301C175.647 60.0146 175.815 58.6417 175.681 57.2819C175.613 56.4497 175.41 55.6342 175.079 54.868C174.16 52.955 177.076 51.6937 177.893 50.1126C178.524 48.9057 178.567 46.0935 179.559 44.0779L180.761 42.539C180.761 42.539 183.49 40.5053 186.172 41.0907C188.853 41.676 185.57 29.1418 175.091 37.3974Z" fill="#B7B7ED"/>
<path d="M177.701 52.4481C177.701 54.0594 176.961 55.3749 175.993 55.387C175.025 55.3991 174.226 54.1076 174.19 52.4964C174.154 50.8851 174.929 49.5755 175.897 49.5635C176.865 49.5514 177.659 50.8428 177.701 52.4481Z" fill="#EBEAF9"/>
<path d="M183.671 56.0086L188.481 55.0672C188.532 55.6182 188.368 56.1677 188.024 56.5999C187.679 57.0322 187.182 57.3134 186.635 57.3845C184.032 57.9578 183.671 56.0086 183.671 56.0086Z" fill="white"/>
</g>
<path d="M165.779 83.9314H192.905C197.331 83.9314 200.919 80.3298 200.919 75.8871V38.0974C200.919 33.6547 197.331 30.0531 192.905 30.0531L165.779 30.0531C161.353 30.0531 157.765 33.6547 157.765 38.0974V75.8871C157.765 80.3298 161.353 83.9314 165.779 83.9314Z" stroke="#6349A0" stroke-miterlimit="10"/>
<path d="M206.402 246.417C212.18 246.417 216.863 241.716 216.863 235.917C216.863 230.117 212.18 225.416 206.402 225.416C200.625 225.416 195.941 230.117 195.941 235.917C195.941 241.716 200.625 246.417 206.402 246.417Z" fill="#EC665A"/>
<path d="M201.184 237.54C201.24 237.595 201.316 237.625 201.394 237.625H203.198C203.236 237.625 203.274 237.617 203.309 237.603C203.344 237.588 203.375 237.567 203.402 237.54C203.456 237.483 203.486 237.407 203.486 237.329V236.725C203.498 236.408 203.587 236.099 203.747 235.825C203.906 235.552 204.131 235.322 204.4 235.156C205.006 234.774 205.708 234.571 206.424 234.571C207.139 234.571 207.84 234.774 208.446 235.156C208.715 235.322 208.939 235.552 209.098 235.826C209.256 236.1 209.344 236.409 209.354 236.725V237.329C209.355 237.368 209.363 237.407 209.378 237.444C209.394 237.48 209.416 237.513 209.445 237.54C209.471 237.567 209.503 237.588 209.538 237.603C209.573 237.617 209.611 237.625 209.649 237.625H211.452C211.531 237.625 211.606 237.593 211.661 237.538C211.716 237.482 211.747 237.407 211.747 237.329V236.725C211.704 236.231 211.54 235.754 211.269 235.338C210.999 234.923 210.63 234.58 210.196 234.342C209.068 233.639 207.766 233.267 206.438 233.267C205.111 233.267 203.809 233.639 202.681 234.342C202.248 234.581 201.88 234.924 201.611 235.339C201.341 235.755 201.178 236.231 201.136 236.725V237.329C201.136 237.407 201.167 237.483 201.22 237.54H201.184ZM211.404 234.354C211.607 234.556 211.788 234.778 211.945 235.018C212.283 235.516 212.468 236.104 212.475 236.707V237.311C212.475 237.591 212.364 237.859 212.166 238.058C211.969 238.256 211.702 238.367 211.423 238.367H209.619C209.481 238.367 209.345 238.341 209.218 238.288C209.091 238.235 208.976 238.157 208.879 238.059C208.781 237.961 208.702 237.845 208.649 237.716C208.595 237.588 208.567 237.45 208.567 237.311V236.707C208.553 236.512 208.49 236.324 208.385 236.16C208.28 235.995 208.136 235.86 207.966 235.766C207.489 235.467 206.938 235.309 206.375 235.309C205.813 235.309 205.262 235.467 204.785 235.766C204.617 235.862 204.474 235.999 204.369 236.162C204.265 236.326 204.201 236.513 204.184 236.707V237.311C204.185 237.449 204.158 237.586 204.106 237.714C204.054 237.843 203.977 237.959 203.88 238.057C203.782 238.155 203.667 238.233 203.54 238.286C203.412 238.339 203.276 238.367 203.138 238.367H201.334C201.196 238.368 201.058 238.341 200.93 238.288C200.802 238.235 200.686 238.158 200.588 238.059C200.491 237.961 200.413 237.844 200.361 237.716C200.308 237.587 200.281 237.45 200.282 237.311V236.707C200.286 236.104 200.47 235.515 200.811 235.018C201.171 234.488 201.633 234.037 202.17 233.69C203.422 232.905 204.869 232.489 206.345 232.489C207.822 232.489 209.268 232.905 210.521 233.69C210.813 233.885 211.087 234.108 211.338 234.354H211.404Z" fill="white"/>
<path d="M256.423 213.28H283.549C287.975 213.28 291.563 209.679 291.563 205.236V167.446C291.563 163.004 287.975 159.402 283.549 159.402H256.423C251.997 159.402 248.408 163.004 248.408 167.446V205.236C248.408 209.679 251.997 213.28 256.423 213.28Z" fill="#F6F5FF" stroke="#6349A0" stroke-miterlimit="10"/>
<mask id="mask1" style="mask-type:alpha" maskUnits="userSpaceOnUse" x="248" y="158" width="45" height="55">
<path d="M257.08 212.273H283.699C288.042 212.273 291.563 208.738 291.563 204.379V167.296C291.563 162.936 288.042 159.402 283.699 159.402H257.08C252.737 159.402 249.216 162.936 249.216 167.296V204.379C249.216 208.738 252.737 212.273 257.08 212.273Z" fill="#F6F5FF" stroke="#6349A0" stroke-miterlimit="10"/>
</mask>
<g mask="url(#mask1)">
<path d="M288.785 220.309L277.528 221.493C277.528 221.493 277.015 212.231 277.015 207.813C277.015 202.484 277.469 195.549 278.112 195.697C279.924 196.118 282.36 197.119 283.811 199.12C288.832 205.989 288.785 220.309 288.785 220.309Z" fill="#F7A09C"/>
<path d="M256.16 223.021C256.144 221.751 256.051 220.483 255.883 219.225C255.352 216.418 254.703 197.746 256.502 197.225C259.082 196.428 261.728 195.863 264.408 195.537C266.891 195.283 276.537 195.129 278.26 195.709C280.932 198.874 282.664 202.73 283.257 206.836C283.345 207.476 284.053 214.576 284.891 223.021H256.16Z" fill="#EC665A"/>
<path d="M241.871 216.057L251.623 222.63C251.623 222.63 257.116 214.416 260.065 211.497C263.764 207.837 258.72 196.621 256.343 197.255C251.015 198.694 241.871 216.057 241.871 216.057Z" fill="#F7A09C"/>
<path d="M273.239 166.97C273.239 166.97 269.9 163.417 267.21 167.734C266.615 167.407 265.918 167.319 265.26 167.488C264.603 167.657 264.035 168.071 263.67 168.646C263.67 168.646 259.93 167.515 259.021 173.129C259.021 173.129 257.098 172.762 256.844 175.06C256.683 176.403 257.005 177.759 257.753 178.885C257.753 178.885 256.673 179.702 257.163 181.81C257.25 182.301 257.476 182.757 257.812 183.124C258.149 183.491 258.583 183.755 259.063 183.883C259.063 183.883 259.458 186.909 260.767 187.815C261.699 188.36 262.802 188.529 263.853 188.289C263.853 188.289 264.325 189.929 265.853 189.787C267.381 189.645 269.263 188.182 270.968 188.84C272.673 189.497 277.133 188.816 277.133 188.816C277.133 188.816 282.106 186.589 280.614 181.485C280.614 181.485 283.233 179.116 280.944 176.274C280.944 176.274 282.614 171.826 279.31 169.203C276.006 166.579 273.239 166.97 273.239 166.97Z" fill="#1A1A1A"/>
<path d="M272.673 190.972L273.263 195.478C273.263 195.478 274.614 201.992 272.873 203.212C271.133 204.432 265.464 195.289 265.464 195.289L266.054 183.877L272.673 190.972Z" fill="#F5BD9B"/>
<path d="M265.883 187.578C267.322 191.469 270.756 193.861 273.186 194.791L272.673 190.972L266.077 183.865L265.883 187.578Z" fill="#E47B60"/>
<path d="M256.803 176.125C256.803 177.861 257.788 179.27 259.004 179.27C260.219 179.27 261.204 177.861 261.204 176.125C261.204 174.39 260.219 172.975 259.004 172.975C257.788 172.975 256.803 174.384 256.803 176.125Z" fill="#1A1A1A"/>
<path d="M266.077 171.169C267.556 171.169 268.756 170.36 268.756 169.363C268.756 168.365 267.556 167.556 266.077 167.556C264.598 167.556 263.399 168.365 263.399 169.363C263.399 170.36 264.598 171.169 266.077 171.169Z" fill="#1A1A1A"/>
<path d="M270.107 171.891C270.936 171.611 271.817 171.516 272.687 171.613C273.557 171.711 274.395 171.998 275.143 172.455C275.891 172.912 276.53 173.528 277.015 174.259C277.501 174.99 277.821 175.819 277.953 176.688C278.239 178.6 278.401 180.529 278.437 182.462C278.531 187.726 275.823 192.843 273.44 192.843C271.057 192.843 264.484 189.438 264.248 181.97C264.101 177.363 266.396 173.17 270.107 171.891Z" fill="#F5BD9B"/>
<path d="M266.001 182.563C266.001 183.747 265.234 184.665 264.29 184.665C263.346 184.665 262.579 183.723 262.579 182.563C262.579 181.402 263.346 180.46 264.29 180.46C265.234 180.46 266.001 181.402 266.001 182.563Z" fill="#F5BD9B"/>
<path d="M280.413 169.274C282.874 171.228 283.735 174.195 282.337 175.906C280.938 177.618 277.818 177.416 275.363 175.462C272.909 173.508 272.042 170.535 273.44 168.83C274.838 167.124 277.959 167.32 280.413 169.274Z" fill="#1A1A1A"/>
<path d="M273.988 170.879C273.988 171.725 272.968 172.412 271.705 172.412C270.443 172.412 269.422 171.725 269.422 170.879C269.422 170.032 270.449 169.339 271.705 169.339C272.962 169.339 273.988 170.026 273.988 170.879Z" fill="#1A1A1A"/>
<path d="M280.779 177.41C280.774 177.796 280.656 178.171 280.439 178.49C280.223 178.808 279.917 179.055 279.561 179.199C279.205 179.343 278.814 179.379 278.438 179.301C278.062 179.222 277.717 179.035 277.447 178.76C277.177 178.486 276.994 178.138 276.921 177.759C276.848 177.381 276.888 176.989 277.036 176.634C277.184 176.278 277.433 175.974 277.753 175.76C278.072 175.547 278.448 175.433 278.832 175.433C279.089 175.434 279.344 175.487 279.581 175.587C279.818 175.687 280.033 175.833 280.214 176.017C280.394 176.2 280.537 176.418 280.634 176.657C280.731 176.896 280.781 177.152 280.779 177.41Z" fill="#1A1A1A"/>
<path d="M275.953 187.069L271.298 187.259C271.365 187.787 271.635 188.269 272.05 188.601C272.466 188.933 272.994 189.089 273.522 189.035C276.006 188.976 275.953 187.069 275.953 187.069Z" fill="#EFFAFD"/>
</g>
<path d="M57.6699 41.6519H32.1668C27.2925 41.6519 23.3411 45.6182 23.3411 50.5109V86.6712C23.3411 91.5639 27.2925 95.5302 32.1668 95.5302H57.6699C62.5442 95.5302 66.4956 91.5639 66.4956 86.6712V50.5109C66.4956 45.6182 62.5442 41.6519 57.6699 41.6519Z" stroke="#6349A0" stroke-miterlimit="10"/>
<path d="M57.6699 41.6519H32.1668C27.2925 41.6519 23.3411 45.6182 23.3411 50.5109V86.6712C23.3411 91.5639 27.2925 95.5302 32.1668 95.5302H57.6699C62.5442 95.5302 66.4956 91.5639 66.4956 86.6712V50.5109C66.4956 45.6182 62.5442 41.6519 57.6699 41.6519Z" fill="white" stroke="#6349A0" stroke-miterlimit="10"/>
<mask id="mask2" style="mask-type:alpha" maskUnits="userSpaceOnUse" x="22" y="41" width="45" height="56">
<path d="M58.4816 41.6519H31.3551C26.9291 41.6519 23.3411 45.2535 23.3411 49.6962V87.4859C23.3411 91.9286 26.9291 95.5302 31.3551 95.5302H58.4816C62.9076 95.5302 66.4956 91.9286 66.4956 87.4859V49.6962C66.4956 45.2535 62.9076 41.6519 58.4816 41.6519Z" fill="#F6F5FF" stroke="#6349A0" stroke-miterlimit="10"/>
</mask>
<g mask="url(#mask2)">
<path d="M58.1028 65.0969C58.0734 61.0538 57.0402 57.0819 55.0967 53.5404C53.3472 50.4264 49.4214 48.8574 45.9464 49.0867C34.9263 49.8109 34.5236 64.5176 27.8562 70.6248C25.8241 72.4895 23.5214 74.0525 21.6156 76.0561C14.5815 83.4185 18.8021 95.8923 26.0766 101.444C31.1268 105.3 38.78 107.171 44.4494 103.514C47.4073 101.607 49.5477 98.62 51.0026 95.4035C53.0648 90.8472 54.2491 85.6694 55.6138 80.8658C57.0868 75.7362 58.235 70.4377 58.1028 65.0969Z" fill="black"/>
<path d="M41.8403 78.0415C41.8403 78.0415 31.8903 79.0976 29.251 81.8917L35.7139 117.062C35.7139 117.062 47.9847 118.873 55.8124 116.193C55.8124 116.193 60.2192 87.9988 56.2512 81.089C54.9286 78.7838 48.8985 78.6751 48.8985 78.6751L41.8403 78.0415Z" fill="#F9C941"/>
<path d="M88.8787 63.4253C88.5119 62.6468 85.2714 64.9521 84.5139 64.5116C83.7564 64.071 87.4418 60.3778 87.069 59.726C86.3837 58.519 82.8184 63.5339 82.4697 63.0029C82.121 62.4718 85.5419 57.1431 84.3215 56.8474C83.101 56.5517 81.3455 62.7494 80.7143 62.3511C80.083 61.9528 82.8546 56.7388 81.6762 55.6767C81.039 55.1094 78.069 65.1935 76.9808 65.6099C75.8926 66.0263 74.6782 61.6269 73.6621 61.802C72.6461 61.977 76.9988 69.9006 76.7884 70.5161C76.5779 71.1317 72.58 84.0702 70.2293 87.9807C68.8104 87.2988 67.4336 86.6169 66.117 85.947C65.5879 88.9644 64.3674 91.5714 63.676 94.5164C68.2452 96.532 73.4817 98.5295 74.8044 98.0407C78.8445 96.5501 80.8165 76.8587 81.4898 73.1895C82.1632 69.5204 83.8645 68.7902 84.8505 66.8591C85.8365 64.928 89.2454 64.2038 88.8787 63.4253Z" fill="#F5BD9B"/>
<path d="M54.201 79.7855L48.3333 86.8462C48.3333 86.8462 56.7502 92.543 64.3254 95.8983C65.0228 92.9534 66.7301 88.3368 67.2652 85.3375C63.0221 83.2326 58.6599 81.3788 54.201 79.7855Z" fill="#F9C941"/>
<path d="M0.302837 62.7011C0.669573 61.9166 3.94014 64.2279 4.6676 63.7874C5.39506 63.3469 1.72168 59.6294 2.10646 59.026C2.79784 57.819 6.35693 62.8339 6.71164 62.3028C7.06635 61.7718 3.63958 56.4431 4.86003 56.1474C6.08048 55.8517 7.86606 62.0494 8.46727 61.6511C9.06847 61.2528 6.3209 56.0388 7.50528 54.9766C8.13654 54.4094 11.1125 64.4934 12.2007 64.9098C13.2889 65.3262 14.4974 60.9269 15.5194 61.1019C16.5415 61.2769 12.1827 69.2006 12.3932 69.8161C12.6036 70.4316 16.6016 83.3702 18.9523 87.2807C20.3651 86.5988 21.7479 85.9168 23.0646 85.247C23.5936 88.2644 25.0064 91.0886 25.7038 94.0336C21.1346 96.0492 15.6997 97.8294 14.371 97.3406C10.3309 95.844 8.35903 76.1586 7.69169 72.4895C7.02435 68.8204 5.28681 68.0902 4.33089 66.159C3.37497 64.2279 -0.0759232 63.4796 0.302837 62.7011Z" fill="#F5BD9B"/>
<path d="M35.4553 79.17L36.5134 95.156C36.5134 95.156 32.4192 91.8188 24.838 95.156C24.1466 92.2111 22.4331 87.5945 21.9041 84.5952C26.2842 82.4597 30.8132 80.6465 35.4553 79.17Z" fill="#F9C941"/>
<path d="M42.3331 67.6496C42.3331 67.6496 42.3332 67.8729 42.261 68.2531C42.0506 70.0635 41.1547 76.1767 40.3912 77.9087C39.4713 79.9726 44.5516 86.0194 48.9885 84.9452C50.3051 84.6254 47.4675 79.176 47.5517 78.5725C47.702 77.4199 47.9063 75.8448 48.1107 74.2336C48.231 73.3223 48.3513 72.4231 48.4595 71.536C48.7781 69.0678 49.0607 67.0522 49.0607 67.0522L42.3331 67.6496Z" fill="#F5BD9B"/>
<path d="M42.0746 69.7135L42.1408 69.11L48.8502 68.5066C48.8502 68.5066 48.5917 70.5222 48.249 72.9844C48.1348 73.8473 48.0205 74.7646 47.9002 75.6698C46.6847 75.5376 45.5337 75.0533 44.5876 74.2758C43.4011 73.3734 42.4704 72.175 41.8882 70.7998C41.9663 70.3532 42.0385 69.9971 42.0746 69.7135Z" fill="#E47B60"/>
<path d="M45.9584 52.2007C44.9216 52.1904 43.8978 52.4313 42.9736 52.9031C42.0494 53.3748 41.2523 54.0633 40.6498 54.9103C38.7259 57.7768 37.0425 66.3763 42.5496 70.6006C48.0566 74.825 52.9083 69.2971 53.3111 63.7452C53.7139 58.1932 53.5636 51.4946 45.9584 52.2007Z" fill="#F5BD9B"/>
<path d="M54.8502 63.5581C54.3091 64.8133 53.3051 65.5616 52.6077 65.2176C51.9103 64.8737 51.7961 63.5822 52.3372 62.327C52.8783 61.0718 53.8823 60.3234 54.5797 60.6674C55.2771 61.0114 55.3913 62.3028 54.8502 63.5581Z" fill="#F5BD9B"/>
<path d="M46.277 51.2773C46.277 51.2773 42.3211 59.5993 39.1347 60.1846C35.9484 60.77 35.8101 65.0607 35.8101 65.0607C35.8101 65.0607 36.309 55.1577 39.3631 53.0516C42.4173 50.9454 46.277 51.2773 46.277 51.2773Z" fill="black"/>
<path d="M40.1086 62.1399C40.4694 63.546 40.0306 64.8918 39.1348 65.1573C38.239 65.4228 37.2229 64.4633 36.8682 63.0572C36.5135 61.6511 36.9463 60.3114 37.8421 60.0398C38.7379 59.7682 39.7539 60.7338 40.1086 62.1399Z" fill="#F5BD9B"/>
<path d="M49.3191 66.7504L44.1487 66.3642C44.1642 66.953 44.4067 67.5127 44.8249 67.9257C45.2431 68.3388 45.8045 68.5729 46.3912 68.579C49.1567 68.8626 49.3191 66.7504 49.3191 66.7504Z" fill="#EFFAFD"/>
</g>
<path d="M57.6699 41.6519H32.1668C27.2925 41.6519 23.3411 45.6182 23.3411 50.5109V86.6712C23.3411 91.5639 27.2925 95.5302 32.1668 95.5302H57.6699C62.5442 95.5302 66.4956 91.5639 66.4956 86.6712V50.5109C66.4956 45.6182 62.5442 41.6519 57.6699 41.6519Z" stroke="#6349A0" stroke-miterlimit="10"/>
<path d="M124.277 83.8619L94.9397 78.1698L88.1018 113.679L117.439 119.371L124.277 83.8619Z" fill="#CECEF2"/>
<path d="M118.139 99.0183L102.586 96.0009C102.387 95.9625 102.211 95.8462 102.097 95.6776C101.983 95.5089 101.941 95.3018 101.979 95.1017C102.017 94.9017 102.133 94.725 102.301 94.6107C102.469 94.4964 102.675 94.4538 102.875 94.4922L118.428 97.5096C118.627 97.548 118.803 97.6643 118.917 97.8329C119.031 98.0016 119.073 98.2087 119.035 98.4088C118.997 98.6088 118.881 98.7854 118.713 98.8997C118.545 99.0141 118.339 99.0567 118.139 99.0183Z" fill="white"/>
<path d="M117.382 102.923L101.828 99.9054C101.629 99.867 101.453 99.7507 101.339 99.582C101.225 99.4134 101.183 99.2063 101.221 99.0062C101.26 98.8062 101.375 98.6296 101.543 98.5152C101.711 98.4009 101.918 98.3583 102.117 98.3967L117.67 101.414C117.869 101.452 118.046 101.569 118.159 101.737C118.273 101.906 118.316 102.113 118.277 102.313C118.239 102.513 118.123 102.69 117.955 102.804C117.787 102.919 117.581 102.961 117.382 102.923Z" fill="white"/>
<path d="M116.612 106.936L101.053 103.919C100.861 103.872 100.693 103.752 100.587 103.585C100.48 103.417 100.441 103.215 100.479 103.02C100.517 102.825 100.629 102.652 100.79 102.537C100.952 102.422 101.152 102.375 101.348 102.404L116.901 105.421C117.091 105.47 117.256 105.589 117.361 105.755C117.466 105.921 117.504 106.122 117.467 106.315C117.431 106.508 117.322 106.68 117.163 106.796C117.004 106.911 116.807 106.961 116.612 106.936Z" fill="white"/>
<path d="M107.606 82.7425C107.559 82.9924 107.439 83.2225 107.261 83.4038C107.083 83.5851 106.856 83.7093 106.608 83.7609C106.36 83.8124 106.102 83.7889 105.867 83.6933C105.632 83.5978 105.431 83.4344 105.289 83.224C105.146 83.0136 105.069 82.7655 105.068 82.5111C105.066 82.2568 105.139 82.0077 105.279 81.7953C105.418 81.5828 105.617 81.4167 105.85 81.3178C106.084 81.219 106.341 81.1918 106.59 81.2399C106.923 81.3042 107.217 81.4986 107.408 81.7803C107.598 82.062 107.67 82.4081 107.606 82.7425Z" fill="#B7B7ED"/>
<path d="M165.382 184.163C165.383 185.249 165.063 186.311 164.463 187.215C163.863 188.119 163.008 188.824 162.009 189.241C161.009 189.657 159.909 189.767 158.848 189.556C157.786 189.344 156.81 188.822 156.045 188.054C155.279 187.286 154.757 186.308 154.546 185.242C154.334 184.177 154.442 183.072 154.856 182.069C155.27 181.065 155.971 180.207 156.871 179.603C157.771 178.999 158.829 178.677 159.911 178.677C161.361 178.677 162.752 179.255 163.778 180.283C164.803 181.312 165.381 182.707 165.382 184.163Z" fill="#5ABC3F"/>
<path d="M159.37 186.039C159.333 186.041 159.297 186.033 159.263 186.017C159.23 186.002 159.2 185.978 159.178 185.949L157.693 184.259C157.664 184.234 157.641 184.202 157.625 184.167C157.609 184.132 157.601 184.094 157.601 184.055C157.601 184.017 157.609 183.979 157.625 183.944C157.641 183.908 157.664 183.877 157.693 183.852C157.722 183.826 157.755 183.807 157.792 183.796C157.829 183.784 157.868 183.781 157.906 183.786C157.944 183.791 157.98 183.804 158.013 183.824C158.046 183.844 158.074 183.871 158.095 183.903L159.394 185.382L162.364 182.467C162.389 182.442 162.418 182.423 162.451 182.41C162.483 182.397 162.518 182.39 162.553 182.39C162.587 182.391 162.622 182.398 162.654 182.411C162.686 182.425 162.715 182.445 162.74 182.47C162.764 182.495 162.784 182.524 162.797 182.557C162.81 182.589 162.816 182.624 162.816 182.659C162.816 182.694 162.809 182.729 162.795 182.761C162.781 182.793 162.762 182.823 162.737 182.847L159.562 185.967C159.537 185.992 159.507 186.011 159.474 186.023C159.441 186.036 159.405 186.041 159.37 186.039Z" fill="white"/>
</g>
<defs>
<clipPath id="clip0">
<rect width="316" height="266" fill="white" transform="translate(0.260742)"/>
</clipPath>
</defs>
</svg>
