<svg width="62" height="63" viewBox="0 0 62 63" fill="none" xmlns="http://www.w3.org/2000/svg">
<circle cx="31" cy="31.9675" r="31" fill="#6349A0"/>
<path d="M33.4144 33.6351C32.5027 33.293 31.498 33.293 30.5864 33.6351C30.4649 33.6835 30.3673 33.7775 30.3143 33.8971C30.2614 34.0166 30.2574 34.1521 30.3031 34.2746C30.3489 34.397 30.4408 34.4967 30.5592 34.5522C30.6775 34.6077 30.8129 34.6147 30.9364 34.5716C31.6212 34.3136 32.3765 34.3136 33.0614 34.5716C33.1848 34.6147 33.3202 34.6077 33.4385 34.5522C33.5569 34.4967 33.6488 34.397 33.6946 34.2746C33.7404 34.1521 33.7363 34.0166 33.6834 33.8971C33.6305 33.7775 33.5328 33.6835 33.4114 33.6351H33.4144Z" fill="white"/>
<path d="M34.6117 32.0266C33.8048 31.6082 32.9092 31.3898 32.0002 31.3898C31.0913 31.3898 30.1957 31.6082 29.3888 32.0266C29.2748 32.0897 29.1899 32.1947 29.1523 32.3194C29.1146 32.4441 29.127 32.5785 29.1869 32.6941C29.2469 32.8098 29.3496 32.8975 29.4732 32.9385C29.5968 32.9796 29.7315 32.9708 29.8488 32.9141C30.5138 32.5701 31.2515 32.3906 32.0002 32.3906C32.7489 32.3906 33.4867 32.5701 34.1517 32.9141C34.269 32.9708 34.4037 32.9796 34.5273 32.9385C34.6509 32.8975 34.7536 32.8098 34.8135 32.6941C34.8735 32.5785 34.8859 32.4441 34.8482 32.3194C34.8106 32.1947 34.7257 32.0897 34.6117 32.0266Z" fill="white"/>
<path d="M28.7598 31.3002C29.736 30.7052 30.8571 30.3904 32.0003 30.3904C33.1435 30.3904 34.2646 30.7052 35.2408 31.3002C35.3542 31.369 35.4904 31.3899 35.6193 31.3584C35.7481 31.3268 35.8592 31.2454 35.928 31.1319C35.9969 31.0185 36.0178 30.8823 35.9862 30.7535C35.9547 30.6246 35.8732 30.5135 35.7598 30.4447C34.6272 29.7547 33.3265 29.3898 32.0003 29.3898C30.6741 29.3898 29.3734 29.7547 28.2408 30.4447C28.1274 30.5135 28.0459 30.6246 28.0144 30.7535C27.9828 30.8823 28.0037 31.0185 28.0726 31.1319C28.1414 31.2454 28.2525 31.3268 28.3813 31.3584C28.5102 31.3899 28.6464 31.369 28.7598 31.3002Z" fill="white"/>
<path d="M20.0002 35.0001C20.3569 34.9995 20.7105 34.9348 21.0442 34.8091L24.1322 40.1591C23.7504 40.4617 23.448 40.8527 23.2512 41.2983C23.0544 41.744 22.9691 42.2308 23.0026 42.7169C23.0361 43.2029 23.1875 43.6734 23.4437 44.0878C23.6999 44.5022 24.0531 44.848 24.4729 45.0952C24.8926 45.3425 25.3663 45.4838 25.8529 45.5069C26.3395 45.5301 26.8245 45.4344 27.2658 45.2281C27.7072 45.0218 28.0916 44.7112 28.386 44.323C28.6803 43.9348 28.8757 43.4807 28.9552 43.0001H35.0452C35.1252 43.4805 35.321 43.9342 35.6155 44.3221C35.9101 44.7099 36.2947 45.0202 36.736 45.2261C37.1774 45.432 37.6622 45.5274 38.1487 45.504C38.6352 45.4806 39.1086 45.3391 39.5281 45.0918C39.9477 44.8444 40.3007 44.4986 40.5567 44.0843C40.8127 43.67 40.9639 43.1996 40.9974 42.7137C41.0309 42.2278 40.9456 41.7411 40.7489 41.2956C40.5521 40.8501 40.2499 40.4592 39.8682 40.1566L42.9562 34.8091C43.4101 34.9793 43.8985 35.037 44.3795 34.9772C44.8606 34.9174 45.32 34.742 45.7184 34.4659C46.1168 34.1898 46.4424 33.8212 46.6672 33.3918C46.8921 32.9624 47.0096 32.4848 47.0096 32.0001C47.0096 31.5154 46.8921 31.0378 46.6672 30.6084C46.4424 30.179 46.1168 29.8104 45.7184 29.5343C45.32 29.2582 44.8606 29.0828 44.3795 29.023C43.8985 28.9632 43.4101 29.0209 42.9562 29.1911L39.8682 23.8411C40.2501 23.5385 40.5524 23.1475 40.7493 22.7019C40.9461 22.2562 41.0314 21.7694 40.9979 21.2833C40.9643 20.7973 40.8129 20.3268 40.5568 19.9124C40.3006 19.498 39.9474 19.1523 39.5276 18.905C39.1079 18.6577 38.6342 18.5164 38.1476 18.4933C37.661 18.4701 37.176 18.5658 36.7347 18.7721C36.2933 18.9784 35.9089 19.289 35.6145 19.6772C35.3202 20.0654 35.1248 20.5195 35.0452 21.0001H28.9552C28.8753 20.5197 28.6795 20.066 28.3849 19.6781C28.0904 19.2903 27.7058 18.98 27.2644 18.7741C26.8231 18.5682 26.3383 18.4728 25.8518 18.4962C25.3653 18.5196 24.8919 18.6611 24.4723 18.9085C24.0528 19.1558 23.6998 19.5016 23.4438 19.9159C23.1878 20.3302 23.0366 20.8006 23.0031 21.2865C22.9696 21.7724 23.0549 22.2591 23.2516 22.7046C23.4484 23.1501 23.7506 23.541 24.1322 23.8436L21.0442 29.1936C20.6324 29.0381 20.1913 28.9751 19.7524 29.0091C19.3134 29.0432 18.8874 29.1734 18.5044 29.3906C18.1214 29.6078 17.791 29.9066 17.5365 30.2659C17.282 30.6251 17.1096 31.0359 17.0317 31.4693C16.9538 31.9026 16.9722 32.3477 17.0857 32.7731C17.1991 33.1985 17.4048 33.5937 17.6881 33.9307C17.9714 34.2677 18.3254 34.5382 18.725 34.723C19.1246 34.9078 19.56 35.0024 20.0002 35.0001ZM21.9117 34.3106C22.4651 33.8515 22.8354 33.2091 22.9552 32.5001H26.0237C26.0937 33.3813 26.3594 34.2358 26.8015 35.0013C27.2436 35.7668 27.851 36.4241 28.5792 36.9251L26.9932 39.6726C26.3512 39.4426 25.6493 39.4426 25.0072 39.6726L21.9117 34.3106ZM27.0002 32.0001C27.0006 30.8357 27.4073 29.708 28.1502 28.8114C28.8931 27.9148 29.9256 27.3056 31.0697 27.0889C32.2137 26.8722 33.3975 27.0616 34.4168 27.6243C35.4362 28.1871 36.2272 29.088 36.6533 30.1716C37.0795 31.2552 37.1141 32.4535 36.7512 33.5599C36.3883 34.6663 35.6506 35.6113 34.6655 36.232C33.6803 36.8526 32.5094 37.11 31.3548 36.9597C30.2001 36.8094 29.1342 36.2608 28.3407 35.4086C27.4767 34.4842 26.9974 33.2654 27.0002 32.0001ZM26.0002 44.5001C25.6047 44.5001 25.218 44.3828 24.8891 44.163C24.5602 43.9433 24.3039 43.6309 24.1525 43.2655C24.0011 42.9 23.9615 42.4979 24.0387 42.1099C24.1158 41.722 24.3063 41.3656 24.586 41.0859C24.8657 40.8062 25.2221 40.6157 25.6101 40.5385C25.998 40.4614 26.4002 40.501 26.7656 40.6523C27.1311 40.8037 27.4434 41.0601 27.6632 41.389C27.8829 41.7179 28.0002 42.1045 28.0002 42.5001C28.0002 43.0305 27.7895 43.5392 27.4145 43.9143C27.0394 44.2894 26.5307 44.5001 26.0002 44.5001ZM35.0452 42.0001H28.9552C28.8319 41.2729 28.4449 40.6166 27.8682 40.1566L29.4482 37.4206C30.2449 37.8021 31.117 38.0001 32.0002 38.0001C32.8835 38.0001 33.7556 37.8021 34.5522 37.4206L36.1322 40.1566C35.5556 40.6166 35.1686 41.2729 35.0452 42.0001ZM40.0002 42.5001C40.0002 42.8957 39.8829 43.2823 39.6632 43.6112C39.4434 43.9401 39.1311 44.1965 38.7656 44.3479C38.4002 44.4992 37.998 44.5388 37.6101 44.4617C37.2221 44.3845 36.8657 44.194 36.586 43.9143C36.3063 43.6346 36.1158 43.2782 36.0387 42.8903C35.9615 42.5023 36.0011 42.1002 36.1525 41.7347C36.3039 41.3693 36.5602 41.0569 36.8891 40.8372C37.218 40.6174 37.6047 40.5001 38.0002 40.5001C38.5307 40.5001 39.0394 40.7108 39.4145 41.0859C39.7895 41.461 40.0002 41.9697 40.0002 42.5001ZM38.9932 39.6726C38.3512 39.4426 37.6493 39.4426 37.0072 39.6726L35.4212 36.9251C36.1495 36.4241 36.7569 35.7668 37.1989 35.0013C37.641 34.2358 37.9068 33.3813 37.9767 32.5001H41.0452C41.1651 33.2091 41.5354 33.8515 42.0887 34.3106L38.9932 39.6726ZM44.0002 30.0001C44.3958 30.0001 44.7825 30.1174 45.1114 30.3372C45.4403 30.5569 45.6966 30.8693 45.848 31.2347C45.9994 31.6002 46.039 32.0023 45.9618 32.3903C45.8846 32.7782 45.6942 33.1346 45.4145 33.4143C45.1348 33.694 44.7784 33.8845 44.3904 33.9617C44.0025 34.0388 43.6003 33.9992 43.2349 33.8479C42.8694 33.6965 42.5571 33.4401 42.3373 33.1112C42.1175 32.7823 42.0002 32.3957 42.0002 32.0001C42.0002 31.4697 42.211 30.961 42.586 30.5859C42.9611 30.2108 43.4698 30.0001 44.0002 30.0001ZM42.0887 29.6896C41.5354 30.1487 41.1651 30.7911 41.0452 31.5001H37.9767C37.9068 30.6189 37.641 29.7644 37.1989 28.9989C36.7569 28.2334 36.1495 27.5761 35.4212 27.0751L37.0072 24.3276C37.6493 24.5576 38.3512 24.5576 38.9932 24.3276L42.0887 29.6896ZM38.0002 19.5001C38.3958 19.5001 38.7825 19.6174 39.1114 19.8372C39.4403 20.0569 39.6966 20.3693 39.848 20.7347C39.9994 21.1002 40.039 21.5023 39.9618 21.8903C39.8846 22.2782 39.6942 22.6346 39.4145 22.9143C39.1348 23.194 38.7784 23.3845 38.3904 23.4617C38.0025 23.5388 37.6003 23.4992 37.2349 23.3479C36.8694 23.1965 36.5571 22.9401 36.3373 22.6112C36.1175 22.2823 36.0002 21.8957 36.0002 21.5001C36.0002 20.9697 36.211 20.461 36.586 20.0859C36.9611 19.7108 37.4698 19.5001 38.0002 19.5001ZM28.9552 22.0001H35.0452C35.1686 22.7273 35.5556 23.3836 36.1322 23.8436L34.5502 26.5796C33.7536 26.1981 32.8815 26.0001 31.9982 26.0001C31.115 26.0001 30.2429 26.1981 29.4462 26.5796L27.8662 23.8436C28.4436 23.384 28.8314 22.7276 28.9552 22.0001ZM24.0002 21.5001C24.0002 21.1045 24.1175 20.7179 24.3373 20.389C24.5571 20.0601 24.8694 19.8037 25.2349 19.6523C25.6003 19.501 26.0025 19.4614 26.3904 19.5385C26.7784 19.6157 27.1348 19.8062 27.4145 20.0859C27.6942 20.3656 27.8846 20.722 27.9618 21.1099C28.039 21.4979 27.9994 21.9 27.848 22.2655C27.6966 22.6309 27.4403 22.9433 27.1114 23.163C26.7825 23.3828 26.3958 23.5001 26.0002 23.5001C25.4698 23.5001 24.9611 23.2894 24.586 22.9143C24.211 22.5392 24.0002 22.0305 24.0002 21.5001ZM25.0072 24.3276C25.6493 24.5576 26.3512 24.5576 26.9932 24.3276L28.5792 27.0751C27.851 27.5761 27.2436 28.2334 26.8015 28.9989C26.3594 29.7644 26.0937 30.6189 26.0237 31.5001H22.9552C22.8354 30.7911 22.4651 30.1487 21.9117 29.6896L25.0072 24.3276ZM20.0002 30.0001C20.3958 30.0001 20.7825 30.1174 21.1114 30.3372C21.4403 30.5569 21.6966 30.8693 21.848 31.2347C21.9994 31.6002 22.039 32.0023 21.9618 32.3903C21.8846 32.7782 21.6942 33.1346 21.4145 33.4143C21.1348 33.694 20.7784 33.8845 20.3904 33.9617C20.0025 34.0388 19.6003 33.9992 19.2349 33.8479C18.8694 33.6965 18.5571 33.4401 18.3373 33.1112C18.1175 32.7823 18.0002 32.3957 18.0002 32.0001C18.0002 31.4697 18.211 30.961 18.586 30.5859C18.9611 30.2108 19.4698 30.0001 20.0002 30.0001Z" fill="white"/>
</svg>
