<svg width="62" height="63" viewBox="0 0 62 63" fill="none" xmlns="http://www.w3.org/2000/svg">
<circle cx="31" cy="31.9675" r="31" fill="#6349A0"/>
<path d="M43.0625 21.4374H20.9375C20.4197 21.4374 20 21.8571 20 22.3749V37.3749C20 37.8927 20.4197 38.3124 20.9375 38.3124H28.4454L27.3424 42.5776C27.2127 43.0789 27.514 43.5904 28.0153 43.72C28.5187 43.8503 29.0285 43.5462 29.1576 43.0471L30.3822 38.3124H33.6178L34.8424 43.0471C34.9714 43.546 35.4811 43.8503 35.9847 43.72C36.486 43.5904 36.7873 43.0789 36.6576 42.5776L35.5546 38.3124H43.0625C43.5803 38.3124 44 37.8927 44 37.3749V22.3749C44 21.8571 43.5803 21.4374 43.0625 21.4374ZM42.125 36.4374H21.875V23.3124H42.125V36.4374Z" fill="white"/>
</svg>
