<svg width="62" height="62" viewBox="0 0 62 62" fill="none" xmlns="http://www.w3.org/2000/svg">
<circle cx="31" cy="31" r="31" fill="#6349A0"/>
<path d="M40.2031 29.9512H37.7422V23.9473C37.7422 20.6679 35.1662 18 32 18C28.8338 18 26.2578 20.6679 26.2578 23.9473V29.9512H23.7969C23.3438 29.9512 22.9766 30.3316 22.9766 30.8008V32.5C22.9766 37.3668 26.5872 41.376 31.1797 41.8067V45.3008H27.0781C26.6251 45.3008 26.2578 45.6812 26.2578 46.1504C26.2578 46.6196 26.6251 47 27.0781 47H36.9219C37.3749 47 37.7422 46.6196 37.7422 46.1504C37.7422 45.6812 37.3749 45.3008 36.9219 45.3008H32.8203V41.8067C37.4128 41.376 41.0234 37.3668 41.0234 32.5V30.8008C41.0234 30.3316 40.6562 29.9512 40.2031 29.9512ZM27.8984 23.9473C27.8984 21.6049 29.7384 19.6992 32 19.6992C34.2616 19.6992 36.1016 21.6049 36.1016 23.9473V32.5C36.1016 34.8424 34.2616 36.748 32 36.748C29.7384 36.748 27.8984 34.8424 27.8984 32.5V23.9473ZM39.3828 32.5C39.3828 36.7163 36.0709 40.1465 32 40.1465C27.9291 40.1465 24.6172 36.7163 24.6172 32.5V31.6504H26.2578V32.5C26.2578 35.7793 28.8338 38.4473 32 38.4473C35.1662 38.4473 37.7422 35.7793 37.7422 32.5V31.6504H39.3828V32.5Z" fill="white"/>
<path d="M23.7969 26.5527C24.2499 26.5527 24.6172 26.1723 24.6172 25.7031V21.4551C24.6172 20.9859 24.2499 20.6055 23.7969 20.6055C23.3438 20.6055 22.9766 20.9859 22.9766 21.4551V25.7031C22.9766 26.1723 23.3438 26.5527 23.7969 26.5527Z" fill="white"/>
<path d="M20.5156 18C20.0626 18 19.6953 18.3804 19.6953 18.8496V28.252C19.6953 28.7212 20.0626 29.1016 20.5156 29.1016C20.9687 29.1016 21.3359 28.7212 21.3359 28.252V18.8496C21.3359 18.3804 20.9687 18 20.5156 18Z" fill="white"/>
<path d="M40.2031 20.6055C39.7501 20.6055 39.3828 20.9859 39.3828 21.4551V25.7031C39.3828 26.1723 39.7501 26.5527 40.2031 26.5527C40.6562 26.5527 41.0234 26.1723 41.0234 25.7031V21.4551C41.0234 20.9859 40.6562 20.6055 40.2031 20.6055Z" fill="white"/>
<path d="M43.4844 18C43.0313 18 42.6641 18.3804 42.6641 18.8496V28.252C42.6641 28.7212 43.0313 29.1016 43.4844 29.1016C43.9374 29.1016 44.3047 28.7212 44.3047 28.252V18.8496C44.3047 18.3804 43.9374 18 43.4844 18Z" fill="white"/>
</svg>
