<svg width="63" height="62" viewBox="0 0 63 62" fill="none" xmlns="http://www.w3.org/2000/svg">
<circle cx="31.5674" cy="31" r="31" fill="#6349A0"/>
<path d="M35.75 28.5C37.1288 28.5 38.25 27.3788 38.25 26C38.25 24.6211 37.1288 23.5 35.75 23.5C34.3713 23.5 33.25 24.6212 33.25 26C33.25 26.1794 33.2707 26.3537 33.3068 26.5225L30.1251 28.1139C29.6665 27.589 29.0004 27.25 28.25 27.25C26.8713 27.25 25.75 28.3712 25.75 29.75C25.75 31.1288 26.8712 32.25 28.25 32.25C29.0002 32.25 29.6663 31.9113 30.1248 31.3865L33.3068 32.9776C33.2707 33.1463 33.25 33.3207 33.25 33.5001C33.25 34.8788 34.3712 36.0001 35.75 36.0001C37.1289 36.0001 38.25 34.8789 38.25 33.5001C38.25 32.1213 37.1288 31 35.75 31C34.9997 31 34.3335 31.3389 33.8748 31.8638L30.693 30.2729C30.7292 30.104 30.75 29.9296 30.75 29.75C30.75 29.5707 30.7293 29.3963 30.6932 29.2275L33.875 27.6361C34.3336 28.161 34.9997 28.5 35.75 28.5ZM35.75 24.75C36.4391 24.75 37 25.3109 37 26C37 26.689 36.4391 27.2499 35.75 27.2499C35.061 27.2499 34.5 26.689 34.5 26C34.5 25.3109 35.061 24.75 35.75 24.75ZM28.25 31C27.561 31 27 30.4391 27 29.75C27 29.061 27.561 28.5 28.25 28.5C28.9391 28.5 29.5 29.061 29.5 29.75C29.5 30.4391 28.9391 31 28.25 31ZM35.75 32.25C36.4391 32.25 37 32.8109 37 33.5C37 34.189 36.4391 34.7499 35.75 34.7499C35.061 34.7499 34.5 34.189 34.5 33.5C34.5 32.8109 35.061 32.25 35.75 32.25Z" fill="white"/>
<path d="M39.5 16H24.5C23.1212 16 22 17.1212 22 18.5V43.5C22 44.8788 23.1212 46 24.5 46H39.5C40.8788 46 42 44.8788 42 43.5V18.5C42 17.1212 40.8788 16 39.5 16ZM40.75 43.5C40.75 44.189 40.1891 44.75 39.5 44.75H24.5C23.811 44.75 23.25 44.189 23.25 43.5V41H40.7501V43.5H40.75ZM40.75 39.75H23.25V18.5C23.25 17.811 23.811 17.25 24.5 17.25H39.5C40.1891 17.25 40.75 17.811 40.75 18.5V39.75Z" fill="white"/>
<path d="M31.375 19.75H32.625C32.9705 19.75 33.25 19.4704 33.25 19.125C33.25 18.7795 32.9705 18.4999 32.625 18.4999H31.375C31.0296 18.4999 30.75 18.7795 30.75 19.125C30.7501 19.4704 31.0296 19.75 31.375 19.75Z" fill="white"/>
<path d="M30.125 43.5H33.875C34.2205 43.5 34.5 43.2204 34.5 42.875C34.5 42.5295 34.2205 42.25 33.875 42.25H30.125C29.7796 42.25 29.5 42.5296 29.5 42.875C29.5 43.2205 29.7796 43.5 30.125 43.5Z" fill="white"/>
<path d="M38.875 19.75C39.2202 19.75 39.5 19.4701 39.5 19.125C39.5 18.7798 39.2202 18.4999 38.875 18.4999C38.5298 18.4999 38.25 18.7798 38.25 19.125C38.25 19.4701 38.5298 19.75 38.875 19.75Z" fill="white"/>
</svg>
