<svg width="62" height="63" viewBox="0 0 62 63" fill="none" xmlns="http://www.w3.org/2000/svg">
<circle cx="31" cy="31.0594" r="31" fill="#6349A0"/>
<g clip-path="url(#clip0)">
<path d="M42.1507 27.1171L38.2758 30.0616V27.8014C38.2758 27.3267 37.8911 26.942 37.4165 26.942H22.3896C21.915 26.942 21.5303 27.3267 21.5303 27.8014V40.1999C21.5303 40.6744 21.915 41.0591 22.3896 41.0591H37.4165C37.8911 41.0591 38.2758 40.6744 38.2758 40.1999V37.9395L42.1507 40.884C42.7113 41.31 43.5301 40.9129 43.5301 40.1999V27.8014C43.5301 27.0923 42.7159 26.6876 42.1507 27.1171ZM36.5571 39.3405H23.249V28.6608H36.5571V39.3405ZM41.8114 38.4674L38.2758 35.7808V32.2205L41.8114 29.5338V38.4674ZM25.31 22.4642C27.0998 20.3005 29.7314 19.0594 32.5301 19.0594C35.3288 19.0594 37.9604 20.3005 39.7504 22.4642C40.0528 22.83 40.0016 23.3718 39.6359 23.6742C39.2712 23.9758 38.7292 23.9265 38.4259 23.5598C36.9638 21.792 34.8148 20.7782 32.5301 20.7782C30.2455 20.7782 28.0966 21.792 26.6345 23.5598C26.332 23.9255 25.7902 23.9769 25.4245 23.6742C25.0587 23.3718 25.0076 22.83 25.31 22.4642ZM35.6378 23.8484C36.0416 24.0977 36.1668 24.6273 35.9176 25.0311C35.6687 25.4341 35.1395 25.5607 34.7348 25.3107C34.073 24.902 33.3106 24.686 32.5301 24.686C31.7498 24.686 30.9874 24.902 30.3254 25.3107C29.9216 25.5602 29.3922 25.4349 29.1428 25.0311C28.8934 24.6273 29.0186 24.0977 29.4224 23.8484C30.356 23.2719 31.4305 22.9673 32.5301 22.9673C33.6298 22.9673 34.7044 23.2719 35.6378 23.8484Z" fill="white"/>
</g>
<defs>
<clipPath id="clip0">
<rect width="22" height="22" fill="white" transform="translate(21.5303 19.0594)"/>
</clipPath>
</defs>
</svg>