<svg width="63" height="63" viewBox="0 0 63 63" fill="none" xmlns="http://www.w3.org/2000/svg">
<circle cx="31.5674" cy="31.0594" r="31" fill="#6349A0"/>
<g clip-path="url(#clip0)">
<path d="M40.1426 25.0646C39.8316 24.8582 39.4433 24.8395 39.1164 25.0151L34.3147 27.5938V26.0283C34.3147 25.4026 33.8425 24.8955 33.26 24.8955H24.8225C24.24 24.8955 23.7678 25.4026 23.7678 26.0283V35.0908C23.7678 35.7164 24.24 36.2236 24.8225 36.2236H33.26C33.8425 36.2236 34.3147 35.7164 34.3147 35.0908V33.5253L39.1164 36.104C39.4445 36.2802 39.8327 36.2601 40.1426 36.0544C40.4535 35.848 40.6428 35.4834 40.6428 35.0908V26.0284C40.6428 25.6357 40.4535 25.2711 40.1426 25.0646ZM32.2053 33.9579H25.8772V27.161H32.2053V33.9579ZM38.5334 33.2578L34.3147 30.9922V30.1269L38.5334 27.8612V33.2578Z" fill="white"/>
<path d="M41.6892 20.3727C39.0995 17.5912 35.7314 16.0594 32.2051 16.0594C28.6789 16.0594 25.3107 17.5913 22.7211 20.3727C20.3226 22.9488 18.9436 26.1212 18.7332 29.5469C18.5361 32.7561 19.4046 35.8785 21.0899 38.5364L18.8165 43.42C18.6134 43.8561 18.693 44.3828 19.014 44.7276C19.3345 45.0718 19.8247 45.1582 20.2315 44.9398L24.7783 42.4979C25.9589 43.3617 27.2238 44.0173 28.5468 44.4507C30.0533 44.9442 31.6013 45.1388 33.1478 45.0293C36.3371 44.8033 39.2907 43.3222 41.6892 40.7461C44.2788 37.9646 45.7051 34.3469 45.7051 30.5594C45.7051 26.7719 44.2788 23.1542 41.6892 20.3727ZM40.1976 39.144C36.0784 43.5684 30.1742 44.022 25.5058 40.2727C25.1886 40.0179 24.762 39.9737 24.4025 40.1667L22.1182 41.3935L23.2604 38.94C23.4388 38.5567 23.4006 38.0982 23.1618 37.755C19.671 32.7407 20.0933 26.3992 24.2126 21.9748C28.769 17.0809 35.6411 17.0808 40.1976 21.9748H40.1976C42.3889 24.3284 43.5957 27.3771 43.5957 30.5594C43.5957 33.7417 42.3889 36.7905 40.1976 39.144Z" fill="white"/>
</g>
<defs>
<clipPath id="clip0">
<rect width="27" height="29" fill="white" transform="translate(18.7053 16.0594)"/>
</clipPath>
</defs>
</svg>
