<svg width="62" height="63" viewBox="0 0 62 63" fill="none" xmlns="http://www.w3.org/2000/svg">
<circle cx="31" cy="31.0594" r="31" fill="#6349A0"/>
<g clip-path="url(#clip0)">
<path d="M21.8813 37.0966H24.2544V38.6786H25.8364V27.6044H24.2544V29.1864H22.6724V28.3954C22.6724 23.5685 26.5757 19.6415 31.3735 19.6415C36.1714 19.6415 40.0747 23.5685 40.0747 28.3954V29.1864H38.4927V27.6044H36.9106V38.6786H38.4927V37.0966H40.0747V39.5223C40.0747 40.8308 39.0102 41.8954 37.7017 41.8954H33.6105C33.284 40.9747 32.4048 40.3134 31.3735 40.3134C30.065 40.3134 29.0005 41.3779 29.0005 42.6864C29.0005 43.9949 30.065 45.0594 31.3735 45.0594C32.4048 45.0594 33.284 44.3981 33.6105 43.4774H37.7017C39.8825 43.4774 41.6567 41.7032 41.6567 39.5223V36.9605C42.5774 36.634 43.2388 35.7547 43.2388 34.7235V31.5594C43.2388 30.5282 42.5774 29.649 41.6567 29.3225V28.3954C41.6567 22.6961 37.0437 18.0594 31.3735 18.0594C25.7034 18.0594 21.0903 22.6961 21.0903 28.3954V29.3225C20.1696 29.649 19.5083 30.5283 19.5083 31.5595V34.7236C19.5083 36.032 20.5728 37.0966 21.8813 37.0966ZM31.3735 43.4774C30.9374 43.4774 30.5825 43.1226 30.5825 42.6864C30.5825 42.2502 30.9374 41.8954 31.3735 41.8954C31.8097 41.8954 32.1646 42.2502 32.1646 42.6864C32.1646 43.1226 31.8097 43.4774 31.3735 43.4774ZM41.6567 31.5594V34.7235C41.6567 35.1597 41.3019 35.5145 40.8657 35.5145H38.4927V30.7684H40.8657C41.3019 30.7684 41.6567 31.1233 41.6567 31.5594ZM21.0903 31.5594C21.0903 31.1233 21.4452 30.7684 21.8813 30.7684H24.2544V35.5145H21.8813C21.4452 35.5145 21.0903 35.1597 21.0903 34.7235V31.5594Z" fill="white"/>
</g>
<defs>
<clipPath id="clip0">
<rect width="27" height="27" fill="white" transform="translate(17.8735 18.0594)"/>
</clipPath>
</defs>
</svg>
