<svg width="62" height="62" viewBox="0 0 62 62" fill="none" xmlns="http://www.w3.org/2000/svg">
<circle cx="31" cy="31" r="31" fill="#6349A0"/>
<g clip-path="url(#clip0)">
<path d="M17 36.4055C17 37.0481 17.7282 37.422 18.2504 37.0494L22.5994 33.9469C22.9642 33.6868 23.3939 33.5492 23.842 33.5492H33.4071C35.0908 33.5492 36.4605 32.1794 36.4605 30.4958V20.4588C36.4605 20.022 36.1063 19.6678 35.6695 19.6678H20.0534C18.3698 19.6678 17 21.0375 17 22.7212V36.4055ZM18.582 22.7212C18.582 21.9098 19.2421 21.2498 20.0534 21.2498H34.8784V30.4958C34.8784 31.3072 34.2184 31.9672 33.407 31.9672H23.842C23.0626 31.9672 22.3152 32.2064 21.6807 32.6591L18.582 34.8695V22.7212Z" fill="white"/>
<path d="M44.0001 28.8568C44.0001 27.1728 42.6304 25.8029 40.9468 25.8029H38.8337C38.3969 25.8029 38.0427 26.1571 38.0427 26.5939C38.0427 27.0308 38.3969 27.3849 38.8337 27.3849H40.9468C41.7581 27.3849 42.4181 28.0452 42.4181 28.8568V41.0049L39.3195 38.7945C38.685 38.3419 37.9377 38.1027 37.1584 38.1027H27.5929C26.7816 38.1027 26.1216 37.4424 26.1216 36.6309V35.9222C26.1216 35.4853 25.7674 35.1311 25.3306 35.1311C24.8937 35.1311 24.5396 35.4853 24.5396 35.9222V36.6309C24.5396 38.3148 25.9093 39.6847 27.5929 39.6847H37.1584C37.6064 39.6847 38.0361 39.8222 38.4008 40.0824L42.7498 43.1847C43.2694 43.5555 44.0002 43.1855 44.0002 42.5408V28.8568H44.0001Z" fill="white"/>
<path d="M22.688 25.5589H31.8271C32.2639 25.5589 32.6181 25.2047 32.6181 24.7679C32.6181 24.331 32.2639 23.9769 31.8271 23.9769H22.688C22.2511 23.9769 21.897 24.331 21.897 24.7679C21.897 25.2047 22.2511 25.5589 22.688 25.5589Z" fill="white"/>
<path d="M22.688 29.2503H31.8271C32.2639 29.2503 32.6181 28.8961 32.6181 28.4593C32.6181 28.0224 32.2639 27.6683 31.8271 27.6683H22.688C22.2511 27.6683 21.897 28.0224 21.897 28.4593C21.897 28.8961 22.2511 29.2503 22.688 29.2503Z" fill="white"/>
</g>
<defs>
<clipPath id="clip0">
<rect width="27" height="27" fill="white" transform="translate(17 18)"/>
</clipPath>
</defs>
</svg>