<svg width="587" height="477" viewBox="0 0 587 477" fill="none" xmlns="http://www.w3.org/2000/svg">
<path d="M579.5 49.9723C524.5 38.9723 535 23.9723 478 4.47229C425.6 -6.32771 405.833 8.97229 402.5 17.9723C380.1 56.7723 448.5 113.639 485 133.972C504.5 149.472 546.1 183.872 560.5 223.472C578.5 272.972 513 379.472 376.5 447.472C267.3 501.872 124.834 465.306 67.5003 436.972C60.0003 431.639 25.0002 406.472 7.00014 334.472C-10.2262 265.567 13.8333 203.806 39.5 176.972C46.1665 172.806 91 167.11 91 209.472C91 269.972 93 275.972 117.5 288.472" stroke="black" stroke-linejoin="bevel" stroke-dasharray="3 3"/>
<circle cx="582" cy="50.4419" r="5" fill="#6945A5"/>
<circle cx="486" cy="135.472" r="5" fill="#6945A5"/>
<circle cx="560" cy="225.472" r="5" fill="#6945A5"/>
<circle cx="54.4199" cy="425.519" r="5" fill="#6945A5"/>
<circle cx="47" cy="172.472" r="5" fill="#6945A5"/>
<circle cx="119" cy="287.472" r="5" fill="#6945A5"/>
<circle cx="401" cy="24.4723" r="5" fill="#6945A5"/>
</svg>
