<svg width="97" height="97" viewBox="0 0 97 97" fill="none" xmlns="http://www.w3.org/2000/svg">
<circle cx="48.8926" cy="48.7913" r="48.1074" fill="#6945A5"/>
<path d="M39.4863 37.2954C38.4172 37.2954 37.3918 37.7201 36.6358 38.4761C35.8798 39.2321 35.4551 40.2575 35.4551 41.3267V52.0767C35.4551 53.1458 35.8798 54.1712 36.6358 54.9272C37.3918 55.6832 38.4172 56.1079 39.4863 56.1079H58.2988C59.368 56.1079 60.3933 55.6832 61.1494 54.9272C61.9054 54.1712 62.3301 53.1458 62.3301 52.0767V41.3267C62.3301 40.2575 61.9054 39.2321 61.1494 38.4761C60.3933 37.7201 59.368 37.2954 58.2988 37.2954H39.4863ZM38.1426 41.3267C38.1426 40.9703 38.2842 40.6285 38.5362 40.3765C38.7882 40.1245 39.1299 39.9829 39.4863 39.9829H58.2988C58.6552 39.9829 58.997 40.1245 59.249 40.3765C59.501 40.6285 59.6426 40.9703 59.6426 41.3267V52.0767C59.6426 52.433 59.501 52.7748 59.249 53.0268C58.997 53.2788 58.6552 53.4204 58.2988 53.4204H39.4863C39.1299 53.4204 38.7882 53.2788 38.5362 53.0268C38.2842 52.7748 38.1426 52.433 38.1426 52.0767V41.3267Z" fill="white"/>
<path d="M34.1113 58.7954C33.7549 58.7954 33.4132 58.937 33.1612 59.189C32.9092 59.441 32.7676 59.7828 32.7676 60.1392C32.7676 60.4955 32.9092 60.8373 33.1612 61.0893C33.4132 61.3413 33.7549 61.4829 34.1113 61.4829H63.6738C64.0302 61.4829 64.372 61.3413 64.624 61.0893C64.876 60.8373 65.0176 60.4955 65.0176 60.1392C65.0176 59.7828 64.876 59.441 64.624 59.189C64.372 58.937 64.0302 58.7954 63.6738 58.7954H34.1113Z" fill="white"/>
</svg>
