<svg width="98" height="97" viewBox="0 0 98 97" fill="none" xmlns="http://www.w3.org/2000/svg">
<circle cx="49.0038" cy="48.4829" r="48.1074" fill="#6945A5"/>
<path d="M63.2954 33.7304C63.2957 34.4896 63.1267 35.2392 62.8006 35.9248C62.4745 36.6104 61.9996 37.2146 61.4105 37.6934C60.8214 38.1722 60.1329 38.5136 59.3951 38.6926C58.6574 38.8717 57.889 38.8839 57.1459 38.7284L54.5326 43.0506C55.38 43.8282 56.0532 44.7763 56.5078 45.8327C56.9625 46.8891 57.1883 48.0298 57.1704 49.1797L59.8164 49.7126C60.3923 48.6377 61.3339 47.8044 62.471 47.3637C63.608 46.923 64.8652 46.9039 66.0151 47.3099C67.165 47.7159 68.1315 48.5202 68.7397 49.5772C69.3479 50.6341 69.5576 51.8739 69.3308 53.0721C69.104 54.2703 68.4557 55.3477 67.5033 56.1092C66.5509 56.8708 65.3573 57.2662 64.1386 57.2239C62.9199 57.1816 61.7566 56.7044 60.8593 55.8786C59.962 55.0528 59.39 53.933 59.2468 52.722L56.5538 52.181C55.8497 53.8782 54.5957 55.2897 52.9932 56.1888L54.0038 59.2758H54.1079C55.323 59.2766 56.4979 59.7109 57.4214 60.5006C58.3449 61.2903 58.9564 62.3835 59.146 63.5837C59.3355 64.7839 59.0907 66.0124 58.4555 67.0482C57.8203 68.084 56.8364 68.8593 55.6807 69.2346C54.525 69.6098 53.2734 69.5605 52.1508 69.0955C51.0282 68.6305 50.1084 67.7802 49.5567 66.6976C49.0049 65.615 48.8575 64.3711 49.1409 63.1895C49.4242 62.008 50.1198 60.9662 51.1026 60.2517L50.0879 57.1565C48.6368 57.3524 47.1598 57.1539 45.8119 56.582C44.464 56.0101 43.295 55.0858 42.4276 53.9062L38.7648 55.6355C38.9015 56.8472 38.5998 58.0678 37.9144 59.0764C37.229 60.0849 36.2052 60.8148 35.0283 61.1339C33.8513 61.4529 32.5991 61.3401 31.4981 60.8157C30.3972 60.2914 29.5203 59.3903 29.0263 58.2754C28.5323 57.1606 28.4537 55.9057 28.8048 54.7379C29.1558 53.5702 29.9134 52.5667 30.9403 51.9091C31.9672 51.2515 33.1956 50.9833 34.4032 51.153C35.6107 51.3227 36.7176 51.9191 37.5235 52.8343L41.1046 51.1438C40.7752 49.8899 40.7486 48.5757 41.0269 47.3095C41.3052 46.0433 41.8805 44.8614 42.7052 43.8612L40.6819 41.5541C39.5489 42.0047 38.292 42.0348 37.1386 41.639C35.9853 41.2431 35.0118 40.4475 34.3943 39.396C33.7768 38.3446 33.5562 37.1068 33.7723 35.9067C33.9883 34.7067 34.6269 33.6236 35.5724 32.8536C36.5178 32.0836 37.7077 31.6775 38.9267 31.7088C40.1457 31.7401 41.3131 32.2068 42.2178 33.0243C43.1225 33.8419 43.7046 34.9563 43.8588 36.1658C44.013 37.3754 43.7291 38.6002 43.0584 39.6186L45.0633 41.9053C46.27 41.2399 47.6259 40.8921 49.0038 40.8946C50.0348 40.8946 51.023 41.0865 51.9315 41.4357L54.4734 37.2298C53.9028 36.6232 53.4893 35.8863 53.269 35.0832C53.0487 34.2801 53.0282 33.4353 53.2093 32.6224C53.3905 31.8096 53.7677 31.0534 54.3082 30.4199C54.8487 29.7864 55.5361 29.2947 56.3102 28.9878C57.0844 28.6809 57.9219 28.5681 58.7496 28.6592C59.5774 28.7503 60.3703 29.0425 61.0592 29.5105C61.7481 29.9784 62.312 30.6077 62.7018 31.3437C63.0916 32.0796 63.2954 32.8997 63.2954 33.7325V33.7304ZM60.2329 33.7304C60.2329 33.1889 60.0178 32.6696 59.6349 32.2867C59.2521 31.9039 58.7327 31.6888 58.1913 31.6888C57.6498 31.6888 57.1305 31.9039 56.7476 32.2867C56.3647 32.6696 56.1496 33.1889 56.1496 33.7304C56.1496 34.2719 56.3647 34.7912 56.7476 35.1741C57.1305 35.557 57.6498 35.7721 58.1913 35.7721C58.7327 35.7721 59.2521 35.557 59.6349 35.1741C60.0178 34.7912 60.2329 34.2719 60.2329 33.7304ZM38.7954 38.853C39.3369 38.853 39.8562 38.6379 40.2391 38.255C40.622 37.8721 40.8371 37.3528 40.8371 36.8113C40.8371 36.2698 40.622 35.7505 40.2391 35.3676C39.8562 34.9847 39.3369 34.7696 38.7954 34.7696C38.2539 34.7696 37.7346 34.9847 37.3518 35.3676C36.9689 35.7505 36.7538 36.2698 36.7538 36.8113C36.7538 37.3528 36.9689 37.8721 37.3518 38.255C37.7346 38.6379 38.2539 38.853 38.7954 38.853ZM49.0038 54.1655C50.3575 54.1655 51.6557 53.6277 52.613 52.6705C53.5702 51.7133 54.1079 50.415 54.1079 49.0613C54.1079 47.7076 53.5702 46.4093 52.613 45.4521C51.6557 44.4949 50.3575 43.9571 49.0038 43.9571C47.6501 43.9571 46.3518 44.4949 45.3946 45.4521C44.4374 46.4093 43.8996 47.7076 43.8996 49.0613C43.8996 50.415 44.4374 51.7133 45.3946 52.6705C46.3518 53.6277 47.6501 54.1655 49.0038 54.1655ZM35.7329 56.2071C35.7329 55.6657 35.5178 55.1463 35.1349 54.7635C34.7521 54.3806 34.2327 54.1655 33.6913 54.1655C33.1498 54.1655 32.6305 54.3806 32.2476 54.7635C31.8647 55.1463 31.6496 55.6657 31.6496 56.2071C31.6496 56.7486 31.8647 57.2679 32.2476 57.6508C32.6305 58.0337 33.1498 58.2488 33.6913 58.2488C34.2327 58.2488 34.7521 58.0337 35.1349 57.6508C35.5178 57.2679 35.7329 56.7486 35.7329 56.2071ZM56.1496 64.3779C56.1496 63.8364 55.9345 63.3171 55.5516 62.9342C55.1687 62.5513 54.6494 62.3362 54.1079 62.3362C53.5664 62.3362 53.0471 62.5513 52.6643 62.9342C52.2814 63.3171 52.0663 63.8364 52.0663 64.3779C52.0663 64.9194 52.2814 65.4387 52.6643 65.8216C53.0471 66.2044 53.5664 66.4196 54.1079 66.4196C54.6494 66.4196 55.1687 66.2044 55.5516 65.8216C55.9345 65.4387 56.1496 64.9194 56.1496 64.3779ZM64.3163 54.1655C64.8577 54.1655 65.3771 53.9504 65.7599 53.5675C66.1428 53.1846 66.3579 52.6653 66.3579 52.1238C66.3579 51.5823 66.1428 51.063 65.7599 50.6801C65.3771 50.2972 64.8577 50.0821 64.3163 50.0821C63.7748 50.0821 63.2555 50.2972 62.8726 50.6801C62.4897 51.063 62.2746 51.5823 62.2746 52.1238C62.2746 52.6653 62.4897 53.1846 62.8726 53.5675C63.2555 53.9504 63.7748 54.1655 64.3163 54.1655Z" fill="white"/>
</svg>
