<svg width="97" height="98" viewBox="0 0 97 98" fill="none" xmlns="http://www.w3.org/2000/svg">
<circle cx="48.8926" cy="49.0304" r="48.1074" fill="#6945A5"/>
<path d="M49.4914 52.2804C52.5348 52.2804 54.9731 49.9354 54.9731 47.0304L54.9914 36.5304C54.9914 33.6254 52.5348 31.2804 49.4914 31.2804C46.4481 31.2804 43.9914 33.6254 43.9914 36.5304V47.0304C43.9914 49.9354 46.4481 52.2804 49.4914 52.2804ZM47.2914 36.3554C47.2914 35.2004 48.2814 34.2554 49.4914 34.2554C50.7014 34.2554 51.6914 35.2004 51.6914 36.3554L51.6731 47.2054C51.6731 48.3604 50.7014 49.3054 49.4914 49.3054C48.2814 49.3054 47.2914 48.3604 47.2914 47.2054V36.3554ZM59.2081 47.0304C59.2081 52.2804 54.5514 55.9554 49.4914 55.9554C44.4314 55.9554 39.7747 52.2804 39.7747 47.0304H36.6581C36.6581 52.9979 41.6447 57.9329 47.6581 58.7904V64.5304H51.3248V58.7904C57.3381 57.9504 62.3248 53.0154 62.3248 47.0304H59.2081Z" fill="white"/>
</svg>
