<svg width="97" height="97" viewBox="0 0 97 97" fill="none" xmlns="http://www.w3.org/2000/svg">
<circle cx="48.4432" cy="48.4117" r="48.1074" fill="#6945A5"/>
<path d="M46.5038 58.0304C46.1723 58.0304 45.8543 58.1621 45.6199 58.3965C45.3855 58.6309 45.2538 58.9489 45.2538 59.2804C45.2538 59.6119 45.3855 59.9299 45.6199 60.1643C45.8543 60.3987 46.1723 60.5304 46.5038 60.5304H51.5038C51.8353 60.5304 52.1532 60.3987 52.3877 60.1643C52.6221 59.9299 52.7538 59.6119 52.7538 59.2804C52.7538 58.9489 52.6221 58.6309 52.3877 58.3965C52.1532 58.1621 51.8353 58.0304 51.5038 58.0304H46.5038ZM43.3788 30.5304C42.2185 30.5304 41.1057 30.9913 40.2852 31.8118C39.4647 32.6323 39.0038 33.7451 39.0038 34.9054V61.1554C39.0038 63.5704 40.9638 65.5304 43.3788 65.5304H54.6288C55.7891 65.5304 56.9019 65.0695 57.7224 64.249C58.5428 63.4285 59.0038 62.3157 59.0038 61.1554V34.9054C59.0038 33.7451 58.5428 32.6323 57.7224 31.8118C56.9019 30.9913 55.7891 30.5304 54.6288 30.5304H43.3788ZM41.5038 34.9054C41.5038 34.4081 41.7013 33.9312 42.053 33.5796C42.4046 33.2279 42.8815 33.0304 43.3788 33.0304H54.6288C55.1261 33.0304 55.603 33.2279 55.9546 33.5796C56.3062 33.9312 56.5038 34.4081 56.5038 34.9054V61.1554C56.5038 61.6527 56.3062 62.1296 55.9546 62.4812C55.603 62.8329 55.1261 63.0304 54.6288 63.0304H43.3788C42.8815 63.0304 42.4046 62.8329 42.053 62.4812C41.7013 62.1296 41.5038 61.6527 41.5038 61.1554V34.9054Z" fill="white"/>
</svg>
