<svg width="97" height="97" viewBox="0 0 97 97" fill="none" xmlns="http://www.w3.org/2000/svg">
<circle cx="48.1074" cy="48.1301" r="48.1074" fill="#6945A5"/>
<g clip-path="url(#clip0)">
<path d="M49.084 66.4311C50.1425 66.4311 51.0007 65.573 51.0007 64.5144C51.0007 63.4559 50.1425 62.5978 49.084 62.5978C48.0254 62.5978 47.1673 63.4559 47.1673 64.5144C47.1673 65.573 48.0254 66.4311 49.084 66.4311Z" fill="white"/>
<path d="M49.0841 54.9311C46.6034 54.931 44.2193 55.8929 42.4332 57.6144C42.0672 57.9677 41.8566 58.4519 41.8476 58.9605C41.8386 59.4691 42.032 59.9605 42.3853 60.3265C42.7386 60.6925 43.2228 60.9032 43.7314 60.9121C44.2401 60.9211 44.7314 60.7277 45.0974 60.3744C46.1859 59.3777 47.6082 58.8249 49.0841 58.8249C50.5599 58.8249 51.9823 59.3777 53.0707 60.3744C53.4367 60.7277 53.9281 60.9211 54.4367 60.9121C54.9453 60.9032 55.4295 60.6925 55.7828 60.3265C56.1361 59.9605 56.3295 59.4691 56.3206 58.9605C56.3116 58.4519 56.1009 57.9677 55.7349 57.6144C53.9488 55.8929 51.5648 54.931 49.0841 54.9311V54.9311ZM49.0841 45.3477C46.7691 45.3493 44.4782 45.8167 42.3477 46.7223C40.2172 47.6278 38.2908 48.9529 36.6832 50.6186C36.5083 50.8036 36.3715 51.0212 36.2807 51.2591C36.1899 51.4969 36.1468 51.7504 36.1539 52.0049C36.161 52.2594 36.2182 52.51 36.3222 52.7424C36.4262 52.9748 36.5749 53.1845 36.7599 53.3594C37.1335 53.7127 37.6322 53.9031 38.1462 53.8887C38.4007 53.8816 38.6513 53.8244 38.8837 53.7205C39.1161 53.6165 39.3258 53.4677 39.5007 53.2828C40.7523 51.9843 42.2528 50.9514 43.9126 50.246C45.5723 49.5405 47.3573 49.1769 49.1607 49.1769C50.9642 49.1769 52.7492 49.5405 54.4089 50.246C56.0687 50.9514 57.5692 51.9843 58.8207 53.2828C58.9982 53.4639 59.2099 53.6079 59.4435 53.7066C59.6771 53.8053 59.928 53.8567 60.1816 53.8577C60.5561 53.8563 60.9221 53.7452 61.2341 53.5381C61.5462 53.3309 61.7908 53.0369 61.9376 52.6923C62.0844 52.3477 62.127 51.9677 62.0602 51.5991C61.9934 51.2306 61.82 50.8897 61.5616 50.6186C59.945 48.9436 58.0062 47.6131 55.8618 46.7072C53.7174 45.8014 51.4119 45.3389 49.0841 45.3477Z" fill="white"/>
<path d="M67.7141 43.2969C62.7124 38.4718 56.0338 35.7755 49.0841 35.7755C42.1344 35.7755 35.4558 38.4718 30.4541 43.2969C30.1307 43.6566 29.9552 44.1253 29.9628 44.6089C29.9705 45.0926 30.1607 45.5555 30.4954 45.9047C30.8301 46.254 31.2845 46.4637 31.7674 46.492C32.2503 46.5202 32.726 46.3648 33.0991 46.0569C37.3879 41.9114 43.1193 39.5941 49.0841 39.5941C55.0489 39.5941 60.7804 41.9114 65.0691 46.0569C65.4244 46.3994 65.8981 46.5916 66.3916 46.5936C66.6498 46.5926 66.9051 46.5395 67.1423 46.4374C67.3794 46.3352 67.5935 46.1863 67.7716 45.9994C68.1211 45.6328 68.3112 45.1427 68.3004 44.6363C68.2896 44.1299 68.0788 43.6484 67.7141 43.2969V43.2969Z" fill="white"/>
</g>
</svg>
