<svg width="97" height="97" viewBox="0 0 97 97" fill="none" xmlns="http://www.w3.org/2000/svg">
<circle cx="48.4333" cy="48.4551" r="48.1074" fill="#6945A5"/>
<path d="M50.3909 66.9592L48.4333 65.8342L52.9333 57.9592H59.6833C60.2801 57.9592 60.8524 57.7222 61.2743 57.3002C61.6963 56.8783 61.9333 56.306 61.9333 55.7092V42.2092C61.9333 41.6125 61.6963 41.0402 61.2743 40.6182C60.8524 40.1963 60.2801 39.9592 59.6833 39.9592H37.1833C36.5866 39.9592 36.0143 40.1963 35.5924 40.6182C35.1704 41.0402 34.9333 41.6125 34.9333 42.2092V55.7092C34.9333 56.306 35.1704 56.8783 35.5924 57.3002C36.0143 57.7222 36.5866 57.9592 37.1833 57.9592H47.3083V60.2092H37.1833C35.9899 60.2092 34.8453 59.7351 34.0014 58.8912C33.1575 58.0473 32.6833 56.9027 32.6833 55.7092V42.2092C32.6833 41.0158 33.1575 39.8712 34.0014 39.0272C34.8453 38.1833 35.9899 37.7092 37.1833 37.7092H59.6833C60.8768 37.7092 62.0214 38.1833 62.8653 39.0272C63.7092 39.8712 64.1833 41.0158 64.1833 42.2092V55.7092C64.1833 56.9027 63.7092 58.0473 62.8653 58.8912C62.0214 59.7351 60.8768 60.2092 59.6833 60.2092H54.2383L50.3909 66.9592Z" fill="white"/>
<path d="M39.4333 44.4592H57.4333V46.7092H39.4333V44.4592Z" fill="white"/>
<path d="M39.4333 51.2092H50.6833V53.4592H39.4333V51.2092Z" fill="white"/>
</svg>
