<svg width="97" height="97" viewBox="0 0 97 97" fill="none" xmlns="http://www.w3.org/2000/svg">
<circle cx="48.5002" cy="48.5304" r="48.1074" fill="#6945A5"/>
<path d="M40.2795 32.197H61.842C63.3985 32.1969 64.8961 32.8057 66.0275 33.8984C67.1589 34.9911 67.8383 36.485 67.9264 38.0735L67.9358 38.4262V56.6345C67.9359 58.2256 67.3404 59.7564 66.2714 60.913C65.2024 62.0695 63.7411 62.764 62.187 62.8541L61.842 62.8637H40.2795C38.723 62.8638 37.2255 62.255 36.0941 61.1623C34.9627 60.0696 34.2833 58.5757 34.1952 56.9872L34.1858 56.6345V38.4262C34.1857 36.8351 34.7812 35.3043 35.8502 34.1477C36.9191 32.9912 38.3805 32.2967 39.9345 32.2066L40.2795 32.197H61.842H40.2795ZM61.842 35.072H40.2795C39.4561 35.0721 38.6627 35.3886 38.0569 35.9588C37.4512 36.529 37.0773 37.3113 37.0095 38.1502L36.9983 38.4262V56.6345C36.9983 57.4763 37.308 58.2873 37.8658 58.9065C38.4236 59.5257 39.1889 59.9079 40.0095 59.9772L40.2795 59.9887H61.842C62.6658 59.9886 63.4594 59.6718 64.0652 59.1012C64.6711 58.5305 65.0447 57.7479 65.112 56.9086L65.1233 56.6345V38.4262C65.1232 37.5841 64.8133 36.7729 64.2551 36.1536C63.6969 35.5343 62.9312 35.1523 62.1102 35.0835L61.842 35.072ZM47.4102 42.9016C47.5085 42.7011 47.6724 42.5422 47.8735 42.4525C48.0747 42.3629 48.3002 42.3481 48.5108 42.4109L48.6683 42.4742L56.8845 46.6717C57.0277 46.7447 57.1503 46.854 57.2405 46.9891C57.3306 47.1243 57.3855 47.2807 57.3998 47.4437C57.4141 47.6066 57.3873 47.7706 57.3221 47.9199C57.2568 48.0693 57.1553 48.1991 57.027 48.297L56.8845 48.3871L48.6683 52.5865C48.5382 52.6532 48.3947 52.688 48.2491 52.6882C48.1035 52.6884 47.9599 52.6539 47.8297 52.5875C47.6994 52.5211 47.5861 52.4246 47.4986 52.3057C47.4111 52.1868 47.352 52.0486 47.3258 51.9023L47.3108 51.7278V43.3309C47.3108 43.1819 47.3448 43.0349 47.4102 42.9016Z" fill="white"/>
</svg>
