<svg width="62" height="63" viewBox="0 0 62 63" fill="none" xmlns="http://www.w3.org/2000/svg">
<circle cx="31" cy="31.9673" r="31" fill="#6945A5"/>
<path d="M31.4999 35.75C33.6441 35.75 35.362 34.075 35.362 32L35.3749 24.5C35.3749 22.425 33.6441 20.75 31.4999 20.75C29.3558 20.75 27.6249 22.425 27.6249 24.5V32C27.6249 34.075 29.3558 35.75 31.4999 35.75ZM29.9499 24.375C29.9499 23.55 30.6474 22.875 31.4999 22.875C32.3524 22.875 33.0499 23.55 33.0499 24.375L33.037 32.125C33.037 32.95 32.3524 33.625 31.4999 33.625C30.6474 33.625 29.9499 32.95 29.9499 32.125V24.375ZM38.3458 32C38.3458 35.75 35.0649 38.375 31.4999 38.375C27.9349 38.375 24.6541 35.75 24.6541 32H22.4583C22.4583 36.2625 25.9716 39.7875 30.2083 40.4V44.5H32.7916V40.4C37.0283 39.8 40.5416 36.275 40.5416 32H38.3458Z" fill="white"/>
</svg>
