<svg width="63" height="63" viewBox="0 0 63 63" fill="none" xmlns="http://www.w3.org/2000/svg">
<circle cx="31.8091" cy="31.5569" r="31" fill="#6945A5"/>
<g clip-path="url(#clip0)">
<path d="M40.9138 25.562C40.6029 25.3556 40.2145 25.3369 39.8877 25.5125L35.0859 28.0912V26.5257C35.0859 25.9001 34.6137 25.3929 34.0312 25.3929H25.5937C25.0112 25.3929 24.5391 25.9001 24.5391 26.5257V35.5882C24.5391 36.2138 25.0112 36.721 25.5937 36.721H34.0312C34.6137 36.721 35.0859 36.2138 35.0859 35.5882V34.0227L39.8877 36.6014C40.2157 36.7776 40.6039 36.7575 40.9138 36.5519C41.2247 36.3454 41.414 35.9808 41.414 35.5882V26.5258C41.414 26.1331 41.2247 25.7685 40.9138 25.562ZM32.9765 34.4553H26.6484V27.6585H32.9765V34.4553ZM39.3046 33.7552L35.0859 31.4896V30.6243L39.3046 28.3587V33.7552Z" fill="white"/>
<path d="M42.4604 20.8702C39.8707 18.0887 36.5026 16.5569 32.9763 16.5569C29.4501 16.5569 26.0819 18.0887 23.4923 20.8702C21.0938 23.4462 19.7148 26.6186 19.5044 30.0443C19.3073 33.2535 20.1758 36.376 21.8612 39.0338L19.5877 43.9174C19.3847 44.3536 19.4642 44.8803 19.7852 45.225C20.1057 45.5692 20.596 45.6557 21.0027 45.4373L25.5496 42.9954C26.7302 43.8591 27.995 44.5148 29.318 44.9482C30.8246 45.4417 32.3726 45.6362 33.9191 45.5268C37.1084 45.3008 40.0619 43.8196 42.4604 41.2435C45.0501 38.462 46.4763 34.8444 46.4763 31.0568C46.4763 27.2693 45.0501 23.6517 42.4604 20.8702ZM40.9688 39.6415C36.8496 44.0659 30.9454 44.5194 26.277 40.7701C25.9599 40.5154 25.5332 40.4711 25.1738 40.6641L22.8894 41.8909L24.0317 39.4374C24.2101 39.0542 24.1719 38.5956 23.933 38.2524C20.4422 33.2382 20.8645 26.8966 24.9838 22.4722C29.5402 17.5783 36.4123 17.5782 40.9688 22.4722H40.9689C43.1601 24.8258 44.367 27.8745 44.367 31.0568C44.367 34.2392 43.1601 37.2879 40.9688 39.6415Z" fill="white"/>
</g>
<defs>
<clipPath id="clip0">
<rect width="27" height="29" fill="white" transform="translate(19.4766 16.5569)"/>
</clipPath>
</defs>
</svg>
