<svg width="62" height="62" viewBox="0 0 62 62" fill="none" xmlns="http://www.w3.org/2000/svg">
<circle cx="31" cy="31" r="31" fill="#6945A5"/>
<path d="M38.8141 18.6953H30.426C29.8659 17.6853 28.789 17 27.5547 17C26.3204 17 25.2435 17.6853 24.6834 18.6953H23.1797C21.3703 18.6953 19.8984 20.1672 19.8984 21.9766V41.7188C19.8984 43.5281 21.3703 45 23.1797 45H38.8143C40.6235 45 42.0956 43.5281 42.0956 41.7188V21.9766C42.0954 20.1672 40.6235 18.6953 38.8141 18.6953ZM39.9079 41.7188C39.9079 42.3218 39.4172 42.8125 38.8141 42.8125H23.1797C22.5766 42.8125 22.0859 42.3218 22.0859 41.7188V21.9766C22.0859 21.3735 22.5766 20.8828 23.1797 20.8828H28.6484V28.7031C28.6484 29.3062 28.1577 29.7969 27.5547 29.7969C26.9516 29.7969 26.4609 29.3062 26.4609 28.7031V23.4531H24.2734V28.7031C24.2734 30.5125 25.7453 31.9844 27.5547 31.9844C29.3641 31.9844 30.8359 30.5125 30.8359 28.7031V20.8828H38.8143C39.4174 20.8828 39.9081 21.3735 39.9081 21.9766V41.7188H39.9079ZM24.2734 38.4375H33.2969V40.625H24.2734V38.4375ZM24.2734 34.1172H37.6719V36.3047H24.2734V34.1172ZM32.9688 29.8516H37.6719V32.0391H32.9688V29.8516ZM32.9688 25.5312H37.6719V27.7188H32.9688V25.5312Z" fill="white"/>
</svg>
