<svg width="62" height="63" viewBox="0 0 62 63" fill="none" xmlns="http://www.w3.org/2000/svg">
<circle cx="31" cy="31.6201" r="31" fill="#6945A5"/>
<g clip-path="url(#clip0)">
<path d="M43.9032 20.2055H17.9758C16.5773 20.2055 15.4395 21.3431 15.4395 22.7419V39.2449C15.4395 40.6434 16.5773 41.7813 17.9758 41.7813H26.9715L30.1559 45.9628C30.3423 46.2074 30.632 46.3509 30.9397 46.3509C31.2472 46.3509 31.5372 46.2074 31.7235 45.9628L34.9079 41.7813H43.9032C45.3017 41.7813 46.4395 40.6434 46.4395 39.2449V22.7419C46.4395 21.3431 45.3017 20.2055 43.9032 20.2055ZM44.4691 39.2449C44.4691 39.5569 44.2154 39.8109 43.9032 39.8109H34.4198C34.1123 39.8109 33.8223 39.9545 33.636 40.199L30.9397 43.7398L28.2435 40.199C28.0571 39.9545 27.7672 39.8109 27.4597 39.8109H17.9756C17.6636 39.8109 17.4098 39.5569 17.4098 39.2449V22.7419C17.4098 22.4297 17.6636 22.1759 17.9756 22.1759H43.9032C44.2151 22.1759 44.4691 22.4297 44.4691 22.7419V39.2449Z" fill="white"/>
<path d="M34.7255 27.3709L29.6887 32.4077L27.1533 29.8723C26.7685 29.4874 26.1448 29.4874 25.76 29.8723C25.3752 30.2568 25.3752 30.8807 25.76 31.2653L28.992 34.4975C29.1845 34.6897 29.4366 34.786 29.6887 34.786C29.9406 34.786 30.193 34.6897 30.3853 34.4975L36.1185 28.764C36.5033 28.3792 36.5033 27.7555 36.1185 27.3707C35.734 26.9861 35.1103 26.9861 34.7255 27.3709Z" fill="white"/>
</g>
<defs>
<clipPath id="clip0">
<rect width="31" height="31" fill="white" transform="translate(15.5 17.7231)"/>
</clipPath>
</defs>
</svg>
