<svg width="63" height="63" viewBox="0 0 63 63" fill="none" xmlns="http://www.w3.org/2000/svg">
<circle cx="31.8091" cy="31.2231" r="31" fill="#6945A5"/>
<g clip-path="url(#clip0)">
<path d="M46.7887 19.251C46.9349 18.5702 46.2675 17.9961 45.6164 18.2446L17.3745 29.0257C17.0346 29.1555 16.8098 29.4813 16.8091 29.8451C16.8084 30.209 17.0319 30.5356 17.3713 30.6667L25.305 33.7308V43.3819C25.305 43.789 25.5846 44.1428 25.9807 44.2369C26.3741 44.3305 26.7844 44.1433 26.9688 43.7774L30.2501 37.266L38.2577 43.2087C38.7448 43.5702 39.4449 43.3403 39.6222 42.7594C47.0986 18.2465 46.7754 19.3126 46.7887 19.251ZM39.8172 22.3399L26.0594 32.1378L20.1398 29.8516L39.8172 22.3399ZM27.0628 33.5811L39.055 25.0407C28.7359 35.9268 29.2748 35.3538 29.2298 35.4144C29.163 35.5043 29.3461 35.1537 27.0628 39.6848V33.5811ZM38.3044 41.0544L31.2559 35.8235L44.0005 22.3786L38.3044 41.0544Z" fill="white"/>
</g>
<defs>
<clipPath id="clip0">
<rect width="30" height="30" fill="white" transform="translate(16.8091 16.2231)"/>
</clipPath>
</defs>
</svg>
