<svg width="62" height="63" viewBox="0 0 62 63" fill="none" xmlns="http://www.w3.org/2000/svg">
<circle cx="31" cy="31.7522" r="31" fill="#6945A5"/>
<g clip-path="url(#clip0)">
<path d="M31 16.7522L17 27.1505V44.7351H45V27.1505L31 16.7522ZM34.0078 29.532H27.9922V27.6179C27.9922 25.9594 29.3414 24.6101 31 24.6101C32.6586 24.6101 34.0078 25.9594 34.0078 27.6179V29.532ZM35.6484 31.1726V33.8831L33.2836 35.453L32.3845 34.8412C31.5435 34.2689 30.4565 34.2689 29.6155 34.8412L28.7164 35.453L26.3516 33.8831V31.1726H35.6484ZM27.2516 36.4497L18.6406 42.3096V30.733L27.2516 36.4497ZM30.5386 36.1974C30.8188 36.0069 31.1812 36.0069 31.4616 36.1974L41.5966 43.0945H20.4034L30.5386 36.1974ZM34.7484 36.4497L43.3594 30.733V42.3096L34.7484 36.4497ZM31 18.7959L43.3594 27.9757V28.7638L37.2891 32.7938V29.532H35.6484V27.6179C35.6484 25.0547 33.563 22.9695 31 22.9695C28.437 22.9695 26.3516 25.0547 26.3516 27.6179V29.532H24.7109V32.7938L18.6406 28.7638V27.9757L31 18.7959Z" fill="white"/>
</g>
<defs>
<clipPath id="clip0">
<rect width="28" height="28" fill="white" transform="translate(17 16.7522)"/>
</clipPath>
</defs>
</svg>
