<svg width="63" height="63" viewBox="0 0 63 63" fill="none" xmlns="http://www.w3.org/2000/svg">
<circle cx="31.8091" cy="31.5703" r="31" fill="#6945A5"/>
<path d="M18.1824 23.5C18.1824 22.5717 18.5511 21.6815 19.2075 21.0251C19.8639 20.3687 20.7541 20 21.6824 20H42.6824C43.6106 20 44.5009 20.3687 45.1572 21.0251C45.8136 21.6815 46.1824 22.5717 46.1824 23.5V28.183C46.0002 28.0899 45.8125 28.0081 45.6204 27.938L45.6004 27.93L45.3654 27.852L44.6284 27.63C44.4821 27.5857 44.3331 27.551 44.1824 27.526V23.5C44.1824 23.1022 44.0243 22.7206 43.743 22.4393C43.4617 22.158 43.0802 22 42.6824 22H21.6824C21.2845 22 20.903 22.158 20.6217 22.4393C20.3404 22.7206 20.1824 23.1022 20.1824 23.5V36.5C20.1824 36.8978 20.3404 37.2794 20.6217 37.5607C20.903 37.842 21.2845 38 21.6824 38H26.1824V36C26.1824 35.4696 26.3931 34.9609 26.7682 34.5858C27.1432 34.2107 27.6519 34 28.1824 34H36.1824C36.7128 34 37.2215 34.2107 37.5966 34.5858C37.9717 34.9609 38.1824 35.4696 38.1824 36V36.879C37.445 36.8782 36.7331 37.1487 36.1824 37.639V36H28.1824V38H35.8414L35.7664 38.094L34.3904 40H21.6824C20.7541 40 19.8639 39.6313 19.2075 38.9749C18.5511 38.3185 18.1824 37.4283 18.1824 36.5V23.5ZM32.1824 32C33.2432 32 34.2607 31.5786 35.0108 30.8284C35.7609 30.0783 36.1824 29.0609 36.1824 28C36.1824 26.9391 35.7609 25.9217 35.0108 25.1716C34.2607 24.4214 33.2432 24 32.1824 24C31.1215 24 30.1041 24.4214 29.3539 25.1716C28.6038 25.9217 28.1824 26.9391 28.1824 28C28.1824 29.0609 28.6038 30.0783 29.3539 30.8284C30.1041 31.5786 31.1215 32 32.1824 32ZM32.1824 30C31.6519 30 31.1432 29.7893 30.7682 29.4142C30.3931 29.0391 30.1824 28.5304 30.1824 28C30.1824 27.4696 30.3931 26.9609 30.7682 26.5858C31.1432 26.2107 31.6519 26 32.1824 26C32.7128 26 33.2215 26.2107 33.5966 26.5858C33.9717 26.9609 34.1824 27.4696 34.1824 28C34.1824 28.5304 33.9717 29.0391 33.5966 29.4142C33.2215 29.7893 32.7128 30 32.1824 30ZM41.8684 30.012C42.0898 29.6122 42.4414 29.3002 42.8648 29.1281C43.2882 28.956 43.7578 28.9341 44.1954 29.066L44.9124 29.282L45.1044 29.346C45.6983 29.5633 46.2223 29.9375 46.6206 30.4287C47.0188 30.92 47.2766 31.51 47.3664 32.136C47.6634 34.204 46.9994 36.622 45.3984 39.395C43.8014 42.161 42.0434 43.943 40.1084 44.723C39.4866 44.9736 38.806 45.0403 38.1475 44.9154C37.4889 44.7904 36.8801 44.4789 36.3934 44.018L35.8514 43.504L35.7294 43.378C35.428 43.0379 35.2513 42.6053 35.2286 42.1514C35.2059 41.6976 35.3384 41.2495 35.6044 40.881L36.9614 39.001L37.0524 38.887C37.243 38.671 37.4917 38.5145 37.7689 38.4361C38.046 38.3578 38.3399 38.3608 38.6154 38.445L40.6664 39.072L40.7194 39.082H40.7624C41.0074 39.055 41.5054 38.56 42.1174 37.5C42.7974 36.322 42.9374 35.633 42.7504 35.455L41.7074 34.483L41.5744 34.35C41.2423 33.9902 41.0234 33.5407 40.9448 33.0574C40.8662 32.5742 40.9315 32.0785 41.1324 31.632L41.7944 30.161L41.8684 30.012Z" fill="white"/>
</svg>
