<svg width="62" height="63" viewBox="0 0 62 63" fill="none" xmlns="http://www.w3.org/2000/svg">
<circle cx="31" cy="31.0994" r="31" fill="#6945A5"/>
<g clip-path="url(#clip0)">
<path d="M42.6016 19.3315H41.5005C41.0328 18.0131 39.7737 17.0659 38.2969 17.0659C36.8201 17.0659 35.561 18.0131 35.0933 19.3315H20.3984C18.5245 19.3315 17 20.8561 17 22.73V38.5894C17 40.4633 18.5245 41.9878 20.3984 41.9878H28.1016V43.8003H23.5703V46.0659H39.4297V43.8003H34.8984V41.9878H42.6016C44.4755 41.9878 46 40.4633 46 38.5894V22.73C46 20.8561 44.4755 19.3315 42.6016 19.3315ZM38.2969 19.3315C38.9215 19.3315 39.4297 19.8397 39.4297 20.4644C39.4297 21.089 38.9215 21.5972 38.2969 21.5972C37.6722 21.5972 37.1641 21.089 37.1641 20.4644C37.1641 19.8397 37.6722 19.3315 38.2969 19.3315ZM32.6328 43.8003H30.3672V41.9878H32.6328V43.8003ZM43.7344 38.5894C43.7344 39.214 43.2262 39.7222 42.6016 39.7222H20.3984C19.7738 39.7222 19.2656 39.214 19.2656 38.5894V22.73C19.2656 22.1053 19.7738 21.5972 20.3984 21.5972H35.0933C35.5609 22.9156 36.8201 23.8628 38.2969 23.8628C39.7737 23.8628 41.0328 22.9156 41.5005 21.5972H42.6016C43.2262 21.5972 43.7344 22.1053 43.7344 22.73V38.5894Z" fill="white"/>
<path d="M34.8984 27.2612C34.8984 25.3873 33.3739 23.8628 31.5 23.8628C29.6261 23.8628 28.1016 25.3873 28.1016 27.2612C28.1016 29.1351 29.6261 30.6597 31.5 30.6597C33.3739 30.6597 34.8984 29.1351 34.8984 27.2612ZM31.5 28.394C30.8754 28.394 30.3672 27.8859 30.3672 27.2612C30.3672 26.6366 30.8754 26.1284 31.5 26.1284C32.1246 26.1284 32.6328 26.6366 32.6328 27.2612C32.6328 27.8859 32.1246 28.394 31.5 28.394Z" fill="white"/>
<path d="M33.7656 30.6597H31.5H29.2344C27.3605 30.6597 25.8359 32.1842 25.8359 34.0581V37.4565H37.1641V34.0581C37.1641 32.1842 35.6395 30.6597 33.7656 30.6597ZM34.8984 35.1909H28.1016V34.0581C28.1016 33.4335 28.6097 32.9253 29.2344 32.9253H33.7656C34.3903 32.9253 34.8984 33.4335 34.8984 34.0581V35.1909Z" fill="white"/>
<path d="M21.3047 23.8628H25.8359V26.1284H21.3047V23.8628Z" fill="white"/>
</g>
<defs>
<clipPath id="clip0">
<rect width="29" height="29" fill="white" transform="translate(17 17.0659)"/>
</clipPath>
</defs>
</svg>
