<svg width="63" height="63" viewBox="0 0 63 63" fill="none" xmlns="http://www.w3.org/2000/svg">
<circle cx="31.8091" cy="31.0994" r="31" fill="#6945A5"/>
<g clip-path="url(#clip0)">
<path d="M43.5713 29.0192H20.4037C18.7853 29.0192 17.4688 30.3358 17.4688 31.9542V42.0653C17.4688 43.6835 18.7853 45 20.4037 45H43.5713C45.1898 45 46.5063 43.6835 46.5063 42.0653V31.9542C46.5063 30.3358 45.1898 29.0192 43.5713 29.0192ZM44.7485 42.0653C44.7485 42.7141 44.2205 43.2422 43.5713 43.2422H20.4037C19.7546 43.2422 19.2266 42.7141 19.2266 42.0653V31.9542C19.2266 31.3051 19.7546 30.777 20.4037 30.777H43.5713C44.2205 30.777 44.7485 31.3051 44.7485 31.9542V42.0653Z" fill="white"/>
<path d="M31.99 24.4125C32.6883 24.4125 33.3866 24.1473 33.9183 23.6165C34.434 23.102 34.7178 22.4176 34.7178 21.6895C34.7178 20.9615 34.434 20.2771 33.9183 19.7626C32.8549 18.7013 31.1248 18.7013 30.0614 19.7626C29.5458 20.2771 29.262 20.9615 29.262 21.6895C29.262 22.4176 29.5458 23.102 30.0614 23.6165C30.5931 24.1473 31.2915 24.4125 31.99 24.4125ZM31.3031 21.0065C31.4926 20.8175 31.7412 20.7232 31.99 20.7232C32.2386 20.7232 32.4871 20.8177 32.6764 21.0065C32.8593 21.189 32.96 21.4316 32.96 21.6895C32.96 21.9475 32.8593 22.1899 32.6766 22.3725C32.2979 22.7504 31.6819 22.7502 31.3031 22.3725C31.1203 22.1899 31.0198 21.9475 31.0198 21.6895C31.0198 21.4316 31.1205 21.1892 31.3031 21.0065Z" fill="white"/>
<path d="M35.2013 25.5329C35.373 25.705 35.5982 25.7911 35.8234 25.7911C36.0482 25.7911 36.2727 25.7055 36.4444 25.5343C37.4732 24.5073 38.0399 23.142 38.0399 21.6895C38.0399 20.237 37.4732 18.8715 36.4444 17.8448C36.1008 17.5019 35.5442 17.5023 35.2013 17.8459C34.8584 18.1895 34.8591 18.7461 35.2027 19.089C35.8987 19.7836 36.2821 20.7072 36.2821 21.6895C36.2821 22.6716 35.8987 23.5954 35.2027 24.2901C34.8591 24.6329 34.8584 25.1893 35.2013 25.5329Z" fill="white"/>
<path d="M27.5306 25.5343C27.7023 25.7055 27.9268 25.7911 28.1515 25.7911C28.3768 25.7911 28.602 25.705 28.7736 25.5329C29.1165 25.1894 29.1158 24.633 28.7723 24.2901C28.0762 23.5952 27.6929 22.6717 27.6929 21.6893C27.6929 20.7072 28.0762 19.7836 28.7723 19.0887C29.1158 18.7459 29.1165 18.1895 28.7736 17.8459C28.4308 17.5021 27.8741 17.5017 27.5306 17.8445C26.5018 18.8715 25.9353 20.2368 25.9351 21.6893C25.9351 23.1418 26.5018 24.5073 27.5306 25.5343Z" fill="white"/>
<path d="M25.1088 39.7252H22.7495V33.4151C22.7495 32.9297 22.3561 32.5362 21.8706 32.5362C21.3851 32.5362 20.9917 32.9297 20.9917 33.4151V40.6041C20.9917 41.0895 21.3851 41.483 21.8706 41.483H25.1088C25.5941 41.483 25.9877 41.0895 25.9877 40.6041C25.9877 40.1189 25.5941 39.7252 25.1088 39.7252Z" fill="white"/>
<path d="M27.8318 32.5362C27.3463 32.5362 26.9529 32.9297 26.9529 33.4151V40.6041C26.9529 41.0895 27.3463 41.483 27.8318 41.483C28.317 41.483 28.7107 41.0895 28.7107 40.6041V33.4151C28.7107 32.9297 28.317 32.5362 27.8318 32.5362Z" fill="white"/>
<path d="M35.5181 32.5738C35.0537 32.4335 34.563 32.6965 34.4227 33.1611L33.0938 37.5632L31.7647 33.1611C31.6244 32.6962 31.1339 32.4335 30.6692 32.5738C30.2046 32.7141 29.9416 33.2046 30.0819 33.6692L32.2524 40.8582C32.2527 40.8589 32.2529 40.8595 32.2531 40.8602C32.4923 41.6256 33.6706 41.6721 33.9345 40.8602C33.9347 40.8595 33.9349 40.8591 33.9352 40.8582L36.1057 33.6692C36.246 33.2043 35.9827 32.7141 35.5181 32.5738Z" fill="white"/>
<path d="M42.1043 34.294C42.5898 34.294 42.9832 33.9006 42.9832 33.4151C42.9832 32.9297 42.5898 32.5362 42.1043 32.5362H38.1394C37.6539 32.5362 37.2605 32.9297 37.2605 33.4151V40.6041C37.2605 41.0895 37.6539 41.483 38.1394 41.483H41.986C42.4715 41.483 42.8649 41.0895 42.8649 40.6041C42.8649 40.1189 42.4715 39.7252 41.986 39.7252H39.0183V37.4359H41.5124C41.9979 37.4359 42.3913 37.0424 42.3913 36.557C42.3913 36.0715 41.9979 35.6781 41.5124 35.6781H39.0183V34.294H42.1043Z" fill="white"/>
<path d="M39.344 21.6895C39.344 23.6492 38.5793 25.4919 37.1907 26.8778C36.8472 27.2207 36.8465 27.7773 37.1893 28.1209C37.3612 28.2928 37.5862 28.3788 37.8114 28.3788C38.0362 28.3788 38.2607 28.2932 38.4324 28.122C40.1538 26.404 41.1018 24.1196 41.1018 21.6895C41.1018 19.2597 40.1538 16.975 38.4324 15.257C38.0888 14.9142 37.5324 14.9146 37.1893 15.2582C36.8465 15.6017 36.8472 16.1584 37.1907 16.5012C38.5793 17.8871 39.344 19.7296 39.344 21.6895Z" fill="white"/>
<path d="M26.1637 28.3788C26.3889 28.3788 26.6141 28.2928 26.7858 28.1209C27.1287 27.7773 27.1282 27.2207 26.7844 26.8778C25.3958 25.4919 24.6311 23.6492 24.6311 21.6893C24.6311 19.7296 25.3958 17.8869 26.7844 16.501C27.128 16.1581 27.1287 15.6015 26.7858 15.2582C26.4427 14.9144 25.8863 14.9139 25.5427 15.2568C23.8213 16.975 22.8733 19.2595 22.8733 21.6893C22.8733 24.1193 23.8213 26.4038 25.5427 28.122C25.7144 28.2932 25.9389 28.3788 26.1637 28.3788Z" fill="white"/>
</g>
<defs>
<clipPath id="clip0">
<rect width="30" height="30" fill="white" transform="translate(17 15)"/>
</clipPath>
</defs>
</svg>
