<svg width="62" height="63" viewBox="0 0 62 63" fill="none" xmlns="http://www.w3.org/2000/svg">
<circle cx="31" cy="31.1318" r="31" fill="#6945A5"/>
<g clip-path="url(#clip0)">
<path d="M42.2535 27.0293L38.3786 29.9739V27.7136C38.3786 27.239 37.9939 26.8543 37.5192 26.8543H22.4924C22.0178 26.8543 21.6331 27.239 21.6331 27.7136V40.1121C21.6331 40.5866 22.0178 40.9713 22.4924 40.9713H37.5192C37.9939 40.9713 38.3786 40.5866 38.3786 40.1121V37.8517L42.2535 40.7963C42.8141 41.2223 43.6329 40.8251 43.6329 40.1121V27.7136C43.6329 27.0045 42.8187 26.5998 42.2535 27.0293ZM36.6599 39.2528H23.3518V28.573H36.6599V39.2528ZM41.9141 38.3796L38.3786 35.6931V32.1327L41.9141 29.446V38.3796ZM25.4128 22.3764C27.2025 20.2127 29.8342 18.9717 32.6329 18.9717C35.4316 18.9717 38.0632 20.2127 39.8531 22.3764C40.1556 22.7422 40.1044 23.284 39.7387 23.5865C39.3739 23.8881 38.832 23.8387 38.5287 23.472C37.0666 21.7042 34.9176 20.6904 32.6329 20.6904C30.3483 20.6904 28.1994 21.7042 26.7373 23.472C26.4348 23.8377 25.893 23.8891 25.5273 23.5865C25.1615 23.284 25.1103 22.7422 25.4128 22.3764ZM35.7406 23.7607C36.1444 24.0099 36.2696 24.5395 36.0204 24.9433C35.7715 25.3463 35.2422 25.4729 34.8376 25.223C34.1757 24.8143 33.4134 24.5982 32.6329 24.5982C31.8526 24.5982 31.0902 24.8143 30.4282 25.223C30.0244 25.4724 29.495 25.3472 29.2456 24.9433C28.9962 24.5395 29.1214 24.0099 29.5252 23.7607C30.4588 23.1841 31.5333 22.8795 32.6329 22.8795C33.7326 22.8795 34.8072 23.1841 35.7406 23.7607Z" fill="white"/>
</g>
<defs>
<clipPath id="clip0">
<rect width="22" height="22" fill="white" transform="translate(21.6331 18.9717)"/>
</clipPath>
</defs>
</svg>
