<svg width="63" height="63" viewBox="0 0 63 63" fill="none" xmlns="http://www.w3.org/2000/svg">
<circle cx="31.8091" cy="31.7349" r="31" fill="#6945A5"/>
<g clip-path="url(#clip0)">
<path d="M46.8956 39.7607L45.2113 34.8588C46.0232 33.1991 46.4522 31.3533 46.4551 29.4961C46.4601 26.2669 45.2107 23.2135 42.9371 20.8986C40.6629 18.5833 37.6325 17.2799 34.404 17.2288C31.0563 17.1759 27.9095 18.4493 25.5438 20.8149C23.2627 23.096 21.9974 26.1032 21.9574 29.3168C19.7091 31.0096 18.382 33.6488 18.3864 36.4677C18.3885 37.7869 18.6854 39.0982 19.248 40.2839L18.0879 43.6602C17.8884 44.2406 18.0341 44.8708 18.4681 45.3047C18.7735 45.6102 19.1762 45.7728 19.5903 45.7728C19.7645 45.7728 19.9407 45.744 20.1127 45.685L23.4889 44.5248C24.6747 45.0874 25.986 45.3843 27.3052 45.3864C27.3099 45.3864 27.3145 45.3864 27.3192 45.3864C30.1801 45.3863 32.8394 44.0251 34.526 41.7216C36.2811 41.6754 38.0177 41.2506 39.5876 40.4826L44.4895 42.167C44.6938 42.2371 44.9032 42.2713 45.1102 42.2713C45.6023 42.2713 46.0808 42.0781 46.4439 41.715C46.9595 41.1993 47.1326 40.4505 46.8956 39.7607ZM27.3191 43.6602C27.3154 43.6602 27.3115 43.6602 27.3078 43.6602C26.1402 43.6585 24.9808 43.3706 23.9549 42.8279C23.744 42.7164 23.4964 42.6971 23.2708 42.7745L19.8088 43.9642L20.9984 40.5022C21.0759 40.2766 21.0566 40.0289 20.945 39.8181C20.4023 38.7922 20.1145 37.6327 20.1127 36.4651C20.1098 34.587 20.8404 32.8068 22.118 31.4738C22.5353 34.0179 23.7479 36.3622 25.6273 38.2083C27.4929 40.0407 29.8379 41.2073 32.3682 41.5888C31.0321 42.9056 29.2312 43.6602 27.3191 43.6602ZM45.2231 40.4944C45.174 40.5435 45.1158 40.5569 45.0503 40.5343L39.8027 38.7311C39.7115 38.6998 39.6167 38.6843 39.5222 38.6843C39.383 38.6843 39.2442 38.718 39.1186 38.7845C37.6203 39.5771 35.9272 39.9975 34.2222 40.0001C34.2166 40.0001 34.2115 40.0001 34.2059 40.0001C28.4929 40.0001 23.774 35.3593 23.6835 29.6477C23.6379 26.7712 24.7321 24.0678 26.7644 22.0355C28.7968 20.0031 31.5006 18.9094 34.3767 18.9547C40.0938 19.0454 44.7378 23.773 44.7289 29.4934C44.7263 31.1984 44.3059 32.8916 43.5134 34.3898C43.4018 34.6007 43.3825 34.8483 43.46 35.0739L45.2632 40.3215C45.2857 40.3872 45.2722 40.4454 45.2231 40.4944Z" fill="white"/>
<path d="M39.3475 24.9021H29.0638C28.5871 24.9021 28.2007 25.2885 28.2007 25.7651C28.2007 26.2418 28.5871 26.6282 29.0638 26.6282H39.3475C39.8242 26.6282 40.2106 26.2418 40.2106 25.7651C40.2106 25.2885 39.8242 24.9021 39.3475 24.9021Z" fill="white"/>
<path d="M39.3475 28.4518H29.0638C28.5871 28.4518 28.2007 28.8383 28.2007 29.3149C28.2007 29.7915 28.5871 30.178 29.0638 30.178H39.3475C39.8242 30.178 40.2106 29.7915 40.2106 29.3149C40.2106 28.8383 39.8242 28.4518 39.3475 28.4518Z" fill="white"/>
<path d="M35.389 32.0014H29.0638C28.5871 32.0014 28.2007 32.3879 28.2007 32.8645C28.2007 33.3412 28.5871 33.7276 29.0638 33.7276H35.389C35.8657 33.7276 36.2521 33.3411 36.2521 32.8645C36.2521 32.3879 35.8657 32.0014 35.389 32.0014Z" fill="white"/>
</g>
<defs>
<clipPath id="clip0">
<rect width="29" height="29" fill="white" transform="translate(18 17)"/>
</clipPath>
</defs>
</svg>
