<svg width="62" height="63" viewBox="0 0 62 63" fill="none" xmlns="http://www.w3.org/2000/svg">
<circle cx="31" cy="31.2639" r="31" fill="#6945A5"/>
<path d="M31.5 15C22.3873 15 15 22.3873 15 31.5C15 40.6127 22.3873 48 31.5 48C40.6127 48 48 40.6127 48 31.5C48 22.3873 40.6127 15 31.5 15ZM31.5 45.9375C23.5264 45.9375 17.0625 39.4736 17.0625 31.5C17.0625 23.5264 23.5264 17.0625 31.5 17.0625C39.4736 17.0625 45.9375 23.5264 45.9375 31.5C45.9375 39.4736 39.4736 45.9375 31.5 45.9375Z" fill="white"/>
<path d="M26.3438 28.4062C27.4828 28.4062 28.4062 27.4828 28.4062 26.3438C28.4062 25.2047 27.4828 24.2812 26.3438 24.2812C25.2047 24.2812 24.2812 25.2047 24.2812 26.3438C24.2812 27.4828 25.2047 28.4062 26.3438 28.4062Z" fill="white"/>
<path d="M36.6562 28.4062C37.7953 28.4062 38.7188 27.4828 38.7188 26.3438C38.7188 25.2047 37.7953 24.2812 36.6562 24.2812C35.5172 24.2812 34.5938 25.2047 34.5938 26.3438C34.5938 27.4828 35.5172 28.4062 36.6562 28.4062Z" fill="white"/>
<path d="M38.7188 31.5C38.7188 35.4868 35.4868 38.7188 31.5 38.7188C27.5132 38.7188 24.2812 35.4868 24.2812 31.5H22.2188C22.2188 36.6259 26.3741 40.7812 31.5 40.7812C36.6259 40.7812 40.7812 36.6259 40.7812 31.5H38.7188Z" fill="white"/>
</svg>
