<svg width="63" height="63" viewBox="0 0 63 63" fill="none" xmlns="http://www.w3.org/2000/svg">
<circle cx="31.8091" cy="31.2639" r="31" fill="#6945A5"/>
<g clip-path="url(#clip0)">
<path d="M35.7935 36.2444H27.8247C27.2746 36.2444 26.8286 36.6904 26.8286 37.2405C26.8286 37.7906 27.2746 38.2366 27.8247 38.2366H35.7935C36.3436 38.2366 36.7896 37.7906 36.7896 37.2405C36.7896 36.6904 36.3436 36.2444 35.7935 36.2444Z" fill="white"/>
<path d="M36.0925 27.3095L33.75 26.9691L32.7024 24.8465C32.5346 24.5065 32.1883 24.2913 31.8092 24.2913C31.4301 24.2913 31.0838 24.5065 30.916 24.8465L29.8684 26.9692L27.5259 27.3096C27.1507 27.3641 26.839 27.6269 26.7219 27.9875C26.6047 28.3481 26.7024 28.7439 26.9739 29.0086L28.6689 30.6608L28.2688 32.9938C28.2047 33.3675 28.3583 33.7452 28.665 33.968C28.9718 34.1909 29.3784 34.2203 29.714 34.0439L31.8092 32.9423L33.9044 34.0438C34.2413 34.221 34.6479 34.1899 34.9534 33.968C35.2601 33.7451 35.4138 33.3675 35.3497 32.9937L34.9495 30.6607L36.6445 29.0085C36.916 28.7439 37.0137 28.348 36.8965 27.9874C36.7794 27.6268 36.4677 27.364 36.0925 27.3095ZM33.184 29.5997C32.9492 29.8285 32.8421 30.1583 32.8975 30.4814L33.045 31.3412L32.2728 30.9353C32.1277 30.859 31.9685 30.8209 31.8093 30.8209C31.6501 30.8209 31.4909 30.859 31.3458 30.9353L30.5736 31.3412L30.7211 30.4814C30.7765 30.1583 30.6693 29.8285 30.4346 29.5997L29.8099 28.9908L30.6732 28.8653C30.9977 28.8182 31.2781 28.6144 31.4232 28.3204L31.8092 27.5381L32.1953 28.3204C32.3404 28.6144 32.6209 28.8182 32.9453 28.8653L33.8086 28.9908L33.184 29.5997Z" fill="white"/>
<path d="M48.3786 28.5603L34.5127 14.6944C34.3529 14.5345 34.1419 14.4367 33.9323 14.4104C33.1355 14.3105 32.4608 14.2639 31.8091 14.2639C22.4485 14.2639 14.8091 21.9039 14.8091 31.2639C14.8091 40.6245 22.4491 48.2639 31.8091 48.2639C41.1696 48.2639 48.8091 40.6239 48.8091 31.2639C48.8091 30.6122 48.7625 29.9375 48.6626 29.1407C48.6363 28.9311 48.5389 28.7204 48.3786 28.5603ZM42.8325 31.2639C42.8325 37.3423 37.8874 42.2874 31.8091 42.2874C25.7307 42.2874 20.7856 37.3423 20.7856 31.2639C20.7856 25.1856 25.7307 20.2405 31.8091 20.2405C32.453 20.2405 33.095 20.2973 33.7245 20.408C35.2376 24.5251 38.5461 27.8346 42.6649 29.3484C42.7757 29.978 42.8325 30.62 42.8325 31.2639ZM35.1275 18.1266L44.9464 27.9455C40.0946 26.8359 36.2371 22.9784 35.1275 18.1266ZM31.8091 46.2717C23.5337 46.2717 16.8013 39.5393 16.8013 31.2639C16.8013 22.9886 23.5337 16.2561 31.8091 16.2561C32.1395 16.2561 32.4798 16.2702 32.8473 16.2997C32.8944 16.9815 32.9877 17.6547 33.1253 18.3158C32.6887 18.2717 32.2492 18.2483 31.8091 18.2483C24.6506 18.2483 18.7935 24.1063 18.7935 31.2639C18.7935 34.7228 20.1522 37.9864 22.6194 40.4536C25.0866 42.9208 28.3502 44.2795 31.8091 44.2795C38.9676 44.2795 44.8247 38.4216 44.8247 31.2639C44.8247 30.8238 44.8013 30.3844 44.7572 29.9477C45.4183 30.0853 46.0915 30.1786 46.7733 30.2257C46.8027 30.5932 46.8169 30.9335 46.8169 31.2639C46.8169 39.5393 40.0844 46.2717 31.8091 46.2717Z" fill="white"/>
</g>
<defs>
<clipPath id="clip0">
<rect width="34" height="34" fill="white" transform="translate(14.8091 14.2639)"/>
</clipPath>
</defs>
</svg>
