<svg width="62" height="63" viewBox="0 0 62 63" fill="none" xmlns="http://www.w3.org/2000/svg">
<circle cx="31" cy="31.5569" r="31" fill="#6945A5"/>
<path d="M32.1856 44.6819L30.5 43.7444L34.375 37.1819H40.1875C40.7014 37.1819 41.1942 36.9843 41.5575 36.6327C41.9209 36.2811 42.125 35.8042 42.125 35.3069V24.0569C42.125 23.5596 41.9209 23.0827 41.5575 22.7311C41.1942 22.3794 40.7014 22.1819 40.1875 22.1819H20.8125C20.2986 22.1819 19.8058 22.3794 19.4425 22.7311C19.0791 23.0827 18.875 23.5596 18.875 24.0569V35.3069C18.875 35.8042 19.0791 36.2811 19.4425 36.6327C19.8058 36.9843 20.2986 37.1819 20.8125 37.1819H29.5312V39.0569H20.8125C19.7848 39.0569 18.7992 38.6618 18.0725 37.9585C17.3458 37.2553 16.9375 36.3014 16.9375 35.3069V24.0569C16.9375 23.0623 17.3458 22.1085 18.0725 21.4052C18.7992 20.702 19.7848 20.3069 20.8125 20.3069H40.1875C41.2152 20.3069 42.2008 20.702 42.9275 21.4052C43.6542 22.1085 44.0625 23.0623 44.0625 24.0569V35.3069C44.0625 36.3014 43.6542 37.2553 42.9275 37.9585C42.2008 38.6618 41.2152 39.0569 40.1875 39.0569H35.4988L32.1856 44.6819Z" fill="white"/>
<path d="M22.75 25.9319H38.25V27.8069H22.75V25.9319Z" fill="white"/>
<path d="M22.75 31.5569H32.4375V33.4319H22.75V31.5569Z" fill="white"/>
</svg>
